<?xml version="1.0" encoding="utf-8"?>
<!-- Generator: Adobe Illustrator 25.2.0, SVG Export Plug-In . SVG Version: 6.00 Build 0)  -->
<svg version="1.1" xmlns="http://www.w3.org/2000/svg" xmlns:xlink="http://www.w3.org/1999/xlink" x="0px" y="0px"
	 viewBox="0 0 750 500" style="enable-background:new 0 0 750 500;" xml:space="preserve">
<style type="text/css">
	.st0{fill:#7384FF;}
	.st1{opacity:0.7;}
	.st2{fill:#9CA8FF;}
	.st3{fill:#C0D1FF;}
	.st4{opacity:0.2;fill:#FFFDFC;}
	.st5{fill:#8E9AEE;}
	.st6{fill:#C4C9FC;}
	.st7{fill:#525BAD;}
	.st8{fill:#24315D;}
	.st9{fill:#2D3A70;}
	.st10{fill:#E6E9FF;}
	.st11{fill:#FFFFFF;}
	.st12{fill:#E3E6ED;}
	.st13{fill:#192C51;}
	.st14{fill:#C2CBF9;}
	.st15{fill:#3C4888;}
	.st16{fill:#46509B;}
	.st17{fill:#AF2536;}
	.st18{fill:#E5918F;}
	.st19{fill:#E2404D;}
	.st20{fill:#18004D;}
	.st21{fill:#CC6362;}
	.st22{fill:#210866;}
	.st23{fill:none;stroke:#210866;stroke-width:0.8664;stroke-miterlimit:10;}
	.st24{fill:#218AFF;}
	.st25{fill:#5AB8FF;}
	.st26{fill:none;stroke:#5AB8FF;stroke-width:0.5;stroke-miterlimit:10;}
	.st27{fill:#3945BA;}
	.st28{fill:#F5F7FF;}
	.st29{fill:#162842;}
	.st30{fill:#0D1D30;}
	.st31{fill:#253793;}
	.st32{fill:#182B51;}
	.st33{fill:#76BEFF;}
	.st34{fill:#B8C7FF;}
	.st35{fill:#43A6FF;}
	.st36{fill:#B4C1EF;}
	.st37{fill:none;stroke:#FFFFFF;stroke-width:1.0828;stroke-linecap:round;stroke-miterlimit:10;}
	.st38{fill:none;stroke:#FFFFFF;stroke-width:0.7219;stroke-linecap:round;stroke-miterlimit:10;}
	.st39{fill:#DEE3FC;}
	.st40{fill:none;stroke:#FFFFFF;stroke-width:1.3186;stroke-linecap:round;stroke-linejoin:round;stroke-miterlimit:10;}
	.st41{fill:none;stroke:#FFFFFF;stroke-width:1.3186;stroke-linecap:round;stroke-miterlimit:10;}
	.st42{opacity:0.3;fill:#B8C7FF;}
	.st43{fill:none;stroke:#FFFFFF;stroke-width:1.1144;stroke-linecap:round;stroke-miterlimit:10;}
</style>
<g id="BACKGROUND">
</g>
<g id="OBJECTS">
	<g>
		<g>
			<path class="st0" d="M449,34.2h-28.5c-0.5,0-0.9-0.4-0.9-0.9v-9.9c0-0.5,0.4-0.9,0.9-0.9H449c0.5,0,0.9,0.4,0.9,0.9v9.9
				C449.9,33.8,449.5,34.2,449,34.2z"/>
			<path class="st0" d="M668,149.5h-28.5c-0.5,0-0.9-0.4-0.9-0.9v-9.9c0-0.5,0.4-0.9,0.9-0.9H668c0.5,0,0.9,0.4,0.9,0.9v9.9
				C668.9,149.1,668.5,149.5,668,149.5z"/>
			<path class="st0" d="M111.9,300.2H83.4c-0.5,0-0.9-0.4-0.9-0.9v-9.9c0-0.5,0.4-0.9,0.9-0.9h28.5c0.5,0,0.9,0.4,0.9,0.9v9.9
				C112.8,299.8,112.4,300.2,111.9,300.2z"/>
			<path class="st0" d="M619.7,399.1h-28.5c-0.5,0-0.9-0.4-0.9-0.9v-9.9c0-0.5,0.4-0.9,0.9-0.9h28.5c0.5,0,0.9,0.4,0.9,0.9v9.9
				C620.6,398.7,620.2,399.1,619.7,399.1z"/>
			<path class="st0" d="M590.1,130.2h-28.5c-0.5,0-0.9-0.4-0.9-0.9v-9.9c0-0.5,0.4-0.9,0.9-0.9h28.5c0.5,0,0.9,0.4,0.9,0.9v9.9
				C591,129.8,590.6,130.2,590.1,130.2z"/>
			<path class="st0" d="M189.5,165.9h-28.5c-0.5,0-0.9-0.4-0.9-0.9v-9.9c0-0.5,0.4-0.9,0.9-0.9h28.5c0.5,0,0.9,0.4,0.9,0.9v9.9
				C190.5,165.5,190.1,165.9,189.5,165.9z"/>
			<path class="st0" d="M305.6,55.5h-28.5c-0.5,0-0.9-0.4-0.9-0.9v-9.9c0-0.5,0.4-0.9,0.9-0.9h28.5c0.5,0,0.9,0.4,0.9,0.9v9.9
				C306.5,55.1,306.1,55.5,305.6,55.5z"/>
			<path class="st0" d="M137.9,160h-28.5c-0.5,0-0.9-0.4-0.9-0.9v-9.9c0-0.5,0.4-0.9,0.9-0.9h28.5c0.5,0,0.9,0.4,0.9,0.9v9.9
				C138.9,159.6,138.5,160,137.9,160z"/>
			<path class="st0" d="M652.8,360.6h-28.5c-0.5,0-0.9-0.4-0.9-0.9v-9.9c0-0.5,0.4-0.9,0.9-0.9h28.5c0.5,0,0.9,0.4,0.9,0.9v9.9
				C653.7,360.2,653.3,360.6,652.8,360.6z"/>
			<path class="st0" d="M99.8,230.9H71.3c-0.5,0-0.9-0.4-0.9-0.9v-9.9c0-0.5,0.4-0.9,0.9-0.9h28.5c0.5,0,0.9,0.4,0.9,0.9v9.9
				C100.7,230.5,100.3,230.9,99.8,230.9z"/>
			<path class="st0" d="M577.2,100.9h-28.5c-0.5,0-0.9-0.4-0.9-0.9v-9.9c0-0.5,0.4-0.9,0.9-0.9h28.5c0.5,0,0.9,0.4,0.9,0.9v9.9
				C578.1,100.5,577.7,100.9,577.2,100.9z"/>
		</g>
		<g class="st1">
			<rect x="176.7" y="73.9" class="st2" width="328.5" height="228.3"/>
			<rect x="185.9" y="82" class="st3" width="310.4" height="211.4"/>
			<polygon class="st4" points="332.6,293.4 302.3,293.4 222.2,82 252.5,82 			"/>
			<polygon class="st4" points="478.9,293.4 448.6,293.4 368.5,82 398.8,82 			"/>
			<polygon class="st4" points="368.5,293.4 353.4,293.4 273.3,82 288.4,82 			"/>
			
				<rect x="335.2" y="-28.8" transform="matrix(-1.836970e-16 1 -1 -1.836970e-16 469.4354 -210.8862)" class="st2" width="9.9" height="316.2"/>
			<rect x="336.1" y="82" class="st2" width="9.9" height="211.5"/>
		</g>
		<g>
			<g>
				<polygon class="st5" points="317.4,440.5 322,440.5 331.5,360.1 322.8,360.1 				"/>
				<polygon class="st5" points="382.4,440.5 377.9,440.5 368.3,360.1 377.1,360.1 				"/>
				<path class="st6" d="M305.6,257.1h-24.2c-5.7,0-10.1,5.1-9.2,10.8l14.8,94.6h28L305.6,257.1z"/>
				<polygon class="st6" points="281.7,440.5 286.3,440.5 295.8,360.1 287,360.1 				"/>
				<polygon class="st6" points="346.7,440.5 342.1,440.5 332.6,360.1 341.4,360.1 				"/>
				<path class="st6" d="M291.3,366.9h84.1c2.4,0,4.3-1.9,4.3-4.3l0,0c0-2.4-1.9-4.3-4.3-4.3h-84.1c-2.4,0-4.3,1.9-4.3,4.3l0,0
					C287,364.9,289,366.9,291.3,366.9z"/>
			</g>
			<g>
				<path class="st7" d="M368,440.6H341c0,0-1.5-4.8,1.8-10.7c0,0,2.2,1.7,8.7,0.6c0,0,2.7,2.3,4.6,3.2
					C357.9,434.5,368.7,436.6,368,440.6z"/>
				<path class="st7" d="M416.7,440.6h-26.9c0,0-1.5-4.8,1.8-10.7c0,0,2.2,1.7,8.7,0.6c0,0,2.7,2.3,4.6,3.2
					C406.6,434.5,417.4,436.6,416.7,440.6z"/>
				<path class="st8" d="M326.6,333.7L326.6,333.7c0.4-3.7,1.1-5.6,1.1-5.6s47.3,8.9,59.8,13.1c6.2,2.1,11,6,11.6,11.6l0,0
					c0.1,0.6,1.6,56.9,1.8,77.4c-5.1,1.3-8.9,1.2-10.6,1c-1.4-8.3-5.7-26.5-7.6-35.2c-2.2-10.2-5-22.5-5.5-30.9
					c-19.1-1.7-44.3-4.5-47.3-6C324.9,356.6,323.4,347.7,326.6,333.7z"/>
				<path class="st9" d="M295.9,331.1c0.4-3.7,1.7-5,1.7-5l19.5,6.4l17.7,4c6.6,1.5,14.5,3.2,21.5,4.8c7.9,1.8,13.1,7.7,11.3,15.6
					l-2,9.5c0,0,0,0,0,0c-2.3,12.2-9.6,44.7-12.9,64.4c-6.3,0.5-9.3-0.2-10.9-0.6c0.3-7.2,0.1-24.1,0-31.7
					c-0.1-10.1-0.3-24.8,2.1-34.3c-16.4-0.6-35.1-2-43.6-6.6C290.3,352.2,295.9,331.1,295.9,331.1z"/>
				<path class="st10" d="M350.6,273.5l2.5,11l0.8,3.7v0l3.1,13.5c1.3,1.6,8.7,11.1,13.6,18.9c5.4,8.5,11.7,14.9,11.7,15l0,0
					c0.8,0.8,4.6,2.7,6.6,4.1c2,1.4,4,4.2,4,4.2s-4.4-2.2-7.8-3.1c-1.7-0.4-4.6-0.9-4.6-0.4c0,0.1,0.7,1.1,0.9,1.5
					c0.3,0.5,1.9,1.3,2.4,1.8c0.4,0.5,0.6,1.5,0.1,1.5c-0.5,0-3.3-0.9-4.5-1.5c-1.2-0.5-2.1-1.8-2.8-3.4c-0.9-2.2-2.9-4.3-2.9-4.3
					l0,0c-13.3-11-24.7-24.3-26.9-27.1c-0.9-1.1-1.6-2.2-2.3-3.2v0c-2-3.2-3-6.2-3.9-10c0,0,0,0,0,0c-0.7-2-1.2-4-1.7-5.8
					c-1.4-5.3-2.1-9.5-2.1-9.5L350.6,273.5z"/>
				<path class="st11" d="M296.2,303.2c0.4,6.9,3.8,12.1,0.6,22.6c-0.8,2.5-1,3.8-1,4.9c0,0.7,0.9,1.5,1.3,1.7
					c4,2.3,19.4,2.6,27.2,2.6c6.9,0,17.3-1.1,18.6-2.8c1.2-1.6,0.1-3.9-0.5-7.1c-2.5-14.4-1.6-21.9-1.5-32.4c0-0.3,0-0.5,0-0.8v-0.2
					h0c0.8-0.1,1.6-0.3,2.3-0.4c1.1-0.3,2-0.5,2.4-0.6c8.4-2.6,9.6-5.3,9.6-5.3c-2.4-10.3-5.2-17.2-7.8-21.8
					c-0.1-0.1-0.1-0.2-0.2-0.3c-0.1-0.1-0.1-0.2-0.2-0.3c-1.4-2.3-3.3-4.2-5.5-5.8c-0.2-0.2-0.4-0.3-0.7-0.5c-6.3-4.3-14-6-14.7-6.1
					c0,0,0,0,0,0c-2-0.1-4.2-0.2-6.5-0.1c-4,0.1-10.5,1.1-16.3,2.7c0,0,0,0-0.1,0c-0.6,0.2-4.3,1.6-8.2,5.7
					c-1.3,1.4-2.6,3.1-3.8,5.1c0.3,6.5,1.7,18.1,2.5,28.1C293.8,293.7,296.1,301.7,296.2,303.2z"/>
				<path class="st12" d="M341,291.7c0.8-0.1,1.6-0.3,2.3-0.4l-1.9-17.8C341.2,276.4,341,289.9,341,291.7z"/>
				<g>
					<path class="st13" d="M335.9,218.3c0,0,1.8,12.1-3.6,13.3c-3.5,0.8-3.1-3.4-3.1-3.4l-0.1-5L335.9,218.3z"/>
					<path class="st10" d="M323.2,254.6c-0.2,1.3-0.7,7.5-1.1,7.5l-1.5-7.2c0,0-2.9,4.1-2.8,4.7c-4.2-2-8.3-7.4-6.7-8.1
						c1.2-0.2,1.6-1.1,1.8-1.8c1.6-6.3-0.4-16.3-0.4-16.3l7.6,6l3.6,2.8c0.1,0.4,0.2,0.8,0.3,1.2v0.7c0,0,0,0,0,0
						c0,0.2-0.3,3.7,0.4,5.5c0.1,0.3,0.3,0.6,0.5,0.8c0.2,0.2,1.4,0.3,1.4,0.3l0,0C326.5,251.6,327.5,253.9,323.2,254.6z"/>
					<path class="st14" d="M316.9,239.7c0,0,0.1,6.7,7.3,9.7c-0.7-1.7-0.4-5.2-0.3-5.5l-3-2.4L316.9,239.7z"/>
					<path class="st10" d="M335,223.1c0.1,3.7,0.1,13.5-1.9,19.1c-0.9,2.6-3.5,4.3-6.3,4c-2.7-0.3-6.6-1.4-10.1-5.1
						c-1.8-1.9-3.8-2.1-4.7-4.6c-1.5-4-3.8-11.3-2.5-16c1.8-6.5,21.7-13.8,25.1-0.6C334.9,220.9,335,222,335,223.1z"/>
					<path class="st13" d="M312.7,212.5c6.5-3.5,26.5-4.1,25.3,7.3c-0.5,5.5-12.6,4.2-16.4,3.3c-0.6,2.7,0,6.2-2,8.3
						c-1.1,1.2-3.2,1.5-5.4,1.4c-0.2,0.5-1.3,1.1-1.3,1.8c-0.1,2.5,0.5,5.8,0.5,8.8l-1.1-0.4c-0.1-0.5-6.9-10.4-7-18
						C305.2,217.8,310.8,213.5,312.7,212.5z"/>
					<g>
						<path class="st10" d="M316.9,237.1c-4,2.1-6.5-8-2.6-8.9c3-0.7,3.6,3.5,3.6,3.5S319.1,235.9,316.9,237.1z"/>
					</g>
					<path class="st14" d="M316.7,232.8c0-0.3,0-0.6-0.1-0.9c-0.1-0.4-0.2-0.8-0.4-1.1c-0.2-0.3-0.5-0.6-0.7-0.7
						c-0.5-0.3-0.9-0.4-0.9-0.4s0.3,0.2,0.6,0.7c0.3,0.4,0.6,1,0.7,1.7c-0.1-0.1-0.2-0.1-0.3-0.2c-0.3-0.1-0.7-0.2-1-0.2
						c-0.3,0-0.4,0.1-0.4,0.1s0.2,0,0.4,0.1c0.2,0.1,0.6,0.2,0.8,0.4c0.2,0.2,0.4,0.4,0.5,0.6c0.1,0.2,0.1,0.3,0.1,0.3l0,0
						c0,0.3,0,0.6,0,0.8c0,0.3,0,0.5,0,0.7c0,0.2,0,0.3,0,0.3s0.1-0.1,0.1-0.2c0.1-0.2,0.2-0.4,0.3-0.6c0.1-0.3,0.2-0.6,0.2-1
						C316.7,233,316.7,232.9,316.7,232.8L316.7,232.8C316.7,232.8,316.7,232.8,316.7,232.8z"/>
				</g>
				<path class="st12" d="M306.3,273.5c0,0-2.2,13.2-3.8,19.2c0,0-1,0.4-4.9,0.3L306.3,273.5z"/>
				<g>
					<path class="st15" d="M263.3,401.8v35.4c0,1.7,1.4,3.1,3.1,3.1h53.4c1.7,0,3.1-1.4,3.1-3.1v-35.4c0-1.7-1.4-3.1-3.1-3.1h-53.4
						C264.7,398.7,263.3,400.1,263.3,401.8z"/>
					<path class="st7" d="M260.1,401.8v35.4c0,1.7,1.4,3.1,3.1,3.1h53.4c1.7,0,3.1-1.4,3.1-3.1v-35.4c0-1.7-1.4-3.1-3.1-3.1h-53.4
						C261.4,398.7,260.1,400.1,260.1,401.8z"/>
					<path class="st15" d="M280.3,400h3.3v-0.8c0-1.7,1.4-3.1,3.1-3.1h6.4c1.7,0,3.1,1.4,3.1,3.1v0.8h3.3v-0.8
						c0-3.5-2.9-6.4-6.4-6.4h-6.4c-3.5,0-6.4,2.9-6.4,6.4V400z"/>
					<path class="st16" d="M263.1,398.7h26.7h26.7c1.7,0,3.1,1.4,3.1,3.1v7.8l-29.8,9.3l-29.8-9.3v-7.8
						C260.1,400.1,261.4,398.7,263.1,398.7z"/>
					<path class="st15" d="M285.5,420.4h8.5c0.3,0,0.6-0.3,0.6-0.6v-3.1c0-0.3-0.3-0.6-0.6-0.6h-8.5c-0.3,0-0.6,0.3-0.6,0.6v3.1
						C284.9,420.1,285.2,420.4,285.5,420.4z"/>
				</g>
				<path class="st10" d="M301,283.3c0,0-0.1,0.7-0.3,2c-0.4,2.2-1,5.9-1.8,9.8c-0.6,2.7-1.2,5.5-1.9,7.9l-15.3-1.6
					c0.2-2,0.5-4.3,0.7-6.7c0-0.2,0-0.3,0-0.3c0.3-2.2,0.5-4.4,0.8-6.4c0.1-1.1,0.3-2.1,0.4-3.1c0.6-4.8,1.1-8.3,1.1-8.3L301,283.3z
					"/>
				<path class="st11" d="M286.8,268.5c2.5-5.7,4.5-8.4,5.6-9.6c3.4-3.6,7.7-4.7,7.7-4.7c1.7-0.7,3.1-1.1,3.1-1.1s5.2,3.7,3.4,18.5
					c-0.8,6.4-5.6,19.6-5.6,19.6c-3.3,0.6-8.3-0.7-12-2c-4.8-1.7-6.7-4-6.7-4S284,274.9,286.8,268.5z"/>
				<path class="st11" d="M313,248.4c0,0,1.3,5.2,7.5,6.5l-2.9,5.2c0,0-6.1-1.9-7.8-8.4L313,248.4z"/>
				<path class="st11" d="M323.2,254.6l3.3,3.9c0,0,1.4-3.6-0.3-8l-2.1-1.8C324,248.8,324.8,250.4,323.2,254.6z"/>
				<path class="st9" d="M325.9,304.2l13.8-30.6c0.2-0.5,0.7-0.8,1.2-0.8h27.2c0.8,0,1.3,0.9,0.9,1.5l-18.2,31.1
					c-0.2,0.4-0.7,0.7-1.2,0.7h-22.6C326.2,306.1,325.5,305.1,325.9,304.2z"/>
				<path class="st10" d="M328.2,291.4c0,0-29.5,3.3-34.8,4.6c-5.3,1.3-11.7,5.3-11.7,5.3s-1.4,7.4,6.3,8.4s41.2-14.2,41.2-14.2
					L328.2,291.4z"/>
				<path class="st10" d="M341.1,288.8c-0.2,0-0.7,0.2-1.3,0.4c0,0,0-0.1,0.1-0.1c0.2-0.6-0.4-0.6-0.8-0.6c-0.4,0.1-1.3,0.7-2.5,0.8
					c-1.2,0.2-3.8-0.2-3.8-0.2l0.7-1.6c0,0-2.2,0.4-2.7,0.8c-0.5,0.4-1.2,1.1-2.4,2s-2.7,1.4-2.7,1.4l1.2,2.6l-2.4,0.6l0.6,0.9
					c0,0,7.3-0.2,8.3-0.5c1-0.2,3.8-1.5,4.7-2c0.5-0.3,0.7-0.6,0.6-0.9c0.6-0.4,1.2-0.8,1.5-1c0.6-0.4,0.7-0.8,0.4-1
					c0.3-0.2,0.6-0.4,0.7-0.5C342,289.3,341.8,288.8,341.1,288.8z"/>
			</g>
		</g>
		<g>
			<path class="st17" d="M478.8,241.9c0,0,1.7-0.4,2.2-3.3c0.5-2.8-3.5-2.9-3.6-2.8c-0.1,0.1-2,1.1-2,1.1s-0.2,1.8,0,2
				C475.6,239.1,476.8,242.6,478.8,241.9z"/>
			<path class="st18" d="M504.6,202.8c-0.2-0.6-0.9,0.1-1.1,0.5c0,0.1-0.1,0.2-0.2,0.3c0.4-0.8,1.1-2.7,0.9-3.3
				c-0.2-0.5-0.7-0.2-1.1,0.2c0.3-0.8,0.5-1.6,0.4-2c-0.2-0.7-1.1,0.2-1.4,0.6c-0.1,0.2-0.8,1.3-1.5,2.4c0.4-0.9,0.9-2.3,0.8-2.8
				c-0.2-0.7-1.1,0.2-1.4,0.6c-0.3,0.5-3.1,4.9-3.1,4.9l-0.7,1.1c0,0-0.3-2.7-0.6-3.6c-0.3-1-1.1-1-1.3-0.2
				c-0.2,0.8-0.5,2.9-0.6,3.9c-0.1,1-0.1,2.8-0.1,3.9c0,0.6-0.1,1.7-0.9,2.6c-1.7,1.8-4.5,4.7-6.7,7c-3.3,3.4-7.3,8.5-7.3,8.5
				l-4.6-6.4l-9.9,10.8c0,0,11.5,10.2,16.1,8.2c3.9-1.6,13.2-19.4,16.1-25.2l0,0c0.1-0.2,1-1.5,2.1-2.6c1.1-1.1,2.3-2.1,2.3-2.1
				s1-1.2,1.8-2.5c0.6-0.9,0.9-1.9,1-2C503.9,205.5,504.8,203.3,504.6,202.8z"/>
			<polygon class="st17" points="466.9,427.8 468.1,440.4 468.9,440.4 470.1,427.8 			"/>
			<polygon class="st17" points="423.1,427.8 424.2,440.4 425,440.4 426.3,427.8 			"/>
			<path class="st19" d="M468.2,420.5c0,0-3.3,1.7-1.6,6.5c1.4,3.7,2.5,5,3.3,7.7c0.8,2.7,2.6,4.8,5.9,5.7c2.1,0.6,5.7-0.7,4.9-2.2
				c-1.9-3.5-2.8-5.9-2.8-5.9L468.2,420.5z"/>
			<path class="st18" d="M416.4,412.3c0,0,0.4,3.6,0.9,8.8c0,0-0.7,2.3-1.7,5.1c-1.1,3.2-3.3,9-3.3,9s0.6,2.5,2.2,1.7
				c0.5-0.3,1-0.6,1.5-1c1.9-1.8,8.9-11.9,8.9-11.9l-0.5-2.9l1.3-11.5L416.4,412.3z"/>
			<path class="st18" d="M466.3,413.1l1.9,7.8c0,0-1,1.9,0.1,4.5c0.8,1.8,1.9,2.4,2.7,4.9c0.5,1.5,1.5,2.7,1.8,3
				c1.6,1.8,4,1.5,4.8,1.1c1.3-0.7,0-2.5-0.1-3c-0.9-4-2.2-9.2-2.8-10.9c-0.4-2.8-0.6-7.5-0.6-7.5L466.3,413.1z"/>
			<path class="st20" d="M419.8,269.4c0,0-6.1,8.2-7.6,27.5c-1.2,14.4-1.6,37.6-1.5,43.7c0.1,3.8,1.1,7.5,2.1,16.4
				c1,9,3.6,55.2,3.6,55.2s2.9,2.4,8.9,0.2c0,0,7-46.6,6.4-55.3c-0.5-8.7-1.9-11-0.9-16.2c1-5.5,6.7-40.8,6.5-40.9l0.9,0.4
				c0,0,4.7,19.6,8.2,31c3.5,11.4,5.1,18.3,5.1,18.3s0.4,12.7,2.6,21.6c2.2,8.9,12.2,41.7,12.2,41.7s3.6,1.7,7.7-0.2
				c0,0-0.7-38.8-1.5-45.5c-0.8-6.7-3.2-17.7-3.2-17.7s-2.8-40.7-4.2-53.5c-2.1-18.3-8.5-25.9-8.5-25.9L419.8,269.4z"/>
			<path class="st20" d="M424,173.5c0,0-2.3,13.4,7.1,15.9c5.7,1.5-1.8-12.7-1.8-12.7L424,173.5z"/>
			<path class="st20" d="M449.4,168.5c0,0,5,12.6-1.9,17.7c-4.7,3.5-3.2-12.5-3.2-12.5L449.4,168.5z"/>
			<path class="st21" d="M426.1,180.4c0,0-1.9-1.2-3-0.1c-1.1,1.1,0.5,7.1,5.1,6.6L426.1,180.4z"/>
			<path class="st21" d="M448.8,176c0,0,1.3-1.8,2.8-1.2c1.4,0.6,2.3,6.8-2.3,8L448.8,176z"/>
			<path class="st18" d="M451.2,200.9c-1.1,2.4-4.5,7.9-12.6,8.3c-8-0.4-11.4-5.7-12.5-8.2c1.4-0.5,3.5-1.3,4.5-2.4
				c0.9-1,1.6-3,2.1-4.7c0.4-1.4,0.6-2.6,0.6-2.6l-0.9-1.9v0c0-0.2,0-0.4,0.1-0.5c0-0.3,0-0.5,0.1-0.6c0-0.1,0-0.2,0-0.2h12.2
				c0,0,0,0.1,0,0.2c0,0.1,0,0.4,0.1,0.6c0,0,0,0,0,0l-0.7,1.6c0,0,0.1,1.6,0.4,3.3c0.3,1.6,0.7,3.3,1.4,4.2
				C446.7,199.1,449.1,200.2,451.2,200.9z"/>
			<path class="st21" d="M444.1,190.6c0,0,0.1,1.6,0.4,3.3c-0.8,1.2-2,3-4.2,3.5c-2,0.5-6.5-2.2-7.6-3.4c0.4-1.4,0.6-2.6,0.6-2.6
				l-0.9-1.9v0c0-0.2,0-0.4,0.1-0.5c0-0.3,0-0.5,0.1-0.6c0-0.1,0-0.2,0-0.2h12.2c0,0,0,0.1,0,0.2c0,0.1,0,0.4,0.1,0.6c0,0,0,0,0,0
				L444.1,190.6z"/>
			<path class="st18" d="M447.9,170.7l-12.5-2.7l-10.6,7.2c0,0,1.2,7.6,3.5,12c2.1,4.2,7,7.1,11.6,7.6c0.6,0.1,1.2-0.1,1.7-0.3
				c4-2.1,7.5-6.8,7.8-11.4C449.7,178.2,447.9,170.7,447.9,170.7z"/>
			<path class="st22" d="M431.1,165.8c0,0-3.6-4-3.3-7.7c0.4-4.4,4-5.9,7.1-5.5c2.9,0.4,3.5,3,3.5,3s2.1-2.7,4.6-0.4
				c1.6,1.4,1.8,8.1-1.9,10.5C437.4,167.9,434.4,168.5,431.1,165.8z"/>
			<path class="st19" d="M428.2,163.1c0,0-0.3-3.2,6.5-3.9c5.1-0.5,9.7,0.9,9.8,3.6C444.7,166.5,428.7,166.8,428.2,163.1z"/>
			<g>
				<path class="st22" d="M434.6,163.5c0,0-0.3-0.1-1-0.3c-0.7-0.2-1.6-0.4-2.7-0.4c-1.1-0.1-2.5,0-3.8,0.6c-1.3,0.6-2.5,1.6-3.1,3
					c-0.4,0.7-0.6,1.4-0.7,2.2c-0.1,0.8-0.2,1.5-0.1,2.2c0,1.5,0.3,2.8,0.5,4c0.2,1.2,0.5,2.1,0.6,2.8c0.1,0.7,0.1,1.1,0.1,1.1
					s0-0.4-0.2-1.1c-0.1-0.7-0.4-1.6-0.7-2.8c-0.3-1.2-0.6-2.5-0.7-4c-0.1-0.7,0-1.5,0-2.3c0.1-0.8,0.3-1.6,0.7-2.3
					c0.7-1.5,1.9-2.8,3.3-3.4c1.4-0.7,2.9-0.8,4.1-0.8c1.2,0,2.2,0.2,2.9,0.4c0.7,0.2,1.1,0.3,1.1,0.3L434.6,163.5z"/>
			</g>
			<path class="st23" d="M436.9,154.1c0,0,0.9-1.1,2.8-1.1c1.9,0.1,4.3,1.5,3.9,6.2"/>
			<g>
				<path class="st22" d="M442.7,171c0,0-0.1,0.2-0.2,0.6c-0.1,0.4-0.3,0.9-0.7,1.6c-0.1,0.3-0.4,0.6-0.6,1c-0.2,0.3-0.4,0.7-0.7,1
					c-0.3,0.3-0.6,0.7-0.9,1c-0.3,0.3-0.7,0.6-1,0.9c-0.4,0.3-0.7,0.5-1.1,0.8c-0.4,0.2-0.8,0.4-1.1,0.6c-0.4,0.2-0.8,0.3-1.1,0.5
					c-0.4,0.2-0.7,0.2-1,0.3c-0.6,0.2-1.2,0.3-1.6,0.4c-0.4,0.1-0.6,0.1-0.6,0.1s0.2-0.1,0.6-0.2c0.4-0.1,0.9-0.2,1.5-0.5
					c0.3-0.1,0.7-0.2,1-0.4c0.3-0.2,0.7-0.4,1.1-0.5c0.4-0.2,0.7-0.5,1.1-0.7c0.3-0.3,0.7-0.5,1-0.8c0.3-0.3,0.7-0.6,0.9-0.9
					c0.3-0.3,0.6-0.7,0.8-1c0.3-0.3,0.4-0.7,0.6-1c0.2-0.3,0.3-0.6,0.5-0.9c0.3-0.6,0.4-1.1,0.5-1.5c0.1-0.4,0.1-0.5,0.1-0.6
					L442.7,171z"/>
			</g>
			<path class="st22" d="M446.2,161.7c-2.9-1-5.2,0.1-6.3,1.1c-2.3-2.5-7.6-2-9.8-1.4c-6.3,1.8-6.9,7.1-6.6,13.6
				c0.2,4.3-0.1,4.6-0.1,4.6c11.7,2,17.4-5,18.6-8.5c1.2,1.8,4.3,6,9.1,5.3c0,0,0-1.8-0.3-3.9C450.6,169.8,450,163.1,446.2,161.7z"
				/>
			<path class="st11" d="M456.6,270.3C456.6,270.3,456.6,270.3,456.6,270.3c-3.4,1.3-10.1,2.8-17.9,2.8c-8,0-15.4-2.1-18.9-3.6
				c0.2-0.6,2.3-3.6,2.5-10.4c0.3-10.7-2.3-30.6-3.7-35c-1-3-4.4-18.1-4.4-18.1l13.9-5.9c0,0.1,0.1,0.1,0.1,0.2
				c5.3,6.9,15.8,6.9,21,0c0-0.1,0.1-0.1,0.1-0.2l13.4,4.5c0,0-5.2,23.4-7.1,40.4c-1.7,15.4,0.4,23.7,0.9,25.1
				C456.6,270.2,456.6,270.2,456.6,270.3z"/>
			<path class="st19" d="M477.1,240.9c-2.6-4.1,0.3-10.7,1.3-12.8c0.2-0.4,0.5-0.9,0.8-1.2c0.2-0.2,0.4-0.5,0.4-0.5
				c-0.3-0.3-1.2-0.3-1.8-0.2c-2.8-4.3-11.4-17.5-14.1-20.9c-0.2-0.3-1-0.6-1-0.6l-12.4-4.1c0,0-8,24.3-8,41.9
				c0,15.4,4.8,31.3,7,34.2c5.4,7.1,13.9,9.4,13.9,9.4s-2.9-16.6-5.4-26.5c-0.9-8.2-0.8-19.6,0.5-31.2c4.1,3.2,10.3,7.9,13.3,10.2
				c1,0.7,1.8,1.3,2.5,1.7c0.8,0.5,2.1,1.8,2.6,2.1c1.1,0.5,2.1-0.3,2.1-0.3C478.2,242,477.5,241.5,477.1,240.9z"/>
			<path class="st17" d="M458.3,228.3c0,0,0.7-4.9,1.4-7.4c0,0,0.3,7.4,0.6,8.9L458.3,228.3z"/>
			<path class="st19" d="M404.6,230.9c0,0-3.4,10.8-3.3,15.9c0.1,6.5,3.4,6.9,5.7,7c2.8,0,7.1-5,7.1-5l3.8-10.1L404.6,230.9z"/>
			<path class="st19" d="M433,224.4c-1.7-13.7-6.6-23.5-6.6-23.5l-12.3,5.2c0,0-4.3,7.4-9.5,24.9c0,0-1.7,6.6-2.2,11.8
				c-1,1-2.1,2.6-2.3,4.5c-0.4,6.2,5.8,6.5,5.8,6.5s-2.3-0.7-2-4c-0.1-1.2,0-2.3,0.5-3.3c3.6-7,11.9-7.6,13.5-7.6
				c0.7-1.8,1.5-3.6,2.2-5.3l0.2,1c0,0,2.6,19.1,0.4,25.7c-4.9,14.8-7.2,26.3-7.2,26.3s10.9-3.7,14.6-9.8
				C434.5,266.3,436.9,256,433,224.4z"/>
			<path class="st17" d="M420.2,233.3c0,0-1.4-7.2-2-10.1c0,0,1.1,10.6,0.9,12.8L420.2,233.3z"/>
			<g>
				<path class="st17" d="M424.8,203.2c-0.3,2-0.7,4.1-1.1,6.1c-0.4,2-0.7,4.1-1.1,6.1l-0.1-0.3l5.8,3.9l0.4,0.3l-0.3,0.4l-3.7,4.2
					l0.1-0.5c0.8,1.6,1.5,3.1,2.1,4.7c0.3,0.8,0.6,1.6,1,2.4c0.3,0.8,0.6,1.6,0.9,2.4c0.3,0.8,0.5,1.6,0.8,2.5
					c0.3,0.8,0.5,1.7,0.7,2.5c0.2,0.8,0.5,1.7,0.7,2.5c0.2,0.8,0.4,1.7,0.6,2.5l0.5,2.5c0.1,0.9,0.3,1.7,0.4,2.6
					c0.1,0.9,0.2,1.7,0.3,2.6c0.1,0.9,0.2,1.7,0.2,2.6l0.1,2.6c0,0.9-0.1,1.7-0.1,2.6c0,0.9-0.1,1.7-0.2,2.6l-0.3,2.6l0.2-2.6
					c0.1-0.9,0.1-1.7,0.1-2.6c0-0.9,0-1.7-0.1-2.6l-0.2-2.6c-0.1-0.9-0.2-1.7-0.3-2.6c-0.1-0.9-0.2-1.7-0.4-2.5
					c-0.2-0.8-0.3-1.7-0.5-2.5l-0.5-2.5c-0.2-0.8-0.4-1.7-0.6-2.5c-0.2-0.8-0.4-1.7-0.7-2.5c-0.2-0.8-0.5-1.6-0.8-2.5
					c-0.3-0.8-0.5-1.6-0.8-2.4c-0.6-1.6-1.2-3.2-1.8-4.8c-0.6-1.6-1.3-3.2-2-4.7l-0.1-0.3l0.2-0.2l3.7-4.2l0.1,0.6l-5.7-4.1
					l-0.2-0.1l0-0.2c0.5-2,0.9-4,1.4-6.1C423.9,207.2,424.3,205.2,424.8,203.2z"/>
			</g>
			<g>
				<path class="st17" d="M453.4,203.2c0.5,2,1,4,1.4,6c0.5,2,0.9,4,1.4,6.1l0,0.2l-0.2,0.1l-5.7,4.1l0.1-0.6l3.7,4.2l0.2,0.2
					l-0.1,0.3c-0.7,1.5-1.4,3.1-2,4.7c-0.6,1.6-1.2,3.2-1.8,4.8c-0.3,0.8-0.5,1.6-0.8,2.4c-0.3,0.8-0.5,1.6-0.8,2.5
					c-0.2,0.8-0.5,1.6-0.7,2.5c-0.2,0.8-0.4,1.7-0.6,2.5l-0.5,2.5c-0.2,0.8-0.3,1.7-0.5,2.5c-0.2,0.8-0.3,1.7-0.4,2.5
					c-0.1,0.9-0.2,1.7-0.3,2.6l-0.2,2.6c-0.1,0.9,0,1.7-0.1,2.6c0,0.9,0,1.7,0.1,2.6l0.2,2.6l-0.3-2.6c-0.1-0.9-0.2-1.7-0.2-2.6
					c0-0.9-0.1-1.7-0.1-2.6l0.1-2.6c0-0.9,0.1-1.7,0.2-2.6c0.1-0.9,0.2-1.7,0.3-2.6c0.1-0.9,0.2-1.7,0.4-2.6l0.5-2.5
					c0.2-0.9,0.4-1.7,0.6-2.5c0.2-0.8,0.4-1.7,0.7-2.5c0.2-0.8,0.5-1.7,0.7-2.5c0.3-0.8,0.5-1.7,0.8-2.5c0.3-0.8,0.5-1.6,0.9-2.4
					c0.3-0.8,0.6-1.6,1-2.4c0.7-1.6,1.4-3.2,2.1-4.7l0.1,0.5l-3.7-4.2l-0.3-0.4l0.4-0.3l5.8-3.9l-0.1,0.3c-0.4-2-0.8-4.1-1.1-6.1
					C454.1,207.2,453.8,205.2,453.4,203.2z"/>
			</g>
			<path class="st19" d="M424.4,421.6c0,0,0.4,2.1-1.5,3.7c-1.5,1.2-6.1,6.4-8.2,9.4c-0.6,0.8-1.7,1-2.5,0.5l0,0
				c0,0-1.6,1.1-3.7,2.5c-1,0.7-1.8,1.6-1.7,2c0.1,0.5,0.5,0.8,0.8,0.8c1.9,0,4.5,0,4.5,0c1.9,0,3.9,0.1,4.9-1.5l1.9-3
				c1.6-2.6,3.1-4.5,5.8-5.8c0,0,0,0,0,0C426.6,429,428.2,426.2,424.4,421.6z"/>
			<path class="st24" d="M463.7,259h-30c-0.8,0-1.4-0.7-1.3-1.4l2.9-44.2c0-0.7,0.6-1.3,1.3-1.3h34.1c0.8,0,1.5,0.7,1.3,1.6l-7,44.2
				C464.9,258.5,464.4,259,463.7,259z"/>
			<path class="st25" d="M448.8,214.8c-0.2,0.6-0.7,1-1.2,1s-0.8-0.5-0.7-1c0.2-0.6,0.7-1,1.2-1S449,214.3,448.8,214.8z"/>
			<line class="st26" x1="447.9" y1="214.8" x2="460.7" y2="214.8"/>
			<path class="st25" d="M461.6,214.8c-0.2,0.6-0.7,1-1.2,1s-0.8-0.5-0.7-1c0.2-0.6,0.7-1,1.2-1
				C461.5,213.8,461.8,214.3,461.6,214.8z"/>
			<path class="st18" d="M443.2,235.7c0.4,0.3-0.7,1-1.4,1.4c0,0-0.1,0-0.1,0c0,0,0,0,0.1,0c0.4,0.3-0.6,1-1.4,1.4
				c-0.7,0.4-2.8,1.2-2.8,1.2l-2.6,0.6v0c-0.5,0.2-1.3,0.4-1.9,0.6c-0.7,0.2-1.3,0.4-1.6,0.6c-6.1,3.6-23.5,13.5-27,9
				c-0.3-0.3-0.5-0.7-0.6-1.1c-0.1-1.2,0-2.3,0.5-3.3c3.6-7,11.9-7.6,13.5-7.6c0,0,5.4-0.4,10.6-1.5c0.7-0.1,1.9-0.5,2.8-0.8
				c0,0,0,0,0,0s1-2.4,1.2-2.8c0.2-0.4,1.4-1.3,1.4-1.3l-0.1,1.9c0,0,2.1-0.1,3.2-0.3c1-0.1,3.7-1.2,4.4-1.2s0.9,0.5,0,1.1
				c-0.5,0.3-4,1.9-4,1.9c0.2,0,2.8-1.1,3.8-1.5c0.9-0.5,1.7-0.8,2.2-0.5c0.4,0.2-0.5,1.1-1.2,1.6c-0.2,0.1-0.4,0.3-0.7,0.5
				C442.3,235.5,442.8,235.4,443.2,235.7z"/>
			<g>
				<path class="st17" d="M401,244.6c0,0,0.3-0.7,1.1-1.6c0.4-0.4,0.9-0.9,1.4-1.4c0.6-0.4,1.2-0.9,1.9-1.2c0.3-0.2,0.7-0.4,1-0.5
					c0.4-0.1,0.7-0.3,1-0.4c0.7-0.2,1.3-0.4,1.9-0.5c0.6-0.1,1-0.2,1.4-0.2c0.3,0,0.5-0.1,0.5-0.1s-0.2,0.1-0.5,0.2
					c-0.3,0.1-0.8,0.2-1.3,0.4c-0.3,0.1-0.6,0.2-0.9,0.3c-0.3,0.1-0.6,0.2-1,0.4c-0.3,0.1-0.7,0.3-1,0.4c-0.3,0.1-0.7,0.3-1,0.5
					c-1.3,0.7-2.6,1.6-3.4,2.3c-0.4,0.4-0.7,0.7-0.9,1C401.1,244.5,401,244.6,401,244.6z"/>
			</g>
			<g>
				<path class="st17" d="M477.6,226.6c0,0-0.5,0.5-1,1.3c-0.3,0.4-0.5,0.9-0.8,1.4c-0.3,0.5-0.6,1.1-0.8,1.7
					c-0.3,0.6-0.5,1.2-0.7,1.8c-0.2,0.6-0.4,1.1-0.5,1.6c-0.1,0.5-0.3,0.9-0.3,1.1c-0.1,0.3-0.1,0.4-0.1,0.4s0-0.2,0-0.5
					c0-0.3,0.1-0.7,0.2-1.2c0.1-0.5,0.2-1.1,0.4-1.7c0.2-0.6,0.4-1.2,0.6-1.9c0.3-0.6,0.6-1.2,0.9-1.8c0.3-0.5,0.7-1,1-1.4
					C477.1,226.9,477.6,226.6,477.6,226.6z"/>
			</g>
		</g>
		<g>
			<polygon class="st27" points="276.5,315.1 248.6,440.4 243.9,440.4 267.8,315.1 			"/>
			<polygon class="st27" points="483.8,315.1 511.8,440.4 516.4,440.4 492.5,315.1 			"/>
			<rect x="266.1" y="325.3" class="st27" width="226.4" height="4.5"/>
			<path class="st28" d="M522.8,315.1h-278c-1.7,0-3.1-1.4-3.1-3.1l0,0c0-1.7,1.4-3.1,3.1-3.1h278c1.7,0,3.1,1.4,3.1,3.1l0,0
				C525.9,313.7,524.5,315.1,522.8,315.1z"/>
		</g>
		<g>
			<g>
				<polygon class="st5" points="177.4,440.5 182,440.5 191.5,360.1 182.8,360.1 				"/>
				<polygon class="st5" points="242.4,440.5 237.9,440.5 228.3,360.1 237.1,360.1 				"/>
				<path class="st6" d="M165.6,257.1h-24.2c-5.7,0-10.1,5.1-9.2,10.8l14.8,94.6h28L165.6,257.1z"/>
				<polygon class="st6" points="141.7,440.5 146.3,440.5 155.8,360.1 147,360.1 				"/>
				<polygon class="st6" points="206.7,440.5 202.1,440.5 192.6,360.1 201.4,360.1 				"/>
				<path class="st6" d="M151.3,366.9h84.1c2.4,0,4.3-1.9,4.3-4.3l0,0c0-2.4-1.9-4.3-4.3-4.3h-84.1c-2.4,0-4.3,1.9-4.3,4.3l0,0
					C147,364.9,149,366.9,151.3,366.9z"/>
			</g>
			<g>
				<path class="st11" d="M229.8,440.3h-27.2c0,0-1.5-4.8,1.8-10.8c0,0,2.2,1.8,8.7,0.6c0,0,2.7,2.3,4.6,3.2
					C219.6,434.2,230.5,436.3,229.8,440.3z"/>
				<path class="st29" d="M227.9,363.7c-1.8,10.5-9.9,45.9-13.3,66.8c-6.4,0.5-9.4-0.2-11-0.6c0.3-7.3,0.9-24.7,0.9-32.4
					c-0.1-12.9-0.7-30,5-39.4l19.1,1.5c-0.1,1-0.2,1.8-0.3,2.4C228.1,362.7,228,363.2,227.9,363.7z"/>
				<path class="st11" d="M278.9,440.3h-27.2c0,0-1.5-4.8,1.8-10.8c0,0,2.2,1.8,8.7,0.6c0,0,2.7,2.3,4.6,3.2
					C268.8,434.2,279.6,436.3,278.9,440.3z"/>
				<path class="st30" d="M263,429.9c-5.2,1.3-9,1.2-10.7,1c-1.4-8.4-3.7-26.9-5.8-35.6c-3.2-13.5-6.3-32-4.1-38.6l18.8-4.7
					C261.3,352.5,262.8,409.3,263,429.9z"/>
				<path class="st30" d="M188.1,332.6L188.1,332.6c0.4-3.7,0.8-6.4,0.8-6.4l21,5.1l17.9,4.1c6.6,1.5,14.6,3.3,21.7,4.8
					c7.9,1.8,13.2,7.8,11.4,15.7l-2,9.6c-11.1-0.2-63.2-5.1-67.6-7.4C186.3,355.7,184.8,346.7,188.1,332.6z"/>
				<path class="st29" d="M156.7,332.6L156.7,332.6c0.4-3.7,2.2-7.7,2.2-7.7l19.7,6.4l17.9,4.1c6.6,1.5,14.6,3.3,21.7,4.8
					c7.9,1.8,13.2,7.8,11.4,15.7l-2,9.6c-11.1-0.2-57.4-1.8-67.6-7.4C155,355.5,153.4,346.7,156.7,332.6z"/>
				<g>
					<path class="st18" d="M215.6,302.5c0,0-9.3-4.2-11.9,0c-1.4,2.3-0.4,6.6,2.8,8.4c3.2,1.8,21.2,9.4,38.2,13.7
						c0,0,0.7-2.4,1.9-4.9c0,0-7.6-3.2-15.2-8.5C223.7,305.9,215.6,302.5,215.6,302.5L215.6,302.5z"/>
				</g>
				<path class="st10" d="M210.8,274.8l8,32c0,0-0.8,8.1-9,4.1c-8.2-4-13.6-29.5-13.6-29.5L210.8,274.8z"/>
				<path class="st27" d="M214.6,285.3c0,0-1.8,1.6-9.4,4.2c-0.9,0.3-1.8,0.6-2.7,0.9c-0.9,0.3-1.9,0.5-2.9,0.8l1.7-18.6l0.1-1
					l1-16.7c0.2,0.2,0.4,0.3,0.7,0.5c2.2,1.6,4.2,3.5,5.6,5.8C208.7,261.2,212.4,274.3,214.6,285.3z"/>
				<path class="st31" d="M205.3,289.5c-0.9,0.3-1.8,0.6-2.7,0.9c-0.9,0.3-1.9,0.5-2.9,0.8l1.7-18.6l0.8-1.2
					C202.2,271.4,204.2,281.9,205.3,289.5z"/>
				<path class="st32" d="M204.1,220.5c0,0-0.5,2.9-1.1,5.4l-2.4,1.5c-0.1-2.8,0.5-6.6,0.5-6.6L204.1,220.5z"/>
				<path class="st27" d="M204.5,331c-1.3,1.8-11.8,2.8-18.7,2.8c-7.8,0-23.4-0.3-27.4-2.6c-0.4-0.2-1.3-1-1.3-1.7
					c0-1,0.2-2.4,1-4.9c1.1-3.5,0.9-11,0-19.5c-0.3-3.4-0.7-7-1.2-10.7c-1.8-14.3-4.3-28.7-4.4-32.1c1.2-2.1,2.6-3.8,3.9-5.2
					c3.9-4.2,7.7-5.6,8.3-5.8c0,0,0.1,0,0.1,0c5.8-1.6,12.4-2.6,16.4-2.7c2.4-0.1,4.6,0,6.6,0.1c0,0,0,0,0.1,0
					c0.7,0.1,8.5,1.9,14.8,6.2c0.2,0.2,0.4,0.3,0.7,0.5c0.8,5-0.3,18.9-0.6,35.1c0,0.3,0,0.5,0,0.8c-0.2,10.5-1.1,18.1,1.5,32.6
					C204.6,327.1,205.7,329.4,204.5,331z"/>
				<path class="st31" d="M165.3,278.5c0,0-5,24.8-5,28.8l-2.3-2.3c-0.3-3.4-0.7-7-1.2-10.7L165.3,278.5z"/>
				<path class="st10" d="M188.5,258.8c-11.3,1.3-13.9-8.9-12-9.8c1.2-0.2,1.6-0.8,1.7-1.5c1.6-6.4-0.7-13.4-0.7-13.4l7.7,6l4.3,4
					l0.8,0.8c0,0-0.1,2.5,0,3.7c0,0.3,0.1,0.5,0.1,0.5c0.3,0.2,1.7,0.7,1.7,0.7S195.7,257.9,188.5,258.8z"/>
				<path class="st14" d="M190.2,248.6c-5.8-1.5-7.4-8.3-7.4-8.3l6.5,3.8l0.8,0.8C190.2,245,190.1,247.5,190.2,248.6z"/>
				<path class="st10" d="M202.7,223.8c0,0-1.6,22-7.5,23.9c0,0-7.6,0.7-13-6.6c-1.6-2.1-3.5-2.6-4.2-5.1
					c-1.1-4.1-2.5-11.8-0.6-16.4C180,213,204.1,207.6,202.7,223.8z"/>
				<path class="st32" d="M176.8,207.8c4.9-2.2,8.2-0.2,8.2-0.2s2.6-5.5,9-4.2c6.4,1.3,5.4,6.8,5.4,6.8s6.6-2.2,8.7,3.8
					c2.1,6.1-3.5,8.3-6.8,8.4c-1.6,0.1-8.6-0.3-13.4-0.2c-1,0-1.7,0.7-1.9,1.7c-0.1,1-0.3,1.9-0.4,2.2c-0.4,0.6-2.3,1.9-2.3,2.9
					c0,0,0,0,0,0c0.1,1.3,0,2.3-0.3,2.4c-0.8,0.5-4.3,0.4-6,0.3c-1.2-0.1-2.2-5.5-2.8-9.3C173.9,220.3,170.9,210.4,176.8,207.8z"/>
				<g>
					<path class="st10" d="M180.3,235.7c-3.9,2.4-7.1-7.6-3.2-8.8c2.9-0.9,3.8,3.3,3.8,3.3S182.5,234.3,180.3,235.7z"/>
					<path class="st14" d="M179.8,231.4L179.8,231.4C179.8,231.4,179.8,231.4,179.8,231.4c0-0.3,0-0.6-0.1-0.9
						c-0.1-0.4-0.3-0.8-0.5-1.1c-0.2-0.3-0.5-0.5-0.8-0.7c-0.5-0.3-0.9-0.3-0.9-0.3s0.3,0.2,0.7,0.6c0.3,0.4,0.7,1,0.8,1.6
						c-0.1-0.1-0.2-0.1-0.4-0.2c-0.4-0.1-0.7-0.1-1-0.1c-0.3,0-0.4,0.1-0.4,0.1s0.2,0,0.4,0c0.2,0,0.6,0.1,0.8,0.3
						c0.3,0.2,0.5,0.4,0.6,0.6c0.1,0.2,0.2,0.3,0.2,0.3l0,0c0,0.3,0.1,0.6,0.1,0.8c0,0.3,0,0.5,0.1,0.7c0,0.2,0,0.3,0,0.3
						s0-0.1,0.1-0.2c0.1-0.2,0.2-0.4,0.2-0.7c0.1-0.3,0.1-0.6,0.1-1C179.8,231.6,179.8,231.5,179.8,231.4z"/>
				</g>
				<path class="st10" d="M140.3,306.7C140.3,306.7,140.3,306.7,140.3,306.7c1.9,2.2,8.9,3.7,12.3,0.8c1.1-1,2.3-3.5,3.5-6.6
					c3-7.9,5.9-19.8,5.9-19.8l-15.8-8.1c0,0-2,9.1-3.8,17.8c0,0,0,0.1,0,0.2c-0.6,2.8-1.1,5.5-1.5,7.8c0,0.1,0,0.1,0,0.2
					C140.4,301.8,140.1,304.7,140.3,306.7z"/>
				<path class="st27" d="M167.9,270c-1.5,6.3-6.3,18.4-6.3,18.4c-3.4,0.6-7.6-0.7-11.3-2.3c-4.4-1.9-7.1-3.6-7.1-3.6
					s2.6-9.2,5.4-15.7c2.6-5.8,4.2-7.8,5.2-9.1c3.6-4.5,9-6,10.7-6.4L167.9,270z"/>
				<g>
					<path class="st10" d="M140.3,306.7C140.3,306.7,140.3,306.7,140.3,306.7c0.1,1.2,0.5,2,1,2.3c0.1,0.1,1.4,0.8,1.5,0.9
						c1.9,1.2,5.4,3.2,9.8,5.1c10.6,4.6,25.9,9.9,34.2,12.3c0,0,0.8-2.3,2.1-4.8c0,0-7.5-3.5-14.8-9.1c-7.4-5.6-18-12.5-18-12.5
						l-2.7-3.1c0,0-9.5-8.8-11-7c0,0,0,0.1,0,0.2c-0.2,0.9-1,4.3-1.5,7.8c0,0.1,0,0.1,0,0.2C140.4,301.8,140.1,304.7,140.3,306.7z"
						/>
				</g>
				<polygon class="st24" points="169,336.2 186.9,336.2 180.6,340.2 				"/>
				<path class="st33" d="M168.5,338.5l12.7,2.8l0.5-2.3l-12.7-2.8c-0.6-0.1-1.3,0.3-1.4,0.9l0,0
					C167.4,337.7,167.8,338.3,168.5,338.5z"/>
				<path class="st33" d="M181.4,341.3h60.2c0.7,0,1.4-0.5,1.5-1.2l12.3-44.3c0.3-1-0.5-2-1.5-2h-58.2c-1.4,0-2.5,0.9-2.9,2.2
					l-12.3,44.2C180.4,340.7,180.8,341.3,181.4,341.3z"/>
				<path class="st24" d="M183.6,341.3h60.2c0.7,0,1.4-0.5,1.5-1.2l12.3-44.3c0.3-1-0.5-2-1.5-2h-58.2c-1.4,0-2.5,0.9-2.9,2.2
					l-12.3,44.2C182.6,340.7,183,341.3,183.6,341.3z"/>
			</g>
		</g>
		<g>
			<path class="st27" d="M585.6,440.6h-58.5v-3c0-2.8,2.3-5.1,5.1-5.1h48.2c2.8,0,5.1,2.3,5.1,5.1V440.6z"/>
			<rect x="552.6" y="221.3" class="st27" width="7.5" height="219.3"/>
			<g>
				<polygon class="st27" points="601.6,298.7 493.7,298.7 490.9,294 530.6,160.9 635.8,156.1 638.6,160.9 				"/>
				<polygon class="st2" points="598.8,294 490.9,294 527.8,156.1 635.8,156.1 				"/>
				<polygon class="st34" points="521.7,286 505.4,286 521.7,225 538.1,225 				"/>
				<polygon class="st34" points="544.1,286 527.7,286 549.8,203.5 566.1,203.5 				"/>
				<polygon class="st34" points="566.4,286 550,286 559.5,250.5 575.9,250.5 				"/>
				<polygon class="st34" points="588.7,286 572.3,286 600.3,181.4 616.7,181.4 				"/>
				<polygon class="st34" points="564.2,167.4 537.1,167.4 537.7,165.2 564.8,165.2 				"/>
				<polygon class="st34" points="563.3,170.6 536.3,170.6 536.8,168.5 563.9,168.5 				"/>
				<polygon class="st34" points="562.5,173.9 535.4,173.9 536,171.7 563.1,171.7 				"/>
				<polygon class="st34" points="550.9,177.1 534.5,177.1 535.1,175 551.5,175 				"/>
				<polygon class="st34" points="584,232.6 562.2,232.6 562.7,230.8 584.4,230.8 				"/>
				<polygon class="st34" points="583.3,235.2 561.5,235.2 562,233.4 583.7,233.4 				"/>
				<polygon class="st34" points="582.6,237.8 560.9,237.8 561.3,236 583,236 				"/>
				<polygon class="st34" points="573.3,240.4 560.2,240.4 560.6,238.6 573.8,238.6 				"/>
			</g>
		</g>
		<g>
			<g>
				<path class="st24" d="M492.7,308.9L482.2,282c-0.5-1.4-1.8-2.3-3.3-2.3H434c-1.2,0-2,1.2-1.5,2.3l10.5,26.9H492.7z"/>
				<path class="st35" d="M491.1,307.5h-45.7l-9.4-24.2c-0.4-1,0.3-2.1,1.4-2.1h41.2c1.3,0,2.5,0.8,3,2.1L491.1,307.5z"/>
				<polygon class="st25" points="459.6,291.9 442.3,291.9 438.8,283.2 456.1,283.2 				"/>
				<polygon class="st25" points="483.4,293.7 462.7,293.7 458.6,283.2 479.3,283.2 				"/>
				<polygon class="st25" points="484.9,297.2 464.2,297.2 463.3,295.1 484,295.1 				"/>
				<polygon class="st25" points="486.2,300.9 465.5,300.9 464.7,298.7 485.4,298.7 				"/>
				<polygon class="st25" points="463.5,302.2 446.2,302.2 442.7,293.4 460,293.4 				"/>
			</g>
			<g>
				<path class="st10" d="M551.4,253.9c-1.2-0.2-1.6-1.1-1.8-1.8c-1.6-6.3,0.4-16.3,0.4-16.3l-7.6,6c0,0-5.8,4.1-5.9,4.5l-0.3,6.7
					l0,0C535.7,264.4,553,254.6,551.4,253.9z"/>
				<path class="st10" d="M527.3,225.6c-0.1,3.7-0.1,13.5,1.9,19.1c0.9,2.6,3.5,4.3,6.3,4c2.7-0.3,6.6-1.4,10.1-5.1
					c1.8-1.9,3.8-2.1,4.7-4.6c1.5-4,3.8-11.3,2.5-16c-1.8-6.5-21.7-13.8-25.1-0.6C527.5,223.4,527.4,224.5,527.3,225.6z"/>
				<path class="st13" d="M547.5,214c-6.5-3.5-17.5,0.4-26,4.4c0.5,5.5,5.9,8,9.7,7.2c0.6,2.7,0,6.2,2,8.3c1.1,1.2,3.2,1.5,5.4,1.4
					c0.2,0.5,1.3,7.6,2.3,10.6h9.1c0.1-0.5,6.1-10.8,7-18.4C557.9,220.6,556.1,214,547.5,214z"/>
				<g>
					<path class="st10" d="M535.5,239.6c3.3,2.1,5.3-8,2.1-8.9c-2.4-0.7-2.9,3.5-2.9,3.5S533.7,238.4,535.5,239.6z"/>
					<path class="st14" d="M537.3,234.1c-0.2,0-0.6,0.1-0.8,0.2c-0.1,0-0.1,0.1-0.2,0.1c0.1-0.6,0.3-1.2,0.5-1.6
						c0.2-0.4,0.5-0.7,0.5-0.7s-0.4,0.1-0.8,0.5c-0.4,0.4-0.8,1.1-0.9,1.9c0,0.3,0,0.6,0,0.8c0,0,0,0,0,0l0,0c0,0.4,0.1,0.9,0.2,1.2
						c0.1,0.3,0.2,0.5,0.2,0.6c0.1,0.1,0.1,0.2,0.1,0.2s0-0.1,0-0.3c0-0.2,0-0.4,0-0.6c0-0.3,0-0.6,0-0.9l0,0c0,0,0-0.1,0.1-0.3
						c0.1-0.2,0.2-0.4,0.4-0.6c0.2-0.2,0.4-0.3,0.7-0.4c0.2-0.1,0.4-0.1,0.4-0.1S537.6,234.1,537.3,234.1z"/>
				</g>
			</g>
			<path class="st10" d="M467.4,300.5c0,0-2-0.1-3.8-0.4c-1.8-0.3-3.3-1.3-6.3-1.4c-2.9-0.2-11.1,6.6-11.7,7.5
				c-0.6,0.9,0.6,1.4,1.5,1.2s4.5-1.6,4.5-1.6s-0.5,0.4,3.4,1.4c3.8,1,6.4-0.8,7.6-0.7c1.2,0,4,0.4,4,0.4L467.4,300.5z"/>
			<path class="st20" d="M494.4,440.6h26.9c0,0,1.5-4.8-1.8-10.7c0,0-2.2,1.7-8.7,0.6c0,0-2.7,2.3-4.6,3.2
				C504.5,434.5,493.7,436.6,494.4,440.6z"/>
			<path class="st20" d="M445.7,440.6h26.9c0,0,1.5-4.8-1.8-10.7c0,0-2.2,1.7-8.7,0.6c0,0-2.7,2.3-4.6,3.2
				C455.7,434.5,445,436.6,445.7,440.6z"/>
			<path class="st9" d="M566.4,331.1c-0.4-3.7-1.7-5-1.7-5l-19.5,6.4l-17.7,4c-6.6,1.5-14.5,3.2-21.5,4.8
				c-7.9,1.8-13.1,7.7-11.3,15.6l2,9.5h0c2.3,12.2,9.6,44.7,12.9,64.4c6.3,0.5,9.3-0.2,10.9-0.6c-0.3-7.2-0.1-24.1,0-31.7
				c0.1-10.1,0.3-24.8-2.1-34.3c16.4-0.6,35.1-2,43.6-6.6C572.1,352.2,566.4,331.1,566.4,331.1z"/>
			<path class="st8" d="M549,333.7c-0.4-3.7-1.1-5.6-1.1-5.6s-20.8,1.4-30.6,3.4c-14.8,3-34.9,7.2-42.5,9.7c-6.2,2.1-11,6-11.6,11.6
				l0,0c-0.1,0.6-1.6,56.9-1.8,77.4c5.1,1.3,8.9,1.2,10.6,1c1.4-8.3,5.7-26.5,7.6-35.2c2.2-10.2,5-22.5,5.5-30.9
				c19.1-1.7,52.6-5.5,56-5.6C553.1,358.9,549,333.7,549,333.7z"/>
			<path class="st11" d="M566.2,303.2c-0.4,6.9-3.8,12.1-0.6,22.6c0.8,2.5,0.9,3.8,0.9,4.9c0,0.7-0.9,1.5-1.3,1.7
				c-4,2.3-19.4,2.6-27.2,2.6c-6.1,0-14.8-0.9-17.7-2.2c-0.4-0.2-0.7-0.4-0.9-0.6c-1.2-1.6-0.1-3.9,0.5-7.1
				c2.5-14.4,1.6-22,1.5-32.4c0-0.3,0-0.5,0-0.8v-0.2c0,0,0,0,0,0c-0.8-0.1-1.6-0.3-2.3-0.4c-1.1-0.3-2-0.5-2.3-0.6
				c-8.4-2.6-9.6-5.3-9.6-5.3c2.4-10.3,5.2-17.2,7.8-21.8c0.1-0.1,0.1-0.2,0.2-0.3c0.1-0.1,0.1-0.2,0.2-0.3c1.4-2.3,3.3-4.2,5.5-5.8
				c0.2-0.2,0.4-0.3,0.7-0.5c0,0,0,0,0.1-0.1c0.1-0.1,0.3-0.2,0.4-0.3c0.1,0,0.1-0.1,0.2-0.1c1.7-1,6.5-3.3,15.1-4.2
				c10.5-1,20.7,0.9,21.7,1.1c0,0,0,0,0.1,0c0,0,0,0,0,0c0.6,0.2,4.3,1.6,8.2,5.8c1.3,1.4,2.6,3.1,3.8,5.1
				c1.1,3.6,1.5,10.9-2.5,28.1C568.3,293.6,566.3,301.7,566.2,303.2z"/>
			<path class="st12" d="M523.6,307.8c-0.6,6.8-4.1,23.8-3.3,25c-0.4-0.2-0.7-0.4-0.9-0.6c-1.2-1.6-0.1-3.9,0.5-7.1
				c2.5-14.4,1.6-22,1.5-32.4c0-0.3,0-0.5,0-0.8v-0.2c0.1,0,1.4,0.2,3.5,0.4C524.9,292.1,524.1,302.4,523.6,307.8z"/>
			<path class="st11" d="M508.2,281.3c0,0-4.8,17-5.5,18.8c-6.5-0.1-36.1,0-36.1,0l-1.3,7.5c0,0,40,8,46.7,8
				c4.9,0,12.9-23.5,12.9-23.5l-9.3-6.8L508.2,281.3z"/>
			<g>
				<polygon class="st5" points="544.9,440.5 540.4,440.5 530.8,360.1 539.6,360.1 				"/>
				<polygon class="st5" points="479.9,440.5 484.5,440.5 494,360.1 485.2,360.1 				"/>
				<path class="st6" d="M581.1,257.1h-24.2h-22.3c-4.6,0-8.3,3.7-8.3,8.3v97.1h21.2h28l14.8-94.6
					C591.2,262.3,586.8,257.1,581.1,257.1z"/>
				<polygon class="st6" points="580.7,440.5 576.1,440.5 566.6,360.1 575.3,360.1 				"/>
				<polygon class="st6" points="515.7,440.5 520.2,440.5 529.8,360.1 521,360.1 				"/>
				<path class="st6" d="M571,366.9h-84.1c-2.4,0-4.3-1.9-4.3-4.3l0,0c0-2.4,1.9-4.3,4.3-4.3H571c2.4,0,4.3,1.9,4.3,4.3l0,0
					C575.4,364.9,573.4,366.9,571,366.9z"/>
			</g>
		</g>
		<g>
			<g>
				<path class="st36" d="M69.8,356.8c0,0-3.2,1-2.1,6.5c1.1,5.5,2.8,6.1,2.1,11c-0.8,4.9,4.9,8.6,5.8,11.6c0.9,3-1.2,8.4,1.3,12.4
					c1.3,2.2,4.7,3.9,9.1,4.4c10,1,18.1-4.1,20.2-13.1c0.3-1.4,0.5-2.8,0.4-4.3c-0.6-8.6-10.4-8.8-13.2-10.7
					c-2.7-1.9-3.5-9-5.8-10.6c-2.4-1.6-5,0.8-9-2.8C74.5,357.7,72.3,356,69.8,356.8z"/>
				<path class="st37" d="M70.2,359.2c0,0,29.8,35,33.7,62.4"/>
				<path class="st38" d="M71.1,368c0,0,5.6,1.4,9.5,4.8"/>
				<path class="st38" d="M85.5,365.5c0,0-2.5,7.3-1.6,12.3"/>
				<path class="st38" d="M76,382.9c0,0,10.2,1.2,13.6,3.8"/>
				<path class="st38" d="M97.6,380.6c0,0-4.3,8.7-4.3,12.6"/>
				<path class="st38" d="M80.5,397.3c0,0,8.3-1.7,14.6-0.6"/>
				<path class="st38" d="M86.4,374.3c0,0-0.9,3.7-0.8,5.9"/>
			</g>
			<g>
				<path class="st39" d="M124.4,352.3c0,0,3.3,0.3,3.4,5.9c0.1,5.6-1.5,6.6,0.2,11.2c1.7,4.6-3,9.4-3.3,12.6
					c-0.3,3.1,2.9,8,1.3,12.4c-0.9,2.4-3.8,4.8-8,6.1c-9.6,3-18.6-0.3-22.5-8.6c-0.6-1.3-1.1-2.7-1.2-4.1
					c-1.1-8.6,8.4-10.7,10.7-13.2c2.3-2.4,1.5-9.5,3.5-11.6c2-2.1,5-0.3,8.2-4.6C120,354.2,121.8,352,124.4,352.3z"/>
				<path class="st37" d="M124.6,354.8c0,0-21.9,40.4-20.2,68"/>
				<path class="st38" d="M125.5,363.6c0,0-5.2,2.6-8.3,6.7"/>
				<path class="st38" d="M110.8,364c0,0,3.9,6.6,4.1,11.7"/>
				<path class="st38" d="M123.7,379.1c0,0-9.8,3.3-12.5,6.5"/>
				<path class="st38" d="M102.1,381.3c0,0,6,7.7,6.8,11.5"/>
				<path class="st38" d="M122.2,394.1c0,0-8.5,0.1-14.4,2.4"/>
				<path class="st38" d="M111.7,372.9c0,0,1.6,3.5,2,5.6"/>
			</g>
			<g>
				<polygon class="st39" points="114.8,440.6 91.8,440.6 86.9,407.2 119.7,407.2 				"/>
				<polygon class="st36" points="86.9,407.2 87.5,410.9 118.7,414.2 119.7,407.2 				"/>
				<rect x="84.8" y="403.9" class="st39" width="37" height="5.1"/>
			</g>
		</g>
		<g>
			<path class="st40" d="M419.7,132.1h-50c-2.7,0-4.9,2.2-4.9,4.9v13.2c0,2.7,2.2,4.9,4.9,4.9h38.8l7.2,7.2v-7.2h4
				c2.7,0,4.9-2.2,4.9-4.9v-13.2C424.6,134.3,422.4,132.1,419.7,132.1z"/>
			<line class="st41" x1="372.2" y1="138.4" x2="410.6" y2="138.4"/>
			<line class="st41" x1="372.2" y1="143.7" x2="416.5" y2="143.7"/>
			<line class="st41" x1="372.2" y1="148.9" x2="388.1" y2="148.9"/>
		</g>
		<g>
			<polygon class="st42" points="633.3,241.2 633.3,264 651.9,264 651.9,241.2 660.6,241.2 642.6,216.8 624.6,241.2 			"/>
			<polygon class="st42" points="526.2,136.5 526.2,147.9 535.5,147.9 535.5,136.5 539.8,136.5 530.8,124.3 521.8,136.5 			"/>
		</g>
		<line class="st43" x1="47.2" y1="440.4" x2="697.4" y2="440.4"/>
	</g>
</g>
</svg>