<?xml version="1.0" encoding="utf-8"?>
<!-- Generator: Adobe Illustrator 25.2.0, SVG Export Plug-In . SVG Version: 6.00 Build 0)  -->
<svg version="1.1" id="Layer_1" xmlns="http://www.w3.org/2000/svg" xmlns:xlink="http://www.w3.org/1999/xlink" x="0px" y="0px"
	 viewBox="0 0 600 600" style="enable-background:new 0 0 600 600;" xml:space="preserve">
<style type="text/css">
	.st0{clip-path:url(#SVGID_2_);}
	.st1{fill:#7384FF;}
	.st2{opacity:0.7;}
	.st3{fill:#9CA8FF;}
	.st4{fill:#C0D1FF;}
	.st5{opacity:0.2;fill:#FFFDFC;enable-background:new    ;}
	.st6{fill:#8E9AEE;}
	.st7{fill:#C4C9FC;}
	.st8{fill:#525BAD;}
	.st9{fill:#24315D;}
	.st10{fill:#2D3A70;}
	.st11{fill:#E6E9FF;}
	.st12{fill:#FFFFFF;}
	.st13{fill:#E3E6ED;}
	.st14{fill:#192C51;}
	.st15{fill:#C2CBF9;}
	.st16{fill:#3C4888;}
	.st17{fill:#46509B;}
	.st18{fill:#AF2536;}
	.st19{fill:#E5918F;}
	.st20{fill:#E2404D;}
	.st21{fill:#18004D;}
	.st22{fill:#CC6362;}
	.st23{fill:#210866;}
	.st24{fill:none;stroke:#210866;stroke-width:0.8664;stroke-miterlimit:10;}
	.st25{fill:#218AFF;}
	.st26{fill:#5AB8FF;}
	.st27{fill:none;stroke:#5AB8FF;stroke-width:0.5;stroke-miterlimit:10;}
	.st28{fill:#3945BA;}
	.st29{fill:#F5F7FF;}
	.st30{fill:#162842;}
	.st31{fill:#0D1D30;}
	.st32{fill:#253793;}
	.st33{fill:#182B51;}
	.st34{fill:#76BEFF;}
	.st35{fill:#B8C7FF;}
	.st36{fill:#43A6FF;}
	.st37{fill:#B4C1EF;}
	.st38{fill:none;stroke:#FFFFFF;stroke-width:1.0828;stroke-linecap:round;stroke-miterlimit:10;}
	.st39{fill:none;stroke:#FFFFFF;stroke-width:0.7219;stroke-linecap:round;stroke-miterlimit:10;}
	.st40{fill:#DEE3FC;}
	.st41{fill:none;stroke:#FFFFFF;stroke-width:1.3186;stroke-linecap:round;stroke-linejoin:round;stroke-miterlimit:10;}
	.st42{fill:none;stroke:#FFFFFF;stroke-width:1.3186;stroke-linecap:round;stroke-miterlimit:10;}
	.st43{opacity:0.3;fill:#B8C7FF;enable-background:new    ;}
	.st44{fill:none;stroke:#FFFFFF;stroke-width:1.1144;stroke-linecap:round;stroke-miterlimit:10;}
</style>
<g>
	<defs>
		<rect id="SVGID_1_" x="-0.1" y="0.1" width="600" height="600"/>
	</defs>
	<clipPath id="SVGID_2_">
		<use xlink:href="#SVGID_1_"  style="overflow:visible;"/>
	</clipPath>
	<g id="OBJECTS" class="st0">
		<g>
			<g>
				<path class="st1" d="M376.6,102.7h-28.5c-0.5,0-0.9-0.4-0.9-0.9v-9.9c0-0.5,0.4-0.9,0.9-0.9h28.5c0.5,0,0.9,0.4,0.9,0.9v9.9
					C377.5,102.3,377.1,102.7,376.6,102.7z"/>
				<path class="st1" d="M595.6,218h-28.5c-0.5,0-0.9-0.4-0.9-0.9v-9.9c0-0.5,0.4-0.9,0.9-0.9h28.5c0.5,0,0.9,0.4,0.9,0.9v9.9
					C596.5,217.6,596.1,218,595.6,218z"/>
				<path class="st1" d="M39.5,368.7H11c-0.5,0-0.9-0.4-0.9-0.9v-9.9c0-0.5,0.4-0.9,0.9-0.9h28.5c0.5,0,0.9,0.4,0.9,0.9v9.9
					C40.4,368.3,40,368.7,39.5,368.7z"/>
				<path class="st1" d="M547.3,467.6h-28.5c-0.5,0-0.9-0.4-0.9-0.9v-9.9c0-0.5,0.4-0.9,0.9-0.9h28.5c0.5,0,0.9,0.4,0.9,0.9v9.9
					C548.2,467.2,547.8,467.6,547.3,467.6z"/>
				<path class="st1" d="M517.7,198.7h-28.5c-0.5,0-0.9-0.4-0.9-0.9v-9.9c0-0.5,0.4-0.9,0.9-0.9h28.5c0.5,0,0.9,0.4,0.9,0.9v9.9
					C518.6,198.3,518.2,198.7,517.7,198.7z"/>
				<path class="st1" d="M117.1,234.4H88.6c-0.5,0-0.9-0.4-0.9-0.9v-9.9c0-0.5,0.4-0.9,0.9-0.9h28.5c0.5,0,0.9,0.4,0.9,0.9v9.9
					C118.1,234,117.7,234.4,117.1,234.4z"/>
				<path class="st1" d="M233.2,124h-28.5c-0.5,0-0.9-0.4-0.9-0.9v-9.9c0-0.5,0.4-0.9,0.9-0.9h28.5c0.5,0,0.9,0.4,0.9,0.9v9.9
					C234.1,123.6,233.7,124,233.2,124z"/>
				<path class="st1" d="M65.5,228.5H37c-0.5,0-0.9-0.4-0.9-0.9v-9.9c0-0.5,0.4-0.9,0.9-0.9h28.5c0.5,0,0.9,0.4,0.9,0.9v9.9
					C66.5,228.1,66.1,228.5,65.5,228.5z"/>
				<path class="st1" d="M580.4,429.1h-28.5c-0.5,0-0.9-0.4-0.9-0.9v-9.9c0-0.5,0.4-0.9,0.9-0.9h28.5c0.5,0,0.9,0.4,0.9,0.9v9.9
					C581.3,428.7,580.9,429.1,580.4,429.1z"/>
				<path class="st1" d="M27.4,299.4H-1.1c-0.5,0-0.9-0.4-0.9-0.9v-9.9c0-0.5,0.4-0.9,0.9-0.9h28.5c0.5,0,0.9,0.4,0.9,0.9v9.9
					C28.3,299,27.9,299.4,27.4,299.4z"/>
				<path class="st1" d="M504.8,169.4h-28.5c-0.5,0-0.9-0.4-0.9-0.9v-9.9c0-0.5,0.4-0.9,0.9-0.9h28.5c0.5,0,0.9,0.4,0.9,0.9v9.9
					C505.7,169,505.3,169.4,504.8,169.4z"/>
			</g>
			<g class="st2">
				<rect x="104.3" y="142.4" class="st3" width="328.5" height="228.3"/>
				<rect x="113.5" y="150.5" class="st4" width="310.4" height="211.4"/>
				<polygon class="st5" points="260.2,361.9 229.9,361.9 149.8,150.5 180.1,150.5 				"/>
				<polygon class="st5" points="406.5,361.9 376.2,361.9 296.1,150.5 326.4,150.5 				"/>
				<polygon class="st5" points="296.1,361.9 281,361.9 200.9,150.5 216,150.5 				"/>
				<rect x="109.7" y="192.9" class="st3" width="316.2" height="9.9"/>
				<rect x="263.7" y="150.5" class="st3" width="9.9" height="211.5"/>
			</g>
			<g>
				<g>
					<polygon class="st6" points="245,509 249.6,509 259.1,428.6 250.4,428.6 					"/>
					<polygon class="st6" points="310,509 305.5,509 295.9,428.6 304.7,428.6 					"/>
					<path class="st7" d="M233.2,325.6H209c-5.7,0-10.1,5.1-9.2,10.8l14.8,94.6h28L233.2,325.6z"/>
					<polygon class="st7" points="209.3,509 213.9,509 223.4,428.6 214.6,428.6 					"/>
					<polygon class="st7" points="274.3,509 269.7,509 260.2,428.6 269,428.6 					"/>
					<path class="st7" d="M218.9,435.4H303c2.4,0,4.3-1.9,4.3-4.3l0,0c0-2.4-1.9-4.3-4.3-4.3h-84.1c-2.4,0-4.3,1.9-4.3,4.3l0,0
						C214.6,433.4,216.6,435.4,218.9,435.4z"/>
				</g>
				<g>
					<path class="st8" d="M295.6,509.1h-27c0,0-1.5-4.8,1.8-10.7c0,0,2.2,1.7,8.7,0.6c0,0,2.7,2.3,4.6,3.2
						C285.5,503,296.3,505.1,295.6,509.1z"/>
					<path class="st8" d="M344.3,509.1h-26.9c0,0-1.5-4.8,1.8-10.7c0,0,2.2,1.7,8.7,0.6c0,0,2.7,2.3,4.6,3.2
						C334.2,503,345,505.1,344.3,509.1z"/>
					<path class="st9" d="M254.2,402.2L254.2,402.2c0.4-3.7,1.1-5.6,1.1-5.6s47.3,8.9,59.8,13.1c6.2,2.1,11,6,11.6,11.6l0,0
						c0.1,0.6,1.6,56.9,1.8,77.4c-5.1,1.3-8.9,1.2-10.6,1c-1.4-8.3-5.7-26.5-7.6-35.2c-2.2-10.2-5-22.5-5.5-30.9
						c-19.1-1.7-44.3-4.5-47.3-6C252.5,425.1,251,416.2,254.2,402.2z"/>
					<path class="st10" d="M223.5,399.6c0.4-3.7,1.7-5,1.7-5l19.5,6.4l17.7,4c6.6,1.5,14.5,3.2,21.5,4.8c7.9,1.8,13.1,7.7,11.3,15.6
						l-2,9.5l0,0c-2.3,12.2-9.6,44.7-12.9,64.4c-6.3,0.5-9.3-0.2-10.9-0.6c0.3-7.2,0.1-24.1,0-31.7c-0.1-10.1-0.3-24.8,2.1-34.3
						c-16.4-0.6-35.1-2-43.6-6.6C217.9,420.7,223.5,399.6,223.5,399.6z"/>
					<path class="st11" d="M278.2,342l2.5,11l0.8,3.7l0,0l3.1,13.5c1.3,1.6,8.7,11.1,13.6,18.9c5.4,8.5,11.7,14.9,11.7,15l0,0
						c0.8,0.8,4.6,2.7,6.6,4.1s4,4.2,4,4.2s-4.4-2.2-7.8-3.1c-1.7-0.4-4.6-0.9-4.6-0.4c0,0.1,0.7,1.1,0.9,1.5
						c0.3,0.5,1.9,1.3,2.4,1.8c0.4,0.5,0.6,1.5,0.1,1.5s-3.3-0.9-4.5-1.5c-1.2-0.5-2.1-1.8-2.8-3.4c-0.9-2.2-2.9-4.3-2.9-4.3l0,0
						c-13.3-11-24.7-24.3-26.9-27.1c-0.9-1.1-1.6-2.2-2.3-3.2l0,0c-2-3.2-3-6.2-3.9-10l0,0c-0.7-2-1.2-4-1.7-5.8
						c-1.4-5.3-2.1-9.5-2.1-9.5L278.2,342z"/>
					<path class="st12" d="M223.8,371.7c0.4,6.9,3.8,12.1,0.6,22.6c-0.8,2.5-1,3.8-1,4.9c0,0.7,0.9,1.5,1.3,1.7
						c4,2.3,19.4,2.6,27.2,2.6c6.9,0,17.3-1.1,18.6-2.8c1.2-1.6,0.1-3.9-0.5-7.1c-2.5-14.4-1.6-21.9-1.5-32.4c0-0.3,0-0.5,0-0.8
						v-0.2l0,0c0.8-0.1,1.6-0.3,2.3-0.4c1.1-0.3,2-0.5,2.4-0.6c8.4-2.6,9.6-5.3,9.6-5.3c-2.4-10.3-5.2-17.2-7.8-21.8
						c-0.1-0.1-0.1-0.2-0.2-0.3c-0.1-0.1-0.1-0.2-0.2-0.3c-1.4-2.3-3.3-4.2-5.5-5.8c-0.2-0.2-0.4-0.3-0.7-0.5
						c-6.3-4.3-14-6-14.7-6.1l0,0c-2-0.1-4.2-0.2-6.5-0.1c-4,0.1-10.5,1.1-16.3,2.7c0,0,0,0-0.1,0c-0.6,0.2-4.3,1.6-8.2,5.7
						c-1.3,1.4-2.6,3.1-3.8,5.1c0.3,6.5,1.7,18.1,2.5,28.1C221.4,362.2,223.7,370.2,223.8,371.7z"/>
					<path class="st13" d="M268.6,360.2c0.8-0.1,1.6-0.3,2.3-0.4L269,342C268.8,344.9,268.6,358.4,268.6,360.2z"/>
					<g>
						<path class="st14" d="M263.5,286.8c0,0,1.8,12.1-3.6,13.3c-3.5,0.8-3.1-3.4-3.1-3.4l-0.1-5L263.5,286.8z"/>
						<path class="st11" d="M250.8,323.1c-0.2,1.3-0.7,7.5-1.1,7.5l-1.5-7.2c0,0-2.9,4.1-2.8,4.7c-4.2-2-8.3-7.4-6.7-8.1
							c1.2-0.2,1.6-1.1,1.8-1.8c1.6-6.3-0.4-16.3-0.4-16.3l7.6,6l3.6,2.8c0.1,0.4,0.2,0.8,0.3,1.2v0.7l0,0c0,0.2-0.3,3.7,0.4,5.5
							c0.1,0.3,0.3,0.6,0.5,0.8c0.2,0.2,1.4,0.3,1.4,0.3l0,0C254.1,320.1,255.1,322.4,250.8,323.1z"/>
						<path class="st15" d="M244.5,308.2c0,0,0.1,6.7,7.3,9.7c-0.7-1.7-0.4-5.2-0.3-5.5l-3-2.4L244.5,308.2z"/>
						<path class="st11" d="M262.6,291.6c0.1,3.7,0.1,13.5-1.9,19.1c-0.9,2.6-3.5,4.3-6.3,4c-2.7-0.3-6.6-1.4-10.1-5.1
							c-1.8-1.9-3.8-2.1-4.7-4.6c-1.5-4-3.8-11.3-2.5-16c1.8-6.5,21.7-13.8,25.1-0.6C262.5,289.4,262.6,290.5,262.6,291.6z"/>
						<path class="st14" d="M240.3,281c6.5-3.5,26.5-4.1,25.3,7.3c-0.5,5.5-12.6,4.2-16.4,3.3c-0.6,2.7,0,6.2-2,8.3
							c-1.1,1.2-3.2,1.5-5.4,1.4c-0.2,0.5-1.3,1.1-1.3,1.8c-0.1,2.5,0.5,5.8,0.5,8.8l-1.1-0.4c-0.1-0.5-6.9-10.4-7-18
							C232.8,286.3,238.4,282,240.3,281z"/>
						<g>
							<path class="st11" d="M244.5,305.6c-4,2.1-6.5-8-2.6-8.9c3-0.7,3.6,3.5,3.6,3.5S246.7,304.4,244.5,305.6z"/>
						</g>
						<path class="st15" d="M244.3,301.3c0-0.3,0-0.6-0.1-0.9c-0.1-0.4-0.2-0.8-0.4-1.1c-0.2-0.3-0.5-0.6-0.7-0.7
							c-0.5-0.3-0.9-0.4-0.9-0.4s0.3,0.2,0.6,0.7c0.3,0.4,0.6,1,0.7,1.7c-0.1-0.1-0.2-0.1-0.3-0.2c-0.3-0.1-0.7-0.2-1-0.2
							s-0.4,0.1-0.4,0.1s0.2,0,0.4,0.1c0.2,0.1,0.6,0.2,0.8,0.4c0.2,0.2,0.4,0.4,0.5,0.6c0.1,0.2,0.1,0.3,0.1,0.3l0,0
							c0,0.3,0,0.6,0,0.8c0,0.3,0,0.5,0,0.7c0,0.2,0,0.3,0,0.3s0.1-0.1,0.1-0.2c0.1-0.2,0.2-0.4,0.3-0.6c0.1-0.3,0.2-0.6,0.2-1
							C244.3,301.5,244.3,301.4,244.3,301.3L244.3,301.3L244.3,301.3z"/>
					</g>
					<path class="st13" d="M233.9,342c0,0-2.2,13.2-3.8,19.2c0,0-1,0.4-4.9,0.3L233.9,342z"/>
					<g>
						<path class="st16" d="M190.9,470.3v35.4c0,1.7,1.4,3.1,3.1,3.1h53.4c1.7,0,3.1-1.4,3.1-3.1v-35.4c0-1.7-1.4-3.1-3.1-3.1H194
							C192.3,467.2,190.9,468.6,190.9,470.3z"/>
						<path class="st8" d="M187.7,470.3v35.4c0,1.7,1.4,3.1,3.1,3.1h53.4c1.7,0,3.1-1.4,3.1-3.1v-35.4c0-1.7-1.4-3.1-3.1-3.1h-53.4
							C189,467.2,187.7,468.6,187.7,470.3z"/>
						<path class="st16" d="M207.9,468.5h3.3v-0.8c0-1.7,1.4-3.1,3.1-3.1h6.4c1.7,0,3.1,1.4,3.1,3.1v0.8h3.3v-0.8
							c0-3.5-2.9-6.4-6.4-6.4h-6.4c-3.5,0-6.4,2.9-6.4,6.4V468.5z"/>
						<path class="st17" d="M190.7,467.2h26.7h26.7c1.7,0,3.1,1.4,3.1,3.1v7.8l-29.8,9.3l-29.8-9.3v-7.8
							C187.7,468.6,189,467.2,190.7,467.2z"/>
						<path class="st16" d="M213.1,488.9h8.5c0.3,0,0.6-0.3,0.6-0.6v-3.1c0-0.3-0.3-0.6-0.6-0.6h-8.5c-0.3,0-0.6,0.3-0.6,0.6v3.1
							C212.5,488.6,212.8,488.9,213.1,488.9z"/>
					</g>
					<path class="st11" d="M228.6,351.8c0,0-0.1,0.7-0.3,2c-0.4,2.2-1,5.9-1.8,9.8c-0.6,2.7-1.2,5.5-1.9,7.9l-15.3-1.6
						c0.2-2,0.5-4.3,0.7-6.7c0-0.2,0-0.3,0-0.3c0.3-2.2,0.5-4.4,0.8-6.4c0.1-1.1,0.3-2.1,0.4-3.1c0.6-4.8,1.1-8.3,1.1-8.3
						L228.6,351.8z"/>
					<path class="st12" d="M214.4,337c2.5-5.7,4.5-8.4,5.6-9.6c3.4-3.6,7.7-4.7,7.7-4.7c1.7-0.7,3.1-1.1,3.1-1.1s5.2,3.7,3.4,18.5
						c-0.8,6.4-5.6,19.6-5.6,19.6c-3.3,0.6-8.3-0.7-12-2c-4.8-1.7-6.7-4-6.7-4S211.6,343.4,214.4,337z"/>
					<path class="st12" d="M240.6,316.9c0,0,1.3,5.2,7.5,6.5l-2.9,5.2c0,0-6.1-1.9-7.8-8.4L240.6,316.9z"/>
					<path class="st12" d="M250.8,323.1l3.3,3.9c0,0,1.4-3.6-0.3-8l-2.1-1.8C251.6,317.3,252.4,318.9,250.8,323.1z"/>
					<path class="st10" d="M253.5,372.7l13.8-30.6c0.2-0.5,0.7-0.8,1.2-0.8h27.2c0.8,0,1.3,0.9,0.9,1.5l-18.2,31.1
						c-0.2,0.4-0.7,0.7-1.2,0.7h-22.6C253.8,374.6,253.1,373.6,253.5,372.7z"/>
					<path class="st11" d="M255.8,359.9c0,0-29.5,3.3-34.8,4.6c-5.3,1.3-11.7,5.3-11.7,5.3s-1.4,7.4,6.3,8.4s41.2-14.2,41.2-14.2
						L255.8,359.9z"/>
					<path class="st11" d="M268.7,357.3c-0.2,0-0.7,0.2-1.3,0.4c0,0,0-0.1,0.1-0.1c0.2-0.6-0.4-0.6-0.8-0.6
						c-0.4,0.1-1.3,0.7-2.5,0.8c-1.2,0.2-3.8-0.2-3.8-0.2l0.7-1.6c0,0-2.2,0.4-2.7,0.8s-1.2,1.1-2.4,2c-1.2,0.9-2.7,1.4-2.7,1.4
						l1.2,2.6l-2.4,0.6l0.6,0.9c0,0,7.3-0.2,8.3-0.5c1-0.2,3.8-1.5,4.7-2c0.5-0.3,0.7-0.6,0.6-0.9c0.6-0.4,1.2-0.8,1.5-1
						c0.6-0.4,0.7-0.8,0.4-1c0.3-0.2,0.6-0.4,0.7-0.5C269.6,357.8,269.4,357.3,268.7,357.3z"/>
				</g>
			</g>
			<g>
				<path class="st18" d="M406.4,310.4c0,0,1.7-0.4,2.2-3.3c0.5-2.8-3.5-2.9-3.6-2.8s-2,1.1-2,1.1s-0.2,1.8,0,2
					S404.4,311.1,406.4,310.4z"/>
				<path class="st19" d="M432.2,271.3c-0.2-0.6-0.9,0.1-1.1,0.5c0,0.1-0.1,0.2-0.2,0.3c0.4-0.8,1.1-2.7,0.9-3.3
					c-0.2-0.5-0.7-0.2-1.1,0.2c0.3-0.8,0.5-1.6,0.4-2c-0.2-0.7-1.1,0.2-1.4,0.6c-0.1,0.2-0.8,1.3-1.5,2.4c0.4-0.9,0.9-2.3,0.8-2.8
					c-0.2-0.7-1.1,0.2-1.4,0.6c-0.3,0.5-3.1,4.9-3.1,4.9l-0.7,1.1c0,0-0.3-2.7-0.6-3.6c-0.3-1-1.1-1-1.3-0.2
					c-0.2,0.8-0.5,2.9-0.6,3.9s-0.1,2.8-0.1,3.9c0,0.6-0.1,1.7-0.9,2.6c-1.7,1.8-4.5,4.7-6.7,7c-3.3,3.4-7.3,8.5-7.3,8.5l-4.6-6.4
					l-9.9,10.8c0,0,11.5,10.2,16.1,8.2c3.9-1.6,13.2-19.4,16.1-25.2l0,0c0.1-0.2,1-1.5,2.1-2.6s2.3-2.1,2.3-2.1s1-1.2,1.8-2.5
					c0.6-0.9,0.9-1.9,1-2C431.5,274,432.4,271.8,432.2,271.3z"/>
				<polygon class="st18" points="394.5,496.3 395.7,508.9 396.5,508.9 397.7,496.3 				"/>
				<polygon class="st18" points="350.7,496.3 351.8,508.9 352.6,508.9 353.9,496.3 				"/>
				<path class="st20" d="M395.8,489c0,0-3.3,1.7-1.6,6.5c1.4,3.7,2.5,5,3.3,7.7s2.6,4.8,5.9,5.7c2.1,0.6,5.7-0.7,4.9-2.2
					c-1.9-3.5-2.8-5.9-2.8-5.9L395.8,489z"/>
				<path class="st19" d="M344,480.8c0,0,0.4,3.6,0.9,8.8c0,0-0.7,2.3-1.7,5.1c-1.1,3.2-3.3,9-3.3,9s0.6,2.5,2.2,1.7
					c0.5-0.3,1-0.6,1.5-1c1.9-1.8,8.9-11.9,8.9-11.9l-0.5-2.9l1.3-11.5L344,480.8z"/>
				<path class="st19" d="M393.9,481.6l1.9,7.8c0,0-1,1.9,0.1,4.5c0.8,1.8,1.9,2.4,2.7,4.9c0.5,1.5,1.5,2.7,1.8,3
					c1.6,1.8,4,1.5,4.8,1.1c1.3-0.7,0-2.5-0.1-3c-0.9-4-2.2-9.2-2.8-10.9c-0.4-2.8-0.6-7.5-0.6-7.5L393.9,481.6z"/>
				<path class="st21" d="M347.4,337.9c0,0-6.1,8.2-7.6,27.5c-1.2,14.4-1.6,37.6-1.5,43.7c0.1,3.8,1.1,7.5,2.1,16.4
					c1,9,3.6,55.2,3.6,55.2s2.9,2.4,8.9,0.2c0,0,7-46.6,6.4-55.3c-0.5-8.7-1.9-11-0.9-16.2c1-5.5,6.7-40.8,6.5-40.9l0.9,0.4
					c0,0,4.7,19.6,8.2,31s5.1,18.3,5.1,18.3s0.4,12.7,2.6,21.6s12.2,41.7,12.2,41.7s3.6,1.7,7.7-0.2c0,0-0.7-38.8-1.5-45.5
					s-3.2-17.7-3.2-17.7s-2.8-40.7-4.2-53.5c-2.1-18.3-8.5-25.9-8.5-25.9L347.4,337.9z"/>
				<path class="st21" d="M351.6,242c0,0-2.3,13.4,7.1,15.9c5.7,1.5-1.8-12.7-1.8-12.7L351.6,242z"/>
				<path class="st21" d="M377,237c0,0,5,12.6-1.9,17.7c-4.7,3.5-3.2-12.5-3.2-12.5L377,237z"/>
				<path class="st22" d="M353.7,248.9c0,0-1.9-1.2-3-0.1c-1.1,1.1,0.5,7.1,5.1,6.6L353.7,248.9z"/>
				<path class="st22" d="M376.4,244.5c0,0,1.3-1.8,2.8-1.2c1.4,0.6,2.3,6.8-2.3,8L376.4,244.5z"/>
				<path class="st19" d="M378.8,269.4c-1.1,2.4-4.5,7.9-12.6,8.3c-8-0.4-11.4-5.7-12.5-8.2c1.4-0.5,3.5-1.3,4.5-2.4
					c0.9-1,1.6-3,2.1-4.7c0.4-1.4,0.6-2.6,0.6-2.6l-0.9-1.9l0,0c0-0.2,0-0.4,0.1-0.5c0-0.3,0-0.5,0.1-0.6c0-0.1,0-0.2,0-0.2h12.2
					c0,0,0,0.1,0,0.2c0,0.1,0,0.4,0.1,0.6l0,0l-0.7,1.6c0,0,0.1,1.6,0.4,3.3c0.3,1.6,0.7,3.3,1.4,4.2
					C374.3,267.6,376.7,268.7,378.8,269.4z"/>
				<path class="st22" d="M371.7,259.1c0,0,0.1,1.6,0.4,3.3c-0.8,1.2-2,3-4.2,3.5c-2,0.5-6.5-2.2-7.6-3.4c0.4-1.4,0.6-2.6,0.6-2.6
					L360,258l0,0c0-0.2,0-0.4,0.1-0.5c0-0.3,0-0.5,0.1-0.6c0-0.1,0-0.2,0-0.2h12.2c0,0,0,0.1,0,0.2c0,0.1,0,0.4,0.1,0.6l0,0
					L371.7,259.1z"/>
				<path class="st19" d="M375.5,239.2l-12.5-2.7l-10.6,7.2c0,0,1.2,7.6,3.5,12c2.1,4.2,7,7.1,11.6,7.6c0.6,0.1,1.2-0.1,1.7-0.3
					c4-2.1,7.5-6.8,7.8-11.4C377.3,246.7,375.5,239.2,375.5,239.2z"/>
				<path class="st23" d="M358.7,234.3c0,0-3.6-4-3.3-7.7c0.4-4.4,4-5.9,7.1-5.5c2.9,0.4,3.5,3,3.5,3s2.1-2.7,4.6-0.4
					c1.6,1.4,1.8,8.1-1.9,10.5C365,236.4,362,237,358.7,234.3z"/>
				<path class="st20" d="M355.8,231.6c0,0-0.3-3.2,6.5-3.9c5.1-0.5,9.7,0.9,9.8,3.6C372.3,235,356.3,235.3,355.8,231.6z"/>
				<g>
					<path class="st23" d="M362.2,232c0,0-0.3-0.1-1-0.3s-1.6-0.4-2.7-0.4c-1.1-0.1-2.5,0-3.8,0.6s-2.5,1.6-3.1,3
						c-0.4,0.7-0.6,1.4-0.7,2.2s-0.2,1.5-0.1,2.2c0,1.5,0.3,2.8,0.5,4s0.5,2.1,0.6,2.8s0.1,1.1,0.1,1.1s0-0.4-0.2-1.1
						c-0.1-0.7-0.4-1.6-0.7-2.8c-0.3-1.2-0.6-2.5-0.7-4c-0.1-0.7,0-1.5,0-2.3c0.1-0.8,0.3-1.6,0.7-2.3c0.7-1.5,1.9-2.8,3.3-3.4
						c1.4-0.7,2.9-0.8,4.1-0.8s2.2,0.2,2.9,0.4c0.7,0.2,1.1,0.3,1.1,0.3L362.2,232z"/>
				</g>
				<path class="st24" d="M364.5,222.6c0,0,0.9-1.1,2.8-1.1c1.9,0.1,4.3,1.5,3.9,6.2"/>
				<g>
					<path class="st23" d="M370.3,239.5c0,0-0.1,0.2-0.2,0.6c-0.1,0.4-0.3,0.9-0.7,1.6c-0.1,0.3-0.4,0.6-0.6,1
						c-0.2,0.3-0.4,0.7-0.7,1c-0.3,0.3-0.6,0.7-0.9,1s-0.7,0.6-1,0.9c-0.4,0.3-0.7,0.5-1.1,0.8c-0.4,0.2-0.8,0.4-1.1,0.6
						c-0.4,0.2-0.8,0.3-1.1,0.5c-0.4,0.2-0.7,0.2-1,0.3c-0.6,0.2-1.2,0.3-1.6,0.4c-0.4,0.1-0.6,0.1-0.6,0.1s0.2-0.1,0.6-0.2
						c0.4-0.1,0.9-0.2,1.5-0.5c0.3-0.1,0.7-0.2,1-0.4s0.7-0.4,1.1-0.5c0.4-0.2,0.7-0.5,1.1-0.7c0.3-0.3,0.7-0.5,1-0.8
						s0.7-0.6,0.9-0.9c0.3-0.3,0.6-0.7,0.8-1c0.3-0.3,0.4-0.7,0.6-1s0.3-0.6,0.5-0.9c0.3-0.6,0.4-1.1,0.5-1.5s0.1-0.5,0.1-0.6
						L370.3,239.5z"/>
				</g>
				<path class="st23" d="M373.8,230.2c-2.9-1-5.2,0.1-6.3,1.1c-2.3-2.5-7.6-2-9.8-1.4c-6.3,1.8-6.9,7.1-6.6,13.6
					c0.2,4.3-0.1,4.6-0.1,4.6c11.7,2,17.4-5,18.6-8.5c1.2,1.8,4.3,6,9.1,5.3c0,0,0-1.8-0.3-3.9C378.2,238.3,377.6,231.6,373.8,230.2
					z"/>
				<path class="st12" d="M384.2,338.8L384.2,338.8c-3.4,1.3-10.1,2.8-17.9,2.8c-8,0-15.4-2.1-18.9-3.6c0.2-0.6,2.3-3.6,2.5-10.4
					c0.3-10.7-2.3-30.6-3.7-35c-1-3-4.4-18.1-4.4-18.1l13.9-5.9c0,0.1,0.1,0.1,0.1,0.2c5.3,6.9,15.8,6.9,21,0c0-0.1,0.1-0.1,0.1-0.2
					l13.4,4.5c0,0-5.2,23.4-7.1,40.4c-1.7,15.4,0.4,23.7,0.9,25.1C384.2,338.7,384.2,338.7,384.2,338.8z"/>
				<path class="st20" d="M404.7,309.4c-2.6-4.1,0.3-10.7,1.3-12.8c0.2-0.4,0.5-0.9,0.8-1.2c0.2-0.2,0.4-0.5,0.4-0.5
					c-0.3-0.3-1.2-0.3-1.8-0.2c-2.8-4.3-11.4-17.5-14.1-20.9c-0.2-0.3-1-0.6-1-0.6l-12.4-4.1c0,0-8,24.3-8,41.9
					c0,15.4,4.8,31.3,7,34.2c5.4,7.1,13.9,9.4,13.9,9.4s-2.9-16.6-5.4-26.5c-0.9-8.2-0.8-19.6,0.5-31.2c4.1,3.2,10.3,7.9,13.3,10.2
					c1,0.7,1.8,1.3,2.5,1.7c0.8,0.5,2.1,1.8,2.6,2.1c1.1,0.5,2.1-0.3,2.1-0.3C405.8,310.5,405.1,310,404.7,309.4z"/>
				<path class="st18" d="M385.9,296.8c0,0,0.7-4.9,1.4-7.4c0,0,0.3,7.4,0.6,8.9L385.9,296.8z"/>
				<path class="st20" d="M332.2,299.4c0,0-3.4,10.8-3.3,15.9c0.1,6.5,3.4,6.9,5.7,7c2.8,0,7.1-5,7.1-5l3.8-10.1L332.2,299.4z"/>
				<path class="st20" d="M360.6,292.9c-1.7-13.7-6.6-23.5-6.6-23.5l-12.3,5.2c0,0-4.3,7.4-9.5,24.9c0,0-1.7,6.6-2.2,11.8
					c-1,1-2.1,2.6-2.3,4.5c-0.4,6.2,5.8,6.5,5.8,6.5s-2.3-0.7-2-4c-0.1-1.2,0-2.3,0.5-3.3c3.6-7,11.9-7.6,13.5-7.6
					c0.7-1.8,1.5-3.6,2.2-5.3l0.2,1c0,0,2.6,19.1,0.4,25.7c-4.9,14.8-7.2,26.3-7.2,26.3s10.9-3.7,14.6-9.8
					C362.1,334.8,364.5,324.5,360.6,292.9z"/>
				<path class="st18" d="M347.8,301.8c0,0-1.4-7.2-2-10.1c0,0,1.1,10.6,0.9,12.8L347.8,301.8z"/>
				<g>
					<path class="st18" d="M352.4,271.7c-0.3,2-0.7,4.1-1.1,6.1s-0.7,4.1-1.1,6.1l-0.1-0.3l5.8,3.9l0.4,0.3l-0.3,0.4l-3.7,4.2
						l0.1-0.5c0.8,1.6,1.5,3.1,2.1,4.7c0.3,0.8,0.6,1.6,1,2.4c0.3,0.8,0.6,1.6,0.9,2.4c0.3,0.8,0.5,1.6,0.8,2.5
						c0.3,0.8,0.5,1.7,0.7,2.5c0.2,0.8,0.5,1.7,0.7,2.5c0.2,0.8,0.4,1.7,0.6,2.5l0.5,2.5c0.1,0.9,0.3,1.7,0.4,2.6s0.2,1.7,0.3,2.6
						c0.1,0.9,0.2,1.7,0.2,2.6l0.1,2.6c0,0.9-0.1,1.7-0.1,2.6s-0.1,1.7-0.2,2.6l-0.3,2.6l0.2-2.6c0.1-0.9,0.1-1.7,0.1-2.6
						s0-1.7-0.1-2.6l-0.2-2.6c-0.1-0.9-0.2-1.7-0.3-2.6c-0.1-0.9-0.2-1.7-0.4-2.5c-0.2-0.8-0.3-1.7-0.5-2.5l-0.5-2.5
						c-0.2-0.8-0.4-1.7-0.6-2.5c-0.2-0.8-0.4-1.7-0.7-2.5c-0.2-0.8-0.5-1.6-0.8-2.5c-0.3-0.8-0.5-1.6-0.8-2.4
						c-0.6-1.6-1.2-3.2-1.8-4.8c-0.6-1.6-1.3-3.2-2-4.7l-0.1-0.3l0.2-0.2l3.7-4.2l0.1,0.6l-5.7-4.1l-0.2-0.1v-0.2
						c0.5-2,0.9-4,1.4-6.1C351.5,275.7,351.9,273.7,352.4,271.7z"/>
				</g>
				<g>
					<path class="st18" d="M381,271.7c0.5,2,1,4,1.4,6c0.5,2,0.9,4,1.4,6.1v0.2l-0.2,0.1l-5.7,4.1l0.1-0.6l3.7,4.2l0.2,0.2l-0.1,0.3
						c-0.7,1.5-1.4,3.1-2,4.7s-1.2,3.2-1.8,4.8c-0.3,0.8-0.5,1.6-0.8,2.4c-0.3,0.8-0.5,1.6-0.8,2.5c-0.2,0.8-0.5,1.6-0.7,2.5
						c-0.2,0.8-0.4,1.7-0.6,2.5l-0.5,2.5c-0.2,0.8-0.3,1.7-0.5,2.5c-0.2,0.8-0.3,1.7-0.4,2.5c-0.1,0.9-0.2,1.7-0.3,2.6l-0.2,2.6
						c-0.1,0.9,0,1.7-0.1,2.6c0,0.9,0,1.7,0.1,2.6l0.2,2.6l-0.3-2.6c-0.1-0.9-0.2-1.7-0.2-2.6s-0.1-1.7-0.1-2.6l0.1-2.6
						c0-0.9,0.1-1.7,0.2-2.6s0.2-1.7,0.3-2.6c0.1-0.9,0.2-1.7,0.4-2.6l0.5-2.5c0.2-0.9,0.4-1.7,0.6-2.5c0.2-0.8,0.4-1.7,0.7-2.5
						c0.2-0.8,0.5-1.7,0.7-2.5c0.3-0.8,0.5-1.7,0.8-2.5c0.3-0.8,0.5-1.6,0.9-2.4c0.3-0.8,0.6-1.6,1-2.4c0.7-1.6,1.4-3.2,2.1-4.7
						l0.1,0.5l-3.7-4.2l-0.3-0.4l0.4-0.3l5.8-3.9l-0.1,0.3c-0.4-2-0.8-4.1-1.1-6.1C381.7,275.7,381.4,273.7,381,271.7z"/>
				</g>
				<path class="st20" d="M352,490.1c0,0,0.4,2.1-1.5,3.7c-1.5,1.2-6.1,6.4-8.2,9.4c-0.6,0.8-1.7,1-2.5,0.5l0,0c0,0-1.6,1.1-3.7,2.5
					c-1,0.7-1.8,1.6-1.7,2c0.1,0.5,0.5,0.8,0.8,0.8c1.9,0,4.5,0,4.5,0c1.9,0,3.9,0.1,4.9-1.5l1.9-3c1.6-2.6,3.1-4.5,5.8-5.8l0,0
					C354.2,497.5,355.8,494.7,352,490.1z"/>
				<path class="st25" d="M391.3,327.5h-30c-0.8,0-1.4-0.7-1.3-1.4l2.9-44.2c0-0.7,0.6-1.3,1.3-1.3h34.1c0.8,0,1.5,0.7,1.3,1.6
					l-7,44.2C392.5,327,392,327.5,391.3,327.5z"/>
				<path class="st26" d="M376.4,283.3c-0.2,0.6-0.7,1-1.2,1s-0.8-0.5-0.7-1c0.2-0.6,0.7-1,1.2-1S376.6,282.8,376.4,283.3z"/>
				<line class="st27" x1="375.5" y1="283.3" x2="388.3" y2="283.3"/>
				<path class="st26" d="M389.2,283.3c-0.2,0.6-0.7,1-1.2,1s-0.8-0.5-0.7-1c0.2-0.6,0.7-1,1.2-1
					C389.1,282.3,389.4,282.8,389.2,283.3z"/>
				<path class="st19" d="M370.8,304.2c0.4,0.3-0.7,1-1.4,1.4h-0.1c0,0,0,0,0.1,0c0.4,0.3-0.6,1-1.4,1.4c-0.7,0.4-2.8,1.2-2.8,1.2
					l-2.6,0.6l0,0c-0.5,0.2-1.3,0.4-1.9,0.6c-0.7,0.2-1.3,0.4-1.6,0.6c-6.1,3.6-23.5,13.5-27,9c-0.3-0.3-0.5-0.7-0.6-1.1
					c-0.1-1.2,0-2.3,0.5-3.3c3.6-7,11.9-7.6,13.5-7.6c0,0,5.4-0.4,10.6-1.5c0.7-0.1,1.9-0.5,2.8-0.8l0,0c0,0,1-2.4,1.2-2.8
					c0.2-0.4,1.4-1.3,1.4-1.3l-0.1,1.9c0,0,2.1-0.1,3.2-0.3c1-0.1,3.7-1.2,4.4-1.2s0.9,0.5,0,1.1c-0.5,0.3-4,1.9-4,1.9
					c0.2,0,2.8-1.1,3.8-1.5c0.9-0.5,1.7-0.8,2.2-0.5c0.4,0.2-0.5,1.1-1.2,1.6c-0.2,0.1-0.4,0.3-0.7,0.5
					C369.9,304,370.4,303.9,370.8,304.2z"/>
				<g>
					<path class="st18" d="M328.6,313.1c0,0,0.3-0.7,1.1-1.6c0.4-0.4,0.9-0.9,1.4-1.4c0.6-0.4,1.2-0.9,1.9-1.2
						c0.3-0.2,0.7-0.4,1-0.5c0.4-0.1,0.7-0.3,1-0.4c0.7-0.2,1.3-0.4,1.9-0.5s1-0.2,1.4-0.2c0.3,0,0.5-0.1,0.5-0.1s-0.2,0.1-0.5,0.2
						c-0.3,0.1-0.8,0.2-1.3,0.4c-0.3,0.1-0.6,0.2-0.9,0.3s-0.6,0.2-1,0.4c-0.3,0.1-0.7,0.3-1,0.4s-0.7,0.3-1,0.5
						c-1.3,0.7-2.6,1.6-3.4,2.3c-0.4,0.4-0.7,0.7-0.9,1C328.7,313,328.6,313.1,328.6,313.1z"/>
				</g>
				<g>
					<path class="st18" d="M405.2,295.1c0,0-0.5,0.5-1,1.3c-0.3,0.4-0.5,0.9-0.8,1.4s-0.6,1.1-0.8,1.7c-0.3,0.6-0.5,1.2-0.7,1.8
						s-0.4,1.1-0.5,1.6s-0.3,0.9-0.3,1.1c-0.1,0.3-0.1,0.4-0.1,0.4s0-0.2,0-0.5c0-0.3,0.1-0.7,0.2-1.2s0.2-1.1,0.4-1.7
						c0.2-0.6,0.4-1.2,0.6-1.9c0.3-0.6,0.6-1.2,0.9-1.8c0.3-0.5,0.7-1,1-1.4C404.7,295.4,405.2,295.1,405.2,295.1z"/>
				</g>
			</g>
			<g>
				<polygon class="st28" points="204.1,383.6 176.2,508.9 171.5,508.9 195.4,383.6 				"/>
				<polygon class="st28" points="411.4,383.6 439.4,508.9 444,508.9 420.1,383.6 				"/>
				<rect x="193.7" y="393.8" class="st28" width="226.4" height="4.5"/>
				<path class="st29" d="M450.4,383.6h-278c-1.7,0-3.1-1.4-3.1-3.1l0,0c0-1.7,1.4-3.1,3.1-3.1h278c1.7,0,3.1,1.4,3.1,3.1l0,0
					C453.5,382.2,452.1,383.6,450.4,383.6z"/>
			</g>
			<g>
				<g>
					<polygon class="st6" points="105,509 109.6,509 119.1,428.6 110.4,428.6 					"/>
					<polygon class="st6" points="170,509 165.5,509 155.9,428.6 164.7,428.6 					"/>
					<path class="st7" d="M93.2,325.6H69c-5.7,0-10.1,5.1-9.2,10.8L74.6,431h28L93.2,325.6z"/>
					<polygon class="st7" points="69.3,509 73.9,509 83.4,428.6 74.6,428.6 					"/>
					<polygon class="st7" points="134.3,509 129.7,509 120.2,428.6 129,428.6 					"/>
					<path class="st7" d="M78.9,435.4H163c2.4,0,4.3-1.9,4.3-4.3l0,0c0-2.4-1.9-4.3-4.3-4.3H78.9c-2.4,0-4.3,1.9-4.3,4.3l0,0
						C74.6,433.4,76.6,435.4,78.9,435.4z"/>
				</g>
				<g>
					<path class="st12" d="M157.4,508.8h-27.2c0,0-1.5-4.8,1.8-10.8c0,0,2.2,1.8,8.7,0.6c0,0,2.7,2.3,4.6,3.2
						C147.2,502.7,158.1,504.8,157.4,508.8z"/>
					<path class="st30" d="M155.5,432.2c-1.8,10.5-9.9,45.9-13.3,66.8c-6.4,0.5-9.4-0.2-11-0.6c0.3-7.3,0.9-24.7,0.9-32.4
						c-0.1-12.9-0.7-30,5-39.4l19.1,1.5c-0.1,1-0.2,1.8-0.3,2.4C155.7,431.2,155.6,431.7,155.5,432.2z"/>
					<path class="st12" d="M206.5,508.8h-27.2c0,0-1.5-4.8,1.8-10.8c0,0,2.2,1.8,8.7,0.6c0,0,2.7,2.3,4.6,3.2
						C196.4,502.7,207.2,504.8,206.5,508.8z"/>
					<path class="st31" d="M190.6,498.4c-5.2,1.3-9,1.2-10.7,1c-1.4-8.4-3.7-26.9-5.8-35.6c-3.2-13.5-6.3-32-4.1-38.6l18.8-4.7
						C188.9,421,190.4,477.8,190.6,498.4z"/>
					<path class="st31" d="M115.7,401.1L115.7,401.1c0.4-3.7,0.8-6.4,0.8-6.4l21,5.1l17.9,4.1c6.6,1.5,14.6,3.3,21.7,4.8
						c7.9,1.8,13.2,7.8,11.4,15.7l-2,9.6c-11.1-0.2-63.2-5.1-67.6-7.4C113.9,424.2,112.4,415.2,115.7,401.1z"/>
					<path class="st30" d="M84.3,401.1L84.3,401.1c0.4-3.7,2.2-7.7,2.2-7.7l19.7,6.4l17.9,4.1c6.6,1.5,14.6,3.3,21.7,4.8
						c7.9,1.8,13.2,7.8,11.4,15.7l-2,9.6c-11.1-0.2-57.4-1.8-67.6-7.4C82.6,424,81,415.2,84.3,401.1z"/>
					<g>
						<path class="st19" d="M143.2,371c0,0-9.3-4.2-11.9,0c-1.4,2.3-0.4,6.6,2.8,8.4s21.2,9.4,38.2,13.7c0,0,0.7-2.4,1.9-4.9
							c0,0-7.6-3.2-15.2-8.5C151.3,374.4,143.2,371,143.2,371L143.2,371z"/>
					</g>
					<path class="st11" d="M138.4,343.3l8,32c0,0-0.8,8.1-9,4.1s-13.6-29.5-13.6-29.5L138.4,343.3z"/>
					<path class="st28" d="M142.2,353.8c0,0-1.8,1.6-9.4,4.2c-0.9,0.3-1.8,0.6-2.7,0.9s-1.9,0.5-2.9,0.8l1.7-18.6l0.1-1l1-16.7
						c0.2,0.2,0.4,0.3,0.7,0.5c2.2,1.6,4.2,3.5,5.6,5.8C136.3,329.7,140,342.8,142.2,353.8z"/>
					<path class="st32" d="M132.9,358c-0.9,0.3-1.8,0.6-2.7,0.9s-1.9,0.5-2.9,0.8l1.7-18.6l0.8-1.2
						C129.8,339.9,131.8,350.4,132.9,358z"/>
					<path class="st33" d="M131.7,289c0,0-0.5,2.9-1.1,5.4l-2.4,1.5c-0.1-2.8,0.5-6.6,0.5-6.6L131.7,289z"/>
					<path class="st28" d="M132.1,399.5c-1.3,1.8-11.8,2.8-18.7,2.8c-7.8,0-23.4-0.3-27.4-2.6c-0.4-0.2-1.3-1-1.3-1.7
						c0-1,0.2-2.4,1-4.9c1.1-3.5,0.9-11,0-19.5c-0.3-3.4-0.7-7-1.2-10.7c-1.8-14.3-4.3-28.7-4.4-32.1c1.2-2.1,2.6-3.8,3.9-5.2
						c3.9-4.2,7.7-5.6,8.3-5.8h0.1c5.8-1.6,12.4-2.6,16.4-2.7c2.4-0.1,4.6,0,6.6,0.1c0,0,0,0,0.1,0c0.7,0.1,8.5,1.9,14.8,6.2
						c0.2,0.2,0.4,0.3,0.7,0.5c0.8,5-0.3,18.9-0.6,35.1c0,0.3,0,0.5,0,0.8c-0.2,10.5-1.1,18.1,1.5,32.6
						C132.2,395.6,133.3,397.9,132.1,399.5z"/>
					<path class="st32" d="M92.9,347c0,0-5,24.8-5,28.8l-2.3-2.3c-0.3-3.4-0.7-7-1.2-10.7L92.9,347z"/>
					<path class="st11" d="M116.1,327.3c-11.3,1.3-13.9-8.9-12-9.8c1.2-0.2,1.6-0.8,1.7-1.5c1.6-6.4-0.7-13.4-0.7-13.4l7.7,6l4.3,4
						l0.8,0.8c0,0-0.1,2.5,0,3.7c0,0.3,0.1,0.5,0.1,0.5c0.3,0.2,1.7,0.7,1.7,0.7S123.3,326.4,116.1,327.3z"/>
					<path class="st15" d="M117.8,317.1c-5.8-1.5-7.4-8.3-7.4-8.3l6.5,3.8l0.8,0.8C117.8,313.5,117.7,316,117.8,317.1z"/>
					<path class="st11" d="M130.3,292.3c0,0-1.6,22-7.5,23.9c0,0-7.6,0.7-13-6.6c-1.6-2.1-3.5-2.6-4.2-5.1
						c-1.1-4.1-2.5-11.8-0.6-16.4C107.6,281.5,131.7,276.1,130.3,292.3z"/>
					<path class="st33" d="M104.4,276.3c4.9-2.2,8.2-0.2,8.2-0.2s2.6-5.5,9-4.2c6.4,1.3,5.4,6.8,5.4,6.8s6.6-2.2,8.7,3.8
						c2.1,6.1-3.5,8.3-6.8,8.4c-1.6,0.1-8.6-0.3-13.4-0.2c-1,0-1.7,0.7-1.9,1.7c-0.1,1-0.3,1.9-0.4,2.2c-0.4,0.6-2.3,1.9-2.3,2.9
						l0,0c0.1,1.3,0,2.3-0.3,2.4c-0.8,0.5-4.3,0.4-6,0.3c-1.2-0.1-2.2-5.5-2.8-9.3C101.5,288.8,98.5,278.9,104.4,276.3z"/>
					<g>
						<path class="st11" d="M107.9,304.2c-3.9,2.4-7.1-7.6-3.2-8.8c2.9-0.9,3.8,3.3,3.8,3.3S110.1,302.8,107.9,304.2z"/>
						<path class="st15" d="M107.4,299.9L107.4,299.9L107.4,299.9c0-0.3,0-0.6-0.1-0.9c-0.1-0.4-0.3-0.8-0.5-1.1
							c-0.2-0.3-0.5-0.5-0.8-0.7c-0.5-0.3-0.9-0.3-0.9-0.3s0.3,0.2,0.7,0.6c0.3,0.4,0.7,1,0.8,1.6c-0.1-0.1-0.2-0.1-0.4-0.2
							c-0.4-0.1-0.7-0.1-1-0.1s-0.4,0.1-0.4,0.1s0.2,0,0.4,0s0.6,0.1,0.8,0.3c0.3,0.2,0.5,0.4,0.6,0.6c0.1,0.2,0.2,0.3,0.2,0.3l0,0
							c0,0.3,0.1,0.6,0.1,0.8c0,0.3,0,0.5,0.1,0.7c0,0.2,0,0.3,0,0.3s0-0.1,0.1-0.2c0.1-0.2,0.2-0.4,0.2-0.7c0.1-0.3,0.1-0.6,0.1-1
							C107.4,300.1,107.4,300,107.4,299.9z"/>
					</g>
					<path class="st11" d="M67.9,375.2L67.9,375.2c1.9,2.2,8.9,3.7,12.3,0.8c1.1-1,2.3-3.5,3.5-6.6c3-7.9,5.9-19.8,5.9-19.8
						l-15.8-8.1c0,0-2,9.1-3.8,17.8c0,0,0,0.1,0,0.2c-0.6,2.8-1.1,5.5-1.5,7.8c0,0.1,0,0.1,0,0.2C68,370.3,67.7,373.2,67.9,375.2z"
						/>
					<path class="st28" d="M95.5,338.5c-1.5,6.3-6.3,18.4-6.3,18.4c-3.4,0.6-7.6-0.7-11.3-2.3c-4.4-1.9-7.1-3.6-7.1-3.6
						s2.6-9.2,5.4-15.7c2.6-5.8,4.2-7.8,5.2-9.1c3.6-4.5,9-6,10.7-6.4L95.5,338.5z"/>
					<g>
						<path class="st11" d="M67.9,375.2L67.9,375.2c0.1,1.2,0.5,2,1,2.3c0.1,0.1,1.4,0.8,1.5,0.9c1.9,1.2,5.4,3.2,9.8,5.1
							c10.6,4.6,25.9,9.9,34.2,12.3c0,0,0.8-2.3,2.1-4.8c0,0-7.5-3.5-14.8-9.1c-7.4-5.6-18-12.5-18-12.5l-2.7-3.1c0,0-9.5-8.8-11-7
							c0,0,0,0.1,0,0.2c-0.2,0.9-1,4.3-1.5,7.8c0,0.1,0,0.1,0,0.2C68,370.3,67.7,373.2,67.9,375.2z"/>
					</g>
					<polygon class="st25" points="96.6,404.7 114.5,404.7 108.2,408.7 					"/>
					<path class="st34" d="M96.1,407l12.7,2.8l0.5-2.3l-12.7-2.8c-0.6-0.1-1.3,0.3-1.4,0.9l0,0C95,406.2,95.4,406.8,96.1,407z"/>
					<path class="st34" d="M109,409.8h60.2c0.7,0,1.4-0.5,1.5-1.2l12.3-44.3c0.3-1-0.5-2-1.5-2h-58.2c-1.4,0-2.5,0.9-2.9,2.2
						l-12.3,44.2C108,409.2,108.4,409.8,109,409.8z"/>
					<path class="st25" d="M111.2,409.8h60.2c0.7,0,1.4-0.5,1.5-1.2l12.3-44.3c0.3-1-0.5-2-1.5-2h-58.2c-1.4,0-2.5,0.9-2.9,2.2
						l-12.3,44.2C110.2,409.2,110.6,409.8,111.2,409.8z"/>
				</g>
			</g>
			<g>
				<path class="st28" d="M513.2,509.1h-58.5v-3c0-2.8,2.3-5.1,5.1-5.1H508c2.8,0,5.1,2.3,5.1,5.1v3H513.2z"/>
				<rect x="480.2" y="289.8" class="st28" width="7.5" height="219.3"/>
				<g>
					<polygon class="st28" points="529.2,367.2 421.3,367.2 418.5,362.5 458.2,229.4 563.4,224.6 566.2,229.4 					"/>
					<polygon class="st3" points="526.4,362.5 418.5,362.5 455.4,224.6 563.4,224.6 					"/>
					<polygon class="st35" points="449.3,354.5 433,354.5 449.3,293.5 465.7,293.5 					"/>
					<polygon class="st35" points="471.7,354.5 455.3,354.5 477.4,272 493.7,272 					"/>
					<polygon class="st35" points="494,354.5 477.6,354.5 487.1,319 503.5,319 					"/>
					<polygon class="st35" points="516.3,354.5 499.9,354.5 527.9,249.9 544.3,249.9 					"/>
					<polygon class="st35" points="491.8,235.9 464.7,235.9 465.3,233.7 492.4,233.7 					"/>
					<polygon class="st35" points="490.9,239.1 463.9,239.1 464.4,237 491.5,237 					"/>
					<polygon class="st35" points="490.1,242.4 463,242.4 463.6,240.2 490.7,240.2 					"/>
					<polygon class="st35" points="478.5,245.6 462.1,245.6 462.7,243.5 479.1,243.5 					"/>
					<polygon class="st35" points="511.6,301.1 489.8,301.1 490.3,299.3 512,299.3 					"/>
					<polygon class="st35" points="510.9,303.7 489.1,303.7 489.6,301.9 511.3,301.9 					"/>
					<polygon class="st35" points="510.2,306.3 488.5,306.3 488.9,304.5 510.6,304.5 					"/>
					<polygon class="st35" points="500.9,308.9 487.8,308.9 488.2,307.1 501.4,307.1 					"/>
				</g>
			</g>
			<g>
				<g>
					<path class="st25" d="M420.3,377.4l-10.5-26.9c-0.5-1.4-1.8-2.3-3.3-2.3h-44.9c-1.2,0-2,1.2-1.5,2.3l10.5,26.9H420.3z"/>
					<path class="st36" d="M418.7,376H373l-9.4-24.2c-0.4-1,0.3-2.1,1.4-2.1h41.2c1.3,0,2.5,0.8,3,2.1L418.7,376z"/>
					<polygon class="st26" points="387.2,360.4 369.9,360.4 366.4,351.7 383.7,351.7 					"/>
					<polygon class="st26" points="411,362.2 390.3,362.2 386.2,351.7 406.9,351.7 					"/>
					<polygon class="st26" points="412.5,365.7 391.8,365.7 390.9,363.6 411.6,363.6 					"/>
					<polygon class="st26" points="413.8,369.4 393.1,369.4 392.3,367.2 413,367.2 					"/>
					<polygon class="st26" points="391.1,370.7 373.8,370.7 370.3,361.9 387.6,361.9 					"/>
				</g>
				<g>
					<path class="st11" d="M479,322.4c-1.2-0.2-1.6-1.1-1.8-1.8c-1.6-6.3,0.4-16.3,0.4-16.3l-7.6,6c0,0-5.8,4.1-5.9,4.5l-0.3,6.7
						l0,0C463.3,332.9,480.6,323.1,479,322.4z"/>
					<path class="st11" d="M454.9,294.1c-0.1,3.7-0.1,13.5,1.9,19.1c0.9,2.6,3.5,4.3,6.3,4c2.7-0.3,6.6-1.4,10.1-5.1
						c1.8-1.9,3.8-2.1,4.7-4.6c1.5-4,3.8-11.3,2.5-16c-1.8-6.5-21.7-13.8-25.1-0.6C455.1,291.9,455,293,454.9,294.1z"/>
					<path class="st14" d="M475.1,282.5c-6.5-3.5-17.5,0.4-26,4.4c0.5,5.5,5.9,8,9.7,7.2c0.6,2.7,0,6.2,2,8.3
						c1.1,1.2,3.2,1.5,5.4,1.4c0.2,0.5,1.3,7.6,2.3,10.6h9.1c0.1-0.5,6.1-10.8,7-18.4C485.5,289.1,483.7,282.5,475.1,282.5z"/>
					<g>
						<path class="st11" d="M463.1,308.1c3.3,2.1,5.3-8,2.1-8.9c-2.4-0.7-2.9,3.5-2.9,3.5S461.3,306.9,463.1,308.1z"/>
						<path class="st15" d="M464.9,302.6c-0.2,0-0.6,0.1-0.8,0.2c-0.1,0-0.1,0.1-0.2,0.1c0.1-0.6,0.3-1.2,0.5-1.6
							c0.2-0.4,0.5-0.7,0.5-0.7s-0.4,0.1-0.8,0.5c-0.4,0.4-0.8,1.1-0.9,1.9c0,0.3,0,0.6,0,0.8l0,0l0,0c0,0.4,0.1,0.9,0.2,1.2
							c0.1,0.3,0.2,0.5,0.2,0.6c0.1,0.1,0.1,0.2,0.1,0.2s0-0.1,0-0.3c0-0.2,0-0.4,0-0.6c0-0.3,0-0.6,0-0.9l0,0c0,0,0-0.1,0.1-0.3
							c0.1-0.2,0.2-0.4,0.4-0.6C464.4,302.9,464.6,302.8,464.9,302.6c0.2,0,0.4,0,0.4,0S465.2,302.6,464.9,302.6z"/>
					</g>
				</g>
				<path class="st11" d="M395,369c0,0-2-0.1-3.8-0.4s-3.3-1.3-6.3-1.4c-2.9-0.2-11.1,6.6-11.7,7.5s0.6,1.4,1.5,1.2s4.5-1.6,4.5-1.6
					s-0.5,0.4,3.4,1.4c3.8,1,6.4-0.8,7.6-0.7c1.2,0,4,0.4,4,0.4L395,369z"/>
				<path class="st21" d="M422,509.1h26.9c0,0,1.5-4.8-1.8-10.7c0,0-2.2,1.7-8.7,0.6c0,0-2.7,2.3-4.6,3.2
					C432.1,503,421.3,505.1,422,509.1z"/>
				<path class="st21" d="M373.3,509.1h26.9c0,0,1.5-4.8-1.8-10.7c0,0-2.2,1.7-8.7,0.6c0,0-2.7,2.3-4.6,3.2
					C383.3,503,372.6,505.1,373.3,509.1z"/>
				<path class="st10" d="M494,399.6c-0.4-3.7-1.7-5-1.7-5l-19.5,6.4l-17.7,4c-6.6,1.5-14.5,3.2-21.5,4.8
					c-7.9,1.8-13.1,7.7-11.3,15.6l2,9.5l0,0c2.3,12.2,9.6,44.7,12.9,64.4c6.3,0.5,9.3-0.2,10.9-0.6c-0.3-7.2-0.1-24.1,0-31.7
					c0.1-10.1,0.3-24.8-2.1-34.3c16.4-0.6,35.1-2,43.6-6.6C499.7,420.7,494,399.6,494,399.6z"/>
				<path class="st9" d="M476.6,402.2c-0.4-3.7-1.1-5.6-1.1-5.6s-20.8,1.4-30.6,3.4c-14.8,3-34.9,7.2-42.5,9.7
					c-6.2,2.1-11,6-11.6,11.6l0,0c-0.1,0.6-1.6,56.9-1.8,77.4c5.1,1.3,8.9,1.2,10.6,1c1.4-8.3,5.7-26.5,7.6-35.2
					c2.2-10.2,5-22.5,5.5-30.9c19.1-1.7,52.6-5.5,56-5.6C480.7,427.4,476.6,402.2,476.6,402.2z"/>
				<path class="st12" d="M493.8,371.7c-0.4,6.9-3.8,12.1-0.6,22.6c0.8,2.5,0.9,3.8,0.9,4.9c0,0.7-0.9,1.5-1.3,1.7
					c-4,2.3-19.4,2.6-27.2,2.6c-6.1,0-14.8-0.9-17.7-2.2c-0.4-0.2-0.7-0.4-0.9-0.6c-1.2-1.6-0.1-3.9,0.5-7.1
					c2.5-14.4,1.6-22,1.5-32.4c0-0.3,0-0.5,0-0.8v-0.2l0,0c-0.8-0.1-1.6-0.3-2.3-0.4c-1.1-0.3-2-0.5-2.3-0.6
					c-8.4-2.6-9.6-5.3-9.6-5.3c2.4-10.3,5.2-17.2,7.8-21.8c0.1-0.1,0.1-0.2,0.2-0.3c0.1-0.1,0.1-0.2,0.2-0.3
					c1.4-2.3,3.3-4.2,5.5-5.8c0.2-0.2,0.4-0.3,0.7-0.5c0,0,0,0,0.1-0.1s0.3-0.2,0.4-0.3c0.1,0,0.1-0.1,0.2-0.1
					c1.7-1,6.5-3.3,15.1-4.2c10.5-1,20.7,0.9,21.7,1.1c0,0,0,0,0.1,0l0,0c0.6,0.2,4.3,1.6,8.2,5.8c1.3,1.4,2.6,3.1,3.8,5.1
					c1.1,3.6,1.5,10.9-2.5,28.1C495.9,362.1,493.9,370.2,493.8,371.7z"/>
				<path class="st13" d="M451.2,376.3c-0.6,6.8-4.1,23.8-3.3,25c-0.4-0.2-0.7-0.4-0.9-0.6c-1.2-1.6-0.1-3.9,0.5-7.1
					c2.5-14.4,1.6-22,1.5-32.4c0-0.3,0-0.5,0-0.8v-0.2c0.1,0,1.4,0.2,3.5,0.4C452.5,360.6,451.7,370.9,451.2,376.3z"/>
				<path class="st12" d="M435.8,349.8c0,0-4.8,17-5.5,18.8c-6.5-0.1-36.1,0-36.1,0l-1.3,7.5c0,0,40,8,46.7,8
					c4.9,0,12.9-23.5,12.9-23.5l-9.3-6.8L435.8,349.8z"/>
				<g>
					<polygon class="st6" points="472.5,509 468,509 458.4,428.6 467.2,428.6 					"/>
					<polygon class="st6" points="407.5,509 412.1,509 421.6,428.6 412.8,428.6 					"/>
					<path class="st7" d="M508.7,325.6h-24.2h-22.3c-4.6,0-8.3,3.7-8.3,8.3V431h21.2h28l14.8-94.6
						C518.8,330.8,514.4,325.6,508.7,325.6z"/>
					<polygon class="st7" points="508.3,509 503.7,509 494.2,428.6 502.9,428.6 					"/>
					<polygon class="st7" points="443.3,509 447.8,509 457.4,428.6 448.6,428.6 					"/>
					<path class="st7" d="M498.6,435.4h-84.1c-2.4,0-4.3-1.9-4.3-4.3l0,0c0-2.4,1.9-4.3,4.3-4.3h84.1c2.4,0,4.3,1.9,4.3,4.3l0,0
						C503,433.4,501,435.4,498.6,435.4z"/>
				</g>
			</g>
			<g>
				<g>
					<path class="st37" d="M-2.6,425.3c0,0-3.2,1-2.1,6.5s2.8,6.1,2.1,11c-0.8,4.9,4.9,8.6,5.8,11.6s-1.2,8.4,1.3,12.4
						c1.3,2.2,4.7,3.9,9.1,4.4c10,1,18.1-4.1,20.2-13.1c0.3-1.4,0.5-2.8,0.4-4.3c-0.6-8.6-10.4-8.8-13.2-10.7
						c-2.7-1.9-3.5-9-5.8-10.6c-2.4-1.6-5,0.8-9-2.8C2.1,426.2-0.1,424.5-2.6,425.3z"/>
					<path class="st38" d="M-2.2,427.7c0,0,29.8,35,33.7,62.4"/>
					<path class="st39" d="M-1.3,436.5c0,0,5.6,1.4,9.5,4.8"/>
					<path class="st39" d="M13.1,434c0,0-2.5,7.3-1.6,12.3"/>
					<path class="st39" d="M3.6,451.4c0,0,10.2,1.2,13.6,3.8"/>
					<path class="st39" d="M25.2,449.1c0,0-4.3,8.7-4.3,12.6"/>
					<path class="st39" d="M8.1,465.8c0,0,8.3-1.7,14.6-0.6"/>
					<path class="st39" d="M14,442.8c0,0-0.9,3.7-0.8,5.9"/>
				</g>
				<g>
					<path class="st40" d="M52,420.8c0,0,3.3,0.3,3.4,5.9s-1.5,6.6,0.2,11.2s-3,9.4-3.3,12.6c-0.3,3.1,2.9,8,1.3,12.4
						c-0.9,2.4-3.8,4.8-8,6.1c-9.6,3-18.6-0.3-22.5-8.6c-0.6-1.3-1.1-2.7-1.2-4.1c-1.1-8.6,8.4-10.7,10.7-13.2
						c2.3-2.4,1.5-9.5,3.5-11.6s5-0.3,8.2-4.6C47.6,422.7,49.4,420.5,52,420.8z"/>
					<path class="st38" d="M52.2,423.3c0,0-21.9,40.4-20.2,68"/>
					<path class="st39" d="M53.1,432.1c0,0-5.2,2.6-8.3,6.7"/>
					<path class="st39" d="M38.4,432.5c0,0,3.9,6.6,4.1,11.7"/>
					<path class="st39" d="M51.3,447.6c0,0-9.8,3.3-12.5,6.5"/>
					<path class="st39" d="M29.7,449.8c0,0,6,7.7,6.8,11.5"/>
					<path class="st39" d="M49.8,462.6c0,0-8.5,0.1-14.4,2.4"/>
					<path class="st39" d="M39.3,441.4c0,0,1.6,3.5,2,5.6"/>
				</g>
				<g>
					<polygon class="st40" points="42.4,509.1 19.4,509.1 14.5,475.7 47.3,475.7 					"/>
					<polygon class="st37" points="14.5,475.7 15.1,479.4 46.3,482.7 47.3,475.7 					"/>
					<rect x="12.4" y="472.4" class="st40" width="37" height="5.1"/>
				</g>
			</g>
			<g>
				<path class="st41" d="M347.3,200.6h-50c-2.7,0-4.9,2.2-4.9,4.9v13.2c0,2.7,2.2,4.9,4.9,4.9h38.8l7.2,7.2v-7.2h4
					c2.7,0,4.9-2.2,4.9-4.9v-13.2C352.2,202.8,350,200.6,347.3,200.6z"/>
				<line class="st42" x1="299.8" y1="206.9" x2="338.2" y2="206.9"/>
				<line class="st42" x1="299.8" y1="212.2" x2="344.1" y2="212.2"/>
				<line class="st42" x1="299.8" y1="217.4" x2="315.7" y2="217.4"/>
			</g>
			<g>
				<polygon class="st43" points="560.9,309.7 560.9,332.5 579.5,332.5 579.5,309.7 588.2,309.7 570.2,285.3 552.2,309.7 				"/>
				<polygon class="st43" points="453.8,205 453.8,216.4 463.1,216.4 463.1,205 467.4,205 458.4,192.8 449.4,205 				"/>
			</g>
			<line class="st44" x1="-25.2" y1="508.9" x2="625" y2="508.9"/>
		</g>
	</g>
</g>
</svg>
