<?xml version="1.0" encoding="utf-8"?>
<!-- Generator: Adobe Illustrator 25.2.0, SVG Export Plug-In . SVG Version: 6.00 Build 0)  -->
<svg version="1.1" id="Layer_1" xmlns="http://www.w3.org/2000/svg" xmlns:xlink="http://www.w3.org/1999/xlink" x="0px" y="0px"
	 viewBox="0 0 2760.6 2000" style="enable-background:new 0 0 2760.6 2000;" xml:space="preserve">
<style type="text/css">
	.st0{fill:url(#SVGID_1_);}
	.st1{fill:url(#SVGID_2_);}
	.st2{fill:url(#SVGID_3_);}
	.st3{fill:url(#SVGID_4_);}
	.st4{fill:url(#SVGID_5_);}
	.st5{fill:url(#SVGID_6_);}
	.st6{fill:url(#SVGID_7_);}
	.st7{fill:url(#SVGID_8_);}
	.st8{fill:url(#SVGID_9_);}
	.st9{fill:url(#SVGID_10_);}
	.st10{fill:#6A6A6A;}
	.st11{fill:url(#SVGID_11_);}
	.st12{fill:url(#SVGID_12_);}
	.st13{fill:url(#SVGID_13_);}
	.st14{fill:url(#SVGID_14_);}
	.st15{fill:url(#SVGID_15_);}
	.st16{fill:url(#SVGID_16_);}
	.st17{fill:url(#SVGID_17_);}
	.st18{fill:url(#SVGID_18_);}
	.st19{fill:url(#SVGID_19_);}
	.st20{fill:url(#SVGID_20_);}
	.st21{fill:#BFAB8C;}
	.st22{fill:#FFE4BB;}
	.st23{fill:#B6B6B6;}
	.st24{fill:#F2F2F2;}
	.st25{fill:#C9AA7B;}
	.st26{fill:#97805C;}
</style>
<g>
	<g>
		
			<linearGradient id="SVGID_1_" gradientUnits="userSpaceOnUse" x1="1418.7003" y1="1647.0292" x2="1794.8853" y2="1647.0292" gradientTransform="matrix(1 0 0 -1 0 2000)">
			<stop  offset="0" style="stop-color:#D7D7D7"/>
			<stop  offset="7.259130e-02" style="stop-color:#DBDBDB"/>
			<stop  offset="0.6449" style="stop-color:#F2F2F2"/>
			<stop  offset="1" style="stop-color:#FBFBFB"/>
		</linearGradient>
		<path class="st0" d="M1783.7,468.3c8.2,46.6,11.8,92.2,11.1,135.9c-0.1,5.5-0.3,11-0.5,16.4c-0.3,6.8-0.7,13.4-1.2,20.1
			c-34.5-71.1-122.4-121.5-225.5-121.5c-4.2,0-8.8,0-12.9,0.2c0.4-2,0.8-2.7,1.5-5.5c0.2-1.1,0.9-2.8,1.1-3.9
			c0.1-0.1,0.1-0.2,0.1-0.4c0.1-0.5,0.2-1.1,0.4-1.8c0.6-3.1,1.2-6.2,1.8-9.3c1.7-9.3,3.1-18.8,4.3-28.5c0.2-1.8,0.5-3.7,0.7-5.5
			c0.2-1.4,0.3-2.7,0.4-4.2c0.4-3.6,0.8-7.3,1.1-11c1.4-15.9,2.1-32.2,2.1-48.7c0-3.9-0.1-7.7-0.1-11.6c0-1.2,0-2.3-0.1-3.5
			c0-2.3-0.1-4.6-0.2-6.8c-0.1-2.2-0.2-4.4-0.3-6.6c0-1.1-0.1-2.2-0.1-3.2c0-0.8,0-1.5-0.1-2.3c-0.1-1.5-0.2-3-0.3-4.6
			c0-0.6,0-1.2-0.1-1.7c-0.2-3.3-0.5-6.6-0.8-9.7c-0.4-4.4-0.8-8.7-1.3-13c-0.1-1.4-0.3-2.9-0.5-4.3c-0.4-3.5-0.8-7.1-1.3-10.5
			c0-0.1,0-0.2,0-0.4c-0.6-4-1.2-8-1.9-12c-0.5-3-1-6-1.6-9c-0.2-1.3-0.4-2.5-0.7-3.7c-0.1-0.9-0.3-1.9-0.5-2.8
			c-0.5-2.7-1.1-5.4-1.6-8c-0.1-0.6-0.2-1.2-0.4-1.8c-0.4-1.8-0.8-3.6-1.2-5.4c-0.4-1.8-0.8-3.6-1.3-5.4c0-0.2,0-0.3-0.1-0.5
			c-0.8-3.5-1.7-6.9-2.6-10.3c-1.1-4.3-2.4-8.6-3.6-12.9c-0.9-3-1.8-6-2.7-9c0-0.1,0-0.1-0.1-0.2c-0.1-0.4-0.2-0.9-0.4-1.3
			c-0.4-1.2-0.8-2.4-1.2-3.6c-0.8-2.5-1.6-4.9-2.5-7.4c-0.6-1.8-1.3-3.6-2-5.4c-0.3-1.1-0.7-2.2-1.1-3.2c-0.2-0.7-0.5-1.4-0.8-2.1
			c-1.3-3.6-2.7-7.1-4.2-10.5c-0.7-1.7-1.4-3.4-2.2-5.1c-0.7-1.7-1.5-3.4-2.2-5c-0.4-0.8-0.8-1.7-1.1-2.5c-1.1-2.5-2.3-5-3.5-7.4
			c-0.8-1.6-1.6-3.3-2.3-4.8c-0.9-1.7-1.7-3.4-2.6-5.1c-0.1-0.3-0.3-0.6-0.4-0.9c-0.5-0.9-1-1.9-1.5-2.9c-0.7-1.3-1.3-2.5-2.1-3.7
			c-0.3-0.5-0.5-1.1-0.8-1.6c-0.2-0.3-0.4-0.7-0.6-1.1c-1.5-2.7-3-5.4-4.7-8c-1.8-2.9-3.5-5.9-5.4-8.8c-0.9-1.4-1.9-2.8-2.8-4.3
			c0-0.1-0.1-0.1-0.2-0.2c-0.4-0.7-0.9-1.4-1.3-2.1c-1.1-1.7-2.2-3.3-3.4-4.9c-1.5-2.2-3.1-4.3-4.7-6.4c-0.8-1-1.6-2.1-2.4-3.1
			c-1.1-1.5-2.3-3-3.4-4.4c-0.4-0.5-0.8-1-1.2-1.5c-1.3-1.6-2.6-3.2-4-4.7c-0.7-0.8-1.4-1.7-2.2-2.5c-2.4-2.8-5-5.5-7.6-8.2
			c-1.3-1.3-2.5-2.6-3.9-3.9c-1.1-1.1-2.2-2.2-3.3-3.2c-0.3-0.3-0.6-0.7-1-1c-0.8-0.7-1.6-1.5-2.4-2.2c-3.7-3.4-7.4-6.5-11.2-9.5
			c-0.1,0-0.1-0.1-0.2-0.2c-1.6-1.2-3.2-2.4-4.8-3.6c-0.4-0.3-0.7-0.5-1.1-0.8c-0.8-0.6-1.6-1.2-2.4-1.8c-0.7-0.5-1.4-1-2.2-1.5
			c-0.2-0.1-0.3-0.2-0.5-0.3c-5.9-4.1-12-7.6-18.2-10.7c3.3-0.8,6.6-1.5,9.9-2.1c58-10.2,116.8,9.4,170,51.1c-0.1,0-0.1,0-0.1,0
			c0.6,0.5,1.2,0.9,1.8,1.4c0.5,0.4,1.1,0.9,1.7,1.3l0,0c3,2.4,5.9,4.9,8.9,7.4c2.3,2,4.6,4,6.9,6.1c2.6,2.4,5.2,4.7,7.7,7.2
			c0.1,0.1,0.2,0.2,0.3,0.2c2.4,2.4,4.9,4.8,7.4,7.4c2.5,2.5,5,5.2,7.5,7.9c2.4,2.7,4.9,5.4,7.3,8.2c2.9,3.3,5.8,6.6,8.6,10
			c2,2.4,3.9,4.8,5.9,7.2c4.5,5.7,8.9,11.5,13.3,17.5c0.2,0.3,0.4,0.7,0.7,1c2.2,3.1,4.5,6.4,6.8,9.6c2.2,3.2,4.5,6.6,6.6,9.9
			c2.1,3.1,4.1,6.4,6.2,9.6c0.4,0.8,0.9,1.5,1.3,2.3c1.8,2.9,3.6,5.8,5.3,8.8c2.1,3.5,4.2,7.1,6.2,10.7s4,7.2,5.9,10.9
			c4,7.4,7.8,15,11.5,22.7s7.3,15.6,10.7,23.6c1.8,4,3.5,8,5.1,12.1c1.6,3.8,3.1,7.6,4.6,11.5c0.3,0.6,0.5,1.3,0.7,1.9
			c1.4,3.8,2.8,7.6,4.3,11.4c1.5,4.2,3,8.5,4.5,12.7c1.3,3.8,2.5,7.5,3.7,11.3c0.4,1.1,0.8,2.4,1.1,3.5c1.2,3.8,2.3,7.5,3.5,11.3
			c1.2,4.1,2.4,8.2,3.6,12.3c0.2,0.7,0.4,1.4,0.5,2.1c0.8,2.8,1.6,5.7,2.3,8.6c0.6,2.1,1.1,4.2,1.7,6.3c2.3,8.9,4.4,17.8,6.3,26.9
			c0.7,3.2,1.3,6.4,2,9.6C1781.7,457.2,1782.7,462.7,1783.7,468.3z"/>
		
			<linearGradient id="SVGID_2_" gradientUnits="userSpaceOnUse" x1="1598.4" y1="1578.1" x2="1947.9631" y2="1578.1" gradientTransform="matrix(1 0 0 -1 0 2000)">
			<stop  offset="0" style="stop-color:#10122E"/>
			<stop  offset="1" style="stop-color:#4B4C5E"/>
		</linearGradient>
		<path class="st1" d="M1598.4,119c117.8,13.2,245.2,137.4,310.2,315.8c37.4,102.9,47.3,205.3,33.3,290
			c-12.5-48.4-67.3-84.9-133.1-84.9c-5.3,0-10.5,0.2-15.6,0.7c0.5-6.7,0.9-13.3,1.2-20.1c0.2-5.4,0.4-10.8,0.5-16.4
			c0.7-43.6-2.9-89.3-11.1-135.9c-1-5.6-2-11.1-3.1-16.5c-0.7-3.3-1.3-6.5-2-9.6c-1.9-9.1-4-18.1-6.3-26.9c-0.5-2.1-1.1-4.2-1.7-6.3
			c-0.7-2.8-1.5-5.7-2.3-8.6c-0.1-0.7-0.3-1.4-0.5-2.1c-1.2-4.1-2.4-8.3-3.6-12.3c-1.2-3.8-2.3-7.5-3.5-11.3
			c-0.3-1.2-0.7-2.4-1.1-3.5c-1.2-3.8-2.4-7.5-3.7-11.3c-1.4-4.3-2.9-8.5-4.5-12.7c-1.4-3.8-2.8-7.6-4.3-11.4
			c-0.2-0.6-0.4-1.3-0.7-1.9c-1.5-3.9-3-7.7-4.6-11.5c-1.6-4.1-3.3-8.1-5.1-12.1c-3.4-8-7-15.9-10.7-23.6s-7.5-15.3-11.5-22.7
			c-2-3.7-4-7.3-5.9-10.9c-2.1-3.6-4.1-7.2-6.2-10.7c-1.7-3-3.5-5.9-5.3-8.8c-0.4-0.7-0.9-1.5-1.3-2.3c-2.1-3.2-4.1-6.5-6.2-9.6
			c-2.1-3.3-4.4-6.7-6.6-9.9c-2.3-3.3-4.6-6.5-6.8-9.6c-0.3-0.3-0.5-0.7-0.7-1c-4.4-6-8.8-11.8-13.3-17.5c-2-2.4-3.9-4.8-5.9-7.2
			c-2.8-3.4-5.7-6.7-8.6-10c-2.4-2.7-4.9-5.5-7.3-8.2c-2.5-2.7-5-5.3-7.5-7.9c-2.5-2.5-4.9-4.9-7.4-7.4c0,0-0.1-0.1-0.3-0.2
			c-2.5-2.5-5.1-4.9-7.7-7.2c-2.3-2.1-4.6-4.2-6.9-6.1c-2.9-2.5-5.9-5-8.9-7.4l0,0c-0.6-0.4-1.2-0.9-1.7-1.3
			C1599.5,119.9,1598.9,119.4,1598.4,119z"/>
		
			<linearGradient id="SVGID_3_" gradientUnits="userSpaceOnUse" x1="1142.4001" y1="1712.8" x2="1567.7997" y2="1712.8" gradientTransform="matrix(1 0 0 -1 0 2000)">
			<stop  offset="0" style="stop-color:#10122E"/>
			<stop  offset="1" style="stop-color:#A5A8CA"/>
		</linearGradient>
		<path class="st2" d="M1152.8,507.8c-2.5-12.3-4.6-24.8-6.1-37.7c-0.2-1.8-0.5-3.7-0.7-5.5c-0.1-1.4-0.3-2.7-0.4-4.2
			c-0.4-3.6-0.8-7.3-1.1-11c-1.4-15.9-2.1-32.2-2.1-48.7c0-3.9,0-7.7,0.1-11.6c0.1-1.2,0.1-2.3,0.1-3.5c0-2.3,0.1-4.6,0.2-6.8
			c0.1-3.3,0.2-6.6,0.5-9.8c0.1-2.3,0.2-4.6,0.4-6.8c0.1-0.6,0.1-1.2,0.1-1.7c0.2-3.3,0.5-6.6,0.8-9.7c0.4-4.4,0.8-8.7,1.3-13
			c0.1-1.4,0.3-2.9,0.5-4.3c0.4-3.5,0.8-7.1,1.4-10.5c0-0.1,0-0.2,0-0.4c0.6-4,1.2-8,1.9-12c0.5-3,1-6,1.6-9
			c0.2-1.3,0.4-2.5,0.7-3.7c0.1-0.9,0.3-1.9,0.5-2.8c0.5-2.7,1.1-5.4,1.6-8c0.1-0.6,0.3-1.2,0.4-1.8c0.8-3.6,1.6-7.2,2.4-10.8
			c0-0.2,0.1-0.3,0.1-0.5c0.8-3.5,1.7-6.9,2.6-10.3c1.2-4.3,2.4-8.6,3.6-12.9c1-3.5,2.2-7.1,3.3-10.5c1.2-3.7,2.4-7.3,3.7-11
			c1.3-3.6,2.6-7.2,4-10.7c1.3-3.6,2.7-7.1,4.1-10.5c0.7-1.7,1.4-3.4,2.2-5.1c0.7-1.7,1.5-3.4,2.2-5c0.8-1.7,1.5-3.3,2.3-5
			c0.7-1.7,1.6-3.3,2.3-4.9c0.8-1.6,1.6-3.3,2.4-4.8c0.8-1.7,1.7-3.4,2.5-5.1c0.8-1.5,1.6-2.9,2.3-4.4c0.8-1.6,1.7-3.1,2.5-4.7
			c0.9-1.5,1.7-3,2.5-4.6c0.9-1.5,1.8-3,2.6-4.5c1.8-2.9,3.5-5.9,5.4-8.8c0.9-1.4,1.9-2.8,2.8-4.3c6.5-9.8,13.4-19,20.7-27.4
			c0.7-0.8,1.4-1.7,2.2-2.5c2.4-2.8,5-5.5,7.6-8.2c1.3-1.3,2.5-2.6,3.9-3.9c4.4-4.4,9-8.5,13.6-12.3c1.5-1.3,3-2.5,4.5-3.7
			c1.6-1.2,3.2-2.4,4.7-3.6c2.2-1.6,4.4-3.1,6.6-4.6c5.9-3.9,11.8-7.3,17.9-10.4c-0.1,0-0.1,0-0.1,0c19.9-10,41.1-15.5,63.1-15.5
			s43.2,5.4,63.2,15.5c0,0-0.1,0-0.2,0c6.3,3.1,12.3,6.7,18.4,10.7c0.1,0.1,0.3,0.2,0.5,0.3c1.5,1,3,2.1,4.6,3.2
			c0.4,0.2,0.7,0.5,1.1,0.8c1.6,1.2,3.2,2.4,4.8,3.6c0.1,0,0.1,0.1,0.2,0.2c1.4,1.1,2.9,2.3,4.3,3.5c2.3,1.9,4.6,3.9,6.9,6
			c1.1,1,2.3,2.1,3.4,3.1s2.2,2.2,3.3,3.2c1.3,1.3,2.6,2.6,3.9,3.9c2.6,2.7,5.1,5.4,7.6,8.2c0.7,0.8,1.4,1.7,2.2,2.5
			c1.8,2.1,3.5,4.1,5.2,6.3c1.1,1.4,2.3,2.9,3.4,4.4c0.8,1,1.6,2.1,2.4,3.1c1.6,2.1,3.1,4.2,4.7,6.4c1.6,2.3,3.2,4.7,4.7,7
			c0.1,0.1,0.1,0.1,0.2,0.2c0.9,1.4,1.9,2.8,2.8,4.3c1.9,2.9,3.6,5.8,5.4,8.8c0.9,1.5,1.8,3,2.6,4.5c0.7,1.2,1.3,2.3,2,3.5
			c0.2,0.3,0.4,0.7,0.6,1.1c0.3,0.5,0.5,1,0.8,1.6c0.5,1,1.1,2.1,1.7,3.1c0.6,1.2,1.3,2.4,1.9,3.5c0.1,0.3,0.3,0.6,0.4,0.9
			c0.9,1.7,1.7,3.4,2.6,5.1c0.8,1.6,1.6,3.2,2.3,4.8c0.8,1.6,1.6,3.3,2.3,4.9c0.4,0.8,0.8,1.7,1.2,2.5c0.3,0.8,0.7,1.7,1.1,2.5
			c0.7,1.7,1.5,3.3,2.2,5s1.5,3.4,2.2,5.1c1.4,3.4,2.8,6.9,4.2,10.5c0.6,1.7,1.3,3.5,2,5.3s1.3,3.6,2,5.4c0.9,2.4,1.7,4.9,2.5,7.4
			c0.5,1.6,1.1,3.3,1.6,4.9c0,0.1,0,0.1,0.1,0.2c0.9,3,1.9,6,2.7,9c1.3,4.3,2.5,8.6,3.6,12.9c0.9,3.4,1.8,6.8,2.6,10.3
			c0.1,0.2,0.1,0.3,0.1,0.5c0.4,1.8,0.8,3.6,1.3,5.4c0.4,1.8,0.8,3.6,1.2,5.4c0.1,0.6,0.3,1.2,0.4,1.8c0.5,2.6,1.1,5.3,1.6,8
			c0.2,0.9,0.4,1.9,0.5,2.8c0.2,1.2,0.5,2.4,0.7,3.7c0.6,3,1.1,6,1.6,9c0.6,4,1.3,8,1.9,12c0,0.1,0,0.2,0,0.4
			c0.5,3.5,0.9,7,1.3,10.5c0.2,1.4,0.4,2.9,0.5,4.3c0.5,4.3,0.9,8.6,1.3,13c0.3,3.2,0.5,6.5,0.8,9.7c0,0.5,0.1,1.1,0.1,1.7
			c0.1,1.5,0.2,3,0.3,4.6c0,0.7,0.1,1.5,0.1,2.3c0,1.1,0.1,2.2,0.2,3.2c0.1,2.2,0.2,4.4,0.3,6.6c0.1,2.3,0.2,4.6,0.2,6.8
			c0,1.2,0,2.3,0.1,3.5c0,3.8,0.1,7.7,0.1,11.6c0,16.5-0.7,32.8-2.1,48.7c-0.3,3.7-0.7,7.3-1.1,11c-0.1,1.4-0.2,2.8-0.4,4.2
			c-0.2,1.9-0.4,3.7-0.7,5.5c-1.2,9.6-2.6,19.1-4.3,28.5c-0.6,3.1-1.2,6.2-1.8,9.3c-0.1,0.6-0.2,1.2-0.3,1.8c0,0.1,0,0.2-0.1,0.4
			c-0.8,3.5-1.6,5-2.6,9.4c-53.7-35.6-123.5-53-199.4-53s-149,11.6-202.8,47h-0.1C1152.1,511.5,1153.2,509.7,1152.8,507.8z"/>
		
			<linearGradient id="SVGID_4_" gradientUnits="userSpaceOnUse" x1="915.6147" y1="1646.9292" x2="1292.2999" y2="1646.9292" gradientTransform="matrix(1 0 0 -1 0 2000)">
			<stop  offset="0" style="stop-color:#D7D7D7"/>
			<stop  offset="7.259130e-02" style="stop-color:#DBDBDB"/>
			<stop  offset="0.6449" style="stop-color:#F2F2F2"/>
			<stop  offset="1" style="stop-color:#FBFBFB"/>
		</linearGradient>
		<path class="st3" d="M1152.4,513.4c-103.1,0-200.5,56-235,127.2c-0.5-6.7-0.9-13.3-1.2-20.1c-0.2-5.4-0.3-10.8-0.5-16.4
			c-0.7-43.6,2.9-89.3,11.1-135.9c1-5.6,2-11.1,3.1-16.5c0.7-3.3,1.3-6.5,2-9.6c2-9.1,4-18.1,6.3-26.9c0.5-2.1,1.1-4.2,1.7-6.3
			c0.7-2.8,1.5-5.7,2.3-8.6c0.1-0.7,0.3-1.4,0.5-2.1c1.2-4.1,2.4-8.3,3.6-12.3c1.2-3.8,2.3-7.5,3.5-11.3c0.3-1.2,0.7-2.4,1.1-3.5
			c1.2-3.8,2.4-7.5,3.7-11.3c1.4-4.3,2.9-8.5,4.5-12.7c1.4-3.8,2.8-7.6,4.3-11.4c0.2-0.6,0.5-1.3,0.7-1.9c1.5-3.9,3-7.7,4.6-11.5
			c1.6-4.1,3.4-8.1,5.1-12.1c3.4-8,7-15.9,10.7-23.6s7.5-15.3,11.6-22.7c1.9-3.7,3.9-7.3,5.9-10.9s4.1-7.2,6.2-10.7
			c1.7-3,3.5-5.9,5.3-8.8c0.4-0.7,0.9-1.5,1.4-2.3c2-3.2,4-6.5,6.1-9.6c2.2-3.3,4.4-6.7,6.6-9.9c2.3-3.3,4.5-6.5,6.8-9.6
			c0.2-0.3,0.5-0.7,0.7-1c4.3-6,8.7-11.8,13.2-17.5c2-2.4,4-4.8,5.9-7.2c2.8-3.4,5.7-6.7,8.6-10c2.4-2.7,4.9-5.5,7.3-8.2
			c2.5-2.7,5-5.3,7.6-7.9c2.4-2.5,4.9-4.9,7.3-7.4c0.1,0,0.2-0.1,0.3-0.2c2.5-2.5,5.1-4.9,7.7-7.2c2.3-2.1,4.6-4.2,6.9-6.1
			c2.9-2.5,5.9-5,8.9-7.4h0.1c0.6-0.4,1.2-0.9,1.7-1.3c0.6-0.5,1.2-0.9,1.8-1.4c-0.1,0-0.1,0-0.1,0c53.1-41.7,112-61.3,170-51.1
			c3.4,0.6,6.7,1.4,10,2.1c-6.1,3-12,6.5-17.8,10.4c-2.2,1.5-4.4,3-6.6,4.6c-1.6,1.2-3.2,2.4-4.7,3.6s-3,2.4-4.5,3.7
			c-4.7,3.8-9.2,7.9-13.6,12.3c-1.3,1.3-2.6,2.6-3.9,3.9c-2.6,2.7-5.1,5.4-7.6,8.2c-0.7,0.8-1.4,1.7-2.2,2.5
			c-7.3,8.4-14.2,17.6-20.7,27.4c-0.9,1.4-1.9,2.8-2.8,4.3c-1.9,2.9-3.6,5.8-5.4,8.8c-0.9,1.5-1.8,3-2.6,4.5c-0.8,1.5-1.7,3-2.5,4.6
			c-0.8,1.5-1.7,3.1-2.5,4.7c-0.8,1.5-1.5,2.9-2.3,4.4c-0.8,1.7-1.7,3.4-2.5,5.1c-0.8,1.6-1.6,3.2-2.4,4.8c-0.7,1.6-1.6,3.3-2.3,4.9
			c-0.8,1.7-1.5,3.3-2.3,5c-0.7,1.7-1.5,3.3-2.2,5s-1.5,3.4-2.2,5.1c-1.4,3.4-2.8,6.9-4.1,10.5c-1.4,3.5-2.7,7.1-4,10.7
			c-1.3,3.6-2.5,7.3-3.7,11c-1.1,3.5-2.3,7-3.3,10.5c-1.3,4.3-2.4,8.6-3.6,12.9c-0.9,3.4-1.8,6.8-2.6,10.3c0,0.2,0,0.3-0.1,0.5
			c-0.9,3.6-1.7,7.2-2.4,10.8c-0.1,0.6-0.3,1.2-0.4,1.8c-0.5,2.6-1.1,5.3-1.6,8c-0.2,0.9-0.4,1.9-0.5,2.8c-0.2,1.2-0.5,2.4-0.7,3.7
			c-0.6,3-1.1,6-1.6,9c-0.6,4-1.3,8-1.9,12c0,0.1,0,0.2,0,0.4c-0.5,3.5-1,7-1.4,10.5c-0.2,1.4-0.4,2.9-0.5,4.3
			c-0.5,4.3-0.9,8.6-1.3,13c-0.3,3.2-0.5,6.5-0.8,9.7c0,0.5,0,1.1-0.1,1.7c-0.1,2.3-0.3,4.5-0.4,6.8c-0.2,3.3-0.4,6.6-0.5,9.8
			c-0.1,2.3-0.2,4.6-0.2,6.8c0,1.2,0,2.3-0.1,3.5c0,3.8-0.1,7.7-0.1,11.6c0,16.5,0.7,32.8,2.1,48.7c0.3,3.7,0.7,7.3,1.1,11
			c0.1,1.4,0.3,2.8,0.4,4.2c0.2,1.9,0.4,3.7,0.7,5.5c1.6,12.9,3.6,25.4,6.1,37.7C1153.2,509.7,1152.1,511.5,1152.4,513.4
			c0-0.2,0-0.3,0-0.4v-0.1c0-0.1,0-0.1-0.1-0.2c0,0.1,0.1,0.2,0.1,0.4V513.4c-0.3,0-0.6,0-0.9,0
			C1151.7,513.4,1152,513.4,1152.4,513.4z"/>
		
			<linearGradient id="SVGID_5_" gradientUnits="userSpaceOnUse" x1="762.6394" y1="1578.1" x2="1112.2001" y2="1578.1" gradientTransform="matrix(1 0 0 -1 0 2000)">
			<stop  offset="0" style="stop-color:#10122E"/>
			<stop  offset="1" style="stop-color:#A5A8CA"/>
		</linearGradient>
		<path class="st4" d="M916.2,620.5c0.3,6.8,0.7,13.4,1.2,20.1c-5.1-0.5-10.3-0.7-15.6-0.7c-65.7,0-120.5,36.5-133.1,84.9
			c-14-84.7-4.1-187.1,33.4-290c65-178.4,192.3-302.6,310.1-315.8c-0.5,0.4-1.1,0.9-1.7,1.4c-0.5,0.4-1.1,0.9-1.7,1.3h-0.1
			c-3,2.4-5.9,4.9-8.9,7.4c-2.3,2-4.6,4-6.9,6.1c-2.6,2.4-5.2,4.7-7.7,7.2c-0.1,0.1-0.2,0.2-0.3,0.2c-2.4,2.4-4.9,4.8-7.3,7.4
			c-2.5,2.5-5,5.2-7.6,7.9c-2.4,2.7-5,5.4-7.3,8.2c-2.9,3.3-5.8,6.6-8.6,10c-1.9,2.4-3.9,4.8-5.9,7.2c-4.5,5.7-8.9,11.5-13.2,17.5
			c-0.2,0.3-0.5,0.7-0.7,1c-2.3,3.1-4.5,6.4-6.8,9.6c-2.2,3.2-4.5,6.6-6.6,9.9c-2.1,3.1-4.1,6.4-6.1,9.6c-0.5,0.8-1,1.5-1.4,2.3
			c-1.8,2.9-3.6,5.8-5.3,8.8c-2.1,3.5-4.2,7.1-6.2,10.7s-4,7.2-5.9,10.9c-4,7.4-7.8,15-11.6,22.7c-3.7,7.7-7.3,15.6-10.7,23.6
			c-1.7,4-3.5,8-5.1,12.1c-1.6,3.8-3.1,7.6-4.6,11.5c-0.2,0.6-0.5,1.3-0.7,1.9c-1.4,3.8-2.8,7.6-4.3,11.4c-1.5,4.2-3,8.5-4.5,12.7
			c-1.3,3.8-2.5,7.5-3.7,11.3c-0.4,1.1-0.8,2.4-1.1,3.5c-1.2,3.8-2.3,7.5-3.5,11.3c-1.2,4.1-2.4,8.2-3.6,12.3
			c-0.2,0.7-0.4,1.4-0.5,2.1c-0.8,2.8-1.6,5.7-2.3,8.6c-0.6,2.1-1.1,4.2-1.7,6.3c-2.3,8.9-4.3,17.8-6.3,26.9c-0.7,3.2-1.3,6.4-2,9.6
			c-1.1,5.4-2.1,10.9-3.1,16.5c-8.2,46.6-11.8,92.2-11.1,135.9C915.9,609.7,916,615.1,916.2,620.5z"/>
		
			<linearGradient id="SVGID_6_" gradientUnits="userSpaceOnUse" x1="768.7001" y1="1298.4" x2="951.4" y2="1298.4" gradientTransform="matrix(1 0 0 -1 0 2000)">
			<stop  offset="0" style="stop-color:#4B4C5E"/>
			<stop  offset="1" style="stop-color:#10122E"/>
		</linearGradient>
		<path class="st5" d="M951.4,593.5c-14.3,14.5-25.9,30.3-34,47c-5.1-0.5-10.3-0.7-15.6-0.7c-65.7,0-120.5,36.5-133.1,84.9
			c12.5,48.5,67.3,85,133.1,85c5,0,9.9-0.3,14.8-0.7C915.7,788.2,914.7,701.8,951.4,593.5z"/>
		
			<linearGradient id="SVGID_7_" gradientUnits="userSpaceOnUse" x1="1758.9" y1="1298.9" x2="1942" y2="1298.9" gradientTransform="matrix(1 0 0 -1 0 2000)">
			<stop  offset="0" style="stop-color:#4B4C5E"/>
			<stop  offset="1" style="stop-color:#10122E"/>
		</linearGradient>
		<path class="st6" d="M1808.8,639.8c-5.3,0-10.5,0.2-15.6,0.7c-8.4-17.4-20.1-33.5-34.3-48c37,108.7,36.1,195.5,35.2,216.5
			c4.9,0.4,9.8,0.7,14.8,0.7c65.7,0,120.5-36.5,133.1-85C1929.3,676.3,1874.5,639.8,1808.8,639.8z"/>
		
			<linearGradient id="SVGID_8_" gradientUnits="userSpaceOnUse" x1="1136.0719" y1="1275.2999" x2="1574.5221" y2="1275.2999" gradientTransform="matrix(1 0 0 -1 0 2000)">
			<stop  offset="0" style="stop-color:#A5A8CA"/>
			<stop  offset="1" style="stop-color:#10122E"/>
		</linearGradient>
		<path class="st7" d="M1527.8,503.7c-49.3-25-108.7-37.4-172.5-37.4c-61.2,0-120.5,7.5-169.4,29c-74.2,197.9-48.2,370-31.2,442.1
			c53.5,34.4,125.7,45.7,200.6,45.7c75.9,0,145.7-17.5,199.4-53c0.9,0,1.9,0,2.8,0.1C1574.2,855.5,1595.9,691.8,1527.8,503.7z"/>
		
			<linearGradient id="SVGID_9_" gradientUnits="userSpaceOnUse" x1="1742.0597" y1="1143.1234" x2="1457.9768" y2="1466.3904" gradientTransform="matrix(1 0 0 -1 0 2000)">
			<stop  offset="0.1989" style="stop-color:#B4B4B4"/>
			<stop  offset="0.3404" style="stop-color:#AFAFAF"/>
			<stop  offset="0.5111" style="stop-color:#A0A0A0"/>
			<stop  offset="0.6968" style="stop-color:#888888"/>
			<stop  offset="0.892" style="stop-color:#666666"/>
			<stop  offset="1" style="stop-color:#505050"/>
		</linearGradient>
		<path class="st8" d="M1758.9,592.6c-44.1-44.7-113.3-73.5-191.2-73.5c-4.2,0-8.8,0-12.9,0.2c-8.6-5.7-17.6-10.8-27-15.6
			c68.1,188.1,46.5,351.7,29.7,426.6c3.4,0.1,6.9,0.2,10.2,0.2c103.1,0,191-50.3,225.5-121.5c0.3,0,0.6,0,0.9,0.1
			C1794.9,788.2,1795.9,701.3,1758.9,592.6z"/>
		
			<linearGradient id="SVGID_10_" gradientUnits="userSpaceOnUse" x1="842.3329" y1="976.5576" x2="1366.4104" y2="1618.1862" gradientTransform="matrix(1 0 0 -1 0 2000)">
			<stop  offset="0.1989" style="stop-color:#B4B4B4"/>
			<stop  offset="0.3404" style="stop-color:#AFAFAF"/>
			<stop  offset="0.5111" style="stop-color:#A0A0A0"/>
			<stop  offset="0.6968" style="stop-color:#888888"/>
			<stop  offset="0.892" style="stop-color:#666666"/>
			<stop  offset="1" style="stop-color:#505050"/>
		</linearGradient>
		<path class="st9" d="M1185.9,495.4c-11.8,5.2-22.9,11.1-33.4,18c1,0,2,0,0,0c0,0.1,0,0.2,0,0.3c0,0,0-0.1-0.1-0.3
			c-78.9,0-154.4,32.8-201,80.1c-36.7,108.3-35.7,194.7-34.8,215.5c0.3,0,0.6,0,0.9-0.1C952,880,1049.4,936,1152.5,936
			c0,0,0-0.1,0-0.2v-0.1c0-0.1,0-0.1,0-0.1c0-0.1,0-0.1,0-0.1c0.1-0.3,0.1-0.4,0.1-0.4s0,0.1-0.1,0.4c0,0,0,0.1,0,0.2
			c0,0.1,0,0.2,0,0.3c2,0,1.1,0,0.1,0c0.7,0.5,1.4,0.9,2.2,1.3C1137.6,865.3,1111.7,693.2,1185.9,495.4z M1152.6,514
			c0.1,0.1,0.1,0.2,0.1,0.3C1152.6,514.2,1152.6,514.1,1152.6,514s0-0.1,0-0.2C1152.6,513.9,1152.6,514,1152.6,514z"/>
	</g>
	<path class="st10" d="M1793.2,650.4c-5.4,0-9.8-4.4-9.8-9.8c0-5.4,4.4-9.8,9.8-9.8s9.8,4.4,9.8,9.8S1798.6,650.4,1793.2,650.4z
		 M1793.2,635.7c-2.7,0-4.9,2.2-4.9,4.9s2.2,4.9,4.9,4.9c2.7,0,4.9-2.2,4.9-4.9S1795.9,635.7,1793.2,635.7z"/>
	<path class="st10" d="M1554.7,529.1c-5.4,0-9.8-4.4-9.8-9.8c0-5.4,4.4-9.8,9.8-9.8s9.8,4.4,9.8,9.8
		C1564.5,524.7,1560.1,529.1,1554.7,529.1z M1554.7,514.4c-2.7,0-4.9,2.2-4.9,4.9s2.2,4.9,4.9,4.9c2.7,0,4.9-2.2,4.9-4.9
		C1559.6,516.6,1557.4,514.4,1554.7,514.4z"/>
	<path class="st10" d="M1152.5,523.2c-5.4,0-9.8-4.4-9.8-9.8c0-5.4,4.4-9.8,9.8-9.8s9.8,4.4,9.8,9.8
		C1162.3,518.8,1157.9,523.2,1152.5,523.2z M1152.5,508.5c-2.7,0-4.9,2.2-4.9,4.9s2.2,4.9,4.9,4.9c2.7,0,4.9-2.2,4.9-4.9
		S1155.2,508.5,1152.5,508.5z"/>
	<path class="st10" d="M917.4,650.4c-5.4,0-9.8-4.4-9.8-9.8c0-5.4,4.4-9.8,9.8-9.8c5.4,0,9.8,4.4,9.8,9.8S922.8,650.4,917.4,650.4z
		 M917.4,635.7c-2.7,0-4.9,2.2-4.9,4.9s2.2,4.9,4.9,4.9s4.9-2.2,4.9-4.9C922.3,637.9,920.1,635.7,917.4,635.7z"/>
	<path class="st10" d="M916.5,818.9c-5.4,0-9.8-4.4-9.8-9.8c0-5.4,4.4-9.8,9.8-9.8c5.4,0,9.8,4.4,9.8,9.8S921.9,818.9,916.5,818.9z
		 M916.5,804.2c-2.7,0-4.9,2.2-4.9,4.9s2.2,4.9,4.9,4.9s4.9-2.2,4.9-4.9S919.2,804.2,916.5,804.2z"/>
	<path class="st10" d="M1152.5,945.7c-5.4,0-9.8-4.4-9.8-9.8c0-5.4,4.4-9.8,9.8-9.8s9.8,4.4,9.8,9.8S1157.9,945.7,1152.5,945.7z
		 M1152.5,931c-2.7,0-4.9,2.2-4.9,4.9s2.2,4.9,4.9,4.9c2.7,0,4.9-2.2,4.9-4.9S1155.2,931,1152.5,931z"/>
	<path class="st10" d="M1557.5,940.3c-5.4,0-9.8-4.4-9.8-9.8c0-5.4,4.4-9.8,9.8-9.8s9.8,4.4,9.8,9.8
		C1567.3,935.9,1562.9,940.3,1557.5,940.3z M1557.5,925.6c-2.7,0-4.9,2.2-4.9,4.9s2.2,4.9,4.9,4.9c2.7,0,4.9-2.2,4.9-4.9
		S1560.2,925.6,1557.5,925.6z"/>
	<path class="st10" d="M1794,818.9c-5.4,0-9.8-4.4-9.8-9.8c0-5.4,4.4-9.8,9.8-9.8s9.8,4.4,9.8,9.8S1799.4,818.9,1794,818.9z
		 M1794,804.2c-2.7,0-4.9,2.2-4.9,4.9s2.2,4.9,4.9,4.9c2.7,0,4.9-2.2,4.9-4.9S1796.7,804.2,1794,804.2z"/>
	
		<linearGradient id="SVGID_11_" gradientUnits="userSpaceOnUse" x1="1575.75" y1="561.2" x2="1575.75" y2="1361.8756" gradientTransform="matrix(1 0 0 -1 0 2000)">
		<stop  offset="0" style="stop-color:#808080"/>
		<stop  offset="1" style="stop-color:#CCCCCC"/>
	</linearGradient>
	<path class="st11" d="M1358.4,1438.8c-0.4,0-0.8-0.1-1.2-0.3c-1.2-0.6-1.6-2.1-1-3.3L1791,639.4c0.7-1.2,2.1-1.6,3.3-1
		c1.2,0.7,1.6,2.1,1,3.3l-434.8,795.8C1360.1,1438.3,1359.3,1438.8,1358.4,1438.8z"/>
	
		<linearGradient id="SVGID_12_" gradientUnits="userSpaceOnUse" x1="1137.9501" y1="561.2" x2="1137.9501" y2="1361.9199" gradientTransform="matrix(1 0 0 -1 0 2000)">
		<stop  offset="0" style="stop-color:#808080"/>
		<stop  offset="1" style="stop-color:#CCCCCC"/>
	</linearGradient>
	<path class="st12" d="M1358.4,1438.8c-0.9,0-1.7-0.5-2.1-1.3l-441-795.8c-0.7-1.2-0.2-2.7,1-3.3c1.2-0.7,2.7-0.2,3.3,1l441,795.8
		c0.7,1.2,0.2,2.7-1,3.3C1359.2,1438.7,1358.8,1438.8,1358.4,1438.8z"/>
	
		<linearGradient id="SVGID_13_" gradientUnits="userSpaceOnUse" x1="1456.55" y1="561.2" x2="1456.55" y2="1482.1578" gradientTransform="matrix(1 0 0 -1 0 2000)">
		<stop  offset="0" style="stop-color:#808080"/>
		<stop  offset="1" style="stop-color:#CCCCCC"/>
	</linearGradient>
	<path class="st13" d="M1358.4,1438.8c-0.2,0-0.3,0-0.5-0.1c-1.3-0.3-2.2-1.6-1.9-2.9l196.3-916c0.3-1.3,1.6-2.2,2.9-1.9
		s2.2,1.6,1.9,2.9l-196.3,916C1360.5,1438,1359.5,1438.8,1358.4,1438.8z"/>
	
		<linearGradient id="SVGID_14_" gradientUnits="userSpaceOnUse" x1="1255.4501" y1="561.2" x2="1255.4501" y2="1489.0626" gradientTransform="matrix(1 0 0 -1 0 2000)">
		<stop  offset="0" style="stop-color:#808080"/>
		<stop  offset="1" style="stop-color:#CCCCCC"/>
	</linearGradient>
	<path class="st14" d="M1358.4,1438.8c-1.1,0-2.1-0.8-2.4-1.9l-205.9-923c-0.3-1.3,0.5-2.6,1.9-2.9c1.3-0.3,2.6,0.5,2.9,1.9
		l205.9,923c0.3,1.3-0.5,2.6-1.9,2.9C1358.7,1438.8,1358.6,1438.8,1358.4,1438.8z"/>
	
		<linearGradient id="SVGID_15_" gradientUnits="userSpaceOnUse" x1="1576.2" y1="561.2" x2="1576.2" y2="1193.3519" gradientTransform="matrix(1 0 0 -1 0 2000)">
		<stop  offset="0" style="stop-color:#808080"/>
		<stop  offset="1" style="stop-color:#CCCCCC"/>
	</linearGradient>
	<path class="st15" d="M1358.4,1438.8c-0.5,0-1-0.1-1.4-0.4c-1.1-0.8-1.4-2.3-0.6-3.4L1792,807.7c0.8-1.1,2.3-1.4,3.4-0.6
		c1.1,0.8,1.4,2.3,0.6,3.4l-435.6,627.3C1359.9,1438.4,1359.2,1438.8,1358.4,1438.8z"/>
	
		<linearGradient id="SVGID_16_" gradientUnits="userSpaceOnUse" x1="1457.95" y1="561.2" x2="1457.95" y2="1072.1753" gradientTransform="matrix(1 0 0 -1 0 2000)">
		<stop  offset="0" style="stop-color:#808080"/>
		<stop  offset="1" style="stop-color:#CCCCCC"/>
	</linearGradient>
	<path class="st16" d="M1358.4,1438.8c-0.3,0-0.6-0.1-0.9-0.2c-1.3-0.5-1.9-1.9-1.4-3.2l199.1-506c0.5-1.3,1.9-1.9,3.2-1.4
		c1.3,0.5,1.9,1.9,1.4,3.2l-199.1,506C1360.3,1438.2,1359.4,1438.8,1358.4,1438.8z"/>
	
		<linearGradient id="SVGID_17_" gradientUnits="userSpaceOnUse" x1="1255.4" y1="561.2" x2="1255.4" y2="1066.6768" gradientTransform="matrix(1 0 0 -1 0 2000)">
		<stop  offset="0" style="stop-color:#808080"/>
		<stop  offset="1" style="stop-color:#CCCCCC"/>
	</linearGradient>
	<path class="st17" d="M1358.4,1438.8c-1,0-1.9-0.6-2.3-1.5l-205.9-500.6c-0.5-1.3,0.1-2.7,1.3-3.2c1.3-0.5,2.7,0.1,3.2,1.3
		l205.9,500.6c0.5,1.3-0.1,2.7-1.3,3.2C1359,1438.7,1358.7,1438.8,1358.4,1438.8z"/>
	
		<linearGradient id="SVGID_18_" gradientUnits="userSpaceOnUse" x1="1137.4" y1="561.2" x2="1137.4" y2="1193.3521" gradientTransform="matrix(1 0 0 -1 0 2000)">
		<stop  offset="0" style="stop-color:#808080"/>
		<stop  offset="1" style="stop-color:#CCCCCC"/>
	</linearGradient>
	<path class="st18" d="M1358.4,1438.8c-0.8,0-1.5-0.4-2-1L914.5,810.5c-0.8-1.1-0.5-2.6,0.6-3.4c1.1-0.8,2.6-0.5,3.4,0.6
		l441.8,627.3c0.8,1.1,0.5,2.6-0.6,3.4C1359.4,1438.6,1358.9,1438.8,1358.4,1438.8z"/>
</g>
<radialGradient id="SVGID_19_" cx="1872.5162" cy="503.6716" r="265.7346" gradientTransform="matrix(1.6107 0 0 -0.2375 -1661.762 2056.522)" gradientUnits="userSpaceOnUse">
	<stop  offset="0" style="stop-color:#999999"/>
	<stop  offset="0.1114" style="stop-color:#ABABAB"/>
	<stop  offset="0.371" style="stop-color:#CFCFCF"/>
	<stop  offset="0.6136" style="stop-color:#EAEAEA"/>
	<stop  offset="0.8305" style="stop-color:#F9F9F9"/>
	<stop  offset="1" style="stop-color:#FFFFFF"/>
</radialGradient>
<path class="st19" d="M1782.4,1936.9c0,34.9-191.7,63.1-428.1,63.1s-428.1-28.3-428.1-63.1c0-34.9,191.7-63.1,428.1-63.1
	S1782.4,1902,1782.4,1936.9z"/>
<g>
	<g>
		
			<linearGradient id="SVGID_20_" gradientUnits="userSpaceOnUse" x1="4054.5479" y1="-513.6022" x2="3884.9167" y2="-683.2335" gradientTransform="matrix(-0.9997 -2.450000e-02 -2.450000e-02 0.9997 5466.4746 2255.1687)">
			<stop  offset="0" style="stop-color:#E6CDA8"/>
			<stop  offset="1" style="stop-color:#C9AA7B"/>
		</linearGradient>
		<polygon class="st20" points="1462.7,1336.7 1589.6,1430.9 1586.9,1759.4 1456,1689 		"/>
	</g>
	<g>
		<polygon class="st21" points="1586.9,1759.4 1449.9,1769.1 1449.5,1769.1 1392.3,1773.1 1281.2,1781 1133,1720.6 1310.3,1703.2 
			1329.1,1701.4 1329.1,1701.4 1456,1689 		"/>
	</g>
	<g>
		<polygon class="st22" points="1133,1720.6 1148.3,1382.8 1462.7,1336.7 1456,1689 		"/>
	</g>
	<path class="st23" d="M1456,1689c0,0,8.2,4.3,20.6,10.7c12.3,6.5,28.7,15.2,45.1,24c16.3,8.9,32.6,17.8,44.9,24.5
		c12.2,6.8,20.3,11.3,20.3,11.3s-8.3-4.3-20.6-10.7c-12.3-6.5-28.7-15.3-45.1-24c-16.3-8.9-32.6-17.8-44.9-24.5
		C1464.1,1693.5,1456,1689,1456,1689z"/>
	<path class="st24" d="M1456,1689c0,0,0.3-22,0.7-55c0.5-33,1.3-77.1,2-121.1c0.9-44,1.9-88.1,2.6-121.1c0.8-33,1.4-55,1.4-55
		s-0.3,22-0.7,55c-0.5,33-1.3,77.1-2,121.1c-0.9,44-1.9,88.1-2.6,121.1C1456.6,1667,1456,1689,1456,1689z"/>
	<path class="st24" d="M1456,1689c0,0-20.2,2.1-50.4,5.3c-30.3,3-70.7,7.1-111,11.1c-40.4,3.9-80.8,7.7-111.1,10.6
		c-30.3,2.8-50.5,4.6-50.5,4.6s20.2-2.1,50.4-5.3c30.3-3,70.6-7.1,111-11.1c40.4-3.8,80.8-7.7,111.1-10.6
		C1435.8,1690.8,1456,1689,1456,1689z"/>
	<g>
		<polygon class="st25" points="1260.7,1708.1 1263.4,1366.3 1330.5,1356.5 1329.1,1701.4 		"/>
	</g>
	<polygon class="st26" points="1449.9,1769.1 1449.5,1769.1 1392.3,1773.1 1260.7,1708.1 1310.3,1703.2 1329.1,1701.4 
		1329.1,1701.4 	"/>
</g>
</svg>