<?xml version="1.0" encoding="utf-8"?>
<!-- Generator: Adobe Illustrator 25.2.0, SVG Export Plug-In . SVG Version: 6.00 Build 0)  -->
<svg version="1.1" id="Layer_1" xmlns="http://www.w3.org/2000/svg" xmlns:xlink="http://www.w3.org/1999/xlink" x="0px" y="0px"
	 viewBox="0 0 145 134.5" style="enable-background:new 0 0 145 134.5;" xml:space="preserve">
<style type="text/css">
	.st0{opacity:0.2;fill:#10122E;enable-background:new    ;}
	.st1{opacity:0.2;fill:#A81E34;enable-background:new    ;}
</style>
<path class="st0" d="M110.4,16.4c15.1,7.7,31,17.6,34,30.7c3,13.2-6.9,29.6-16,42.8c-9,13.2-17.3,23.2-27.4,29.3
	c-10.1,6-22.2,8.1-34.8,8.8c-12.5,0.6-25.6-0.1-37.2-5.7c-11.7-5.6-21.9-15.9-26.3-28.4s-2.9-27.2,0.7-42C7,37,12.8,22,23.7,13
	c10.9-9.1,27-12.2,42.1-11C81,3.2,95.3,8.7,110.4,16.4z"/>
<path class="st1" d="M133.2,62.2c1.9,13.6-5,29.1-16.2,42.9s-26.7,26.1-44.8,28.8s-39.1-4-45.4-18c-6.3-13.8,1.9-34.7,2-55.6
	c0-20.9-8.2-41.9-1.9-52C33.2-2,54.1-1.4,70.5,3.2c16.3,4.5,28,13.2,39.2,23.3S131.4,48.6,133.2,62.2z"/>
</svg>