<?xml version="1.0" encoding="utf-8"?>
<!-- Generator: Adobe Illustrator 23.0.5, SVG Export Plug-In . SVG Version: 6.00 Build 0)  -->
<svg version="1.1" id="Layer_1" xmlns="http://www.w3.org/2000/svg" xmlns:xlink="http://www.w3.org/1999/xlink" x="0px" y="0px"
	 viewBox="0 0 171.8 152" style="enable-background:new 0 0 171.8 152;" xml:space="preserve">
<style type="text/css">
	.st0{opacity:0.25;fill:#EE5253;}
</style>
<path class="st0" d="M127.2,19.1c12.3,6.3,22.6,16.9,31.3,29.4s15.8,26.7,12.4,39c-3.5,12.3-17.5,22.6-27.6,32.5
	c-10.2,9.9-16.6,19.5-25.5,25.2c-8.9,5.6-20.3,7.3-31.5,6.8c-11.2-0.4-22.1-3.1-31.8-8.3c-9.6-5.3-17.9-13.1-28.5-22.5
	c-10.6-9.5-23.6-20.6-25.7-32.9C-1.8,76,7,62.5,15.3,49.1c8.4-13.5,16.3-26.8,28-33.5C55,9,70.5,9,85.5,9.9
	C100.4,10.9,114.8,12.8,127.2,19.1z"/>
<path class="st0" d="M75.9,7.7c13.2-4.2,27.9-4,42.9-1.3c15,2.7,30.1,7.7,36.3,18.8c6.2,11.2,3.6,28.4,3.5,42.5
	c-0.2,14.2,2.1,25.5-0.2,35.9c-2.3,10.3-9.2,19.5-17.5,27.1c-8.2,7.6-17.8,13.4-28.4,16.6c-10.5,3-21.9,3.4-36.1,4.2
	c-14.2,0.8-31.3,2.1-41.4-5.1c-10.2-7.2-13.5-23-17.1-38.3c-3.6-15.5-7.4-30.5-3.9-43.5c3.6-12.9,14.6-23.9,25.8-33.9
	C51.1,20.9,62.6,12,75.9,7.7z"/>
</svg>