<?xml version="1.0" encoding="utf-8"?>
<!-- Generator: Adobe Illustrator 25.2.0, SVG Export Plug-In . SVG Version: 6.00 Build 0)  -->
<svg version="1.1" id="Layer_1" xmlns="http://www.w3.org/2000/svg" xmlns:xlink="http://www.w3.org/1999/xlink" x="0px" y="0px"
	 viewBox="0 0 2760.6 2000" style="enable-background:new 0 0 2760.6 2000;" xml:space="preserve">
<style type="text/css">
	.st0{fill:#B8C6F2;}
	.st1{fill:#FFFFFF;}
	.st2{fill:#5E8ADB;}
	.st3{fill:#3A3D96;}
	.st4{fill:#98B0F2;}
	.st5{fill:#FAAF16;}
	.st6{fill:#272A66;}
	.st7{fill:#313480;}
	.st8{fill:#4043A6;}
	.st9{fill:#F37A50;}
	.st10{fill:#DE623C;}
	.st11{fill:#201D40;}
	.st12{fill:#062440;}
	.st13{fill:#2C2858;}
	.st14{fill:#E62552;}
	.st15{fill:#C4204A;}
	.st16{fill:#80BC48;}
	.st17{fill:#17962E;}
	.st18{fill:#DE8914;}
	.st19{fill:#FF9A16;}
	.st20{fill:#FAC352;}
	.st21{fill:#068A1E;}
	.st22{fill:#E3EAFF;}
	.st23{fill:#3F964F;}
	.st24{fill:#0E6A41;}
	.st25{fill:#F9CD2D;}
	.st26{fill:#F9F93A;}
	.st27{fill:#7F99EB;}
</style>
<g>
	<g>
		<path class="st0" d="M2050.4,688.3h-303.6c-30.9,0-56-25.1-56-56V514c0-30.9,25.1-56,56-56h303.6c30.9,0,56,25.1,56,56v118.3
			C2106.4,663.3,2081.3,688.3,2050.4,688.3z"/>
		<path class="st0" d="M2047.5,678v85.7c0,6.9-9.3,9.1-12.4,3l-45.1-88.7H2047.5z"/>
		<path class="st1" d="M2052.2,530h-303.4c-11.7,0-21.1-9.5-21.1-21.1l0,0c0-11.7,9.5-21.1,21.1-21.1h303.4
			c11.7,0,21.1,9.5,21.1,21.1l0,0C2073.3,520.5,2063.9,530,2052.2,530z"/>
		<path class="st1" d="M2052.2,597h-303.4c-11.7,0-21.1-9.5-21.1-21.1v0c0-11.7,9.5-21.1,21.1-21.1h303.4c11.7,0,21.1,9.5,21.1,21.1
			v0C2073.3,587.6,2063.9,597,2052.2,597z"/>
		<path class="st1" d="M2052.2,664h-188.5c-11.7,0-21.1-9.5-21.1-21.1v0c0-11.7,9.5-21.1,21.1-21.1h188.5c11.7,0,21.1,9.5,21.1,21.1
			v0C2073.3,654.6,2063.9,664,2052.2,664z"/>
	</g>
	<g>
		<g>
			<path class="st0" d="M415.1,1522.8c0.1,11.9,0.2,24,0.4,36.3c0,0,4.3,145.1,17.9,167.7c13.6,22.6,2075.7,9.8,2082,7.4
				c31.2-11.6,46.2-189.9,46.2-189.9s6.7-504.8,6.7-577.4c0-101.6-31.8-149.6-120.7-149.6c-50.9,0-1399.9,0-1399.9,0
				c-83.7,0-134.3,7.5-163.6,35.3c-94.3,88.8-389.3,441.2-459.6,521.9c-5.9,6.8-9.2,15.5-9.3,24.5c0,2.7,0,5.7-0.1,9
				C414.9,1432.8,414.7,1475.3,415.1,1522.8z"/>
			<path class="st2" d="M415,1541.6c0,0-1.8,168.1,9.5,184c12.8,13.6,32.4,22.1,53.7,23.3c22.3,3.1,197.7,1.6,197.7,1.6
				s1809.5-13.5,1839.5-16.4c30-2.9,41.9-22.3,42.9-50.1c0-5.9,2.8-98.6,3.3-151.3L415,1541.6z"/>
			<g>
				
					<ellipse transform="matrix(0.7071 -0.7071 0.7071 0.7071 -934.6142 1051.6924)" class="st3" cx="802.2" cy="1654" rx="199.4" ry="199.4"/>
				<circle class="st0" cx="802.2" cy="1654" r="145.4"/>
				<circle class="st4" cx="802.2" cy="1654" r="78.4"/>
			</g>
			<g>
				
					<ellipse transform="matrix(0.7071 -0.7071 0.7071 0.7071 -502.3317 2095.3147)" class="st3" cx="2278.1" cy="1654" rx="199.4" ry="199.4"/>
				<circle class="st0" cx="2278.1" cy="1654" r="145.4"/>
				<circle class="st4" cx="2278.1" cy="1654" r="78.4"/>
			</g>
			<path class="st2" d="M760.2,1236.1h399.9c12.4,0,22.4-10,22.4-22.4V947.9c0-20.3-16.5-36.8-36.8-36.8h-137.9
				c-37,0-71.8,17.6-93.7,47.3l-174.6,236.7C727,1212.1,739.1,1236.1,760.2,1236.1z"/>
			<ellipse class="st4" cx="773.8" cy="1196.8" rx="72.9" ry="57.6"/>
			<path class="st5" d="M415.1,1522.8H436c31.7,0,57.5-25.7,57.5-57.5c0-15.9-6.4-30.2-16.8-40.6c-10.4-10.4-24.8-16.8-40.6-16.8
				h-20.9C414.9,1432.8,414.7,1475.3,415.1,1522.8z"/>
			<path class="st6" d="M1941.8,1577.2h-576.6c-21.5,0-38.8-17.4-38.8-38.8V911.6c0-21.5,17.4-38.8,38.8-38.8h576.6
				c21.5,0,38.8,17.4,38.8,38.8v626.7C1980.6,1559.8,1963.2,1577.2,1941.8,1577.2z"/>
			
				<rect x="1481.7" y="1007.4" transform="matrix(-1 -1.224647e-16 1.224647e-16 -1 3246.1028 2582.9915)" class="st7" width="282.8" height="568.3"/>
			
				<rect x="1593.5" y="1139.2" transform="matrix(-1 -1.224647e-16 1.224647e-16 -1 3468.0339 2714.8521)" class="st3" width="281.1" height="436.4"/>
			
				<rect x="1356.4" y="1262.7" transform="matrix(-1 -1.224647e-16 1.224647e-16 -1 3007.572 2838.3494)" class="st8" width="294.8" height="312.9"/>
			<g>
				<path class="st4" d="M2440.6,1575.6H1864c-21.5,0-38.8-17.4-38.8-38.8V910c0-21.5,17.4-38.8,38.8-38.8h576.6
					c21.5,0,38.8,17.4,38.8,38.8v626.7C2479.4,1558.2,2462.1,1575.6,2440.6,1575.6z"/>
				
					<rect x="1825.1" y="1342.9" transform="matrix(-1 -1.224647e-16 1.224647e-16 -1 4304.5933 2750.8154)" class="st0" width="654.3" height="64.9"/>
				<path class="st2" d="M1950.2,1236.1h418.9c31.4,0,56.9-25.5,56.9-56.9V968c0-31.4-25.5-56.9-56.9-56.9h-418.9
					c-31.4,0-56.9,25.5-56.9,56.9v211.1C1893.3,1210.6,1918.8,1236.1,1950.2,1236.1z"/>
			</g>
		</g>
		<g id="c_5_">
			<g>
				<polygon id="v-2_1_" class="st9" points="2166.5,888.7 2166.5,888.7 2137.3,888.8 2130.7,957.7 2164.8,975.7 2201.1,957.9 
					2195.2,888.8 				"/>
				<g>
					<g>
						<path class="st9" d="M2224.5,839.5c-6.6,50-43.9,86.3-83.1,81.1c-39.3-5.2-65.7-50-59.1-100c6.6-50,43.9-86.3,83.1-81.1
							C2204.7,744.7,2231.2,789.5,2224.5,839.5z"/>
						<path class="st10" d="M2128.7,840.6c-7.2,9.4-16.3,20.9-16.3,20.9s2.6,10.9,16.6,12.4c-5.7-3-11.1-7.5-7.9-15.2
							C2124.2,851,2128.7,840.6,2128.7,840.6z"/>
						<path class="st11" d="M2240.7,799.3c4.3-47.6-39.5-63.3-39.5-63.3s9.8-3.4,7.4-17.9c-6.9,4.3-15.4,6.2-23.5,5.4
							c-54.5-5.4-88.7,3.6-83.3,24.9c1.9,7.6-33.4,11.5-17.7,61.9c3.4-6,6.4-28.3,17-33.2c10.6-4.9,4.3,12.5,28.4,9.8
							c24.3-2.7,40.1-12.8,57.8-3.2c14.1,8.7,31.8,66.7,31,70.7C2220.1,845.3,2238.9,820.2,2240.7,799.3z"/>
						<path class="st11" d="M2082,847.9c0,0,4.6,27.2,10.6,34.4c1.3-11.7,26.9-4.3,38.1-3.4c20.2,1.8,40.7-16.1,47.5,10.4
							c25.7,1.5,35.1-55.1,35.1-55.1c15.8,56.6-12.5,97.8-74.8,103.6C2097.3,941.6,2074.5,889.2,2082,847.9z"/>
						<path d="M2157.8,837.6c3.8,0.3,7.1-2.6,7.4-6.5c0.3-3.8-2.6-7.1-6.5-7.4c-3.8-0.3-7.1,2.6-7.4,6.5
							C2151.1,834,2154,837.4,2157.8,837.6z"/>
						<path d="M2100.5,835.5c3.8,0.3,7.1-2.6,7.4-6.5c0.3-3.8-2.6-7.1-6.5-7.4c-3.8-0.3-7.1,2.6-7.4,6.5
							C2093.8,831.9,2096.7,835.2,2100.5,835.5z"/>
						<g>
							<path class="st11" d="M2089,821c1.2,0.1,2.4-0.4,3.1-1.5c2-2.9,4.2-4.5,6.7-4.9c4.3-0.7,8.3,2.5,8.4,2.5
								c1.5,1.2,3.7,0.9,4.8-0.6c1.2-1.5,0.9-3.6-0.5-4.8c-0.3-0.2-6.3-5-13.6-3.9c-4.5,0.7-8.3,3.3-11.4,7.8
								c-1.1,1.6-0.7,3.7,0.9,4.8C2087.8,820.8,2088.4,821,2089,821z"/>
						</g>
						<g>
							<path class="st11" d="M2173.5,826.5c0.8,0.1,1.5-0.1,2.2-0.6c1.6-1.1,1.9-3.2,0.9-4.8c-4.1-5.9-8.9-9.3-14.2-10.1
								c-6.9-1-11.9,2.9-12.1,3.1c-1.5,1.2-1.7,3.4-0.5,4.8c1.2,1.5,3.3,1.7,4.8,0.6c0.1-0.1,3.1-2.3,6.9-1.7
								c3.3,0.5,6.5,2.9,9.5,7.2C2171.5,826,2172.5,826.5,2173.5,826.5z"/>
						</g>
						<g>
							<path class="st9" d="M2213.8,834.5c-8.6,8.2-10.1,20.5-3.4,27.5c6.7,7,19.1,6.1,27.7-2.1c8.6-8.2,10.1-20.5,3.4-27.5
								C2234.8,825.4,2222.4,826.3,2213.8,834.5z"/>
							<g>
								<path class="st10" d="M2221.6,858.6c-0.4-0.1-0.7-0.4-1-0.7c-4.1-4.4-4.9-9.7-2.3-14.2c2.7-4.6,8.2-7.1,13.2-6
									c1.4,0.3,2.3,1.7,2,3.1c-0.3,1.4-1.7,2.3-3.1,2c-2.7-0.6-6,1-7.5,3.6c-1.4,2.5-0.9,5.4,1.6,8.1c1,1.1,0.9,2.7-0.2,3.7
									C2223.5,858.8,2222.5,859,2221.6,858.6z"/>
							</g>
						</g>
						<path class="st1" d="M2153.1,886.7c0.3-1.8-0.1-3.5-1.9-3.3c-4.6,0.6-12.1,1.4-19.3,1.4c-7.2,0.1-14.8-0.6-19.3-1.1
							c-1.8-0.2-2.2,1.5-1.9,3.3c1.5,7.3,9.8,15.5,20.9,15.4C2142.6,902.4,2152,893.4,2153.1,886.7z"/>
					</g>
				</g>
			</g>
			<path d="M2113.3,1791.5c-25.8,35.6-89.2,13.8-87.1,61.9h136.4c-0.1-11.1-2-37.3-4.3-47.6L2113.3,1791.5z"/>
			<path d="M2257.5,1791.5c-25.8,35.6-89.2,13.8-87.1,61.9h136.4c-0.1-11.1-2-37.3-4.3-47.6L2257.5,1791.5z"/>
			<path class="st12" d="M2068.7,1247c0,0-15.6,228.2-9.3,279c6.4,50.7,28.9,115.8,26.3,283.6c31.4,7.9,76.9,0,76.9,0
				s6.7-189.8-26.5-274.5c13.5-82.3,56.8-270.9,56.8-270.9L2068.7,1247z"/>
			<path class="st13" d="M2128.1,1253.2c0,0,31.6,256.2,47.1,304.8c15.5,48.6,28.9,84.2,56.9,249.5c32.3,1.6,78.9,0.6,78.9,0.6
				s-4.2-204.8-54.5-252.5c-1.7-83.5,8.1-300.8,8.1-300.8L2128.1,1253.2z"/>
			<g id="v_1_">
				<path id="h-5_1_" class="st14" d="M2273.8,962.4c0,0-54.9-19.2-73.2-10.4c-56.9,27.4-69.9,0-69.9,0c-18.2,1.6-73,10.4-73,10.4
					c0,61.3-4.1,122.7-3,169.1c0.8,40.4-6.9,150.2-6.9,150.2s60.5,15.9,117.7,16.3c57.2-0.4,115.5-15.6,115.5-15.6
					s-3.1-111.3-5.6-152.6C2276.3,1083.4,2273.8,1023.5,2273.8,962.4z"/>
			</g>
			<g id="c_13_">
				<path id="c_14_" class="st15" d="M1960.1,1053.4c22.7-54,89.9-88.4,97.6-91l15.6,69.4c-32.3,19.1-55.7,39.8-55.7,39.8
					c4,19.3,3.3,38.3,14.5,62.7c0,0-9.7-13.4-21.7-5.5c-11.6,7.7-33.1-8-33.1-8S1942.8,1094.7,1960.1,1053.4z"/>
			</g>
			<g id="c_6_">
				<g id="c_9_">
					<g id="c_10_">
						<path id="c_12_" class="st16" d="M1972.7,1190c-0.4,0.1-0.8,0.2-1.2,0.2h-1.3c-2.4-0.3-4.5-1.9-5.2-4.3l-60.4-194.7
							c-0.1-0.4-0.2-0.8-0.2-1.2c0-0.3,0-0.5,0-0.8c0-0.2,0-0.3,0-0.5c0-0.1,0.1-0.3,0.1-0.4c0.4-2.2,1.9-4.1,4.2-4.9
							c0.4-0.1,0.8-0.2,1.1-0.2c0.4,0,0.9,0,1.3,0h152l60.9,206.9h-151.5L1972.7,1190z"/>
						<path id="c_11_" class="st17" d="M2061.8,983.6c3.2-1,6.7,0.8,7.7,4l60,194.2l0.1,0.5c1,3.2-0.8,6.6-4,7.7l0,0
							c-3.2,1-6.7-0.8-7.7-4l-60.2-194.7C2056.8,988.1,2058.6,984.6,2061.8,983.6z"/>
					</g>
				</g>
				<path id="c_8_" class="st9" d="M1947,1107.1c-0.6-0.4-1.2-0.6-1.8-0.8c0.1-0.1,0.1-0.2,0.2-0.3c3.8-5.7,3.5-12.5-0.6-15.2
					c-0.7-0.4-1.4-0.7-2.2-0.9c1.1-4.2,0.1-8.3-2.8-10.2c-1.2-0.8-2.5-1.1-3.9-1.1c1.3-4.2,0.3-8.5-3-10.7c-4.1-2.7-10-1-13.3,3.9
					c-3.2,4.9-2.5,11,1.6,13.7c1,0.7,2.2,1.1,3.4,1.2c-2.7,5.3-2.2,11.1,1.5,13.6c0.7,0.4,1.4,0.7,2.2,0.9
					c-1.1,4.2-0.1,8.3,2.8,10.2c1.1,0.7,2.3,1.1,3.6,1.1c-1.4,3.6-0.5,7.5,2.4,9.4c3.5,2.3,8.5,0.8,11.2-3.3
					C1951,1114.6,1950.4,1109.4,1947,1107.1z"/>
				<path class="st9" d="M2133.9,1094.8l-13.9-8c0,0-3.8-19.7-26.1-20.1c2.5,8.2,6.2,20.1,6.2,20.1s-11,8.5-36.9-6
					c-25.4-5.7-14.5,12.8-23,14.1c-12.4,2,9.1,26.4,34.4,30.1c32.8,4.8,36.7-1.9,36.7-1.9l18.6,6.5L2133.9,1094.8z"/>
				<path id="c_7_" class="st15" d="M2275.6,1117.7c-46.3-3.2-138.8-28-138.8-28c-12.6,19.4-9.1,45.2-9.1,45.2
					c71.9,63.1,180.2,83.5,213.4,68.3c30.3-13.9,8.8-198.5-67.4-240.8L2275.6,1117.7z"/>
			</g>
			<path class="st17" d="M2030.8,1013.2c2.6,6.6,9.4,10.1,15.1,7.8c5.7-2.3,8.2-9.4,5.6-16c-2.6-6.6-9.4-10.1-15.1-7.8
				C2030.7,999.4,2028.2,1006.6,2030.8,1013.2z"/>
			<path class="st17" d="M2011.4,1010.9c1.6,3.9,5.6,6,9,4.6c3.4-1.4,4.9-5.6,3.3-9.6c-1.6-3.9-5.6-6-9-4.6
				C2011.3,1002.7,2009.9,1007,2011.4,1010.9z"/>
		</g>
		
			<rect x="1453.3" y="1469.9" transform="matrix(-1 -1.224647e-16 1.224647e-16 -1 3216.0454 3323.3445)" class="st18" width="309.5" height="383.6"/>
		
			<rect x="1699" y="1379" transform="matrix(-1 -1.224647e-16 1.224647e-16 -1 3714.7395 3232.4924)" class="st19" width="316.7" height="474.4"/>
		<g>
			
				<rect x="1572.3" y="1530" transform="matrix(-1 -1.224647e-16 1.224647e-16 -1 3468.0339 3383.4868)" class="st5" width="323.5" height="323.5"/>
			
				<rect x="1614.3" y="1583" transform="matrix(-1 -1.224647e-16 1.224647e-16 -1 3378.7229 3227.5691)" class="st20" width="150.1" height="61.5"/>
			
				<rect x="1797.5" y="1647.5" transform="matrix(-0.8749 -0.4842 0.4842 -0.8749 2617.9111 4036.5928)" class="st19" width="65.5" height="65.5"/>
			<path class="st20" d="M1825.1,1713.3c0,20.8-16.8,37.6-37.6,37.6c-20.8,0-37.6-16.9-37.6-37.6c0-20.8,16.9-37.6,37.6-37.6
				C1808.3,1675.6,1825.1,1692.5,1825.1,1713.3z"/>
		</g>
		<g>
			<g>
				<path class="st17" d="M1263.8,1433.5c20-43.2-30.3-97.6-6.3-138.6c14.9-25.5,54.1-34.8,58.5-64c1.3-8.7-1-17.5-2.3-26.2
					c-4.8-34,8.4-70.1,34-93c25.5-22.9,62.7-32,95.9-23.6l0,0c0,0,0.1,0,0.1,0c0,0,0.1,0,0.1,0l0,0c32.1,12.1,59,41.3,66.9,74.6
					c7.9,33.4-1.8,70.5-25.1,95.7c-6,6.5-12.9,12.3-16.8,20.2c-13.1,26.5,13.8,56.5,11.5,86c-3.7,47.4-76.1,63.4-84.3,110.3
					c-2.2,12.4,0.7,25,1,37.5c1.1,54.8-58.4,101.8-111.5,88.1l-2.7-0.9c-51.4-19-73.5-91.5-41.3-135.9
					C1248.9,1453.6,1258.5,1444.9,1263.8,1433.5z"/>
				<g>
					<path class="st21" d="M1440.4,1090.8l-208.2,640.4c-1.7,5.1,1.1,10.7,6.3,12.3c5.1,1.7,10.7-1.1,12.3-6.3c0-0.1,0-0.2,0.1-0.2
						l194.2-644.8c0.4-1.3-0.3-2.7-1.6-3.1C1442.1,1088.8,1440.8,1089.5,1440.4,1090.8z"/>
					<path class="st21" d="M1422.6,1388.5c-42.6-7.3-77,25.6-97.5,59.3c-4.9,7.6,7.5,14.7,11.5,6.6c14.5-29,36.9-59.5,71.3-63.7
						C1409.8,1389.6,1426.3,1391,1422.6,1388.5z"/>
					<path class="st21" d="M1485.9,1186.6c-42.4-6.8-76.3,26.2-96.3,60c-3.8,5.9,5.9,11.5,9.1,5.2c14.9-29,37.8-59.4,72.6-63.2
						C1473,1187.5,1489.6,1189.1,1485.9,1186.6z"/>
					<path class="st21" d="M1308,1290.2c35.4,20.7,39,65.6,33.8,102.4c-0.9,6.3,9,7.6,9.7,1.2c1.9-34-1.6-74.1-30.4-96.7
						C1319.6,1296.1,1306.6,1286,1308,1290.2z"/>
				</g>
			</g>
			<g>
				<path class="st17" d="M1161,1433.3c-16.6-34.1,22.7-78.1,3-110.5c-12.3-20.1-43.6-26.9-47.5-50.1c-1.2-6.9,0.6-13.9,1.4-20.9
					c3.3-27.2-7.7-55.7-28.4-73.5c-20.7-17.8-50.4-24.5-76.7-17.4l0,0c0,0-0.1,0-0.1,0c0,0-0.1,0-0.1,0l0,0
					c-25.4,10.1-46.4,33.7-52.2,60.4c-5.8,26.7,2.5,56.1,21.4,75.9c4.9,5.1,10.5,9.6,13.7,15.9c10.8,20.9-10.2,45.2-7.9,68.6
					c3.6,37.7,61.5,49.4,68.7,86.6c1.9,9.8-0.2,19.9-0.2,29.9c-0.1,43.6,48,80.2,90.1,68.5l2.2-0.7c40.6-15.9,57.1-74,30.9-108.8
					C1173.1,1449.1,1165.4,1442.2,1161,1433.3z"/>
				<g>
					<path class="st21" d="M1015.3,1163l175.3,506.9c1.4,4.1-0.7,8.5-4.8,9.9c-4.1,1.4-8.5-0.8-9.9-4.8c0,0,0-0.1-0.1-0.2
						l-164.3-510.6c-0.3-1,0.2-2.1,1.3-2.5C1013.8,1161.5,1014.9,1162,1015.3,1163z"/>
					<path class="st21" d="M1033.8,1399.8c24.6-4.6,48.3,8.1,63.9,26.6c4.3,7.5,20.4,17.9,13.2,26.5
						C1093.5,1455.5,1094,1401.9,1033.8,1399.8z"/>
					<path class="st21" d="M980.5,1239.9c33.7-6,61.2,19.7,77.6,46.3c3.1,4.7-4.5,9.3-7.2,4.3c-12.3-22.8-31-46.7-58.7-49.2
						C990.5,1240.4,978,1242.1,980.5,1239.9z"/>
					<path class="st21" d="M1123.6,1319.8c-27.9,17-30.1,52.8-25.4,82c0.8,5-7.1,6.2-7.7,1.1c-2-27,0.2-59,22.8-77.5
						C1114.7,1324.6,1124.4,1316.5,1123.6,1319.8z"/>
				</g>
			</g>
			<g>
				<path class="st21" d="M1140.2,1360.6c6.2-47.2-58.1-84-47.4-130.4c6.6-28.8,41.2-49.4,36.7-78.6c-1.4-8.7-6.2-16.4-10-24.3
					c-14.7-31-13-69.4,4.6-98.9c17.5-29.4,50.2-49.3,84.5-51.2v0c0,0,0.1,0,0.1,0c0,0,0.1,0,0.1,0v0c34.2,1.9,68.6,21.7,86.2,51.2
					c17.6,29.5,19.4,67.8,4.6,98.9c-3.8,8-8.6,15.6-10,24.3c-4.6,29.2,30.1,49.8,36.7,78.6c10.6,46.4-53.7,83.2-47.4,130.4
					c1.6,12.4,8.2,23.6,12.2,35.5c17.4,51.9-25.3,155-80,157.7h-2.8c-54.7-2.7-97.5-105.8-80-157.7
					C1132.1,1384.2,1138.6,1373,1140.2,1360.6z"/>
				<g>
					<path class="st17" d="M1206.4,980.8l-7.3,673.4c-0.1,5.4,4.3,9.8,9.7,9.9c5.4,0.1,9.8-4.3,9.9-9.7c0-0.1,0-0.2,0-0.2
						l-7.3-673.4c0-1.4-1.1-2.4-2.5-2.4C1207.4,978.4,1206.4,979.5,1206.4,980.8z"/>
					<path class="st17" d="M1277.6,1271.9c-31.1,4.3-54.3,28.9-65.5,57.1c-2.1,10.6-17.1,29.4-5.1,36.8
						C1228.2,1363.4,1206.6,1298.3,1277.6,1271.9z"/>
					<path class="st17" d="M1278.4,1058.6c-42.5,6.2-65,47.8-74,86c-1.8,6.8,9.1,9.2,10.2,2.2c5.6-32.1,18.3-68,50.4-82
						C1266.4,1063.3,1282.7,1059.9,1278.4,1058.6z"/>
					<path class="st17" d="M1142.2,1210.6c29.1,6.7,48,32.3,56,59.7c5.3,8.2,2,30.4,12.5,31.9c10.2-5.8-3.8-25.3-5.3-34.5
						C1196.2,1241.5,1168.9,1208.9,1142.2,1210.6z"/>
				</g>
			</g>
			<path id="Vector_23_2_" class="st14" d="M1145.1,1625.5h160.1c12.5,0,22.3,11.3,20.8,24.1l-21.6,184.9c-1.3,10.8-10.2,19-20.8,19
				h-116.9c-10.6,0-19.5-8.1-20.8-19l-21.6-184.9C1122.9,1636.8,1132.6,1625.5,1145.1,1625.5z"/>
			<path class="st15" d="M1113.4,1666.2h218.3c6.7,0,12.2-5.5,12.2-12.2v-19.8c0-6.7-5.5-12.2-12.2-12.2h-218.3
				c-6.7,0-12.2,5.5-12.2,12.2v19.8C1101.3,1660.8,1106.7,1666.2,1113.4,1666.2z"/>
		</g>
	</g>
	<path class="st22" d="M1370,523c-2.4-54.5-47.4-97.9-102.4-97.9c-18.6,0-36,4.9-51.1,13.6c0,0,0,0,0,0c-1.9-26.8-24.2-48-51.5-48
		c-24.5,0-44.9,17-50.3,39.9l0,0c-6.5-1.6-13.3-2.4-20.3-2.4c-36.9,0-68.4,23-80.9,55.5c-7.4-2.9-15.4-4.5-23.8-4.5
		c-20.2,0-38.2,9.2-50,23.7c-6.6,8-0.7,20.1,9.7,20.1H1370z"/>
	<path class="st22" d="M468.2,788.9c0,0.7,0,1.5,0,2.2h333.9c0-0.7,0-1.5,0-2.2c0-32.6-26.4-59.1-59.1-59.1
		c-6.2,0-12.1,0.9-17.7,2.7c-14.5-32.5-47-55.2-84.9-55.2c-39.3,0-72.9,24.4-86.5,58.9c-8.1-4.1-17.2-6.4-26.9-6.4
		C494.7,729.8,468.2,756.2,468.2,788.9z"/>
	<path class="st22" d="M2368.5,715.9c0,0.7,0,1.5,0,2.2h333.9c0-0.7,0-1.5,0-2.2c0-32.6-26.4-59.1-59.1-59.1
		c-6.2,0-12.1,0.9-17.7,2.7c-14.5-32.5-47-55.2-84.9-55.2c-39.3,0-72.9,24.4-86.5,58.9c-8.1-4.1-17.2-6.4-26.9-6.4
		C2394.9,656.9,2368.5,683.3,2368.5,715.9z"/>
	<g>
		<path class="st10" d="M402.8,977.5c41.4,10.3,112,106.9,118.7,179.4c-22.7,4.7-48.6-13.4-48.6-13.4l-56.2-80.8L402.8,977.5z"/>
		<path class="st11" d="M363.3,768.5c-19-31.2-68.7-46.9-86.6-12c-17.9,34.9-22.8,60.2-67.1,40.9c-35.3-15.3-82.6,6.4-97.8,58.1
			c-19.5,66.1,33.9,53.9,13.7,83.4c-20.2,29.5-36.8,60.6,10.1,75.6c46.9,15,95.3-13.8,105.6-69.2c10.3-55.4,38.9-25.5,56.7-49.1
			C323.4,862.6,363.3,768.5,363.3,768.5z"/>
		<g>
			<path class="st9" d="M442.8,1806.4l22.1-87.2l-55-7.6c-1.9,41.3-5,81.9-4.7,92.9L442.8,1806.4z"/>
			<path class="st9" d="M311.7,1711.1h-57.4c1.9,13.8,9.4,88.2,9.4,88.2c4.8,11,47.6,8.5,47.6,2.3
				C308.1,1788.2,311.4,1712.8,311.7,1711.1z"/>
			<path class="st15" d="M405.5,1745.2l56.6,8.4l39.2-234.6c-8.1-89-86.5-278.5-86.5-278.5l-88.4,30.9l-2.2,83.5l106.4,180.2
				C416.9,1569.9,407.4,1682.6,405.5,1745.2z"/>
			<path class="st14" d="M361.7,1246.7c-0.8-5.5-1.1-7.2-5.7-10l-84.9-24.1l-20.2,19.9c-19.1,69.5-7.3,166.1,7.8,242.7
				c-22.1,66.4-13.4,203.1-4.6,267.4h60.3c3.5-43,2.4-122.7,2.7-161.2l0,0c7.8-30.9,15.4-63.9,22.1-98.7
				c8.6-44.4,19.4-87.3,22.4-127.6C364.4,1317.2,365.2,1276.3,361.7,1246.7z"/>
		</g>
		<path class="st9" d="M293.4,853.7c-10.7,44.9,9.2,88,44.4,96.5c35.2,8.4,72.5-21.1,83.2-66c10.7-44.9-9.2-88-44.4-96.5
			C341.3,779.3,304.1,808.9,293.4,853.7z"/>
		<path class="st9" d="M254.7,966.9c-19.7,12.9-102,120-59.6,209.4c0.6,1.2,1.7,1,2.3,2.2c2.1,1.2,38.9-60.7,38.9-60.7l43.8-86.7
			L254.7,966.9z"/>
		<path class="st9" d="M296.9,910l52.7,29.9c0,0,4.7,21.3,7,28.3c4.8,14.3-13.6,20.5-29.2,11.6c-15.6-8.9-25.7-20.8-25.7-20.8
			L296.9,910z"/>
		<path class="st13" d="M426.1,870.1c-12-3.9-17.5-22.3-22.6-36.4C378.4,884.1,285.9,876.9,282,867c-8.1-58.8,17.6-101.6,80.9-99.7
			C449.6,769.9,426.1,870.1,426.1,870.1z"/>
		<path d="M401.9,892c1.1,3.3,4.7,5,8,3.9c3.3-1.1,5-4.7,3.9-8c-1.1-3.3-4.7-5-8-3.9C402.5,885.2,400.7,888.8,401.9,892z"/>
		<path d="M356.4,879.1c1.2,3.6,5.1,5.4,8.7,4.2c3.6-1.2,5.4-5.1,4.2-8.7c-1.2-3.6-5.1-5.4-8.7-4.2
			C357,871.7,355.1,875.6,356.4,879.1z"/>
		<g>
			<path class="st13" d="M419,879.6c0.2,0,0.5-0.1,0.7-0.3c1.1-0.7,1.5-2.1,0.9-3.2c-5.1-8.8-14.5-8.3-14.9-8.3
				c-1.3,0.1-2.3,1.2-2.2,2.5c0.1,1.3,1.2,2.3,2.5,2.2c0.3,0,6.9-0.3,10.5,5.9C417,879.4,418.1,879.8,419,879.6z"/>
		</g>
		<path class="st10" d="M389.3,895.9c1.1,4.8,1.7,9.6,3.4,13.1c0.6,1.2,0.1,2.6-1.1,3.3c-4.8,2.6-13.4,1.8-18.5,1
			c-0.7-0.1-0.8-1.2,0-1.3c6.3-1.1,9.7-2.6,11.4-3.6c0.8-0.5,1.3-1.4,1.4-2.3c0.2-2.2,0.6-6.6,1.2-10.1
			C387.3,894.8,389,894.7,389.3,895.9z"/>
		<path class="st9" d="M305.9,875.4c5.6,9.3,4,20.5-3.6,25.1c-7.6,4.6-18.3,0.8-23.9-8.5c-5.6-9.3-4-20.5,3.6-25.1
			C289.6,862.4,300.3,866.2,305.9,875.4z"/>
		<g>
			<path class="st10" d="M296.7,892.7c0.3-0.1,0.7-0.3,0.9-0.6c3.8-3.9,4.8-8.7,2.5-12.9c-2.3-4.3-7.3-6.7-11.9-5.9
				c-1.3,0.2-2.1,1.5-1.9,2.8c0.2,1.3,1.5,2.1,2.8,1.9c2.5-0.5,5.5,1,6.8,3.5c1.3,2.3,0.6,4.9-1.7,7.4c-0.9,0.9-0.9,2.4,0,3.4
				C294.9,892.8,295.9,893,296.7,892.7z"/>
		</g>
		<path class="st23" d="M427.9,1254.3c0,0-21.7,25.7-25.4,27.7l-19.5-21.3l-0.1,0.4l-4.6,12.2l-5.4,14.2
			c-4.5,0-140.3-30.4-140.3-30.4c0.3-12.2,11.8-51.9,30.4-94.1c-4.5-35.7-0.2-72.9-1.6-93.5c11-55.3,3.1-76.5-6.7-102.5l34.4-10.2
			l62,21.9l4.6-15c0,0,38.9,9.3,47,13.8l14.7,61.3l-3.2,130.2C414.3,1169,419.2,1221.4,427.9,1254.3z"/>
		<path class="st24" d="M300.8,949.9l-24,10.3c2.6,29.2,67.8,46.6,67.8,46.6l6.5-28.2L300.8,949.9z"/>
		<path class="st24" d="M351.1,978.6l19.2,21.4c0,0,16.6-17.2,10.6-27.8c-6-10.6-28-17.8-28-17.8L351.1,978.6z"/>
		<g>
			<path class="st10" d="M366.1,936.4c-1.5-0.2-3-0.5-4.5-1c-10.8-3.6-15.7-13.6-16-14c-0.6-1.3-0.1-2.9,1.2-3.5
				c1.3-0.6,2.9-0.1,3.5,1.2l0,0c0,0.1,4.3,8.5,12.9,11.3c5.6,1.8,12,0.9,18.9-2.7c1.3-0.7,2.9-0.2,3.6,1.1c0.7,1.3,0.2,2.9-1.1,3.6
				C378.1,935.8,371.9,937.2,366.1,936.4z"/>
		</g>
		<g>
			<path class="st13" d="M429.4,1805c5.7-15.1,18-16.8,18-16.8c23.9,31.9,82.5,12.3,80.6,55.4c-89.2-0.6-126.2,0-126.2,0
				c0.1-9.9,1.9-33.4,3.9-42.6l4.6,0.8L429.4,1805z"/>
			<path class="st1" d="M523.9,1855.1H406c-2.3,0-4.2-1.9-4.2-4.2v-8.5h126.3v8.5C528.1,1853.3,526.2,1855.1,523.9,1855.1z"/>
		</g>
		<g>
			<path class="st24" d="M382.9,1261.1l-4.6,12.2c-4.2-28-19.8-145.1-11-177.4c8.3-30.4-2.1-62.4-12.1-93.3c-2.4-7.6-5-15.4-7.1-23
				l3-0.9l3-0.9c2.1,7.5,4.7,15.3,7.1,22.8c10.3,31.8,20.9,64.8,12.1,97C365.8,1125.4,377.5,1221.5,382.9,1261.1z"/>
		</g>
		<g>
			<path class="st13" d="M321.5,1844c0,0-7.2-26.7-7.8-30.1c-0.7-3.9-2.8-13.1-3.3-17.9c-0.1-1.2-12.4-8.7-21.8-8.7
				c-12.7,0-24.3,7.4-24.5,8.8c-1.5,8.9-1.5,19.4-4,28.1c-1.8,6.5-6.7,21.5-6.7,21.5L321.5,1844z"/>
			<g>
				<g>
					<g>
						<g>
							<path class="st1" d="M321.5,1842c-1.7,5.3-22.3-0.8-37.3-0.8c-12.6,0-28.9,4.9-30.8,3c-3.2,5.6-0.6,17.1-0.6,17.1
								s13.1,0.7,28.9,0c15.8-0.7,34,0.3,40.8-1.7C327,1852.3,321.5,1842,321.5,1842z"/>
						</g>
					</g>
				</g>
			</g>
		</g>
		<g>
			<path class="st9" d="M347.9,1089.5c0,0-98.2,98.5-144.2,91.9c-6-0.9-7.9-1.8-9.5-7.8c-5.4-19.9,21.2-51.8,46.2-63.3
				c27.6-12.6,73.8-32.5,73.8-32.5L347.9,1089.5z"/>
			<path class="st25" d="M368.4,1052.5l45.1-34.8c1-0.8,2.2-1.1,3.5-0.9l30.7,5.6c0.9,0.1,2.7,5.5,2,6.1l-30.7,18.4
				c-0.1,0.1-0.3,0.2-0.5,0.2l-48.3,8.3C369.3,1055.5,367.6,1053.1,368.4,1052.5z"/>
			<path class="st26" d="M370.8,1055.9l42.9-32.8c1-0.8,2.2-1.1,3.4-0.9l31.8,5.4c0.9,0.1,1.2,1.3,0.4,1.8l-30.2,22.9
				c-0.1,0.1-0.3,0.2-0.5,0.2l-47.2,5.2C370.5,1057.8,370,1056.5,370.8,1055.9z"/>
			<path class="st9" d="M313,1078.4l25.4-12.7c0,0,16.1-17.5,21.1-22.7c6.4-1.9,18.9-7.3,21.5-7.1c2.5,0.2,6.9,1.7,6.9,1.7
				l-14.7,11.5c0,0,6,2.8,14.4-0.6c8.4-3.4,24-13.7,30.1-10c1.9,2.5,1.9,2.5,1.9,2.5s5.3-4.1,8.5-1.3c9.8,8.8-53.6,46.6-53.6,46.6
				l-26.4,3.2L313,1078.4z"/>
			<path class="st25" d="M418.4,1030.1c-1.8,1.2-4,1.1-4.9-0.3c-0.9-1.4-0.3-3.5,1.5-4.7c1.8-1.2,4-1.1,4.9,0.3
				C420.8,1026.8,420.2,1028.9,418.4,1030.1z"/>
		</g>
		<path class="st10" d="M521.5,1156.9c0,0-56.3,64.4-95.5,73.5c-2.3-12.9-4.5-22.8-4.5-22.8l53.4-70.4L521.5,1156.9z"/>
		<path id="c_17_" class="st10" d="M418.8,1233.9c0.2-0.6,0.5-1,0.8-1.5c-0.1,0-0.2-0.1-0.3-0.1c-5.6-1.8-9-6.6-7.7-10.6
			c0.2-0.7,0.6-1.2,1-1.8c-2.9-2.3-4.4-5.5-3.5-8.4c0.4-1.1,1.1-2.1,2.1-2.8c-3.1-2.1-4.7-5.6-3.6-8.8c1.3-4,6.3-5.9,11-4.4
			c4.7,1.6,7.5,6.1,6.2,10.1c-0.3,1-0.9,1.9-1.6,2.6c4.6,2.1,7.3,6.3,6.1,10c-0.2,0.7-0.6,1.2-1,1.8c2.9,2.3,4.4,5.5,3.5,8.4
			c-0.3,1-1,1.9-1.9,2.7c2.8,1.7,4.3,4.8,3.4,7.6c-1.1,3.4-5.3,5-9.3,3.7C420,1241.1,417.7,1237.3,418.8,1233.9z"/>
	</g>
	<g>
		<path class="st27" d="M666.9,460.9H389.3c-32.8,0-59.3,26.6-59.3,59.3v111.7c0,32.8,26.6,59.3,59.3,59.3h191.5L574,815.8
			c-0.5,9.6,12.6,12.8,16.6,4.1l59-128.8h17.3c32.8,0,59.3-26.6,59.3-59.3V520.2C726.2,487.4,699.6,460.9,666.9,460.9z"/>
		<path class="st1" d="M674.5,540.5H385.9c-11.2,0-20.3-9.1-20.3-20.3l0,0c0-11.2,9.1-20.3,20.3-20.3h288.6
			c11.2,0,20.3,9.1,20.3,20.3l0,0C694.7,531.4,685.7,540.5,674.5,540.5z"/>
		<path class="st1" d="M674.5,600.6H385.9c-11.2,0-20.3-9.1-20.3-20.3l0,0c0-11.2,9.1-20.3,20.3-20.3h288.6
			c11.2,0,20.3,9.1,20.3,20.3l0,0C694.7,591.5,685.7,600.6,674.5,600.6z"/>
		<path class="st1" d="M679,660.7H477c-8.7,0-15.8-7.1-15.8-15.8v-9.1c0-8.7,7.1-15.8,15.8-15.8h202c8.7,0,15.8,7.1,15.8,15.8v9.1
			C694.7,653.7,687.7,660.7,679,660.7z"/>
	</g>
</g>
</svg>