<?xml version="1.0" encoding="utf-8"?>
<!-- Generator: Adobe Illustrator 25.2.0, SVG Export Plug-In . SVG Version: 6.00 Build 0)  -->
<svg version="1.1" id="Layer_1" xmlns="http://www.w3.org/2000/svg" xmlns:xlink="http://www.w3.org/1999/xlink" x="0px" y="0px"
	 viewBox="0 0 600 600" style="enable-background:new 0 0 600 600;" xml:space="preserve">
<style type="text/css">
	.st0{clip-path:url(#SVGID_2_);}
	.st1{clip-path:url(#SVGID_4_);}
	.st2{fill:url(#XMLID_4_);}
	.st3{fill:url(#XMLID_5_);}
	.st4{fill:url(#XMLID_6_);}
	.st5{fill:url(#XMLID_7_);}
	.st6{fill:url(#XMLID_8_);}
	.st7{fill:#F7327A;}
	.st8{fill:#A81D34;}
	.st9{fill:#FFFFFF;}
	.st10{fill:#F8C4B7;}
	.st11{fill:#FFAF9F;}
	.st12{opacity:0.37;fill:#F27070;enable-background:new    ;}
	.st13{fill:url(#XMLID_17_);}
	.st14{fill:#F27070;}
	.st15{fill:#0D1C79;}
	.st16{fill:#9ECAEF;}
	.st17{fill:none;stroke:#FFFFFF;stroke-width:2;stroke-miterlimit:10;}
	.st18{fill:url(#XMLID_20_);}
	.st19{opacity:0.44;fill:#FFFFFF;enable-background:new    ;}
	.st20{fill:url(#XMLID_21_);}
	.st21{fill:url(#XMLID_22_);}
	.st22{fill:#691F99;}
	.st23{fill:url(#XMLID_23_);}
	.st24{fill:url(#XMLID_24_);}
	.st25{opacity:0.17;fill:#F27070;enable-background:new    ;}
	.st26{fill:url(#XMLID_26_);}
</style>
<g>
	<defs>
		<rect id="SVGID_1_" width="600" height="600"/>
	</defs>
	<clipPath id="SVGID_2_">
		<use xlink:href="#SVGID_1_"  style="overflow:visible;"/>
	</clipPath>
	<g class="st0">
		<g>
			<defs>
				<rect id="SVGID_3_" width="1600" height="600"/>
			</defs>
			<clipPath id="SVGID_4_">
				<use xlink:href="#SVGID_3_"  style="overflow:visible;"/>
			</clipPath>
			<g class="st1">
				
					<linearGradient id="XMLID_4_" gradientUnits="userSpaceOnUse" x1="343.4999" y1="16970.9316" x2="343.4999" y2="15833.0869" gradientTransform="matrix(1 0 0 1 0 -15976)">
					<stop  offset="0" style="stop-color:#BFABFF"/>
					<stop  offset="0.8333" style="stop-color:#BFABFF;stop-opacity:0"/>
				</linearGradient>
				<path id="XMLID_169_" class="st2" d="M601.2,490.6c2.8-22.4,3.7-45.1,5.3-67.6c-0.3,0.4-0.7,0.9-1,1.3l-1.6-1.5
					c1-2.1,2.1-4.3,3.1-6.5c0.5-5.8,1-11.6,1.6-17.4c-3.4,5.3-7.1,11.3-11,17.9l-2.1-2c5.2-14.6,10.2-30.5,14.9-47.6
					c0,0-9.5,16.3-21.2,41.7l-2.9-2.7c3.1-13.8,6.1-28.5,8.6-44.1c0,0-6.7,14.9-14.7,38.4l-4.2-4c1.3-12,2.3-24.6,3-37.9
					c0,0-4,12.5-8.8,32.4l-6.4-6c-0.2-9.1-0.5-18.4-1-28.1c0,0.1-1.8,8.9-3.9,23.5l-10.3-9.6c-0.5-3.1-0.9-6.1-1.4-9.3
					c13.6,2.5,19.5-16,11.5-25.5c-7.9-9.4-15.1-14.9-17.7-16.9c4.7-2.3,9.4-5,14.3-8.2c3.4-2.2,6.8-4.2,10.1-6.1
					c-3.3,5-10.2,19.1,7.9,30.1c22.4,13.5,28.7-12,17.8-21c-9.2-7.6-17-11.4-19.2-12.5c11.6-5.8,22.3-9.4,32.2-11.3
					c-4.6,5-11.9,16.6,2.4,30c19,17.9,30.6-5.6,21.8-16.8c-5.8-7.3-11.1-12.2-14.2-14.7c9.4-0.9,17.8-0.4,25.3,0.9
					c-3.6,2.9-13.4,13-0.9,26.4c15,16.1,26-3,19.2-12.9c-3.5-5.1-6.9-9-9.4-11.5c20.4,6,31.6,17.4,31.6,17.4s-10.1-14-32.1-21
					c3.1-1.4,8.2-4,14.1-8.3c9.7-7,5.8-28.7-13.7-18.6c-15.9,8.2-10.7,20.5-8.3,24.9c-7.7-1.6-16.6-2.3-26.7-1.4
					c5.8-4,14.2-13.2,4.5-28.9c-5.2-8.5-11-10.8-15.8-9.8c0.8-5.4-2.3-11.9-7.8-14.1c-5.8-2.3-10.8-3.6-14.2-4.3
					c20.3-6.4,35.9-3.1,35.9-3.1s-16.2-6-38.4,0.5c1.8-2.9,4.6-7.9,7.1-14.7c4.2-11.2-11.2-27.1-21.8-7.8c-8.6,15.7,2.5,23,7,25.2
					c-7.3,3-15,7.4-22.9,13.8c2.5-6.5,4.5-18.9-12.4-26.5c-23.8-10.8-27.1,15.2-15.2,22.9c9.7,6.3,17.6,9.2,20.3,10.1
					c-11.3,10.8-18.3,19.9-23.3,28.1c-0.4-3.6-1.6-11.2-5-20.8c-1.1-3.2-3.5-5.8-6.4-7.5c5.8-19.9,6.7-38.6,9-58.8L471,168l46.3-2.6
					c2.3-11.6,5.7-24,11.1-37.5c20.1-49.6,14-93.4,8.9-114.6l0,0v-0.1c-0.5-1.9-0.9-3.7-1.4-5.2V7.9l0,0c-1.5-5.2-2.6-8-2.6-8
					s-49,27.7-86.3,68.7l23.7,27.1l-37.4-10.6c-32.2,42.7-41.2,98.1-75.3,148.7l45,42.2c0,0-22-7.8-40.8-13.8
					c-0.6-3.5-1.3-7.1-1.9-11c-8.3-56-32.4-77.5-56.8-106.2L259,162l29.7-35.6c-6.9-9.6-13.6-20.5-19.8-33.8
					c-22.4-48.5-58.6-74.1-77.6-84.8l0,0l-0.1-0.1c-1.7-1-3.3-1.8-4.7-2.6l0,0l0,0c-4.8-2.5-7.6-3.6-7.6-3.6S165.7,56,170,111.3
					l35.9,1.2l-33.3,20.1c1.9,11.1,5,21.8,8.7,32.3c-18.7-10.5-36.6-15.9-55.9-23L102,183.8l0.4-51.3C91,127.2,79,120.5,66,111.3
					c-10-7.2-20-13-29.6-17.8c-1.6,41-4.8,81.8-8.5,122.6C48.5,236.6,72,252.8,96,270.2l-70.5-28.3c-4.4,46.9-9,93.8-12.3,140.8
					C9.6,434.8,9.9,487,7.1,539.1l544.6,12.7c-1.8,16.9-12.2,27.1-27.7,31.3c-0.9,0.3-1.4,1.3-0.8,2.1l3.2,4.7
					c1.4,2.1,4.1,3.1,6.5,2.3c8.1-2.7,24.3-15.6,25.1-40.3l38.1,0.9C597.1,532,598.7,511.3,601.2,490.6z M194.5,309.3l-12.7-5
					l22.7-19.9C204.5,284.4,199.8,295.8,194.5,309.3z M477.7,314.5c1.5,0.8,3,1.4,4.6,1.7c1.8,3.7,4.5,6.5,7.3,8.5
					c-0.5,0.5-1,1-1.5,1.5c-2.1,0-4.2-0.1-6.3-0.2C480.8,322.7,479.5,318.9,477.7,314.5z M489.3,335h-1.6c1.1-1.1,2.2-2.3,3.2-3.5
					c0.7,0,1.4,0.1,2.2,0C491.9,332.5,490.6,333.6,489.3,335z M540.3,313.6c-0.1-0.1-0.1-0.2-0.2-0.3c0,0-0.1-0.1-0.1-0.2
					c0.5-1.8,1.2-4.5,1.9-7.7c9-0.5,13.8-3.8,15.6-8c2.4,1.2,4.4,1.8,5,2C553.5,304.3,547.2,309.4,540.3,313.6z M571.3,230.9
					c-1.3,4.4-3.9,18.3,13.9,22.5c2.9,0.7,5.4,0.8,7.5,0.6c-1.8,3.8-2.2,8.4-0.5,12.4c4.6,10.6,9.5,17.5,11.2,19.7
					c-15.3,2.7-26.3,6.3-34.9,10.3c1.7-3.2,4.9-10.2,7.4-20.1c0.4-1.4,0.4-2.8,0.3-4.2c7.7-6.2,3.3-20.5-6.5-23.6
					c-8.9-2.9-16.1-3.9-20-4.3C557,238.3,564.3,234,571.3,230.9z M542.2,251.1c-0.7,4.8-0.7,13.4,6.8,18.9c-1.3,3.2-2,6-2.3,8.5
					c-0.7-0.2-1.4-0.3-2.1-0.4c-2.3-0.2-4.5-0.4-6.5-0.4c-3.8-3.5-8.8-5.4-13.5-3.9C530.2,264.7,536.2,257.2,542.2,251.1z
					 M515,306.9c1,2,2.3,3.6,3.7,4.9c-1.7-0.3-3.2-0.5-4.6-0.7C514.4,309.7,514.7,308.4,515,306.9z M545.6,368l-27.1-25.5
					c1,0.2,1.9,0.5,3.1,0.7c1.9,0.3,3.7,0.3,5.3,0.3c1.4,3.7,4,7.6,8.5,11.6c3.9,3.4,7.4,5.3,10.6,6.2
					C545.9,363.1,545.7,365.3,545.6,368z"/>
				
					<linearGradient id="XMLID_5_" gradientUnits="userSpaceOnUse" x1="1814.713" y1="17017.2305" x2="1814.713" y2="15879.3867" gradientTransform="matrix(-1 0 0 1 3118.5625 -15976)">
					<stop  offset="0" style="stop-color:#BFABFF;stop-opacity:0.5"/>
					<stop  offset="0.8333" style="stop-color:#BFABFF;stop-opacity:0"/>
				</linearGradient>
				<path id="XMLID_1_" class="st3" d="M1051.2,599.2l38.1-0.9c0.8,24.7,17,37.5,25.1,40.3c2.4,0.8,5.1-0.1,6.5-2.3l3.2-4.7
					c0.5-0.8,0.1-1.9-0.8-2.1c-15.5-4.2-25.9-14.5-27.7-31.3l544.6-12.7c-2.7-52.1-2.5-104.3-6.1-156.4c-3.3-47-7.9-93.9-12.3-140.8
					l-70.5,28.3c24.1-17.4,47.6-33.6,68.1-54.1c-3.7-40.8-6.8-81.7-8.5-122.6c-9.6,4.8-19.6,10.6-29.8,17.9
					c-13,9.3-25,15.9-36.4,21.2l0.4,51.3l-23.4-41.9c-19.2,7.1-37.2,12.5-55.9,23c3.7-10.6,6.8-21.3,8.7-32.3l-33.3-20.1l35.9-1.2
					c4.4-55.3-8.9-109.8-8.9-109.8s-2.8,1.1-7.6,3.6l0,0l0,0c-1.4,0.7-3,1.6-4.7,2.6l-0.1,0.1l0,0c-19,10.7-55.1,36.3-77.6,84.8
					c-6.1,13.2-12.8,24.1-19.8,33.8l29.7,35.6l-44.4-17c-24.4,28.7-48.5,50.2-56.8,106.2c-0.6,3.9-1.2,7.5-1.9,11
					c-18.8,5.9-40.8,13.8-40.8,13.8l45.1-42.2c-34.1-50.5-43.1-106-75.3-148.7l-37.4,10.6l23.7-27.1c-37.4-41-86.2-68.6-86.2-68.6
					s-1.1,2.8-2.6,8l0,0v0.1c-0.4,1.5-0.9,3.3-1.4,5.2v0.1l0,0c-5.2,21.1-11.2,65,8.9,114.6c5.5,13.5,8.9,25.9,11.1,37.5l46.3,2.6
					l-42.8,20.8c2.3,20.2,3.2,38.9,9,58.8c-2.9,1.7-5.3,4.3-6.4,7.5c-3.4,9.6-4.6,17.2-5,20.8c-4.9-8.1-12-17.3-23.3-28.1
					c2.6-0.9,10.6-3.8,20.3-10.1c11.9-7.7,8.6-33.7-15.2-22.9c-16.9,7.7-14.9,20-12.4,26.5c-7.9-6.4-15.6-10.8-22.9-13.8
					c4.5-2.2,15.6-9.6,7-25.2c-10.6-19.2-26-3.4-21.8,7.8c2.5,6.8,5.3,11.8,7.1,14.7c-22.2-6.5-38.4-0.5-38.4-0.5s15.6-3.3,35.9,3.1
					c-3.4,0.7-8.4,2-14.2,4.3c-5.5,2.2-8.6,8.7-7.8,14.1c-4.8-1-10.5,1.3-15.8,9.8c-9.7,15.8-1.2,24.9,4.5,28.9
					c-10.1-0.9-19-0.2-26.7,1.4c2.5-4.3,7.6-16.7-8.3-24.9c-19.5-10.1-23.4,11.6-13.7,18.6c5.9,4.2,11,6.8,14.1,8.3
					c-22,6.9-32.1,21-32.1,21s11.2-11.4,31.6-17.4c-2.5,2.5-5.9,6.3-9.4,11.5c-6.8,9.9,4.3,29,19.2,12.9
					c12.5-13.4,2.6-23.5-0.9-26.4c7.5-1.4,16-1.9,25.3-0.9c-3,2.5-8.4,7.4-14.2,14.7c-8.8,11.2,2.8,34.7,21.8,16.8
					c14.3-13.4,6.9-25,2.4-30c9.9,2,20.7,5.6,32.2,11.3c-2.2,1-10,4.8-19.2,12.5c-11,9-4.6,34.5,17.8,21
					c18.1-10.9,11.2-25.1,7.9-30.1c3.3,1.9,6.7,3.9,10.1,6.1c4.9,3.1,9.6,5.9,14.3,8.2c-2.7,1.9-9.8,7.4-17.7,16.9
					c-8,9.5-2,27.9,11.5,25.5c-0.5,3.1-1,6.2-1.4,9.3l-10.3,9.6c-2.1-14.6-3.9-23.4-3.9-23.5c-0.6,9.7-0.9,19-1,28.1l-6.4,6
					c-4.8-20-8.8-32.4-8.8-32.4c0.6,13.3,1.7,25.9,3,37.9l-4.2,4c-8-23.4-14.7-38.4-14.7-38.4c2.5,15.7,5.4,30.4,8.6,44.1l-2.9,2.7
					c-11.6-25.4-21.2-41.7-21.2-41.7c4.6,17.1,9.7,33,14.9,47.6l-2.1,2c-3.9-6.6-7.6-12.6-11-17.9c0.6,5.8,1.1,11.6,1.6,17.4
					c1,2.2,2.1,4.4,3.1,6.5l-1.6,1.5c-0.3-0.4-0.7-0.9-1-1.3c1.6,22.6,2.5,45.2,5.3,67.6C1048.6,557.6,1050.2,578.3,1051.2,599.2z
					 M1442.8,330.7l22.7,19.9l-12.7,5C1447.5,342.1,1442.8,330.7,1442.8,330.7z M1165.5,372.3c-2.1,0.1-4.2,0.2-6.3,0.2
					c-0.5-0.5-1-1-1.5-1.5c2.9-2,5.5-4.8,7.3-8.5c1.5-0.4,3-0.9,4.6-1.7C1167.8,365.2,1166.5,369,1165.5,372.3z M1154.2,377.8
					c0.7,0,1.5,0,2.2,0c1.1,1.2,2.1,2.4,3.2,3.5h-1.6C1156.7,379.9,1155.4,378.8,1154.2,377.8z M1084.9,345.7c0.6-0.2,2.6-0.8,5-2
					c1.8,4.2,6.5,7.5,15.6,8c0.7,3.2,1.3,5.9,1.9,7.7c0,0.1-0.1,0.1-0.1,0.2c-0.1,0.1-0.1,0.2-0.2,0.3
					C1100.1,355.7,1093.8,350.6,1084.9,345.7z M1097.6,290.5c-3.9,0.4-11.1,1.4-20,4.3c-9.7,3.1-14.2,17.3-6.5,23.6
					c-0.1,1.4,0,2.8,0.3,4.2c2.5,9.9,5.8,16.9,7.4,20.1c-8.6-4-19.6-7.7-34.9-10.3c1.7-2.2,6.6-9.1,11.2-19.7
					c1.7-4,1.3-8.6-0.5-12.4c2.1,0.2,4.6,0.1,7.5-0.6c17.9-4.2,15.3-18,13.9-22.5C1083,280.3,1090.3,284.6,1097.6,290.5z
					 M1122.6,320c-4.7-1.4-9.7,0.4-13.5,3.9c-2,0.1-4.2,0.2-6.5,0.4c-0.7,0.1-1.4,0.2-2.1,0.4c-0.3-2.5-1-5.3-2.3-8.5
					c7.5-5.5,7.5-14.1,6.8-18.9C1111.1,303.5,1117.1,311,1122.6,320z M1133.2,357.4c-1.4,0.2-2.9,0.4-4.6,0.7
					c1.4-1.3,2.7-2.9,3.7-4.9C1132.6,354.7,1132.9,356,1133.2,357.4z M1101.3,407.6c3.2-0.8,6.7-2.7,10.6-6.2
					c4.6-4,7.2-7.9,8.5-11.6c1.6,0,3.4-0.1,5.3-0.3c1.2-0.2,2-0.5,3.1-0.7l-27.1,25.5C1101.6,411.6,1101.4,409.4,1101.3,407.6z"/>
				
					<linearGradient id="XMLID_6_" gradientUnits="userSpaceOnUse" x1="126.6876" y1="714.0004" x2="126.6876" y2="500.8636" gradientTransform="matrix(0.8614 0.508 0.508 -0.8614 -89.5551 571.5842)">
					<stop  offset="0" style="stop-color:#BFABFF"/>
					<stop  offset="0.8333" style="stop-color:#BFABFF;stop-opacity:0"/>
				</linearGradient>
				<path id="XMLID_87_" class="st4" d="M252.7,121.2c0.2,4.4,8.3,9.5,15.9,8.1c7.6-1.4,20.1-7.2,23.4-3.1s0.3,8.8-5,8.9
					c-5.4,0.1-9.6-2.9-13.8-2.5c-4.3,0.4-7.8,2.6-12,2.3s-6.4-3.6-7-1c-0.5,2.6,4.7,10.2,8.6,15.1c3.9,4.9,1.4,5.8,5,6.6
					c3.6,0.9,5.9-0.5,9.5-1.8c3.5-1.4,7.5-1.4,12.9,3c5.5,4.3,14.8-6,16.5-8c1.4-1.7,2.9,0.4,4.7,0.8c-16.9,26.4-40.2,34.6-50.6,37
					c-2.5,0.6-4.4,3-4.1,5.6c0.3,3,3.1,5,6,4.5c9.5-1.8,31.6-10.1,53.6-46.6c0.6,0.5,1,1.1,1.2,1.9c0.8,3.6,2.9,8.5,8.5,11.3
					c0.7,0.4,1.3,1,1.6,1.7c1.5,3.8,6.6,15.2,14.9,14.1c4.7-0.6,9.3-2.3,12.8-3.8c2.2-1,2.6-3.7,1.2-5.3c3.4,1.4,7.4,2.5,12.2,3.1
					c15.6,1.9,23.4-18.8,27.3-27.2s0.7-17,0.4-18.6c-0.2-1.6-2.4-1.2-3.9,1c0,0,1.3-3.2-4.5-0.3c-0.3,0.1-0.5,0.3-0.8,0.5
					c1.3-1.6,2.4-3.1,3-4.4c2.3-4.4,2.3-9,5.1-12.4c0.1-0.1,0.2-0.2,0.3-0.4c0.8-0.7,4.2-4.1,4.3-8.1c0.1-4.6,1.1-10.7,0.2-17.1
					c-0.2-1.6-0.4-2.8-0.6-3.7l0,0c0,0,0-1.3-0.8-1.9c-0.1-0.1-0.2-0.1-0.4-0.2l0,0h-0.1c-0.1,0-0.2,0-0.3,0
					c-1.2-0.1-2.9,1.1-2.9,1.1s-4.1,2-8.5,3.3c-0.7,0.2-1.4,0.4-2.1,0.6h-0.1c-1.6,0.4-3.1,0.9-4.4,1.4c-1.5,0.5-2.9,1.2-4.2,2
					c-0.1,0-0.1,0.1-0.1,0.1l0,0c-0.7,0.5-1.4,1-2.1,1.5c-5.6,5-14.1,12.6-17.9,9.8c-3.8-2.8-3.1-5.7-0.4-8.1
					c2.6-2.4,14.7,2.1,27.6-9s13.6-9.9,11.8-18.1c-1.8-8.1-1.4-10.4-6.2-15c-4.8-4.6-5.4-6.5-6.3-9.4s-4.5-5.7-3.7,0.8
					S363,67.1,356.9,67.6c-6,0.5-9.3-1.6-2.1-9.2c7.2-7.6,15.1-18.8,14.8-23.1c-0.3-4.3-2.4-6.9-6.5-9.8c-4.2-2.9-1.6-2-3.7-6.5
					c-2.1-4.4-3.1-3.9-2.6-5.4c0.4-1.5-1.1-3.1-0.8-6c0.4-2.9-1.7-2.8-3.8-2.3c-2.1,0.5-6.9,9.4-12.7,9.8c-5.8,0.4-8.4,3.4-4.7,8.7
					c3.7,5.3,5.5,18,1.2,20.7c-4.3,2.8-7.5,0.7-9.4-8.8c-1.8-9.5,0-16.8-2.8-19c-2.8-2.1-10.2-0.5-12.8,5.5c-2.6,5.9-7.5,7.8-9,8.4
					s-4.8,5.5,0.3,15.3c5.1,9.8,14.1,14.8,17.3,16.9c3.2,2.2,8,4.4,0.2,9.9c-7.8,5.4-10.3-2.6-12-5.3c-1.7-2.7-14-9.4-15.9-18.1
					s-0.4-20.4-2.3-19.8C288,30,282,43.2,277.2,51.4c-0.7,1-1.6,2.4-2.6,4c-0.3,0.4-0.5,0.7-0.8,1C269,62,264.5,68.5,265,74
					s2.4,13.4,10.1,16.5c7.8,3.2,7.9,3.3,10.2,6.6c2.3,3.3,15.9,10.4,3.1,7.3s-23-26.5-26.8-23.7c-3.8,2.9-2,13.1-4.7,18.4
					C254.7,104.5,252.5,116.8,252.7,121.2z M368.1,115c0,0,0.3,6-1.1,7c-1.3,1-7.9,0.9-10.1-1.5c-2.1-2.4-2.2-0.3-6.9-1.4
					c-4.7-1.1-1.6-13,5.7-8.1C363,115.7,365.5,109.5,368.1,115z"/>
				<g id="XMLID_89_">
					
						<linearGradient id="XMLID_7_" gradientUnits="userSpaceOnUse" x1="-7.8" y1="236.659" x2="417.1039" y2="236.659" gradientTransform="matrix(1 0 0 -1 0 600)">
						<stop  offset="0" style="stop-color:#0F112E"/>
						<stop  offset="1" style="stop-color:#3F4158"/>
					</linearGradient>
					<path id="XMLID_114_" class="st5" d="M409.7,180.1c-26.7-59.4-162.5-93.2-196.5,30.5C179.2,334.2,106.7,329.4,87,330.2
						c-32,1.2-61.3,9.5-87.5,23.2C-3,435.6-6.5,517.8-7.8,600c34.9-2,69.8-5.4,104.7-7.4c35.6-2,71.4-2.8,107-6.4
						c17.2-1.7,34.1-4.7,51.4-5.5c16.3-0.8,32.5-1,48.2-5.8c3.8-1.2,6.9-0.3,9.1,1.7c13.8-23.3,21.4-47.1,20.5-67.6
						c-3.3-76.2,49.2-233.6,49.2-233.6S436.4,239.5,409.7,180.1z"/>
					
						<linearGradient id="XMLID_8_" gradientUnits="userSpaceOnUse" x1="181.4347" y1="217.3" x2="587.3226" y2="217.3" gradientTransform="matrix(1 0 0 -1 0 600)">
						<stop  offset="0" style="stop-color:#0F112E"/>
						<stop  offset="1" style="stop-color:#3F4158"/>
					</linearGradient>
					<path id="XMLID_49_" class="st6" d="M290.6,584.1c36.7,1.8,73.6,1,110.3,2.1c57.9,1.7,115.7,4.5,173.6,5.7
						c8.5-28.5,13.7-56.1,12.7-79.3c-4-95.5-44.7-134.1-124.6-143.6c-19.5-2.3-90.9-15.7-97.8-143.7c-1.1-20.6-5.7-37.7-12.6-51.8
						c-14.9,1.6-30.4,11.4-42.2,18.2c-18.4,10.6-36.6,21.2-53.3,34.4c-20.4,16.1-41.3,31.6-61.5,47.9c-2.3,1.9-4.6,3.7-6.9,5.6
						c4.1,49.9,10.4,156.4-4.1,211.7c-6.3,23.9-1.6,55.3,11.7,86.4C227.5,579.1,259,582.5,290.6,584.1z"/>
					<path id="XMLID_42_" class="st7" d="M269.2,344c0,0-71.8,15.6-103.9,59.5c-22.2,30.4-43.7,176-43.7,176l346.1,11.9
						c0,0-40.1-167.9-50.6-185.6s-70.4-44.7-70.4-44.7L269.2,344z"/>
					<path id="XMLID_84_" class="st8" d="M269.2,344c0,0-71.8,15.6-103.9,59.5c-22.2,30.4-43.7,176-43.7,176l346.1,11.9
						c0,0-40.1-167.9-50.6-185.6s-70.4-44.7-70.4-44.7L269.2,344z"/>
					<path id="XMLID_86_" class="st9" d="M267.8,349.4c0,0,22.8,57.7,63.2,67.3s10.9-56.5,10.9-56.5L267.8,349.4z"/>
					<path id="XMLID_38_" class="st10" d="M364.4,162.2c0,0,17.8,24.5,18.4,48.2c0.7,23.8,0,51.9-0.7,69s-21.5,51.9-36.9,51.4
						l-3.6,31.4c0,0-22,28.5-73.9-13l7.9-36.7c0.7-3.4,0.2-7-1.5-10.1l0,0c-6.5-12.1-14.2-23.4-22.4-34.4c-3.7-5-6.6-12.2-3-20.9
						c7-17.1,23.3-15.5,25.5,8.9c0,0,12.7,11.3,13-6.8s12.9-22.9,5-40.4c-7.9-17.4-3.2-33.6,15.9-33.7
						C327.3,175.2,350.3,172.4,364.4,162.2z"/>
					<path id="XMLID_28_" class="st11" d="M269,251.7c1.4,0.8,3.1-0.4,2.7-1.9c-0.6-2.4-2.1-4.6-5.2-4.9c-6.9-0.6-10.8,9.2-9.2,14.2
						c1.7,5,6.7,8,10,4.4s-4.5-5-4.2-8.5C263.6,250.6,266.6,250.4,269,251.7z"/>
					<ellipse id="XMLID_9_" class="st12" cx="316.3" cy="263.7" rx="15.5" ry="8.8"/>
					<ellipse id="XMLID_98_" class="st12" cx="365.1" cy="265" rx="15.5" ry="8.8"/>
					
						<linearGradient id="XMLID_17_" gradientUnits="userSpaceOnUse" x1="257.1" y1="402.05" x2="390.497" y2="402.05" gradientTransform="matrix(1 0 0 -1 0 600)">
						<stop  offset="0" style="stop-color:#0F112E"/>
						<stop  offset="1" style="stop-color:#3F4158"/>
					</linearGradient>
					<path id="XMLID_18_" class="st13" d="M385.4,200.2c-12.6,20.1-40.3,40-98.9,47.2l-29.4-77.8l69.1-21.1h29.9
						C382.6,148.6,399.5,177.8,385.4,200.2z"/>
					<g id="XMLID_12_">
						<path id="XMLID_13_" class="st9" d="M317.4,267.2c-13.6,0-24.7-11.1-24.7-24.7c0-13.6,11.1-24.7,24.7-24.7
							s24.7,11.1,24.7,24.7S331,267.2,317.4,267.2z M317.4,221.8c-11.4,0-20.7,9.3-20.7,20.7s9.3,20.7,20.7,20.7
							c11.4,0,20.7-9.3,20.7-20.7C338.1,231.1,328.8,221.8,317.4,221.8z"/>
					</g>
					<g id="XMLID_11_">
						<path id="XMLID_159_" class="st9" d="M374.3,267.2c-13.6,0-24.7-11.1-24.7-24.7c0-13.6,11.1-24.7,24.7-24.7
							s24.7,11.1,24.7,24.7S387.9,267.2,374.3,267.2z M374.3,221.8c-11.4,0-20.7,9.3-20.7,20.7s9.3,20.7,20.7,20.7
							c11.4,0,20.7-9.3,20.7-20.7C395.1,231.1,385.7,221.8,374.3,221.8z"/>
					</g>
					<g id="XMLID_75_">
						<rect id="XMLID_14_" x="271.4" y="235.9" class="st9" width="23.8" height="4"/>
					</g>
					<g id="XMLID_77_">
						<rect id="XMLID_157_" x="339.6" y="235.9" class="st9" width="11.9" height="4"/>
					</g>
					<g id="XMLID_10_">
						<rect id="XMLID_156_" x="383.1" y="235.9" class="st9" width="13.5" height="4"/>
					</g>
					<path id="XMLID_19_" class="st9" d="M329,283.3c8.2,2.8,23.2,6.8,36.7,2.6c3-0.9,6.9,3.2,5.8,7.7c-2.4,9.8-11.7,18.7-29.3,15.2
						c-11.2-2.3-16.9-9.2-19.3-14.3C320.1,288.9,323,281.3,329,283.3z"/>
					<polygon id="XMLID_27_" class="st14" points="347.5,240.9 357.8,277.3 336,277.3 					"/>
					<path id="XMLID_29_" class="st15" d="M379.6,247.4c0,0-10.7-10.5-23.4,0.8"/>
					<path id="XMLID_85_" class="st15" d="M335.5,246.6c0,0-10.7-10.5-23.4,0.8"/>
					<g id="XMLID_120_">
						<g id="XMLID_184_">
							<path id="XMLID_235_" class="st10" d="M161.3,476c0,0,54.2,87.6,91.9,87.6s127.9,0,127.9,0l9.3-24l-122.3-24.7L236.7,454
								L161.3,476z"/>
						</g>
						<g id="XMLID_79_">
							<path id="XMLID_234_" class="st16" d="M428.7,534.8h42.8c13.2,0,24.1,10.8,24.1,24.1l0,0c0,2.2-1.8,4-4,4h-78.2
								c-2.2,0-4-1.8-4-4v-4.8C409.3,543.5,418,534.8,428.7,534.8z"/>
						</g>
						<g id="XMLID_196_">
							<path id="XMLID_233_" class="st16" d="M409.3,538.9c0,0,26.5-10.3,52.3-4.2c7.5,1.8,13.1,4.5,17.3,7.3
								c7.8,5.3,4.9,17.4-4.4,19c-5.6,1-11.9,1.8-17.5,1.8c-14.9,0-61.3,0-61.3,0L409.3,538.9z"/>
						</g>
						<g id="XMLID_74_">
							<path id="XMLID_78_" class="st16" d="M409.3,538.9c0,0,8-15,33.1-13.7s28.4,8.3,26.8,11C467.5,539,409.3,538.9,409.3,538.9z"
								/>
						</g>
					</g>
					<g id="XMLID_15_">
						<path id="XMLID_148_" class="st17" d="M283.3,128.8c0,0-58,15.1-42.4,85.3"/>
						<path id="XMLID_158_" class="st17" d="M263,266.6c0,0,12.5,30.8,60.8,27.8"/>
						<path id="XMLID_154_" class="st7" d="M330.8,303.9l-10.6-1.5c-5.2-0.7-8.9-5.6-8.2-10.8l0,0c0.7-5.2,5.6-8.9,10.8-8.2
							l10.6,1.5c5.2,0.7,8.9,5.6,8.2,10.8l0,0C340.9,300.9,336,304.6,330.8,303.9z"/>
						
							<linearGradient id="XMLID_20_" gradientUnits="userSpaceOnUse" x1="215" y1="359.1" x2="278.2" y2="359.1" gradientTransform="matrix(1 0 0 -1 0 600)">
							<stop  offset="0" style="stop-color:#A81D34"/>
							<stop  offset="1" style="stop-color:#FF928E"/>
						</linearGradient>
						<circle id="XMLID_141_" class="st18" cx="246.6" cy="240.9" r="31.6"/>
						
							<ellipse id="XMLID_155_" transform="matrix(0.5981 -0.8014 0.8014 0.5981 -96.1001 288.2004)" class="st19" cx="239.3" cy="239.9" rx="24.2" ry="24.2"/>
					</g>
					
						<linearGradient id="XMLID_21_" gradientUnits="userSpaceOnUse" x1="121.6" y1="93.95" x2="292.6" y2="93.95" gradientTransform="matrix(1 0 0 -1 0 600)">
						<stop  offset="0" style="stop-color:#A81D34"/>
						<stop  offset="1" style="stop-color:#FF928E"/>
					</linearGradient>
					<path id="XMLID_2_" class="st20" d="M151.7,435.5c0,0-8,26.5,43.1,86.3c25.4,29.7,39.4,35.8,39.4,35.8l10.2,5.4l36.9,0.6
						l11.3,13h-171c0,0,6.1-45.8,9.5-61.1C134.6,500.2,151.7,435.5,151.7,435.5z"/>
					<g id="XMLID_47_">
						
							<linearGradient id="XMLID_22_" gradientUnits="userSpaceOnUse" x1="210.7" y1="30" x2="587.4" y2="30" gradientTransform="matrix(1 0 0 -1 0 600)">
							<stop  offset="0" style="stop-color:#0F112E"/>
							<stop  offset="1" style="stop-color:#3F4158"/>
						</linearGradient>
						<path id="XMLID_46_" class="st21" d="M580.9,576.5H217.2c-3.6,0-6.5-2.9-6.5-6.5l0,0c0-3.6,2.9-6.5,6.5-6.5h363.7
							c3.6,0,6.5,2.9,6.5,6.5l0,0C587.4,573.6,584.5,576.5,580.9,576.5z"/>
						<path id="XMLID_25_" class="st22" d="M586.3,570.1h-266c-0.6,0-1.1-0.5-1.1-1.1V381.7c0-0.6,0.5-1.1,1.1-1.1h266
							c0.6,0,1.1,0.5,1.1,1.1V569C587.4,569.6,586.9,570.1,586.3,570.1z"/>
						
							<linearGradient id="XMLID_23_" gradientUnits="userSpaceOnUse" x1="319.2" y1="16451.3496" x2="587.4" y2="16451.3496" gradientTransform="matrix(1 0 0 1 0 -15976)">
							<stop  offset="0" style="stop-color:#0F112E"/>
							<stop  offset="1" style="stop-color:#3F4158"/>
						</linearGradient>
						<path id="XMLID_83_" class="st23" d="M586.3,570.1h-266c-0.6,0-1.1-0.5-1.1-1.1V381.7c0-0.6,0.5-1.1,1.1-1.1h266
							c0.6,0,1.1,0.5,1.1,1.1V569C587.4,569.6,586.9,570.1,586.3,570.1z"/>
						<path id="XMLID_16_" class="st9" d="M455.8,492.7L455.8,492.7c-8.5,0-15.4-6.9-15.4-15.4l0,0c0-8.5,6.9-15.4,15.4-15.4l0,0
							c8.5,0,15.4,6.9,15.4,15.4l0,0C471.1,485.8,464.2,492.7,455.8,492.7z"/>
					</g>
					
						<linearGradient id="XMLID_24_" gradientUnits="userSpaceOnUse" x1="-616.7639" y1="-74.7307" x2="112.136" y2="-74.7307" gradientTransform="matrix(-1 0 0 1 97.036 662.0806)">
						<stop  offset="0" style="stop-color:#BFABFF"/>
						<stop  offset="0.8333" style="stop-color:#BFABFF;stop-opacity:0"/>
					</linearGradient>
					<path id="XMLID_91_" class="st24" d="M448.9,574.7h259.8c2.8,0,5.1,2.3,5.1,5.1v15.1c0,2.8-2.3,5.1-5.1,5.1H448.9
						c-2.8,0-5.1-2.3-5.1-5.1v-15.1C443.8,577,446.1,574.7,448.9,574.7z M-15.1,579.8v15.1c0,2.8,2.3,5.1,5.1,5.1h385.3
						c2.8,0,5.1-2.3,5.1-5.1v-15.1c0-2.8-2.3-5.1-5.1-5.1H-10.1C-12.9,574.7-15.1,577-15.1,579.8z"/>
					<path id="XMLID_102_" class="st25" d="M345.3,330.9c0,0-20.5,6.8-41.8-12.6s-35.7,31-35.7,31s47.3,41.5,73.9,13L345.3,330.9z"
						/>
				</g>
				
					<linearGradient id="XMLID_26_" gradientUnits="userSpaceOnUse" x1="201.5655" y1="16366.9932" x2="313.5" y2="16366.9932" gradientTransform="matrix(1 0 0 1 0 -15976)">
					<stop  offset="0" style="stop-color:#A81D34"/>
					<stop  offset="0.1392" style="stop-color:#BA3547;stop-opacity:0.9026"/>
					<stop  offset="0.4014" style="stop-color:#D85D65;stop-opacity:0.719"/>
					<stop  offset="0.6413" style="stop-color:#ED7A7C;stop-opacity:0.5511"/>
					<stop  offset="0.8487" style="stop-color:#FA8C89;stop-opacity:0.4059"/>
					<stop  offset="1" style="stop-color:#FF928E;stop-opacity:0.3"/>
				</linearGradient>
				<path id="XMLID_146_" class="st26" d="M281.1,353.9c0,0-45.8,14.7-69.4,44.3c-33.1,41.4,24.1,60,40.2,8.9
					c4.3-13.8,17.4-19.5,30.4-22.3c15.1-3.3,27.3-14.7,30.5-29.8c0.9-4.1,1-8.1-0.1-11.1C312.7,344,299.3,346.7,281.1,353.9z"/>
				<path id="XMLID_145_" class="st25" d="M242.6,464.9c0,0,24.7,52.4,69,49.9l-31.4-60.9L242.6,464.9z"/>
			</g>
		</g>
	</g>
</g>
</svg>
