<?xml version="1.0" encoding="utf-8"?>
<!-- Generator: Adobe Illustrator 25.2.0, SVG Export Plug-In . SVG Version: 6.00 Build 0)  -->
<svg version="1.1" id="Layer_1" xmlns="http://www.w3.org/2000/svg" xmlns:xlink="http://www.w3.org/1999/xlink" x="0px" y="0px"
	 viewBox="0 0 2760.6 2000" style="enable-background:new 0 0 2760.6 2000;" xml:space="preserve">
<style type="text/css">
	.st0{fill:url(#SVGID_1_);}
	.st1{fill:#91B3FA;}
	.st2{fill:#FFFFFF;}
	.st3{fill:#BDD0FB;}
	.st4{fill:#7D97F4;}
	.st5{opacity:0.1;fill:#91B3FA;}
	.st6{opacity:0.68;}
	.st7{fill:url(#SVGID_2_);}
	.st8{opacity:0.6;}
	.st9{opacity:0.6;fill:#FFFFFF;}
	.st10{fill:url(#SVGID_3_);}
	.st11{fill:url(#SVGID_4_);}
	.st12{fill:url(#SVGID_5_);}
	.st13{fill:#A81D34;}
	.st14{fill:url(#SVGID_6_);}
	.st15{opacity:0.37;fill:#FFFFFF;}
	.st16{fill:url(#SVGID_7_);}
	.st17{fill:url(#SVGID_8_);}
	.st18{fill:url(#SVGID_9_);}
	.st19{fill:url(#SVGID_10_);}
	.st20{fill:url(#SVGID_11_);}
	.st21{fill:url(#SVGID_12_);}
	.st22{fill:url(#SVGID_13_);}
	.st23{fill:url(#SVGID_14_);}
	.st24{fill:url(#SVGID_15_);}
	.st25{fill:url(#SVGID_16_);}
	.st26{fill:url(#SVGID_17_);}
	.st27{fill:url(#SVGID_18_);}
	.st28{fill:url(#SVGID_19_);}
	.st29{fill:url(#SVGID_20_);}
	.st30{fill:url(#SVGID_21_);}
	.st31{fill:url(#SVGID_22_);}
	.st32{fill:url(#SVGID_23_);}
	.st33{fill:url(#SVGID_24_);}
	.st34{fill:url(#SVGID_25_);}
	.st35{fill:url(#SVGID_26_);}
	.st36{fill:url(#SVGID_27_);}
	.st37{fill:url(#SVGID_28_);}
	.st38{fill:url(#SVGID_29_);}
	.st39{fill:url(#SVGID_30_);}
	.st40{fill:url(#SVGID_31_);}
	.st41{fill:url(#SVGID_32_);}
	.st42{fill:url(#SVGID_33_);}
	.st43{fill:url(#SVGID_34_);}
	.st44{fill:url(#SVGID_35_);}
	.st45{fill:url(#SVGID_36_);}
	.st46{fill:url(#SVGID_37_);}
	.st47{fill:url(#SVGID_38_);}
	.st48{fill:url(#SVGID_39_);}
	.st49{fill:url(#SVGID_40_);}
	.st50{fill:url(#SVGID_41_);}
	.st51{fill:url(#SVGID_42_);}
	.st52{fill:url(#SVGID_43_);}
	.st53{fill:url(#SVGID_44_);}
	.st54{fill:url(#SVGID_45_);}
	.st55{fill:url(#SVGID_46_);}
	.st56{fill:url(#SVGID_47_);}
	.st57{fill:#DCA5AE;}
	.st58{fill:url(#SVGID_48_);}
	.st59{fill:url(#SVGID_49_);}
	.st60{fill:url(#SVGID_50_);}
	.st61{fill:url(#SVGID_51_);}
	.st62{fill:url(#SVGID_52_);}
	.st63{fill:url(#SVGID_53_);}
	.st64{fill:url(#SVGID_54_);}
	.st65{fill:url(#SVGID_55_);}
	.st66{fill:url(#SVGID_56_);}
	.st67{fill:url(#SVGID_57_);}
	.st68{fill:url(#SVGID_58_);}
	.st69{fill:url(#SVGID_59_);}
	.st70{fill:url(#SVGID_60_);}
	.st71{fill:url(#SVGID_61_);}
	.st72{fill:url(#SVGID_62_);}
	.st73{fill:url(#SVGID_63_);}
	.st74{fill:url(#SVGID_64_);}
	.st75{fill:url(#SVGID_65_);}
	.st76{fill:url(#SVGID_66_);}
	.st77{fill:url(#SVGID_67_);}
	.st78{fill:url(#SVGID_68_);}
	.st79{fill:url(#SVGID_69_);}
	.st80{fill:url(#SVGID_70_);}
</style>
<g>
	<linearGradient id="SVGID_1_" gradientUnits="userSpaceOnUse" x1="2575.2158" y1="2538.5718" x2="861.4236" y2="410.1494">
		<stop  offset="0" style="stop-color:#DAE3FE"/>
		<stop  offset="1" style="stop-color:#E9EFFD"/>
	</linearGradient>
	<path class="st0" d="M2106.5,1697.3c-39.5,41.3-76.9,68-106.5,89.1c-347.3,247.6-758.2,175.4-845.5,157.8
		c-129-26-378.2-76.3-558.4-286.9c-272.7-318.6-230.2-820.5-18.7-1151.8c38.7-60.6,243-397,658.4-450.9
		c251.4-32.6,544.4,33.2,756.5,209.8C2437.7,635,2406,1384,2106.5,1697.3z"/>
	<g>
		<g>
			<path class="st1" d="M2304.3,53.2c2.4-10.1-11.8-16.8-20.5-9.7c-88.2,71.5-300,285.6-247.2,659.8c66.2,469.5-47,640.8-188,745.3
				c0,0,193.6-49.1,315.4-223C2463.1,798.8,2262.2,232.4,2304.3,53.2z"/>
			<path class="st2" d="M2237.2,199.8c-11,52.3-20.9,104.7-28.5,157.4c-7.9,52.6-14,105.4-18.1,158.3c-3.9,52.9-6.7,105.8-6.8,158.8
				c-0.4,53,1.8,105.9,4.2,159c2.1,53.1,4.5,106.6,0.6,160.5c-3.8,53.8-15.1,108-37.6,158.8c-5.6,12.7-11.5,25.3-18.2,37.5
				c-6.4,12.3-13.5,24.4-20.9,36.4c-14.8,23.9-31.5,46.9-50,68.8c-37.3,43.7-82.2,82.5-131.7,115.3c-5.2,3.5-12.7,2.6-16.7-1.9
				c-3.9-4.4-3-10.7,1.9-14.2l0,0c11.8-8.3,23.4-16.7,34.6-25.5c5.7-4.3,11.1-8.9,16.7-13.3c5.3-4.6,10.9-9.1,16-13.8
				c21-18.7,40.5-38.7,58.2-59.8c35.5-42,64-88.8,85.5-137.4c10.5-24.4,18.8-49.4,24.9-74.9c6.1-25.5,9.9-51.4,12-77.5
				c4.2-52.3,2.3-105.3,0.7-158.4c-1.6-53.1-2.7-106.5-1.3-159.9c0.6-26.7,1.8-53.3,3.5-80c0.8-13.3,1.8-26.6,2.9-39.9
				c1.2-13.3,2.5-26.6,3.9-39.9c5.7-53.1,13.3-106,22.8-158.7c9.8-52.6,21.2-105,35-156.9c0.4-1.5,2.1-2.4,3.8-2.1
				C2236.5,197,2237.5,198.4,2237.2,199.8z"/>
		</g>
		<g>
			<g>
				<path class="st3" d="M2078.3,1044.3c8.3,13,27.2,13.2,36,0.6c48.7-69.8,168.5-279.5,87.6-561.8c-68.3-238.4-82.7-374.2-85-436.3
					c-0.5-13.1-17.4-18-24.9-7.2C2010.4,159.3,1776,574.5,2078.3,1044.3z"/>
				<path class="st2" d="M2098.7,1039.8c0.4,0.1,0.7,0.2,1.1,0.3c3.3,0.6,6.4-1.6,6.9-4.9c0.6-3.7,62.3-375.4-17.7-711.2
					c-0.8-3.2-4-5.2-7.3-4.5c-3.2,0.8-5.2,4-4.5,7.3c79.4,333.4,18.1,702.7,17.5,706.4C2094.4,1036.1,2096.1,1038.8,2098.7,1039.8z"
					/>
			</g>
		</g>
	</g>
	<g>
		
			<ellipse transform="matrix(4.385796e-02 -0.999 0.999 4.385796e-02 324.0294 2212.707)" class="st4" cx="1318" cy="937.1" rx="840.9" ry="907.7"/>
		<ellipse class="st5" cx="1268.9" cy="876.4" rx="712.2" ry="672.8"/>
		<g class="st6">
			<path class="st2" d="M1549.9,941.1c-0.2,148.3-10.4,296.9-36.5,443.1c-6.6,36.5-14.3,72.9-23.4,108.9
				c-9.2,36-19.8,71.7-32.7,106.5c-13.1,34.8-28.2,69.1-48.8,100.4c-10.4,15.6-22.1,30.5-36.6,42.7c-7.3,6.1-15.2,11.5-24,15.5
				c-8.7,3.9-18.3,6.4-28,6.6c-9.7,0.3-19.4-1.6-28.3-5.2c-8.9-3.6-17.1-8.7-24.5-14.6c-14.9-11.9-26.9-26.6-37.4-42.1
				c-20.9-31.1-36.3-65.3-49.5-100.1c-13.1-34.8-23.8-70.5-33.1-106.4c-9.2-36-17-72.3-23.7-108.8c-13.3-73-22.4-146.8-28.5-220.7
				c-6.1-74-9.1-148.1-9.5-222.3c-0.2-37.1,0.8-74.2,2.1-111.3c1.4-37.1,3.4-74.1,6.2-111.1c5.5-74,13.7-147.8,25.9-221
				c6.1-36.6,13.2-73,21.8-109.1c8.6-36.1,18.6-71.9,31-107c6.2-17.5,13-34.8,20.8-51.7c7.8-16.9,16.4-33.4,26.6-49.1
				c10.2-15.6,22-30.4,36.6-42.3c7.3-5.9,15.4-11,24.2-14.5c8.8-3.5,18.3-5.3,27.8-4.9c9.5,0.3,18.9,2.6,27.5,6.4
				c8.7,3.8,16.6,9,23.9,14.9c14.6,11.9,26.7,26.4,37.4,41.6c21.3,30.7,37.4,64.5,51.3,98.9c13.8,34.5,25.2,69.9,35.1,105.7
				c9.9,35.8,18.3,72,25.5,108.4C1537.8,644.2,1549.5,792.8,1549.9,941.1z M1538.9,941.1c0.1-73.9-2.7-147.8-8.8-221.5
				c-6.1-73.6-15.2-147.1-28.9-219.7c-6.8-36.3-14.8-72.4-24.2-108.1c-9.5-35.7-20.4-71-33.8-105.4c-13.4-34.3-29-68-49.7-98.5
				c-10.4-15.1-22.1-29.5-36.2-41.2c-7-5.8-14.7-10.9-22.9-14.7c-8.2-3.7-17.1-6.1-26.2-6.4c-9-0.3-18.1,1.5-26.4,5
				c-8.4,3.4-16.1,8.4-23.1,14.2c-14,11.7-25.4,26.3-35.3,41.8c-9.9,15.5-18.3,31.9-25.8,48.7c-7.5,16.8-14.1,34.1-20.1,51.5
				c-11.9,34.9-21.5,70.6-29.6,106.7c-8.1,36-14.8,72.4-20.5,108.9c-11.3,73-18.7,146.7-23.4,220.4c-4.7,73.8-6.3,147.7-6.2,221.6
				c-0.2,73.9,2.3,147.8,7.8,221.5c5.5,73.7,14,147.2,26.7,220c6.4,36.4,13.8,72.6,22.7,108.4c8.9,35.8,19.3,71.3,32,105.9
				c12.8,34.5,27.8,68.4,48,99c10.2,15.2,21.8,29.5,35.8,40.9c7,5.7,14.6,10.5,22.9,13.9c8.2,3.4,17.1,5.2,25.9,4.9
				c8.8-0.2,17.6-2.6,25.6-6.3c8.1-3.7,15.6-8.9,22.4-14.7c13.7-11.8,25.1-26.3,35.1-41.6c19.9-30.8,34.6-64.8,47.3-99.4
				c12.6-34.6,22.8-70.1,31.6-106c8.8-35.8,16.1-72.1,22.4-108.4c12.6-72.8,21-146.3,26.5-220C1536.3,1089,1538.9,1015,1538.9,941.1
				z"/>
			<path class="st2" d="M1924,941.1c-0.5,95.5-12.8,191.1-38.4,283.2c-26,91.9-65.2,180.3-118.5,259.7
				c-26.6,39.6-56.8,77-90.5,110.8c-33.7,33.8-70.9,64.2-111.4,89.7c-40.5,25.4-84.2,45.7-130,59.4c-45.7,13.8-93.5,21-141.3,21.1
				c-47.8,0-95.6-7.2-141.3-20.9c-45.8-13.7-89.5-34-130.1-59.3c-40.5-25.4-77.8-55.8-111.5-89.6c-33.8-33.8-64-71.1-90.7-110.8
				c-53.3-79.4-92.6-167.8-118.8-259.8c-12.9-46.1-22.4-93-28.8-140.4c-6.3-47.4-9.5-95.2-9.7-143c0.2-47.8,3.4-95.6,9.8-143
				c6.4-47.4,16-94.3,28.9-140.4c26.2-91.9,65.6-180.3,118.9-259.6c26.7-39.6,56.9-76.9,90.7-110.7c33.7-33.8,71-64.1,111.5-89.4
				c40.5-25.3,84.3-45.4,130-59.1c45.7-13.8,93.4-21,141.1-21c47.7,0.1,95.4,7.3,141.1,21.1c45.7,13.8,89.4,33.9,129.9,59.2
				c40.4,25.4,77.7,55.7,111.3,89.5c33.7,33.8,63.9,71.1,90.5,110.7c53.3,79.3,92.6,167.6,118.6,259.5
				C1911.1,750.1,1923.4,845.6,1924,941.1z M1911.4,941.1c-0.1-94.4-11.9-188.9-36.8-280.1c-25.1-91-62.8-178.9-114.7-257.9
				c-26-39.5-55.4-76.7-88.4-110.5c-33-33.8-69.5-64.3-109.4-89.7c-39.9-25.2-83.1-45.6-128.3-59.3c-45.2-13.8-92.4-21-139.7-21.1
				c-47.3,0.2-94.5,7.5-139.7,21.3c-45.2,13.8-88.3,34.1-128.2,59.4c-39.9,25.4-76.3,56-109.2,89.8c-33,33.8-62.4,71-88.3,110.5
				c-51.8,79-89.5,166.8-114.4,257.8c-12.4,45.5-21.4,92-27.5,138.7c-6.1,46.8-9.1,94-9.2,141.1c0.1,47.2,3.2,94.4,9.3,141.1
				c6.1,46.8,15.2,93.2,27.6,138.7c25,90.9,62.7,178.7,114.6,257.6c25.9,39.4,55.3,76.6,88.3,110.4c33,33.7,69.4,64.3,109.2,89.6
				c39.9,25.2,83,45.4,128.1,59.2c45.1,13.8,92.2,21.1,139.4,21.4c47.2-0.2,94.3-7.5,139.5-21.2c45.2-13.7,88.3-33.9,128.2-59.1
				c39.9-25.3,76.3-55.8,109.4-89.5c33-33.8,62.5-70.9,88.4-110.4c52-78.9,89.7-166.7,114.9-257.7
				C1899.4,1130.1,1911.2,1035.6,1911.4,941.1z"/>
			<path class="st2" d="M559,616.8c-0.5,0-0.8-0.4-0.8-0.8c0-0.5,0.4-0.8,0.8-0.8l189.2-1.5l189.2-0.9l378.4-0.7l378.4,0.8
				l189.2,0.9l189.2,1.6c0.3,0,0.6,0.3,0.6,0.6c0,0.3-0.2,0.5-0.6,0.6l-189.2,1.6l-189.2,0.9l-378.4,0.8l-378.4-0.7l-189.2-0.9
				L559,616.8z"/>
			<path class="st2" d="M777.7,299.1c0-0.4,0.4-0.8,0.8-0.8c44.8-0.7,89.5-1,134.3-1.5l134.3-0.9c44.8-0.4,89.5-0.3,134.3-0.4
				l134.3-0.3l268.6,0.8l134.3,0.9c44.8,0.6,89.5,0.9,134.3,1.6c0.3,0,0.6,0.3,0.5,0.6c0,0.3-0.2,0.5-0.5,0.5
				c-44.8,0.8-89.5,1.1-134.3,1.6l-134.3,0.9l-268.6,0.8l-134.3-0.3c-44.8-0.1-89.5-0.1-134.3-0.4l-134.3-0.9
				c-44.8-0.5-89.5-0.8-134.3-1.5C778,300,777.7,299.6,777.7,299.1z"/>
			<path class="st2" d="M493.3,933.7c-0.5,0-0.8-0.4-0.8-0.8c0-0.5,0.4-0.8,0.8-0.8l205.6-1.5l205.6-0.9l411.2-0.7l411.2,0.8
				l205.6,0.9l205.6,1.6c0.3,0,0.6,0.3,0.6,0.6c0,0.3-0.2,0.5-0.6,0.6l-205.6,1.6l-205.6,0.9l-411.2,0.8l-411.2-0.7l-205.6-0.9
				L493.3,933.7z"/>
			<path class="st2" d="M559,1248.9l189.2-1.5l189.2-0.9l378.4-0.7l378.4,0.8l189.2,0.9l189.2,1.6c0.3,0,0.6,0.3,0.6,0.6
				c0,0.3-0.2,0.5-0.6,0.6l-189.2,1.6l-189.2,0.9l-378.4,0.8l-378.4-0.7l-189.2-0.9l-189.2-1.5c-0.5,0-0.8-0.4-0.8-0.8
				C558.2,1249.2,558.6,1248.9,559,1248.9z"/>
			<path class="st2" d="M1882.9,1566.6c0,1.6-1.3,2.9-2.9,2.9H805.5c-1.6,0-2.9-1.3-2.9-2.9c0-1.6,1.3-2.9,2.9-2.9H1880
				C1881.6,1563.7,1882.9,1565,1882.9,1566.6z"/>
		</g>
	</g>
	<g>
		<linearGradient id="SVGID_2_" gradientUnits="userSpaceOnUse" x1="1058.6708" y1="1176.5438" x2="2243.2063" y2="1176.5438">
			<stop  offset="0" style="stop-color:#4F52FF"/>
			<stop  offset="1" style="stop-color:#4042E2"/>
		</linearGradient>
		<path class="st7" d="M2111.4,422.8L1197,438.2c-50.4,0.8-91.4,41.1-93.1,91.5l-45.2,1326.9c-1.3,39.5,30.3,72.2,69.7,72.2
			l1048.4,1.4c37.1,0.1,67-30.3,66.4-67.4l-22.4-1334.3C2219.8,469.2,2170.8,421.8,2111.4,422.8z"/>
		<path class="st3" d="M2023.3,1910.8L2023.3,1910.8l117.3-3.5c39.5-1.2,71-34.2,70.4-73.7l-3-177.1c0-1.6-1.4-3-3-2.9
			c-1.7,0.1-3,1.4-2.9,3l3,177.1c0.6,36.2-28.4,66.6-64.6,67.7l-117.2,3.5c-1.7,0-2.9,1.4-2.9,3.1
			C2020.3,1909.5,2021.6,1910.8,2023.3,1910.8z"/>
		<path class="st3" d="M2204.1,1604.7c1.6,0,2.9-1.4,2.9-3l-0.5-28.7c0-1.6-1.4-3-3-2.9c0,0,0,0,0,0c-1.6,0-2.9,1.4-2.9,3l0.5,28.7
			C2201.1,1603.4,2202.4,1604.7,2204.1,1604.7C2204.1,1604.7,2204.1,1604.7,2204.1,1604.7z"/>
		<g>
			<path class="st1" d="M2108.4,412.1c-124.6,19-553.1,78.6-908.6,57.3c-16.2-1-30.1,11.5-30.6,27.8l-48.4,1332.8
				c-0.7,18.3,13.5,33.7,31.8,34.4c149.5,6.3,765,30.1,983.9,3.5c13.3-1.6,23.3-13,23.1-26.5l-15.3-1398.8
				C2144.2,423.7,2127.2,409.3,2108.4,412.1z"/>
			<path class="st3" d="M2095.6,446.9c-119.9,18.3-532.3,75.7-874.4,55.2c-15.6-0.9-28.9,11.1-29.5,26.7l-46.6,1282.6
				c-0.6,17.6,13,32.4,30.6,33.1c143.8,6.1,736.2,29,946.9,3.4c12.8-1.6,22.4-12.5,22.3-25.5l-14.7-1346.2
				C2130,458,2113.7,444.2,2095.6,446.9z"/>
			<g class="st8">
				<path class="st2" d="M1232.9,614.5c-4.9,0.1-8.7-3.9-8.5-8.8l0-0.6c0.2-4.9,4.5-9,9.4-9.1l776.1-19.2c4.9-0.1,6.5,3,3.5,6.9
					l-8.4,10.9c-3,3.9-9.5,7.1-14.4,7.2L1232.9,614.5z"/>
			</g>
			<g class="st8">
				<path class="st2" d="M2010.8,628c4.9-0.1,6.5,3,3.5,6.9l-8.4,10.9c-3,3.9-9.5,7.1-14.4,7.2l-757.7,12.7
					c-4.9,0.1-8.7-3.9-8.5-8.8l0-0.6c0.2-4.9,4.5-9,9.4-9.1L2010.8,628z"/>
			</g>
			<path class="st2" d="M1858.5,1071.7c-0.4-40-0.3-77.5,5.4-97.3c3.4-12,15.3-20.1,29-19.9c0.1,0,0.3,0,0.4,0
				c19.1,0.5,51.5,3.8,80.1,6.7c13.1,1.3,25.1,2.5,33.8,3.3l0,0c6.3,0.5,12,3.5,15.8,8.1c3.4,4.1,4.9,9.2,4.3,14.4l-10.4,86.2
				c-1.6,13.4-14,23.4-28.8,23.3l-102.9-0.6c-0.1,0-0.2,0-0.3,0C1870.4,1095.5,1858.7,1084.8,1858.5,1071.7z M2006.4,972.8
				c-8.7-0.7-20.7-1.9-33.9-3.3c-27.1-2.7-60.7-6.1-79.5-6.7c-9.6-0.5-18.7,5.5-21.1,13.8c-5.4,18.7-5.5,55.6-5.1,94.9
				c0.1,8.6,8.1,15.6,18,15.8c0.1,0,0.1,0,0.2,0l102.9,0.6c10.6,0.1,19.4-6.8,20.5-15.9l10.4-86.2c0.3-2.8-0.5-5.7-2.4-8.1
				C2014.1,974.9,2010.5,973.1,2006.4,972.8L2006.4,972.8z"/>
			<path class="st9" d="M1995.3,981.3c-21.6-1.8-68.5-7.3-90.8-7.9c-9.4-0.3-17.8,5.3-20.2,13.5c-4.5,15.8-4.5,47.5-4.2,76.8
				c0.1,8.8,8,15.9,17.9,15.9l82.3,0.5c10.1,0.1,18.6-6.7,19.7-15.7l8.3-68.9C2009.1,988.4,2003.3,981.9,1995.3,981.3z"/>
			<g class="st8">
				<path class="st2" d="M1795.3,1004.8c4.9,0,7.8,3.8,6.5,8.5l-9.5,34c-1.3,4.7-6.4,8.5-11.3,8.5l-517.2-8
					c-4.9-0.1-8.8-4.2-8.6-9.1l0.8-20.5c0.2-4.9,4.4-9,9.3-9L1795.3,1004.8z"/>
			</g>
			<path class="st2" d="M1852.6,840.6c-0.4-40-0.3-77.5,5.4-97.3c3.4-12,15.3-20.1,29-19.9c0.1,0,0.3,0,0.4,0
				c19.1,0.5,51.5,3.8,80.1,6.7c13.1,1.3,25.1,2.5,33.8,3.3l0,0c6.3,0.5,12,3.5,15.8,8.1c3.4,4.1,4.9,9.2,4.3,14.4l-10.4,86.2
				c-1.6,13.4-14,23.4-28.8,23.3l-102.9-0.6c-0.1,0-0.2,0-0.3,0C1864.4,864.5,1852.7,853.7,1852.6,840.6z M2000.5,741.7
				c-8.7-0.7-20.7-1.9-33.9-3.3c-27.1-2.7-60.7-6.1-79.5-6.7c-9.6-0.5-18.7,5.5-21.1,13.8c-5.4,18.7-5.5,55.6-5.1,94.9
				c0.1,8.6,8.1,15.6,18,15.8c0.1,0,0.1,0,0.2,0l102.9,0.6c10.6,0.1,19.4-6.8,20.5-15.9l10.4-86.2c0.3-2.8-0.5-5.7-2.4-8.1
				C2008.1,743.9,2004.5,742,2000.5,741.7L2000.5,741.7z"/>
			<path class="st9" d="M1989.3,750.2c-21.6-1.8-68.5-7.3-90.8-7.9c-9.4-0.3-17.8,5.3-20.2,13.5c-4.5,15.8-4.5,47.5-4.2,76.8
				c0.1,8.8,8,15.9,17.9,15.9l82.3,0.5c10.1,0.1,18.6-6.7,19.7-15.7l8.3-68.9C2003.1,757.3,1997.3,750.9,1989.3,750.2z"/>
			<g class="st8">
				<path class="st2" d="M1789.4,773.7c4.9,0,7.8,3.8,6.5,8.5l-9.5,34c-1.3,4.7-6.4,8.5-11.3,8.5l-517.2-8c-4.9-0.1-8.8-4.2-8.6-9.1
					l0.8-20.5c0.2-4.9,4.4-9,9.3-9L1789.4,773.7z"/>
			</g>
			<path class="st2" d="M1855.1,1292.2c-0.4-40-0.3-77.5,5.4-97.3c3.4-12,15.3-20.1,29-19.9c0.1,0,0.3,0,0.4,0
				c19.1,0.5,51.5,3.8,80.1,6.7c13.1,1.3,25.1,2.5,33.8,3.3l0,0c6.3,0.5,12,3.5,15.8,8.1c3.4,4.1,4.9,9.2,4.3,14.4l-10.4,86.2
				c-1.6,13.4-14,23.4-28.8,23.3l-102.9-0.6c-0.1,0-0.2,0-0.3,0C1867,1316.1,1855.2,1305.3,1855.1,1292.2z M2003,1193.3
				c-8.7-0.7-20.7-1.9-33.9-3.3c-27.1-2.7-60.7-6.1-79.5-6.6c-9.6-0.4-18.7,5.5-21.1,13.8c-5.4,18.7-5.5,55.6-5.1,94.9
				c0.1,8.6,8.1,15.6,18,15.8c0.1,0,0.1,0,0.2,0l102.9,0.6c10.6,0.1,19.4-6.8,20.5-15.9l10.4-86.2c0.3-2.8-0.5-5.7-2.4-8.1
				C2010.7,1195.5,2007,1193.7,2003,1193.3L2003,1193.3z"/>
			<path class="st9" d="M1991.8,1201.8c-21.6-1.8-68.5-7.3-90.8-7.9c-9.4-0.3-17.8,5.3-20.2,13.5c-4.5,15.8-4.5,47.5-4.2,76.8
				c0.1,8.8,8,15.9,17.9,15.9l82.3,0.5c10.1,0.1,18.6-6.7,19.7-15.7l8.3-68.9C2005.7,1208.9,1999.8,1202.5,1991.8,1201.8z"/>
			<g class="st8">
				<path class="st2" d="M1791.9,1225.3c4.9,0,7.8,3.8,6.5,8.5l-9.5,34c-1.3,4.7-6.4,8.5-11.3,8.5l-517.2-8
					c-4.9-0.1-8.8-4.2-8.6-9.1l0.8-20.5c0.2-4.9,4.4-9,9.3-9L1791.9,1225.3z"/>
			</g>
			<path class="st2" d="M1861.4,1504.2c-0.4-40-0.3-77.5,5.4-97.3c3.5-12.1,15.8-20.2,29.4-19.9c19.1,0.5,52.9,3.9,80.1,6.7
				c13.1,1.3,25.1,2.5,33.7,3.3l0,0c6.3,0.5,12,3.5,15.8,8.1c3.4,4.1,4.9,9.2,4.3,14.4l-10.4,86.2c-1.6,13.4-14,23.4-28.8,23.3
				l-102.9-0.6c-0.1,0-0.2,0-0.3,0C1873.3,1528.1,1861.6,1517.3,1861.4,1504.2z M2009.3,1405.3c-8.7-0.7-20.7-1.9-33.9-3.3
				c-27.1-2.7-60.8-6.1-79.5-6.7c-9.6-0.3-18.7,5.5-21.1,13.8c-5.4,18.7-5.5,55.6-5.1,94.9c0.1,8.6,8.5,15.5,18.2,15.8l102.9,0.6
				c10.6,0.1,19.4-6.8,20.5-15.9l10.4-86.2c0.3-2.8-0.5-5.7-2.4-8.1C2017,1407.5,2013.4,1405.6,2009.3,1405.3L2009.3,1405.3z"/>
			<path class="st9" d="M1998.2,1413.8c-21.6-1.8-68.5-7.3-90.8-7.9c-9.4-0.3-17.8,5.3-20.2,13.5c-4.5,15.8-4.5,47.5-4.2,76.8
				c0.1,8.8,8,15.9,17.9,15.9l82.3,0.5c10.1,0.1,18.6-6.7,19.7-15.7l8.3-68.9C2012,1420.9,2006.2,1414.4,1998.2,1413.8z"/>
			<g class="st8">
				<path class="st2" d="M1798.2,1437.3c4.9,0,7.8,3.8,6.5,8.5l-9.5,34c-1.3,4.7-6.4,8.5-11.3,8.5l-517.2-8
					c-4.9-0.1-8.8-4.2-8.6-9.1l0.8-20.5c0.2-4.9,4.4-9,9.3-9L1798.2,1437.3z"/>
			</g>
			<g class="st8">
				<path class="st2" d="M1748.5,1655c4.9-0.1,7.9,3.8,6.7,8.6l-8.6,33.9c-1.2,4.8-6.2,8.6-11.1,8.5l-460.6-7.2
					c-4.9-0.1-8.8-4.2-8.6-9.1l0.7-20.5c0.2-4.9,4.3-9,9.2-9L1748.5,1655z"/>
			</g>
			<g class="st8">
				<path class="st2" d="M2001.3,1669.4c4.9-0.2,8.4,3.6,7.8,8.5l-3.1,25.8c-0.6,4.9-5.1,8.8-10,8.7l-163.3-2.5
					c-4.9-0.1-8.8-4.2-8.7-9.1l0.4-14.7c0.1-4.9,4.2-9.1,9.1-9.3L2001.3,1669.4z"/>
			</g>
		</g>
		
			<linearGradient id="SVGID_3_" gradientUnits="userSpaceOnUse" x1="1207.6251" y1="1317.6312" x2="793.8024" y2="1862.0052" gradientTransform="matrix(0.8398 -0.543 0.543 0.8398 -76.4733 -389.4459)">
			<stop  offset="0" style="stop-color:#09005D"/>
			<stop  offset="1" style="stop-color:#1A0F91"/>
		</linearGradient>
		<path class="st10" d="M1594.8,381l103.6-11l7.1-95.3c1.4-19.2-10.8-36.8-29.4-41.9c-20.3-5.6-49-5.6-81.7,17.9
			C1530.5,296.9,1594.8,381,1594.8,381z M1615.1,301.3c-0.2-14.3,11.1-26.1,25.4-26.3c14.3-0.2,26.1,11.1,26.3,25.4
			c0.2,14.3-11.1,26.1-25.4,26.3C1627.1,327,1615.3,315.6,1615.1,301.3z"/>
		<g>
			<path class="st3" d="M1686.9,332.8c-2.8-0.2-5-2.7-4.7-5.5l1.1-15.2c0.2-2.8,2.7-5,5.5-4.7c2.8,0.2,5,2.7,4.7,5.5l-1.1,15.2
				c-0.2,2-1.5,3.7-3.3,4.4C1688.5,332.7,1687.7,332.8,1686.9,332.8z M1689.2,303c-2.8-0.2-5-2.7-4.7-5.5l0.9-11.5
				c1.1-14.6-8.3-28.1-22.4-32c-11.2-3.1-22.7-3.4-34.2-0.8c-2.8,0.6-5.5-1.1-6.1-3.9c-0.6-2.8,1.2-5.5,3.9-6.1
				c13.2-2.9,26.4-2.6,39.2,1c18.8,5.2,31.4,23.1,29.9,42.7l-0.9,11.5c-0.2,2-1.5,3.7-3.3,4.4C1690.7,303,1689.9,303.1,1689.2,303z"
				/>
		</g>
		
			<linearGradient id="SVGID_4_" gradientUnits="userSpaceOnUse" x1="-1405.8726" y1="3638.4673" x2="-1826.5076" y2="4191.8027" gradientTransform="matrix(-0.9999 1.680000e-02 1.680000e-02 0.9999 -22.2441 -3462.6858)">
			<stop  offset="0" style="stop-color:#09005D"/>
			<stop  offset="1" style="stop-color:#1A0F91"/>
		</linearGradient>
		<path class="st11" d="M1841,429.1l-0.8-47.8c-0.3-16.5-14.2-29.5-30.7-28.7l-329.7,16.8c-14.6,0.7-26.3,12.5-26.9,27.1l-2,46
			L1841,429.1z"/>
		<path class="st3" d="M1731.3,372.5c1.6,0,2.9-1.4,2.9-3c0-1.7-1.4-3-3-2.9l-14.2,0.2c-1.7,0-3,1.4-2.9,3c0,1.7,1.4,3,3,2.9
			L1731.3,372.5C1731.2,372.5,1731.2,372.5,1731.3,372.5z"/>
		<path class="st3" d="M1824.7,416.7c2-0.8,3.3-2.7,3.3-4.9l-0.3-19.4c-0.1-7.9-3.4-15.4-9.1-20.9c-5.7-5.5-13.2-8.5-21.2-8.4
			l-52.2,0.9c-2.8,0.1-5.1,2.4-5.1,5.2c0,2.8,2.4,5.1,5.2,5.1l52.2-0.9c10.7-0.2,19.6,8.4,19.8,19.2l0.3,19.4c0,2.8,2.4,5.1,5.2,5.1
			C1823.6,417,1824.2,416.9,1824.7,416.7z"/>
		
			<linearGradient id="SVGID_5_" gradientUnits="userSpaceOnUse" x1="-1458.8812" y1="3672.3167" x2="-1749.3187" y2="4205.6191" gradientTransform="matrix(-0.9999 1.680000e-02 1.680000e-02 0.9999 -22.2441 -3462.6858)">
			<stop  offset="0" style="stop-color:#09005D"/>
			<stop  offset="1" style="stop-color:#1A0F91"/>
		</linearGradient>
		<path class="st12" d="M1944.1,409.9l-576.9,9.7c-20.7,0.3-38.2,15.6-41.4,36.1l-0.4,2.8c-3.5,22.5,14.1,42.6,36.8,42.3l591.8-10
			c13.6-0.2,24.2-11.8,23.4-25.3l-1.7-26.5C1974.6,422.4,1960.7,409.6,1944.1,409.9z"/>
		<path class="st13" d="M1993.4,1010.4L1993.4,1010.4c-6.1-4.8-15-3.7-19.7,2.5l-22.1,29.2c-2.2,2.9-6.8,2.1-7.8-1.4l-30.2-103.7
			c-1.5-5.2-9-4.5-9.7,0.8c-3.7,29.9-3.7,87.8,37.4,141.9c0,0,27.7-6.6,55.4-50.1C2000.6,1023.3,1999.2,1015,1993.4,1010.4z"/>
		<path class="st13" d="M1985.3,764.5L1985.3,764.5c-6.1-4.8-15-3.7-19.7,2.5l-22.1,29.2c-2.2,2.9-6.8,2.1-7.8-1.4L1905.4,691
			c-1.5-5.2-9-4.5-9.7,0.8c-3.7,29.9-3.7,87.8,37.4,141.9c0,0,27.7-6.6,55.4-50.1C1992.5,777.4,1991.1,769.1,1985.3,764.5z"/>
		<path class="st13" d="M1981.6,1222.9L1981.6,1222.9c-6.1-4.8-15-3.7-19.7,2.5l-22.1,29.2c-2.2,2.9-6.8,2.1-7.8-1.4l-30.2-103.7
			c-1.5-5.2-9-4.5-9.7,0.8c-3.7,29.9-3.7,87.8,37.4,141.9c0,0,27.7-6.6,55.4-50.1C1988.8,1235.8,1987.4,1227.5,1981.6,1222.9z"/>
		<path class="st13" d="M1990.7,1425.1L1990.7,1425.1c-6.1-4.8-15-3.7-19.7,2.5l-22.1,29.2c-2.2,2.9-6.8,2.1-7.8-1.4l-30.2-103.7
			c-1.5-5.2-9-4.5-9.7,0.8c-3.7,29.9-3.7,87.8,37.4,141.9c0,0,27.7-6.6,55.4-50.1C1997.9,1438.1,1996.6,1429.7,1990.7,1425.1z"/>
	</g>
	<g>
		<g>
			<linearGradient id="SVGID_6_" gradientUnits="userSpaceOnUse" x1="1690.7394" y1="1496.8483" x2="890.1137" y2="1897.162">
				<stop  offset="0" style="stop-color:#A81D34"/>
				<stop  offset="1" style="stop-color:#FF928E"/>
			</linearGradient>
			<path class="st14" d="M1611.3,1944c43.8,0.8,79.8-34.5,79.8-78.3v-348.4c0-45.8-36.8-83-82.6-83.5c-137.4-1.5-420.7-1.6-652.5,18
				c-31.6,2.7-56.2,28.6-57.4,60.3l-21.7,336.8c-1.6,44.6,33.6,81.8,78.2,82.6L1611.3,1944z"/>
			<path class="st2" d="M1611.5,1555c0.6,29.6-0.3,76.7-1,107.1c-0.4,15.8-14.3,27.9-30,26l-113.1-13.3
				c-15.1-1.8-25.7-15.6-23.4-30.6l13.9-92.6c2-13.1,13.3-22.9,26.5-22.9h100.2C1599.3,1528.8,1611.2,1540.4,1611.5,1555z"/>
			<path class="st15" d="M1316.1,1730.5l-94.3,10.2c-13.2,1.4-24.5-9.5-23.5-22.7l20.6-280.5c39.5-1.3,78.5-2.2,116.2-2.8v274.7
				C1335,1720.2,1326.9,1729.3,1316.1,1730.5z"/>
			<path class="st2" d="M1277.4,1681.8c-0.3,5-4.5,8.9-9.5,8.9c-0.2,0-0.4,0-0.6,0c-5.2-0.3-9.2-4.8-8.9-10l14.2-244.9
				c6.4-0.2,12.7-0.3,19-0.4L1277.4,1681.8z"/>
			<g>
				
					<linearGradient id="SVGID_7_" gradientUnits="userSpaceOnUse" x1="-911.8959" y1="1546.1075" x2="-1114.2756" y2="1840.1901" gradientTransform="matrix(-1 0 0 1 611.5464 0)">
					<stop  offset="0" style="stop-color:#09005D"/>
					<stop  offset="1" style="stop-color:#1A0F91"/>
				</linearGradient>
				<path class="st16" d="M1559.2,1643.4c1.7,0,3.1-1.3,3.2-3l4.9-77.1c0.1-1.7-1.2-3.2-3-3.4c-1.8-0.1-3.2,1.2-3.4,3l-4.9,77.1
					c-0.1,1.7,1.2,3.2,3,3.4C1559.1,1643.4,1559.2,1643.4,1559.2,1643.4z"/>
				
					<linearGradient id="SVGID_8_" gradientUnits="userSpaceOnUse" x1="-904.619" y1="1551.1156" x2="-1106.9987" y2="1845.1982" gradientTransform="matrix(-1 0 0 1 611.5464 0)">
					<stop  offset="0" style="stop-color:#09005D"/>
					<stop  offset="1" style="stop-color:#1A0F91"/>
				</linearGradient>
				<path class="st17" d="M1549.2,1643.4c1.7,0,3.1-1.3,3.2-3.1l2.6-78.6c0.1-1.7-1.3-3.2-3.1-3.3c-2-0.1-3.2,1.3-3.3,3.1l-2.6,78.6
					c-0.1,1.7,1.3,3.2,3.1,3.3C1549.1,1643.4,1549.1,1643.4,1549.2,1643.4z"/>
				
					<linearGradient id="SVGID_9_" gradientUnits="userSpaceOnUse" x1="-895.8387" y1="1557.1577" x2="-1098.2185" y2="1851.2405" gradientTransform="matrix(-1 0 0 1 611.5464 0)">
					<stop  offset="0" style="stop-color:#09005D"/>
					<stop  offset="1" style="stop-color:#1A0F91"/>
				</linearGradient>
				<path class="st18" d="M1535.5,1643.4c-1.7-0.1-3.1-1.6-3-3.3c1.3-26.4,3.6-76.8,3.7-78.5c0-1.7,1.4-3.1,3.2-3.1
					c1.7,0,3.2,1.4,3.2,3.2c0,1.3-3.1,65.8-3.7,78.7c-0.1,1.7-1.5,3-3.2,3C1535.6,1643.4,1535.6,1643.4,1535.5,1643.4z
					 M1536.1,1561.6L1536.1,1561.6L1536.1,1561.6z"/>
				
					<linearGradient id="SVGID_10_" gradientUnits="userSpaceOnUse" x1="-880.6517" y1="1567.6093" x2="-1083.0309" y2="1861.691" gradientTransform="matrix(-1 0 0 1 611.5464 0)">
					<stop  offset="0" style="stop-color:#09005D"/>
					<stop  offset="1" style="stop-color:#1A0F91"/>
				</linearGradient>
				<path class="st19" d="M1514.6,1646.5c3.4,0,6.2-2.7,6.3-6.1c2.7-76.2,2.2-77.9,1.9-79c-0.9-3.4-4.4-5.4-7.8-4.4
					c-3.1,0.8-5,3.8-4.6,6.9c0.2,4.6-1.2,48.9-2.2,76.1c-0.1,3.5,2.6,6.4,6.1,6.5C1514.4,1646.5,1514.5,1646.5,1514.6,1646.5z"/>
				
					<linearGradient id="SVGID_11_" gradientUnits="userSpaceOnUse" x1="-870.6376" y1="1574.5006" x2="-1073.0172" y2="1868.5831" gradientTransform="matrix(-1 0 0 1 611.5464 0)">
					<stop  offset="0" style="stop-color:#09005D"/>
					<stop  offset="1" style="stop-color:#1A0F91"/>
				</linearGradient>
				<path class="st20" d="M1500.9,1643.4c1.7,0,3.2-1.4,3.2-3.2v-77.1c0-1.7-1.4-3.2-3.2-3.2c-1.7,0-3.2,1.4-3.2,3.2v77.1
					C1497.7,1642,1499.1,1643.4,1500.9,1643.4z"/>
				
					<linearGradient id="SVGID_12_" gradientUnits="userSpaceOnUse" x1="-864.4209" y1="1578.7792" x2="-1066.7991" y2="1872.8596" gradientTransform="matrix(-1 0 0 1 611.5464 0)">
					<stop  offset="0" style="stop-color:#09005D"/>
					<stop  offset="1" style="stop-color:#1A0F91"/>
				</linearGradient>
				<path class="st21" d="M1489.8,1643.4c1.7,0,3.1-1.4,3.2-3.1c0.6-26.8,2-70.6,3.3-75.8c0.6-1,0.5-2.3-0.1-3.3
					c-1-1.5-2.9-1.9-4.4-0.9c-1.7,1.1-3.4,2.2-5.1,79.9C1486.6,1641.9,1488,1643.3,1489.8,1643.4L1489.8,1643.4z"/>
				
					<linearGradient id="SVGID_13_" gradientUnits="userSpaceOnUse" x1="-922.3091" y1="1538.9421" x2="-1124.6877" y2="1833.0232" gradientTransform="matrix(-1 0 0 1 611.5464 0)">
					<stop  offset="0" style="stop-color:#09005D"/>
					<stop  offset="1" style="stop-color:#1A0F91"/>
				</linearGradient>
				<path class="st22" d="M1576.2,1650.4c3.3,0,6.1-2.6,6.3-6l4.2-81c0.2-3.5-2.5-6.5-6-6.6c-3.3-0.2-6.5,2.5-6.6,6l-4.2,81
					c-0.2,3.5,2.5,6.5,6,6.6C1576,1650.4,1576.1,1650.4,1576.2,1650.4z"/>
			</g>
		</g>
		<g>
			<linearGradient id="SVGID_14_" gradientUnits="userSpaceOnUse" x1="1025.2424" y1="1258.5071" x2="1601.1171" y2="1258.5071">
				<stop  offset="0" style="stop-color:#A81D34"/>
				<stop  offset="1" style="stop-color:#FF928E"/>
			</linearGradient>
			<path class="st23" d="M1630.4,1382.9v-244.7c0-32.1-25.8-58.3-58-58.7c-96.5-1.1-295.5-1.1-458.3,12.6
				c-22.2,1.9-39.5,20.1-40.3,42.4l-15.2,236.6c-1.1,31.3,23.6,57.4,54.9,58l460.8,8.8C1605.1,1438.5,1630.4,1413.7,1630.4,1382.9z"
				/>
			<path class="st2" d="M1574.5,1164.7c0.4,20.8-0.2,53.9-0.7,75.2c-0.3,11.1-10,19.6-21,18.3l-79.4-9.3c-10.6-1.2-18-11-16.5-21.5
				l9.7-65c1.4-9.2,9.3-16.1,18.6-16.1h70.4C1565.9,1146.2,1574.3,1154.4,1574.5,1164.7z"/>
			<path class="st15" d="M1367,1287.9l-66.2,7.1c-9.3,1-17.2-6.6-16.5-15.9l14.5-197c27.8-0.9,55.2-1.5,81.6-2V1273
				C1380.4,1280.7,1374.6,1287.1,1367,1287.9z"/>
			<path class="st2" d="M1339.9,1253.7c-0.2,3.5-3.1,6.3-6.6,6.3c-0.1,0-0.3,0-0.4,0c-3.7-0.2-6.5-3.4-6.3-7l10-172
				c4.5-0.1,8.9-0.2,13.4-0.3L1339.9,1253.7z"/>
			<g>
				
					<linearGradient id="SVGID_15_" gradientUnits="userSpaceOnUse" x1="-901.1295" y1="1158.4253" x2="-1043.2554" y2="1364.9518" gradientTransform="matrix(-1 0 0 1 611.5464 0)">
					<stop  offset="0" style="stop-color:#09005D"/>
					<stop  offset="1" style="stop-color:#1A0F91"/>
				</linearGradient>
				<path class="st24" d="M1537.8,1226.7c1.2,0,2.1-0.9,2.2-2.1l3.4-54.2c0.1-1.2-0.9-2.3-2.1-2.4c-1.3-0.1-2.3,0.9-2.4,2.1
					l-3.4,54.2c-0.1,1.2,0.9,2.3,2.1,2.4C1537.7,1226.7,1537.8,1226.7,1537.8,1226.7z"/>
				
					<linearGradient id="SVGID_16_" gradientUnits="userSpaceOnUse" x1="-896.0191" y1="1161.9423" x2="-1038.145" y2="1368.4688" gradientTransform="matrix(-1 0 0 1 611.5464 0)">
					<stop  offset="0" style="stop-color:#09005D"/>
					<stop  offset="1" style="stop-color:#1A0F91"/>
				</linearGradient>
				<path class="st25" d="M1530.7,1226.7c1.2,0,2.2-0.9,2.2-2.1l1.8-55.2c0-1.2-0.9-2.3-2.1-2.3c-1.4-0.1-2.3,0.9-2.3,2.1l-1.8,55.2
					C1528.5,1225.7,1529.4,1226.7,1530.7,1226.7C1530.7,1226.7,1530.7,1226.7,1530.7,1226.7z"/>
				
					<linearGradient id="SVGID_17_" gradientUnits="userSpaceOnUse" x1="-889.8529" y1="1166.1855" x2="-1031.9792" y2="1372.7125" gradientTransform="matrix(-1 0 0 1 611.5464 0)">
					<stop  offset="0" style="stop-color:#09005D"/>
					<stop  offset="1" style="stop-color:#1A0F91"/>
				</linearGradient>
				<path class="st26" d="M1521.2,1226.7c-1.2-0.1-2.2-1.1-2.1-2.3c0.9-18.5,2.6-53.9,2.6-55.1c0-1.2,1-2.2,2.2-2.2
					c1.2,0,2.2,1,2.2,2.2c0,0.9-2.2,46.2-2.6,55.3c-0.1,1.2-1,2.1-2.2,2.1C1521.2,1226.7,1521.2,1226.7,1521.2,1226.7z
					 M1521.6,1169.3L1521.6,1169.3L1521.6,1169.3z"/>
				
					<linearGradient id="SVGID_18_" gradientUnits="userSpaceOnUse" x1="-879.1873" y1="1173.5254" x2="-1021.3133" y2="1380.0519" gradientTransform="matrix(-1 0 0 1 611.5464 0)">
					<stop  offset="0" style="stop-color:#09005D"/>
					<stop  offset="1" style="stop-color:#1A0F91"/>
				</linearGradient>
				<path class="st27" d="M1506.5,1229c2.4,0,4.4-1.9,4.4-4.3c1.9-53.5,1.5-54.7,1.3-55.5c-0.6-2.4-3.1-3.8-5.5-3.1
					c-2.2,0.6-3.5,2.7-3.2,4.9c0.1,3.2-0.9,34.3-1.5,53.4c-0.1,2.5,1.8,4.5,4.3,4.6C1506.3,1229,1506.4,1229,1506.5,1229z"/>
				
					<linearGradient id="SVGID_19_" gradientUnits="userSpaceOnUse" x1="-872.1548" y1="1178.3649" x2="-1014.2809" y2="1384.8916" gradientTransform="matrix(-1 0 0 1 611.5464 0)">
					<stop  offset="0" style="stop-color:#09005D"/>
					<stop  offset="1" style="stop-color:#1A0F91"/>
				</linearGradient>
				<path class="st28" d="M1496.8,1226.7c1.2,0,2.2-1,2.2-2.2v-54.2c0-1.2-1-2.2-2.2-2.2c-1.2,0-2.2,1-2.2,2.2v54.2
					C1494.6,1225.7,1495.6,1226.7,1496.8,1226.7z"/>
				
					<linearGradient id="SVGID_20_" gradientUnits="userSpaceOnUse" x1="-867.7889" y1="1181.3698" x2="-1009.9143" y2="1387.8955" gradientTransform="matrix(-1 0 0 1 611.5464 0)">
					<stop  offset="0" style="stop-color:#09005D"/>
					<stop  offset="1" style="stop-color:#1A0F91"/>
				</linearGradient>
				<path class="st29" d="M1489.1,1226.7c1.2,0,2.2-1,2.2-2.2c0.4-18.8,1.4-49.6,2.3-53.3c0.4-0.7,0.4-1.6-0.1-2.3
					c-0.7-1-2-1.3-3.1-0.6c-1.2,0.8-2.4,1.5-3.6,56.1C1486.8,1225.7,1487.8,1226.7,1489.1,1226.7L1489.1,1226.7z"/>
				
					<linearGradient id="SVGID_21_" gradientUnits="userSpaceOnUse" x1="-908.4423" y1="1153.3931" x2="-1050.5684" y2="1359.9197" gradientTransform="matrix(-1 0 0 1 611.5464 0)">
					<stop  offset="0" style="stop-color:#09005D"/>
					<stop  offset="1" style="stop-color:#1A0F91"/>
				</linearGradient>
				<path class="st30" d="M1549.8,1231.7c2.3,0,4.3-1.8,4.4-4.2l3-56.9c0.1-2.5-1.8-4.5-4.2-4.7c-2.3-0.2-4.5,1.8-4.7,4.2l-3,56.9
					c-0.1,2.5,1.8,4.5,4.2,4.7C1549.6,1231.7,1549.7,1231.7,1549.8,1231.7z"/>
			</g>
		</g>
		<g>
			<linearGradient id="SVGID_22_" gradientUnits="userSpaceOnUse" x1="1272.3787" y1="1549.0084" x2="840.7449" y2="1963.0968">
				<stop  offset="0" style="stop-color:#A81D34"/>
				<stop  offset="1" style="stop-color:#FF928E"/>
			</linearGradient>
			<path class="st31" d="M1285.4,1888.1v-244.7c0-32.1-22.3-58.3-50.1-58.7c-83.4-1.1-255.3-1.1-396,12.6
				c-19.2,1.9-34.1,20.1-34.8,42.4l-13.2,236.6c-1,31.3,20.4,57.4,47.5,58l398.3,8.8C1263.6,1943.6,1285.4,1918.9,1285.4,1888.1z"/>
			<path class="st2" d="M1237.1,1669.9c0.4,20.8-0.2,53.9-0.6,75.2c-0.2,11.1-8.7,19.6-18.2,18.3l-68.6-9.3
				c-9.1-1.2-15.6-11-14.2-21.5l8.4-65c1.2-9.2,8-16.1,16.1-16.1h60.8C1229.7,1651.4,1236.9,1659.6,1237.1,1669.9z"/>
			<path class="st15" d="M1057.8,1793.1l-57.2,7.1c-8,1-14.8-6.6-14.3-15.9l12.5-197c24-0.9,47.7-1.5,70.5-2v192.9
				C1069.3,1785.9,1064.3,1792.3,1057.8,1793.1z"/>
			<path class="st2" d="M1034.3,1758.9c-0.2,3.5-2.7,6.3-5.7,6.3c-0.1,0-0.2,0-0.3,0c-3.2-0.2-5.6-3.4-5.4-7l8.6-172
				c3.9-0.1,7.7-0.2,11.5-0.3L1034.3,1758.9z"/>
			<g>
				
					<linearGradient id="SVGID_23_" gradientUnits="userSpaceOnUse" x1="-568.4261" y1="1663.5522" x2="-710.7896" y2="1870.424" gradientTransform="matrix(-1 0 0 1 611.5464 0)">
					<stop  offset="0" style="stop-color:#09005D"/>
					<stop  offset="1" style="stop-color:#1A0F91"/>
				</linearGradient>
				<path class="st32" d="M1205.4,1731.9c1,0,1.9-0.9,1.9-2.1l3-54.2c0.1-1.2-0.7-2.3-1.8-2.4c-1.1-0.1-2,0.9-2,2.1l-3,54.2
					c-0.1,1.2,0.7,2.3,1.8,2.4C1205.3,1731.9,1205.3,1731.9,1205.4,1731.9z"/>
				
					<linearGradient id="SVGID_24_" gradientUnits="userSpaceOnUse" x1="-564.4575" y1="1667.1721" x2="-706.4362" y2="1873.4846" gradientTransform="matrix(-1 0 0 1 611.5464 0)">
					<stop  offset="0" style="stop-color:#09005D"/>
					<stop  offset="1" style="stop-color:#1A0F91"/>
				</linearGradient>
				<path class="st33" d="M1199.3,1731.9c1,0,1.9-0.9,1.9-2.1l1.6-55.2c0-1.2-0.8-2.3-1.9-2.3c-1.2-0.1-1.9,0.9-2,2.1l-1.6,55.2
					C1197.3,1730.9,1198.2,1731.9,1199.3,1731.9C1199.2,1731.9,1199.3,1731.9,1199.3,1731.9z"/>
				
					<linearGradient id="SVGID_25_" gradientUnits="userSpaceOnUse" x1="-559.4922" y1="1671.3677" x2="-701.6626" y2="1877.9587" gradientTransform="matrix(-1 0 0 1 611.5464 0)">
					<stop  offset="0" style="stop-color:#09005D"/>
					<stop  offset="1" style="stop-color:#1A0F91"/>
				</linearGradient>
				<path class="st34" d="M1191,1731.9c-1.1-0.1-1.9-1.1-1.8-2.3c0.8-18.5,2.2-53.9,2.2-55.1c0-1.2,0.9-2.2,1.9-2.2
					c1.1,0,1.9,1,1.9,2.2c0,0.9-1.9,46.2-2.2,55.3C1192.9,1731,1192.1,1731.9,1191,1731.9C1191,1731.9,1191,1731.9,1191,1731.9z
					 M1191.4,1674.5L1191.4,1674.5L1191.4,1674.5z"/>
				
					<linearGradient id="SVGID_26_" gradientUnits="userSpaceOnUse" x1="-550.9982" y1="1678.8328" x2="-692.437" y2="1884.3608" gradientTransform="matrix(-1 0 0 1 611.5464 0)">
					<stop  offset="0" style="stop-color:#09005D"/>
					<stop  offset="1" style="stop-color:#1A0F91"/>
				</linearGradient>
				<path class="st35" d="M1178.3,1734.2c2.1,0,3.8-1.9,3.8-4.3c1.6-53.5,1.3-54.7,1.2-55.5c-0.6-2.4-2.7-3.8-4.7-3.1
					c-1.9,0.6-3.1,2.7-2.8,4.9c0.1,3.2-0.7,34.3-1.3,53.4c-0.1,2.5,1.6,4.5,3.7,4.6C1178.2,1734.2,1178.2,1734.2,1178.3,1734.2z"/>
				
					<linearGradient id="SVGID_27_" gradientUnits="userSpaceOnUse" x1="-545.3424" y1="1683.6283" x2="-686.9344" y2="1889.3788" gradientTransform="matrix(-1 0 0 1 611.5464 0)">
					<stop  offset="0" style="stop-color:#09005D"/>
					<stop  offset="1" style="stop-color:#1A0F91"/>
				</linearGradient>
				<path class="st36" d="M1170,1731.9c1.1,0,1.9-1,1.9-2.2v-54.2c0-1.2-0.9-2.2-1.9-2.2c-1.1,0-1.9,1-1.9,2.2v54.2
					C1168,1730.9,1168.9,1731.9,1170,1731.9z"/>
				
					<linearGradient id="SVGID_28_" gradientUnits="userSpaceOnUse" x1="-541.8042" y1="1686.5573" x2="-683.9695" y2="1893.141" gradientTransform="matrix(-1 0 0 1 611.5464 0)">
					<stop  offset="0" style="stop-color:#09005D"/>
					<stop  offset="1" style="stop-color:#1A0F91"/>
				</linearGradient>
				<path class="st37" d="M1163.2,1731.9c1,0,1.9-1,1.9-2.2c0.4-18.8,1.2-49.6,2-53.3c0.3-0.7,0.3-1.6-0.1-2.3
					c-0.6-1-1.8-1.3-2.7-0.6c-1,0.8-2,1.5-3.1,56.1C1161.3,1730.9,1162.1,1731.9,1163.2,1731.9L1163.2,1731.9z"/>
				
					<linearGradient id="SVGID_29_" gradientUnits="userSpaceOnUse" x1="-574.2718" y1="1658.698" x2="-716.0383" y2="1864.7023" gradientTransform="matrix(-1 0 0 1 611.5464 0)">
					<stop  offset="0" style="stop-color:#09005D"/>
					<stop  offset="1" style="stop-color:#1A0F91"/>
				</linearGradient>
				<path class="st38" d="M1215.7,1736.9c2,0,3.7-1.8,3.8-4.2l2.6-56.9c0.1-2.5-1.5-4.5-3.6-4.7c-2-0.2-3.9,1.8-4,4.2l-2.6,56.9
					c-0.1,2.5,1.5,4.5,3.6,4.7C1215.6,1736.9,1215.6,1736.9,1215.7,1736.9z"/>
			</g>
		</g>
	</g>
	<g>
		<g>
			
				<linearGradient id="SVGID_30_" gradientUnits="userSpaceOnUse" x1="305.7704" y1="424.6983" x2="-540.9084" y2="1507.9496" gradientTransform="matrix(1 0 0 1 1074.0826 0)">
				<stop  offset="0" style="stop-color:#FEBBBA"/>
				<stop  offset="1" style="stop-color:#FF928E"/>
			</linearGradient>
			<path class="st39" d="M1307.8,842.4l-34.4,18.5c-41.3,25.1-78.3,38.4-111.5,43.4c-103.8,15.6-171.5-49.9-222-89.7
				c-66.6-52.5-118.4-26.9-118.4-26.9l71,135.5c106,100,214.8,77.8,283.3,45.4c43.6-20.6,71-45.4,71-45.4
				C1324.9,876.7,1307.8,842.4,1307.8,842.4z"/>
			
				<linearGradient id="SVGID_31_" gradientUnits="userSpaceOnUse" x1="403.0909" y1="707.7671" x2="-73.7864" y2="1317.8896" gradientTransform="matrix(1 0 0 1 1074.0826 0)">
				<stop  offset="0" style="stop-color:#FEBBBA"/>
				<stop  offset="1" style="stop-color:#FF928E"/>
			</linearGradient>
			<path class="st40" d="M1409.3,890.9c-2.2-7.4-7.7-13.4-14.8-16.2l-69.9-28.1c0,0-1.1-9,14.8-15.1c15.8-6.1,12.1-23.8,12.1-23.8
				s-21.6,9.9-53.3,25.5c-18.1,8.9-28.3,24.7-33.6,36.6l18,23.7c43.1,12.9,86.7,15.4,130.6,10.3L1409.3,890.9z"/>
		</g>
		
			<linearGradient id="SVGID_32_" gradientUnits="userSpaceOnUse" x1="198.4314" y1="1814.6294" x2="229.7254" y2="1966.8323" gradientTransform="matrix(-1 0 0 1 1112.649 0)">
			<stop  offset="0" style="stop-color:#4F52FF"/>
			<stop  offset="1" style="stop-color:#4042E2"/>
		</linearGradient>
		<path class="st41" d="M806.3,1878.6c0,0-5.3,30.1-7.9,59.9c-1,11.7,8,21.8,19.6,22.3c39.7,1.7,124.6,4.9,155.1,3.5
			c4.6-0.2,7.6-4.9,5.9-9.2l0,0c-1.4-3.6-4.2-6.5-7.7-8.1L831,1882.6L806.3,1878.6z"/>
		
			<linearGradient id="SVGID_33_" gradientUnits="userSpaceOnUse" x1="2753.6458" y1="1878.5062" x2="2799.2734" y2="1878.5062" gradientTransform="matrix(1 0 0 1 -1951.7264 0)">
			<stop  offset="0" style="stop-color:#FEBBBA"/>
			<stop  offset="1" style="stop-color:#FF928E"/>
		</linearGradient>
		<path class="st42" d="M801.9,1860.9l4.3,36c0,0,24.6,11.4,41.4-1.4l-10.2-40.1L801.9,1860.9z"/>
		
			<linearGradient id="SVGID_34_" gradientUnits="userSpaceOnUse" x1="2544.0874" y1="665.8306" x2="2771.7424" y2="1655.3405" gradientTransform="matrix(1 0 0 1 -1951.7264 0)">
			<stop  offset="0" style="stop-color:#09005D"/>
			<stop  offset="1" style="stop-color:#1A0F91"/>
		</linearGradient>
		<path class="st43" d="M795.1,1159.9c-1.8,9.8,3.3,510.9,52.5,724.7c0.8,3.5,5.9,10.3,4.1,13.3c-4.3,7.3-35.7,5.2-53.4,5.9
			c-5.5,0.2-8.4-6.2-10-11.7c-14.1-49.6-81.4-298.1-90.2-535.4c-9.8-265.2,0-9,0-9l-4.4-168L795.1,1159.9z"/>
		
			<linearGradient id="SVGID_35_" gradientUnits="userSpaceOnUse" x1="449.2979" y1="1822.5569" x2="447.8754" y2="1973.3379" gradientTransform="matrix(-1 0 0 1 1112.649 0)">
			<stop  offset="0" style="stop-color:#4F52FF"/>
			<stop  offset="1" style="stop-color:#4042E2"/>
		</linearGradient>
		<path class="st44" d="M644.9,1894.3c0,0-8.5,15.2-16.7,55.6c-1.5,7.3,3.6,14.3,11,15c13.1,1.3,33.3,2.9,49.5,2.8
			c7.5-0.1,13.3-6.5,12.4-13.9c-1.8-14.7-7.4-38.9-24.6-57.8L644.9,1894.3z"/>
		
			<linearGradient id="SVGID_36_" gradientUnits="userSpaceOnUse" x1="2589.2014" y1="1876.1663" x2="2628.5974" y2="1876.1663" gradientTransform="matrix(1 0 0 1 -1951.7264 0)">
			<stop  offset="0" style="stop-color:#FEBBBA"/>
			<stop  offset="1" style="stop-color:#FF928E"/>
		</linearGradient>
		<path class="st45" d="M637.5,1848l10,54.5c0,0,9.9,7.3,29.4,2l-4.8-58.6L637.5,1848z"/>
		
			<linearGradient id="SVGID_37_" gradientUnits="userSpaceOnUse" x1="2468.3818" y1="665.6227" x2="2698.9688" y2="1667.875" gradientTransform="matrix(1 0 0 1 -1951.7264 0)">
			<stop  offset="0" style="stop-color:#09005D"/>
			<stop  offset="1" style="stop-color:#1A0F91"/>
		</linearGradient>
		<path class="st46" d="M613.5,1179.5c-40.2,253.4,5.7,645.6,22.3,718.6c1,4.5,4.5,7.9,8.8,8.6c7.4,1.3,19.5,2.3,31.5-1.3
			c4.1-1.2,7-5.1,7.2-9.6c2.2-59-1.8-421.2,35.7-564.3c1.9-7.3,6.1-13.6,12-17.9l61.7-50.3l1.1-108.4L613.5,1179.5z"/>
		
			<linearGradient id="SVGID_38_" gradientUnits="userSpaceOnUse" x1="253.4653" y1="1527.9845" x2="772.7054" y2="2023.9246" gradientTransform="matrix(1 0 0 1 1074.0826 0)">
			<stop  offset="0" style="stop-color:#09005D"/>
			<stop  offset="1" style="stop-color:#1A0F91"/>
		</linearGradient>
		<path class="st47" d="M843.9,773c-106-1.8-223,27.8-223,27.8c-26,152-15.6,320.4-10.2,375.9c1.1,11.4-5,23.4,6.3,25.2
			c55.5,9,142.6-0.2,169.7-8c9.9-2.9,8.2-13.4,10.3-23.5c18.2-87.2,70.2-279.6,70.2-279.6c25.2,32.4,60.8,77.8,113.4,89.9
			c-26.8-31.1,24.6-96.2,19.1-119.6C952.3,807.7,876.6,773.6,843.9,773z"/>
		
			<linearGradient id="SVGID_39_" gradientUnits="userSpaceOnUse" x1="2654.3457" y1="742.2847" x2="2756.9189" y2="742.2847" gradientTransform="matrix(1 0 0 1 -1951.7264 0)">
			<stop  offset="0" style="stop-color:#FEBBBA"/>
			<stop  offset="1" style="stop-color:#FF928E"/>
		</linearGradient>
		<path class="st48" d="M736.5,687l-33.7,97.5c-0.6,1.6,0.1,3.4,1.6,4.2c9.2,5.1,42.3,19.8,82.2-5.5c4.2-2.6,7-6.9,7.6-11.8
			l10.9-84.4H736.5z"/>
		<g>
			
				<linearGradient id="SVGID_40_" gradientUnits="userSpaceOnUse" x1="-3426.1462" y1="-357.7434" x2="-3464.4768" y2="-484.1671" gradientTransform="matrix(0.746 -0.6659 0.6659 0.746 3623.7153 -1337.5651)">
				<stop  offset="0" style="stop-color:#FEBBBA"/>
				<stop  offset="1" style="stop-color:#FF928E"/>
			</linearGradient>
			<path class="st49" d="M809.9,596.6c0,0,37,69.7,32.3,97.9c-4.7,28.2-50.6,26.1-90.7,3.3l-28-75.3L809.9,596.6z"/>
			
				<linearGradient id="SVGID_41_" gradientUnits="userSpaceOnUse" x1="-3469.7063" y1="-547.3433" x2="-3442.7542" y2="-393.616" gradientTransform="matrix(0.746 -0.6659 0.6659 0.746 3623.7153 -1337.5651)">
				<stop  offset="0" style="stop-color:#09005D"/>
				<stop  offset="1" style="stop-color:#1A0F91"/>
			</linearGradient>
			<path class="st50" d="M753.3,660.8c1.6-0.7,2.2-2.7,1.3-4.2c-3-4.5-8.5-13.8-10.3-21.9c0,0-6.7-4.3,16.9-9.9
				c12.9-3.1,35.6-5.6,45.7-14.9c11.2-10.3-9.5-29.9-18.1-35.1c-11.5-6.9-25.4-11-38.4-7.5c-6.2,1.7-11.9,5-17.4,8.3
				c-9.5,5.6-19.3,11.5-25.3,20.8c-3.9,6-5.9,12.9-7.8,19.8c-2.7,9.9-5.1,20-4.7,30.2c1.2,27.2,33.2,51.7,58.9,54.6
				c2.1,0.2,3.7-1.8,3-3.8l-10.5-30.5c-0.5-1.4,0.2-3,1.6-3.6L753.3,660.8z"/>
			
				<linearGradient id="SVGID_42_" gradientUnits="userSpaceOnUse" x1="-3465.3296" y1="-358.3322" x2="-3499.8162" y2="-472.0771" gradientTransform="matrix(0.746 -0.6659 0.6659 0.746 3623.7153 -1337.5651)">
				<stop  offset="0" style="stop-color:#FEBBBA"/>
				<stop  offset="1" style="stop-color:#FF928E"/>
			</linearGradient>
			<path class="st51" d="M757.5,665.2c0,0-26.4-18.1-28.3-2.9c-1.9,15.2,23.7,22.1,36.5,16.4L757.5,665.2z"/>
		</g>
		<g>
			
				<linearGradient id="SVGID_43_" gradientUnits="userSpaceOnUse" x1="-2288.9382" y1="5649.3057" x2="-2484.2168" y2="5817.9551" gradientTransform="matrix(-1 0 0 1 4301.0562 0)">
				<stop  offset="0" style="stop-color:#09005D"/>
				<stop  offset="1" style="stop-color:#1A0F91"/>
			</linearGradient>
			<path class="st52" d="M823.4,579.5c-54.1-102.2-194.3-9.4-129.1,76.7C742.9,624,797.7,576.1,823.4,579.5z"/>
		</g>
		
			<linearGradient id="SVGID_44_" gradientUnits="userSpaceOnUse" x1="568.3123" y1="556.9557" x2="373.0338" y2="725.6055" gradientTransform="matrix(1 0 0 1 293.427 0)">
			<stop  offset="0" style="stop-color:#09005D"/>
			<stop  offset="1" style="stop-color:#1A0F91"/>
		</linearGradient>
		<path class="st53" d="M738.9,622.8l97.2-3c2.5-0.1,4.7-1.4,5.9-3.6c8.7-15.7,21.4-25.7,37.4-31.2c2-0.7,1.6-3.7-0.5-3.8l-59.6-4.1
			c-0.1,0-0.1,0-0.2,0c-29.7,2.3-56,20.1-81,43.5C737.2,621.5,737.8,622.9,738.9,622.8z"/>
		
			<linearGradient id="SVGID_45_" gradientUnits="userSpaceOnUse" x1="207.1591" y1="1576.467" x2="726.3976" y2="2072.4058" gradientTransform="matrix(1 0 0 1 1074.0826 0)">
			<stop  offset="0" style="stop-color:#09005D"/>
			<stop  offset="1" style="stop-color:#1A0F91"/>
		</linearGradient>
		<path class="st54" d="M633,955.6c59.3-66.6,53.3-117.9-13.6-154.8c0,0-111,75.4-129.2,171c21,1.5,59.1,7,96.5,25.9
			C594.8,952.5,633,955.6,633,955.6z"/>
		
			<linearGradient id="SVGID_46_" gradientUnits="userSpaceOnUse" x1="4512.3721" y1="1046.0381" x2="4803.2114" y2="1046.0381" gradientTransform="matrix(1 0 0 1 -4024.8325 0)">
			<stop  offset="0" style="stop-color:#FEBBBA"/>
			<stop  offset="1" style="stop-color:#FF928E"/>
		</linearGradient>
		<path class="st55" d="M761.9,1024.1c0,0-124.6,70.4-166.7,10.3c-8.7-12.5-10.8-24.9-8.7-36.7c-37.4-18.9-75.5-24.3-96.5-25.9
			c-5.5,28.8-2.6,59.5,14.3,90.5c73.7,134.7,274-7.4,274-7.4L761.9,1024.1z"/>
		<g>
			<linearGradient id="SVGID_47_" gradientUnits="userSpaceOnUse" x1="1041.5497" y1="842.4553" x2="739.3106" y2="1109.4329">
				<stop  offset="0" style="stop-color:#A81D34"/>
				<stop  offset="1" style="stop-color:#FF928E"/>
			</linearGradient>
			<path class="st56" d="M746.9,1113.2l68-237.5c0.8-2.7,3.1-4.7,5.9-5c12.3-1.4,48-5.5,89.3-9c49.7-4.2,107.3-7.6,141.8-4.7
				c4.9,0.4,7.9,5.6,5.7,10c-19.6,39.6-100.2,200.9-140.6,253.7c-1.3,1.7-3.4,2.8-5.6,2.8l-157.8-1.5
				C748.9,1122,745.7,1117.6,746.9,1113.2z"/>
			<path class="st57" d="M917.1,841.1l49.3-8.2c2.6-0.4,4.8,2.1,3.9,4.6l-4.9,14.8c-0.4,1.3-1.5,2.2-2.9,2.4l-47.5,6.3
				c-2.5,0.3-4.5-1.9-3.9-4.3l3-12.9C914.6,842.4,915.7,841.4,917.1,841.1z"/>
			<path class="st57" d="M880.2,882.9l4.1-21.2c0.4-2.1,2.2-3.7,4.3-3.9l99.6-10.1c3.4-0.3,6,2.7,5.2,6l-6.3,26.4
				c-0.5,2.1-2.3,3.6-4.5,3.7l-97.3,4.9C882.1,888.9,879.6,886,880.2,882.9z"/>
			
				<linearGradient id="SVGID_48_" gradientUnits="userSpaceOnUse" x1="4781.6182" y1="1015.5438" x2="4872.2271" y2="1015.5438" gradientTransform="matrix(1 0 0 1 -4024.8325 0)">
				<stop  offset="0" style="stop-color:#FEBBBA"/>
				<stop  offset="1" style="stop-color:#FF928E"/>
			</linearGradient>
			<path class="st58" d="M763.3,1055.8c0,0-9.5-39-5.7-52.8c3.8-13.8,11.2-31.6,35.9-27.6c24.7,3.9,53.8,14.3,53.8,14.3
				s-1.5,18-20.2,12.2l11.6,9c0,0-1.7,14.4-17.5,6.7l10.8,11.9c0,0-6.8,11.8-18.5,4.2C802,1026.2,796.4,1060.5,763.3,1055.8z"/>
		</g>
		<g>
			
				<linearGradient id="SVGID_49_" gradientUnits="userSpaceOnUse" x1="-1067.8324" y1="725.2056" x2="-1090.0232" y2="1064.725" gradientTransform="matrix(-1 0 0 1 -393.6061 0)">
				<stop  offset="0" style="stop-color:#09005D"/>
				<stop  offset="1" style="stop-color:#1A0F91"/>
			</linearGradient>
			<path class="st59" d="M723.9,907.5c-7.8,0.6-73.6,2.7-73.6,2.7l2.7,66.2l34.1,19.2l36.8-19.2V907.5z"/>
			
				<linearGradient id="SVGID_50_" gradientUnits="userSpaceOnUse" x1="-928.1495" y1="707.4739" x2="-1074.6088" y2="911.6292" gradientTransform="matrix(-1 0 0 1 -393.6061 0)">
				<stop  offset="0" style="stop-color:#09005D"/>
				<stop  offset="1" style="stop-color:#1A0F91"/>
			</linearGradient>
			<polygon class="st60" points="729.1,907.5 650.4,910.2 647.2,935.7 688.1,946.3 731.7,926.9 			"/>
		</g>
	</g>
	<g>
		<linearGradient id="SVGID_51_" gradientUnits="userSpaceOnUse" x1="905.3998" y1="162.5812" x2="873.097" y2="231.2247">
			<stop  offset="0" style="stop-color:#A81D34"/>
			<stop  offset="1" style="stop-color:#FF928E"/>
		</linearGradient>
		<path class="st61" d="M964.4,200.6l-58.6-37.7c-1.2-0.8-2.7-1.1-4.1-0.8l-77.3,14.5c-2.1,0.4-3.8,1.9-4.4,4s0,4.2,1.6,5.7
			l45.4,42.3L964.4,200.6z"/>
		<linearGradient id="SVGID_52_" gradientUnits="userSpaceOnUse" x1="927.5101" y1="213.2638" x2="369.5421" y2="694.0279">
			<stop  offset="0" style="stop-color:#A81D34"/>
			<stop  offset="1" style="stop-color:#FF928E"/>
		</linearGradient>
		<path class="st62" d="M450.3,260c0,0,720-116.3,747.9-106.8c27.9,9.4,77.4,40,92.2,40.3c14.8,0.3,66.2,10.3,52.2,46.9
			c-14.1,36.6-611.2,139.2-680.1,114.2c-68.9-25.1-243.6-73-243.6-73S403.2,256.1,450.3,260z"/>
		<linearGradient id="SVGID_53_" gradientUnits="userSpaceOnUse" x1="557.6529" y1="88.5876" x2="504.3878" y2="280.9344">
			<stop  offset="0" style="stop-color:#A81D34"/>
			<stop  offset="1" style="stop-color:#FF928E"/>
		</linearGradient>
		<path class="st63" d="M658.7,229l-102.3-59.2c-6.4-3.7-11.7-9.2-15.1-15.7l-40.4-76.2c-3.2-6-10-9.3-16.7-8
			c-21.5,4.1-66.1,13.4-66.4,18.4c-0.4,6.6,18.4,173.7,18.4,173.7L658.7,229z"/>
		
			<linearGradient id="SVGID_54_" gradientUnits="userSpaceOnUse" x1="470.6157" y1="139.6653" x2="582.926" y2="443.4556" gradientTransform="matrix(0.9946 0.1035 -0.1035 0.9946 83.728 193.2734)">
			<stop  offset="0" style="stop-color:#A81D34"/>
			<stop  offset="1" style="stop-color:#FF928E"/>
		</linearGradient>
		<path class="st64" d="M456.6,284l-9.2,35c-1.6,5.9-0.3,12,3.4,16.8c3.7,4.9,9.4,7.6,15.5,7.7l36.5,0.8c5.8,0.1,11.3-2,15.2-6.3
			l66.4-73L456.6,284z"/>
		<linearGradient id="SVGID_55_" gradientUnits="userSpaceOnUse" x1="907.0077" y1="436.6631" x2="892.243" y2="326.7494">
			<stop  offset="0" style="stop-color:#A81D34"/>
			<stop  offset="1" style="stop-color:#FF928E"/>
		</linearGradient>
		<path class="st65" d="M830.5,408.2c0,0,21.6,27.6,57.5,28.3s80.5-8.3,89-20.8c8.6-12.6,28.3-106.2-45.1-94.2
			C858.7,333.4,772.5,374.3,830.5,408.2z"/>
		<linearGradient id="SVGID_56_" gradientUnits="userSpaceOnUse" x1="745.6224" y1="454.8532" x2="921.084" y2="251.3177">
			<stop  offset="0" style="stop-color:#A81D34"/>
			<stop  offset="1" style="stop-color:#FF928E"/>
		</linearGradient>
		<path class="st66" d="M791.6,310.2l171.1-26.6L815.9,464.7c-2.1,2.5-5.1,4.1-8.3,4.3l-102.3,6.5c-4.4,0.3-8.6-2-10.9-5.8
			c-2.2-3.8-2.1-8.6,0.3-12.3L791.6,310.2z"/>
		<linearGradient id="SVGID_57_" gradientUnits="userSpaceOnUse" x1="1118.4957" y1="299.107" x2="1539.6047" y2="95.5712">
			<stop  offset="0" style="stop-color:#FF928E"/>
			<stop  offset="1" style="stop-color:#FE7062"/>
		</linearGradient>
		<path class="st67" d="M967.6,418.1c0.4,0.1,0.9,0.1,1.3,0.1c2.3-0.3,4.6-2.6,6.9-6.9c7.4-13.9,12.6-43.8,0.7-66.9l0,0
			c-3.5-6.8-10.2-11.3-17.8-12c-6.3-0.6-14.4,1.2-17.1,12.5c-4.3,17.7,12,59.1,21.4,69.9C964.7,416.6,966.2,417.7,967.6,418.1z
			 M961,335.8c5.4,1.3,10.2,4.9,12.8,9.9l0,0c11.2,21.8,6.2,51.1-0.7,64c-2,3.7-3.7,5.2-4.5,5.3c-0.1,0-1.1,0-3.2-2.4
			c-9.9-11.2-24.6-51.5-20.8-67.1c1.8-7.5,6.3-10.8,13.8-10.1C959.3,335.5,960.2,335.6,961,335.8z"/>
		<linearGradient id="SVGID_58_" gradientUnits="userSpaceOnUse" x1="501.454" y1="154.7625" x2="876.9417" y2="-20.699">
			<stop  offset="0" style="stop-color:#FF928E"/>
			<stop  offset="1" style="stop-color:#FE7062"/>
		</linearGradient>
		<polygon class="st68" points="421.2,127.9 438.9,128.3 453.1,241.7 434.4,245.7 		"/>
		<g>
			<g>
				
					<linearGradient id="SVGID_59_" gradientUnits="userSpaceOnUse" x1="1521.3679" y1="-102.0287" x2="1280.092" y2="0.7368" gradientTransform="matrix(0.9998 2.110000e-02 -2.110000e-02 0.9998 -232.3577 114.6498)">
					<stop  offset="0" style="stop-color:#09005D"/>
					<stop  offset="1" style="stop-color:#1A0F91"/>
				</linearGradient>
				<path class="st69" d="M709.4,270c0.1-5.8,4.9-10.4,10.8-10.3l0.7,0c5.8,0.1,10.4,4.9,10.3,10.8l-0.1,6.9
					c-0.1,5.8-4.9,10.4-10.8,10.3l-0.7,0c-5.8-0.1-10.4-4.9-10.3-10.8L709.4,270z"/>
				
					<linearGradient id="SVGID_60_" gradientUnits="userSpaceOnUse" x1="1525.3533" y1="-89.6179" x2="1284.0751" y2="13.1487" gradientTransform="matrix(0.9998 2.110000e-02 -2.110000e-02 0.9998 -232.3577 114.6498)">
					<stop  offset="0" style="stop-color:#09005D"/>
					<stop  offset="1" style="stop-color:#1A0F91"/>
				</linearGradient>
				<path class="st70" d="M749.9,267.8c0.1-5.8,4.9-10.4,10.8-10.3l0.7,0c5.8,0.1,10.4,4.9,10.3,10.8l-0.1,6.9
					c-0.1,5.8-4.9,10.4-10.8,10.3l-0.7,0c-5.8-0.1-10.4-4.9-10.3-10.8L749.9,267.8z"/>
				
					<linearGradient id="SVGID_61_" gradientUnits="userSpaceOnUse" x1="1529.3317" y1="-83.4253" x2="1288.0537" y2="19.3412" gradientTransform="matrix(0.9998 2.110000e-02 -2.110000e-02 0.9998 -232.3577 114.6498)">
					<stop  offset="0" style="stop-color:#09005D"/>
					<stop  offset="1" style="stop-color:#1A0F91"/>
				</linearGradient>
				<path class="st71" d="M790.5,259.3c0.1-5.8,4.9-10.4,10.8-10.3l0.7,0c5.8,0.1,10.4,4.9,10.3,10.8l-0.1,6.9
					c-0.1,5.8-4.9,10.4-10.8,10.3l-0.7,0c-5.8-0.1-10.4-4.9-10.3-10.8L790.5,259.3z"/>
				
					<linearGradient id="SVGID_62_" gradientUnits="userSpaceOnUse" x1="1530.2024" y1="-74.1228" x2="1288.9236" y2="28.644" gradientTransform="matrix(0.9998 2.110000e-02 -2.110000e-02 0.9998 -232.3577 114.6498)">
					<stop  offset="0" style="stop-color:#09005D"/>
					<stop  offset="1" style="stop-color:#1A0F91"/>
				</linearGradient>
				<path class="st72" d="M828,253.8c0.1-5.8,4.9-10.4,10.8-10.3l0.7,0c5.8,0.1,10.4,4.9,10.3,10.8l-0.1,6.9
					c-0.1,5.8-4.9,10.4-10.8,10.3l-0.7,0c-5.8-0.1-10.4-4.9-10.3-10.8L828,253.8z"/>
				
					<linearGradient id="SVGID_63_" gradientUnits="userSpaceOnUse" x1="1537.2904" y1="-64.8196" x2="1296.0126" y2="37.9468" gradientTransform="matrix(0.9998 2.110000e-02 -2.110000e-02 0.9998 -232.3577 114.6498)">
					<stop  offset="0" style="stop-color:#09005D"/>
					<stop  offset="1" style="stop-color:#1A0F91"/>
				</linearGradient>
				<path class="st73" d="M871.6,248.5c0.1-5.8,4.9-10.4,10.8-10.3l0.7,0c5.8,0.1,10.4,4.9,10.3,10.8l-0.1,6.9
					c-0.1,5.8-4.9,10.4-10.8,10.3l-0.7,0c-5.8-0.1-10.4-4.9-10.3-10.8L871.6,248.5z"/>
				
					<linearGradient id="SVGID_64_" gradientUnits="userSpaceOnUse" x1="1541.2706" y1="-55.5171" x2="1299.9923" y2="47.2495" gradientTransform="matrix(0.9998 2.110000e-02 -2.110000e-02 0.9998 -232.3577 114.6498)">
					<stop  offset="0" style="stop-color:#09005D"/>
					<stop  offset="1" style="stop-color:#1A0F91"/>
				</linearGradient>
				<path class="st74" d="M912.2,243.2c0.1-5.8,4.9-10.4,10.8-10.3l0.7,0c5.8,0.1,10.4,4.9,10.3,10.8l-0.1,6.9
					c-0.1,5.8-4.9,10.4-10.8,10.3l-0.7,0c-5.8-0.1-10.4-4.9-10.3-10.8L912.2,243.2z"/>
				
					<linearGradient id="SVGID_65_" gradientUnits="userSpaceOnUse" x1="1545.2472" y1="-49.3235" x2="1303.9707" y2="53.4424" gradientTransform="matrix(0.9998 2.110000e-02 -2.110000e-02 0.9998 -232.3577 114.6498)">
					<stop  offset="0" style="stop-color:#09005D"/>
					<stop  offset="1" style="stop-color:#1A0F91"/>
				</linearGradient>
				<path class="st75" d="M952.8,234.7c0.1-5.8,4.9-10.4,10.8-10.3l0.7,0c5.8,0.1,10.4,4.9,10.3,10.8l-0.1,6.9
					c-0.1,5.8-4.9,10.4-10.8,10.3l-0.7,0c-5.8-0.1-10.4-4.9-10.3-10.8L952.8,234.7z"/>
				
					<linearGradient id="SVGID_66_" gradientUnits="userSpaceOnUse" x1="1546.1185" y1="-36.9109" x2="1304.8406" y2="65.8556" gradientTransform="matrix(0.9998 2.110000e-02 -2.110000e-02 0.9998 -232.3577 114.6498)">
					<stop  offset="0" style="stop-color:#09005D"/>
					<stop  offset="1" style="stop-color:#1A0F91"/>
				</linearGradient>
				<path class="st76" d="M990.2,232.4c0.1-5.8,4.9-10.4,10.8-10.3l0.7,0c5.8,0.1,10.4,4.9,10.3,10.8l-0.1,6.9
					c-0.1,5.8-4.9,10.4-10.8,10.3l-0.7,0c-5.8-0.1-10.4-4.9-10.3-10.8L990.2,232.4z"/>
				
					<linearGradient id="SVGID_67_" gradientUnits="userSpaceOnUse" x1="1550.0977" y1="-27.6082" x2="1308.8199" y2="75.1582" gradientTransform="matrix(0.9998 2.110000e-02 -2.110000e-02 0.9998 -232.3577 114.6498)">
					<stop  offset="0" style="stop-color:#09005D"/>
					<stop  offset="1" style="stop-color:#1A0F91"/>
				</linearGradient>
				<path class="st77" d="M1030.7,227c0.1-5.8,4.9-10.4,10.8-10.3l0.7,0c5.8,0.1,10.4,4.9,10.3,10.8l-0.1,6.9
					c-0.1,5.8-4.9,10.4-10.8,10.3l-0.7,0c-5.8-0.1-10.4-4.9-10.3-10.8L1030.7,227z"/>
				
					<linearGradient id="SVGID_68_" gradientUnits="userSpaceOnUse" x1="1554.0771" y1="-21.4159" x2="1312.7991" y2="81.3507" gradientTransform="matrix(0.9998 2.110000e-02 -2.110000e-02 0.9998 -232.3577 114.6498)">
					<stop  offset="0" style="stop-color:#09005D"/>
					<stop  offset="1" style="stop-color:#1A0F91"/>
				</linearGradient>
				<path class="st78" d="M1071.4,218.5c0.1-5.8,4.9-10.4,10.8-10.3l0.7,0c5.8,0.1,10.4,4.9,10.3,10.8l-0.1,6.9
					c-0.1,5.8-4.9,10.4-10.8,10.3l-0.7,0c-5.8-0.1-10.4-4.9-10.3-10.8L1071.4,218.5z"/>
				
					<linearGradient id="SVGID_69_" gradientUnits="userSpaceOnUse" x1="1554.9458" y1="-9.0021" x2="1313.6699" y2="93.7635" gradientTransform="matrix(0.9998 2.110000e-02 -2.110000e-02 0.9998 -232.3577 114.6498)">
					<stop  offset="0" style="stop-color:#09005D"/>
					<stop  offset="1" style="stop-color:#1A0F91"/>
				</linearGradient>
				<path class="st79" d="M1108.7,216.2c0.1-5.8,4.9-10.4,10.8-10.3l0.7,0c5.8,0.1,10.4,4.9,10.3,10.8l-0.1,6.9
					c-0.1,5.8-4.9,10.4-10.8,10.3l-0.7,0c-5.8-0.1-10.4-4.9-10.3-10.8L1108.7,216.2z"/>
			</g>
			
				<linearGradient id="SVGID_70_" gradientUnits="userSpaceOnUse" x1="1565.8123" y1="5.0137" x2="1321.0853" y2="109.2492" gradientTransform="matrix(0.9998 2.110000e-02 -2.110000e-02 0.9998 -232.3577 114.6498)">
				<stop  offset="0" style="stop-color:#09005D"/>
				<stop  offset="1" style="stop-color:#1A0F91"/>
			</linearGradient>
			<path class="st80" d="M1247.8,176.4l-71.3,18.2c-5.4,1.4-9,6.4-8.6,11.9c0.4,6.6,1.3,14,2.8,13.4c2.6-1.1,114.4-27,114.4-27
				L1247.8,176.4z"/>
		</g>
	</g>
</g>
</svg>