<?xml version="1.0" encoding="utf-8"?>
<!-- Generator: Adobe Illustrator 25.2.0, SVG Export Plug-In . SVG Version: 6.00 Build 0)  -->
<svg version="1.1" id="Layer_1" xmlns="http://www.w3.org/2000/svg" xmlns:xlink="http://www.w3.org/1999/xlink" x="0px" y="0px"
	 viewBox="0 0 2760.6 2000" style="enable-background:new 0 0 2760.6 2000;" xml:space="preserve">
<style type="text/css">
	.st0{fill:#BAD7FD;}
	.st1{fill:#DCEAFF;}
	.st2{fill:#B0D2F5;}
	.st3{fill:#214D9A;}
	.st4{fill:#BDD9FF;}
	.st5{fill:#D0E3F9;}
	.st6{fill:#93C2F7;}
	.st7{fill:#DFEFFF;}
	.st8{fill:#FFFFFF;}
	.st9{fill:#A7D3FF;}
	.st10{fill:#CEE2FF;}
	.st11{fill:#A8CCFF;}
	.st12{fill:#A2C8EA;}
	.st13{fill:#96C2FB;}
	.st14{fill:#81B2F2;}
	.st15{fill:#6CA3EA;}
	.st16{fill:#FFAE73;}
	.st17{fill:#F9924F;}
	.st18{fill:#1F237E;}
	.st19{fill:#2A3967;}
	.st20{fill:#B94F5D;}
	.st21{fill:#A61E33;}
	.st22{fill:#90BFE5;}
	.st23{fill:#B3D3F6;}
	.st24{fill:#C3DAF6;}
	.st25{fill:#0F112E;}
	.st26{fill:#CC7C85;}
</style>
<g>
	<g>
		<path class="st0" d="M582.3,847.2H388.8c-6,0-11-4.9-11-11v-187c0-6,4.9-11,11-11h193.5c6,0,11,4.9,11,11v187
			C593.2,842.3,588.3,847.2,582.3,847.2z"/>
		<path class="st1" d="M573.9,838.2H397.2c-5.5,0-10-4.5-10-10V657.3c0-5.5,4.5-10,10-10h176.7c5.5,0,10,4.5,10,10v170.8
			C583.9,833.6,579.4,838.2,573.9,838.2z"/>
		<g>
			<g>
				<path class="st2" d="M481.1,666.3c0-2.5,2-4.5,4.5-4.5c2.5,0,4.5,2,4.5,4.5c0,2.5-2,4.5-4.5,4.5
					C483.1,670.8,481.1,668.8,481.1,666.3z"/>
				<path class="st2" d="M517.1,672.7c1.2-2.2,3.9-2.9,6.1-1.7c2.2,1.2,2.9,3.9,1.7,6.1c-1.2,2.2-3.9,2.9-6.1,1.7
					C516.7,677.5,515.9,674.8,517.1,672.7z"/>
				<path class="st2" d="M547.9,697.2c2.1-1.3,4.8-0.7,6.2,1.3c1.3,2.1,0.7,4.8-1.3,6.2c-2.1,1.3-4.8,0.7-6.2-1.3
					C545.3,701.3,545.9,698.5,547.9,697.2z"/>
				<path class="st2" d="M563.2,735.1c2.5,0,4.5,2,4.5,4.5s-2,4.5-4.5,4.5c-2.5,0-4.5-2-4.5-4.5S560.7,735.1,563.2,735.1z"/>
				<path class="st2" d="M555.4,779.1c1.7,1.7,1.7,4.6,0,6.3c-1.7,1.7-4.6,1.7-6.3,0c-1.7-1.7-1.7-4.6,0-6.3
					C550.8,777.4,553.7,777.4,555.4,779.1z"/>
				<path class="st2" d="M527.4,807.2c1.7,1.7,1.7,4.6,0,6.3c-1.7,1.7-4.6,1.7-6.3,0c-1.7-1.7-1.7-4.6,0-6.3
					C522.8,805.5,525.6,805.5,527.4,807.2z"/>
				<path class="st2" d="M481.1,821.7c0-2.5,2-4.5,4.5-4.5c2.5,0,4.5,2,4.5,4.5c0,2.5-2,4.5-4.5,4.5
					C483.1,826.2,481.1,824.2,481.1,821.7z"/>
			</g>
			<g>
				<path class="st2" d="M453.9,672.7c-1.2-2.2-3.9-2.9-6.1-1.7c-2.2,1.2-2.9,3.9-1.7,6.1c1.2,2.2,3.9,2.9,6.1,1.7
					C454.3,677.5,455.1,674.8,453.9,672.7z"/>
				<path class="st2" d="M423,697.2c-2.1-1.3-4.8-0.7-6.2,1.3c-1.3,2.1-0.7,4.8,1.3,6.2c2.1,1.3,4.8,0.7,6.2-1.3
					C425.7,701.3,425.1,698.5,423,697.2z"/>
				<path class="st2" d="M407.7,735.1c-2.5,0-4.5,2-4.5,4.5s2,4.5,4.5,4.5c2.5,0,4.5-2,4.5-4.5S410.2,735.1,407.7,735.1z"/>
				<path class="st2" d="M415.5,779.1c-1.7,1.7-1.7,4.6,0,6.3c1.7,1.7,4.6,1.7,6.3,0c1.7-1.7,1.7-4.6,0-6.3
					C420.1,777.4,417.3,777.4,415.5,779.1z"/>
				<path class="st2" d="M443.5,807.2c-1.7,1.7-1.7,4.6,0,6.3c1.7,1.7,4.6,1.7,6.3,0c1.7-1.7,1.7-4.6,0-6.3
					C448.1,805.5,445.3,805.5,443.5,807.2z"/>
			</g>
		</g>
		<g>
			<path class="st2" d="M484.3,739.6c0-2.5,2-4.5,4.5-4.5c2.5,0,4.5,2,4.5,4.5s-2,4.5-4.5,4.5C486.3,744,484.3,742,484.3,739.6z"/>
			<g>
				<rect x="488.2" y="683.8" class="st2" width="1.2" height="55.7"/>
			</g>
			<g>
				
					<rect x="484.2" y="726" transform="matrix(0.7864 -0.6177 0.6177 0.7864 -342.1604 466.1367)" class="st2" width="37.6" height="3.7"/>
			</g>
		</g>
	</g>
	<polygon class="st3" points="860.3,1334.6 874.8,1408.8 843.5,1411.5 808.2,1339.3 	"/>
	<polygon class="st3" points="1865.2,1207.8 1879.7,1281.9 1848.4,1284.6 1813.1,1212.4 	"/>
	<g>
		
			<rect x="762.8" y="1740.1" transform="matrix(-1 -1.224647e-16 1.224647e-16 -1 1746.5596 3662.4827)" class="st4" width="221" height="182.2"/>
		
			<rect x="873.3" y="1740.1" transform="matrix(-1 -1.224647e-16 1.224647e-16 -1 1967.527 3662.4827)" class="st5" width="221" height="182.2"/>
		<polygon class="st6" points="762.9,1876.1 797.9,1876.1 794.9,1866.3 797.9,1859.2 762.9,1859.2 		"/>
		<polygon class="st7" points="873.3,1796.5 908.3,1796.5 905.2,1786.7 908.3,1779.6 873.3,1779.6 		"/>
		<polygon class="st6" points="873.3,1779.6 838.3,1779.6 841.3,1789.5 838.3,1796.5 873.3,1796.5 		"/>
		<polygon class="st7" points="1094.3,1878.1 1059.2,1878.1 1062.3,1887.9 1059.2,1895 1094.3,1895 		"/>
		<rect x="1016.2" y="1752.5" class="st8" width="63.6" height="24.7"/>
	</g>
	<g>
		
			<rect x="1117.9" y="1740.1" transform="matrix(-1 -1.224647e-16 1.224647e-16 -1 2456.8167 3662.4827)" class="st4" width="221" height="182.2"/>
		
			<rect x="1228.4" y="1740.1" transform="matrix(-1 -1.224647e-16 1.224647e-16 -1 2677.7842 3662.4827)" class="st5" width="221" height="182.2"/>
		<polygon class="st6" points="1118.1,1876.1 1153.1,1876.1 1150,1866.3 1153.1,1859.2 1118.1,1859.2 		"/>
		<polygon class="st7" points="1228.4,1796.5 1263.4,1796.5 1260.3,1786.7 1263.4,1779.6 1228.4,1779.6 		"/>
		<polygon class="st6" points="1228.4,1779.6 1193.4,1779.6 1196.5,1789.5 1193.4,1796.5 1228.4,1796.5 		"/>
		<polygon class="st7" points="1449.4,1878.1 1414.4,1878.1 1417.5,1887.9 1414.4,1895 1449.4,1895 		"/>
		<rect x="1371.3" y="1752.5" class="st8" width="63.6" height="24.7"/>
	</g>
	<g>
		
			<rect x="952.3" y="1560.1" transform="matrix(-1 -1.224647e-16 1.224647e-16 -1 2125.6184 3302.3118)" class="st4" width="221" height="182.2"/>
		
			<rect x="1062.8" y="1560.1" transform="matrix(-1 -1.224647e-16 1.224647e-16 -1 2346.5859 3302.3118)" class="st5" width="221" height="182.2"/>
		<polygon class="st6" points="952.5,1696 987.5,1696 984.4,1686.2 987.5,1679.2 952.5,1679.2 		"/>
		<polygon class="st7" points="1062.8,1616.4 1097.8,1616.4 1094.7,1606.6 1097.8,1599.5 1062.8,1599.5 		"/>
		<polygon class="st6" points="1062.8,1599.5 1027.8,1599.5 1030.9,1609.4 1027.8,1616.4 1062.8,1616.4 		"/>
		<polygon class="st7" points="1283.8,1698 1248.8,1698 1251.9,1707.9 1248.8,1714.9 1283.8,1714.9 		"/>
		<rect x="1205.7" y="1572.4" class="st8" width="63.6" height="24.7"/>
	</g>
	<g>
		<g>
			<path class="st9" d="M1781.1,918c-3,9.1-39.7,21.3-94.7,34.5c-9.7,2.3-19.9,4.7-30.7,7.1c-187.5,41.5-706.1,109.6-738.8,106.9
				c-45.2-3.7-178.6-411.2-178.6-411.2s259-32.4,464.8-56.8c70.4-8.3,315.4-36.7,360.8-41.6C1634.4,549.2,1785.9,903.3,1781.1,918z"
				/>
			<path class="st10" d="M1703.5,872.3c0,0-110.7-277.1-119-300.5c-3.7-10.4-12-13.4-20.1-13.6c13.9-2.8,24-4,24-4
				c27.6-3,53.9,11.7,65.6,36.6c25.4,54.2,75.5,158.2,122.9,260.1C1775.1,851.1,1703.5,872.3,1703.5,872.3z"/>
			<path class="st10" d="M2213.7,1072.9c-4.9,73.1-83,127.7-168.2,137l-168.7,18.3l-31.9-415.6c0,0,155.8-66.7,200.9-27.8
				c39.5,34.1,151.9,173.8,166.6,262.1C2213.9,1055.9,2214.3,1064.5,2213.7,1072.9z"/>
			<path class="st11" d="M2213.7,1072.9c-4.9,73.1-83,127.7-168.2,137l-82.8,9C2014.3,1180,2053.2,1073,2213.7,1072.9z"/>
			<path class="st12" d="M1738,865.3c0,0,216.5-127,266.9-64.9c26.7,33,105.1,167.8,119.4,256.1c13.9,85.8-64.9,151.8-152.3,161.3
				l-155.2,16.8L1738,865.3z"/>
			<path class="st13" d="M2070.8,1136.6c-2.3,2.2-4.7,4.3-7.1,6.4c-30.4,26.3-71.3,49-119.2,65.5c-36.1,12.5-76.2,21.4-118.7,25.7
				l-73.8,8l-1,0.1l-349.3,38l-200.2,21.8l-3,0.3l0-0.1l-10.6-33.3l-100.6-336.4c0,0,875.3-113.7,950.7-83.3
				c35,14.1,61.8,85.4,81,165.1C2129.3,1056.9,2110.1,1099.9,2070.8,1136.6z"/>
			<path class="st14" d="M2070.8,1136.6c-2.3,2.2-4.7,4.3-7.1,6.4c-30.4,26.3-71.3,49-119.2,65.5c-36.1,12.5-76.2,21.4-118.7,25.7
				l-73.8,8l-1,0.1l-349.3,38l-200.2,21.8l-3,0.2l-10.6-33.3c120.3-35.5,287.6-76.5,465-94
				C1822.2,1158.4,1963.9,1142.8,2070.8,1136.6z"/>
			<path class="st10" d="M1359.4,1169.4c-6.1,71-76.4,123.2-153.4,131.6l-155.2,16.8l-33.2-419.1c0,0,143.1-61.6,185-22.3
				c36.7,34.4,141.3,174.9,155.6,263.3C1359.9,1149.9,1360.2,1159.8,1359.4,1169.4z"/>
			<path class="st11" d="M1359.4,1169.4c-6.1,71-76.4,123.2-153.4,131.6l-124.2,13.5C1136.2,1273.5,1204,1169.1,1359.4,1169.4z"/>
			<path class="st15" d="M1270.9,1182c-3.2,28.1-16.4,53.2-36,73.6l0,0c-11.7,12.2-25.7,22.7-41.2,31.3c-19,10.5-40.4,18-62.5,21.9
				c-1.2,0.2-2.3,0.4-3.5,0.6c-0.9,0.1-1.8,0.3-2.8,0.4c-1.5,0.2-3.1,0.4-4.6,0.6c-0.8,0.1-1.6,0.2-2.5,0.3l-155.2,16.8l0-0.1
				c-2.9,0.4-5.9,0.7-8.9,1.1c-16,1.9-32.6,3.9-48.1,5.7c-2.6,0.3-5.1,0.6-7.7,0.9c-0.9,0.1-1.9,0.2-2.8,0.3
				c-15.3,1.8-28.8,3.3-38.5,4.3c-13.6,1.4-26.5,1.9-38.7,1.6c-15.7-0.5-30.4-2.5-43.9-6.1c-2.4-0.7-4.8-1.4-7.2-2.1
				c-2.4-0.8-4.8-1.6-7.1-2.5c-6.2-2.3-12.2-5.1-17.9-8.3c-14.8-8.2-28-19.1-39.8-33.1c-8.2-9.7-15.7-20.9-22.5-33.7
				c-8.3-15.6-15.7-33.5-22-53.9c-0.2-0.5-0.3-1-0.5-1.6c-2.9-9.4-5.6-19.3-8.1-29.7c-1.1-4.8-2.3-9.6-3.3-14.6
				c-3.8-17.6-7.1-36.6-9.9-57c-0.2-1.8-0.5-3.6-0.7-5.4c-0.1-0.4-0.1-0.8-0.2-1.2c-2.2-16.3-4-33.4-5.7-51.5
				c-0.7-7.9-1.4-16-2-24.3c-0.3-3.8-0.5-7.6-0.8-11.4c-1.3-19.3-2.3-39.5-3.1-60.8c-0.4-9.5-0.7-19.3-0.9-29.2
				c-1.1-40.9-1.4-85.3-1-133.2c0.4-54.4,3.6-92.8,13.2-102.5c14.2-14.3,46-22.9,68.4-27.4l0,0c13.9-2.8,24-4,24-4
				c0.5-0.1,1-0.1,1.5-0.1c0.4,0,0.7-0.1,1.1-0.1c0.9-0.1,1.7-0.1,2.6-0.1c0.5,0,1,0,1.4,0c0.3,0,0.6,0,1,0c0.5,0,1,0,1.4,0
				c0.9,0,1.7,0.1,2.5,0.1c0.6,0,1.2,0.1,1.7,0.1c0,0,0.1,0,0.1,0c0.4,0,0.8,0.1,1.3,0.1c0.8,0.1,1.6,0.2,2.4,0.3
				c0.5,0.1,1.1,0.2,1.6,0.3c0.4,0.1,0.7,0.1,1.1,0.2c4.5,0.9,8.8,2.3,12.9,4c14.2,6.1,26,17.2,32.9,31.8
				c23.7,50.8,66.1,141.5,110.3,236.5c0.2,0.5,0.4,1,0.7,1.4c2.5,5.5,5.1,10.9,7.6,16.4c0.3,0.6,0.5,1.1,0.8,1.7
				c0.1,0.3,0.3,0.6,0.4,0.8c1.8-0.9,3.7-1.9,5.6-2.9c0.1,0,0.1-0.1,0.2-0.1c7.7-4,16.4-8.4,25.8-13l0,0c4.9-2.4,9.9-4.8,15.2-7.2
				c14.8-6.8,30.7-13.7,47-20c7.2-2.8,14.5-5.4,21.8-7.8c9.3-3.1,18.6-5.9,27.7-8.2c0.3-0.1,0.6-0.1,0.8-0.2
				c1.1-0.3,2.1-0.5,3.2-0.8c6.4-1.5,12.7-2.9,18.9-3.9l0,0c31.4-5.1,58.1-2.4,72.1,14.9c5.2,6.5,12.4,16.8,20.7,30
				c17.2,27.2,39.1,66.2,58.1,107.4c18.9,40.9,34.9,84,40.7,119.5C1271.9,1160.4,1272.1,1171.4,1270.9,1182z"/>
			<path class="st10" d="M842.1,965.8c0,0-110.7-277.1-119-300.5c-3.7-10.4-12-13.4-20.1-13.6c13.9-2.8,24-4,24-4
				c27.6-3,53.9,11.7,65.6,36.6c25.4,54.2,72.2,154.2,119.6,256.1C910.4,940.5,842.1,965.8,842.1,965.8z"/>
		</g>
		<path class="st16" d="M1991.4,1228.2c-0.9-0.5-27.5,6.3-35,6.5c-6.5,0.1-31.1-5.4-33.8-11.5c-0.4-0.9,28.4-2.6,32.9-5.5
			c2.3-1.4,11.8-7.5,19.8-7c8,0.6,12.3,0,12.3,0L1991.4,1228.2z"/>
		<g>
			<path class="st16" d="M601,919.2c0,0,25.8,42,68.2,32.5c0,0,11.8-19.5,14.2-34.9c0.3-1.9,0.6-3.7,0.9-5.5
				c2.8-17.3,4.9-26.9,4.9-26.9s0,0,0,0c-1.7-1-57.4-34.4-57.6-32.4C625.4,899.1,601,919.2,601,919.2z"/>
			<path class="st17" d="M635.7,864.2c4.1,11.5,20.6,35.2,48.5,47.2c2.8-17.3,4.9-26.9,4.9-26.9s0,0,0,0
				C687.5,883.8,634.5,860.8,635.7,864.2z"/>
			<path class="st16" d="M701.2,884.6c0,0-69.1,5.6-72-37.5c-2.8-43.1-13.6-71.4,30.4-76.8c44-5.4,53.7,10.5,58.1,24.7
				C722.2,809.1,719.1,882.1,701.2,884.6z"/>
			<path class="st18" d="M630.5,858.8c-1,0.4-16,2.7-35-55.6c-3-9.2-3.1-28,9.3-42.8c12.4-14.8,49.7-22.2,79.8-23.3
				c30.2-1.1,34.7,16.4,39.1,34.1c4.6,18.5,23.4,36,23.4,36c-27.4,10.3-54.8-14.5-65.9-12.8c-11.1,1.7-17.3,17.8-18.9,23
				c-1.6,5.2-3.5,9.5-16,2.7c-12.5-6.8-8.8,17.9-7.4,22.7C638.8,842.8,638.8,855.1,630.5,858.8z"/>
		</g>
		<g>
			<path class="st19" d="M669.1,1926.3H560.7c-1-0.2-1.8-0.4-2.3-0.7c-7.2-3.6-5-31.3-4.1-39.9c0.2-1.6,0.3-2.5,0.3-2.5
				s38.1-30.5,43.4-7.1c0.2,0.7,0.4,1.4,0.6,2.1v0c6.6,21.8,36.2,31.8,53.3,34.5C664.8,1914.9,668.2,1922.5,669.1,1926.3z"/>
			<path class="st19" d="M384.5,1926.3h-40.9c-8.6,0-18.1-8.6-20.5-24.3c-2.4-15.7-20-24.3-23.8-37.2c-3.8-12.9,15.7-31,15.7-31
				l3.3-4.2l3.4-4.4l32.4,7.6c0,0,0.8,7.7,1.3,17.5c0.3,7.1,0.5,15.3,0.1,22.5c-1,17.2,4.8,35.6,20,39
				C390.8,1915.2,384.5,1926.3,384.5,1926.3z"/>
			<path class="st20" d="M647.3,1301.3c0,0-5.8,72.2-12.6,159c-9.2,117.9-20.4,262.8-21.5,290.2c-1.9,47.6-9.5,123.9-9.5,123.9
				s-18.1,18.1-54.3,10.5c0,0-32.3-108.8-41.5-223.9c-0.1-1.9-0.3-3.8-0.4-5.7c-8.6-117.2-21.9-363.9-21.9-363.9L647.3,1301.3z"/>
			<path class="st21" d="M618,1315.6c0,0,11.4,26-9.4,110.5c-15.3,62-100.7,234.8-100.7,234.8c-0.1-1.9-0.3-3.8-0.4-5.7
				c-8.6-117.2-21.9-363.9-21.9-363.9L618,1315.6z"/>
			<path class="st20" d="M625.7,1296.5c0,0-109.2,274.9-177.8,397.8c-68.6,122.9-90,157.2-90,157.2s-39.3-15.7-42.9-26.4
				c0,0,26.2-237.3,72.2-295.1c26-32.7,56.4-130.8,57.9-165.1c1.4-34.3,9.3-102.2,9.3-102.2L625.7,1296.5z"/>
			<path class="st18" d="M631.2,1308.9c-14.7-4.2-164.9-63-162-71.5c10.2-29.6,20.7-79.6,33.3-140.4c2.4-11.3,5-22.5,7.9-33.4
				c7.5-28.4,16.7-55.1,27.2-78.4c19.4-43.4,51-72.8,76.2-82.9c3.3-1.2,10.2,9.2,23.7,21c12.5,11,25.5,10.8,39.8,11.7l11.6,20.5
				c9.4,17.8,17.4,42.7,18.4,63.1C707.3,1018.6,632.6,1309.3,631.2,1308.9z"/>
			<path class="st20" d="M707.3,1018.6l-44.9-4.8l-111.3,135c-16,19.4-42.3,26.8-66.1,18.5l0,0l-30.7,95.5l188.8,60.9L707.3,1018.6z
				"/>
			<path class="st21" d="M635,953.8c-6.5-12.4-29-47.9-29-47.9s2.8-1.5,3.7-1.9c1-0.5,4.1-1.7,4.1-1.7c4.4,0.6,28.1,35.9,35.5,49.1
				c8.9,15.9,30.1,64.2,30.1,64.2l-17-1.9C662.4,1013.7,642.7,968.4,635,953.8z"/>
		</g>
		<g>
			<path class="st18" d="M698.4,1297.8c0,0,11.2,5.9,17.9,5.6c6.7-0.3,11.3,0.8,21.2,2.9c9.9,2.1,10.3,5.4,2.9,7.1
				c-7.3,1.6-15.7-1.5-11.9,2.5c3.7,4,39,7.4,38.6,11.8c-0.4,4.5-32.5,17.5-44.3,13.4s-39.2-28.1-39.2-28.1L698.4,1297.8z"/>
			<path class="st18" d="M696.8,1312.3c10.2-7.9,7.3-14.3,7.3-14.3s-69.6-113.3-74.4-123.9c-4.8-10.6,5.5-147.4,5.5-147.4
				s6.3-54.6-20.3-70.7c-23.2-14.1-30.8-25.6-47.5-15.3c-19.9,12.2-36.9,57.9-32.7,80.9c9.4,51.5,21.5,149.1,30.9,168.9
				c21,44.1,114.3,129.4,114.3,129.4S688.8,1318.5,696.8,1312.3z"/>
		</g>
		<g>
			<path class="st16" d="M2288.7,928.9c0,0-38.2,31.2-75.1,8.2c0,0-4.7-22.3-1.9-37.6c0.3-1.9,0.7-3.7,1-5.4c3-17.2,4.2-27,4.2-27
				s0,0,0,0c2-0.4,65.5-13.6,65.1-11.6C2272.3,901.8,2288.7,928.9,2288.7,928.9z"/>
			<path class="st17" d="M2274,865.5c-7.7,9.5-31.1,26.5-61.4,28.6c3-17.2,4.2-27,4.2-27s0,0,0,0
				C2218.7,867,2276.3,862.7,2274,865.5z"/>
			<path class="st16" d="M2204.9,863c0,0,63.4,28,80.3-11.7c16.9-39.8,36.4-62.9-3.4-82.5c-39.8-19.6-54.1-7.8-63,4.1
				C2209.9,784.8,2188.8,854.7,2204.9,863z"/>
			<path class="st18" d="M2280.8,862.2c0.8,0.8,14.3,7.8,51.4-41c5.8-7.7,12.2-25.4,5.3-43.4c-6.9-18-39.6-37.3-67.7-48.3
				c-28.1-11-38.2,4.1-48.1,19.3c-10.5,16-33.9,26.3-33.9,26.3c22.5,18.8,56.6,4.3,66.4,9.6c9.9,5.3,10.5,22.5,10.3,27.9
				c-0.2,5.4,0.2,10.1,14.3,7.8c14.1-2.3,2.5,19.8-0.5,23.9C2278.2,844.3,2274.1,855.9,2280.8,862.2z"/>
			<path class="st19" d="M2377.9,1921.7h40.9c8.6,0,18.1-8.6,20.5-24.3c2.4-15.7,20-24.3,23.8-37.2s-15.7-31-15.7-31l-3.3-4.2
				l-3.4-4.4l-32.4,7.6c0,0-0.8,7.7-1.3,17.5c-0.3,7.1-0.5,15.3-0.1,22.5c1,17.2-4.8,35.6-20,39
				C2371.6,1910.6,2377.9,1921.7,2377.9,1921.7z"/>
			<path class="st19" d="M2093.3,1921.7h108.4c1-0.2,1.8-0.4,2.3-0.7c7.2-3.6,5-31.3,4.1-39.9c-0.2-1.6-0.3-2.5-0.3-2.5
				s-38.1-30.5-43.4-7.1c-0.2,0.7-0.4,1.4-0.6,2.1v0c-6.6,21.8-36.2,31.8-53.3,34.5C2097.5,1910.3,2094.1,1917.9,2093.3,1921.7z"/>
			<path class="st20" d="M2115.1,1296.7c0,0,5.8,72.2,12.6,159c9.2,117.9,20.4,262.8,21.5,290.2c1.9,47.6,9.5,123.9,9.5,123.9
				s18.1,18.1,54.3,10.5c0,0,32.3-108.8,41.5-223.9c0.1-1.9,0.3-3.8,0.4-5.7c8.6-117.2,21.9-363.9,21.9-363.9L2115.1,1296.7z"/>
			<path class="st21" d="M2136.7,1291.9c0,0-3.7,45.1,17.1,129.6c15.3,62,100.7,234.8,100.7,234.8c0.1-1.9,0.3-3.8,0.4-5.7
				c8.6-117.2,21.9-363.9,21.9-363.9L2136.7,1291.9z"/>
			<path class="st20" d="M2136.7,1291.9c0,0,109.2,274.9,177.8,397.8s90,157.2,90,157.2s39.3-15.7,42.9-26.4
				c0,0-26.2-237.3-72.2-295.1c-26-32.7-56.4-130.8-57.9-165.1c-1.4-34.3-9.3-102.2-9.3-102.2L2136.7,1291.9z"/>
			<path class="st3" d="M2131.2,1286.7c15.3,0.9,176.5-5.2,176.5-14.2c0.1-31.3,6.7-82,14.9-143.6c1.5-11.5,2.7-22.9,3.5-34.1
				c2.3-29.3,2.4-57.5,0.2-83c-4.1-47.4-24.2-85.5-44.7-103.3c-2.7-2.3-12.6,5.3-29.3,12c-15.4,6.2-27.6,1.8-41.4-2.1l-17.7,15.6
				c-14.7,13.7-30.5,34.6-38.2,53.5C2155,987.5,2129.8,1286.6,2131.2,1286.7z"/>
			<path class="st20" d="M2155,987.5l44,10.2l60.6,164.1c8.7,23.6,31.2,39.2,56.3,39.2l0,0l-5.3,81l-195.5,14.6L2155,987.5z"/>
			<path class="st3" d="M1981.9,1217.8c-3.1-12.5,3-15.8,3-15.8s124.6-46.3,134.9-51.7c10.3-5.4,86.5-119.5,86.5-119.5
				s28.6-46.9,59.6-43.2c26.9,3.2,40.4,21.3,47.2,39.7c8.1,21.9,1.7,46.5-15.7,62c-39.1,34.8-117.6,103.6-137.2,113.4
				c-43.7,21.8-169.8,31.4-169.8,31.4S1984.4,1227.6,1981.9,1217.8z"/>
			<path class="st21" d="M2244.7,950.2c10.3-9.5,43.1-35.7,43.1-35.7s-2.6-2.8-3.5-3.7c-0.6-0.6-2.7-2.3-2.7-2.3
				c-4.4-0.9-38.4,24.6-49.7,34.7c-13.6,12.1-50.2,50.5-50.2,50.5l17.3,4C2199,997.7,2232.6,961.4,2244.7,950.2z"/>
		</g>
	</g>
	<g>
		<path class="st22" d="M1999.6,1411.2v13c0,4.5-1.5,8.3-3.3,8.3h-473.4c-1.8,0-3.3-3.7-3.3-8.3v-13c0-4.5,1.5-8.3,3.3-8.3h473.4
			C1998.1,1403,1999.6,1406.7,1999.6,1411.2z"/>
		<path class="st23" d="M1999.6,1411.2v13c0,4.5-1.3,8.3-3,8.3h-375.8c-1.6,0-3-3.7-3-8.3v-13c0-4.5,1.3-8.3,3-8.3h375.8
			C1998.2,1403,1999.6,1406.7,1999.6,1411.2z"/>
		<rect x="1543.6" y="1432.5" class="st24" width="336.1" height="489.9"/>
		<rect x="1637.8" y="1432.5" class="st1" width="336.1" height="489.9"/>
		<g>
			<g>
				<path class="st2" d="M1955.9,1895.3h-300v-449h300V1895.3z M1659.1,1892.1h293.5v-442.5h-293.5V1892.1z"/>
			</g>
			<g>
				<rect x="1657.5" y="1594.8" class="st2" width="296.7" height="3.2"/>
			</g>
			<g>
				<rect x="1657.5" y="1746.3" class="st2" width="296.7" height="3.2"/>
			</g>
			<path class="st2" d="M1836.3,1475.3h-55.1c-2.7,0-4.9-2.2-4.9-4.9l0,0c0-2.7,2.2-4.9,4.9-4.9h55.1c2.7,0,4.9,2.2,4.9,4.9l0,0
				C1841.1,1473.1,1839,1475.3,1836.3,1475.3z"/>
			<path class="st2" d="M1836.3,1623.3h-55.1c-2.7,0-4.9-2.2-4.9-4.9l0,0c0-2.7,2.2-4.9,4.9-4.9h55.1c2.7,0,4.9,2.2,4.9,4.9l0,0
				C1841.1,1621.2,1839,1623.3,1836.3,1623.3z"/>
			<path class="st2" d="M1836.3,1777.7h-55.1c-2.7,0-4.9-2.2-4.9-4.9l0,0c0-2.7,2.2-4.9,4.9-4.9h55.1c2.7,0,4.9,2.2,4.9,4.9l0,0
				C1841.1,1775.5,1839,1777.7,1836.3,1777.7z"/>
		</g>
	</g>
	<g>
		<path class="st25" d="M1245.5,37.5v169.3c0,1,0,1.9,0,2.9c-0.2,17.8-1.8,31.8-3.8,31.8h-0.6c-1.9,0-3.4-12-3.8-27.9
			c0-1.3,0-2.7,0-4.1v-0.3c0-0.8,0-1.6,0-2.4V37.6C1240,37.5,1242.7,37.5,1245.5,37.5z"/>
		<g>
			<path class="st21" d="M1241.3,184.6c-77.9,0-141.1,66.8-141.1,149.2h282.2C1382.4,251.3,1319.2,184.6,1241.3,184.6z"/>
			<path class="st26" d="M1252.6,186.4c-4.1-0.9-8.2-1.3-12.4-1.3c-50.8,0-91.9,66.6-91.9,148.7h24.8
				C1173,258.4,1207.7,196.2,1252.6,186.4z"/>
		</g>
	</g>
	<polygon class="st3" points="1128.5,1310.1 1143,1384.3 1111.7,1386.9 1076.4,1314.7 	"/>
</g>
</svg>