<?xml version="1.0" encoding="utf-8"?>
<!-- Generator: Adobe Illustrator 25.2.0, SVG Export Plug-In . SVG Version: 6.00 Build 0)  -->
<svg version="1.1" id="Layer_1" xmlns="http://www.w3.org/2000/svg" xmlns:xlink="http://www.w3.org/1999/xlink" x="0px" y="0px"
	 viewBox="0 0 2760.6 2000" style="enable-background:new 0 0 2760.6 2000;" xml:space="preserve">
<style type="text/css">
	.st0{fill:#787CB0;}
	.st1{fill:#10122E;}
	.st2{fill:#A5A8CA;}
	.st3{fill:#F7CC7F;}
	.st4{fill:#F47458;}
	.st5{fill:#FAE0B2;}
	.st6{fill:#FF7446;}
	.st7{fill:#001653;}
	.st8{fill:#FFFFFF;}
	.st9{fill:#957447;}
	.st10{fill:#F25C12;}
	.st11{fill:#A81E34;}
	.st12{fill:#021F6E;}
	.st13{fill:#021753;}
	.st14{fill:#5D70A2;}
	.st15{fill:#B94B5D;}
	.st16{opacity:0.6;fill:#B5450E;enable-background:new    ;}
	.st17{fill:#00424C;}
	.st18{fill:#FCC332;}
	.st19{fill:#F29913;}
	.st20{fill:#50BFA5;}
	.st21{fill:#100062;}
	.st22{fill:#0C004A;}
	.st23{fill:#F7A491;}
	.st24{fill:#184655;}
	.st25{fill:#355389;}
	.st26{fill:#F8A492;}
	.st27{fill:#005065;}
	.st28{fill:#009FCA;}
	.st29{fill:#FE875E;}
	.st30{fill:#13375B;}
	.st31{fill:#3C8F7C;}
	.st32{fill:#66C5DF;}
</style>
<g>
	<g>
		<g>
			<rect x="351.8" y="372.9" class="st0" width="645.2" height="1484.3"/>
			<g>
				<rect x="743.8" y="285.3" class="st1" width="42.2" height="1572.4"/>
				<g>
					<path class="st2" d="M743.8,285.3c0,4,0.3,1571.7,0.3,1571.7H353.6V372L743.8,285.3z"/>
					<path class="st0" d="M398.3,502.2l1.9,415.1c1.6-0.2,3.3-0.3,4.9-0.3c21.3,0,39.2,17.3,39.3,39.2l216.7-26.7
						c-0.1-20,14.8-36.8,34.6-39.3l-1.9-434.5c-2.8,0.6-5.6,0.9-8.3,0.9c-21.1,0-39.2-17.1-39.3-39.2l-216.7,46
						C429.6,482.1,416.6,498.3,398.3,502.2z M413.5,512.9c14.9-7.1,25.9-20.8,29.7-36.9l191-40.6c6.8,19.1,23.9,33.3,44.5,35.9
						l1.8,407.2c-16.3,6.4-28.5,20.4-32.9,37.3l-190.8,23.5c-6.1-18.6-22-32.9-41.6-36.6L413.5,512.9z"/>
					<path class="st0" d="M399,1258.6l0.9,494.7c0,0,0,0,0.1,0c21.7,0,39.3,17.6,39.4,39.3l56.6-0.1c0-21.7,17.6-39.3,39.3-39.4
						v-499.6c-1.2,0.1-2.3,0.1-3.4,0.1c-21.5,0-39.3-17.5-39.3-39.4l-57.5,5C435,1239.7,419.4,1256.8,399,1258.6z M414.2,1270.6
						c16.7-6.1,29.5-20.1,34.1-37.3l31.5-2.7c5.8,18.5,21.2,32.8,40.3,37v472.5c-17.9,5.2-32,19.4-37.2,37.2l-30.6,0.1
						c-5.2-17.9-19.4-32-37.3-37.2L414.2,1270.6z"/>
					<path class="st0" d="M560.5,1244.6v508.3h0.1c21.7,0,39.4,17.6,39.4,39.4l46.3-0.1c0.2-21.6,17.7-39,39.3-39.1l3.9-512.6
						c-1.2,0.1-2.3,0.1-3.4,0.1c-21.6,0-39.5-17.6-39.3-39.7l-50.2,4.3C596.5,1225.8,580.9,1242.8,560.5,1244.6z M575.7,1256.7
						c16.9-6,29.7-19.9,34.2-37.3l24-2.1c2.6,8.4,7.1,16,13.4,22.4c7.5,7.5,16.8,12.6,26.8,14.9l-3.7,485.6
						c-17.8,5.2-31.9,19.2-37.2,37h-20.3c-5.2-17.9-19.4-32.1-37.3-37.2L575.7,1256.7L575.7,1256.7z"/>
				</g>
			</g>
			<g>
				<ellipse class="st3" cx="654.7" cy="1072" rx="15.9" ry="30.9"/>
				<path class="st4" d="M623.9,1061.1v24.3h33.3c1-4,1.5-8.5,1.5-13.2c0-3.9-0.4-7.6-1.1-11.1L623.9,1061.1L623.9,1061.1z"/>
				<path class="st5" d="M600.9,1072c0,25.7,10.7,46.5,24,46.5s24-20.8,24-46.5s-10.7-46.5-24-46.5S600.9,1046.3,600.9,1072z"/>
				<ellipse class="st5" cx="618.4" cy="1072" rx="24" ry="46.5"/>
			</g>
			<g>
				<path class="st6" d="M2269,1783.6c0,0,0.2,1.5,0.2,4c0,7.5-1.5,24-13.2,36.2c-15.6,16.2-15.7,36.4,0.8,39.9s55.8-1.1,55.8-1.1
					s8.9-15.4,2.8-56.7c-6.1-41.3-9.6-86.5-9.6-86.5l-44.8-7L2269,1783.6z"/>
				<path class="st7" d="M2260.3,1801.1c0,0-16.6,22.6-20.5,32s-3.1,32.8,0,35.2c26.9,21.2,77.8,2.1,77.8,2.1s3.5-15.6,5.3-34.7
					s0.8-36.9-5.3-36.9s-7.1,10-20.9,7.2C2282.9,1803.3,2274.4,1798.3,2260.3,1801.1z"/>
				<path class="st8" d="M2321.8,1845.3c-10.4,4-24.4,8.8-37.5,10.6c-14,2-32.8-4.2-46.9-10.5c-0.7,10,0.3,21.2,2.4,22.8
					c26.9,21.2,77.8,2.1,77.8,2.1S2320,1859.8,2321.8,1845.3z"/>
				<path class="st9" d="M2321.8,1845.3c-38.6,11.6-45.7,13.6-84.4,0.2c6.5,3.5,13.2,6.3,20.3,8.6c14.9,4.6,23.7,4.2,33,2.1
					C2301.7,1853.7,2312.2,1850,2321.8,1845.3z"/>
				<path class="st10" d="M1820.8,1081.7c11,4.1,25.7,10.3,25.7,10.3c1.9-4.6-34.5-12.3-39.6-23.4c-2.7-5.9,41.8,15.9,44.9,13.3
					c1.3-1.1-50.3-17.9-48-21.9c2-3.4,54.3,15,54.6,12.5c0.4-3.5-45.3-12.7-41.2-17.8c2.1-2.6,57.5,12.4,63.5,13.3
					c7.3,0-19.2-18-10.1-20.4c12.2-3.3,43,32,45.4,32.5c7,1.4,66.3,8.7,95.3-10.3c23.4-15.3,46.2-38.9,51.8-59.2
					c5.5-19.9,13-48.3,6.6-70.3c26.4-4,52-4.9,78.8-1.7c1.6,32.9-37.8,163.5-54.3,174.2c-36.3,23.6-101,17.8-146.6,14.1
					c-36.8-3-72.8-10.3-105.9-27.1c-7.4-3.8-17.3-8-23.1-14.5C1816.9,1083.5,1818.7,1080.9,1820.8,1081.7z"/>
				<path class="st11" d="M2086,829.6c-19.7,20.3-39.5,141.9-32.2,170.9c12.6,23.5,69.7,27.6,88.2,38.8
					c42.6-17.5,13.4-96.1,13.4-96.1l15.5-153C2170.9,790.2,2123.4,790.9,2086,829.6z"/>
				<path class="st6" d="M2139.7,1756.4c5.8,18.3,0.1,38.4-14.8,50.5c-5.1,4.2-11.1,8.1-17.9,11c-26.1,11.4-59.9,8.8-64.6,32.3
					c-4.7,23.4,165.5-6.6,165.5-6.6s-11.8-57-12.6-66.5s1-44.6,1-44.6l-65.7-4.7L2139.7,1756.4z"/>
				<path class="st7" d="M2201,1803.3c0,0,2.1,9.1,6.8,24.4c4.8,15.3,1.8,29.8,1.8,29.8s-159.4,7.6-165.9,2.5
					c-6.5-5-3.1-23.4-1.5-25.1c1.6-1.6,21.9-7.1,32.2-13.5c10.4-6.4,45.8-30.6,57.8-29.6s17.5,9.8,40.2,10.8
					C2195.2,1803.6,2195.3,1798.9,2201,1803.3z"/>
				<path class="st8" d="M2043.7,1860c6.5,5,165.9-2.5,165.9-2.5s2-9.5,0.2-21.2c-83.2,15.4-167.5-1.3-167.5-1.3
					C2040.6,1836.6,2037.3,1854.9,2043.7,1860z"/>
				<path class="st9" d="M2209.8,1836.2c-56.8,11.4-119.8,8.9-167.5-1.3c86.8,13.1,156.8,3,151.9,3.4
					C2194.3,1838.3,2210.8,1836.1,2209.8,1836.2z"/>
				<path class="st12" d="M2332.9,1204c27.4,100-6.6,548.7-6.6,548.7l-81.9-5.6c0,0-18.6-446.3-32.1-459.8c-4-4-8.2-2.7-11.5-0.5
					c-3.3,2.3-5.6,5.7-6.8,9.5c-8.4,27.5-56.6,187.9-46.9,223c10.6,38.4,58.1,244.4,58.1,244.4l-68.7,2.7c0,0-94.2-157.3-94.2-267.1
					s15.3-255.4,59.8-314.6c20.3-27,120-47.8,120-47.8S2324.3,1172.7,2332.9,1204z"/>
				<g>
					<path class="st13" d="M2184.9,1763.4c0,0-47.4-219.6-58.1-260.6c-7.7-29.8,21.2-143.9,37.5-204.2c4.9-18.1,26.7-25.4,41.5-13.9
						l0,0c0,0-69.4,196.1-58.7,234.5s58.1,244.4,58.1,244.4l-68.7,2.7c0,0-0.2-0.3-0.5-0.8L2184.9,1763.4z"/>
					<path class="st13" d="M2315.9,1183.2c8.8,6.9,15.1,13.9,17,20.8c27.4,100-6.6,548.7-6.6,548.7l-20.3-1.4
						C2307.1,1735.1,2336.6,1312.7,2315.9,1183.2z"/>
				</g>
				<path class="st13" d="M2086.4,1211.4c4.8-10.2,10-19.2,15.7-26.8c2.4-3.1,5.8-6.2,10-9.1c11.4,5.8,27.1,12.2,48.9,18.9
					c65.6,20.2,136.4,9.4,165.8-0.8c3,3.5,5.1,7.1,6,10.5c2.4,8.7,4.3,20,5.8,33.4c-14.7,10.9-100,37.3-177.7,12.6
					C2111.7,1234.3,2093.4,1224.8,2086.4,1211.4z"/>
				<path class="st14" d="M2326.3,1786.6c-21,6.8-71.5,5.1-83.5,0c-11.1-4.7-11.9-46.1,0-48.3c16.7-3.2,64-2.8,83.5,0
					C2338.2,1740,2337.7,1782.9,2326.3,1786.6z"/>
				<path class="st14" d="M2201.7,1768.2c-21,6.8-71.5,5.1-83.5,0c-11.1-4.7-11.9-46.1,0-48.3c16.7-3.2,64-2.8,83.5,0
					C2213.7,1721.5,2213.2,1764.4,2201.7,1768.2z"/>
				<path class="st15" d="M2233,786.8c0,0,68.3-3.5,96.2,29.6s25.6,380.5,14.3,390.2c-11.3,9.7-108.4,39-185.4,16.2
					c-77.1-22.8-82-54.1-82-54.1s20.5-233.7,20.5-297.5S2159,769.6,2233,786.8z"/>
				<path class="st11" d="M2293.2,1138.7c6-16.8-0.4-70.1-7.3-108.8c-5.4,1-10.5,2.3-15.4,3.7c-8.3-25.5-15.5-91.8-15.8-133.5
					c-0.5-78.2,39.1-100.9,39.1-100.9c7.8-1.8,20.4,5.6,40,26c22.7,62,17.9,350.3,7.3,359.4c-4.5,3.9-13.4,28.3-36.2,33.1
					C2299,1194.5,2287.7,1154.2,2293.2,1138.7z"/>
				<path class="st11" d="M2238.9,787.5c14.8,13.6,16,13.9,0.6,31.7c-15.4,17.9-66.3,38.2-73.6,34.7c-18-8.5-1.3-36.9,10.8-57.4
					C2180.4,790.2,2224.1,773.9,2238.9,787.5z"/>
				<path class="st10" d="M2172.7,736c0,0-4,94,0,98.2c4,4.1,61.1-15.8,66.1-27.5S2218,625,2218,625L2172.7,736z"/>
				<path class="st16" d="M2171,798c10.1-1.8,18.8-4.4,21.4-7.3c23.3-26.3,5.8-69.1,7.7-80.2c3.6-22.1,11.1-40.4,7.4-59.5
					l-34.7,84.9C2172.7,736,2171.3,770,2171,798z"/>
				<g>
					<path class="st17" d="M1866.3,842.9c-3.9,9.8,4.2,19.3,12.7,15.1c2-1,3.5-2.8,4.3-4.8c3.9-9.8-4.2-19.3-12.7-15.1
						C1868.6,839,1867.1,840.8,1866.3,842.9z"/>
					<path class="st17" d="M1871.5,847.6l2.9,4.1l1.8-4.9c2.3-6.3,21.7-62.2,0.3-75c-6.3-3.8-12.3-2.6-16.4,3.3
						C1850.7,788.6,1853.6,822.4,1871.5,847.6z M1864.3,779.1c2-2.8,4.4-3.7,7.4-2.7c0.7,0.2,1.4,0.6,2.2,1
						c13,7.7,4.8,43.4-1.1,61.7C1858.5,815.9,1857.9,788.3,1864.3,779.1z"/>
					<g>
						<path class="st17" d="M1874.2,844.5l4.5,1c4.1,0.9,8.1,1.3,12.1,1.3c19.9,0,37.3-10.3,41.5-22.2c2.2-6.3,0.5-12.3-4.9-16.5
							c-17.8-13.9-47,27.5-50.3,32.2L1874.2,844.5z M1884.4,840c8.3-11.1,23.8-28.4,34.6-28.4c1.9,0,3.7,0.5,5.2,1.8
							c3.2,2.5,4.1,5.3,2.9,8.8C1923.8,831.6,1905.6,842.5,1884.4,840z"/>
					</g>
					<path class="st18" d="M1731.8,1091.7h268.6c14.7,0,26.6-11.9,26.6-26.6V875.5c0-14.7-11.9-26.6-26.6-26.6h-268.6
						c-14.7,0-26.6,11.9-26.6,26.6v189.7C1705.2,1079.8,1717.1,1091.7,1731.8,1091.7z"/>
					<path class="st19" d="M1726.3,848.8h100.6v242.9h-100.6c-11.6,0-21.1-15.1-21.1-33.7V882.5
						C1705.2,863.9,1714.6,848.8,1726.3,848.8z"/>
					<path class="st17" d="M1917.4,848.8h7.9c42.9,77.5,16.6,213.3,10.2,242.9h-6.2c4.4-19.9,35.1-167.6-11.5-242.2
						C1917.6,849.3,1917.5,849.1,1917.4,848.8z"/>
					<path class="st17" d="M1768.9,1090.8c0,0.3,0.1,0.6,0.1,0.9h-5.9c-17.3-138.4,1.8-211.6,14.7-242.9h7.3
						C1773.3,875,1750.8,947.1,1768.9,1090.8z"/>
				</g>
				<g>
					<path class="st20" d="M2246.6,1354.4h200.5c3.8,0,6.9-3.1,6.9-6.9v-130.2c0-3.8-3.1-6.9-6.9-6.9h-200.5c-3.8,0-6.9,3.1-6.9,6.9
						v130.2C2239.8,1351.3,2242.8,1354.4,2246.6,1354.4z"/>
					<rect x="2248" y="1227" class="st8" width="181.5" height="110.8"/>
					<path class="st19" d="M2239.1,1314.1h11.4c2.1,0,3.9-1.7,3.9-3.9v-55.6c0-2.1-1.7-3.9-3.9-3.9h-11.4c-2.1,0-3.9,1.7-3.9,3.9
						v55.6C2235.2,1312.3,2236.9,1314.1,2239.1,1314.1z"/>
				</g>
				<path class="st10" d="M2309.7,1138.7c-13.5,41.1,34.1,130,14.7,158.5s-9.6,58.3,13.8,73.1s52.5-5.9,50.2-17.2
					c-2.3-11.3-8.7-41.6-11.6-55.5c-2.9-13.9,51.6-125.1,13.2-192.5c-22.7-40,10.9-108.9-6.9-153.4c-15.9,29.6-91.2,11.1-86.9,43.6
					C2303.3,1023.1,2317.3,1115.6,2309.7,1138.7z"/>
				<path class="st6" d="M2139.2,638.5c0,0-9.8,33.8-9.8,61.4c0,27.7,0.7,75.6,20.3,75.6s47.7-5.4,54.2-44.6
					c6.5-39.2,0-82.4-19.6-92.5C2164.7,628.4,2139.2,638.5,2139.2,638.5z"/>
				<path class="st21" d="M2146.8,663.5c5.3-2.2,10.7,2.5,9.7,8.3c-1.6,9.3-1.2,19.4,7.4,21.5c16.7,4.1,24.5,0,27.3,2.8
					c2.7,2.8-7.9,17.8,0,20.7c7.9,2.8,12.1-24.1,19.1-24.1s8.5,38.8,0,47.6s1.2,20.7,12.4,20.7s-1.4,14.1,13.7,18.8
					c15.1,4.7,27.2,4.7,32.1-14.4c4.8-19.1,0-29.7,0-29.7s15.4-18,11.5-35.9c-2.2-9.9-12.2-27.7-12.2-27.7s-7.8-21.2-9.9-33.4
					c-2.1-12.2-32.2-24.4-52.7-26.6c-20.6-2.2-10.3-14.7-27.5-14.7S2158,620,2158,620s-24.7-14.7-25.8-14
					c-14.3,8.7-2.4,24.1-2.4,24.1s-11.8,1.3-14.2,16.6s7.6,24.7,23.3,19.7C2141.8,665.4,2144.5,664.4,2146.8,663.5z"/>
				<path class="st22" d="M2129.8,607.7c3,0.4,7,1.4,11.8,2.8c7.4,4.1,16.4,9.5,16.4,9.5s32.2,9,50.6,17.8
					c23.6,11.3,44.3,22.6,58.3,31.5c0.6,1.6,0.9,2.6,0.9,2.6s3.7,6.6,7.1,13.9c-14.6-3.2-43.2-14.2-75.1-29.4
					C2163.7,639.2,2127.7,609.4,2129.8,607.7z"/>
				<path class="st6" d="M2199.4,690.5c0,0,8.3-15.3,15.7-6.8c7.4,8.6,3.5,44.7-7.9,44.7S2195.3,700.2,2199.4,690.5z"/>
				<path class="st15" d="M2291.8,800c0,0-23.2,17.7-22.8,95.8c0.2,41.7,12.5,112.3,20,137.8c31.3-9.9,75.4-10.5,107.3,0
					c4.3-34.1-4.4-106.9-9.8-130.4C2373.2,845.4,2325,786.8,2291.8,800z"/>
				<path class="st11" d="M2151.2,611.8c15.4-32.4,54.5-46,87.2-30.5c32.7,15.6,46.7,54.5,31.3,86.9c-0.6,1.2-1.2,2.5-1.9,3.6
					l-118.2-56.3C2150.1,614.3,2150.6,613,2151.2,611.8z"/>
				<path class="st15" d="M2175.8,626.6c0.5-1.3,1-2.5,1.6-3.8c12.9-27.1,42.3-41,70.7-35.8c-3-2.1-6.2-4-9.7-5.6
					c-32.7-15.6-71.8-2-87.2,30.5c-0.6,1.2-1.1,2.5-1.6,3.8l118.2,56.3C2268,671.5,2175.8,626.6,2175.8,626.6z"/>
				<path class="st11" d="M2096.8,592c1.3-2.6,62.8,22.5,102.2,41.2c39.3,18.8,70.2,36.1,69,38.7c-1.3,2.6-66.5-12.7-105.9-31.4
					C2122.7,621.8,2095.5,594.6,2096.8,592z"/>
			</g>
			<g>
				<path class="st23" d="M933.2,1754.7c0,0-13.9,13.8-14.2,18.8s-1.2,59.1,4.4,64.2c5.7,5.1,22.4,8.6,17,14.3
					c-4.1,4.3-35.2,3.4-55.9,2.2c-6-0.3-13.6-49.1-16-56.3c-3.5-10.4-14.4-36.6-11.3-43.9c1.5-3.5,11.4-8.1,21.8-14.8
					c10.9-7.1,21.3-23,21.3-23L933.2,1754.7z"/>
				<path class="st23" d="M1119.2,1788.5c0,0-12.4,35.6-12.5,35.7c-0.9,5.6-4.6,19.6-4.6,24.7c0,19.3,85.8-16.4,66.6-24.9
					c-1.7-0.8-7.2-7-7.8-13.5c-0.9-10.1,7.2-22.8,7.2-22.8L1119.2,1788.5z"/>
				<g>
					<path class="st24" d="M1112.1,1153l-44.4,51.8l-43.6,271.1L887,1728.8c0,0,20.6,31.6,42.7,36.6l194.5-255.6l105.4-320
						l-3.7-71.1L1112.1,1153z"/>
					<path class="st25" d="M1223.3,1103l30.7,94.7c0,0,27,282,23.2,301.5c-9.4,47.4-104.1,305.5-104.1,305.5l-60.7-7.7l66.6-305.2
						l-111-286.7L1223.3,1103z"/>
				</g>
				<path class="st26" d="M1518,780.7c-14.4,15.8-11.2,17.7-13.1,19.7c-2.2,2.3-43.9,11.2-43.9,11.2s-122.6,27-129.3,28.2
					l-127.2-28.9l-31,61.6c0,0,139.1,27.6,146.6,27.8c7.5,0.1,168.9-56.6,183.3-61.1c0,0,19.1,1.2,31.1,1.6
					c12,0.4,23.5-4.9,26.9-5.3c0.5-0.1,11.7-2.2,24.8-8.7c11.3-5.6-1.9-5.7-1.9-5.7s-22.7,6.4-22.9,4.5c-0.2-1.5,12.5-4.3,25-10.3
					c3.2-1.6,6.4-3.1,9.3-4.6c7.6-3.8,7.5-9.8-1.1-7.2c-3,0.9-8.1,2.6-11.5,4.3c-3.7,1.9-7.6,2.3-11,3.4c-6.6,2.1-11.4,3.8-11.3,3.4
					c0.1-0.4-1.5-1,1.8-2.7c4.1-2.1,13.7-4.6,19.4-8.2c3.2-2,10.3-5.9,10.3-5.9s11.7-7.7,10.6-9.3c-2.5-3.5-10.7,0-14.8,3.4
					c-3.7,0.8-11,5-11,5s-16.6,5.1-17.4,2.7c-0.3-1,8.3-6,16.9-11.9c9.1-6.3,15.3-11.3,14.4-13.3c-1.4-3.2-9,1.3-9,1.3
					s-6.7,3.9-9.1,5.1c-2.7,1.3-11.2,4.6-11.2,4.6s-30.1,10.1-30.6,7.7c-0.5-2.4,0.5-9,2.1-10.3s5.9-2,7.5-3.3
					c1.7-1.3,4.9-4.4,3.5-6.7s-13.9,0.8-13.9,0.8S1522.1,776.1,1518,780.7z"/>
				<path class="st27" d="M1248.1,817.5c0,0-4.4,27-7.2,37c-2.3,8.3-18.8,42.5-18.8,42.5s-59-19.3-86.8-30.4
					c-33.8-13.4-72.9-42.3-70.4-46c7.1-10.3,18.6-22.2,34.8-26.3C1155.9,780.2,1248.1,817.5,1248.1,817.5z"/>
				<path class="st28" d="M1254.9,1195.7c-56.3,22.2-188.5,9.4-188.5,9.4s8.4-57.7,11.3-96.7c3-39-21.9-100.7-32.3-207.8
					c-2.2-22.7,6.7-84,38.5-103.3c11.2-6.8,18-7.6,18-7.6c0.3,0,43.8-8.9,66-2c6.3,5.6,26,21.9,37.3,40.8
					c14.9,25.1,27.1,54.1,29.9,63.7c12.8,42.5,18.3,165.4,18.3,188.6C1253.5,1103.9,1254.9,1195.7,1254.9,1195.7z"/>
				<path class="st23" d="M1205.2,828.5C1205.2,828.5,1205.1,828.5,1205.2,828.5c-21.7,6.8-103.3-38.5-103.3-38.5v-0.2l9.9-64.7
					c0,0,50.9-12,47.9,6.4s6.9,55.1,6.9,55.1c0.3,0.3,0.7,0.7,1.3,1.2C1174.3,793.2,1193.9,809.5,1205.2,828.5z"/>
				<path class="st29" d="M1159.8,731.4c3-18.4-47.9-6.4-47.9-6.4l-0.8,5.4c1.5,3.6,3.3,6.7,5.5,9c11.4,12.2,29.1,19.5,44.5,20
					C1159.5,749.5,1158.6,738.9,1159.8,731.4z"/>
				<g>
					<path class="st23" d="M1102,625.6c-1.6-0.6-12.5,80.1,8.3,102.2c20.8,22.2,61.2,29.4,75.7,12c16-19.3,15.2-106-17-128.8
						C1136.7,588.2,1102,625.6,1102,625.6z"/>
					<path class="st30" d="M1156.6,567.9c-24.9,5-41.1,20.2-47,26.6c-11.3,1.3-26.7,7.5-42.6,33.7c-19.5,32.1-5.1,67.7,17.6,85.2
						s22.5,37.8,22.5,37.8s38.5-19.8,34.8-50.3c-1.6-12.8-7.1-15.7-3-25.7c4.3-10.4,1.1-26.6,1.9-40.6l2.3-8.8c0,0,16.1-12.5,31.9-9
						C1190.9,620.3,1188.6,561.4,1156.6,567.9z"/>
					<path class="st23" d="M1145.3,683.6c0.2,9.8-1.8,17.7-7.6,17.8c-5.7,0.1-7.3-3.8-12.1-17.6c-4.4-13,1-17.9,6.7-18
						C1138.1,665.7,1145.1,673.8,1145.3,683.6z"/>
				</g>
				<path class="st31" d="M879.7,1738.8c0,0,29,89.2,41.6,93.7c3.3,1.2,22.3,6.4,25.3,13.5c0.1,0.2,0.1,0.4,0.2,0.6
					c1,4.5-2.8,8.7-7.5,8.7h-59.5c0,0-8.4-40.3-11.8-58c0,0-17.7-43.3-15.7-47.2C854.2,1746.3,879.7,1738.8,879.7,1738.8z"/>
				<path class="st31" d="M1097.3,1855.3l9.8-31.5c0,0,20.6,8.8,31,7.4c10.3-1.5,30.5-7.4,30.5-7.4c41.2,13.7,74.9,20.4,68.8,31.5
					l0,0H1097.3z"/>
				<path class="st26" d="M1521.5,916.9c-18.9,11.5-17.8,12.9-20.3,14.3c-2.9,1.7-48-0.3-48-0.3s-132.8-5-139.9-5.5L1190.9,866
					l-48.2,51c0,0,135,61.2,142.6,63.1c7.6,2,188.1-11.6,204.1-12.3c0,0,19.2,6,31.4,9.3c12.2,3.4,25.4,1.3,29,1.7
					c0.5,0.1,12.6,0.8,27.7-2.1c13.1-2.5-0.4-5.9-0.4-5.9s-25,0.4-24.7-1.5c0.3-1.5,13.9-0.9,28.4-3.6c3.7-0.7,7.4-1.4,10.8-2
					c8.8-1.7,10.3-7.5,0.8-7.1c-3.4,0.1-8.9,0.5-12.9,1.3c-4.3,0.9-8.5,0.3-12.2,0.5c-7.3,0.4-12.3,0.7-12.1,0.4
					c0.2-0.4-1.7-1.3,2.2-2.1c4.7-1,15.2-1,22-3c3.9-1.1,12.1-3,12.1-3s9.8-5.8,9.7-6.6c-0.4-4.2-7.3-2.2-12.4,0
					c-3.9-0.2-12.6,2-12.6,2s-18.4,0.7-18.5-1.8c0-1,10.6-1.7,21.5-5.2c12.5-4,15.7-9.6,15.3-11.8c-0.5-3.4-7.6-0.2-7.6-0.2
					s-9.7,4.4-12.4,4.9c-3.2,0.6-44.5,1.3-44.4-1.1c0.1-2.4,4.1-5.6,6.1-6.4c2-0.8,5.9-2,8-2.8c2-0.8,3.4-5,2.6-7.5
					s-9.8-1.2-9.8-1.2S1527,913.6,1521.5,916.9z"/>
				<path class="st32" d="M1178.9,971.6c0,0,24.1-30.4,32.5-42.7c16.3-23.9,29.9-50.8,29.9-50.8s-67.1-38.7-92.1-51.8
					c-91.8-48.4-89.7,23.8-85.4,39.8C1073.4,901.9,1178.9,971.6,1178.9,971.6z"/>
				<path class="st29" d="M1519.5,814.2c7.9-4.5,14.1-11.6,12.1-20.6C1538.4,800.7,1529.8,813.8,1519.5,814.2z"/>
			</g>
		</g>
	</g>
</g>
</svg>