<?xml version="1.0" encoding="utf-8"?>
<!-- Generator: Adobe Illustrator 25.2.0, SVG Export Plug-In . SVG Version: 6.00 Build 0)  -->
<svg version="1.1" id="Layer_1" xmlns="http://www.w3.org/2000/svg" xmlns:xlink="http://www.w3.org/1999/xlink" x="0px" y="0px"
	 viewBox="0 0 2760.6 2000" style="enable-background:new 0 0 2760.6 2000;" xml:space="preserve">
<style type="text/css">
	.st0{fill:#F4F7FA;}
	.st1{fill:url(#SVGID_1_);}
	.st2{fill:#D8DEE8;}
	.st3{clip-path:url(#SVGID_3_);}
	.st4{fill:#FFFFFF;}
	.st5{fill:url(#SVGID_4_);}
	.st6{fill:url(#SVGID_5_);}
	.st7{clip-path:url(#SVGID_7_);}
	.st8{fill:url(#SVGID_8_);}
	.st9{fill:#97A6B7;}
	.st10{clip-path:url(#SVGID_10_);}
	.st11{opacity:0.53;fill:url(#SVGID_11_);}
	.st12{opacity:0.53;fill:url(#SVGID_12_);}
	.st13{opacity:0.53;fill:url(#SVGID_13_);}
	.st14{fill:url(#SVGID_14_);}
	.st15{fill:url(#SVGID_15_);}
	.st16{fill:url(#SVGID_16_);}
	.st17{fill:url(#SVGID_17_);}
	.st18{fill:url(#SVGID_18_);}
	.st19{fill:url(#SVGID_19_);}
	.st20{fill:url(#SVGID_20_);}
	.st21{fill:url(#SVGID_21_);}
	.st22{fill:url(#SVGID_22_);}
	.st23{fill:url(#SVGID_23_);}
	.st24{fill:url(#SVGID_24_);}
	.st25{fill:url(#SVGID_25_);}
	.st26{fill:url(#SVGID_26_);}
	.st27{fill:url(#SVGID_27_);}
	.st28{fill:url(#SVGID_28_);}
	.st29{fill:url(#SVGID_29_);}
	.st30{fill:url(#SVGID_30_);}
	.st31{fill:#A61E33;}
	.st32{fill:url(#SVGID_31_);}
	.st33{fill:url(#SVGID_32_);}
	.st34{opacity:0.8;fill:url(#SVGID_33_);}
	.st35{fill:url(#SVGID_34_);}
	.st36{opacity:0.3;}
	.st37{fill:url(#SVGID_35_);}
	.st38{fill:url(#SVGID_36_);}
	.st39{fill:#808080;}
	.st40{fill:url(#SVGID_37_);}
	.st41{opacity:0.3;fill:#FFFFFF;}
	.st42{fill:url(#SVGID_38_);}
	.st43{fill:url(#SVGID_39_);}
	.st44{fill:url(#SVGID_40_);}
	.st45{fill:#8385A9;}
	.st46{fill:#0F112E;}
	.st47{fill:url(#SVGID_41_);}
	.st48{fill:url(#SVGID_42_);}
	.st49{fill:url(#SVGID_43_);}
	.st50{fill:url(#SVGID_44_);}
	.st51{opacity:0.71;}
	.st52{fill:#C1C1C1;}
</style>
<g>
	<path class="st0" d="M1810.3,162c65,91-8.5,240.3,87.2,308.2c93.2,66.1,205.6-45,293.3,11.8c130.1,84.3,110.7,476.5-75.7,722
		c-56.1,73.8-103.2,102.8-123.4,185.9c-43.3,178.3,116.5,282.4,87.3,370.7c-65.9,198.8-1110,376-1535.9-214.8
		C344.1,1269.8,310.6,868.7,482.5,562C793.1,7.7,1664.6-42.1,1810.3,162z"/>
	<g>
		<g>
			<linearGradient id="SVGID_1_" gradientUnits="userSpaceOnUse" x1="617.96" y1="882.2589" x2="1157.2576" y2="882.2589">
				<stop  offset="0" style="stop-color:#FF9085"/>
				<stop  offset="1" style="stop-color:#FB6FBB"/>
			</linearGradient>
			<polygon class="st1" points="1157.3,1681.5 618,1640.5 618,122.9 1157.3,83 			"/>
			<polygon class="st2" points="670.2,676.3 670.2,1321.3 659.6,1321.3 659.6,1486.3 1157.3,1486.3 1157.3,676.3 			"/>
			<g>
				<defs>
					<polygon id="SVGID_2_" points="659.6,1574.2 659.6,189.3 1157.3,155.9 1157.3,1608.6 					"/>
				</defs>
				<clipPath id="SVGID_3_">
					<use xlink:href="#SVGID_2_"  style="overflow:visible;"/>
				</clipPath>
				<g class="st3">
					<path class="st4" d="M1318.7-27.6c0,0,0.5,349.1,78.8,509.4c78.3,160.3,107.7,316.3,48.8,407.6c-58.9,91.4-289.1-48-289.1-48
						s-108.6,76.6-157.7,240.6c-49.1,163.9-368.2,300.6-436.9,254.3C493.9,1290,523.4,52.8,523.4,52.8L1318.7-27.6z"/>
					<path class="st4" d="M547.9,1430.3c0,0,193.4,90.2,339.7,6.8c146.3-83.3,269.6-233.1,269.6-233.1s148.8,91.2,228.8,86.1
						c79.9-5.1,139.1-261.6,139.1-261.6s132.3-65.8,191.2-199.2c58.9-133.4,239.7-278.7,338.7-309.2c99-30.4,157.1,26.4,157.1,26.4
						l-24.5,1163l-1528,80L547.9,1430.3z"/>
					<linearGradient id="SVGID_4_" gradientUnits="userSpaceOnUse" x1="1739.776" y1="-6.6238" x2="2168.6758" y2="953.9069">
						<stop  offset="0" style="stop-color:#FCB148"/>
						<stop  offset="5.207239e-02" style="stop-color:#FDBA46"/>
						<stop  offset="0.1424" style="stop-color:#FFC244"/>
						<stop  offset="0.3183" style="stop-color:#FFC444"/>
						<stop  offset="0.4849" style="stop-color:#FDB946"/>
						<stop  offset="0.7754" style="stop-color:#F99C4D"/>
						<stop  offset="0.8658" style="stop-color:#F8924F"/>
						<stop  offset="1" style="stop-color:#F8924F"/>
					</linearGradient>
					<path class="st5" d="M1418.7,15.8c0,0-52.1,239.2,0,302.6c52.1,63.4,91.9,244.9,106.4,294.1c14.5,49.2,127.4,156.8,186.3,58.8
						c58.9-98,147.3-169.5,191.5-202.5c44.2-33,324-66.9,338.7-91.7c14.7-24.8,24.5-306.1,24.5-306.1L1418.7,15.8z"/>
				</g>
			</g>
		</g>
		<g>
			<linearGradient id="SVGID_5_" gradientUnits="userSpaceOnUse" x1="1696.6488" y1="515.1532" x2="2321.5613" y2="2124.7734">
				<stop  offset="0" style="stop-color:#FF9085"/>
				<stop  offset="1" style="stop-color:#FB6FBB"/>
			</linearGradient>
			<polygon class="st6" points="1525.1,1594.3 2154.1,1594.3 2154.1,172.3 1525.1,172.3 			"/>
			<polygon class="st2" points="2103.1,1529.4 2103.1,236.3 1525.1,236.3 1351.7,724.6 1525.1,1529.4 			"/>
			<g>
				<defs>
					
						<rect id="SVGID_6_" x="1167.5" y="593.8" transform="matrix(-1.836970e-16 1 -1 -1.836970e-16 2696.9009 -931.2643)" width="1293.1" height="578"/>
				</defs>
				<clipPath id="SVGID_7_">
					<use xlink:href="#SVGID_6_"  style="overflow:visible;"/>
				</clipPath>
				<g class="st7">
					<path class="st4" d="M1318.7-27.6c0,0,0.5,349.1,78.8,509.4c78.3,160.3,107.7,316.3,48.8,407.6c-58.9,91.4-289.1-48-289.1-48
						s-108.6,76.6-157.7,240.6c-49.1,163.9-368.2,300.6-436.9,254.3C493.9,1290,523.4,52.8,523.4,52.8L1318.7-27.6z"/>
					<path class="st4" d="M547.9,1430.3c0,0,193.4,90.2,339.7,6.8c146.3-83.3,269.6-233.1,269.6-233.1s148.8,91.2,228.8,86.1
						c79.9-5.1,139.1-261.6,139.1-261.6s132.3-65.8,191.2-199.2c58.9-133.4,239.7-278.7,338.7-309.2c99-30.4,157.1,26.4,157.1,26.4
						l-24.5,1163l-1528,80L547.9,1430.3z"/>
					<path class="st4" d="M1418.7,15.8c0,0-52.1,239.2,0,302.6c52.1,63.4,91.9,244.9,106.4,294.1c14.5,49.2,127.4,156.8,186.3,58.8
						c58.9-98,147.3-169.5,191.5-202.5c44.2-33,324-66.9,338.7-91.7c14.7-24.8,24.5-306.1,24.5-306.1L1418.7,15.8z"/>
				</g>
			</g>
		</g>
		<g>
			<linearGradient id="SVGID_8_" gradientUnits="userSpaceOnUse" x1="1006.5234" y1="881.3454" x2="1689.3888" y2="885.4839">
				<stop  offset="0" style="stop-color:#FF9085"/>
				<stop  offset="1" style="stop-color:#FB6FBB"/>
			</linearGradient>
			<polygon class="st8" points="1525.1,1594.3 1157.3,1681.5 1157.3,83 1525.1,172.3 1525.1,236.3 1456.2,372.9 1435.2,1502.3 
				1525.1,1529.4 			"/>
			<polygon class="st9" points="1525.1,1312.7 1525.1,252.9 1395.6,208.5 1331.3,194.3 1320.2,193 1320.2,839.7 1157.3,839.7 
				1157.3,1312.7 			"/>
			<g>
				<defs>
					<polygon id="SVGID_9_" points="1157.3,1608.6 1157.3,155.9 1525.1,236.3 1525.1,1529.5 					"/>
				</defs>
				<clipPath id="SVGID_10_">
					<use xlink:href="#SVGID_9_"  style="overflow:visible;"/>
				</clipPath>
				<g class="st10">
					<path class="st2" d="M1318.7-27.6c0,0,0.5,349.1,78.8,509.4c78.3,160.3,107.7,316.3,48.8,407.6c-58.9,91.4-289.1-48-289.1-48
						s-108.6,76.6-157.7,240.6c-49.1,163.9-368.2,300.6-436.9,254.3C493.9,1290,523.4,52.8,523.4,52.8L1318.7-27.6z"/>
					<path class="st2" d="M547.9,1430.3c0,0,193.4,90.2,339.7,6.8c146.3-83.3,269.6-233.1,269.6-233.1s148.8,91.2,228.8,86.1
						c79.9-5.1,139.1-261.6,139.1-261.6s132.3-65.8,191.2-199.2c58.9-133.4,239.7-278.7,338.7-309.2c99-30.4,157.1,26.4,157.1,26.4
						l-24.5,1163l-1528,80L547.9,1430.3z"/>
					<path class="st2" d="M1418.7,15.8c0,0-52.1,239.2,0,302.6c52.1,63.4,91.9,244.9,106.4,294.1c14.5,49.2,127.4,156.8,186.3,58.8
						c58.9-98,147.3-169.5,191.5-202.5c44.2-33,324-66.9,338.7-91.7c14.7-24.8,24.5-306.1,24.5-306.1L1418.7,15.8z"/>
				</g>
			</g>
		</g>
		<g>
			<linearGradient id="SVGID_11_" gradientUnits="userSpaceOnUse" x1="1809.1735" y1="915.3009" x2="1818.9921" y2="915.3009">
				<stop  offset="0" style="stop-color:#311944"/>
				<stop  offset="1" style="stop-color:#A03976"/>
			</linearGradient>
			<rect x="1809.2" y="236.3" class="st11" width="9.8" height="1358.1"/>
			<linearGradient id="SVGID_12_" gradientUnits="userSpaceOnUse" x1="903.5417" y1="883.4753" x2="913.3601" y2="883.4753">
				<stop  offset="0" style="stop-color:#311944"/>
				<stop  offset="1" style="stop-color:#A03976"/>
			</linearGradient>
			<rect x="903.5" y="172.6" class="st12" width="9.8" height="1421.7"/>
			<linearGradient id="SVGID_13_" gradientUnits="userSpaceOnUse" x1="659.2299" y1="642.1119" x2="2103.072" y2="642.1119">
				<stop  offset="0" style="stop-color:#311944"/>
				<stop  offset="1" style="stop-color:#A03976"/>
			</linearGradient>
			<polygon class="st13" points="2103.1,690.8 1524.5,690.8 1524,690.6 1156.9,603.4 660.1,645.3 659.2,635.6 1157.6,593.5 
				1158.4,593.6 1525.7,680.9 2103.1,680.9 			"/>
		</g>
	</g>
	<g>
		<linearGradient id="SVGID_14_" gradientUnits="userSpaceOnUse" x1="473.8668" y1="1755.3511" x2="1707.0775" y2="1755.3511">
			<stop  offset="0" style="stop-color:#444B8C"/>
			<stop  offset="0.9964" style="stop-color:#26264F"/>
		</linearGradient>
		<path class="st14" d="M473.9,1617.3v90.1c0,8.4,6.3,15.4,14.7,16.3l922.8,87.4l124.2,82.2l171.5-228.2L473.9,1617.3z"/>
		<linearGradient id="SVGID_15_" gradientUnits="userSpaceOnUse" x1="1181.1904" y1="1799.2499" x2="1414.3185" y2="1799.2499">
			<stop  offset="0" style="stop-color:#444B8C"/>
			<stop  offset="0.9964" style="stop-color:#26264F"/>
		</linearGradient>
		<path class="st15" d="M1181.2,1741.2v80.7c0,6.8,4.9,12.5,11.6,13.6l221.5,35.6l-6.4-130l-212-13.6
			C1187.9,1727,1181.2,1733.3,1181.2,1741.2z"/>
		<g>
			<linearGradient id="SVGID_16_" gradientUnits="userSpaceOnUse" x1="534.2434" y1="1714.8784" x2="600.4561" y2="1714.8784">
				<stop  offset="0" style="stop-color:#311944"/>
				<stop  offset="1" style="stop-color:#6B3976"/>
			</linearGradient>
			<path class="st16" d="M567.3,1658.9c-0.8,0-1.5,0.1-2.2,0.1l-11.7-0.1l0.1,5.2c-11.4,8.9-19.2,28.3-19.2,50.8
				c0,23.4,8.5,43.5,20.6,51.8l0.1,4.2h12.5c18.3,0,33.1-25.1,33.1-56C600.5,1684,585.6,1658.9,567.3,1658.9z"/>
			<linearGradient id="SVGID_17_" gradientUnits="userSpaceOnUse" x1="520.2969" y1="1714.8784" x2="586.5094" y2="1714.8784">
				<stop  offset="0" style="stop-color:#311944"/>
				<stop  offset="1" style="stop-color:#6B3976"/>
			</linearGradient>
			<ellipse class="st17" cx="553.4" cy="1714.9" rx="33.1" ry="56"/>
			<ellipse class="st2" cx="548.8" cy="1714.9" rx="18.6" ry="31.4"/>
			<linearGradient id="SVGID_18_" gradientUnits="userSpaceOnUse" x1="584.7938" y1="1719.3516" x2="533.0905" y2="1712.3916">
				<stop  offset="5.405410e-03" style="stop-color:#D8DEE8"/>
				<stop  offset="1" style="stop-color:#F4F7FA"/>
			</linearGradient>
			<ellipse class="st18" cx="551.6" cy="1714.9" rx="15.8" ry="29.2"/>
		</g>
		<g>
			<linearGradient id="SVGID_19_" gradientUnits="userSpaceOnUse" x1="609.313" y1="1726.5277" x2="681.8585" y2="1726.5277">
				<stop  offset="0" style="stop-color:#311944"/>
				<stop  offset="1" style="stop-color:#6B3976"/>
			</linearGradient>
			<path class="st19" d="M645.6,1665.2c-0.8,0-1.6,0.1-2.4,0.2l-12.8-0.2l0.1,5.6c-12.4,9.7-21.1,31-21.1,55.7
				c0,25.7,9.3,47.6,22.6,56.8l0.1,4.5h13.7c20,0,36.3-27.5,36.3-61.3C681.9,1692.7,665.6,1665.2,645.6,1665.2z"/>
			<linearGradient id="SVGID_20_" gradientUnits="userSpaceOnUse" x1="594.0327" y1="1726.5277" x2="666.5778" y2="1726.5277">
				<stop  offset="0" style="stop-color:#311944"/>
				<stop  offset="1" style="stop-color:#6B3976"/>
			</linearGradient>
			<ellipse class="st20" cx="630.3" cy="1726.5" rx="36.3" ry="61.3"/>
			<ellipse class="st2" cx="625.2" cy="1726.5" rx="20.4" ry="34.4"/>
			<linearGradient id="SVGID_21_" gradientUnits="userSpaceOnUse" x1="664.6979" y1="1731.4286" x2="608.05" y2="1723.803">
				<stop  offset="5.405410e-03" style="stop-color:#D8DEE8"/>
				<stop  offset="1" style="stop-color:#F4F7FA"/>
			</linearGradient>
			<path class="st21" d="M645.6,1726.5c0,17.7-7.7,32-17.3,32c-9.6,0-17.3-14.3-17.3-32c0-17.7,7.7-32,17.3-32
				C637.8,1694.5,645.6,1708.9,645.6,1726.5z"/>
		</g>
		<g>
			<linearGradient id="SVGID_22_" gradientUnits="userSpaceOnUse" x1="689.4927" y1="1732.1606" x2="768.7028" y2="1732.1606">
				<stop  offset="0" style="stop-color:#311944"/>
				<stop  offset="1" style="stop-color:#6B3976"/>
			</linearGradient>
			<path class="st22" d="M729.1,1665.2c-0.9,0-1.8,0.1-2.7,0.2l-14-0.2l0.1,6.2c-13.6,10.6-23,33.8-23,60.8c0,28,10.2,52,24.6,62
				l0.1,5h14.9c21.9,0,39.6-30,39.6-66.9C768.7,1695.2,751,1665.2,729.1,1665.2z"/>
			<linearGradient id="SVGID_23_" gradientUnits="userSpaceOnUse" x1="672.8085" y1="1732.1608" x2="752.0184" y2="1732.1608">
				<stop  offset="0" style="stop-color:#311944"/>
				<stop  offset="1" style="stop-color:#6B3976"/>
			</linearGradient>
			<ellipse class="st23" cx="712.4" cy="1732.2" rx="39.6" ry="66.9"/>
			<ellipse class="st2" cx="706.8" cy="1732.2" rx="22.3" ry="37.6"/>
			<linearGradient id="SVGID_24_" gradientUnits="userSpaceOnUse" x1="749.9659" y1="1737.512" x2="688.1135" y2="1729.1857">
				<stop  offset="5.405410e-03" style="stop-color:#D8DEE8"/>
				<stop  offset="1" style="stop-color:#F4F7FA"/>
			</linearGradient>
			<ellipse class="st24" cx="710.2" cy="1732.2" rx="18.9" ry="34.9"/>
		</g>
		<g>
			<linearGradient id="SVGID_25_" gradientUnits="userSpaceOnUse" x1="1063.5914" y1="1785.5975" x2="1164.7112" y2="1785.5975">
				<stop  offset="0" style="stop-color:#311944"/>
				<stop  offset="1" style="stop-color:#6B3976"/>
			</linearGradient>
			<path class="st25" d="M1114.2,1700.1c-1.1,0-2.3,0.1-3.4,0.2l-17.9-0.2l0.1,7.9c-17.3,13.6-29.4,43.2-29.4,77.6
				c0,35.8,13,66.4,31.4,79.1l0.1,6.3h19c27.9,0,50.6-38.3,50.6-85.5C1164.7,1738.4,1142.1,1700.1,1114.2,1700.1z"/>
			<linearGradient id="SVGID_26_" gradientUnits="userSpaceOnUse" x1="1042.2926" y1="1785.5977" x2="1143.4119" y2="1785.5977">
				<stop  offset="0" style="stop-color:#311944"/>
				<stop  offset="1" style="stop-color:#6B3976"/>
			</linearGradient>
			<ellipse class="st26" cx="1092.9" cy="1785.6" rx="50.6" ry="85.5"/>
			<ellipse class="st2" cx="1085.7" cy="1785.6" rx="28.4" ry="48"/>
			<linearGradient id="SVGID_27_" gradientUnits="userSpaceOnUse" x1="1140.7916" y1="1792.4291" x2="1061.8307" y2="1781.7997">
				<stop  offset="5.405410e-03" style="stop-color:#D8DEE8"/>
				<stop  offset="1" style="stop-color:#F4F7FA"/>
			</linearGradient>
			<ellipse class="st27" cx="1090" cy="1785.6" rx="24.1" ry="44.6"/>
		</g>
		<g>
			<linearGradient id="SVGID_28_" gradientUnits="userSpaceOnUse" x1="1386.0146" y1="1822.8291" x2="1515.199" y2="1822.8291">
				<stop  offset="0" style="stop-color:#311944"/>
				<stop  offset="1" style="stop-color:#6B3976"/>
			</linearGradient>
			<path class="st28" d="M1450.6,1713.6c-1.5,0-2.9,0.1-4.4,0.3l-22.9-0.3l0.1,10.1c-22.1,17.3-37.5,55.2-37.5,99.1
				c0,45.7,16.6,84.8,40.2,101.1l0.1,8.1h24.3c35.7,0,64.6-48.9,64.6-109.2C1515.2,1762.5,1486.3,1713.6,1450.6,1713.6z"/>
			<linearGradient id="SVGID_29_" gradientUnits="userSpaceOnUse" x1="1358.8044" y1="1822.8292" x2="1487.9883" y2="1822.8292">
				<stop  offset="0" style="stop-color:#311944"/>
				<stop  offset="1" style="stop-color:#6B3976"/>
			</linearGradient>
			<ellipse class="st29" cx="1423.4" cy="1822.8" rx="64.6" ry="109.2"/>
			<ellipse class="st2" cx="1414.3" cy="1822.8" rx="36.3" ry="61.3"/>
			<linearGradient id="SVGID_30_" gradientUnits="userSpaceOnUse" x1="1484.6409" y1="1831.5565" x2="1383.7655" y2="1817.9772">
				<stop  offset="5.405410e-03" style="stop-color:#D8DEE8"/>
				<stop  offset="1" style="stop-color:#F4F7FA"/>
			</linearGradient>
			<ellipse class="st30" cx="1419.8" cy="1822.8" rx="30.8" ry="56.9"/>
		</g>
		<path class="st31" d="M419,1137.6c-12.1,2-20.9,12.5-20.9,24.7v456.9c0,13.3,10.4,24.3,23.7,25l858.7,47.9V994.4L419,1137.6z"/>
		<linearGradient id="SVGID_31_" gradientUnits="userSpaceOnUse" x1="1999.574" y1="1048.1506" x2="1009.9763" y2="1677.4338">
			<stop  offset="0" style="stop-color:#CA7885"/>
			<stop  offset="1" style="stop-color:#A61E33"/>
		</linearGradient>
		<path class="st32" d="M1764.7,1010.6l-484.3-16.3v697.7h510.3v-654.5C1790.7,1023,1779.2,1011.1,1764.7,1010.6z"/>
		<linearGradient id="SVGID_32_" gradientUnits="userSpaceOnUse" x1="398.0308" y1="1399.6631" x2="1236.1165" y2="1399.6631">
			<stop  offset="0" style="stop-color:#CA7885"/>
			<stop  offset="1" style="stop-color:#A61E33"/>
		</linearGradient>
		<path class="st33" d="M1099,1516.7c-110.3-50.8-213.8,26.7-314.7-48.2c-88.4-65.6-59.9-162.9-130.4-277.8
			c-16.2-26.3-37.8-54-67.3-81L419,1137.6c-12.1,2-20.9,12.5-20.9,24.7v456.9c0,13.3,10.4,24.3,23.7,25l814.4,45.4
			C1198.7,1587.4,1148,1539.3,1099,1516.7z"/>
		<path class="st0" d="M2048.7,1471.3l-35.8-90l-1.1-74.4l36.2-7.2c3.5-0.7,5.7-4.2,4.9-7.6c-5.5-21.9-25.5-94.4-56.6-118.4
			c-21.9-16.9-438-21.9-438-21.9l-200.3,13c-15.7,1-28,14.1-28,29.8v443.7c0,11.6,8.9,21.4,20.5,22.4l137.5,11.9l27.2,27.5
			c0,0,389.6,31.2,545.1,2.8c8.1-1.5,13.9-8.4,13.9-16.6v-195.2C2074.2,1462.8,2048.7,1471.3,2048.7,1471.3z"/>
		<linearGradient id="SVGID_33_" gradientUnits="userSpaceOnUse" x1="1330.0254" y1="1430.6066" x2="1665.9691" y2="1430.6066">
			<stop  offset="5.405410e-03" style="stop-color:#D8DEE8"/>
			<stop  offset="1" style="stop-color:#F4F7FA"/>
		</linearGradient>
		<path class="st34" d="M1626.3,1498.3c0,0-4.3-192.8,0-272.2c2.1-38.5-17.2-61-37.6-73.9c-19-0.3-30.4-0.4-30.4-0.4l-200.3,13
			c-15.7,1-28,14.1-28,29.8v443.7c0,11.6,8.9,21.4,20.5,22.4l137.5,11.9l27.2,27.5c0,0,64.1,5.1,150.8,9.3V1545L1626.3,1498.3z"/>
		<path class="st9" d="M2069.8,1737.6l-15.4-5.4v-31.2c0-8.4-6.8-15.2-15.2-15.2h-482.5c-11.6,0-21.1,9.4-21.1,21.1v186.6
			c0,10.3,8.5,18.5,18.8,18.1l516.6-19.9c9.7-0.4,17.4-8.4,17.4-18.1v-109.7C2088.4,1752,2080.9,1741.5,2069.8,1737.6z"/>
		<linearGradient id="SVGID_34_" gradientUnits="userSpaceOnUse" x1="1708.2838" y1="1708.189" x2="2027.5925" y2="1708.189">
			<stop  offset="0" style="stop-color:#444B8C"/>
			<stop  offset="0.9964" style="stop-color:#26264F"/>
		</linearGradient>
		<path class="st35" d="M2011,1577.2h-286.1c-9.6,0-17.2,8.2-16.6,17.8l15.8,224.6c0.8,11.3,10.4,19.9,21.7,19.5l245.8-8.3
			c10.7-0.4,19.5-8.8,20.2-19.5l15.8-216.3C2028.2,1585.4,2020.6,1577.2,2011,1577.2z"/>
		<g class="st36">
			<path class="st9" d="M2069.8,1737.6l-15.4-5.4v-31.2c0-6.7-4.3-12.3-10.2-14.4l-29.4,138.1c-3.5,16.4-17.7,28.4-34.5,29.1
				l-225.5,8.8c-16.2,0.6-30.8-9.4-36.1-24.7l-52.7-152.1l0,0h-109.3c-11.6,0-21.1,9.4-21.1,21.1v186.6c0,10.3,8.5,18.5,18.8,18.1
				l516.6-19.9c9.7-0.4,17.4-8.4,17.4-18.1v-109.7C2088.4,1752,2080.9,1741.5,2069.8,1737.6z"/>
		</g>
		<linearGradient id="SVGID_35_" gradientUnits="userSpaceOnUse" x1="1660.2813" y1="1703.6781" x2="1502.9612" y2="2251.7622">
			<stop  offset="0" style="stop-color:#FF9085"/>
			<stop  offset="1" style="stop-color:#FB6FBB"/>
		</linearGradient>
		<path class="st37" d="M1690.1,1849.8l-53.6,2.7c-33.3,1.7-61.9-23.4-64.7-56.6l-2.2-26.1H1677c7.2,0,13.1,5.9,13.1,13.1V1849.8z"
			/>
		<linearGradient id="SVGID_36_" gradientUnits="userSpaceOnUse" x1="2049.824" y1="1815.4913" x2="1892.5038" y2="2363.5762">
			<stop  offset="0" style="stop-color:#FF9085"/>
			<stop  offset="1" style="stop-color:#FB6FBB"/>
		</linearGradient>
		<path class="st38" d="M2036.2,1780.8l-8.6,58.3c0,0,56.6-2,55.1-73.3l-35.1,3.9C2041.7,1770.4,2037,1774.9,2036.2,1780.8z"/>
		<path class="st39" d="M1638.6,1499.2c-8.4,0-16.7-2.7-23.4-7.6l-22.1-16.2c-8.1-5.9-13-15.5-13-25.6v-128.5c0-5.8,2.5-11.2,7-15
			c4.4-3.7,10.2-5.3,15.9-4.3l21.6,3.7l388.1,0l0.2,0.9l36.9,164.7l-4.1,20.7l-0.9,0l-405.6,7.2
			C1639,1499.2,1638.8,1499.2,1638.6,1499.2z M1599.7,1304.1c-4,0-8,1.4-11.1,4.1c-3.9,3.3-6.1,8.1-6.1,13.2v128.5
			c0,9.3,4.5,18.2,12,23.7l22.1,16.2c6.5,4.8,14.6,7.3,22.7,7.2l404.6-7.2l3.7-18.3l-36.6-163.3h-386.4l-21.8-3.7
			C1601.6,1304.2,1600.7,1304.1,1599.7,1304.1z"/>
		<linearGradient id="SVGID_37_" gradientUnits="userSpaceOnUse" x1="1581.2753" y1="1400.4733" x2="2048.6895" y2="1400.4733">
			<stop  offset="0" style="stop-color:#444B8C"/>
			<stop  offset="0.9964" style="stop-color:#26264F"/>
		</linearGradient>
		<path class="st40" d="M2011.8,1306.9h-387.4l-21.6-3.7c-11.3-1.9-21.5,6.7-21.5,18.2v128.5c0,9.7,4.6,18.9,12.5,24.6l22.1,16.2
			c6.8,5,15,7.6,23.4,7.4l405.6-7.2l3.9-19.5L2011.8,1306.9z"/>
		<g>
			<path class="st9" d="M1771,1262.3h-33c-5,0-9,4-9,9v13.8c0,5,4,9,9,9h33c5,0,9-4,9-9v-13.8
				C1780.1,1266.3,1776,1262.3,1771,1262.3z"/>
			<path class="st9" d="M1964.5,1262.3h-33c-5,0-9,4-9,9v13.8c0,5,4,9,9,9h33c5,0,9-4,9-9v-13.8
				C1973.6,1266.3,1969.5,1262.3,1964.5,1262.3z"/>
		</g>
		<path class="st41" d="M1890.6,1398.3c-100-38.2-194,9.4-237.1-42.5c-11.6-14-16.4-31.5-17.4-48.9h-11.7l-21.6-3.7
			c-11.3-1.9-21.5,6.7-21.5,18.2v128.5c0,9.7,4.6,18.9,12.5,24.6l22.1,16.2c6.8,5,15,7.6,23.4,7.4l367.4-6.5
			C1965.1,1435.5,1922.9,1410.7,1890.6,1398.3z"/>
	</g>
	<g>
		<g>
			<linearGradient id="SVGID_38_" gradientUnits="userSpaceOnUse" x1="758.2203" y1="924.28" x2="1878.4633" y2="924.28">
				<stop  offset="0" style="stop-color:#AA80F9"/>
				<stop  offset="0.9964" style="stop-color:#6165D7"/>
			</linearGradient>
			<path class="st42" d="M768.7,939c-3.2,0-6.4-1.5-8.4-4.2c-3.4-4.7-2.5-11.2,2.2-14.7c0,0,4-3,11.1-8.3c4.6-3.5,11.2-2.6,14.7,2.1
				c3.5,4.6,2.6,11.2-2.1,14.7c-7.2,5.4-11.2,8.4-11.2,8.4C773.1,938.3,770.9,939,768.7,939z"/>
		</g>
		<g>
			<linearGradient id="SVGID_39_" gradientUnits="userSpaceOnUse" x1="758.4111" y1="814.4327" x2="1872.2183" y2="814.4327">
				<stop  offset="0" style="stop-color:#AA80F9"/>
				<stop  offset="0.9964" style="stop-color:#6165D7"/>
			</linearGradient>
			<path class="st43" d="M1745.9,983.4c-1.9,0-3.8-0.1-5.8-0.2c-5.8-0.4-10.1-5.5-9.7-11.2c0.4-5.8,5.4-10.1,11.2-9.7
				c4.3,0.3,8,0.2,10.7-0.4c4.2-0.9,8.4-2.1,12.4-3.4c5.5-1.8,11.4,1.2,13.2,6.7c1.8,5.5-1.2,11.4-6.7,13.2c-4.7,1.6-9.6,2.9-14.5,4
				C1753.6,983.1,1749.9,983.4,1745.9,983.4z M1713.6,978c-0.9,0-1.8-0.1-2.8-0.4c-8.2-2.2-17.3-5.2-27.2-8.7c-5.4-2-8.3-8-6.3-13.4
				c2-5.4,8-8.3,13.4-6.3c9.4,3.4,18,6.1,25.7,8.2c5.6,1.5,8.9,7.3,7.3,12.9C1722.4,975,1718.2,978,1713.6,978z M1793.3,967.5
				c-3.6,0-7.1-1.9-9.1-5.2c-2.9-5-1.2-11.4,3.8-14.3c7.2-4.2,14.2-9.3,20.8-15.1c4.4-3.8,11-3.4,14.8,1c3.8,4.3,3.4,11-1,14.8
				c-7.6,6.7-15.7,12.5-24.1,17.4C1796.9,967.1,1795,967.5,1793.3,967.5z M1661.2,959.5c-1.3,0-2.7-0.3-4-0.8
				c-8.1-3.3-16.8-7.1-25.8-11.1c-5.3-2.4-7.7-8.6-5.3-13.8c2.4-5.3,8.6-7.7,13.8-5.3c8.8,3.9,17.3,7.6,25.3,10.8
				c5.4,2.2,7.9,8.3,5.7,13.7C1669.2,957.1,1665.3,959.5,1661.2,959.5z M1610.4,936.9c-1.5,0-3-0.3-4.5-1
				c-8.1-3.8-16.6-7.9-25.2-12.2c-5.2-2.6-7.3-8.8-4.8-14c2.6-5.2,8.8-7.3,14-4.8c8.5,4.2,16.9,8.2,24.9,12c5.2,2.5,7.5,8.7,5,14
				C1618.1,934.7,1614.3,936.9,1610.4,936.9z M1834.9,931.3c-2.3,0-4.7-0.8-6.6-2.4c-4.5-3.7-5.2-10.3-1.5-14.7
				c5.4-6.6,10.4-13.8,15-21.5c3-5,9.4-6.6,14.4-3.6c5,3,6.6,9.4,3.6,14.4c-5.1,8.5-10.7,16.6-16.8,24
				C1840.9,930,1837.9,931.3,1834.9,931.3z M802,913.8c-3.1,0-6.3-1.4-8.3-4.1c-3.5-4.6-2.7-11.2,1.9-14.7
				c6.6-5.1,13.9-10.7,21.9-17c4.6-3.6,11.1-2.7,14.7,1.8c3.6,4.6,2.7,11.2-1.8,14.7c-8,6.2-15.4,12-22,17
				C806.4,913.1,804.2,913.8,802,913.8z M1560.5,912.4c-1.6,0-3.2-0.4-4.8-1.1c-8.1-4.1-16.4-8.4-24.8-12.8c-5.1-2.7-7.1-9-4.4-14.1
				c2.7-5.1,9-7.1,14.1-4.4c8.3,4.4,16.6,8.6,24.6,12.7c5.2,2.6,7.2,8.9,4.6,14.1C1568,910.3,1564.3,912.4,1560.5,912.4z
				 M1511.3,886.6c-1.7,0-3.4-0.4-4.9-1.2c-8.2-4.4-16.4-8.8-24.5-13.3c-5.1-2.8-6.9-9.2-4.2-14.2c2.8-5.1,9.2-6.9,14.2-4.2
				c8.1,4.4,16.2,8.8,24.4,13.2c5.1,2.7,7,9.1,4.3,14.2C1518.6,884.6,1515,886.6,1511.3,886.6z M845.8,879.6c-3.1,0-6.2-1.4-8.2-4
				c-3.6-4.5-2.8-11.1,1.7-14.7c7-5.5,14.2-11.3,21.6-17.3c4.5-3.6,11.1-2.9,14.7,1.6c3.6,4.5,2.9,11.1-1.6,14.7
				c-7.5,6-14.8,11.8-21.8,17.4C850.4,878.9,848.1,879.6,845.8,879.6z M1462.5,859.9c-1.7,0-3.5-0.4-5.1-1.3
				c-8.2-4.6-16.3-9.1-24.3-13.7c-5-2.9-6.8-9.3-3.9-14.3c2.9-5,9.3-6.8,14.3-3.9c7.9,4.5,16,9.1,24.2,13.6c5.1,2.8,6.9,9.2,4,14.3
				C1469.7,857.9,1466.2,859.9,1462.5,859.9z M889.1,844.8c-3,0-6-1.3-8.1-3.8c-3.7-4.5-3-11.1,1.5-14.8c7-5.8,14.2-11.7,21.3-17.6
				c4.4-3.7,11-3.1,14.8,1.3c3.7,4.4,3.1,11.1-1.3,14.8c-7.2,6-14.4,12-21.5,17.8C893.7,844,891.4,844.8,889.1,844.8z M1414.2,832.4
				c-1.8,0-3.6-0.5-5.2-1.4c-8.2-4.7-16.3-9.4-24.1-14c-5-2.9-6.7-9.3-3.7-14.3c2.9-5,9.4-6.7,14.3-3.7c7.8,4.6,15.8,9.2,24,13.9
				c5,2.9,6.7,9.3,3.8,14.3C1421.3,830.5,1417.8,832.4,1414.2,832.4z M931.6,809.1c-3,0-5.9-1.2-8-3.7c-3.8-4.4-3.3-11,1.1-14.8
				c7.2-6.1,14.2-12.2,20.9-18.1c4.3-3.8,11-3.4,14.8,0.9c3.8,4.3,3.4,11-0.9,14.8c-6.7,5.9-13.8,12.1-21.1,18.3
				C936.5,808.3,934.1,809.1,931.6,809.1z M1366.2,804.3c-1.8,0-3.7-0.5-5.3-1.5c-8.3-5-16.3-9.8-23.9-14.3c-5-3-6.5-9.4-3.5-14.4
				c3-5,9.4-6.5,14.4-3.5c7.5,4.6,15.5,9.3,23.8,14.3c5,3,6.6,9.4,3.6,14.4C1373.2,802.5,1369.7,804.3,1366.2,804.3z M1318.6,775.5
				c-1.9,0-3.8-0.5-5.5-1.6c-8.6-5.3-16.6-10.3-23.7-14.8c-4.9-3.1-6.3-9.6-3.2-14.5c3.1-4.9,9.6-6.3,14.5-3.2
				c7.1,4.5,15,9.4,23.5,14.7c4.9,3,6.5,9.5,3.4,14.4C1325.5,773.7,1322.1,775.5,1318.6,775.5z M973.3,772.4c-2.8,0-5.7-1.1-7.7-3.4
				c-3.9-4.3-3.6-10.9,0.7-14.8c7.1-6.5,13.9-12.8,20.1-18.8c4.2-4,10.8-3.9,14.8,0.3c4,4.2,3.9,10.8-0.3,14.8
				c-6.4,6.1-13.2,12.5-20.5,19.1C978.3,771.5,975.8,772.4,973.3,772.4z M1271.7,745.6c-2,0-4-0.6-5.8-1.8
				c-5.8-3.9-11.7-8-17.8-12.1l-5.2-3.6c-4.8-3.3-6-9.8-2.7-14.6c3.3-4.8,9.8-6,14.6-2.7l5.2,3.6c6,4.1,11.9,8.2,17.6,12
				c4.8,3.2,6.1,9.7,2.8,14.5C1278.3,744,1275,745.6,1271.7,745.6z M1013.3,733.9c-2.6,0-5.3-1-7.3-3c-4.1-4-4.2-10.7-0.2-14.8
				c6.9-7.1,13.1-13.8,18.5-20c3.8-4.4,10.4-4.8,14.8-1c4.4,3.8,4.8,10.4,1,14.8c-5.6,6.5-12.1,13.5-19.3,20.8
				C1018.7,732.8,1016,733.9,1013.3,733.9z M1225.7,714.4c-2,0-4-0.6-5.8-1.7c-8.5-5.6-16-10.4-23.1-14.6c-5-3-6.6-9.4-3.6-14.4
				c3-5,9.4-6.6,14.4-3.6c7.3,4.4,15.1,9.3,23.8,15.1c4.8,3.2,6.2,9.7,3,14.5C1232.5,712.8,1229.1,714.4,1225.7,714.4z M1050,692.3
				c-2.6,0-5.2-1-7.3-2.9c-4.2-4-4.3-10.6-0.3-14.8c7.5-7.8,15.8-14.2,24.5-18.8c5.1-2.7,11.5-0.8,14.2,4.3
				c2.7,5.1,0.8,11.5-4.3,14.2c-6.8,3.6-13.3,8.6-19.3,14.9C1055.5,691.2,1052.8,692.3,1050,692.3z M1178,686.1
				c-1.6,0-3.2-0.4-4.7-1.1c-8.5-4.3-16.7-7.9-24.3-10.7c-5.4-2-8.2-8-6.3-13.4c2-5.4,8-8.2,13.4-6.3c8.4,3.1,17.3,7,26.5,11.6
				c5.2,2.6,7.2,8.9,4.6,14.1C1185.5,684,1181.8,686.1,1178,686.1z M1125.9,667.8c-0.6,0-1.1,0-1.7-0.1c-8.7-1.4-17-1.6-24.6-0.7
				c-5.7,0.8-11-3.3-11.7-9.1c-0.7-5.7,3.3-11,9.1-11.7c9.6-1.2,19.9-1,30.7,0.8c5.7,0.9,9.6,6.3,8.7,12
				C1135.4,664.1,1130.9,667.8,1125.9,667.8z"/>
		</g>
		<g>
			<linearGradient id="SVGID_40_" gradientUnits="userSpaceOnUse" x1="758.0581" y1="868.0444" x2="1878.4219" y2="868.0444">
				<stop  offset="0" style="stop-color:#AA80F9"/>
				<stop  offset="0.9964" style="stop-color:#6165D7"/>
			</linearGradient>
			<path class="st44" d="M1862.9,885c-1.4,0-2.8-0.3-4.2-0.9c-5.3-2.3-7.7-8.5-5.4-13.8c3.2-7.2,4.6-11.9,4.6-11.9
				c1.7-5.5,7.6-8.6,13.1-6.9c5.5,1.7,8.6,7.6,6.9,13.1c-0.1,0.2-1.8,5.7-5.4,14.1C1870.8,882.7,1866.9,885,1862.9,885z"/>
		</g>
	</g>
	<g>
		<g>
			<path class="st45" d="M1051.8,355.2c0,121-169.5,341.8-246.2,435.5c-19.1,23.3-54.8,23.3-73.9,0
				C655.1,697,485.6,476.2,485.6,355.2c0-156.4,126.8-283.1,283.1-283.1C925.1,72.1,1051.8,198.9,1051.8,355.2z"/>
			
				<ellipse transform="matrix(0.7071 -0.7071 0.7071 0.7071 -26.0491 647.6041)" class="st4" cx="768.7" cy="355.2" rx="157.9" ry="157.9"/>
			<g class="st36">
				<path class="st46" d="M767.5,674.5c18-118.3,96.1-156.2,82.7-267.9c-15.5-128.8-129.5-163.1-132.3-277.8
					c-0.4-18.5,2.1-36.3,6.8-53.3C589.2,96.7,485.6,213.9,485.6,355.2c0,121,169.5,341.8,246.2,435.5c11.2,13.7,28.2,19.4,44.2,16.9
					C762.2,755.8,761.8,711.6,767.5,674.5z"/>
			</g>
		</g>
		<linearGradient id="SVGID_41_" gradientUnits="userSpaceOnUse" x1="710.8318" y1="928.4693" x2="826.5735" y2="928.4693">
			<stop  offset="0" style="stop-color:#898BAB"/>
			<stop  offset="0.9964" style="stop-color:#0F112E"/>
		</linearGradient>
		<circle class="st47" cx="768.7" cy="928.5" r="57.9"/>
	</g>
	<g>
		<g>
			<linearGradient id="SVGID_42_" gradientUnits="userSpaceOnUse" x1="1848.7811" y1="498.0739" x2="1998.3289" y2="883.272">
				<stop  offset="0" style="stop-color:#FF9085"/>
				<stop  offset="1" style="stop-color:#FB6FBB"/>
			</linearGradient>
			<path class="st48" d="M2016.4,552c0,63.5-88.9,179.2-129.1,228.4c-10,12.2-28.7,12.2-38.7,0c-40.2-49.2-129.1-164.9-129.1-228.4
				c0-82,66.5-148.5,148.5-148.5C1950,403.5,2016.4,470,2016.4,552z"/>
			
				<ellipse transform="matrix(0.2076 -0.9782 0.9782 0.2076 940.2086 2264.6448)" class="st4" cx="1867.9" cy="552" rx="82.8" ry="82.8"/>
			<g class="st36">
				<linearGradient id="SVGID_43_" gradientUnits="userSpaceOnUse" x1="1795.2334" y1="518.8628" x2="1944.7816" y2="904.062">
					<stop  offset="0" style="stop-color:#FF9085"/>
					<stop  offset="1" style="stop-color:#FB6FBB"/>
				</linearGradient>
				<path class="st49" d="M1867.3,719.4c9.4-62,50.4-81.9,43.4-140.5c-8.1-67.6-67.9-85.6-69.4-145.7c-0.2-9.7,1.1-19,3.6-28
					c-71,11.1-125.4,72.6-125.4,146.7c0,63.5,88.9,179.2,129.1,228.4c5.9,7.2,14.8,10.2,23.2,8.9
					C1864.5,762.1,1864.3,738.9,1867.3,719.4z"/>
			</g>
		</g>
		<linearGradient id="SVGID_44_" gradientUnits="userSpaceOnUse" x1="1906.8607" y1="793.5532" x2="1809.7334" y2="940.9786">
			<stop  offset="0" style="stop-color:#FF9085"/>
			<stop  offset="1" style="stop-color:#FB6FBB"/>
		</linearGradient>
		<circle class="st50" cx="1867.9" cy="852.6" r="30.4"/>
	</g>
</g>
<g class="st51">
	<path class="st52" d="M414.8,1588.8l1.6-20.6c0,0,2.4-14.5,20.4-14.4c17.8,0.3,236.9-10.2,236.9-10.2s-14.6,35.8-47.7,36.3
		C592.9,1580.4,414.8,1588.8,414.8,1588.8z"/>
	<path class="st52" d="M420.2,1547.3l1.1-15.4c0,0,0.5-20.2,22.8-20c22.7,0.2,281.5-12,281.5-12s-14.6,36.5-46.2,37
		C647.6,1537.4,420.2,1547.3,420.2,1547.3z"/>
	<path class="st52" d="M409.1,1629.1l2.4-19.3c0,0,1.4-15.1,19.7-15.3s187.5-7.1,187.5-7.1s-6.8,30.2-41.3,35.8L409.1,1629.1z"/>
</g>
</svg>