<?xml version="1.0" encoding="utf-8"?>
<!-- Generator: Adobe Illustrator 25.2.0, SVG Export Plug-In . SVG Version: 6.00 Build 0)  -->
<svg version="1.1" id="Layer_1" xmlns="http://www.w3.org/2000/svg" xmlns:xlink="http://www.w3.org/1999/xlink" x="0px" y="0px"
	 viewBox="0 0 48 48" style="enable-background:new 0 0 48 48;" xml:space="preserve">
<style type="text/css">
	.st0{fill:#FFFFFF;}
	.st1{fill:url(#XMLID_2_);}
	.st2{fill:url(#XMLID_3_);}
	.st3{fill:url(#XMLID_4_);}
	.st4{fill:url(#XMLID_5_);}
	.st5{fill:url(#XMLID_6_);}
	.st6{fill:url(#XMLID_7_);}
	.st7{fill:url(#XMLID_8_);}
	.st8{fill:url(#XMLID_9_);}
	.st9{fill:url(#XMLID_10_);}
	.st10{fill:#A81E35;}
	.st11{fill:#11132E;}
</style>
<rect class="st0" width="48" height="48"/>
<g id="XMLID_806_">
	<g id="XMLID_386_">
		<linearGradient id="XMLID_2_" gradientUnits="userSpaceOnUse" x1="15.5821" y1="10.506" x2="33.7075" y2="41.9001">
			<stop  offset="0" style="stop-color:#A81E35"/>
			<stop  offset="1" style="stop-color:#11132E"/>
		</linearGradient>
		<path id="XMLID_389_" class="st1" d="M43.4,25.8c-0.4-3.5-1.9-6.9-4.4-9.4c-2.1-2.1-4.8-3.5-7.5-4.1v-1.9c1.1-0.3,2-1.3,2-2.5
			c0-1.4-1.2-2.6-2.6-2.6h-5.5c-1.4,0-2.6,1.2-2.6,2.6c0,1.2,0.8,2.2,2,2.5v1.9c-2.8,0.6-5.4,2-7.5,4.1c-0.5,0.5-0.9,1-1.3,1.5
			c0,0,0,0-0.1,0h-5.4c-0.4,0-0.8,0.3-0.8,0.8c0,0.4,0.3,0.8,0.8,0.8h4.5c-0.6,0.9-1,1.9-1.4,2.9H5.2c-0.4,0-0.8,0.3-0.8,0.8
			c0,0.4,0.3,0.8,0.8,0.8h7.9c-0.2,1-0.3,1.9-0.4,2.9H9.4c-0.4,0-0.8,0.3-0.8,0.8c0,0.4,0.3,0.8,0.8,0.8h3.4c0.1,1,0.2,2,0.5,2.9
			H8.3c-0.4,0-0.8,0.3-0.8,0.8c0,0.4,0.3,0.8,0.8,0.8h5.4c0.7,2,1.9,3.8,3.5,5.4c2.5,2.5,5.8,4.1,9.4,4.4c0.5,0,1,0.1,1.5,0.1
			c3,0,5.9-0.9,8.4-2.5c0.4-0.2,0.5-0.7,0.2-1.1c-0.2-0.4-0.7-0.5-1.1-0.2c-5.5,3.6-12.8,2.8-17.4-1.8c-5.4-5.4-5.4-14.2,0-19.6
			c5.4-5.4,14.2-5.4,19.6,0c4.6,4.6,5.4,11.9,1.8,17.4c-0.2,0.4-0.1,0.8,0.2,1.1c0.4,0.2,0.8,0.1,1.1-0.2
			C42.9,32.8,43.8,29.3,43.4,25.8z M24.3,7.9c0-0.6,0.5-1.1,1.1-1.1h5.5c0.6,0,1.1,0.5,1.1,1.1s-0.5,1.1-1.1,1.1h-0.1h-5.2h-0.1
			C24.8,8.9,24.3,8.4,24.3,7.9z M26.3,12.1v-1.6H30V12C28.7,11.9,27.5,11.9,26.3,12.1z"/>
		<linearGradient id="XMLID_3_" gradientUnits="userSpaceOnUse" x1="38.0908" y1="37.0287" x2="38.853" y2="38.3489">
			<stop  offset="0" style="stop-color:#A81E35"/>
			<stop  offset="1" style="stop-color:#11132E"/>
		</linearGradient>
		<path id="XMLID_391_" class="st2" d="M38.5,36.9c-0.2,0-0.4,0.1-0.5,0.2c-0.1,0.1-0.2,0.3-0.2,0.5s0.1,0.4,0.2,0.5
			c0.1,0.1,0.3,0.2,0.5,0.2c0.2,0,0.4-0.1,0.5-0.2c0.1-0.1,0.2-0.3,0.2-0.5s-0.1-0.4-0.2-0.5C38.9,37,38.7,36.9,38.5,36.9z"/>
		<linearGradient id="XMLID_4_" gradientUnits="userSpaceOnUse" x1="22.2045" y1="17.0926" x2="34.0322" y2="37.5787">
			<stop  offset="0" style="stop-color:#A81E35"/>
			<stop  offset="1" style="stop-color:#11132E"/>
		</linearGradient>
		<path id="XMLID_394_" class="st3" d="M28.1,15.5c-6.5,0-11.8,5.3-11.8,11.8s5.3,11.8,11.8,11.8s11.8-5.3,11.8-11.8
			S34.6,15.5,28.1,15.5z M28.1,37.6c-5.7,0-10.3-4.6-10.3-10.3S22.4,17,28.1,17s10.3,4.6,10.3,10.3S33.8,37.6,28.1,37.6z"/>
		<linearGradient id="XMLID_5_" gradientUnits="userSpaceOnUse" x1="27.9758" y1="21.3691" x2="31.7796" y2="27.9575">
			<stop  offset="0" style="stop-color:#A81E35"/>
			<stop  offset="1" style="stop-color:#11132E"/>
		</linearGradient>
		<path id="XMLID_397_" class="st4" d="M32.9,21.4l-3.8,3.8c-0.3-0.2-0.7-0.2-1-0.2c-0.4,0-0.7,0.1-1,0.2l-1.7-1.7
			c-0.3-0.3-0.8-0.3-1.1,0c-0.3,0.3-0.3,0.8,0,1.1l1.7,1.7c-0.2,0.3-0.2,0.7-0.2,1c0,1.3,1.1,2.4,2.4,2.4c1.3,0,2.4-1.1,2.4-2.4
			c0-0.4-0.1-0.7-0.2-1l3.7-3.7l0,0l0.1-0.1c0.3-0.3,0.3-0.8,0-1.1S33.2,21.1,32.9,21.4z M28.1,28.2c-0.5,0-0.8-0.4-0.8-0.8
			s0.4-0.8,0.8-0.8s0.8,0.4,0.8,0.8S28.6,28.2,28.1,28.2z"/>
		<linearGradient id="XMLID_6_" gradientUnits="userSpaceOnUse" x1="35.449" y1="26.5315" x2="36.3883" y2="28.1584">
			<stop  offset="0" style="stop-color:#A81E35"/>
			<stop  offset="1" style="stop-color:#11132E"/>
		</linearGradient>
		<path id="XMLID_398_" class="st5" d="M36.3,26.6h-0.7c-0.4,0-0.8,0.3-0.8,0.8s0.3,0.8,0.8,0.8h0.7c0.4,0,0.8-0.3,0.8-0.8
			S36.7,26.6,36.3,26.6z"/>
		<linearGradient id="XMLID_7_" gradientUnits="userSpaceOnUse" x1="19.8484" y1="26.5129" x2="20.7877" y2="28.1398">
			<stop  offset="0" style="stop-color:#A81E35"/>
			<stop  offset="1" style="stop-color:#11132E"/>
		</linearGradient>
		<path id="XMLID_399_" class="st6" d="M20.7,26.6H20c-0.4,0-0.8,0.3-0.8,0.8s0.3,0.8,0.8,0.8h0.7c0.4,0,0.8-0.3,0.8-0.8
			S21.1,26.6,20.7,26.6z"/>
		<linearGradient id="XMLID_8_" gradientUnits="userSpaceOnUse" x1="27.5934" y1="18.6099" x2="28.662" y2="20.4608">
			<stop  offset="0" style="stop-color:#A81E35"/>
			<stop  offset="1" style="stop-color:#11132E"/>
		</linearGradient>
		<path id="XMLID_400_" class="st7" d="M28.1,20.7c0.4,0,0.8-0.3,0.8-0.8v-0.7c0-0.4-0.3-0.8-0.8-0.8s-0.8,0.3-0.8,0.8v0.7
			C27.4,20.3,27.7,20.7,28.1,20.7z"/>
		<linearGradient id="XMLID_9_" gradientUnits="userSpaceOnUse" x1="27.5747" y1="34.2105" x2="28.6434" y2="36.0614">
			<stop  offset="0" style="stop-color:#A81E35"/>
			<stop  offset="1" style="stop-color:#11132E"/>
		</linearGradient>
		<path id="XMLID_424_" class="st8" d="M28.1,34c-0.4,0-0.8,0.3-0.8,0.8v0.7c0,0.4,0.3,0.8,0.8,0.8c0.4,0,0.8-0.3,0.8-0.8v-0.7
			C28.9,34.4,28.5,34,28.1,34z"/>
		<linearGradient id="XMLID_10_" gradientUnits="userSpaceOnUse" x1="4.8595" y1="31.381" x2="5.6216" y2="32.701">
			<stop  offset="0" style="stop-color:#A81E35"/>
			<stop  offset="1" style="stop-color:#11132E"/>
		</linearGradient>
		<path id="XMLID_425_" class="st9" d="M5.2,31.3c-0.2,0-0.4,0.1-0.5,0.2c-0.1,0.1-0.2,0.3-0.2,0.5c0,0.2,0.1,0.4,0.2,0.5
			c0.1,0.1,0.3,0.2,0.5,0.2c0.2,0,0.4-0.1,0.5-0.2C5.9,32.4,6,32.2,6,32c0-0.2-0.1-0.4-0.2-0.5C5.6,31.4,5.4,31.3,5.2,31.3z"/>
	</g>
</g>
<rect x="-20.1" y="5.8" class="st10" width="5.7" height="5.7"/>
<rect x="-20.1" y="13.8" class="st11" width="5.7" height="5.7"/>
</svg>