<?xml version="1.0" encoding="utf-8"?>
<!-- Generator: Adobe Illustrator 25.2.0, SVG Export Plug-In . SVG Version: 6.00 Build 0)  -->
<svg version="1.1" id="Layer_1" xmlns="http://www.w3.org/2000/svg" xmlns:xlink="http://www.w3.org/1999/xlink" x="0px" y="0px"
	 viewBox="0 0 2760.6 2000" style="enable-background:new 0 0 2760.6 2000;" xml:space="preserve">
<style type="text/css">
	.st0{fill:#10122E;}
	.st1{fill:#A81E34;}
	.st2{fill:url(#SVGID_1_);}
	.st3{opacity:0.47;fill:#FFFFFF;}
	.st4{fill:url(#SVGID_2_);}
	.st5{fill:url(#SVGID_3_);}
	.st6{fill:url(#SVGID_4_);}
	.st7{fill:url(#SVGID_5_);}
	.st8{fill:url(#SVGID_6_);}
	.st9{fill:url(#SVGID_7_);}
	.st10{fill:url(#SVGID_8_);}
	.st11{fill:url(#SVGID_9_);}
	.st12{fill:url(#SVGID_10_);}
	.st13{fill:url(#SVGID_11_);}
	.st14{fill:url(#SVGID_12_);}
	.st15{fill:#FFFFFF;}
	.st16{opacity:0.79;}
	.st17{fill:url(#SVGID_13_);}
	.st18{opacity:0.84;}
	.st19{fill:url(#SVGID_14_);}
	.st20{opacity:0.75;}
	.st21{fill:url(#SVGID_15_);}
	.st22{opacity:0.37;fill:#FFFFFF;}
	.st23{fill:url(#SVGID_16_);}
	.st24{fill:url(#SVGID_17_);}
	.st25{fill:url(#SVGID_18_);}
	.st26{fill:url(#SVGID_19_);}
	.st27{fill:url(#SVGID_20_);}
	.st28{fill:url(#SVGID_21_);}
	.st29{fill:url(#SVGID_22_);}
	.st30{fill:url(#SVGID_23_);}
	.st31{fill:url(#SVGID_24_);}
	.st32{fill:url(#SVGID_25_);}
	.st33{fill:url(#SVGID_26_);}
	.st34{fill:url(#SVGID_27_);}
	.st35{fill:url(#SVGID_28_);}
	.st36{fill:url(#SVGID_29_);}
	.st37{fill:url(#SVGID_30_);}
	.st38{fill:url(#SVGID_31_);}
	.st39{fill:url(#SVGID_32_);}
	.st40{fill:url(#SVGID_33_);}
	.st41{fill:url(#SVGID_34_);}
	.st42{fill:url(#SVGID_35_);}
	.st43{fill:url(#SVGID_36_);}
	.st44{fill:url(#SVGID_37_);}
	.st45{fill:url(#SVGID_38_);}
	.st46{fill:url(#SVGID_39_);}
	.st47{fill:url(#SVGID_40_);}
	.st48{fill:url(#SVGID_41_);}
	.st49{fill:url(#SVGID_42_);}
	.st50{fill:url(#SVGID_43_);}
	.st51{fill:url(#SVGID_44_);}
	.st52{fill:url(#SVGID_45_);}
	.st53{opacity:0.8;fill:#FFFFFF;}
	.st54{fill:url(#SVGID_46_);}
	.st55{fill:url(#SVGID_47_);}
	.st56{fill:url(#SVGID_48_);}
	.st57{fill:url(#SVGID_49_);}
	.st58{fill:url(#SVGID_50_);}
	.st59{fill:url(#SVGID_51_);}
	.st60{fill:url(#SVGID_52_);}
	.st61{fill:#7D97F4;}
	.st62{fill:url(#SVGID_53_);}
	.st63{fill:url(#SVGID_54_);}
	.st64{fill:url(#SVGID_55_);}
	.st65{fill:url(#SVGID_56_);}
	.st66{fill:url(#SVGID_57_);}
	.st67{fill:url(#SVGID_58_);}
	.st68{fill:url(#SVGID_59_);}
	.st69{fill:url(#SVGID_60_);}
	.st70{fill:url(#SVGID_61_);}
	.st71{fill:url(#SVGID_62_);}
	.st72{fill:url(#SVGID_63_);}
	.st73{fill:url(#SVGID_64_);}
	.st74{fill:#F8A570;}
	.st75{fill:url(#SVGID_65_);}
	.st76{fill:url(#SVGID_66_);}
	.st77{fill:url(#SVGID_67_);}
</style>
<g>
</g>
<rect x="4199.6" y="910.7" class="st0" width="1918.6" height="1918.6"/>
<rect x="3348.4" y="1126.6" class="st1" width="656" height="656"/>
<linearGradient id="SVGID_1_" gradientUnits="userSpaceOnUse" x1="4017.47" y1="-469.2534" x2="3561.6155" y2="304.6403">
	<stop  offset="0" style="stop-color:#FF928E"/>
	<stop  offset="1" style="stop-color:#A81E34"/>
</linearGradient>
<rect x="3461.5" y="-410.3" class="st2" width="656" height="656"/>
<g>
	<g>
		
			<rect x="930.4" y="65.3" transform="matrix(1 8.918834e-03 -8.918834e-03 1 7.4945 -8.3334)" class="st3" width="15.4" height="1541.6"/>
		<g>
			<linearGradient id="SVGID_2_" gradientUnits="userSpaceOnUse" x1="3203.24" y1="1087.2734" x2="299.7068" y2="1141.2904">
				<stop  offset="0" style="stop-color:#4F52FF"/>
				<stop  offset="1" style="stop-color:#4042E2"/>
			</linearGradient>
			<path class="st4" d="M1439,1085.7c-2.7,21.5-5,43.1-6.7,64.7c-0.4,5.2,0.6,12.2,5.6,12.7c3,0.3,5.5-2.2,7.5-4.5
				c8.6-9.8,17.8-22.5,13.6-35c-1.5-4.7-4.8-8.6-6.1-13.3c-1.9-7.1,1.1-14.7,0.3-22.1c-0.8-7.4-9.6-14.6-14.6-9.3L1439,1085.7z"/>
			<linearGradient id="SVGID_3_" gradientUnits="userSpaceOnUse" x1="-74.1124" y1="1182.618" x2="986.1705" y2="580.6703">
				<stop  offset="0" style="stop-color:#4F52FF"/>
				<stop  offset="1" style="stop-color:#4042E2"/>
			</linearGradient>
			<path class="st5" d="M887.1,378.4c-33.7-17.8-55-20.2-91.3-16.3c-34.3,3.7-57.4,20.9-80.9,45.5c-5.4,5.6-10.5,11.7-17.5,14.9
				c-29.1,13.4-65.9,10.7-95.6,24c-35.3,15.8-45.3,64.8-77.6,86.5c-18.7,12.6-42.2,14.1-62.7,23.1c-30.4,13.3-44.4,40.9-61.6,67.8
				c-10.6,16.5-49.7,44.9-47.5,64.2c0.4,3.5,1.9,6.8,3.7,9.8c10.8,17.3,26.8,19.2,43.8,24.1c22.4,6.5,35.9,16.6,55.7,30.6
				c20.7,14.6,48.8,27.4,50.6,53.2c0.8,12-4.8,23.3-7.5,35c-12.3,52.7,33.4,100,78,128.5c44.6,28.5,97.1,56.6,111.3,108.8
				c1.3,4.8,2.4,9.9,5.8,13.3c13,12.8,22.8-16.2,26.7-25.4c2.5-5.9,0.2-13-3.7-18.1c-4-5-9.4-8.5-14.3-12.6
				c-16.5-13.7-27.1-34.6-28.8-56.4c-0.2-2.8-0.2-5.8,1.3-8.1c7.7-11.7,27-16.5,36.4-30.7c13.5-20.3,16.6-39.5,18.9-63.6
				c8.4-88.4,88.9-57.1,139.4-96.3c9.4-7.3,16.5-18.8,18.1-30.6c0.9-6.5,0.1-13.1-2.8-19c-5-10.1-15.1-16.6-25.7-19.5
				s-21.7-2.7-32.7-2.5c-10.2,0.2-20.3,0.4-30.5,0.6c-3,0.1-6.1,0.1-8.9,1.4c-3.9,1.8-6.5,5.6-8.6,9.4c-6.8,12.3-10.2,26.6-9.5,40.7
				c-13.4,4.7-26.4-8.1-33.7-20.6c-8.4-14.5-14.5-30.4-17.9-46.9c-1.3-6.4-2.1-13.5,1.1-19.1c1.8-3.1,4.6-5.4,7.4-7.5
				c11.4-8.5,24.5-14.9,38.4-16.4c23.8-2.6,47,9.1,66.5,23.5c18.7,13.8,49.3,30.4,70.4,10.5c10.9-10.3,11.1-28.9,3.5-42
				c-12.3-21.2-43.6-32.3-64-43c-9.6-5-15.7-15.3-18.4-26c-2.7-10.7-2.5-22-2.2-33.1c28.3-11.5,61.5-9.3,88,6
				c3.8,2.2,7.8,5.2,8.2,9.6c0.5,4.6-3,8.4-5.8,12c-24.4,32-2.5,57.8,26.3,75.8c0.7-81.1,0.9-162.6,0.9-243.8
				C920.5,394.2,903.5,387,887.1,378.4z"/>
			<linearGradient id="SVGID_4_" gradientUnits="userSpaceOnUse" x1="1556.8712" y1="166.6951" x2="960.7374" y2="569.2391">
				<stop  offset="0" style="stop-color:#4F52FF"/>
				<stop  offset="1" style="stop-color:#4042E2"/>
			</linearGradient>
			<path class="st6" d="M1142.7,447.1c-3.9-5.3-11.8-4-18.2-3.9c-20.7,0.1-37.1-17.9-56.9-23.8c-10.4-3.1-21.4-2.7-32.2-2.9
				c-33-0.5-65.9-6.1-97.4-16.5c0,81.2-0.2,162.7-0.9,243.8c17.9,11.2,38.5,19.5,52.1,24.3c14.4,5.1,28.2,13.5,43.7,10.4
				c14.3-2.9,27.2-19.1,42.1-23.2c10.8-3,22.2-1.4,33.2-3.7c10.9-2.3,22.3-10.7,21.9-22.2c-0.4-9.4-8.3-16.4-16.3-21
				c0,0.9-13.7-10.3-15-12.8c-12-24,5.4-45.2,12.1-65.9c9.7-30-4.6-47.7,25-64.3C1142.1,461.7,1147,453,1142.7,447.1z"/>
			<linearGradient id="SVGID_5_" gradientUnits="userSpaceOnUse" x1="156.2805" y1="1789.9176" x2="1253.3824" y2="878.7659">
				<stop  offset="0" style="stop-color:#4F52FF"/>
				<stop  offset="1" style="stop-color:#4042E2"/>
			</linearGradient>
			<path class="st7" d="M741.4,1207.1c5.2,10.9,9.4,21.2,10.5,29.9c4.9,38.1-26.8,84.9-40.3,119.7c-3.7,9.7-7.6,20-5.9,30.2
				c0.7,4.3,2.4,8.4,4,12.4c12.2,29.8,36.3,56.8,57.6,79.8c7.3-19.7,6.8-67,4.8-88c-0.7-6.9-1.8-14.2,0.7-20.6
				c7.9-20.8,33.6-49.3,51.4-61.7c17.4-12.1,40.3-21.9,44.8-43.1c1.7-8.2,0.3-16.9,2.8-24.8c1.5-4.7,4.4-8.9,6.7-13.3
				c11.3-21.6,17.6-63.4-4.9-78.8c-25.2-17.2-60.8,8-82.4-20c-3.3-4.2-5.7-9.2-9.4-13c-6.9-7.1-17.5-9.3-27-7.7
				C691.1,1119.2,722.5,1167.3,741.4,1207.1z"/>
			<linearGradient id="SVGID_6_" gradientUnits="userSpaceOnUse" x1="3195.0669" y1="673.0485" x2="292.6711" y2="727.0443">
				<stop  offset="0" style="stop-color:#4F52FF"/>
				<stop  offset="1" style="stop-color:#4042E2"/>
			</linearGradient>
			<path class="st8" d="M1141.4,892.6c20.1,13.3,54.8-15.9,67.6-50c1.6-4.3,3.1-8.7,6-12.2c6-7,16.2-7.9,25.1-6.6
				c8.9,1.3,17.8,4.3,26.8,3.1c12.8-1.7,23.4-11.9,29.4-23.8c6-11.9,8.1-25.3,10.2-38.5c9.5-2.4,19.8-1.5,28.7,2.6
				c6.9,3.2,13.7,10.1,11.8,17.7c-0.9,3.5-3.4,6.2-5.9,8.7c-7.5,8.1-14.5,16.6-21,25.6c-4,5.6-7.9,12.8-4.9,19
				c8.1,16.9,23,8.1,18.7,32.2c-5.4,30.2-45,42.5-22.4,78.6c8.3,13.2,23.4,21.1,38.6,21.8c10.9,0.5,24.3-5.3,24.5-16.6
				c0-3.3-1.2-6.8-0.1-10c1.3-4.1,5.9-6.2,10-6.8c13.6-2.1,26.8,4.9,39.4,10.8c3.8,1.8,8.3,3.4,11.9,1.3c11.8-7,6.3-12.7,22.3-14.3
				c13.6-1.3,29.6,9.6,37.3,20.3c1.9,2.6,3.5,5.9,2.4,8.9c-1,2.6-3.8,3.9-5.3,6.3c-2.4,3.9,0,9.3,3.7,11.9c3.7,2.6,8.3,3.1,12.7,4.1
				c20.5,4.4,21,24.6,35.4,34.6c11.7,8.2,41.7,9.8,39-13.7c-1-8.6-9.3-15.7-7.9-24.2c1.2-7.5,9.4-11.5,16.7-12.5s15.1-0.2,21.6-3.8
				c4.4-2.3,7.6-6.3,11.6-9.3c24.4-18.4,82.3-2.8,101.1,17.9c17.5,19.3,19.5,52.5,42,65c-2.6-25.6-15.1-50-34.1-66.6
				c-3.5-3.1-7.3-6.1-9.2-10.4c-1.5-3.6-1.5-7.8-1.3-11.7c1-20.3,4.8-39.2,10.2-58.1c-0.6,2.3,14.3-38.9,3.6-31.1
				c19.2-13.9,61.2-36.8,85.3-35.3c12.6,0.8,24.9,8.3,30.2,20.1c5.3,11.8,2.1,27.5-8.3,34.9c-9.9,7-23.7,5.7-33.8,12.5
				c-9.7,6.5-13.9,20.7-9.3,31.7c6.3-9,15.9-15.6,26.4-18c14.1-3.3,30.1,0.2,42.3-7.9c9-6,13.7-17.3,13.8-28.4
				c0.1-11-3.8-21.7-9.1-31.3c-3.8-6.9-8.4-13.6-10.5-21.3c-3.3-12.3,0.6-25.8,7.5-36.4c25.7-39.5,73.2-56.6,117.1-42
				c2.9,1,6,2.3,7.6,5c2.2,4,0.1,9.1,1,13.6c1.5,7.1,11.9,9.8,16.5,4.2c3.1-3.8,2.9-9.4,4.1-14.3c3.1-12.7,15.5-20.4,27.7-24
				c14.8-4.4,54.7-24.8,58.8,2.1c0.4,2.4,0.3,4.8,1.3,7c2.8,6.1,12.1,5.2,16.5,0.3c9.1-10.1,10.7-26.8,19.6-38.1
				c7.8-10,19.4-16,25.9-27.2c16.2-27.7,3.9-64-24.4-77.4c-27.1-12.9-58.5-7.2-87.8-1.7c-20.2,3.8-89.5,18.1-94.4-15.7
				c-0.4-2.8-0.3-5.7-1.6-8.2c-1.6-3-5-4.6-7-7.4c-2.6-3.5-2.7-8.3-4.1-12.5c-5.1-15.2-24.4-18-39.9-18.2c1.6-9.4,2.4-20.9-4.9-26.7
				c-4.1-3.3-9.7-3.7-14.9-3.9c-13.6-0.6-46.3,4.4-57.5-3.8c-14.9-10.9-4.6-29.4-11.1-44.4c-6.9-15.9-32.5-18.1-35.4-35.3
				c-0.6-3.7,0.1-7.6-0.4-11.3c-1-9.1-8.2-16-15-22c-12.2-10.9-26-22.4-42.1-22c-3,2.5-0.3,7.7,3.1,9.5c3.4,1.9,7.8,2.8,9.5,6.4
				c3.3,6.9-6.2,12.5-13.5,13.9c-0.4,10,9.4,16.6,16.9,23c12.7,10.7,21.7,25.9,25.1,42.5c-25.6,4.8-51.9,5.9-77.8,3.3
				c-31.2-3.1-51.3,48.2-88.3,34c-5.5-2.1-10.4-5.9-16.1-7c-14.4-2.8-26,11.3-39,18.4c-19.7,10.8-43.9,5.2-65-2.2
				c-25.2-8.9-55.9-21.7-81.4-6.3c-9.5,5.8-17.1,14.7-27.2,19.3c-21.1,9.7-45.1-2.2-68.1-4.5c-56.8-5.6-91,51.8-109.4,99.7
				c-2.8,7.3-5.3,14.9-4.9,22.7c0.4,7.8,4.2,15.9,11.1,19.1c10.2,4.8,22.1-2.8,28.7-12.1c6.7-9.3,10.7-20.7,18.9-28.6
				c8.2-7.9,23.1-10.5,29.6-1c3.2,4.7,3.3,10.8,3.3,16.5c0,10.8,0,21.7,0.1,32.5c0,6,0,12.1-2.4,17.6c-3.9,9.1-13.2,14.1-21.9,18.4
				c-18.8,9.4-37.6,18.8-56.4,28.2c-6.3,3.2-12.8,6.4-18.1,11.1c-24.5,21.4-8.1,51.1-27,71.7c-7.6,8.3-20.3,10.8-26.6,20.3
				c-4.6,7-4.6,16.1-4.4,24.6C1127.1,873.8,1133,887,1141.4,892.6z"/>
			<linearGradient id="SVGID_7_" gradientUnits="userSpaceOnUse" x1="2055.2515" y1="789.9837" x2="1770.3876" y2="1387.4067">
				<stop  offset="0" style="stop-color:#4F52FF"/>
				<stop  offset="1" style="stop-color:#4042E2"/>
			</linearGradient>
			<path class="st9" d="M1796.6,1072.7c-7.6,14.2-6.6,32.8-23.8,40.7c-11.4,5.2-26.1,2.8-35.4,11.5c-10.6,9.8-7.9,27.3-5.8,41.9
				c0.4,2.6,0.7,5.4-0.4,7.8c-2.7,6.4-12.6,6.2-15.9,12.3c-2.9,5.2,0.7,11.8,5,15.8c13.1,12.3,34.5,13.9,49.2,3.7
				c3.9-2.7,8.2-6.3,12.7-5.2c5.3,1.4,7.1,8.1,8.6,13.5c3.1,11.7,9.2,22.9,18.8,29.8c30.3,21.7,72.9-4.7,106.6,25.9
				c4.1,3.8,8.1,8.2,9.3,13.8c1.3,6-0.6,12.9,2.6,18c4.1,6.4,14.1,5.6,19.6,0.4c5.5-5.2,7.7-13,10-20.3c2.3-7.3,5.3-15.1,11.6-19.2
				c10.6-6.9,22.7-4.3,28.6-18.3c7.3-17.9-14.6-32.7-7.6-49c3.1-7.3,8.1-15.2,4.9-22.5c-1.6-3.7-4.9-6.2-7.7-9
				c-13-13.4-15.2-26-32.5-34.2c-11-5.2-33.9,1.5-38.4-17.5c-1.2-5,0.5-11.2-3.2-14.6c-2.1-1.9-5.2-2-8-2
				c-19.3,0.1-42.3,0.4-53.4-16.1c-12.2-18.2-13.6-31.3-38.3-22.2C1805,1061.1,1800,1066.5,1796.6,1072.7z"/>
			<linearGradient id="SVGID_8_" gradientUnits="userSpaceOnUse" x1="1436.6334" y1="521.2852" x2="1189.3687" y2="1341.3774">
				<stop  offset="0" style="stop-color:#4F52FF"/>
				<stop  offset="1" style="stop-color:#4042E2"/>
			</linearGradient>
			<path class="st10" d="M1220.2,972.8c-4,5.8-6.3,12.7-10.6,18.4c-12,15.8-17.1,1.8-30.7,7.1c-4.7,1.8-8.8,5.1-13.7,6.3
				c-9.8,2.3-19.6-4.5-29.7-4.5c-38.9-0.2-18.5,64.5,0.4,76.9c3.5,2.3,7.9,2.3,12,2.3c12.8-0.1,25.6-0.3,38.5-0.4
				c3.7,0,7.6,0,10.6,2.1c9.3,6.6,0.4,22.9,6,33c3.8,6.9,12.7,8.2,20.3,9.7c16.1,3,19.6,21.1,29.4,32.3c12.6,14.3,24.7,20.1,31.8,41
				c4.2,12.4,5.7,25.8,11.3,37.5c11.5,24.2,41.3,37.3,66.1,29c24.8-8.3,41.5-37,37.1-63.6c-2.6-15.5-11.2-29.1-17.2-43.6
				c-12.1-29.3-3.9-65,29.7-70.6c8.5-1.4,19.3-1.9,22.4-10.2c4.6-11.9-13.1-25.9-5.7-36.2c2.6-3.7,7.7-5.1,10-9
				c3.1-5.3-0.4-12.2-4.8-16.5c-4.3-4.3-9.8-8-11.6-13.9c-10.1-33.4-43.1-12.5-65.2-8.1c-19.7,3.9-30.9,1.4-47.2-8.4
				C1284.3,968.1,1245.9,936,1220.2,972.8z"/>
			<linearGradient id="SVGID_9_" gradientUnits="userSpaceOnUse" x1="3190.7119" y1="424.8988" x2="288.2433" y2="478.896">
				<stop  offset="0" style="stop-color:#4F52FF"/>
				<stop  offset="1" style="stop-color:#4042E2"/>
			</linearGradient>
			<path class="st11" d="M1304,451c2.9-5.6,10-6.9,16.2-7.4c21.2-1.5,42.5-0.1,63.3,4.2c-17.2,14-36.4,28.7-58.3,28
				c-9.9-0.3-20.2-3.9-29.5-0.2c-2.2-6.8-1-14.6,3.1-20.4L1304,451z"/>
			<linearGradient id="SVGID_10_" gradientUnits="userSpaceOnUse" x1="1246.0068" y1="827.1669" x2="907.3967" y2="537.365">
				<stop  offset="0" style="stop-color:#4F52FF"/>
				<stop  offset="1" style="stop-color:#4042E2"/>
			</linearGradient>
			<path class="st12" d="M1059.3,708.6c21.6,17.7,97.8-5.9,62.2-28.7c-5.7-3.7-12.6-4.8-19.3-5.9c-9-1.4-18.2-2.8-27.1-0.9
				c-8.9,1.9-17.6,7.9-20.2,16.8C1052.4,698.6,1054.5,704.7,1059.3,708.6z"/>
			<linearGradient id="SVGID_11_" gradientUnits="userSpaceOnUse" x1="3192.1919" y1="529.3919" x2="290.4727" y2="583.3751">
				<stop  offset="0" style="stop-color:#4F52FF"/>
				<stop  offset="1" style="stop-color:#4042E2"/>
			</linearGradient>
			<path class="st13" d="M2000.3,553.1c13.4,12.1,32.1,15.1,49.7,17.6c8.8,1.2,20.3,0.9,23.3-7.7c3.2-9.1-7.1-17.5-16.4-18.5
				c-9.3-1.1-19.2,1.5-27.8-2.3c-7.6-3.3-13.7-11.4-21.9-11.3c-9.7,0.1-15.5,14.7-8.7,21.8L2000.3,553.1z"/>
		</g>
	</g>
	<g>
		<linearGradient id="SVGID_12_" gradientUnits="userSpaceOnUse" x1="966.9455" y1="117.9667" x2="576.0779" y2="508.8343">
			<stop  offset="0" style="stop-color:#FF928E"/>
			<stop  offset="1" style="stop-color:#A81E34"/>
		</linearGradient>
		<path class="st14" d="M1109.1,404.4H440.6c-9.3,0-16.9-7.6-16.9-16.9V232.6c0-9.3,7.6-16.9,16.9-16.9h668.5
			c9.3,0,16.9,7.6,16.9,16.9v154.9C1126,396.9,1118.5,404.4,1109.1,404.4z"/>
		<g>
			<g>
				<path class="st15" d="M622.2,308.4h-99.1c-2.6,0-4.8-2.1-4.8-4.8c0-2.6,2.1-4.8,4.8-4.8h99.1c2.6,0,4.8,2.1,4.8,4.8
					C627,306.3,624.9,308.4,622.2,308.4z"/>
				<g>
					<path class="st15" d="M554.2,372.4c-2.6,0-4.8-3.5-4.8-7.8v-84.7c0-4.3,2.1-7.8,4.8-7.8s4.8,3.5,4.8,7.8v84.7
						C559,368.9,556.8,372.4,554.2,372.4z"/>
					<path class="st15" d="M590.4,372.4c-2.6,0-4.8-3.5-4.8-7.8v-84.7c0-4.3,2.1-7.8,4.8-7.8s4.8,3.5,4.8,7.8v84.7
						C595.2,368.9,593,372.4,590.4,372.4z"/>
				</g>
				<path class="st15" d="M619.2,341.8h-95.5c-2.9,0-5.3-2.1-5.3-4.8c0-2.6,2.4-4.8,5.3-4.8h95.5c2.9,0,5.3,2.1,5.3,4.8
					C624.5,339.6,622.1,341.8,619.2,341.8z"/>
				<path class="st15" d="M624.5,377.6H520.1c-4.7,0-8.4-3.8-8.4-8.4v-94.3c0-4.7,3.8-8.4,8.4-8.4h104.5c4.7,0,8.4,3.8,8.4,8.4v94.3
					C632.9,373.8,629.2,377.6,624.5,377.6z M528.5,360.7h87.6v-77.5h-87.6V360.7z"/>
			</g>
			<path class="st15" d="M520.1,377.6h-44.7c-2.4,0-4.6-1-6.2-2.8c-1.6-1.8-2.4-4.1-2.1-6.5l12.1-125.9c0.4-4.3,4-7.6,8.4-7.6h21.6
				c4.4,0,8,3.3,8.4,7.7l11,125.9c0.2,2.4-0.6,4.7-2.2,6.4C524.7,376.6,522.4,377.6,520.1,377.6z M484.7,360.7h26.2l-9.5-109h-6.2
				L484.7,360.7z"/>
		</g>
		<g class="st16">
			<path class="st15" d="M907.2,279H680.1c-1.8,0-3.2-1.4-3.2-3.2v-11.5c0-1.8,1.4-3.2,3.2-3.2h227.2c1.8,0,3.2,1.4,3.2,3.2v11.5
				C910.4,277.6,909,279,907.2,279z"/>
			<path class="st15" d="M907.2,317H680.1c-1.8,0-3.2-1.4-3.2-3.2v-11.5c0-1.8,1.4-3.2,3.2-3.2h227.2c1.8,0,3.2,1.4,3.2,3.2v11.5
				C910.4,315.5,909,317,907.2,317z"/>
			<path class="st15" d="M768.8,354.9h-88.8c-1.8,0-3.2-1.4-3.2-3.2v-11.5c0-1.8,1.4-3.2,3.2-3.2h88.8c1.8,0,3.2,1.4,3.2,3.2v11.5
				C772,353.5,770.6,354.9,768.8,354.9z"/>
		</g>
		<path class="st15" d="M997,371l94.1-57.1c2.5-1.5,2.5-6.3,0-7.8l-94.5-56.4c-2.2-1.3-4.6,0.8-4.6,3.9L992,272
			c0,2.4-1.4,4.3-3.2,4.3l-49.6,0.4c-1.8,0-3.2,1.9-3.2,4.3l0.2,59.6c0,2.4,1.5,4.3,3.3,4.3l49.6-0.4c1.8,0,3.3,1.9,3.3,4.3
			l0.1,18.4C992.4,370.3,994.9,372.3,997,371z"/>
	</g>
	<g>
		<linearGradient id="SVGID_13_" gradientUnits="userSpaceOnUse" x1="1737.3695" y1="321.0963" x2="2550.9087" y2="667.2831">
			<stop  offset="0" style="stop-color:#FF928E"/>
			<stop  offset="1" style="stop-color:#A81E34"/>
		</linearGradient>
		<path class="st17" d="M2425.7,566.2h-668.5c-9.3,0-16.9-7.6-16.9-16.9V394.3c0-9.3,7.6-16.9,16.9-16.9h668.5
			c9.3,0,16.9,7.6,16.9,16.9v154.9C2442.7,558.6,2435.1,566.2,2425.7,566.2z"/>
		<g>
			<g>
				<g>
					<path class="st15" d="M1895.6,508.9h-68.3c-1.9,0-3.5-1.3-3.9-3.1c-0.1-0.5-0.3-1.1-0.5-1.5c0-0.1-0.1-0.1-0.1-0.2
						c-0.3-0.6-0.6-1.2-1-1.8c-2.3-3.4-6.1-5.5-10.2-5.5c-4.1,0-7.9,2-10.3,5.5c-0.4,0.6-0.7,1.1-1,1.8c0,0.1-0.1,0.1-0.1,0.2
						c-0.2,0.5-0.4,1-0.5,1.5c-0.4,1.8-2,3.1-3.9,3.1h-3.4c-3.5,0-6.4-2.9-6.4-6.4v-60.6c0-3.5,2.9-6.4,6.4-6.4h103.2
						c3.5,0,6.4,2.9,6.4,6.4v60.6C1902,506,1899.1,508.9,1895.6,508.9z M1830.1,500.9h63.8v-57.4h-100V499c0.2-0.4,0.5-0.7,0.7-1.1
						c3.9-5.6,10.2-8.9,16.9-8.9c6.8,0,13,3.3,16.9,9c0.6,0.9,1.2,1.9,1.7,2.9C1830.1,500.8,1830.1,500.9,1830.1,500.9z"/>
				</g>
			</g>
			<g>
				<g>
					<path class="st15" d="M1945.9,508.9h-2.9c-1.9,0-3.5-1.3-3.9-3.1c-0.1-0.5-0.3-1.1-0.5-1.5c0-0.1-0.1-0.1-0.1-0.2
						c-0.3-0.6-0.6-1.2-1-1.8c-2.4-3.4-6.2-5.5-10.3-5.5c-4.1,0-7.9,2-10.3,5.5c-0.4,0.6-0.7,1.1-1,1.8c0,0.1-0.1,0.1-0.1,0.2
						c-0.2,0.5-0.4,1-0.5,1.5c-0.4,1.8-2,3.1-3.9,3.1h-0.9c-3.5,0-6.4-2.9-6.4-6.4v-47.4c0-3.5,2.9-6.4,6.4-6.4h10.3
						c2.6-0.1,14.5-0.1,23.5,9.6c8.9,9.5,8.3,21.2,8,24.1v20.1C1952.3,506,1949.4,508.9,1945.9,508.9z M1927.2,488.9
						c6.7,0,13,3.3,16.9,8.9c0.1,0.1,0.2,0.2,0.2,0.3v-16c0-0.2,0-0.3,0-0.5c0.2-1.7,0.9-10.7-5.8-17.9c-6.7-7.2-15.7-7.1-17.4-7
						c-0.1,0-0.1,0-0.2,0h-8.8v38.9C1915.9,491.4,1921.4,488.9,1927.2,488.9z"/>
				</g>
			</g>
			<g>
				<g>
					<path class="st15" d="M1811.6,524.9c-6,0-10.8-4.9-10.8-10.8c0-2.6,0.9-5,2.6-7c2-2.4,5-3.8,8.2-3.8c3.2,0,6.2,1.4,8.2,3.8
						c1.7,2,2.6,4.4,2.6,7C1822.3,520.1,1817.5,524.9,1811.6,524.9z M1811.6,511.3c-0.8,0-1.5,0.3-2,0.9c0,0-0.1,0.1-0.1,0.1
						c-0.3,0.4-0.7,0.9-0.7,1.8c0,1.6,1.3,2.8,2.8,2.8c1.5,0,2.8-1.3,2.8-2.8c0-0.8-0.4-1.4-0.7-1.8c0,0-0.1-0.1-0.1-0.1
						C1813.1,511.6,1812.4,511.3,1811.6,511.3z"/>
				</g>
			</g>
			<g>
				<g>
					<path class="st15" d="M1927.2,524.9c-6,0-10.8-4.9-10.8-10.8c0-2.6,0.9-5,2.6-7c2-2.4,5-3.8,8.2-3.8c3.2,0,6.2,1.4,8.2,3.8
						c1.7,2,2.6,4.4,2.6,7C1938,520.1,1933.1,524.9,1927.2,524.9z M1927.2,511.3c-0.8,0-1.6,0.3-2,0.9c0,0-0.1,0.1-0.1,0.1
						c-0.3,0.4-0.7,0.9-0.7,1.8c0,1.5,1.3,2.8,2.8,2.8s2.8-1.3,2.8-2.8c0-0.8-0.4-1.4-0.7-1.8c0,0-0.1-0.1-0.1-0.1
						C1928.7,511.6,1928,511.3,1927.2,511.3z"/>
				</g>
			</g>
		</g>
		<g class="st18">
			<path class="st15" d="M2221.9,440.7h-227.2c-1.8,0-3.2-1.4-3.2-3.2v-11.5c0-1.8,1.4-3.2,3.2-3.2h227.2c1.8,0,3.2,1.4,3.2,3.2
				v11.5C2225,439.3,2223.6,440.7,2221.9,440.7z"/>
			<path class="st15" d="M2221.9,478.7h-227.2c-1.8,0-3.2-1.4-3.2-3.2V464c0-1.8,1.4-3.2,3.2-3.2h227.2c1.8,0,3.2,1.4,3.2,3.2v11.5
				C2225,477.3,2223.6,478.7,2221.9,478.7z"/>
			<path class="st15" d="M2083.5,516.6h-88.8c-1.8,0-3.2-1.4-3.2-3.2V502c0-1.8,1.4-3.2,3.2-3.2h88.8c1.8,0,3.2,1.4,3.2,3.2v11.5
				C2086.6,515.2,2085.2,516.6,2083.5,516.6z"/>
		</g>
		<path class="st15" d="M2311.6,532.8l94.1-57.1c2.5-1.5,2.5-6.3,0-7.8l-94.5-56.4c-2.2-1.3-4.6,0.8-4.6,3.9l0.1,18.4
			c0,2.4-1.4,4.3-3.2,4.3l-49.6,0.4c-1.8,0-3.2,1.9-3.2,4.3l0.2,59.6c0,2.4,1.5,4.3,3.3,4.3l49.6-0.4c1.8,0,3.3,1.9,3.3,4.3
			l0.1,18.4C2307,532,2309.5,534.1,2311.6,532.8z"/>
	</g>
	<g>
		<linearGradient id="SVGID_14_" gradientUnits="userSpaceOnUse" x1="1825.1996" y1="1224.6698" x2="1543.3643" y2="1863.2021">
			<stop  offset="0" style="stop-color:#FF928E"/>
			<stop  offset="1" style="stop-color:#A81E34"/>
		</linearGradient>
		<path class="st19" d="M2026.6,1620h-668.5c-9.3,0-16.9-7.6-16.9-16.9v-154.9c0-9.3,7.6-16.9,16.9-16.9h668.5
			c9.3,0,16.9,7.6,16.9,16.9V1603C2043.6,1612.4,2036,1620,2026.6,1620z"/>
		<g>
			<path class="st15" d="M1453.2,1489.9h42.4c3.2,0,5.8-2.6,5.8-5.8v-26.5c0-3.2-2.6-5.8-5.8-5.8h-42.4c-3.2,0-5.8,2.6-5.8,5.8v26.5
				C1447.4,1487.3,1450,1489.9,1453.2,1489.9z M1456.1,1481.2v-20.8h36.7v20.8H1456.1z"/>
			<path class="st15" d="M1564,1509.7c-1.7-3-4.9-4.9-8.3-4.9c0,0,0,0,0,0l-23.3,0v-5.9c0-3.2-2.6-5.8-5.8-5.8h-42.4
				c-3.2,0-5.8,2.6-5.8,5.8v24.6l-3.5,0v-24.6c0-3.2-2.6-5.8-5.8-5.8h-42.4c-3.2,0-5.8,2.6-5.8,5.8v25l-50.3,0.4
				c-3.4,0-6.4,1.9-8,4.9c-1.6,3-1.4,6.6,0.5,9.4l20.6,29.9c3.9,5.6,10.2,8.9,17,8.9h117.9c6,0,11.5-3,14.7-8.2l30.5-49.9
				C1565.6,1516.5,1565.7,1512.7,1564,1509.7z M1487,1523.5v-21.6h36.7v3h-11.4c-5.3,0-10.2,2.6-13.2,7l-8,11.6L1487,1523.5z
				 M1429.6,1501.8h36.7v21.8l-35.9,0.3l-0.8,0V1501.8z M1556.4,1514.9l-30.5,49.9c-1.6,2.5-4.3,4.1-7.3,4.1h-117.9
				c-3.9,0-7.6-1.9-9.8-5.2l-20.6-29.9c0-0.1-0.2-0.2,0-0.5c0.1-0.2,0.3-0.2,0.4-0.2l59.8-0.5l45.4-0.3l6.9-0.1l0,0l10.6-0.1
				c1.4,0,2.7-0.7,3.5-1.9l9.3-13.5c1.4-2,3.7-3.2,6.1-3.2l43.4,0h0c0.3,0,0.6,0.1,0.7,0.4
				C1556.6,1514.2,1556.6,1514.5,1556.4,1514.9z"/>
		</g>
		<g class="st20">
			<path class="st15" d="M1815.1,1494.5H1588c-1.8,0-3.2-1.4-3.2-3.2v-11.5c0-1.8,1.4-3.2,3.2-3.2h227.2c1.8,0,3.2,1.4,3.2,3.2v11.5
				C1818.3,1493.1,1816.9,1494.5,1815.1,1494.5z"/>
			<path class="st15" d="M1815.1,1532.5H1588c-1.8,0-3.2-1.4-3.2-3.2v-11.5c0-1.8,1.4-3.2,3.2-3.2h227.2c1.8,0,3.2,1.4,3.2,3.2v11.5
				C1818.3,1531.1,1816.9,1532.5,1815.1,1532.5z"/>
			<path class="st15" d="M1676.7,1570.4H1588c-1.8,0-3.2-1.4-3.2-3.2v-11.5c0-1.8,1.4-3.2,3.2-3.2h88.8c1.8,0,3.2,1.4,3.2,3.2v11.5
				C1679.9,1569,1678.5,1570.4,1676.7,1570.4z"/>
		</g>
		<path class="st15" d="M1904.9,1586.5l94.1-57.1c2.5-1.5,2.5-6.3,0-7.8l-94.5-56.4c-2.2-1.3-4.6,0.8-4.6,3.9l0.1,18.4
			c0,2.4-1.4,4.3-3.2,4.3l-49.6,0.4c-1.8,0-3.2,1.9-3.2,4.3l0.2,59.6c0,2.4,1.5,4.3,3.3,4.3l49.6-0.4c1.8,0,3.3,1.9,3.3,4.3
			l0.1,18.4C1900.3,1585.8,1902.8,1587.9,1904.9,1586.5z"/>
	</g>
	<g>
		<g>
			<linearGradient id="SVGID_15_" gradientUnits="userSpaceOnUse" x1="57.0731" y1="2001.9464" x2="657.8965" y2="1588.2952">
				<stop  offset="0" style="stop-color:#FF928E"/>
				<stop  offset="1" style="stop-color:#A81E34"/>
			</linearGradient>
			<path class="st21" d="M151.4,1848v-315.9c0-41.5,33.3-75.3,74.8-75.7c124.5-1.4,381.4-1.4,591.6,16.3c28.7,2.4,51,25.9,52,54.7
				l19.6,305.4c1.5,40.4-30.5,74.1-70.9,74.9L223.8,1919C184,1919.8,151.4,1887.8,151.4,1848z"/>
			<path class="st15" d="M223.6,1566.4c-0.5,26.9,0.3,69.5,0.9,97.1c0.3,14.3,12.9,25.3,27.2,23.6l102.5-12
				c13.7-1.6,23.3-14.2,21.2-27.8l-12.6-83.9c-1.8-11.9-12-20.7-24.1-20.7h-90.8C234.7,1542.6,223.8,1553.1,223.6,1566.4z"/>
			<path class="st22" d="M491.4,1725.4l85.5,9.2c12,1.3,22.2-8.6,21.3-20.6l-18.7-254.3c-35.8-1.1-71.2-2-105.3-2.5v249.1
				C474.2,1716.1,481.6,1724.4,491.4,1725.4z"/>
			<path class="st15" d="M526.4,1681.3c0.3,4.6,4.1,8.1,8.6,8.1c0.2,0,0.3,0,0.5,0c4.7-0.3,8.4-4.3,8.1-9.1l-12.9-222
				c-5.8-0.1-11.5-0.3-17.2-0.4L526.4,1681.3z"/>
			<g>
				
					<linearGradient id="SVGID_16_" gradientUnits="userSpaceOnUse" x1="2912.282" y1="1558.2915" x2="2728.8157" y2="1824.8907" gradientTransform="matrix(1 0 0 1 -2608.8806 0)">
					<stop  offset="0" style="stop-color:#09005D"/>
					<stop  offset="1" style="stop-color:#1A0F91"/>
				</linearGradient>
				<path class="st23" d="M271,1646.5c-1.5,0-2.8-1.2-2.9-2.7l-4.4-69.9c-0.1-1.6,1.1-2.9,2.7-3c1.7-0.1,2.9,1.1,3,2.7l4.4,69.9
					c0.1,1.6-1.1,2.9-2.7,3C271.1,1646.5,271,1646.5,271,1646.5z"/>
				
					<linearGradient id="SVGID_17_" gradientUnits="userSpaceOnUse" x1="2918.8789" y1="1562.8313" x2="2735.4124" y2="1829.4309" gradientTransform="matrix(1 0 0 1 -2608.8806 0)">
					<stop  offset="0" style="stop-color:#09005D"/>
					<stop  offset="1" style="stop-color:#1A0F91"/>
				</linearGradient>
				<path class="st24" d="M280.1,1646.5c-1.5,0-2.8-1.2-2.9-2.8l-2.3-71.3c-0.1-1.6,1.2-2.9,2.8-3c1.8-0.1,2.9,1.2,3,2.8l2.3,71.3
					C283,1645.1,281.8,1646.4,280.1,1646.5C280.2,1646.5,280.1,1646.5,280.1,1646.5z"/>
				
					<linearGradient id="SVGID_18_" gradientUnits="userSpaceOnUse" x1="2926.8386" y1="1568.3088" x2="2743.3716" y2="1834.9088" gradientTransform="matrix(1 0 0 1 -2608.8806 0)">
					<stop  offset="0" style="stop-color:#09005D"/>
					<stop  offset="1" style="stop-color:#1A0F91"/>
				</linearGradient>
				<path class="st25" d="M292.3,1646.5c-1.5,0-2.8-1.2-2.9-2.7c-0.6-11.7-3.3-70.2-3.3-71.4c0-1.6,1.3-2.9,2.9-2.9
					c1.6,0,2.9,1.3,2.9,2.8c0,1.6,2.2,47.2,3.3,71.1c0.1,1.6-1.1,2.9-2.7,3C292.4,1646.5,292.4,1646.5,292.3,1646.5z M291.9,1572.4
					L291.9,1572.4L291.9,1572.4z"/>
				
					<linearGradient id="SVGID_19_" gradientUnits="userSpaceOnUse" x1="2940.6064" y1="1577.7837" x2="2757.1401" y2="1844.3829" gradientTransform="matrix(1 0 0 1 -2608.8806 0)">
					<stop  offset="0" style="stop-color:#09005D"/>
					<stop  offset="1" style="stop-color:#1A0F91"/>
				</linearGradient>
				<path class="st26" d="M311.4,1649.3c-3.1,0-5.6-2.4-5.7-5.5c-2.4-69-2-70.6-1.7-71.6c0.8-3.1,4-4.9,7-4c2.8,0.8,4.6,3.5,4.2,6.3
					c-0.2,4.1,1.1,44.3,2,69c0.1,3.2-2.4,5.8-5.5,5.9C311.6,1649.3,311.5,1649.3,311.4,1649.3z"/>
				
					<linearGradient id="SVGID_20_" gradientUnits="userSpaceOnUse" x1="2949.6846" y1="1584.031" x2="2766.218" y2="1850.6304" gradientTransform="matrix(1 0 0 1 -2608.8806 0)">
					<stop  offset="0" style="stop-color:#09005D"/>
					<stop  offset="1" style="stop-color:#1A0F91"/>
				</linearGradient>
				<path class="st27" d="M323.9,1646.5c-1.6,0-2.9-1.3-2.9-2.9v-69.9c0-1.6,1.3-2.9,2.9-2.9c1.6,0,2.9,1.3,2.9,2.9v69.9
					C326.7,1645.2,325.4,1646.5,323.9,1646.5z"/>
				
					<linearGradient id="SVGID_21_" gradientUnits="userSpaceOnUse" x1="2955.3206" y1="1587.9099" x2="2771.855" y2="1854.5078" gradientTransform="matrix(1 0 0 1 -2608.8806 0)">
					<stop  offset="0" style="stop-color:#09005D"/>
					<stop  offset="1" style="stop-color:#1A0F91"/>
				</linearGradient>
				<path class="st28" d="M333.9,1646.5c-1.6,0-2.8-1.2-2.9-2.8c-0.5-24.3-1.8-64-3-68.7c-0.5-0.9-0.5-2,0.1-3
					c0.9-1.3,2.6-1.7,4-0.8c1.6,1,3,2,4.6,72.4C336.8,1645.1,335.5,1646.4,333.9,1646.5L333.9,1646.5z"/>
				
					<linearGradient id="SVGID_22_" gradientUnits="userSpaceOnUse" x1="2902.842" y1="1551.7955" x2="2719.3755" y2="1818.395" gradientTransform="matrix(1 0 0 1 -2608.8806 0)">
					<stop  offset="0" style="stop-color:#09005D"/>
					<stop  offset="1" style="stop-color:#1A0F91"/>
				</linearGradient>
				<path class="st29" d="M255.5,1652.8c-3,0-5.6-2.4-5.7-5.4L246,1574c-0.2-3.2,2.3-5.9,5.4-6c3-0.2,5.9,2.3,6,5.4l3.8,73.4
					c0.2,3.2-2.3,5.9-5.4,6C255.7,1652.8,255.6,1652.8,255.5,1652.8z"/>
			</g>
		</g>
		<g>
			<linearGradient id="SVGID_23_" gradientUnits="userSpaceOnUse" x1="749.3247" y1="1045.7644" x2="330.0584" y2="1461.2876">
				<stop  offset="0" style="stop-color:#FF928E"/>
				<stop  offset="1" style="stop-color:#A81E34"/>
			</linearGradient>
			<path class="st30" d="M244.2,1408.8v-287.7c0-37.8,26.2-68.5,58.9-69c98-1.2,300.2-1.3,465.6,14.8c22.6,2.2,40.1,23.6,40.9,49.8
				l15.5,278.1c1.1,36.8-24,67.5-55.8,68.2l-468.2,10.3C269.9,1474.1,244.2,1445,244.2,1408.8z"/>
			<path class="st15" d="M301,1152.3c-0.4,24.5,0.2,63.3,0.7,88.4c0.3,13.1,10.2,23,21.4,21.5l80.7-10.9
				c10.7-1.5,18.3-12.9,16.7-25.3l-9.9-76.4c-1.4-10.9-9.5-18.9-18.9-18.9h-71.5C309.7,1130.6,301.2,1140.2,301,1152.3z"/>
			<path class="st22" d="M511.8,1297.1l67.3,8.4c9.4,1.2,17.5-7.8,16.8-18.7l-14.7-231.6c-28.2-1-56-1.8-82.9-2.3v226.8
				C498.2,1288.6,504.1,1296.2,511.8,1297.1z"/>
			<path class="st15" d="M539.4,1257c0.2,4.2,3.2,7.4,6.8,7.4c0.1,0,0.3,0,0.4,0c3.7-0.2,6.6-4,6.4-8.3l-10.1-202.2
				c-4.5-0.1-9.1-0.2-13.6-0.4L539.4,1257z"/>
			<g>
				
					<linearGradient id="SVGID_24_" gradientUnits="userSpaceOnUse" x1="2977.0347" y1="1144.8383" x2="2809.6697" y2="1388.0402" gradientTransform="matrix(1 0 0 1 -2608.8806 0)">
					<stop  offset="0" style="stop-color:#09005D"/>
					<stop  offset="1" style="stop-color:#1A0F91"/>
				</linearGradient>
				<path class="st31" d="M338.3,1225.2c-1.2,0-2.2-1.1-2.3-2.4l-3.5-63.7c-0.1-1.4,0.9-2.7,2.1-2.8c1.3-0.1,2.3,1,2.4,2.4l3.5,63.7
					c0.1,1.4-0.9,2.7-2.1,2.8C338.4,1225.2,338.3,1225.2,338.3,1225.2z"/>
				
					<linearGradient id="SVGID_25_" gradientUnits="userSpaceOnUse" x1="2981.7002" y1="1149.0938" x2="2814.7876" y2="1391.6383" gradientTransform="matrix(1 0 0 1 -2608.8806 0)">
					<stop  offset="0" style="stop-color:#09005D"/>
					<stop  offset="1" style="stop-color:#1A0F91"/>
				</linearGradient>
				<path class="st32" d="M345.5,1225.2c-1.2,0-2.2-1.1-2.3-2.5l-1.8-64.9c0-1.4,0.9-2.7,2.2-2.7c1.4-0.1,2.3,1.1,2.3,2.5l1.8,64.9
					C347.8,1224,346.8,1225.2,345.5,1225.2C345.5,1225.2,345.5,1225.2,345.5,1225.2z"/>
				
					<linearGradient id="SVGID_26_" gradientUnits="userSpaceOnUse" x1="2987.5374" y1="1154.0261" x2="2820.3997" y2="1396.8981" gradientTransform="matrix(1 0 0 1 -2608.8806 0)">
					<stop  offset="0" style="stop-color:#09005D"/>
					<stop  offset="1" style="stop-color:#1A0F91"/>
				</linearGradient>
				<path class="st33" d="M355.1,1225.2c-1.2,0-2.2-1.1-2.3-2.5c-0.4-10.7-2.6-63.9-2.6-65c0-1.4,1-2.6,2.3-2.6
					c1.2,0,2.2,1.2,2.3,2.6c0,1.4,1.7,43,2.6,64.8c0.1,1.4-0.9,2.7-2.1,2.7C355.2,1225.2,355.1,1225.2,355.1,1225.2z M354.7,1157.7
					L354.7,1157.7L354.7,1157.7z"/>
				
					<linearGradient id="SVGID_27_" gradientUnits="userSpaceOnUse" x1="2997.5232" y1="1162.8022" x2="2831.2451" y2="1404.4247" gradientTransform="matrix(1 0 0 1 -2608.8806 0)">
					<stop  offset="0" style="stop-color:#09005D"/>
					<stop  offset="1" style="stop-color:#1A0F91"/>
				</linearGradient>
				<path class="st34" d="M370.1,1227.8c-2.4,0-4.4-2.2-4.5-5c-1.9-62.9-1.6-64.3-1.4-65.2c0.7-2.8,3.2-4.4,5.5-3.7
					c2.2,0.7,3.6,3.2,3.3,5.7c-0.1,3.8,0.9,40.4,1.5,62.8c0.1,2.9-1.9,5.3-4.3,5.4C370.2,1227.8,370.2,1227.8,370.1,1227.8z"/>
				
					<linearGradient id="SVGID_28_" gradientUnits="userSpaceOnUse" x1="3004.1721" y1="1168.4399" x2="2837.7141" y2="1410.3237" gradientTransform="matrix(1 0 0 1 -2608.8806 0)">
					<stop  offset="0" style="stop-color:#09005D"/>
					<stop  offset="1" style="stop-color:#1A0F91"/>
				</linearGradient>
				<path class="st35" d="M379.9,1225.2c-1.2,0-2.3-1.2-2.3-2.6v-63.7c0-1.4,1-2.6,2.3-2.6c1.2,0,2.3,1.2,2.3,2.6v63.7
					C382.2,1224.1,381.2,1225.2,379.9,1225.2z"/>
				
					<linearGradient id="SVGID_29_" gradientUnits="userSpaceOnUse" x1="3008.3318" y1="1171.8833" x2="2841.1995" y2="1414.7469" gradientTransform="matrix(1 0 0 1 -2608.8806 0)">
					<stop  offset="0" style="stop-color:#09005D"/>
					<stop  offset="1" style="stop-color:#1A0F91"/>
				</linearGradient>
				<path class="st36" d="M387.8,1225.2c-1.2,0-2.2-1.1-2.3-2.5c-0.4-22.1-1.4-58.3-2.3-62.6c-0.4-0.8-0.4-1.9,0.1-2.7
					c0.7-1.2,2.1-1.5,3.1-0.7c1.2,0.9,2.4,1.8,3.6,65.9C390.1,1224,389.1,1225.2,387.8,1225.2L387.8,1225.2z"/>
				
					<linearGradient id="SVGID_30_" gradientUnits="userSpaceOnUse" x1="2970.1624" y1="1139.1315" x2="2803.4993" y2="1381.3135" gradientTransform="matrix(1 0 0 1 -2608.8806 0)">
					<stop  offset="0" style="stop-color:#09005D"/>
					<stop  offset="1" style="stop-color:#1A0F91"/>
				</linearGradient>
				<path class="st37" d="M326.1,1231c-2.4,0-4.4-2.2-4.5-5l-3-66.9c-0.1-2.9,1.8-5.3,4.3-5.5c2.4-0.2,4.6,2.1,4.7,4.9l3,66.9
					c0.1,2.9-1.8,5.3-4.3,5.5C326.3,1231,326.2,1231,326.1,1231z"/>
			</g>
		</g>
		<g>
			<linearGradient id="SVGID_31_" gradientUnits="userSpaceOnUse" x1="690.6542" y1="1910.3678" x2="1267.1449" y2="1485.4866">
				<stop  offset="0" style="stop-color:#FF928E"/>
				<stop  offset="1" style="stop-color:#A81E34"/>
			</linearGradient>
			<path class="st38" d="M704.6,1915.4c-34.9,0.7-63.5-27.4-63.5-62.3v-277.3c0-36.4,29.3-66.1,65.7-66.5
				c109.3-1.2,334.8-1.2,519.4,14.3c25.2,2.1,44.8,22.8,45.7,48l17.2,268.1c1.3,35.5-26.8,65.1-62.2,65.8L704.6,1915.4z"/>
			<path class="st15" d="M704.4,1605.7c-0.5,23.6,0.2,61,0.8,85.2c0.3,12.6,11.3,22.2,23.8,20.7l90-10.5c12-1.4,20.4-12.5,18.6-24.4
				l-11-73.7c-1.6-10.5-10.6-18.2-21.1-18.2h-79.7C714.2,1584.9,704.7,1594.1,704.4,1605.7z"/>
			<path class="st22" d="M939.6,1745.4l75.1,8.1c10.5,1.1,19.5-7.5,18.7-18.1l-16.4-223.3c-31.5-1-62.5-1.7-92.4-2.2v218.7
				C924.5,1737.2,931,1744.5,939.6,1745.4z"/>
			<path class="st15" d="M970.4,1706.7c0.2,4,3.6,7.1,7.5,7.1c0.1,0,0.3,0,0.4,0c4.2-0.2,7.3-3.8,7.1-8l-11.3-194.9
				c-5.1-0.1-10.1-0.2-15.1-0.4L970.4,1706.7z"/>
			<g>
				
					<linearGradient id="SVGID_32_" gradientUnits="userSpaceOnUse" x1="3383.4106" y1="1598.6588" x2="3222.3391" y2="1832.7156" gradientTransform="matrix(1 0 0 1 -2608.8806 0)">
					<stop  offset="0" style="stop-color:#09005D"/>
					<stop  offset="1" style="stop-color:#1A0F91"/>
				</linearGradient>
				<path class="st39" d="M746,1676.1c-1.3,0-2.4-1-2.5-2.4l-3.9-61.4c-0.1-1.4,1-2.6,2.4-2.7c1.5-0.1,2.6,1,2.7,2.4l3.9,61.4
					c0.1,1.4-1,2.6-2.4,2.7C746.2,1676.1,746.1,1676.1,746,1676.1z"/>
				
					<linearGradient id="SVGID_33_" gradientUnits="userSpaceOnUse" x1="3389.2024" y1="1602.6447" x2="3228.1309" y2="1836.7014" gradientTransform="matrix(1 0 0 1 -2608.8806 0)">
					<stop  offset="0" style="stop-color:#09005D"/>
					<stop  offset="1" style="stop-color:#1A0F91"/>
				</linearGradient>
				<path class="st40" d="M754.1,1676.1c-1.4,0-2.5-1.1-2.5-2.4l-2-62.6c0-1.4,1-2.6,2.4-2.6c1.6-0.1,2.6,1,2.6,2.4l2,62.6
					C756.6,1674.9,755.5,1676,754.1,1676.1L754.1,1676.1z"/>
				
					<linearGradient id="SVGID_34_" gradientUnits="userSpaceOnUse" x1="3396.1904" y1="1607.4535" x2="3235.1189" y2="1841.5104" gradientTransform="matrix(1 0 0 1 -2608.8806 0)">
					<stop  offset="0" style="stop-color:#09005D"/>
					<stop  offset="1" style="stop-color:#1A0F91"/>
				</linearGradient>
				<path class="st41" d="M764.8,1676.1c-1.3,0-2.4-1-2.5-2.4c-0.5-10.3-2.9-61.6-2.9-62.7c0-1.4,1.1-2.5,2.5-2.5
					c1.4,0,2.5,1.1,2.5,2.5c0,1.4,1.9,41.4,2.9,62.5c0.1,1.4-1,2.6-2.4,2.6C764.9,1676.1,764.8,1676.1,764.8,1676.1z M764.4,1611
					L764.4,1611L764.4,1611z"/>
				
					<linearGradient id="SVGID_35_" gradientUnits="userSpaceOnUse" x1="3408.2776" y1="1615.7717" x2="3247.2063" y2="1849.828" gradientTransform="matrix(1 0 0 1 -2608.8806 0)">
					<stop  offset="0" style="stop-color:#09005D"/>
					<stop  offset="1" style="stop-color:#1A0F91"/>
				</linearGradient>
				<path class="st42" d="M781.6,1678.6c-2.7,0-4.9-2.1-5-4.9c-2.1-60.6-1.8-62-1.5-62.9c0.7-2.7,3.5-4.3,6.2-3.5
					c2.5,0.7,4,3.1,3.7,5.5c-0.2,3.6,1,38.9,1.7,60.5c0.1,2.8-2.1,5.1-4.9,5.2C781.7,1678.6,781.6,1678.6,781.6,1678.6z"/>
				
					<linearGradient id="SVGID_36_" gradientUnits="userSpaceOnUse" x1="3416.2476" y1="1621.2565" x2="3255.1763" y2="1855.3131" gradientTransform="matrix(1 0 0 1 -2608.8806 0)">
					<stop  offset="0" style="stop-color:#09005D"/>
					<stop  offset="1" style="stop-color:#1A0F91"/>
				</linearGradient>
				<path class="st43" d="M792.5,1676.1c-1.4,0-2.5-1.1-2.5-2.5v-61.4c0-1.4,1.1-2.5,2.5-2.5c1.4,0,2.5,1.1,2.5,2.5v61.4
					C795,1675,793.9,1676.1,792.5,1676.1z"/>
				
					<linearGradient id="SVGID_37_" gradientUnits="userSpaceOnUse" x1="3421.1956" y1="1624.6617" x2="3260.125" y2="1858.7169" gradientTransform="matrix(1 0 0 1 -2608.8806 0)">
					<stop  offset="0" style="stop-color:#09005D"/>
					<stop  offset="1" style="stop-color:#1A0F91"/>
				</linearGradient>
				<path class="st44" d="M801.3,1676.1c-1.4,0-2.5-1.1-2.5-2.5c-0.5-21.3-1.6-56.2-2.6-60.4c-0.4-0.8-0.4-1.8,0.1-2.6
					c0.8-1.2,2.3-1.5,3.5-0.7c1.4,0.9,2.7,1.8,4.1,63.6C803.8,1674.9,802.7,1676,801.3,1676.1L801.3,1676.1z"/>
				
					<linearGradient id="SVGID_38_" gradientUnits="userSpaceOnUse" x1="3375.1228" y1="1592.9559" x2="3214.052" y2="1827.0116" gradientTransform="matrix(1 0 0 1 -2608.8806 0)">
					<stop  offset="0" style="stop-color:#09005D"/>
					<stop  offset="1" style="stop-color:#1A0F91"/>
				</linearGradient>
				<path class="st45" d="M732.5,1681.7c-2.7,0-4.9-2.1-5-4.8l-3.4-64.5c-0.1-2.8,2-5.1,4.8-5.3c2.6-0.2,5.1,2,5.3,4.8l3.4,64.5
					c0.1,2.8-2,5.1-4.8,5.3C732.7,1681.7,732.6,1681.7,732.5,1681.7z"/>
			</g>
		</g>
	</g>
	<g>
		<g>
			<g>
				<g>
					<path class="st15" d="M1520.1,968.3c-3.1,0-6.2-1.1-8.6-3.4l-18.5-17.4c-5.1-4.8-5.3-12.7-0.5-17.8c4.8-5.1,12.7-5.3,17.8-0.5
						l18.5,17.4c5.1,4.8,5.3,12.7,0.5,17.8C1526.8,967,1523.4,968.3,1520.1,968.3z"/>
					<path class="st15" d="M1704.1,1141.4c-3.1,0-6.2-1.1-8.6-3.4l-50.7-47.7c-5.1-4.8-5.3-12.7-0.5-17.8c4.8-5.1,12.7-5.3,17.8-0.5
						l50.7,47.7c5.1,4.8,5.3,12.7,0.5,17.8C1710.8,1140.1,1707.5,1141.4,1704.1,1141.4z M1602.7,1046.1c-3.1,0-6.2-1.1-8.6-3.4
						l-50.7-47.7c-5.1-4.8-5.3-12.7-0.5-17.8c4.8-5.1,12.7-5.3,17.8-0.5l50.7,47.7c5.1,4.8,5.3,12.7,0.5,17.8
						C1609.4,1044.8,1606.1,1046.1,1602.7,1046.1z"/>
					<path class="st15" d="M1755.1,1220.6c-1.2,0-2.4-0.2-3.6-0.5c-6.7-2-10.4-9-8.4-15.7l5.1-16.9l-12.8-12.1
						c-5.1-4.8-5.3-12.7-0.5-17.8c4.8-5.1,12.7-5.3,17.8-0.5l18.5,17.4c3.5,3.3,4.8,8.2,3.4,12.8l-7.4,24.3
						C1765.5,1217.1,1760.5,1220.6,1755.1,1220.6z"/>
					<path class="st15" d="M1720.9,1333.5c-1.2,0-2.4-0.2-3.6-0.5c-6.7-2-10.4-9-8.4-15.7l20.9-69.2c2-6.7,9-10.4,15.7-8.4
						c6.7,2,10.4,9,8.4,15.7l-20.9,69.2C1731.3,1330,1726.3,1333.5,1720.9,1333.5z"/>
				</g>
				<g>
					<path class="st15" d="M1099,846c-7,0-12.6-5.6-12.6-12.6V808c0-7,5.6-12.6,12.6-12.6c7,0,12.6,5.6,12.6,12.6v25.4
						C1111.6,840.4,1106,846,1099,846z"/>
					<path class="st15" d="M1099,774.9c-7,0-12.6-5.6-12.6-12.6v-72.5c0-7,5.6-12.6,12.6-12.6c7,0,12.6,5.6,12.6,12.6v72.5
						C1111.6,769.2,1106,774.9,1099,774.9z M1099,629.8c-7,0-12.6-5.6-12.6-12.6v-15.1c0-7,5.6-12.6,12.6-12.6
						c7,0,12.6,5.6,12.6,12.6v15.1C1111.6,624.2,1106,629.8,1099,629.8z"/>
					<path class="st15" d="M1099,591.9c-7,0-12.6-5.6-12.6-12.6v-25.4c0-6.9,5.6-12.6,12.6-12.6l25.4,0h0c6.9,0,12.6,5.6,12.6,12.6
						c0,7-5.6,12.6-12.6,12.6l-12.8,0v12.8C1111.6,586.3,1106,591.9,1099,591.9z"/>
					<path class="st15" d="M1175.6,566.4c-6.9,0-12.6-5.6-12.6-12.6c0-7,5.6-12.6,12.6-12.6l81.1-0.1h0c6.9,0,12.6,5.6,12.6,12.6
						c0,7-5.6,12.6-12.6,12.6L1175.6,566.4L1175.6,566.4z M1337.8,566.2c-6.9,0-12.6-5.6-12.6-12.6c0-7,5.6-12.6,12.6-12.6l81.1-0.1
						c0,0,0,0,0,0c7,0,12.6,5.6,12.6,12.6c0,7-5.6,12.6-12.6,12.6L1337.8,566.2L1337.8,566.2z M1500.1,566.1
						c-6.9,0-12.6-5.6-12.6-12.6c0-7,5.6-12.6,12.6-12.6l81.1-0.1h0c6.9,0,12.6,5.6,12.6,12.6c0,7-5.6,12.6-12.6,12.6L1500.1,566.1
						C1500.1,566.1,1500.1,566.1,1500.1,566.1z"/>
					<path class="st15" d="M1687.3,565.9c-6.9,0-12.6-5.6-12.6-12.6c0-7,5.6-12.6,12.6-12.6l25.4,0c0,0,0,0,0,0
						c7,0,12.6,5.6,12.6,12.6c0,7-5.6,12.6-12.6,12.6L1687.3,565.9L1687.3,565.9z"/>
				</g>
				<g>
					<linearGradient id="SVGID_39_" gradientUnits="userSpaceOnUse" x1="768.4966" y1="422.0207" x2="699.2429" y2="603.5779">
						<stop  offset="0" style="stop-color:#FF928E"/>
						<stop  offset="1" style="stop-color:#FE7062"/>
					</linearGradient>
					<path class="st46" d="M594,925.4h-25.4c-7,0-12.6-5.6-12.6-12.6s5.6-12.6,12.6-12.6H594c7,0,12.6,5.6,12.6,12.6
						S600.9,925.4,594,925.4z"/>
					<linearGradient id="SVGID_40_" gradientUnits="userSpaceOnUse" x1="886.3495" y1="466.9738" x2="817.0958" y2="648.5311">
						<stop  offset="0" style="stop-color:#FF928E"/>
						<stop  offset="1" style="stop-color:#FE7062"/>
					</linearGradient>
					<path class="st47" d="M794.1,925.4h-14.7c-7,0-12.6-5.6-12.6-12.6s5.6-12.6,12.6-12.6h14.7c7,0,12.6,5.6,12.6,12.6
						S801.1,925.4,794.1,925.4z M709,925.4h-70.5c-7,0-12.6-5.6-12.6-12.6s5.6-12.6,12.6-12.6H709c7,0,12.6,5.6,12.6,12.6
						S715.9,925.4,709,925.4z"/>
					<linearGradient id="SVGID_41_" gradientUnits="userSpaceOnUse" x1="995.4491" y1="508.5888" x2="926.1954" y2="690.1461">
						<stop  offset="0" style="stop-color:#FF928E"/>
						<stop  offset="1" style="stop-color:#FE7062"/>
					</linearGradient>
					<path class="st48" d="M859.1,944c-3.4,0-6.7-1.3-9.2-4l-13.6-14.6h-19.9c-7,0-12.6-5.6-12.6-12.6s5.6-12.6,12.6-12.6h25.4
						c3.5,0,6.8,1.5,9.2,4l17.3,18.6c4.7,5.1,4.5,13.1-0.6,17.8C865.2,942.9,862.2,944,859.1,944z"/>
					<linearGradient id="SVGID_42_" gradientUnits="userSpaceOnUse" x1="1277.8903" y1="616.3231" x2="1208.6365" y2="797.8806">
						<stop  offset="0" style="stop-color:#FF928E"/>
						<stop  offset="1" style="stop-color:#FE7062"/>
					</linearGradient>
					<path class="st49" d="M1250.3,1363.8c-3.3,0-6.6-1.3-9-3.8c-3.8-3.9-7.6-7.3-11.3-10.6c-6.9-6.2-13.4-12-18.7-19.8
						c-4.9-6.6-9.9-12.3-15.1-18.4c-1.4-1.6-2.8-3.3-4.2-4.9c-4.5-5.3-3.8-13.2,1.5-17.7c5.3-4.5,13.2-3.8,17.7,1.5
						c1.4,1.6,2.8,3.2,4.1,4.8c5.3,6.2,10.8,12.6,16.3,19.9c0.1,0.2,0.3,0.4,0.4,0.6c3.6,5.3,8.7,10,14.7,15.4
						c3.8,3.4,8.1,7.3,12.5,11.8c4.9,5,4.7,12.9-0.2,17.8C1256.7,1362.6,1253.5,1363.8,1250.3,1363.8z M1149.6,1255.8
						c-3.3,0-6.6-1.3-9.1-3.9c-16.2-16.9-32-34.2-47.4-51l-4.3-4.7c-4.7-5.1-4.3-13.1,0.8-17.8s13.1-4.3,17.8,0.8l4.3,4.7
						c15.2,16.6,30.9,33.8,47,50.6c4.8,5,4.6,13-0.4,17.8C1155.8,1254.7,1152.7,1255.8,1149.6,1255.8z M1046.4,1145.1
						c-3.3,0-6.5-1.3-9-3.8c-11-11.2-21.2-21.4-31.4-31c-0.2-0.2-0.4-0.4-0.6-0.6c-7.1-7.7-14.1-15.3-21.1-22.9
						c-4.7-5.1-4.4-13.1,0.7-17.8c5.1-4.7,13.1-4.4,17.8,0.7c6.8,7.4,13.8,14.9,20.8,22.5c10.3,9.7,20.7,20,31.8,31.4
						c4.9,5,4.8,12.9-0.2,17.8C1052.7,1143.9,1049.5,1145.1,1046.4,1145.1z M942.4,1035.1c-3.4,0-6.8-1.4-9.3-4.1
						c-17.4-19.1-34.1-37.5-50.8-56.2c-4.6-5.2-4.2-13.1,1-17.8c5.2-4.6,13.1-4.2,17.8,1c16.8,18.7,33.3,37,50.7,56.1
						c4.7,5.1,4.3,13.1-0.8,17.8C948.5,1034,945.5,1035.1,942.4,1035.1z"/>
					<linearGradient id="SVGID_43_" gradientUnits="userSpaceOnUse" x1="1945.3971" y1="870.9399" x2="1876.1433" y2="1052.4973">
						<stop  offset="0" style="stop-color:#FF928E"/>
						<stop  offset="1" style="stop-color:#FE7062"/>
					</linearGradient>
					<path class="st50" d="M2134.2,1410.3c-1.9,0-3.8-0.4-5.5-1.3c-1.5-0.3-5.6-0.8-16.3-1.4c-6.9-0.4-12.3-6.3-11.9-13.2
						c0.4-6.9,6.2-12.3,13.2-11.9c21.3,1.1,25.7,2.4,29.6,6.5c4.9,5,4.7,13-0.2,17.8C2140.6,1409.1,2137.4,1410.3,2134.2,1410.3z
						 M2129.3,1409.1L2129.3,1409.1L2129.3,1409.1z M2125.2,1406.5L2125.2,1406.5L2125.2,1406.5z M2125.2,1406.5
						C2125.2,1406.5,2125.2,1406.5,2125.2,1406.5C2125.2,1406.5,2125.2,1406.5,2125.2,1406.5z M1507.1,1409.4
						c-6.9,0-12.6-5.6-12.6-12.5c0-7,5.6-12.6,12.5-12.6c23.8-0.1,49.2-0.2,75.7-0.4c0,0,0.1,0,0.1,0c6.9,0,12.5,5.6,12.6,12.5
						c0,7-5.5,12.6-12.5,12.7C1556.4,1409.1,1530.9,1409.3,1507.1,1409.4C1507.1,1409.4,1507.1,1409.4,1507.1,1409.4z
						 M1431.4,1409.3C1431.3,1409.3,1431.3,1409.3,1431.4,1409.3c-36.2-0.2-61.2-0.7-76.4-1.6c-6.9-0.4-12.3-6.3-11.9-13.3
						c0.4-6.9,6.4-12.3,13.3-11.9c14.8,0.8,39.4,1.3,75.1,1.5c7,0,12.6,5.7,12.5,12.7C1443.9,1403.8,1438.3,1409.3,1431.4,1409.3z
						 M1658.6,1408.3c-6.9,0-12.5-5.6-12.6-12.5c-0.1-7,5.5-12.6,12.5-12.7l75.7-0.7c0,0,0.1,0,0.1,0c6.9,0,12.5,5.6,12.6,12.5
						c0.1,7-5.5,12.6-12.5,12.7l-75.8,0.7C1658.7,1408.3,1658.6,1408.3,1658.6,1408.3z M1810.1,1406.9c-6.9,0-12.5-5.6-12.6-12.5
						c-0.1-7,5.5-12.6,12.5-12.7c25.8-0.2,51.2-0.4,75.8-0.6c0,0,0.1,0,0.1,0c6.9,0,12.5,5.6,12.6,12.5c0,7-5.5,12.6-12.5,12.7
						c-24.5,0.2-49.9,0.4-75.7,0.6C1810.2,1406.9,1810.1,1406.9,1810.1,1406.9z M2037.3,1406C2037.3,1406,2037.3,1406,2037.3,1406
						c-14.5-0.1-30.3-0.1-47-0.1c-9.3,0-18.8,0-28.7,0h0c-6.9,0-12.6-5.6-12.6-12.6c0-7,5.6-12.6,12.6-12.6c10.6,0,21,0,30.9,0
						c16,0,31.1,0,45,0.1c7,0,12.6,5.7,12.5,12.7C2049.9,1400.5,2044.2,1406,2037.3,1406z"/>
				</g>
			</g>
			<circle class="st15" cx="581.3" cy="906.1" r="32.6"/>
			<circle class="st15" cx="1102.2" cy="842.6" r="32.6"/>
			<circle class="st15" cx="1102.2" cy="563.1" r="32.6"/>
			<circle class="st15" cx="1502.5" cy="937.9" r="32.6"/>
			<circle class="st15" cx="1299.2" cy="1401.7" r="32.6"/>
			<path class="st15" d="M1492.6,948.8c-1,0-2-0.1-3-0.4l-78.3-18.8c-6.8-1.6-10.9-8.4-9.3-15.2c1.6-6.8,8.4-10.9,15.2-9.3
				l78.3,18.8c6.8,1.6,10.9,8.4,9.3,15.2C1503.5,944.9,1498.3,948.8,1492.6,948.8z M1336,911.1c-1,0-2-0.1-3-0.4l-78.3-18.8
				c-6.8-1.6-10.9-8.4-9.3-15.2c1.6-6.8,8.4-10.9,15.2-9.3l78.3,18.8c6.8,1.6,10.9,8.4,9.3,15.2
				C1346.8,907.3,1341.7,911.1,1336,911.1z M1179.3,873.5c-1,0-2-0.1-3-0.4l-78.3-18.8c-6.8-1.6-10.9-8.4-9.3-15.2
				c1.6-6.8,8.4-10.9,15.2-9.3l78.3,18.8c6.8,1.6,10.9,8.4,9.3,15.2C1190.1,869.6,1185,873.5,1179.3,873.5z"/>
		</g>
		<g>
			<g>
				<linearGradient id="SVGID_44_" gradientUnits="userSpaceOnUse" x1="573.7619" y1="882.4451" x2="573.7619" y2="351.8116">
					<stop  offset="0" style="stop-color:#FF928E"/>
					<stop  offset="1" style="stop-color:#A81E34"/>
				</linearGradient>
				<circle class="st51" cx="573.8" cy="582" r="120.7"/>
				<linearGradient id="SVGID_45_" gradientUnits="userSpaceOnUse" x1="573.658" y1="882.4452" x2="573.658" y2="351.8103">
					<stop  offset="0" style="stop-color:#FF928E"/>
					<stop  offset="1" style="stop-color:#A81E34"/>
				</linearGradient>
				<path class="st52" d="M694.3,575.5H573.8H453c0,0-9.6,67,98.2,250.6c4.7,8,13.3,12.8,22.6,12.8c9.3,0,17.9-4.7,22.6-12.7
					C704.1,642.6,694.3,575.5,694.3,575.5z"/>
			</g>
			<g>
				<path class="st53" d="M573.7,842.8v0.7h0c-10.5,0-20.3-5.8-25.6-14.8c-63-107.3-86.1-175.1-94.3-213.1
					c-2.4-8.7-3.7-17.3-4.1-26.1c-0.7-9-0.2-12.8-0.1-13.2l0.3-1.9c4.9-64.9,58.8-115.3,123.9-115.3c65.9,0,120.4,51.2,124,116.6
					c0.1,0.9,0.3,3,0.2,6.7l0,0.4c0,11.9-1.7,23.6-5,34.9c-8.6,37.9-31.8,105.1-93.7,210.6C594,837.4,584.6,842.8,573.7,842.8z
					 M456.3,581c0,1.8,0,4.4,0.3,8.3l0,0c0.4,8.3,1.7,16.3,3.9,24.6l0,0.1c8.1,37.4,31,104.4,93.6,211c4,6.9,11.5,11.1,19.5,11.1
					l0,3.5v-3.5c7.2,0,15.5-4.3,19.6-11.2c61.5-104.8,84.5-171.4,92.9-208.9l0.1-0.2c3.1-10.7,4-21.8,4-33.1l-0.7-0.5v0
					c0-3.5,0.6-5.4,0.5-5.9l0.3-0.2c-3.4-61.7-54.7-110-116.9-110c-62.1,0-113.4,49-117,111.3l-0.1,3.6H456.3z"/>
			</g>
			
				<ellipse transform="matrix(0.7071 -0.7071 0.7071 0.7071 -243.0919 576.3346)" class="st15" cx="574.2" cy="581.6" rx="69.7" ry="69.7"/>
			<g>
				<linearGradient id="SVGID_46_" gradientUnits="userSpaceOnUse" x1="581.9265" y1="431.2862" x2="565.0812" y2="756.9665">
					<stop  offset="0" style="stop-color:#FF928E"/>
					<stop  offset="1" style="stop-color:#FE7062"/>
				</linearGradient>
				<path class="st54" d="M574.2,655.2c-40.6,0-73.6-33-73.6-73.6c0-40.6,33-73.6,73.6-73.6c40.6,0,73.6,33,73.6,73.6
					C647.8,622.2,614.7,655.2,574.2,655.2z M574.2,515.8c-36.3,0-65.8,29.5-65.8,65.8c0,36.3,29.5,65.8,65.8,65.8
					c36.3,0,65.8-29.5,65.8-65.8C640,545.3,610.4,515.8,574.2,515.8z"/>
			</g>
		</g>
		<g>
			<g>
				<linearGradient id="SVGID_47_" gradientUnits="userSpaceOnUse" x1="1317.6466" y1="921.9227" x2="1205.3429" y2="1449.7488">
					<stop  offset="0" style="stop-color:#FF928E"/>
					<stop  offset="1" style="stop-color:#A81E34"/>
				</linearGradient>
				<circle class="st55" cx="1284.9" cy="1075.8" r="120.7"/>
				<linearGradient id="SVGID_48_" gradientUnits="userSpaceOnUse" x1="1318.1805" y1="922.0361" x2="1205.877" y2="1449.8621">
					<stop  offset="0" style="stop-color:#FF928E"/>
					<stop  offset="1" style="stop-color:#A81E34"/>
				</linearGradient>
				<path class="st56" d="M1405.4,1069.4h-120.5h-120.7c0,0-9.6,67,98.2,250.6c4.7,8,13.3,12.8,22.6,12.8c9.3,0,17.9-4.7,22.6-12.7
					C1415.2,1136.4,1405.4,1069.4,1405.4,1069.4z"/>
			</g>
			<g>
				<path class="st53" d="M1284.8,1336.7v0.7h0c-10.5,0-20.3-5.8-25.6-14.8c-63-107.3-86.1-175.1-94.3-213.1
					c-2.4-8.7-3.7-17.3-4.1-26.1c-0.7-9-0.2-12.8-0.1-13.2l0.3-1.9c4.9-64.9,58.8-115.3,123.9-115.3c65.9,0,120.4,51.2,124,116.6
					c0.1,0.9,0.3,3,0.2,6.7l0,0.4c0,11.9-1.7,23.6-5,34.9c-8.6,37.9-31.8,105.1-93.7,210.6
					C1305.2,1331.2,1295.7,1336.7,1284.8,1336.7z M1167.4,1074.8c0,1.8,0,4.4,0.3,8.3l0,0c0.4,8.3,1.7,16.3,3.9,24.6l0,0.1
					c8.1,37.4,31,104.4,93.6,211c4,6.9,11.5,11.1,19.5,11.1l0,3.5v-3.5c7.2,0,15.5-4.3,19.6-11.2c61.5-104.8,84.5-171.4,92.9-208.9
					l0.1-0.2c3.1-10.7,4-21.8,4-33.1l-0.7-0.5v0c0-3.5,0.6-5.4,0.5-5.9l0.3-0.2c-3.4-61.7-54.7-110-116.9-110
					c-62.1,0-113.4,49-117,111.3l-0.1,3.6H1167.4z"/>
			</g>
			
				<ellipse transform="matrix(0.9571 -0.2898 0.2898 0.9571 -256.4959 418.6006)" class="st15" cx="1285.3" cy="1075.4" rx="69.7" ry="69.7"/>
			<g>
				<linearGradient id="SVGID_49_" gradientUnits="userSpaceOnUse" x1="1285.2899" y1="699.9522" x2="1285.2899" y2="1196.8948">
					<stop  offset="0" style="stop-color:#FF928E"/>
					<stop  offset="1" style="stop-color:#FE7062"/>
				</linearGradient>
				<path class="st57" d="M1285.3,1149.1c-40.6,0-73.6-33-73.6-73.6c0-40.6,33-73.6,73.6-73.6c40.6,0,73.6,33,73.6,73.6
					C1358.9,1116,1325.9,1149.1,1285.3,1149.1z M1285.3,1009.6c-36.3,0-65.8,29.5-65.8,65.8c0,36.3,29.5,65.8,65.8,65.8
					c36.3,0,65.8-29.5,65.8-65.8C1351.1,1039.1,1321.6,1009.6,1285.3,1009.6z"/>
			</g>
		</g>
		<g>
			<g>
				<linearGradient id="SVGID_50_" gradientUnits="userSpaceOnUse" x1="1594.705" y1="261.4252" x2="1836.1995" y2="261.4252">
					<stop  offset="0" style="stop-color:#FF928E"/>
					<stop  offset="1" style="stop-color:#A81E34"/>
				</linearGradient>
				<circle class="st58" cx="1715.5" cy="261.4" r="120.7"/>
				<linearGradient id="SVGID_51_" gradientUnits="userSpaceOnUse" x1="1594.4846" y1="386.6464" x2="1836.2119" y2="386.6464">
					<stop  offset="0" style="stop-color:#FF928E"/>
					<stop  offset="1" style="stop-color:#A81E34"/>
				</linearGradient>
				<path class="st59" d="M1836,255h-120.5h-120.7c0,0-9.6,67,98.2,250.6c4.7,8,13.3,12.8,22.6,12.8c9.3,0,17.9-4.7,22.6-12.7
					C1845.8,322,1836,255,1836,255z"/>
			</g>
			<g>
				<path class="st53" d="M1715.4,522.3v0.7h0c-10.5,0-20.3-5.8-25.6-14.8c-63-107.3-86.1-175.1-94.3-213.1
					c-2.4-8.7-3.7-17.3-4.1-26.1c-0.7-9-0.2-12.8-0.1-13.2l0.3-1.9c4.9-64.9,58.8-115.3,123.9-115.3c65.9,0,120.4,51.2,124,116.6
					c0.1,0.9,0.3,3,0.2,6.7l0,0.4c0,11.9-1.7,23.6-5,34.9c-8.6,37.9-31.8,105.1-93.7,210.6C1735.7,516.8,1726.3,522.3,1715.4,522.3z
					 M1598,260.4c0,1.8,0,4.4,0.3,8.3l0,0c0.4,8.3,1.7,16.3,3.9,24.6l0,0.1c8.1,37.4,31,104.4,93.6,211c4,6.9,11.5,11.1,19.5,11.1
					l0,3.5v-3.5c7.2,0,15.5-4.3,19.6-11.2c61.5-104.8,84.5-171.4,92.9-208.9l0.1-0.2c3.1-10.7,4-21.8,4-33.1l-0.7-0.5v0
					c0-3.5,0.6-5.4,0.5-5.9l0.3-0.2c-3.4-61.7-54.7-110-116.9-110c-62.1,0-113.4,49-117,111.3l-0.1,3.6H1598z"/>
			</g>
			
				<ellipse transform="matrix(0.9571 -0.2898 0.2898 0.9571 -2.0208 508.4232)" class="st15" cx="1715.8" cy="261" rx="69.7" ry="69.7"/>
			<g>
				<linearGradient id="SVGID_52_" gradientUnits="userSpaceOnUse" x1="1753.1985" y1="31.8012" x2="1691.4318" y2="410.825">
					<stop  offset="0" style="stop-color:#FF928E"/>
					<stop  offset="1" style="stop-color:#FE7062"/>
				</linearGradient>
				<path class="st60" d="M1715.8,334.7c-40.6,0-73.6-33-73.6-73.6c0-40.6,33-73.6,73.6-73.6c40.6,0,73.6,33,73.6,73.6
					C1789.5,301.6,1756.4,334.7,1715.8,334.7z M1715.8,195.2c-36.3,0-65.8,29.5-65.8,65.8c0,36.3,29.5,65.8,65.8,65.8
					c36.3,0,65.8-29.5,65.8-65.8C1781.7,224.7,1752.1,195.2,1715.8,195.2z"/>
			</g>
		</g>
	</g>
	<g>
		<path class="st61" d="M2060.6,1876.4c25.8,2.2,70.5,5.8,105.8,7.4c21.2,0.9,33.4-1.1,40.4-4c0,0.8,0,1.5-0.1,2.2
			c-0.2,3.7-3.2,6.7-6.9,6.9c-66.6,3.7-119.6,1.3-138.5,0.1c-3.9-0.2-6.2-4.5-4.2-7.8C2058,1879.6,2059.3,1878,2060.6,1876.4z"/>
		
			<linearGradient id="SVGID_53_" gradientUnits="userSpaceOnUse" x1="-2977.8113" y1="1854.1577" x2="-2831.5759" y2="1854.1577" gradientTransform="matrix(-1 0 0 1 -771.0064 0)">
			<stop  offset="0" style="stop-color:#09005D"/>
			<stop  offset="1" style="stop-color:#1A0F91"/>
		</linearGradient>
		<path class="st62" d="M2166.4,1883.8c-35.3-1.6-80-5.2-105.8-7.4c25.3-31.1,105.8-52.1,105.8-52.1h22.7
			c15.6,22.5,17.9,44,17.7,55.5C2199.8,1882.6,2187.6,1884.7,2166.4,1883.8z"/>
		
			<linearGradient id="SVGID_54_" gradientUnits="userSpaceOnUse" x1="-2963.9102" y1="1812.9836" x2="-2921.5244" y2="1812.9836" gradientTransform="matrix(-1 0 0 1 -771.0064 0)">
			<stop  offset="0" style="stop-color:#FEBBBA"/>
			<stop  offset="1" style="stop-color:#FF928E"/>
		</linearGradient>
		<path class="st63" d="M2192.9,1787.2l-2.1,42.1c-0.2,4.6-3.6,8.4-8.2,9c-4.5,0.6-10.6,0.7-17.1-1.4c-4-1.3-6.9-4.7-7.6-8.7
			l-7.3-41H2192.9z"/>
		<g>
			<path class="st61" d="M2456.6,1924.9c11.2-2,16.2-9.5,18.4-17.5c0,0.1,0,0.1,0,0.2c1.6,8.5-2.2,17.2-9.8,21.4
				c-9.2,5-19.3,5.9-27.1,5.5c-8.4-0.4-16.1-4.9-20.3-12.1l-0.1-0.1C2426.1,1927.6,2438,1928.3,2456.6,1924.9z"/>
			
				<linearGradient id="SVGID_55_" gradientUnits="userSpaceOnUse" x1="-3245.9629" y1="1863.5789" x2="-3161.322" y2="1863.5789" gradientTransform="matrix(-1 0 0 1 -771.0064 0)">
				<stop  offset="0" style="stop-color:#09005D"/>
				<stop  offset="1" style="stop-color:#1A0F91"/>
			</linearGradient>
			<path class="st64" d="M2403.9,1800.2h18.7c28.5-0.8,46.5,77,52.3,107.2c-2.1,8-7.2,15.5-18.4,17.5c-18.6,3.4-30.5,2.7-38.9-2.7
				c-15.4-26.2-23.1-64.6-26.7-87C2386.8,1809.7,2403.9,1800.2,2403.9,1800.2z"/>
		</g>
		
			<linearGradient id="SVGID_56_" gradientUnits="userSpaceOnUse" x1="-3201.968" y1="1790.8811" x2="-3151.3123" y2="1790.8811" gradientTransform="matrix(-1 0 0 1 -771.0064 0)">
			<stop  offset="0" style="stop-color:#FEBBBA"/>
			<stop  offset="1" style="stop-color:#FF928E"/>
		</linearGradient>
		<path class="st65" d="M2420.2,1761.1l10.4,41.4c1.3,5.1-1.2,10.3-5.8,12.7c-5.8,3-14,6.1-21.5,5.2c-3.5-0.4-6.5-2.9-7.7-6.3
			l-15.3-43.5L2420.2,1761.1z"/>
		
			<linearGradient id="SVGID_57_" gradientUnits="userSpaceOnUse" x1="-2792.2368" y1="1244.2438" x2="-3224.72" y2="1952.6927" gradientTransform="matrix(-1 0 0 1 -771.0064 0)">
			<stop  offset="0" style="stop-color:#10122E"/>
			<stop  offset="1" style="stop-color:#1A0F91"/>
		</linearGradient>
		<path class="st66" d="M2054.2,1216.1c0,0,93,581.2,91.4,584.4c0,0,25.7,11.7,53.7,1.5c0,0-8.4-310.7-28.1-429.8
			c0,0,158.7,277.7,209.1,416.1c0,0,26.3-3.1,48-17.5c0,0-170.9-499.8-216.4-566.4L2054.2,1216.1z"/>
		<linearGradient id="SVGID_58_" gradientUnits="userSpaceOnUse" x1="2559.9905" y1="776.2437" x2="2235.7302" y2="1205.7837">
			<stop  offset="0" style="stop-color:#4F52FF"/>
			<stop  offset="1" style="stop-color:#4042E2"/>
		</linearGradient>
		<path class="st67" d="M2167.5,1369.2c0.5,0,1-0.1,1.5-0.4c1.3-0.8,1.7-2.5,0.9-3.8l-34.7-55.5c-0.4-0.6-1-1.1-1.8-1.2l-25.6-5.1
			c-1.5-0.3-2.9,0.7-3.2,2.2c-0.3,1.5,0.7,2.9,2.2,3.2l24.4,4.9l34.1,54.5C2165.7,1368.7,2166.6,1369.2,2167.5,1369.2z"/>
		
			<linearGradient id="SVGID_59_" gradientUnits="userSpaceOnUse" x1="-2505.2236" y1="723.8751" x2="-2705.8479" y2="984.8819" gradientTransform="matrix(-1 0 0 1 -771.0064 0)">
			<stop  offset="0" style="stop-color:#FEBBBA"/>
			<stop  offset="1" style="stop-color:#FF928E"/>
		</linearGradient>
		<path class="st68" d="M1627.6,647c0,0,62.7,13.8,100.9,31.5c7.6,3.5,13.6,9.6,17.1,17.2c11.4,25,45.6,87.7,111.8,117.6
			c-9.5,12.7-24.9,39-31.6,83.2c-39.8-29.6-74.1-79-90.6-160.1c0,0-12.6,6.8-28.2-0.8c-8.3-4-17.8-9.7-25-14.2
			c-7.1-4.5-12.5-11.4-14.5-19.5c-2.7-10.7-1.1-20.1-1.1-30.2l-32.2-10C1634,661.7,1624.3,658,1627.6,647z"/>
		<path class="st1" d="M1825.7,896.5c6.7-44.3,22-70.6,31.6-83.2c41.1,18.6,94.6,24.5,162.8,0.9c6.3-2.2,12.8-3.5,19.5-3.8
			c36.3-2.1,155.8-6,254.7,26.7c20.8,6.9,37.7,22.3,46.4,42.2c26.8,61.4,70.1,201.2-50.2,271.8c-9.2-22.9-19.9-41.4-29-54.9
			c19.4-32.7,25.1-77.3-9.3-135.4c-25.1,67.7-36.8,166.4-39.3,210.1c-0.8,14.4,1.7,28.7,7.4,42l0.6,1.4c1.2,2.8-0.5,6.1-3.5,6.8
			c-67.7,15.2-138.1,11.1-159.2,9.3c-3.8-0.3-6.9-3-7.7-6.6c-32.9-138.7-33-233.3-24.9-293.2
			C1994.8,937.5,1900.6,952.2,1825.7,896.5z"/>
		<linearGradient id="SVGID_60_" gradientUnits="userSpaceOnUse" x1="2022.6835" y1="888.998" x2="2052.2104" y2="888.998">
			<stop  offset="0" style="stop-color:#E1473D"/>
			<stop  offset="1" style="stop-color:#E9605A"/>
		</linearGradient>
		<path class="st69" d="M2025.4,934.4c1.4,0,2.5-1,2.7-2.4c7.7-58.4,23.5-83.9,23.6-84.1c0.8-1.3,0.4-3-0.9-3.8
			c-1.3-0.8-3-0.4-3.8,0.8c-0.7,1.1-16.5,26.6-24.4,86.4c-0.2,1.5,0.9,2.9,2.4,3.1C2025.2,934.4,2025.3,934.4,2025.4,934.4z"/>
		
			<linearGradient id="SVGID_61_" gradientUnits="userSpaceOnUse" x1="-2952.4106" y1="892.5676" x2="-2930.4622" y2="777.3375" gradientTransform="matrix(-1 0 0 1 -771.0064 0)">
			<stop  offset="0" style="stop-color:#FEBBBA"/>
			<stop  offset="1" style="stop-color:#FF928E"/>
		</linearGradient>
		<path class="st70" d="M2192.5,729.5c0,0,6.8,72.4,12.9,93.8c0.9,3.2-0.5,6.7-3.4,8.4c-10.2,5.8-34.8,15.4-68.4-1.1
			c-5.4-2.7-8.7-8.3-8.5-14.3l3-70L2192.5,729.5z"/>
		<g>
			
				<linearGradient id="SVGID_62_" gradientUnits="userSpaceOnUse" x1="-2893.021" y1="681.1567" x2="-3018.2512" y2="776.9769" gradientTransform="matrix(-1 0 0 1 -771.0064 0)">
				<stop  offset="0" style="stop-color:#FEBBBA"/>
				<stop  offset="1" style="stop-color:#FF928E"/>
			</linearGradient>
			<path class="st71" d="M2126.6,636.9c0,0-21.9,50.3-23.4,76.7c-1.5,26.4-7.2,43.6,23.4,48.9c30.5,5.3,56.3-9.9,70.2-36.2
				c0,0,21.8-40.5,16.9-57.1C2208.9,652.5,2126.6,636.9,2126.6,636.9z"/>
			
				<linearGradient id="SVGID_63_" gradientUnits="userSpaceOnUse" x1="-2981.1775" y1="605.288" x2="-2864.5454" y2="755.4518" gradientTransform="matrix(-1 0 0 1 -771.0064 0)">
				<stop  offset="0" style="stop-color:#09005D"/>
				<stop  offset="1" style="stop-color:#1A0F91"/>
			</linearGradient>
			<path class="st72" d="M2186.4,707.3l-1.7-0.8c-2.2-1-3.2-3.6-2-5.8c4.3-8.3,12.7-27.4,1.9-31.8c-14-5.7-69.3-17-81.3-36.7
				c-11.5-18.9-1.3-43.3,14-50.2c1-0.5,2.2-0.1,2.8,0.9l1.3,2.4c0.9,1.7,3.3,1.4,3.8-0.4l0,0c0.5-1.7,2.8-2.1,3.7-0.5
				c3.7,5.9,13.6,15.4,40.1,20.3c37.7,7,62.6,22.2,63.2,48.2c0,1.7,1.8,2.6,3.2,1.7c2.8-1.7,7.2-2.5,13.2,2.5
				c10.3,8.7,6.1,31.3-16.6,49.8c-1.1,0.9-1.1,2.6,0.1,3.3c4.1,2.7,10.2,9-5.6,17.5c-16.4,8.8-28.7,8.1-33.4,7.3
				c-1.2-0.2-1.9-1.3-1.7-2.5l5-22.9c0.3-1.3-0.7-2.5-2-2.5H2186.4z"/>
			
				<linearGradient id="SVGID_64_" gradientUnits="userSpaceOnUse" x1="-2908.5544" y1="660.8556" x2="-3033.7847" y2="756.676" gradientTransform="matrix(-1 0 0 1 -771.0064 0)">
				<stop  offset="0" style="stop-color:#FEBBBA"/>
				<stop  offset="1" style="stop-color:#FF928E"/>
			</linearGradient>
			<path class="st73" d="M2185.4,712.2c0,0,8.4-32.1,22.8-23.1c14.4,9-7.5,36-19.1,37.2L2185.4,712.2z"/>
		</g>
		<path class="st74" d="M1718.4,728.9c0.6,0,1.2-0.2,1.7-0.6c1.2-1,1.4-2.7,0.4-3.9c-2.4-2.9-23.4-28.7-31.5-33.2
			c-3-1.7-4.7-3.4-5.1-5c-0.2-0.8-0.1-1.6,0.4-2.6l24.7,5l14,12c1.2,1,2.9,0.9,3.9-0.3c1-1.2,0.9-2.9-0.3-3.9l-14.6-12.5
			c-0.4-0.3-0.8-0.5-1.2-0.6l-27.4-5.5c-1.1-0.2-2.2,0.2-2.8,1.2c-2,3-2.7,5.7-2,8.5c0.8,3.2,3.3,6,7.7,8.5
			c6.1,3.4,23.7,24.2,30,31.9C1716.8,728.5,1717.6,728.9,1718.4,728.9z"/>
		
			<linearGradient id="SVGID_65_" gradientUnits="userSpaceOnUse" x1="-2835.1318" y1="974.4269" x2="-2922.7837" y2="1105.9042" gradientTransform="matrix(-1 0 0 1 -771.0064 0)">
			<stop  offset="0" style="stop-color:#FEBBBA"/>
			<stop  offset="1" style="stop-color:#FF928E"/>
		</linearGradient>
		<path class="st75" d="M2186.5,1185.8l-96.8,1.2l33.9-31.9c8.4-7.9,21.3-9.2,31-2.9c5.7,3.7,11.9,8.7,17.2,15.3
			c0,0,60.4-22.1,89.7-71.5c9.1,13.5,19.8,32,29,54.9C2264.2,1166.4,2230.2,1178.6,2186.5,1185.8z"/>
		<g>
			
				<linearGradient id="SVGID_66_" gradientUnits="userSpaceOnUse" x1="-445.6576" y1="1192.1334" x2="-643.6753" y2="1246.4048" gradientTransform="matrix(0.9988 -4.940000e-02 4.940000e-02 0.9988 2603.9756 -79.5744)">
				<stop  offset="0" style="stop-color:#09005D"/>
				<stop  offset="1" style="stop-color:#1A0F91"/>
			</linearGradient>
			<path class="st76" d="M2176.1,1198.3c-0.2,0-0.4,0-0.6,0l-245.8-0.3c-6.1,0-11-4.9-11-10.9c0-6,5-11,11-10.9l245.8,0.3
				c6.1,0,11,4.9,11,10.9C2186.5,1193.3,2181.9,1198,2176.1,1198.3z"/>
			
				<linearGradient id="SVGID_67_" gradientUnits="userSpaceOnUse" x1="-654.5157" y1="1006.7856" x2="-794.1922" y2="1154.4149" gradientTransform="matrix(1 0 0 1 2603.7295 0)">
				<stop  offset="0" style="stop-color:#10122E"/>
				<stop  offset="1" style="stop-color:#2D3252"/>
			</linearGradient>
			<path class="st77" d="M1708.7,977.5h204.7c15.1,0,28.8,8.6,35.3,22.1l94.6,198.5H1789c-9.7,0-18.5-5.9-22.1-14.8l-73.4-183.7
				C1689.3,989,1697.2,977.5,1708.7,977.5z"/>
			
				<ellipse transform="matrix(0.9497 -0.313 0.313 0.9497 -247.0405 629.7275)" class="st61" cx="1837.6" cy="1084.2" rx="16.1" ry="26"/>
		</g>
	</g>
</g>
</svg>