<?xml version="1.0" encoding="utf-8"?>
<!-- Generator: Adobe Illustrator 23.0.5, SVG Export Plug-In . SVG Version: 6.00 Build 0)  -->
<svg version="1.1" id="Layer_1" xmlns="http://www.w3.org/2000/svg" xmlns:xlink="http://www.w3.org/1999/xlink" x="0px" y="0px"
	 viewBox="0 0 600 600" style="enable-background:new 0 0 600 600;" xml:space="preserve">
<style type="text/css">
	.st0{clip-path:url(#SVGID_2_);}
	.st1{opacity:0.47;}
	.st2{fill:#FFFFFF;}
	.st3{opacity:7.000000e-02;}
	.st4{fill:#1F60B0;}
	.st5{fill:#E7EEFE;}
	.st6{fill:#CBDBFD;}
	.st7{fill:url(#SVGID_3_);}
	.st8{fill:url(#SVGID_4_);}
	.st9{fill:url(#SVGID_5_);}
	.st10{fill:#DBE2F2;}
	.st11{fill:url(#SVGID_6_);}
	.st12{fill:url(#SVGID_7_);}
	.st13{fill:#DAE3F2;}
	.st14{fill:#F8F5FF;}
	.st15{fill:url(#SVGID_8_);}
	.st16{fill:url(#SVGID_9_);}
	.st17{fill:url(#SVGID_10_);}
	.st18{fill:url(#SVGID_11_);}
	.st19{fill:url(#SVGID_12_);}
	.st20{fill:url(#SVGID_13_);}
	.st21{fill:url(#SVGID_14_);}
	.st22{fill:url(#SVGID_15_);}
	.st23{fill:url(#SVGID_16_);}
	.st24{fill:url(#SVGID_17_);}
	.st25{fill:url(#SVGID_18_);}
	.st26{fill:url(#SVGID_19_);}
	.st27{fill:url(#SVGID_20_);}
	.st28{fill:url(#SVGID_21_);}
	.st29{fill:url(#SVGID_22_);}
	.st30{fill:url(#SVGID_23_);}
	.st31{fill:url(#SVGID_24_);}
	.st32{fill:#B1C9FD;}
	.st33{fill:none;}
	.st34{fill:#350FA2;}
	.st35{fill:url(#SVGID_25_);}
	.st36{fill:url(#SVGID_26_);}
	.st37{fill:url(#SVGID_27_);}
	.st38{fill:url(#SVGID_28_);}
	.st39{fill:url(#SVGID_29_);}
	.st40{fill:url(#SVGID_30_);}
	.st41{fill:url(#SVGID_31_);}
	.st42{fill:url(#SVGID_32_);}
	.st43{fill:url(#SVGID_33_);}
	.st44{fill:url(#SVGID_34_);}
	.st45{fill:#FFC572;}
	.st46{fill:url(#XMLID_4_);}
	.st47{clip-path:url(#SVGID_36_);fill:#F8F5FF;}
	.st48{clip-path:url(#SVGID_38_);fill:#F8F5FF;}
	.st49{clip-path:url(#SVGID_40_);fill:#F8F5FF;}
	.st50{clip-path:url(#SVGID_42_);fill:#F8F5FF;}
	.st51{fill:url(#SVGID_43_);}
	.st52{fill:url(#SVGID_44_);}
	.st53{fill:url(#SVGID_45_);}
	.st54{fill:url(#SVGID_46_);}
	.st55{fill:url(#SVGID_47_);}
	.st56{fill:#FF7E78;}
	.st57{fill:url(#SVGID_48_);}
	.st58{fill:url(#SVGID_49_);}
	.st59{fill:#808285;}
	.st60{fill:#FF6F69;}
	.st61{fill:#C132AE;}
	.st62{fill:#6099DC;}
	.st63{fill:url(#SVGID_50_);}
	.st64{fill:url(#SVGID_51_);}
	.st65{fill:#753397;}
	.st66{fill:url(#SVGID_52_);}
	.st67{fill:url(#SVGID_53_);}
	.st68{fill:#782388;}
	.st69{fill:url(#SVGID_54_);}
	.st70{fill:#5876D6;}
	.st71{fill:url(#SVGID_55_);}
	.st72{fill:#414042;}
	.st73{fill:#F8A595;}
	.st74{fill:#F7A08C;}
	.st75{fill:url(#SVGID_56_);}
	.st76{fill:url(#SVGID_57_);}
	.st77{fill:url(#SVGID_58_);}
	.st78{fill:url(#SVGID_59_);}
	.st79{fill:#231F20;}
	.st80{fill-rule:evenodd;clip-rule:evenodd;fill:url(#SVGID_60_);}
	.st81{fill-rule:evenodd;clip-rule:evenodd;fill:#EFF3FF;}
</style>
<g>
	<defs>
		<rect id="SVGID_1_" x="0.6" y="-0.2" width="599.4" height="600.2"/>
	</defs>
	<clipPath id="SVGID_2_">
		<use xlink:href="#SVGID_1_"  style="overflow:visible;"/>
	</clipPath>
	<g class="st0">
		<g class="st1">
			<g>
				<polygon class="st2" points="150,599 150,479.4 168.8,479.4 168.8,429.9 191.9,429.9 191.9,480.3 197.6,480.3 197.6,458.1 
					213.5,458.1 213.5,480 236,480 236,522.1 250.8,522.1 250.8,506.2 269.9,487.1 269.9,505.9 281.3,505.9 281.3,451.8 
					304.9,451.8 304.9,599 				"/>
				<polygon class="st2" points="0.6,599 0.6,479.4 19.3,479.4 19.3,429.9 42.4,429.9 42.4,480.3 48.1,480.3 48.1,458.1 64,458.1 
					64,480 86.5,480 86.5,522.1 101.3,522.1 101.3,506.2 120.4,487.1 120.4,505.9 131.8,505.9 131.8,451.8 155.4,451.8 155.4,599 
									"/>
				<polygon class="st2" points="-148.9,599 -148.9,479.4 -130.1,479.4 -130.1,429.9 -107.1,429.9 -107.1,480.3 -101.4,480.3 
					-101.4,458.1 -85.4,458.1 -85.4,480 -62.9,480 -62.9,522.1 -48.1,522.1 -48.1,506.2 -29,487.1 -29,505.9 -17.7,505.9 
					-17.7,451.8 6,451.8 6,599 				"/>
				<polygon class="st2" points="299.7,599 299.7,479.4 318.4,479.4 318.4,429.9 341.5,429.9 341.5,480.3 347.2,480.3 347.2,458.1 
					363.1,458.1 363.1,480 385.6,480 385.6,522.1 400.4,522.1 400.4,506.2 419.5,487.1 419.5,505.9 430.9,505.9 430.9,451.8 
					454.5,451.8 454.5,599 				"/>
				<polygon class="st2" points="449.4,599 449.4,479.4 468.2,479.4 468.2,429.9 491.3,429.9 491.3,480.3 497,480.3 497,458.1 
					512.9,458.1 512.9,480 535.4,480 535.4,522.1 550.2,522.1 550.2,506.2 569.3,487.1 569.3,505.9 580.7,505.9 580.7,451.8 
					604.3,451.8 604.3,599 				"/>
			</g>
			<g class="st3">
				<path class="st4" d="M-42.4,433.1L-42.4,433.1c0.2-0.7,0.3-1.5,0.3-2.3c0-4.9-4-8.9-8.9-8.9s-8.9,4-8.9,8.9
					c0,0.8,0.1,1.5,0.3,2.3l0,0l0,0c0.2,0.9,0.6,1.7,1.1,2.4c1.6,3.5,3.8,7.6,7.6,13.8c3.4-5.9,6.2-10.8,7.7-13.9
					C-43,434.6-42.6,433.9-42.4,433.1L-42.4,433.1z"/>
				<circle class="st2" cx="-51" cy="430.8" r="4.2"/>
			</g>
			<g class="st3">
				<path class="st4" d="M501.1,393L501.1,393c0.2-0.7,0.3-1.5,0.3-2.3c0-4.9-4-8.9-8.9-8.9s-8.9,4-8.9,8.9c0,0.8,0.1,1.5,0.3,2.3
					l0,0l0,0c0.2,0.9,0.6,1.7,1.1,2.4c1.6,3.5,3.8,7.6,7.6,13.8c3.4-5.9,6.2-10.8,7.7-13.9C500.6,394.6,500.9,393.8,501.1,393
					L501.1,393z"/>
				<path class="st2" d="M496.8,390.8c0,2.3-1.9,4.2-4.2,4.2c-2.3,0-4.2-1.9-4.2-4.2c0-2.3,1.9-4.2,4.2-4.2
					C494.9,386.5,496.8,388.4,496.8,390.8z"/>
			</g>
			<g class="st3">
				<path class="st4" d="M556.1,375L556.1,375c0.2-0.7,0.3-1.5,0.3-2.3c0-4.9-4-8.9-8.9-8.9s-8.9,4-8.9,8.9c0,0.8,0.1,1.5,0.3,2.3
					l0,0l0,0c0.2,0.9,0.6,1.7,1.1,2.4c1.6,3.5,3.8,7.6,7.6,13.8c3.4-5.9,6.2-10.8,7.7-13.9C555.5,376.6,555.9,375.8,556.1,375
					L556.1,375z"/>
				<path class="st2" d="M551.7,372.8c0,2.3-1.9,4.2-4.2,4.2c-2.3,0-4.2-1.9-4.2-4.2c0-2.3,1.9-4.2,4.2-4.2
					C549.8,368.5,551.7,370.4,551.7,372.8z"/>
			</g>
			<g class="st3">
				<path class="st4" d="M-100.8,410.2L-100.8,410.2c0.2-0.6,0.2-1.2,0.2-1.8c0-4-3.2-7.2-7.2-7.2s-7.2,3.2-7.2,7.2
					c0,0.6,0.1,1.2,0.2,1.8l0,0l0,0c0.2,0.7,0.5,1.4,0.9,2c1.3,2.9,3,6.1,6.1,11.1c2.8-4.8,5-8.8,6.2-11.3
					C-101.3,411.5-101,410.9-100.8,410.2L-100.8,410.2z"/>
				<path class="st2" d="M-104.4,408.4c0,1.9-1.5,3.4-3.4,3.4s-3.4-1.5-3.4-3.4s1.5-3.4,3.4-3.4S-104.4,406.5-104.4,408.4z"/>
			</g>
		</g>
		<g>
			<g>
				<path class="st5" d="M403.1,595.5h-46.3V398.8c18.1-18.1,28.2-28.2,46.3-46.3l0,0V595.5z"/>
				<rect x="365.6" y="401.7" class="st2" width="8.9" height="12"/>
				<rect x="385.5" y="401.7" class="st2" width="8.9" height="12"/>
				<polygon class="st2" points="374.5,434.4 365.6,435.2 365.6,423.2 374.5,422.4 				"/>
				<rect x="385.5" y="422.4" class="st2" width="8.9" height="12"/>
				<polygon class="st2" points="374.5,455.9 365.6,456.7 365.6,444.7 374.5,443.8 				"/>
				<rect x="385.5" y="443.8" class="st2" width="8.9" height="12"/>
				<rect x="365.6" y="465.3" class="st2" width="8.9" height="12"/>
				<polygon class="st2" points="394.3,478.2 385.5,478.2 385.5,465.3 394.3,466.1 				"/>
			</g>
			<g>
				<g>
					<g>
						<rect x="403.3" y="335.3" class="st6" width="55.7" height="260.2"/>
						<rect x="420.1" y="323.5" class="st6" width="22" height="11.8"/>
					</g>
					<rect x="430.3" y="297.7" class="st6" width="1.7" height="25.9"/>
				</g>
				<rect x="412.2" y="356.4" class="st2" width="8.9" height="12"/>
				<rect x="438.6" y="357.8" class="st2" width="8.9" height="12"/>
				<rect x="412.2" y="376.9" class="st2" width="8.9" height="12"/>
				<rect x="437.7" y="377.5" class="st2" width="8.9" height="12"/>
				<rect x="412.2" y="397.5" class="st2" width="8.9" height="12"/>
				<rect x="437.7" y="398" class="st2" width="8.9" height="12"/>
				<rect x="412.2" y="418.1" class="st2" width="8.9" height="12"/>
				<rect x="437.7" y="418.6" class="st2" width="8.9" height="12"/>
				<rect x="412.2" y="438.6" class="st2" width="8.9" height="12"/>
				<rect x="437.7" y="439.2" class="st2" width="8.9" height="12"/>
				<rect x="412.2" y="459.2" class="st2" width="8.9" height="12"/>
				<rect x="437.7" y="459.7" class="st2" width="8.9" height="12"/>
			</g>
			<g>
				<rect x="459" y="413.7" class="st5" width="39.8" height="181.7"/>
				<rect x="465.9" y="439.4" class="st2" width="8.9" height="12"/>
				<rect x="482.5" y="439.4" class="st2" width="8.9" height="12"/>
				<rect x="465.9" y="458.8" class="st2" width="8.9" height="12"/>
				<rect x="482.5" y="458.8" class="st2" width="8.9" height="12"/>
				<rect x="465.9" y="478.2" class="st2" width="8.9" height="12"/>
				<rect x="482.5" y="478.2" class="st2" width="8.9" height="12"/>
				<rect x="465.9" y="497.6" class="st2" width="8.9" height="12"/>
				<rect x="482.5" y="497.6" class="st2" width="8.9" height="12"/>
			</g>
			<g>
				<path class="st6" d="M542.2,595.5h-43.4V400.4l0,0c24,0,43.4,19.4,43.4,43.4V595.5z"/>
				<rect x="506.1" y="452.7" class="st2" width="8.9" height="12"/>
				<rect x="526" y="452.7" class="st2" width="8.9" height="12"/>
				<rect x="506.1" y="474.2" class="st2" width="8.9" height="12"/>
				<rect x="526" y="474.2" class="st2" width="8.9" height="12"/>
				<rect x="506.1" y="495.7" class="st2" width="8.9" height="12"/>
				<rect x="526" y="495.7" class="st2" width="8.9" height="12"/>
				<rect x="506.1" y="517.2" class="st2" width="8.9" height="12"/>
				<rect x="526" y="517.2" class="st2" width="8.9" height="12"/>
			</g>
			<g>
				<rect x="304.5" y="435.2" class="st6" width="52.3" height="160.3"/>
				<rect x="314.8" y="456.4" class="st2" width="8.9" height="12"/>
				<rect x="334.6" y="456.4" class="st2" width="8.9" height="12"/>
				<rect x="314.8" y="478.9" class="st2" width="8.9" height="12"/>
				<rect x="334.6" y="478.9" class="st2" width="8.9" height="12"/>
				<rect x="314.8" y="501.5" class="st2" width="8.9" height="12"/>
				<rect x="334.6" y="501.5" class="st2" width="8.9" height="12"/>
				<rect x="314.8" y="524.1" class="st2" width="8.9" height="12"/>
				<rect x="334.6" y="524.1" class="st2" width="8.9" height="12"/>
			</g>
		</g>
		<g>
			
				<linearGradient id="SVGID_3_" gradientUnits="userSpaceOnUse" x1="360.8501" y1="86" x2="408.8501" y2="86" gradientTransform="matrix(1 0 0 1 0 352)">
				<stop  offset="0" style="stop-color:#FFC572"/>
				<stop  offset="1" style="stop-color:#FF4EB3"/>
			</linearGradient>
			<path class="st7" d="M408.1,431.2L408.1,431.2c0.5-1.9,0.8-4,0.8-6.1c0-13.2-10.7-24-24-24s-24,10.7-24,24c0,2.1,0.3,4.2,0.8,6.1
				l0,0l0,0c0.6,2.4,1.6,4.6,2.8,6.6c4.3,9.5,10.1,20.4,20.4,37.1c9.3-15.9,16.7-29.2,20.7-37.6
				C406.7,435.4,407.5,433.3,408.1,431.2L408.1,431.2z"/>
			
				<ellipse transform="matrix(0.9239 -0.3827 0.3827 0.9239 -133.387 179.6574)" class="st2" cx="384.9" cy="425.1" rx="11.4" ry="11.4"/>
		</g>
		<g>
			<g>
				
					<linearGradient id="SVGID_4_" gradientUnits="userSpaceOnUse" x1="312.0985" y1="148.2459" x2="483.6214" y2="190.0809" gradientTransform="matrix(1 0 0 1 0 352)">
					<stop  offset="0" style="stop-color:#68D2FF"/>
					<stop  offset="1" style="stop-color:#2287D9"/>
				</linearGradient>
				<polygon class="st8" points="383.5,534.8 441.4,534.8 412.5,510.6 383.5,486.4 354.6,510.6 325.7,534.8 				"/>
				
					<linearGradient id="SVGID_5_" gradientUnits="userSpaceOnUse" x1="301.1634" y1="193.08" x2="472.6867" y2="234.9151" gradientTransform="matrix(1 0 0 1 0 352)">
					<stop  offset="0" style="stop-color:#68D2FF"/>
					<stop  offset="1" style="stop-color:#2287D9"/>
				</linearGradient>
				<rect x="337.5" y="534.8" class="st9" width="92" height="60.7"/>
			</g>
			<g>
				<rect x="378.1" y="514.2" class="st2" width="5.7" height="6.5"/>
				<rect x="385.7" y="514.2" class="st2" width="5.7" height="6.5"/>
				<rect x="378.1" y="522.2" class="st2" width="5.7" height="6.5"/>
				<rect x="385.7" y="522.2" class="st2" width="5.7" height="6.5"/>
			</g>
			<rect x="373.9" y="554.3" class="st2" width="23.7" height="41.1"/>
		</g>
		<path class="st10" d="M543.7,368.4c2.6,0,5,0.7,7.1,1.9c1.9-5.5,7.1-9.4,13.2-9.4c1,0,2,0.1,2.9,0.3c2.4-9.7,11.1-16.8,21.5-16.8
			c10.3,0,19,7,21.5,16.6c0.4,0,0.9-0.1,1.3-0.1c3.4,0,6.6,0.9,9.3,2.5c2.6-1.6,5.6-2.5,8.8-2.5c9.2,0,16.7,7.5,16.7,16.7h-16.3
			h-17.2h-4.9h-11.7h-3.2h-3h-12h-8.5H557h-0.4h-6.3h-19.8C532.4,372.3,537.6,368.4,543.7,368.4z"/>
		<path class="st2" d="M281,175.9h-17.3h-5.5h-0.3h-10.6h-7.4h-10.5h-2.7h-2.8h-10.2h-4.3h-15h-14.2c0-8.1,6.5-14.6,14.6-14.6
			c1.7,0,3.4,0.3,4.9,0.9c2.9-2.6,6.6-4.1,10.8-4.1c1.9,0,3.8,0.4,5.5,1c1.9-2.2,4.7-3.6,7.8-3.6c2.2,0,4.2,0.7,5.9,1.9
			c3.1-4.5,8.2-7.4,14-7.4c8.1,0,14.9,5.7,16.6,13.4c2.2-2.4,5.5-4,9-4c6.8,0,12.3,5.5,12.3,12.3C281.7,173.1,281.5,174.6,281,175.9
			z"/>
		
			<linearGradient id="SVGID_6_" gradientUnits="userSpaceOnUse" x1="191.6268" y1="223.0483" x2="323.1301" y2="223.0483" gradientTransform="matrix(1 0 0 1 0 352)">
			<stop  offset="0" style="stop-color:#AEC9E8"/>
			<stop  offset="0.2148" style="stop-color:#B5CDE9"/>
			<stop  offset="0.5259" style="stop-color:#C8D9EC"/>
			<stop  offset="0.8942" style="stop-color:#E8ECF0"/>
			<stop  offset="1" style="stop-color:#F2F2F2"/>
		</linearGradient>
		<path class="st11" d="M193.5,594.2c-2.3-2.5-2.5-6.7-0.5-9.4s6.1-3.7,9.2-2.2c-0.6-2.6-0.1-5.7,1.9-7.4c2.1-1.8,5.7-1.5,7,0.9
			c-0.6-3,0.5-6.4,3-8.1c2.5-1.7,6.4-1.4,8.2,1.1c0.1-3.6,0.2-7.5,2.5-10.3s7.5-3.2,9,0.1c1.4-3.2,4.9-5.5,8.4-5.4s6.9,2.5,8.1,5.8
			c3.2-3.4,8.3-5,12.8-3.8s8.3,4.9,9.4,9.5c0.2,0.9,0.6,2.1,1.5,2.2c0.4,0.1,0.9-0.1,1.3-0.2c2.7-0.8,5.7,0.8,7.4,3.2
			c1.6,2.3,2.2,5.3,2.7,8.1c3.2-2.8,9.2-0.3,9.5,3.9c2.1-1.4,4.7-2.9,6.9-1.7c1,0.5,1.6,1.5,2.5,2.1s2.4,0.6,2.8-0.4
			c1.4,2.2,2.3,4.6,2.6,7.1c2.5-1.9,6.2-2.2,9-0.7s4.5,4.8,4.2,8L193.5,594.2z"/>
		
			<linearGradient id="SVGID_7_" gradientUnits="userSpaceOnUse" x1="526.0269" y1="224.2483" x2="657.5302" y2="224.2483" gradientTransform="matrix(1 0 0 1 0 352)">
			<stop  offset="0" style="stop-color:#AEC9E8"/>
			<stop  offset="0.2148" style="stop-color:#B5CDE9"/>
			<stop  offset="0.5259" style="stop-color:#C8D9EC"/>
			<stop  offset="0.8942" style="stop-color:#E8ECF0"/>
			<stop  offset="1" style="stop-color:#F2F2F2"/>
		</linearGradient>
		<path class="st12" d="M527.9,595.4c-2.3-2.5-2.5-6.7-0.5-9.4s6.1-3.7,9.2-2.2c-0.6-2.6-0.1-5.7,1.9-7.4c2.1-1.8,5.7-1.5,7,0.9
			c-0.6-3,0.5-6.4,3-8.1c2.5-1.7,6.4-1.4,8.2,1.1c0.1-3.6,0.2-7.5,2.5-10.3s7.5-3.2,9,0.1c1.4-3.2,4.9-5.5,8.4-5.4s6.9,2.5,8.1,5.8
			c3.2-3.4,8.3-5,12.8-3.8s8.3,4.9,9.4,9.5c0.2,0.9,0.6,2.1,1.5,2.2c0.4,0.1,0.9-0.1,1.3-0.2c2.7-0.8,5.7,0.8,7.4,3.2
			c1.6,2.3,2.2,5.3,2.7,8.1c3.2-2.8,9.2-0.3,9.5,3.9c2.1-1.4,4.7-2.9,6.9-1.7c1,0.5,1.6,1.5,2.5,2.1s2.4,0.6,2.8-0.4
			c1.4,2.2,2.3,4.6,2.6,7.1c2.5-1.9,6.2-2.2,9-0.7s4.5,4.8,4.2,8L527.9,595.4z"/>
		<g>
			<path class="st13" d="M299.8,568.5c-0.5-4.3-4.1-8.5-8.4-8.1c3.5-3.1,5.6-7.8,5.7-12.5c0-2.8-0.8-5.8-3-7.6
				c-1.9-1.5-4.9-1.6-6.6,0c2.9-3.9,3.9-9,2.7-13.7c-1.3-5-5.1-9.4-10-11.2c-2.7-1-5.9-1.3-8.6,0c-2.8,1.3-4.6,4.2-5.7,7.1
				c-2,5.5-1.7,11.6-1.4,17.4c-3.3-0.6-6.8,0-9.7,1.8c-1,0.6-2.1,1.4-2.4,2.6c-0.2,0.8-0.2,1.6-0.2,2.4c0,3.3,0.4,6.7,1.1,9.9
				c0.3,1.5,0.8,2.9,1.5,4.3c0.3,0.7,1.6,3.6,2.5,3.7c-2.8-0.4-5.4,1.6-6.6,4.1s-1.2,5.4-1,8.2c0.3,4.6,1,9.5,4.4,12.6
				c3.6,3.4,8.8,3.6,13.4,4.2c5.2,0.7,10.5,0.5,15.5-1.2c6.1-2.1,10.9-6.1,13.7-11.9C298.6,576.9,300.3,572.7,299.8,568.5z"/>
			<path class="st14" d="M276.5,596.2c0-12.1,0-24.2,0-36.3c0-2.6-4.1-2.6-4.1,0c0,12.1,0,24.2,0,36.3
				C272.4,598.8,276.5,598.8,276.5,596.2L276.5,596.2z"/>
			<path class="st14" d="M276.3,583.6c4.5-0.7,8.7-3,11.9-6.3c0.7-0.8,0.8-2.1,0-2.9c-0.8-0.7-2.1-0.8-2.9,0
				c-0.3,0.4-0.7,0.7-1.1,1.1c-0.2,0.2-0.4,0.4-0.6,0.5c-0.1,0.1-0.2,0.2-0.3,0.2c-0.1,0.1-0.2,0.1,0,0c-0.8,0.6-1.7,1.2-2.6,1.7
				c-0.4,0.2-0.9,0.4-1.4,0.7c0.2-0.1,0.2-0.1,0,0c-0.1,0-0.2,0.1-0.3,0.1c-0.2,0.1-0.5,0.2-0.8,0.3c-1,0.3-2,0.6-3,0.7
				c-1.1,0.2-1.7,1.5-1.4,2.5C274.2,583.3,275.2,583.8,276.3,583.6L276.3,583.6z"/>
			<path class="st14" d="M273.4,572.8c0,0-0.5,0.1-0.2,0s-0.1,0-0.2,0c-0.3,0-0.5,0-0.8,0c-0.4,0,0.1,0,0.1,0s-0.3-0.1-0.4-0.1
				c-0.3-0.1-0.5-0.1-0.8-0.2c-0.2-0.1-0.4,0,0,0c-0.1,0-0.2-0.1-0.3-0.1c-0.2-0.1-0.5-0.2-0.7-0.4c-0.2-0.1-0.5-0.3-0.7-0.4
				c0.2,0.2,0.1,0.1,0,0s-0.2-0.2-0.3-0.3c-0.4-0.4-0.7-0.8-1.1-1.2c-0.2-0.2,0.3,0.4,0-0.1c-0.1-0.1-0.2-0.2-0.2-0.3
				c-0.1-0.2-0.3-0.4-0.4-0.6c-0.6-1-1.1-2-1.7-3c-0.5-0.9-1.9-1.3-2.8-0.7c-1,0.6-1.3,1.8-0.7,2.8c1.2,2.3,2.5,4.6,4.5,6.3
				c2.2,1.8,5,2.9,7.8,2.2c1-0.2,1.7-1.5,1.4-2.5C275.6,573.1,274.6,572.6,273.4,572.8L273.4,572.8z"/>
		</g>
		<g>
			<path class="st13" d="M585,566.4c-0.5-4.3-4.1-8.5-8.4-8.1c3.5-3.1,5.6-7.8,5.7-12.5c0-2.8-0.8-5.8-3-7.6c-1.9-1.5-4.9-1.6-6.6,0
				c2.9-3.9,3.9-9,2.7-13.7c-1.3-5-5.1-9.4-10-11.2c-2.7-1-5.9-1.3-8.6,0c-2.8,1.3-4.6,4.2-5.7,7.1c-2,5.5-1.7,11.6-1.4,17.4
				c-3.3-0.6-6.8,0-9.7,1.8c-1,0.6-2.1,1.4-2.4,2.6c-0.2,0.8-0.2,1.6-0.2,2.4c0,3.3,0.4,6.7,1.1,9.9c0.3,1.5,0.8,2.9,1.5,4.3
				c0.3,0.7,1.6,3.6,2.5,3.7c-2.8-0.4-5.4,1.6-6.6,4.1s-1.2,5.4-1,8.2c0.3,4.6,1,9.5,4.4,12.6c3.6,3.4,8.8,3.6,13.4,4.2
				c5.2,0.7,10.5,0.5,15.5-1.2c6.1-2.1,10.9-6.1,13.7-11.9C583.9,574.9,585.6,570.7,585,566.4z"/>
			<path class="st14" d="M561.8,594.2c0-12.1,0-24.2,0-36.3c0-2.6-4.1-2.6-4.1,0c0,12.1,0,24.2,0,36.3
				C557.7,596.8,561.8,596.8,561.8,594.2L561.8,594.2z"/>
			<path class="st14" d="M561.6,581.5c4.5-0.7,8.7-3,11.9-6.3c0.7-0.8,0.8-2.1,0-2.9c-0.8-0.7-2.1-0.8-2.9,0
				c-0.3,0.4-0.7,0.7-1.1,1.1c-0.2,0.2-0.4,0.4-0.6,0.5c-0.1,0.1-0.2,0.2-0.3,0.2c-0.1,0.1-0.2,0.1,0,0c-0.8,0.6-1.7,1.2-2.6,1.7
				c-0.4,0.2-0.9,0.4-1.4,0.7c0.2-0.1,0.2-0.1,0,0c-0.1,0-0.2,0.1-0.3,0.1c-0.2,0.1-0.5,0.2-0.8,0.3c-1,0.3-2,0.6-3,0.7
				c-1.1,0.2-1.7,1.5-1.4,2.5C559.4,581.3,560.4,581.7,561.6,581.5L561.6,581.5z"/>
			<path class="st14" d="M558.7,570.8c0,0-0.5,0.1-0.2,0s-0.1,0-0.2,0c-0.3,0-0.5,0-0.8,0c-0.4,0,0.1,0,0.1,0s-0.3-0.1-0.4-0.1
				c-0.3-0.1-0.5-0.1-0.8-0.2c-0.2-0.1-0.4,0,0,0c-0.1,0-0.2-0.1-0.3-0.1c-0.2-0.1-0.5-0.2-0.7-0.4c-0.2-0.1-0.5-0.3-0.7-0.4
				c0.2,0.2,0.1,0.1,0,0s-0.2-0.2-0.3-0.3c-0.4-0.4-0.7-0.8-1.1-1.2c-0.2-0.2,0.3,0.4,0-0.1c-0.1-0.1-0.2-0.2-0.2-0.3
				c-0.1-0.2-0.3-0.4-0.4-0.6c-0.6-1-1.1-2-1.7-3c-0.5-0.9-1.9-1.3-2.8-0.7c-1,0.6-1.3,1.8-0.7,2.8c1.2,2.3,2.5,4.6,4.5,6.3
				c2.2,1.8,5,2.9,7.8,2.2c1-0.2,1.7-1.5,1.4-2.5C560.8,571.1,559.8,570.5,558.7,570.8L558.7,570.8z"/>
		</g>
		<g>
			
				<linearGradient id="SVGID_8_" gradientUnits="userSpaceOnUse" x1="495.3249" y1="-63.2311" x2="498.4152" y2="-63.2311" gradientTransform="matrix(0.9907 0.136 -0.136 0.9907 -15.1628 242.3668)">
				<stop  offset="0" style="stop-color:#68D2FF"/>
				<stop  offset="1" style="stop-color:#2287D9"/>
			</linearGradient>
			<polygon class="st15" points="486.7,251.7 485.3,251.8 484.7,242.9 486.1,242.8 			"/>
			
				<linearGradient id="SVGID_9_" gradientUnits="userSpaceOnUse" x1="401.7671" y1="-42.7989" x2="404.559" y2="-42.7989" gradientTransform="matrix(0.9907 0.136 -0.136 0.9907 -15.1628 242.3668)">
				<stop  offset="0" style="stop-color:#68D2FF"/>
				<stop  offset="1" style="stop-color:#2287D9"/>
			</linearGradient>
			<polygon class="st16" points="389.6,257 388.5,256.3 390.6,252.6 391.7,253.2 			"/>
			
				<linearGradient id="SVGID_10_" gradientUnits="userSpaceOnUse" x1="404.3272" y1="-43.4119" x2="407.9762" y2="-43.4119" gradientTransform="matrix(0.9907 0.136 -0.136 0.9907 -15.1628 242.3668)">
				<stop  offset="0" style="stop-color:#68D2FF"/>
				<stop  offset="1" style="stop-color:#2287D9"/>
			</linearGradient>
			<polygon class="st17" points="393.7,256.8 394.8,256.1 392.6,252.4 391.5,253 			"/>
			
				<linearGradient id="SVGID_11_" gradientUnits="userSpaceOnUse" x1="384.2865" y1="-47.5099" x2="424.2321" y2="-47.5099" gradientTransform="matrix(0.9907 0.136 -0.136 0.9907 -15.1628 242.3668)">
				<stop  offset="0" style="stop-color:#68D2FF"/>
				<stop  offset="1" style="stop-color:#2287D9"/>
			</linearGradient>
			<path class="st18" d="M407.3,252.7l-30,1.4c-2.9,0.1-5.3-2.1-5.5-5l0,0l40.5-1.9l0,0C412.4,250.1,410.2,252.6,407.3,252.7z"/>
			
				<linearGradient id="SVGID_12_" gradientUnits="userSpaceOnUse" x1="281.9326" y1="-63.7554" x2="331.9761" y2="-63.7554" gradientTransform="matrix(0.9907 0.136 -0.136 0.9907 -15.1628 242.3668)">
				<stop  offset="0" style="stop-color:#68D2FF"/>
				<stop  offset="1" style="stop-color:#2287D9"/>
			</linearGradient>
			<polygon class="st19" points="321.8,228.7 298,244.2 275.9,195.1 289.2,196.6 			"/>
			
				<linearGradient id="SVGID_13_" gradientUnits="userSpaceOnUse" x1="420.2989" y1="-37.2509" x2="392.7034" y2="-115.4385" gradientTransform="matrix(0.9907 0.136 -0.136 0.9907 -15.1628 242.3668)">
				<stop  offset="0" style="stop-color:#68D2FF"/>
				<stop  offset="1" style="stop-color:#2287D9"/>
			</linearGradient>
			<path class="st20" d="M500.7,243.2c-4.2,0.2-8.5,0.5-12.7,0.7c-10.5,0.6-21,1.2-31.6,1.8c-13.6,0.8-27.1,1.5-40.7,2.3
				c-13.4,0.8-26.8,1.5-40.1,2.3c-6.8,0.4-13.4,1.4-20.2,1.8c-4.1,0.2-8.4,0.3-12.5,0.5s-7.8-0.4-11.8-1.2c-9.4-1.9-18.7-4.5-28-6.9
				c-6.7-1.7-13.4-3.3-20.2-5l-0.3-5.5l41.7-5.5c7.6-0.4,15.3-0.9,22.9-1.3c17.5-1,34.9-2,52.4-3c19.1-1.1,38.2-2.2,57.3-3.3
				c12.7-0.7,25.5-1.4,38.2-2.2c9-0.5,19.9,5.5,23.6,13.8c1.1,2.4-5.8,6.1-7.6,7C507.9,241.5,504.3,242.5,500.7,243.2z"/>
			
				<linearGradient id="SVGID_14_" gradientUnits="userSpaceOnUse" x1="292.1125" y1="-48.6391" x2="325.6649" y2="-48.6391" gradientTransform="matrix(0.9907 0.136 -0.136 0.9907 -15.1628 242.3668)">
				<stop  offset="0" style="stop-color:#68D2FF"/>
				<stop  offset="1" style="stop-color:#2287D9"/>
			</linearGradient>
			<polygon class="st21" points="314.4,236.2 293.9,239 281,232.8 285.9,231.3 			"/>
			<g>
				<g>
					
						<linearGradient id="SVGID_15_" gradientUnits="userSpaceOnUse" x1="428.7533" y1="-50.4031" x2="443.9937" y2="-50.4031" gradientTransform="matrix(0.9907 0.136 -0.136 0.9907 -15.1628 242.3668)">
						<stop  offset="0" style="stop-color:#68D2FF"/>
						<stop  offset="1" style="stop-color:#2287D9"/>
					</linearGradient>
					<path class="st22" d="M429.1,246.8c-1.7-0.2-3.6-0.3-5.6-0.2c-2.4,0.1-4.7,0.6-6.6,1.2c-0.3,1.6-0.6,4.5,0.3,8.7
						c2,0.5,4.3,0.8,6.8,0.7c2-0.1,3.8-0.3,5.5-0.7c0.5-0.1,1.1-0.2,1.6-0.4l-0.4-9.2C430.2,247,429.7,246.9,429.1,246.8z"/>
					
						<linearGradient id="SVGID_16_" gradientUnits="userSpaceOnUse" x1="422.2748" y1="-49.0313" x2="430.5617" y2="-49.0313" gradientTransform="matrix(0.9907 0.136 -0.136 0.9907 -15.1628 242.3668)">
						<stop  offset="0" style="stop-color:#68D2FF"/>
						<stop  offset="1" style="stop-color:#2287D9"/>
					</linearGradient>
					<path class="st23" d="M417.2,247.9c-4.5,1.5-7.5,3.8-7.5,4.7s3.2,3,7.8,4C416.6,252.4,416.8,249.5,417.2,247.9z"/>
				</g>
				
					<linearGradient id="SVGID_17_" gradientUnits="userSpaceOnUse" x1="440.8625" y1="-51.2218" x2="444.1044" y2="-51.2218" gradientTransform="matrix(0.9907 0.136 -0.136 0.9907 -15.1628 242.3668)">
					<stop  offset="0" style="stop-color:#68D2FF"/>
					<stop  offset="1" style="stop-color:#2287D9"/>
				</linearGradient>
				<polygon class="st24" points="429.7,256.6 429.2,246.8 430.8,247.1 431.2,256.3 				"/>
			</g>
			
				<linearGradient id="SVGID_18_" gradientUnits="userSpaceOnUse" x1="430.8878" y1="-53.3603" x2="388.0625" y2="-57.3841" gradientTransform="matrix(0.9907 0.136 -0.136 0.9907 -15.1628 242.3668)">
				<stop  offset="0" style="stop-color:#68D2FF"/>
				<stop  offset="1" style="stop-color:#2287D9"/>
			</linearGradient>
			<polygon class="st25" points="428.2,242.5 418.5,241.2 360.1,240 371.3,244.7 397.4,247.3 429.6,244.1 			"/>
			<g>
				
					<linearGradient id="SVGID_19_" gradientUnits="userSpaceOnUse" x1="406.4985" y1="-46.2066" x2="408.1272" y2="-41.033" gradientTransform="matrix(0.9907 0.136 -0.136 0.9907 -15.1628 242.3668)">
					<stop  offset="0" style="stop-color:#68D2FF"/>
					<stop  offset="1" style="stop-color:#2287D9"/>
				</linearGradient>
				<path class="st26" d="M397.5,257.9c-0.2,1.5-1.6,2.5-3.1,2.3s-2.5-1.6-2.3-3.1s1.6-2.5,3.1-2.3S397.7,256.5,397.5,257.9z"/>
				
					<linearGradient id="SVGID_20_" gradientUnits="userSpaceOnUse" x1="406.5069" y1="-46.2092" x2="408.1357" y2="-41.0357" gradientTransform="matrix(0.9907 0.136 -0.136 0.9907 -15.1628 242.3668)">
					<stop  offset="0" style="stop-color:#68D2FF"/>
					<stop  offset="1" style="stop-color:#2287D9"/>
				</linearGradient>
				<path class="st27" d="M396.5,257.8c-0.1,0.9-1,1.6-1.9,1.5s-1.6-1-1.5-1.9s1-1.6,1.9-1.5C396,256,396.7,256.9,396.5,257.8z"/>
			</g>
			<g>
				
					<linearGradient id="SVGID_21_" gradientUnits="userSpaceOnUse" x1="498.0773" y1="-63.1813" x2="498.0773" y2="-60.8819" gradientTransform="matrix(0.9907 0.136 -0.136 0.9907 -15.1628 242.3668)">
					<stop  offset="0" style="stop-color:#68D2FF"/>
					<stop  offset="1" style="stop-color:#2287D9"/>
				</linearGradient>
				<path class="st28" d="M489,252.1c-0.2,1.5-1.6,2.5-3.1,2.3s-2.5-1.6-2.3-3.1s1.6-2.5,3.1-2.3C488.1,249.3,489.2,250.6,489,252.1
					z"/>
				
					<linearGradient id="SVGID_22_" gradientUnits="userSpaceOnUse" x1="498.0909" y1="-63.1813" x2="498.0909" y2="-60.8819" gradientTransform="matrix(0.9907 0.136 -0.136 0.9907 -15.1628 242.3668)">
					<stop  offset="0" style="stop-color:#68D2FF"/>
					<stop  offset="1" style="stop-color:#2287D9"/>
				</linearGradient>
				<path class="st29" d="M488,252c-0.1,0.9-1,1.6-1.9,1.5s-1.6-1-1.5-1.9s1-1.6,1.9-1.5C487.5,250.2,488.1,251,488,252z"/>
			</g>
			<g>
				
					<linearGradient id="SVGID_23_" gradientUnits="userSpaceOnUse" x1="400.3713" y1="-44.2778" x2="402" y2="-39.1043" gradientTransform="matrix(0.9907 0.136 -0.136 0.9907 -15.1628 242.3668)">
					<stop  offset="0" style="stop-color:#68D2FF"/>
					<stop  offset="1" style="stop-color:#2287D9"/>
				</linearGradient>
				<circle class="st30" cx="388.4" cy="258.2" r="2.7"/>
				
					<linearGradient id="SVGID_24_" gradientUnits="userSpaceOnUse" x1="400.3713" y1="-44.2779" x2="402" y2="-39.1043" gradientTransform="matrix(0.9907 0.136 -0.136 0.9907 -15.1628 242.3668)">
					<stop  offset="0" style="stop-color:#68D2FF"/>
					<stop  offset="1" style="stop-color:#2287D9"/>
				</linearGradient>
				<circle class="st31" cx="388.4" cy="258.2" r="1.7"/>
			</g>
			<g>
				<path class="st2" d="M499.4,225.2l-0.4,3.2c0,0,1.3,0.3,3.8,0.1l-0.5-3.3C501.4,225.2,500.5,225.2,499.4,225.2z"/>
				<path class="st2" d="M511.7,226.4l-3-2.1c0,0-0.4,0.2-1.3,0.3l1.2,3.1c0.9-0.2,1.9-0.4,2.9-0.6
					C511.9,227.1,512,226.6,511.7,226.4z"/>
				<path class="st2" d="M503.2,225.1l0.5,3.3c1.1-0.1,2.5-0.2,4.2-0.5l-1.2-3.1C506,224.9,504.8,225,503.2,225.1z"/>
			</g>
			<g>
				<path class="st2" d="M467.5,230.3L467.5,230.3c-0.6,0-1.2-0.4-1.2-1.1l-0.1-1c0-0.6,0.4-1.2,1.1-1.2l0,0c0.6,0,1.2,0.4,1.2,1.1
					l0.1,1C468.6,229.8,468.2,230.3,467.5,230.3z"/>
				<path class="st2" d="M461.4,230.7L461.4,230.7c-0.6,0-1.2-0.4-1.2-1.1l-0.1-1c0-0.6,0.4-1.2,1.1-1.2l0,0c0.6,0,1.2,0.4,1.2,1.1
					l0.1,1C462.5,230.2,462.1,230.7,461.4,230.7z"/>
				<path class="st2" d="M455.3,231.1L455.3,231.1c-0.6,0-1.2-0.4-1.2-1.1l-0.1-1c0-0.6,0.4-1.2,1.1-1.2l0,0c0.6,0,1.2,0.4,1.2,1.1
					l0.1,1C456.4,230.6,455.9,231.1,455.3,231.1z"/>
				<path class="st2" d="M449.2,231.5L449.2,231.5c-0.6,0-1.2-0.4-1.2-1.1l-0.1-1c0-0.6,0.4-1.2,1.1-1.2l0,0c0.6,0,1.2,0.4,1.2,1.1
					l0.1,1C450.3,231,449.8,231.5,449.2,231.5z"/>
				<path class="st2" d="M443.1,231.9L443.1,231.9c-0.6,0-1.2-0.4-1.2-1.1l-0.1-1c0-0.6,0.4-1.2,1.1-1.2l0,0c0.6,0,1.2,0.4,1.2,1.1
					l0.1,1C444.2,231.4,443.7,231.9,443.1,231.9z"/>
				<path class="st2" d="M437,232.3L437,232.3c-0.6,0-1.2-0.4-1.2-1.1l-0.1-1c0-0.6,0.4-1.2,1.1-1.2l0,0c0.6,0,1.2,0.4,1.2,1.1
					l0.1,1C438.1,231.8,437.6,232.3,437,232.3z"/>
				<path class="st2" d="M430.9,232.7L430.9,232.7c-0.6,0-1.2-0.4-1.2-1.1l-0.1-1c0-0.6,0.4-1.2,1.1-1.2l0,0c0.6,0,1.2,0.4,1.2,1.1
					l0.1,1C432,232.2,431.5,232.7,430.9,232.7z"/>
				<path class="st2" d="M424.8,233.1L424.8,233.1c-0.6,0-1.2-0.4-1.2-1.1l-0.1-1c0-0.6,0.4-1.2,1.1-1.2l0,0c0.6,0,1.2,0.4,1.2,1.1
					l0.1,1C425.9,232.6,425.4,233.1,424.8,233.1z"/>
				<path class="st2" d="M418.7,233.5L418.7,233.5c-0.6,0-1.2-0.4-1.2-1.1l-0.1-1c0-0.6,0.4-1.2,1.1-1.2l0,0c0.6,0,1.2,0.4,1.2,1.1
					l0.1,1C419.8,233,419.3,233.5,418.7,233.5z"/>
				<path class="st2" d="M412.6,233.9L412.6,233.9c-0.6,0-1.2-0.4-1.2-1.1l-0.1-1c0-0.6,0.4-1.2,1.1-1.2l0,0c0.6,0,1.2,0.4,1.2,1.1
					l0.1,1C413.7,233.4,413.2,233.9,412.6,233.9z"/>
				<path class="st2" d="M406.5,234.3L406.5,234.3c-0.6,0-1.2-0.4-1.2-1.1l-0.1-1c0-0.6,0.4-1.2,1.1-1.2l0,0c0.6,0,1.2,0.4,1.2,1.1
					l0.1,1C407.6,233.8,407.1,234.3,406.5,234.3z"/>
				<path class="st2" d="M400.4,234.7L400.4,234.7c-0.6,0-1.2-0.4-1.2-1.1l-0.1-1c0-0.6,0.4-1.2,1.1-1.2l0,0c0.6,0,1.2,0.4,1.2,1.1
					l0.1,1C401.5,234.2,401,234.7,400.4,234.7z"/>
				<path class="st2" d="M394.3,235.1L394.3,235.1c-0.6,0-1.2-0.4-1.2-1.1l-0.1-1c0-0.6,0.4-1.2,1.1-1.2l0,0c0.6,0,1.2,0.4,1.2,1.1
					l0.1,1C395.4,234.6,394.9,235.1,394.3,235.1z"/>
				<path class="st2" d="M388.2,235.5L388.2,235.5c-0.6,0-1.2-0.4-1.2-1.1l-0.1-1c0-0.6,0.4-1.2,1.1-1.2l0,0c0.6,0,1.2,0.4,1.2,1.1
					l0.1,1C389.3,235,388.8,235.5,388.2,235.5z"/>
				<path class="st2" d="M382.1,235.9L382.1,235.9c-0.6,0-1.2-0.4-1.2-1.1l-0.1-1c0-0.6,0.4-1.2,1.1-1.2l0,0c0.6,0,1.2,0.4,1.2,1.1
					l0.1,1C383.2,235.4,382.7,235.9,382.1,235.9z"/>
				<path class="st2" d="M375.9,236.3L375.9,236.3c-0.6,0-1.2-0.4-1.2-1.1l-0.1-1c0-0.6,0.4-1.2,1.1-1.2l0,0c0.6,0,1.2,0.4,1.2,1.1
					l0.1,1C377.1,235.8,376.6,236.3,375.9,236.3z"/>
				<path class="st2" d="M369.8,236.7L369.8,236.7c-0.6,0-1.2-0.4-1.2-1.1l-0.1-1c0-0.6,0.4-1.2,1.1-1.2l0,0c0.6,0,1.2,0.4,1.2,1.1
					l0.1,1C371,236.2,370.5,236.7,369.8,236.7z"/>
				<path class="st2" d="M363.7,237.1L363.7,237.1c-0.6,0-1.2-0.4-1.2-1.1l-0.1-1c0-0.6,0.4-1.2,1.1-1.2l0,0c0.6,0,1.2,0.4,1.2,1.1
					l0.1,1C364.9,236.6,364.4,237.1,363.7,237.1z"/>
				<path class="st2" d="M357.6,237.5L357.6,237.5c-0.6,0-1.2-0.4-1.2-1.1l-0.1-1c0-0.6,0.4-1.2,1.1-1.2l0,0c0.6,0,1.2,0.4,1.2,1.1
					l0.1,1C358.7,237,358.3,237.5,357.6,237.5z"/>
			</g>
		</g>
		<g>
			<g>
				<rect x="14.6" y="446.8" class="st32" width="223.5" height="111.5"/>
				<rect x="17.4" y="446.8" class="st2" width="1.6" height="111.5"/>
				<rect x="21.9" y="446.8" class="st2" width="1.6" height="111.5"/>
				<rect x="26.4" y="446.8" class="st2" width="1.6" height="111.5"/>
				<rect x="30.9" y="446.8" class="st2" width="1.6" height="111.5"/>
				<rect x="35.5" y="446.8" class="st2" width="1.6" height="111.5"/>
				<rect x="40" y="446.8" class="st2" width="1.6" height="111.5"/>
				<rect x="44.5" y="446.8" class="st2" width="1.6" height="111.5"/>
				<rect x="49" y="446.8" class="st2" width="1.6" height="111.5"/>
				<rect x="53.5" y="446.8" class="st2" width="1.6" height="111.5"/>
				<rect x="58" y="446.8" class="st2" width="1.6" height="111.5"/>
				<rect x="62.5" y="446.8" class="st2" width="1.6" height="111.5"/>
				<rect x="67" y="446.8" class="st2" width="1.6" height="111.5"/>
				<rect x="71.5" y="446.8" class="st2" width="1.6" height="111.5"/>
				<rect x="76" y="446.8" class="st2" width="1.6" height="111.5"/>
				<rect x="80.5" y="446.8" class="st2" width="1.6" height="111.5"/>
				<rect x="85" y="446.8" class="st2" width="1.6" height="111.5"/>
				<rect x="89.6" y="446.8" class="st2" width="1.6" height="111.5"/>
				<rect x="94.1" y="446.8" class="st2" width="1.6" height="111.5"/>
				<rect x="98.6" y="446.8" class="st2" width="1.6" height="111.5"/>
				<rect x="103.1" y="446.8" class="st2" width="1.6" height="111.5"/>
				<rect x="107.6" y="446.8" class="st2" width="1.6" height="111.5"/>
				<rect x="112.1" y="446.8" class="st2" width="1.6" height="111.5"/>
				<rect x="116.6" y="446.8" class="st2" width="1.6" height="111.5"/>
				<rect x="121.1" y="446.8" class="st2" width="1.6" height="111.5"/>
				<rect x="125.6" y="446.8" class="st2" width="1.6" height="111.5"/>
				<rect x="130.1" y="446.8" class="st2" width="1.6" height="111.5"/>
				<rect x="134.6" y="446.8" class="st2" width="1.6" height="111.5"/>
				<rect x="139.2" y="446.8" class="st2" width="1.6" height="111.5"/>
				<rect x="143.7" y="446.8" class="st2" width="1.6" height="111.5"/>
				<rect x="148.2" y="446.8" class="st2" width="1.6" height="111.5"/>
				<rect x="152.7" y="446.8" class="st2" width="1.6" height="111.5"/>
				<rect x="157.2" y="446.8" class="st2" width="1.6" height="111.5"/>
				<rect x="161.7" y="446.8" class="st2" width="1.6" height="111.5"/>
				<rect x="166.2" y="446.8" class="st2" width="1.6" height="111.5"/>
				<rect x="170.7" y="446.8" class="st2" width="1.6" height="111.5"/>
				<rect x="175.2" y="446.8" class="st2" width="1.6" height="111.5"/>
				<rect x="179.7" y="446.8" class="st2" width="1.6" height="111.5"/>
				<rect x="184.2" y="446.8" class="st2" width="1.6" height="111.5"/>
				<rect x="188.7" y="446.8" class="st2" width="1.6" height="111.5"/>
				<rect x="193.3" y="446.8" class="st2" width="1.6" height="111.5"/>
				<rect x="197.8" y="446.8" class="st2" width="1.6" height="111.5"/>
				<rect x="202.3" y="446.8" class="st2" width="1.6" height="111.5"/>
				<rect x="206.8" y="446.8" class="st2" width="1.6" height="111.5"/>
				<rect x="211.3" y="446.8" class="st2" width="1.6" height="111.5"/>
				<rect x="215.8" y="446.8" class="st2" width="1.6" height="111.5"/>
				<rect x="220.3" y="446.8" class="st2" width="1.6" height="111.5"/>
				<rect x="224.8" y="446.8" class="st2" width="1.6" height="111.5"/>
				<rect x="229.3" y="446.8" class="st2" width="1.6" height="111.5"/>
				<rect x="233.8" y="446.8" class="st2" width="1.6" height="111.5"/>
				<rect x="13.5" y="446.8" class="st33" width="223.5" height="111.5"/>
			</g>
			<g>
				<g>
					<path class="st34" d="M238.1,591.3L238.1,591.3v-12.6h3.9v8.7C242,589.5,240.3,591.3,238.1,591.3z"/>
					<g>
						
							<linearGradient id="SVGID_25_" gradientUnits="userSpaceOnUse" x1="14.7175" y1="215.45" x2="238.1175" y2="215.45" gradientTransform="matrix(1 0 0 1 0 352)">
							<stop  offset="0" style="stop-color:#68D2FF"/>
							<stop  offset="1" style="stop-color:#2287D9"/>
						</linearGradient>
						<path class="st35" d="M238.1,558.3v18.3H126.3c-0.7-4.1-2.6-7.7-5.4-10.5c-3.5-3.5-8.3-5.7-13.7-5.7c-9.6,0-17.6,7-19.1,16.2
							H14.7v-18.3H238.1z"/>
						
							<linearGradient id="SVGID_26_" gradientUnits="userSpaceOnUse" x1="126.3175" y1="226.85" x2="238.1175" y2="226.85" gradientTransform="matrix(1 0 0 1 0 352)">
							<stop  offset="0" style="stop-color:#68D2FF"/>
							<stop  offset="1" style="stop-color:#2287D9"/>
						</linearGradient>
						<path class="st36" d="M238.1,576.6v4.5H126.6v-1.3c0-1.1-0.1-2.2-0.3-3.2H238.1z"/>
						
							<linearGradient id="SVGID_27_" gradientUnits="userSpaceOnUse" x1="238.1174" y1="183" x2="307.145" y2="183" gradientTransform="matrix(1 0 0 1 0 352)">
							<stop  offset="0" style="stop-color:#68D2FF"/>
							<stop  offset="1" style="stop-color:#2287D9"/>
						</linearGradient>
						<path class="st37" d="M284.8,495.8l-46.7-4.9V555v24.1h3.8v-0.2c0-10.3,8.4-18.7,18.7-18.7l0,0c10.3,0,18.7,8.4,18.7,18.7v0.2
							h27.9v-48.5L284.8,495.8z"/>
						
							<linearGradient id="SVGID_28_" gradientUnits="userSpaceOnUse" x1="303.3288" y1="201.85" x2="307.1636" y2="201.85" gradientTransform="matrix(1 0 0 1 0 352)">
							<stop  offset="0" style="stop-color:#FFC572"/>
							<stop  offset="1" style="stop-color:#FF4EB3"/>
						</linearGradient>
						<rect x="303.3" y="549.4" class="st38" width="3.8" height="8.9"/>
						
							<linearGradient id="SVGID_29_" gradientUnits="userSpaceOnUse" x1="275.7573" y1="197.4852" x2="274.9729" y2="159.8338" gradientTransform="matrix(1 0 0 1 0 352)">
							<stop  offset="0" style="stop-color:#D2DFEF"/>
							<stop  offset="0.3567" style="stop-color:#D9E3F0"/>
							<stop  offset="0.8722" style="stop-color:#ECEFF1"/>
							<stop  offset="1" style="stop-color:#F2F2F2"/>
						</linearGradient>
						<path class="st39" d="M249.1,515.9v-14c0-1.9,1.7-3.4,3.6-3.2l25.8,2.9c1.7,0.2,3.3,1.1,4.3,2.6l18.5,27h-21.4l-27.7-11
							C250.3,519.6,249.1,517.9,249.1,515.9z"/>
						
							<linearGradient id="SVGID_30_" gradientUnits="userSpaceOnUse" x1="248.1175" y1="180.6" x2="260.6681" y2="180.6" gradientTransform="matrix(1 0 0 1 0 352)">
							<stop  offset="0" style="stop-color:#FFC572"/>
							<stop  offset="1" style="stop-color:#FF4EB3"/>
						</linearGradient>
						<rect x="248.1" y="531.9" class="st40" width="12.6" height="1.4"/>
						<polygon class="st34" points="279.5,556.7 238,556.7 238,555.8 278.7,555.8 278.7,531.3 279.5,531.3 						"/>
						
							<rect x="278.9" y="498.7" transform="matrix(0.5098 -0.8603 0.8603 0.5098 -290.7544 487.9753)" class="st34" width="7.9" height="0.8"/>
					</g>
					
						<linearGradient id="SVGID_31_" gradientUnits="userSpaceOnUse" x1="14.7175" y1="226.85" x2="88.2175" y2="226.85" gradientTransform="matrix(1 0 0 1 0 352)">
						<stop  offset="0" style="stop-color:#68D2FF"/>
						<stop  offset="1" style="stop-color:#2287D9"/>
					</linearGradient>
					<path class="st41" d="M14.7,576.6h73.5c-0.2,1-0.3,2.1-0.3,3.2v1.3H14.7V576.6z"/>
				</g>
				<g>
					<ellipse class="st34" cx="107" cy="579.1" rx="15.6" ry="15.6"/>
					
						<linearGradient id="SVGID_32_" gradientUnits="userSpaceOnUse" x1="98.8603" y1="227.1" x2="115.1586" y2="227.1" gradientTransform="matrix(1 0 0 1 0 352)">
						<stop  offset="0" style="stop-color:#60A1E3"/>
						<stop  offset="1" style="stop-color:#5D5FD0"/>
					</linearGradient>
					<circle class="st42" cx="107" cy="579.1" r="8.1"/>
					<path class="st34" d="M110,579.1c0,1.6-1.3,3-3,3s-3-1.3-3-3s1.3-3,3-3S110,577.4,110,579.1z"/>
				</g>
				<g>
					<ellipse class="st34" cx="260.8" cy="579.1" rx="15.6" ry="15.6"/>
					
						<linearGradient id="SVGID_33_" gradientUnits="userSpaceOnUse" x1="252.6764" y1="227.1" x2="268.9748" y2="227.1" gradientTransform="matrix(1 0 0 1 0 352)">
						<stop  offset="0" style="stop-color:#60A1E3"/>
						<stop  offset="1" style="stop-color:#5D5FD0"/>
					</linearGradient>
					<circle class="st43" cx="260.8" cy="579.1" r="8.1"/>
					<circle class="st34" cx="260.8" cy="578.6" r="3"/>
				</g>
			</g>
		</g>
		<g>
			
				<rect x="135.8" y="222.5" transform="matrix(0.9901 -0.1405 0.1405 0.9901 -31.1028 21.4305)" class="st34" width="0.8" height="16.9"/>
			
				<rect x="116.6" y="230.6" transform="matrix(0.1407 -0.9901 0.9901 0.1407 -121.2429 322.2926)" class="st34" width="16.9" height="0.8"/>
			<rect x="129.9" y="222.6" class="st34" width="0.8" height="16.7"/>
			
				<linearGradient id="SVGID_34_" gradientUnits="userSpaceOnUse" x1="119.174" y1="-108.1109" x2="141.0066" y2="-108.1109" gradientTransform="matrix(1 0 0 1 0 352)">
				<stop  offset="0" style="stop-color:#FFC572"/>
				<stop  offset="1" style="stop-color:#FF4EB3"/>
			</linearGradient>
			<rect x="119.2" y="237.1" class="st44" width="21.8" height="13.5"/>
			<g>
				<rect x="129" y="237.1" class="st45" width="2.4" height="13.5"/>
			</g>
			<g>
				<rect x="119.2" y="242.6" class="st45" width="21.8" height="2.4"/>
			</g>
			<g>
				<g>
					
						<linearGradient id="XMLID_4_" gradientUnits="userSpaceOnUse" x1="104.2961" y1="-159.8609" x2="156.0961" y2="-159.8609" gradientTransform="matrix(1 0 0 1 0 352)">
						<stop  offset="0" style="stop-color:#68D2FF"/>
						<stop  offset="1" style="stop-color:#2287D9"/>
					</linearGradient>
					<path id="XMLID_51_" class="st46" d="M156,188.4c0-14.1-11.6-25.5-25.9-25.5s-25.9,11.4-25.9,25.5c0,1.9,0.2,3.7,0.6,5.4
						c0.9,1.6,1.1,3.9,2,5.6c0.9,1.9,2,3.6,3.4,5.2c4.6,5.5,9.1,10.6,13,16.7h14.1c0.9,0,4.2-5.8,4.8-6.7
						C148,206.1,156,199.6,156,188.4z"/>
				</g>
				<g>
					<g>
						<defs>
							<path id="SVGID_35_" d="M156,188.4c0-14.1-11.6-25.5-25.9-25.5s-25.9,11.4-25.9,25.5c0,1.9,0.2,3.7,0.6,5.4
								c0.9,1.6,1.1,3.9,2,5.6c0.9,1.9,2,3.6,3.4,5.2c4.6,5.5,9.1,10.6,13,16.7h14.1c0.9,0,4.2-5.8,4.8-6.7
								C148,206.1,156,199.6,156,188.4z"/>
						</defs>
						<clipPath id="SVGID_36_">
							<use xlink:href="#SVGID_35_"  style="overflow:visible;"/>
						</clipPath>
						<path class="st47" d="M124.7,159.4c-7.9,4.8-11.7,14-13,22.8c-0.7,4.9-0.4,9.8,1,14.5c1.3,4.6,3.4,9,5.6,13.2
							c2.6,4.8,5.4,9.6,7.8,14.5c0.6,1.2,2.3,0.2,1.8-1c-3.9-8.4-9.5-16.1-12.5-25c-1.5-4.4-2.3-9-1.9-13.6
							c0.3-4.3,1.4-8.7,3.1-12.6c2-4.5,4.9-8.5,9.2-11C126.9,160.5,125.9,158.8,124.7,159.4L124.7,159.4z"/>
					</g>
				</g>
				<g>
					<g>
						<defs>
							<path id="SVGID_37_" d="M156,188.4c0-14.1-11.6-25.5-25.9-25.5s-25.9,11.4-25.9,25.5c0,1.9,0.2,3.7,0.6,5.4
								c0.9,1.6,1.1,3.9,2,5.6c0.9,1.9,2,3.6,3.4,5.2c4.6,5.5,9.1,10.6,13,16.7h14.1c0.9,0,4.2-5.8,4.8-6.7
								C148,206.1,156,199.6,156,188.4z"/>
						</defs>
						<clipPath id="SVGID_38_">
							<use xlink:href="#SVGID_37_"  style="overflow:visible;"/>
						</clipPath>
						<path class="st48" d="M129.2,155.4c-4.3,7.7-7,16.5-7.9,25.4c-0.4,4.3-0.4,8.7,0.5,13c0.9,4.5,2.6,8.8,3.9,13.1
							c1.5,4.7,2.7,9.7,1.9,14.6c-0.1,0.5,0.1,1.1,0.7,1.3c0.5,0.1,1.2-0.2,1.3-0.7c1.3-9-2.8-17.4-5.1-25.9
							c-1.2-4.3-1.6-8.5-1.4-12.9s1.1-8.8,2.3-13.1c1.3-4.8,3.2-9.4,5.6-13.7C131.6,155.3,129.8,154.3,129.2,155.4L129.2,155.4z"/>
					</g>
				</g>
				<g>
					<g>
						<defs>
							<path id="SVGID_39_" d="M156,188.4c0-14.1-11.6-25.5-25.9-25.5s-25.9,11.4-25.9,25.5c0,1.9,0.2,3.7,0.6,5.4
								c0.9,1.6,1.1,3.9,2,5.6c0.9,1.9,2,3.6,3.4,5.2c4.6,5.5,9.1,10.6,13,16.7h14.1c0.9,0,4.2-5.8,4.8-6.7
								C148,206.1,156,199.6,156,188.4z"/>
						</defs>
						<clipPath id="SVGID_40_">
							<use xlink:href="#SVGID_39_"  style="overflow:visible;"/>
						</clipPath>
						<path class="st49" d="M127.6,163.4c2.3,3.7,4.7,7.4,6.3,11.4c1.5,3.7,2.2,7.7,2.4,11.7c0.1,3.8-0.1,7.6-0.4,11.4
							c-0.4,4.2-0.9,8.4-1.7,12.5c-0.8,4-1.7,8.1-3.7,11.7c-0.6,1.1,1.1,2.2,1.8,1c1.8-3.2,2.8-6.9,3.5-10.4c0.9-4.3,1.6-8.7,2-13.1
							c0.8-8,1.4-16.5-1.4-24.1c-1.7-4.7-4.4-8.9-7-13.1C128.7,161.3,126.9,162.3,127.6,163.4L127.6,163.4z"/>
					</g>
				</g>
				<g>
					<g>
						<defs>
							<path id="SVGID_41_" d="M156,188.4c0-14.1-11.6-25.5-25.9-25.5s-25.9,11.4-25.9,25.5c0,1.9,0.2,3.7,0.6,5.4
								c0.9,1.6,1.1,3.9,2,5.6c0.9,1.9,2,3.6,3.4,5.2c4.6,5.5,9.1,10.6,13,16.7h14.1c0.9,0,4.2-5.8,4.8-6.7
								C148,206.1,156,199.6,156,188.4z"/>
						</defs>
						<clipPath id="SVGID_42_">
							<use xlink:href="#SVGID_41_"  style="overflow:visible;"/>
						</clipPath>
						<path class="st50" d="M129.6,160c7.1,4,13.8,10.2,16.7,18c1.6,4.2,1.9,8.9,1.4,13.4c-0.7,5.2-2.5,10.4-4.9,15
							c-2.8,5.4-6.4,10.2-9.7,15.3c-0.7,1.1,1.1,2.1,1.8,1c3-4.7,6.3-9.3,9-14.2c2.7-4.8,4.6-10.1,5.5-15.5
							c0.8-4.9,0.7-10.1-0.9-14.8c-1.1-3.5-3.1-6.6-5.4-9.5c-3.4-4.3-7.8-7.9-12.6-10.6C129.4,157.6,128.4,159.3,129.6,160
							L129.6,160z"/>
					</g>
				</g>
			</g>
			
				<linearGradient id="SVGID_43_" gradientUnits="userSpaceOnUse" x1="123.1831" y1="-129.3609" x2="137.3678" y2="-129.3609" gradientTransform="matrix(1 0 0 1 0 352)">
				<stop  offset="0" style="stop-color:#68D2FF"/>
				<stop  offset="1" style="stop-color:#2287D9"/>
			</linearGradient>
			<rect x="123.2" y="221.3" class="st51" width="14.2" height="2.6"/>
		</g>
		<g>
			
				<linearGradient id="SVGID_44_" gradientUnits="userSpaceOnUse" x1="547.9508" y1="-221.7821" x2="572.7094" y2="-221.7821" gradientTransform="matrix(1 0 0 1 0 352)">
				<stop  offset="0" style="stop-color:#68D2FF"/>
				<stop  offset="1" style="stop-color:#2287D9"/>
			</linearGradient>
			<polygon class="st52" points="547.9,131.3 560.7,124.2 572.7,127.1 571.3,131.3 560.3,128.7 547.9,136.3 			"/>
			
				<linearGradient id="SVGID_45_" gradientUnits="userSpaceOnUse" x1="512.774" y1="-227.8321" x2="533.7574" y2="-227.8321" gradientTransform="matrix(1 0 0 1 0 352)">
				<stop  offset="0" style="stop-color:#68D2FF"/>
				<stop  offset="1" style="stop-color:#2287D9"/>
			</linearGradient>
			<polygon class="st53" points="533.7,129.2 525.3,117.3 513.3,114.6 512.8,119.1 523.8,121.5 531.5,133.8 			"/>
			<g>
				
					<linearGradient id="SVGID_46_" gradientUnits="userSpaceOnUse" x1="517.8066" y1="-237.5321" x2="522.2142" y2="-237.5321" gradientTransform="matrix(1 0 0 1 0 352)">
					<stop  offset="0" style="stop-color:#68D2FF"/>
					<stop  offset="1" style="stop-color:#2287D9"/>
				</linearGradient>
				<polygon class="st54" points="521.4,116.4 517.8,116 518.7,112.6 522.2,113.5 				"/>
				<path class="st2" d="M534.8,115.6c-0.1,0.6-6.9-0.4-15.1-2.3c-8.2-1.9-14.7-3.9-14.6-4.6c0.1-0.6,6.9,0.4,15.1,2.3
					C528.4,112.9,534.9,115,534.8,115.6z"/>
			</g>
			<g>
				
					<linearGradient id="SVGID_47_" gradientUnits="userSpaceOnUse" x1="566.1167" y1="-227.6321" x2="570.5839" y2="-227.6321" gradientTransform="matrix(1 0 0 1 0 352)">
					<stop  offset="0" style="stop-color:#68D2FF"/>
					<stop  offset="1" style="stop-color:#2287D9"/>
				</linearGradient>
				<polygon class="st55" points="569.6,126.6 566.1,125.8 567.1,122.2 570.6,123.1 				"/>
				<path class="st2" d="M583.2,125.2c-0.1,0.6-6.9-0.4-15.1-2.3s-14.7-3.9-14.6-4.6c0.1-0.6,6.9,0.4,15.1,2.3
					S583.3,124.6,583.2,125.2z"/>
			</g>
			<path class="st56" d="M544.9,131.2l-10.3-2l0.1-0.6c0.6-2.8,3.3-4.7,6.1-4.1l0,0c2.8,0.6,4.7,3.3,4.1,6.1L544.9,131.2z"/>
			
				<rect x="550.7" y="134" transform="matrix(0.9121 -0.4101 0.4101 0.9121 -8.583 238.2618)" class="st34" width="1" height="10.2"/>
			
				<rect x="535.9" y="137.9" transform="matrix(0.198 -0.9802 0.9802 0.198 296.7921 639.5388)" class="st34" width="6.7" height="1"/>
			
				<rect x="522.4" y="136.3" transform="matrix(0.5245 -0.8514 0.8514 0.5245 133.8289 513.1786)" class="st34" width="7.9" height="1"/>
			
				<linearGradient id="SVGID_48_" gradientUnits="userSpaceOnUse" x1="510.9121" y1="-194.4821" x2="559.1121" y2="-194.4821" gradientTransform="matrix(1 0 0 1 0 352)">
				<stop  offset="0" style="stop-color:#FFC572"/>
				<stop  offset="1" style="stop-color:#FF4EB3"/>
			</linearGradient>
			<polygon class="st57" points="552.2,179.3 510.9,171.2 517.8,135.8 559.1,143.8 			"/>
			<g>
				
					<rect x="533.5" y="136.5" transform="matrix(0.1898 -0.9818 0.9818 0.1898 278.8503 652.8813)" class="st45" width="3" height="42"/>
			</g>
			<g>
				
					<rect x="517.1" y="156" transform="matrix(0.2136 -0.9769 0.9769 0.2136 266.9299 646.6693)" class="st45" width="36.1" height="3"/>
			</g>
			
				<linearGradient id="SVGID_49_" gradientUnits="userSpaceOnUse" x1="527.712" y1="-219.3821" x2="551.9502" y2="-219.3821" gradientTransform="matrix(1 0 0 1 0 352)">
				<stop  offset="0" style="stop-color:#68D2FF"/>
				<stop  offset="1" style="stop-color:#2287D9"/>
			</linearGradient>
			<polygon class="st58" points="550.9,137.7 527.7,133.2 528.8,127.6 552,132.1 			"/>
		</g>
		<g>
			<g>
				<g>
					<polygon class="st59" points="554.1,533.1 555,524.5 555.7,524.5 554.8,533.1 					"/>
					<g>
						<path class="st34" d="M556.6,531.8c0.5-0.2,4.8,0.1,4.8,0.1l-0.2,8l-1.6,0.7l-4.4-1.8L556.6,531.8z"/>
						<path class="st2" d="M562,535.6c0,2.3-0.5,4.2-0.8,4.3s-0.6-1.6-0.7-3.8c0-2.3,0.5-4.1,0.8-4.1
							C561.7,531.9,562,533.3,562,535.6z"/>
					</g>
					<path class="st60" d="M470.7,556.6l-5.5,0.1v-0.1c0-2.7,2.1-4.9,4.8-4.9h0.7V556.6z"/>
					<polygon class="st61" points="475.8,553.6 474.8,546.6 483.7,546.5 492.6,552.3 494.4,556.2 475.6,556.5 					"/>
					<g>
						<g>
							<g>
								<path class="st62" d="M574.3,590.8c-0.1,0-0.1,0-0.2,0c-0.2-0.1-0.3-0.3-0.2-0.6l7.3-18.2c0.1-0.2,0.3-0.3,0.6-0.2
									c0.2,0.1,0.3,0.3,0.2,0.6l-7.3,18.2C574.6,590.7,574.5,590.8,574.3,590.8z"/>
								<path class="st62" d="M587.1,585.3c-0.1,0-0.1,0-0.2,0l-18.2-7.3c-0.2-0.1-0.3-0.3-0.2-0.6c0.1-0.2,0.3-0.3,0.6-0.2
									l18.2,7.3c0.2,0.1,0.3,0.3,0.2,0.6C587.4,585.2,587.2,585.3,587.1,585.3z"/>
							</g>
							<g>
								<path class="st62" d="M581.6,590.8c-0.2,0-0.3-0.1-0.4-0.3l-7.2-18.3c-0.1-0.2,0-0.5,0.2-0.6s0.5,0,0.6,0.2l7.2,18.3
									c0.1,0.2,0,0.5-0.2,0.6C581.7,590.8,581.6,590.8,581.6,590.8z"/>
								<path class="st62" d="M568.8,585.2c-0.2,0-0.3-0.1-0.4-0.3c-0.1-0.2,0-0.5,0.2-0.6l18.3-7.2c0.2-0.1,0.5,0,0.6,0.2
									c0.1,0.2,0,0.5-0.2,0.6l-18.3,7.2C568.9,585.2,568.9,585.2,568.8,585.2z"/>
							</g>
							<g>
								<path class="st62" d="M585,588.5c-0.1,0-0.2,0-0.3-0.1l-14.1-13.7c-0.2-0.2-0.2-0.4,0-0.6c0.2-0.2,0.4-0.2,0.6,0l14.1,13.7
									c0.2,0.2,0.2,0.4,0,0.6C585.2,588.4,585.1,588.5,585,588.5z"/>
								<path class="st62" d="M571.1,588.7c-0.1,0-0.2,0-0.3-0.1c-0.2-0.2-0.2-0.4,0-0.6l13.7-14.1c0.2-0.2,0.4-0.2,0.6,0
									s0.2,0.4,0,0.6l-13.7,14.1C571.3,588.6,571.2,588.7,571.1,588.7z"/>
							</g>
							<g>
								<path class="st62" d="M568.1,581.8c-0.2,0-0.4-0.2-0.4-0.4s0.2-0.4,0.4-0.4l19.6-0.3l0,0c0.2,0,0.4,0.2,0.4,0.4
									s-0.2,0.4-0.4,0.4L568.1,581.8L568.1,581.8z"/>
								<path class="st62" d="M578.1,591.5c-0.2,0-0.4-0.2-0.4-0.4l-0.3-19.6c0-0.2,0.2-0.4,0.4-0.4c0.3,0,0.4,0.2,0.4,0.4l0.3,19.6
									C578.5,591.3,578.4,591.5,578.1,591.5L578.1,591.5z"/>
							</g>
						</g>
						
							<linearGradient id="SVGID_50_" gradientUnits="userSpaceOnUse" x1="573.895" y1="229.2" x2="582.1212" y2="229.2" gradientTransform="matrix(1 0 0 1 0 352)">
							<stop  offset="0" style="stop-color:#60A1E3"/>
							<stop  offset="1" style="stop-color:#5D5FD0"/>
						</linearGradient>
						<circle class="st63" cx="578" cy="581.2" r="4.1"/>
						<path class="st34" d="M579.7,581.2c0,1-0.8,1.8-1.8,1.8s-1.8-0.8-1.8-1.8s0.8-1.8,1.8-1.8S579.7,580.2,579.7,581.2z"/>
						<g id="XMLID_2_">
							<path class="st34" d="M577.7,566.7c8-0.1,14.6,6.3,14.7,14.3c0.1,8-6.3,14.6-14.3,14.7c-8,0.1-14.6-6.3-14.7-14.3
								C563.3,573.4,569.7,566.8,577.7,566.7z M587.8,581.1c-0.1-5.4-4.5-9.8-10-9.7c-5.4,0.1-9.8,4.5-9.7,10
								c0.1,5.4,4.5,9.8,10,9.7C583.5,591,587.9,586.5,587.8,581.1z"/>
						</g>
					</g>
					<path class="st61" d="M486.9,550.9l-16.2,0.7c0,0-8.4,4.7-13,21.5l1.7-0.2c0,0,2.2-13.1,11.4-19.3l21.1-0.3L486.9,550.9z"/>
					<g>
						<g>
							<g>
								<path class="st62" d="M479.6,590.4c-0.1,0-0.1,0-0.2,0c-0.2-0.1-0.3-0.3-0.2-0.6l7.3-18.2c0.1-0.2,0.3-0.3,0.6-0.2
									c0.2,0.1,0.3,0.3,0.2,0.6l-7.3,18.2C479.9,590.3,479.8,590.4,479.6,590.4z"/>
								<path class="st62" d="M492.4,584.9c-0.1,0-0.1,0-0.2,0l-18.2-7.3c-0.2-0.1-0.3-0.3-0.2-0.6c0.1-0.2,0.3-0.3,0.6-0.2
									l18.2,7.3c0.2,0.1,0.3,0.3,0.2,0.6C492.7,584.8,492.6,584.9,492.4,584.9z"/>
							</g>
							<g>
								<path class="st62" d="M486.9,590.4c-0.2,0-0.3-0.1-0.4-0.3l-7.2-18.3c-0.1-0.2,0-0.5,0.2-0.6s0.5,0,0.6,0.2l7.2,18.3
									c0.1,0.2,0,0.5-0.2,0.6C487,590.4,486.9,590.4,486.9,590.4z"/>
								<path class="st62" d="M474.1,584.9c-0.2,0-0.3-0.1-0.4-0.3s0-0.5,0.2-0.6l18.3-7.2c0.2-0.1,0.5,0,0.6,0.2s0,0.5-0.2,0.6
									l-18.3,7.2C474.2,584.9,474.2,584.9,474.1,584.9z"/>
							</g>
							<g>
								<path class="st62" d="M490.3,588.1c-0.1,0-0.2,0-0.3-0.1l-14.1-13.7c-0.2-0.2-0.2-0.4,0-0.6c0.2-0.2,0.4-0.2,0.6,0
									l14.1,13.7c0.2,0.2,0.2,0.4,0,0.6C490.5,588.1,490.4,588.1,490.3,588.1z"/>
								<path class="st62" d="M476.4,588.3c-0.1,0-0.2,0-0.3-0.1c-0.2-0.2-0.2-0.4,0-0.6l13.7-14.1c0.2-0.2,0.4-0.2,0.6,0
									s0.2,0.4,0,0.6l-13.7,14.1C476.7,588.3,476.5,588.3,476.4,588.3z"/>
							</g>
							<g>
								<path class="st62" d="M473.5,581.4c-0.2,0-0.4-0.2-0.4-0.4s0.2-0.4,0.4-0.4l19.6-0.3c0.2,0,0.4,0.2,0.4,0.4
									s-0.2,0.4-0.4,0.4L473.5,581.4L473.5,581.4z"/>
								<path class="st62" d="M483.4,591.1c-0.2,0-0.4-0.2-0.4-0.4l-0.3-19.6c0-0.2,0.2-0.4,0.4-0.4c0.2,0,0.4,0.2,0.4,0.4l0.3,19.6
									C483.9,590.9,483.7,591.1,483.4,591.1L483.4,591.1z"/>
							</g>
						</g>
						
							<linearGradient id="SVGID_51_" gradientUnits="userSpaceOnUse" x1="479.2027" y1="228.8" x2="487.4288" y2="228.8" gradientTransform="matrix(1 0 0 1 0 352)">
							<stop  offset="0" style="stop-color:#60A1E3"/>
							<stop  offset="1" style="stop-color:#5D5FD0"/>
						</linearGradient>
						<circle class="st64" cx="483.3" cy="580.8" r="4.1"/>
						<circle class="st34" cx="483.3" cy="580.8" r="1.8"/>
						<g id="XMLID_1_">
							<g>
								<path class="st34" d="M483.1,566.3c8-0.1,14.6,6.3,14.7,14.3s-6.3,14.6-14.3,14.7c-8,0.1-14.6-6.3-14.7-14.3
									S475.1,566.5,483.1,566.3z M493.1,580.7c-0.1-5.4-4.5-9.8-10-9.7c-5.4,0.1-9.8,4.5-9.7,10c0.1,5.4,4.5,9.8,10,9.7
									C488.8,590.6,493.2,586.1,493.1,580.7z"/>
							</g>
						</g>
					</g>
					<g>
						<path class="st65" d="M503.6,561.5c-6.3-7.5-19.3-5.2-30.2-5.1c-4.3,0-8,3.1-10.9,6.8c-0.7,1.4-1.3,3-1.8,4.8
							c0,1.4,2.3,4.2,5.5,3c0,0,17.2-9.4,30.4,5.6l1.1,5.2l11.1,0.8C508.8,577.2,508.1,566.9,503.6,561.5z"/>
						
							<linearGradient id="SVGID_52_" gradientUnits="userSpaceOnUse" x1="462.6494" y1="215.95" x2="529.6494" y2="215.95" gradientTransform="matrix(1 0 0 1 0 352)">
							<stop  offset="0" style="stop-color:#FF31C4"/>
							<stop  offset="1" style="stop-color:#9A2E9E"/>
						</linearGradient>
						<path class="st66" d="M529.6,580.2l-5-5.3l-5.3-11.1c0,0-0.8-7.7,2.4-10.9l-21.3,0.3l-29.7,0.4c0,0-4.7,2.7-8.1,9.6
							c2.9-3.7,6.6-6.8,10.9-6.8c10.9-0.1,23.9-2.5,30.2,5.1c4.5,5.4,5.2,15.7,5.2,21.2l3.6,0.3L529.6,580.2z"/>
					</g>
					
						<linearGradient id="SVGID_53_" gradientUnits="userSpaceOnUse" x1="459.3494" y1="180.7" x2="485.2764" y2="180.7" gradientTransform="matrix(1 0 0 1 0 352)">
						<stop  offset="0" style="stop-color:#FFC572"/>
						<stop  offset="1" style="stop-color:#FF4EB3"/>
					</linearGradient>
					<polygon class="st67" points="485.2,544.2 459.7,544.5 459.3,521.3 484.9,520.9 					"/>
					
						<rect x="462.6" y="545" transform="matrix(0.9999 -1.472830e-02 1.472830e-02 0.9999 -7.9882 7.0279)" class="st68" width="21.2" height="1.7"/>
					
						<linearGradient id="SVGID_54_" gradientUnits="userSpaceOnUse" x1="451.7225" y1="170.2911" x2="477.3708" y2="170.5528" gradientTransform="matrix(1 0 0 1 0 352)">
						<stop  offset="0" style="stop-color:#FFC572"/>
						<stop  offset="0.1481" style="stop-color:#FFBC77"/>
						<stop  offset="0.3869" style="stop-color:#FFA584"/>
						<stop  offset="0.6865" style="stop-color:#FF7E99"/>
						<stop  offset="1" style="stop-color:#FF4EB3"/>
					</linearGradient>
					<polygon class="st69" points="484.9,523.7 459.4,524.1 459.3,521.3 484.9,520.9 					"/>
					
						<rect x="471.9" y="545.8" transform="matrix(0.9999 -1.473317e-02 1.473317e-02 0.9999 -8.069 7.0235)" class="st34" width="1.6" height="10.7"/>
					<path class="st65" d="M561.5,579.7c0,0,4.9-11.3,26.1-13.5c0,0-7.3-9.3-24.3-3.5C563.3,562.7,557.4,574.2,561.5,579.7z"/>
					<polygon class="st70" points="573.6,569.5 578.7,581.4 577.7,581.8 572,568.3 572.9,567.7 					"/>
					<path class="st34" d="M570.7,559.5l3.7,8.9l-3,1.3l-3.8-9.7C567.6,560,569,558.8,570.7,559.5z"/>
					<path class="st34" d="M574,558.9l0.4-1.3c0,0-6.5-12-14.7-17.1l-1.2,1L574,558.9z"/>
					
						<linearGradient id="SVGID_55_" gradientUnits="userSpaceOnUse" x1="508.5217" y1="206.5999" x2="574.0494" y2="206.5999" gradientTransform="matrix(1 0 0 1 0 352)">
						<stop  offset="0" style="stop-color:#FF31C4"/>
						<stop  offset="1" style="stop-color:#9A2E9E"/>
					</linearGradient>
					<path class="st71" d="M554.1,533.1l-2.2,4.9l1.1,5.7c2.7,3.5,5.3,7.4,7.1,13.2c0,0-10.9,17-15.9,19.5c0,0-10.7,1-18.2-0.9
						l-1.4-0.5c0,0,1.5,2.1,1.4,2.6c-0.1,0.5-6.1,2.9-17.2,1.2c0,0-0.8,1.8,0.1,4l45.7,2.6c0,0,7.1-21.3,19.4-26.4
						c-3.7-6.7-8.7-12.7-15.6-19.4l-1.8-7.8L554.1,533.1z"/>
					<path class="st34" d="M554.1,533.1c0,0-2.1-0.2-2.7,1.3c-0.6,1.6,1.4,3.1,1.4,3.1l1.7-3.6L554.1,533.1z"/>
					<path class="st72" d="M553.8,535.6l-2.9,1.6l0.4,1.8l3.3-1.9c0,0,0.4-0.3,0.3-0.9C554.8,535.7,554.3,535.4,553.8,535.6z"/>
					<path class="st34" d="M518,554.2l5.1-1.1c0.5-0.1,0.9-0.6,1-1.1c0.1-1.7-0.2-5.3-3.2-6c-3.3-0.8-25.9-1.6-33.3-1.8
						c-2.1-0.1-4,1.2-4.6,3.1c-0.7,2.1,0.1,4.8,7.1,6.1C502.8,555.8,518,554.2,518,554.2z"/>
					<path class="st34" d="M555,522.3l-0.3,4.9c0,0,1.8-0.5,1.9-2.3C556.7,524.7,555.9,523.1,555,522.3z"/>
				</g>
				<g>
					<path class="st73" d="M529.7,503.5l-4.1-3.9c1.6-1.7,2.8-3.6,3.6-5.8l4.2,5.1C531.9,499.9,530.6,501.4,529.7,503.5z"/>
					<path class="st73" d="M539.4,494.9c0,0,0.5,2.8,0.6,3.9l-1.7-0.2L539.4,494.9z"/>
					<path class="st74" d="M539.2,498.2c-0.2,0.8-1.2,3.2-1.2,3.2c-0.7,0.6-1.3,0.7-2.2,0.7c-2.2-0.2-4.2-1.4-5.6-3
						c-1.4-1.7-2.2-3.8-2.4-6c-0.2-2.8,0.8-5.9,3.3-7.1s7.2-0.3,8.7,2.2C541.4,490.8,539.8,495.5,539.2,498.2z"/>
					<polygon class="st34" points="541.3,487.9 545,490.4 544.9,490.9 537,490 					"/>
					<path class="st74" d="M545.1,536.5c1.2,1.1,2.8,1.6,4.3,1.5c-0.2-0.5,0.1-1.2,0.7-1.4c0.6-0.2,1.2,0.1,1.5,0.7
						c0.3,0.5,0.2,1.2-0.1,1.7c-0.5-0.1-1-0.1-1.5-0.1c0.3,1.1,1.7,1.6,2.8,1.3s2-1.1,2.8-1.9c0.1-0.1,0.3-0.3,0.3-0.5
						c0.1-0.3-0.1-0.5-0.3-0.8c-0.7-1-1.5-1.9-2.4-2.7c-0.3-0.2-0.6-0.5-0.9-0.6c-0.4-0.1-0.8,0-1.1,0.1c-1.4,0.3-3.4-0.1-4.8-0.5
						L545.1,536.5z"/>
					
						<linearGradient id="SVGID_56_" gradientUnits="userSpaceOnUse" x1="524.211" y1="137.2207" x2="542.0568" y2="137.2207" gradientTransform="matrix(1 0 0 1 0 352)">
						<stop  offset="0" style="stop-color:#FFC572"/>
						<stop  offset="1" style="stop-color:#FF4EB3"/>
					</linearGradient>
					<path class="st75" d="M538.3,489.8c0,0.2-3.2,7.2-3.2,7.2l-9.8-1.1c0,0-4.7-13,5-14.3s11.5,5.8,11.7,6.6
						C542.2,488.9,538.3,489.8,538.3,489.8z"/>
					<polygon class="st34" points="534.6,501.8 533.1,501.2 533.7,495.9 535.2,496 					"/>
					<path class="st34" d="M537.6,573.2l-1.4,5.3l-0.3,2.6l16.4,1.9l0,0c0.2-1.5-0.8-2.9-2.4-3.4l-3.5-1l-2.8-3.3l-0.2-1.1
						L537.6,573.2z"/>
					<g>
						
							<linearGradient id="SVGID_57_" gradientUnits="userSpaceOnUse" x1="514.051" y1="164.787" x2="529.6329" y2="171.549" gradientTransform="matrix(1 0 0 1 0 352)">
							<stop  offset="0" style="stop-color:#92D2FF"/>
							<stop  offset="1" style="stop-color:#28A0FF"/>
						</linearGradient>
						<path class="st76" d="M522.5,537.7c1-0.3,1.8-0.5,2.6-0.7c0.4-1.4,8-29.1,4.5-33.5l-2.8-4c0,0-6-4.1-12.1,14
							c-3.6,10.5-7,18.1-7.5,23.2C510.6,537.5,518,538.9,522.5,537.7z"/>
						
							<linearGradient id="SVGID_58_" gradientUnits="userSpaceOnUse" x1="534.2257" y1="180.7323" x2="527.8231" y2="197.1961" gradientTransform="matrix(1 0 0 1 0 352)">
							<stop  offset="0" style="stop-color:#60A1E3"/>
							<stop  offset="1" style="stop-color:#5D5FD0"/>
						</linearGradient>
						<path class="st77" d="M552.3,548.1c-0.2-4.9-27.2-11.1-27.2-11.1s0,0,0-0.1c-0.8,0.2-1.6,0.4-2.6,0.6
							c-4.5,1.1-11.9-0.3-15.3-1.1c-0.4,3.4,0.3,7.2,3.7,8.6c8.2,3.4,31.1,6.6,31.1,6.6l-4.5,21.9l5.9,0.6
							C543.4,574.2,552.6,553,552.3,548.1z"/>
					</g>
					
						<linearGradient id="SVGID_59_" gradientUnits="userSpaceOnUse" x1="540.6144" y1="158.3545" x2="531.7244" y2="176.6573" gradientTransform="matrix(1 0 0 1 0 352)">
						<stop  offset="0" style="stop-color:#92D2FF"/>
						<stop  offset="1" style="stop-color:#28A0FF"/>
					</linearGradient>
					<path class="st78" d="M529.9,525.9c-0.4-5-0.9-10.1-1.3-15.1c-1.7-3.6-3.6-3.7-5.8-1.5c-0.4,5.5-0.1,11.1,1.2,16.5
						c0.2,0.9,0.4,1.8,0.9,2.5c0.5,0.8,1.2,1.4,2,1.9c5.6,4,12.3,5.6,19,6.8c0.2-1.2,0.7-2.7,0.9-4
						C541.2,530.5,535.6,527.9,529.9,525.9z"/>
				</g>
				<path class="st34" d="M551.9,538c0,0.8-0.6,1.4-1.4,1.5c-0.8,0-1.4-0.6-1.5-1.4c0-0.8,0.6-1.4,1.4-1.5
					C551.2,536.6,551.9,537.2,551.9,538z"/>
			</g>
			<g>
				<rect x="423.3" y="551.7" class="st79" width="32.4" height="0.3"/>
			</g>
			<g>
				<rect x="431.6" y="557" class="st79" width="23.5" height="0.3"/>
			</g>
			<g>
				<rect x="433.5" y="546.6" class="st79" width="23.5" height="0.3"/>
			</g>
		</g>
		<g>
			
				<linearGradient id="SVGID_60_" gradientUnits="userSpaceOnUse" x1="242.1145" y1="115.2" x2="279.1145" y2="115.2" gradientTransform="matrix(1 0 0 1 0 352)">
				<stop  offset="0" style="stop-color:#FFC572"/>
				<stop  offset="1" style="stop-color:#FF4EB3"/>
			</linearGradient>
			<path class="st80" d="M261.9,453.8c-9.5,0-17.3,6-17.3,13.4c0,3.1,1.3,5.9,3.5,8.1l-6,5.3l8.7-3.1c3,1.9,6.8,3.1,11,3.1
				c9.5,0,17.3-6,17.3-13.4C279.1,459.8,271.4,453.8,261.9,453.8z"/>
			<path class="st81" d="M254.7,467c0,1.1-0.9,2.1-2.1,2.1c-1.1,0-2.1-0.9-2.1-2.1c0-1.1,0.9-2.1,2.1-2.1S254.7,465.8,254.7,467z"/>
			<path class="st81" d="M263.9,467c0,1.1-0.9,2.1-2.1,2.1c-1.1,0-2.1-0.9-2.1-2.1c0-1.1,0.9-2.1,2.1-2.1S263.9,465.8,263.9,467z"/>
			<path class="st81" d="M273.1,467c0,1.1-0.9,2.1-2.1,2.1c-1.1,0-2.1-0.9-2.1-2.1c0-1.1,0.9-2.1,2.1-2.1S273.1,465.8,273.1,467z"/>
		</g>
	</g>
</g>
</svg>