<?xml version="1.0" encoding="utf-8"?>
<!-- Generator: Adobe Illustrator 25.2.0, SVG Export Plug-In . SVG Version: 6.00 Build 0)  -->
<svg version="1.1" id="Layer_1" xmlns="http://www.w3.org/2000/svg" xmlns:xlink="http://www.w3.org/1999/xlink" x="0px" y="0px"
	 viewBox="0 0 1600 600" style="enable-background:new 0 0 1600 600;" xml:space="preserve">
<style type="text/css">
	.st0{opacity:0.47;}
	.st1{fill:#FFFFFF;}
	.st2{opacity:7.000000e-02;}
	.st3{fill:#1F60B0;}
	.st4{fill:#808285;}
	.st5{fill:#350FA2;}
	.st6{fill:#FF6F69;}
	.st7{fill:#C132AE;}
	.st8{fill:#6099DC;}
	.st9{fill:url(#SVGID_1_);}
	.st10{fill:url(#SVGID_2_);}
	.st11{fill:#753397;}
	.st12{fill:url(#SVGID_3_);}
	.st13{fill:url(#SVGID_4_);}
	.st14{fill:#782388;}
	.st15{fill:url(#SVGID_5_);}
	.st16{fill:#5876D6;}
	.st17{fill:url(#SVGID_6_);}
	.st18{fill:#414042;}
	.st19{fill:#F8A595;}
	.st20{fill:#F7A08C;}
	.st21{fill:url(#SVGID_7_);}
	.st22{fill:url(#SVGID_8_);}
	.st23{fill:url(#SVGID_9_);}
	.st24{fill:url(#SVGID_10_);}
	.st25{fill:#231F20;}
	.st26{fill:#E7EEFE;}
	.st27{fill:#CBDBFD;}
	.st28{fill:url(#SVGID_11_);}
	.st29{fill:url(#SVGID_12_);}
	.st30{fill:url(#SVGID_13_);}
	.st31{fill:#B1C9FD;}
	.st32{fill:none;}
	.st33{fill:url(#SVGID_14_);}
	.st34{fill:url(#SVGID_15_);}
	.st35{fill:url(#SVGID_16_);}
	.st36{fill:url(#SVGID_17_);}
	.st37{fill:url(#SVGID_18_);}
	.st38{fill:url(#SVGID_19_);}
	.st39{fill:url(#SVGID_20_);}
	.st40{fill:url(#SVGID_21_);}
	.st41{fill:url(#SVGID_22_);}
	.st42{enable-background:new    ;}
	.st43{clip-path:url(#SVGID_24_);enable-background:new    ;}
	.st44{fill:#858585;}
	.st45{fill:url(#SVGID_25_);}
	.st46{fill:url(#SVGID_26_);}
	.st47{clip-path:url(#SVGID_28_);enable-background:new    ;}
	.st48{fill:url(#SVGID_29_);}
	.st49{fill:#DAE3F2;}
	.st50{fill:url(#SVGID_30_);}
	.st51{fill:url(#SVGID_31_);}
	.st52{fill:#DBE2F2;}
	.st53{fill:url(#SVGID_32_);}
	.st54{fill:#F8F5FF;}
	.st55{fill:url(#SVGID_33_);}
	.st56{fill:url(#SVGID_34_);}
	.st57{fill:url(#SVGID_35_);}
	.st58{fill:url(#SVGID_36_);}
	.st59{fill:url(#SVGID_37_);}
	.st60{fill:url(#SVGID_38_);}
	.st61{fill:url(#SVGID_39_);}
	.st62{fill:url(#SVGID_40_);}
	.st63{fill:url(#SVGID_41_);}
	.st64{fill:url(#SVGID_42_);}
	.st65{fill:url(#SVGID_43_);}
	.st66{fill:url(#SVGID_44_);}
	.st67{fill:url(#SVGID_45_);}
	.st68{fill:url(#SVGID_46_);}
	.st69{fill:url(#SVGID_47_);}
	.st70{fill:url(#SVGID_48_);}
	.st71{fill:url(#SVGID_49_);}
	.st72{fill:url(#SVGID_50_);}
	.st73{fill:url(#SVGID_51_);}
	.st74{fill:url(#SVGID_52_);}
	.st75{fill:#FFC572;}
	.st76{fill:url(#XMLID_2_);}
	.st77{clip-path:url(#SVGID_54_);fill:#F8F5FF;}
	.st78{clip-path:url(#SVGID_56_);fill:#F8F5FF;}
	.st79{clip-path:url(#SVGID_58_);fill:#F8F5FF;}
	.st80{clip-path:url(#SVGID_60_);fill:#F8F5FF;}
	.st81{fill:url(#SVGID_61_);}
	.st82{fill:url(#SVGID_62_);}
	.st83{fill:url(#SVGID_63_);}
	.st84{fill:url(#SVGID_64_);}
	.st85{fill:url(#SVGID_65_);}
	.st86{fill:#FF7E78;}
	.st87{fill:url(#SVGID_66_);}
	.st88{fill:url(#SVGID_67_);}
	.st89{clip-path:url(#SVGID_69_);}
	.st90{fill:url(#SVGID_70_);}
	.st91{fill:url(#SVGID_71_);}
	.st92{fill:url(#SVGID_72_);}
	.st93{fill:url(#SVGID_73_);}
	.st94{fill:url(#SVGID_74_);}
	.st95{fill:#2888DE;}
	.st96{fill:url(#SVGID_75_);}
	.st97{fill:url(#SVGID_76_);}
	.st98{fill:#7B1AB5;}
	.st99{fill:#6D6E71;}
	.st100{fill:#3604A3;}
	.st101{fill:url(#SVGID_77_);}
	.st102{fill:url(#SVGID_78_);}
	.st103{fill:url(#SVGID_79_);}
	.st104{fill:url(#SVGID_80_);}
	.st105{fill:url(#SVGID_81_);}
	.st106{fill-rule:evenodd;clip-rule:evenodd;fill:url(#SVGID_82_);}
	.st107{fill-rule:evenodd;clip-rule:evenodd;fill:#EFF3FF;}
	.st108{fill-rule:evenodd;clip-rule:evenodd;fill:url(#SVGID_83_);}
</style>
<g class="st0">
	<g>
		<polygon class="st1" points="331.8,599 331.8,479.4 350.6,479.4 350.6,429.9 373.7,429.9 373.7,480.3 379.4,480.3 379.4,458.1 
			395.3,458.1 395.3,480 417.8,480 417.8,522.1 432.6,522.1 432.6,506.2 451.7,487.1 451.7,505.9 463.1,505.9 463.1,451.8 
			486.7,451.8 486.7,599 		"/>
		<polygon class="st1" points="182.3,599 182.3,479.4 201.1,479.4 201.1,429.9 224.2,429.9 224.2,480.3 229.9,480.3 229.9,458.1 
			245.8,458.1 245.8,480 268.3,480 268.3,522.1 283.1,522.1 283.1,506.2 302.2,487.1 302.2,505.9 313.6,505.9 313.6,451.8 
			337.2,451.8 337.2,599 		"/>
		<polygon class="st1" points="32.9,599 32.9,479.4 51.7,479.4 51.7,429.9 74.7,429.9 74.7,480.3 80.4,480.3 80.4,458.1 96.4,458.1 
			96.4,480 118.9,480 118.9,522.1 133.7,522.1 133.7,506.2 152.7,487.1 152.7,505.9 164.1,505.9 164.1,451.8 187.8,451.8 187.8,599 
					"/>
		<polygon class="st1" points="481.4,599 481.4,479.4 500.2,479.4 500.2,429.9 523.3,429.9 523.3,480.3 529,480.3 529,458.1 
			544.9,458.1 544.9,480 567.4,480 567.4,522.1 582.2,522.1 582.2,506.2 601.3,487.1 601.3,505.9 612.7,505.9 612.7,451.8 
			636.3,451.8 636.3,599 		"/>
		<polygon class="st1" points="631.2,599 631.2,479.4 650,479.4 650,429.9 673.1,429.9 673.1,480.3 678.8,480.3 678.8,458.1 
			694.7,458.1 694.7,480 717.2,480 717.2,522.1 732,522.1 732,506.2 751.1,487.1 751.1,505.9 762.5,505.9 762.5,451.8 786.1,451.8 
			786.1,599 		"/>
	</g>
	<g class="st2">
		<path class="st3" d="M139.4,433.1L139.4,433.1c0.2-0.7,0.3-1.5,0.3-2.3c0-4.9-4-8.9-8.9-8.9c-4.9,0-8.9,4-8.9,8.9
			c0,0.8,0.1,1.5,0.3,2.3l0,0l0,0c0.2,0.9,0.6,1.7,1.1,2.4c1.6,3.5,3.8,7.6,7.6,13.8c3.4-5.9,6.2-10.8,7.7-13.9
			C138.8,434.6,139.1,433.9,139.4,433.1C139.3,433.1,139.4,433.1,139.4,433.1z"/>
		<circle class="st1" cx="130.7" cy="430.8" r="4.2"/>
	</g>
	<g class="st2">
		<path class="st3" d="M682.9,393L682.9,393c0.2-0.7,0.3-1.5,0.3-2.3c0-4.9-4-8.9-8.9-8.9s-8.9,4-8.9,8.9c0,0.8,0.1,1.5,0.3,2.3l0,0
			l0,0c0.2,0.9,0.6,1.7,1.1,2.4c1.6,3.5,3.8,7.6,7.6,13.8c3.4-5.9,6.2-10.8,7.7-13.9C682.4,394.6,682.7,393.8,682.9,393L682.9,393z"
			/>
		<path class="st1" d="M678.5,390.8c0,2.3-1.9,4.2-4.2,4.2s-4.2-1.9-4.2-4.2c0-2.3,1.9-4.2,4.2-4.2
			C676.6,386.5,678.5,388.4,678.5,390.8z"/>
	</g>
	<g class="st2">
		<path class="st3" d="M737.9,375L737.9,375c0.2-0.7,0.3-1.5,0.3-2.3c0-4.9-4-8.9-8.9-8.9s-8.9,4-8.9,8.9c0,0.8,0.1,1.5,0.3,2.3l0,0
			l0,0c0.2,0.9,0.6,1.7,1.1,2.4c1.6,3.5,3.8,7.6,7.6,13.8c3.4-5.9,6.2-10.8,7.7-13.9C737.3,376.6,737.6,375.8,737.9,375L737.9,375z"
			/>
		<path class="st1" d="M733.5,372.8c0,2.3-1.9,4.2-4.2,4.2s-4.2-1.9-4.2-4.2c0-2.3,1.9-4.2,4.2-4.2S733.5,370.4,733.5,372.8z"/>
	</g>
	<g class="st2">
		<path class="st3" d="M81,410.2L81,410.2c0.2-0.6,0.2-1.2,0.2-1.8c0-4-3.2-7.2-7.2-7.2s-7.2,3.2-7.2,7.2c0,0.6,0.1,1.2,0.2,1.8l0,0
			l0,0c0.2,0.7,0.5,1.4,0.9,2c1.3,2.9,3,6.1,6.1,11.1c2.8-4.8,5-8.8,6.2-11.3C80.5,411.5,80.8,410.9,81,410.2
			C80.9,410.2,81,410.2,81,410.2z"/>
		<path class="st1" d="M77.4,408.4c0,1.9-1.5,3.4-3.4,3.4s-3.4-1.5-3.4-3.4s1.5-3.4,3.4-3.4S77.4,406.5,77.4,408.4z"/>
	</g>
</g>
<g class="st0">
	<g>
		<polygon class="st1" points="1049.4,599 1049.4,479.4 1068.2,479.4 1068.2,429.9 1091.3,429.9 1091.3,480.3 1097,480.3 
			1097,458.1 1112.9,458.1 1112.9,480 1135.4,480 1135.4,522.1 1150.2,522.1 1150.2,506.2 1169.3,487.1 1169.3,505.9 1180.7,505.9 
			1180.7,451.8 1204.3,451.8 1204.3,599 		"/>
		<polygon class="st1" points="900,599 900,479.4 918.7,479.4 918.7,429.9 941.8,429.9 941.8,480.3 947.5,480.3 947.5,458.1 
			963.4,458.1 963.4,480 985.9,480 985.9,522.1 1000.7,522.1 1000.7,506.2 1019.8,487.1 1019.8,505.9 1031.2,505.9 1031.2,451.8 
			1054.8,451.8 1054.8,599 		"/>
		<polygon class="st1" points="750.5,599 750.5,479.4 769.3,479.4 769.3,429.9 792.3,429.9 792.3,480.3 798,480.3 798,458.1 
			814,458.1 814,480 836.5,480 836.5,522.1 851.3,522.1 851.3,506.2 870.4,487.1 870.4,505.9 881.7,505.9 881.7,451.8 905.4,451.8 
			905.4,599 		"/>
		<polygon class="st1" points="1199.1,599 1199.1,479.4 1217.8,479.4 1217.8,429.9 1240.9,429.9 1240.9,480.3 1246.6,480.3 
			1246.6,458.1 1262.5,458.1 1262.5,480 1285,480 1285,522.1 1299.8,522.1 1299.8,506.2 1318.9,487.1 1318.9,505.9 1330.3,505.9 
			1330.3,451.8 1353.9,451.8 1353.9,599 		"/>
		<polygon class="st1" points="1348.8,599 1348.8,479.4 1367.6,479.4 1367.6,429.9 1390.7,429.9 1390.7,480.3 1396.4,480.3 
			1396.4,458.1 1412.3,458.1 1412.3,480 1434.8,480 1434.8,522.1 1449.6,522.1 1449.6,506.2 1468.7,487.1 1468.7,505.9 
			1480.1,505.9 1480.1,451.8 1503.7,451.8 1503.7,599 		"/>
	</g>
	<g class="st2">
		<path class="st3" d="M857,433.1L857,433.1c0.2-0.7,0.3-1.5,0.3-2.3c0-4.9-4-8.9-8.9-8.9s-8.9,4-8.9,8.9c0,0.8,0.1,1.5,0.3,2.3l0,0
			l0,0c0.2,0.9,0.6,1.7,1.1,2.4c1.6,3.5,3.8,7.6,7.6,13.8c3.4-5.9,6.2-10.8,7.7-13.9C856.4,434.6,856.8,433.9,857,433.1L857,433.1z"
			/>
		<circle class="st1" cx="848.4" cy="430.8" r="4.2"/>
	</g>
	<g class="st2">
		<path class="st3" d="M1400.5,393L1400.5,393c0.2-0.7,0.3-1.5,0.3-2.3c0-4.9-4-8.9-8.9-8.9s-8.9,4-8.9,8.9c0,0.8,0.1,1.5,0.3,2.3
			l0,0l0,0c0.2,0.9,0.6,1.7,1.1,2.4c1.6,3.5,3.8,7.6,7.6,13.8c3.4-5.9,6.2-10.8,7.7-13.9C1400,394.6,1400.3,393.8,1400.5,393
			L1400.5,393z"/>
		<path class="st1" d="M1396.2,390.8c0,2.3-1.9,4.2-4.2,4.2c-2.3,0-4.2-1.9-4.2-4.2c0-2.3,1.9-4.2,4.2-4.2
			C1394.3,386.5,1396.2,388.4,1396.2,390.8z"/>
	</g>
	<g class="st2">
		<path class="st3" d="M1455.5,375L1455.5,375c0.2-0.7,0.3-1.5,0.3-2.3c0-4.9-4-8.9-8.9-8.9s-8.9,4-8.9,8.9c0,0.8,0.1,1.5,0.3,2.3
			l0,0l0,0c0.2,0.9,0.6,1.7,1.1,2.4c1.6,3.5,3.8,7.6,7.6,13.8c3.4-5.9,6.2-10.8,7.7-13.9C1454.9,376.6,1455.3,375.8,1455.5,375
			L1455.5,375z"/>
		<path class="st1" d="M1451.1,372.8c0,2.3-1.9,4.2-4.2,4.2c-2.3,0-4.2-1.9-4.2-4.2c0-2.3,1.9-4.2,4.2-4.2
			C1449.2,368.5,1451.1,370.4,1451.1,372.8z"/>
	</g>
	<g class="st2">
		<path class="st3" d="M798.6,410.2L798.6,410.2c0.2-0.6,0.2-1.2,0.2-1.8c0-4-3.2-7.2-7.2-7.2s-7.2,3.2-7.2,7.2
			c0,0.6,0.1,1.2,0.2,1.8l0,0l0,0c0.2,0.7,0.5,1.4,0.9,2c1.3,2.9,3,6.1,6.1,11.1c2.8-4.8,5-8.8,6.2-11.3
			C798.1,411.5,798.4,410.9,798.6,410.2L798.6,410.2z"/>
		<path class="st1" d="M795,408.4c0,1.9-1.5,3.4-3.4,3.4s-3.4-1.5-3.4-3.4s1.5-3.4,3.4-3.4S795,406.5,795,408.4z"/>
	</g>
</g>
<g>
	<g>
		<g>
			<polygon class="st4" points="464.2,533.1 465.1,524.5 465.8,524.5 464.9,533.1 			"/>
			<g>
				<path class="st5" d="M466.7,531.8c0.5-0.2,4.8,0.1,4.8,0.1l-0.2,8l-1.6,0.7l-4.4-1.8L466.7,531.8z"/>
				<path class="st1" d="M472.1,535.6c0,2.3-0.5,4.2-0.8,4.3s-0.6-1.6-0.7-3.8c0-2.3,0.5-4.1,0.8-4.1
					C471.8,531.9,472.1,533.3,472.1,535.6z"/>
			</g>
			<path class="st6" d="M380.8,556.6l-5.5,0.1v-0.1c0-2.7,2.1-4.9,4.8-4.9h0.7V556.6z"/>
			<polygon class="st7" points="385.9,553.6 384.9,546.6 393.8,546.5 402.7,552.3 404.5,556.2 385.7,556.5 			"/>
			<g>
				<g>
					<g>
						<path class="st8" d="M484.4,590.8c-0.1,0-0.1,0-0.2,0c-0.2-0.1-0.3-0.3-0.2-0.6l7.3-18.2c0.1-0.2,0.3-0.3,0.6-0.2
							c0.2,0.1,0.3,0.3,0.2,0.6l-7.3,18.2C484.7,590.7,484.6,590.8,484.4,590.8z"/>
						<path class="st8" d="M497.2,585.3c-0.1,0-0.1,0-0.2,0l-18.2-7.3c-0.2-0.1-0.3-0.3-0.2-0.6c0.1-0.2,0.3-0.3,0.6-0.2l18.2,7.3
							c0.2,0.1,0.3,0.3,0.2,0.6C497.5,585.2,497.3,585.3,497.2,585.3z"/>
					</g>
					<g>
						<path class="st8" d="M491.7,590.8c-0.2,0-0.3-0.1-0.4-0.3l-7.2-18.3c-0.1-0.2,0-0.5,0.2-0.6s0.5,0,0.6,0.2l7.2,18.3
							c0.1,0.2,0,0.5-0.2,0.6C491.8,590.8,491.7,590.8,491.7,590.8z"/>
						<path class="st8" d="M478.9,585.2c-0.2,0-0.3-0.1-0.4-0.3s0-0.5,0.2-0.6l18.3-7.2c0.2-0.1,0.5,0,0.6,0.2s0,0.5-0.2,0.6
							l-18.3,7.2C479,585.2,479,585.2,478.9,585.2z"/>
					</g>
					<g>
						<path class="st8" d="M495.1,588.5c-0.1,0-0.2,0-0.3-0.1l-14.1-13.7c-0.2-0.2-0.2-0.4,0-0.6c0.2-0.2,0.4-0.2,0.6,0l14.1,13.7
							c0.2,0.2,0.2,0.4,0,0.6C495.3,588.4,495.2,588.5,495.1,588.5z"/>
						<path class="st8" d="M481.2,588.7c-0.1,0-0.2,0-0.3-0.1c-0.2-0.2-0.2-0.4,0-0.6l13.7-14.1c0.2-0.2,0.4-0.2,0.6,0
							s0.2,0.4,0,0.6l-13.7,14.1C481.4,588.6,481.3,588.7,481.2,588.7z"/>
					</g>
					<g>
						<path class="st8" d="M478.2,581.8c-0.2,0-0.4-0.2-0.4-0.4s0.2-0.4,0.4-0.4l19.6-0.3l0,0c0.2,0,0.4,0.2,0.4,0.4
							s-0.2,0.4-0.4,0.4L478.2,581.8L478.2,581.8z"/>
						<path class="st8" d="M488.2,591.5c-0.2,0-0.4-0.2-0.4-0.4l-0.3-19.6c0-0.2,0.2-0.4,0.4-0.4c0.3,0,0.4,0.2,0.4,0.4l0.3,19.6
							C488.6,591.3,488.5,591.5,488.2,591.5L488.2,591.5z"/>
					</g>
				</g>
				
					<linearGradient id="SVGID_1_" gradientUnits="userSpaceOnUse" x1="483.9456" y1="20.8" x2="492.1718" y2="20.8" gradientTransform="matrix(1 0 0 -1 0 602)">
					<stop  offset="0" style="stop-color:#60A1E3"/>
					<stop  offset="1" style="stop-color:#5D5FD0"/>
				</linearGradient>
				<circle class="st9" cx="488.1" cy="581.2" r="4.1"/>
				<path class="st5" d="M489.8,581.2c0,1-0.8,1.8-1.8,1.8s-1.8-0.8-1.8-1.8s0.8-1.8,1.8-1.8S489.8,580.2,489.8,581.2z"/>
				<g id="XMLID_55_">
					<path class="st5" d="M487.8,566.7c8-0.1,14.6,6.3,14.7,14.3s-6.3,14.6-14.3,14.7c-8,0.1-14.6-6.3-14.7-14.3
						S479.8,566.8,487.8,566.7z M497.9,581.1c-0.1-5.4-4.5-9.8-10-9.7c-5.4,0.1-9.8,4.5-9.7,10c0.1,5.4,4.5,9.8,10,9.7
						C493.6,591,498,586.5,497.9,581.1z"/>
				</g>
			</g>
			<path class="st7" d="M397,550.9l-16.2,0.7c0,0-8.4,4.7-13,21.5l1.7-0.2c0,0,2.2-13.1,11.4-19.3l21.1-0.3L397,550.9z"/>
			<g>
				<g>
					<g>
						<path class="st8" d="M389.7,590.4c-0.1,0-0.1,0-0.2,0c-0.2-0.1-0.3-0.3-0.2-0.6l7.3-18.2c0.1-0.2,0.3-0.3,0.6-0.2
							c0.2,0.1,0.3,0.3,0.2,0.6l-7.3,18.2C390,590.3,389.9,590.4,389.7,590.4z"/>
						<path class="st8" d="M402.5,584.9c-0.1,0-0.1,0-0.2,0l-18.2-7.3c-0.2-0.1-0.3-0.3-0.2-0.6c0.1-0.2,0.3-0.3,0.6-0.2l18.2,7.3
							c0.2,0.1,0.3,0.3,0.2,0.6C402.8,584.8,402.7,584.9,402.5,584.9z"/>
					</g>
					<g>
						<path class="st8" d="M397,590.4c-0.2,0-0.3-0.1-0.4-0.3l-7.2-18.3c-0.1-0.2,0-0.5,0.2-0.6s0.5,0,0.6,0.2l7.2,18.3
							c0.1,0.2,0,0.5-0.2,0.6C397.1,590.4,397,590.4,397,590.4z"/>
						<path class="st8" d="M384.2,584.9c-0.2,0-0.3-0.1-0.4-0.3s0-0.5,0.2-0.6l18.3-7.2c0.2-0.1,0.5,0,0.6,0.2s0,0.5-0.2,0.6
							l-18.3,7.2C384.3,584.9,384.3,584.9,384.2,584.9z"/>
					</g>
					<g>
						<path class="st8" d="M400.4,588.1c-0.1,0-0.2,0-0.3-0.1L386,574.3c-0.2-0.2-0.2-0.4,0-0.6c0.2-0.2,0.4-0.2,0.6,0l14.1,13.7
							c0.2,0.2,0.2,0.4,0,0.6C400.6,588.1,400.5,588.1,400.4,588.1z"/>
						<path class="st8" d="M386.5,588.3c-0.1,0-0.2,0-0.3-0.1c-0.2-0.2-0.2-0.4,0-0.6l13.7-14.1c0.2-0.2,0.4-0.2,0.6,0
							s0.2,0.4,0,0.6l-13.7,14.1C386.8,588.3,386.6,588.3,386.5,588.3z"/>
					</g>
					<g>
						<path class="st8" d="M383.6,581.4c-0.2,0-0.4-0.2-0.4-0.4s0.2-0.4,0.4-0.4l19.6-0.3c0.2,0,0.4,0.2,0.4,0.4s-0.2,0.4-0.4,0.4
							L383.6,581.4L383.6,581.4z"/>
						<path class="st8" d="M393.5,591.1c-0.2,0-0.4-0.2-0.4-0.4l-0.3-19.6c0-0.2,0.2-0.4,0.4-0.4c0.2,0,0.4,0.2,0.4,0.4l0.3,19.6
							C394,590.9,393.8,591.1,393.5,591.1L393.5,591.1z"/>
					</g>
				</g>
				
					<linearGradient id="SVGID_2_" gradientUnits="userSpaceOnUse" x1="389.2533" y1="21.2" x2="397.4794" y2="21.2" gradientTransform="matrix(1 0 0 -1 0 602)">
					<stop  offset="0" style="stop-color:#60A1E3"/>
					<stop  offset="1" style="stop-color:#5D5FD0"/>
				</linearGradient>
				<circle class="st10" cx="393.4" cy="580.8" r="4.1"/>
				<circle class="st5" cx="393.4" cy="580.8" r="1.8"/>
				<g id="XMLID_52_">
					<g>
						<path class="st5" d="M393.2,566.3c8-0.1,14.6,6.3,14.7,14.3s-6.3,14.6-14.3,14.7c-8,0.1-14.6-6.3-14.7-14.3
							S385.2,566.5,393.2,566.3z M403.2,580.7c-0.1-5.4-4.5-9.8-10-9.7c-5.4,0.1-9.8,4.5-9.7,10c0.1,5.4,4.5,9.8,10,9.7
							C398.9,590.6,403.3,586.1,403.2,580.7z"/>
					</g>
				</g>
			</g>
			<g>
				<path class="st11" d="M413.7,561.5c-6.3-7.5-19.3-5.2-30.2-5.1c-4.3,0-8,3.1-10.9,6.8c-0.7,1.4-1.3,3-1.8,4.8
					c0,1.4,2.3,4.2,5.5,3c0,0,17.2-9.4,30.4,5.6l1.1,5.2l11.1,0.8C418.9,577.2,418.2,566.9,413.7,561.5z"/>
				
					<linearGradient id="SVGID_3_" gradientUnits="userSpaceOnUse" x1="372.7" y1="34.05" x2="439.7" y2="34.05" gradientTransform="matrix(1 0 0 -1 0 602)">
					<stop  offset="0" style="stop-color:#FF31C4"/>
					<stop  offset="1" style="stop-color:#9A2E9E"/>
				</linearGradient>
				<path class="st12" d="M439.7,580.2l-5-5.3l-5.3-11.1c0,0-0.8-7.7,2.4-10.9l-21.3,0.3l-29.7,0.4c0,0-4.7,2.7-8.1,9.6
					c2.9-3.7,6.6-6.8,10.9-6.8c10.9-0.1,23.9-2.5,30.2,5.1c4.5,5.4,5.2,15.7,5.2,21.2l3.6,0.3L439.7,580.2z"/>
			</g>
			
				<linearGradient id="SVGID_4_" gradientUnits="userSpaceOnUse" x1="369.4" y1="69.3" x2="395.327" y2="69.3" gradientTransform="matrix(1 0 0 -1 0 602)">
				<stop  offset="0" style="stop-color:#FFC572"/>
				<stop  offset="1" style="stop-color:#FF4EB3"/>
			</linearGradient>
			<polygon class="st13" points="395.3,544.2 369.8,544.5 369.4,521.3 395,520.9 			"/>
			
				<rect x="372.6" y="545" transform="matrix(0.9999 -1.472843e-02 1.472843e-02 0.9999 -7.998 5.7032)" class="st14" width="21.2" height="1.7"/>
			
				<linearGradient id="SVGID_5_" gradientUnits="userSpaceOnUse" x1="361.7731" y1="79.7089" x2="387.4214" y2="79.4472" gradientTransform="matrix(1 0 0 -1 0 602)">
				<stop  offset="0" style="stop-color:#FFC572"/>
				<stop  offset="0.1481" style="stop-color:#FFBC77"/>
				<stop  offset="0.3869" style="stop-color:#FFA584"/>
				<stop  offset="0.6865" style="stop-color:#FF7E99"/>
				<stop  offset="1" style="stop-color:#FF4EB3"/>
			</linearGradient>
			<polygon class="st15" points="395,523.7 369.5,524.1 369.4,521.3 395,520.9 			"/>
			
				<rect x="381.9" y="545.8" transform="matrix(0.9999 -1.473330e-02 1.473330e-02 0.9999 -8.0788 5.6983)" class="st5" width="1.6" height="10.7"/>
			<path class="st11" d="M471.6,579.7c0,0,4.9-11.3,26.1-13.5c0,0-7.3-9.3-24.3-3.5C473.4,562.7,467.5,574.2,471.6,579.7z"/>
			<polygon class="st16" points="483.7,569.5 488.8,581.4 487.8,581.8 482.1,568.3 483,567.7 			"/>
			<path class="st5" d="M480.8,559.5l3.7,8.9l-3,1.3l-3.8-9.7C477.7,560,479.1,558.8,480.8,559.5z"/>
			<path class="st5" d="M484.1,558.9l0.4-1.3c0,0-6.5-12-14.7-17.1l-1.2,1L484.1,558.9z"/>
			
				<linearGradient id="SVGID_6_" gradientUnits="userSpaceOnUse" x1="418.5723" y1="43.4001" x2="484.1" y2="43.4001" gradientTransform="matrix(1 0 0 -1 0 602)">
				<stop  offset="0" style="stop-color:#FF31C4"/>
				<stop  offset="1" style="stop-color:#9A2E9E"/>
			</linearGradient>
			<path class="st17" d="M464.2,533.1L462,538l1.1,5.7c2.7,3.5,5.3,7.4,7.1,13.2c0,0-10.9,17-15.9,19.5c0,0-10.7,1-18.2-0.9
				l-1.4-0.5c0,0,1.5,2.1,1.4,2.6s-6.1,2.9-17.2,1.2c0,0-0.8,1.8,0.1,4l45.7,2.6c0,0,7.1-21.3,19.4-26.4
				c-3.7-6.7-8.7-12.7-15.6-19.4l-1.8-7.8L464.2,533.1z"/>
			<path class="st5" d="M464.2,533.1c0,0-2.1-0.2-2.7,1.3c-0.6,1.6,1.4,3.1,1.4,3.1l1.7-3.6L464.2,533.1z"/>
			<path class="st18" d="M463.9,535.6l-2.9,1.6l0.4,1.8l3.3-1.9c0,0,0.4-0.3,0.3-0.9C464.9,535.7,464.4,535.4,463.9,535.6z"/>
			<path class="st5" d="M428.1,554.2l5.1-1.1c0.5-0.1,0.9-0.6,1-1.1c0.1-1.7-0.2-5.3-3.2-6c-3.3-0.8-25.9-1.6-33.3-1.8
				c-2.1-0.1-4,1.2-4.6,3.1c-0.7,2.1,0.1,4.8,7.1,6.1C412.9,555.8,428.1,554.2,428.1,554.2z"/>
			<path class="st5" d="M465.1,522.3l-0.3,4.9c0,0,1.8-0.5,1.9-2.3C466.8,524.7,466,523.1,465.1,522.3z"/>
		</g>
		<g>
			<path class="st19" d="M439.8,503.5l-4.1-3.9c1.6-1.7,2.8-3.6,3.6-5.8l4.2,5.1C442,499.9,440.7,501.4,439.8,503.5z"/>
			<path class="st19" d="M449.5,494.9c0,0,0.5,2.8,0.6,3.9l-1.7-0.2L449.5,494.9z"/>
			<path class="st20" d="M449.3,498.2c-0.2,0.8-1.2,3.2-1.2,3.2c-0.7,0.6-1.3,0.7-2.2,0.7c-2.2-0.2-4.2-1.4-5.6-3
				c-1.4-1.7-2.2-3.8-2.4-6c-0.2-2.8,0.8-5.9,3.3-7.1s7.2-0.3,8.7,2.2C451.5,490.8,449.9,495.5,449.3,498.2z"/>
			<polygon class="st5" points="451.4,487.9 455.1,490.4 455,490.9 447.1,490 			"/>
			<path class="st20" d="M455.2,536.5c1.2,1.1,2.8,1.6,4.3,1.5c-0.2-0.5,0.1-1.2,0.7-1.4s1.2,0.1,1.5,0.7c0.3,0.5,0.2,1.2-0.1,1.7
				c-0.5-0.1-1-0.1-1.5-0.1c0.3,1.1,1.7,1.6,2.8,1.3c1.1-0.3,2-1.1,2.8-1.9c0.1-0.1,0.3-0.3,0.3-0.5c0.1-0.3-0.1-0.5-0.3-0.8
				c-0.7-1-1.5-1.9-2.4-2.7c-0.3-0.2-0.6-0.5-0.9-0.6c-0.4-0.1-0.8,0-1.1,0.1c-1.4,0.3-3.4-0.1-4.8-0.5L455.2,536.5z"/>
			
				<linearGradient id="SVGID_7_" gradientUnits="userSpaceOnUse" x1="434.2616" y1="112.7793" x2="452.1075" y2="112.7793" gradientTransform="matrix(1 0 0 -1 0 602)">
				<stop  offset="0" style="stop-color:#FFC572"/>
				<stop  offset="1" style="stop-color:#FF4EB3"/>
			</linearGradient>
			<path class="st21" d="M448.4,489.8c0,0.2-3.2,7.2-3.2,7.2l-9.8-1.1c0,0-4.7-13,5-14.3s11.5,5.8,11.7,6.6
				C452.3,488.9,448.4,489.8,448.4,489.8z"/>
			<polygon class="st5" points="444.7,501.8 443.2,501.2 443.8,495.9 445.3,496 			"/>
			<path class="st5" d="M447.7,573.2l-1.4,5.3l-0.3,2.6l16.4,1.9l0,0c0.2-1.5-0.8-2.9-2.4-3.4l-3.5-1l-2.8-3.3l-0.2-1.1L447.7,573.2
				z"/>
			<g>
				
					<linearGradient id="SVGID_8_" gradientUnits="userSpaceOnUse" x1="424.1017" y1="85.2131" x2="439.6836" y2="78.4511" gradientTransform="matrix(1 0 0 -1 0 602)">
					<stop  offset="0" style="stop-color:#92D2FF"/>
					<stop  offset="1" style="stop-color:#28A0FF"/>
				</linearGradient>
				<path class="st22" d="M432.6,537.7c1-0.3,1.8-0.5,2.6-0.7c0.4-1.4,8-29.1,4.5-33.5l-2.8-4c0,0-6-4.1-12.1,14
					c-3.6,10.5-7,18.1-7.5,23.2C420.7,537.5,428.1,538.9,432.6,537.7z"/>
				
					<linearGradient id="SVGID_9_" gradientUnits="userSpaceOnUse" x1="444.2764" y1="69.2677" x2="437.8738" y2="52.8039" gradientTransform="matrix(1 0 0 -1 0 602)">
					<stop  offset="0" style="stop-color:#60A1E3"/>
					<stop  offset="1" style="stop-color:#5D5FD0"/>
				</linearGradient>
				<path class="st23" d="M462.4,548.1c-0.2-4.9-27.2-11.1-27.2-11.1s0,0,0-0.1c-0.8,0.2-1.6,0.4-2.6,0.6
					c-4.5,1.1-11.9-0.3-15.3-1.1c-0.4,3.4,0.3,7.2,3.7,8.6c8.2,3.4,31.1,6.6,31.1,6.6l-4.5,21.9l5.9,0.6
					C453.5,574.2,462.7,553,462.4,548.1z"/>
			</g>
			
				<linearGradient id="SVGID_10_" gradientUnits="userSpaceOnUse" x1="450.665" y1="91.6455" x2="441.7751" y2="73.3427" gradientTransform="matrix(1 0 0 -1 0 602)">
				<stop  offset="0" style="stop-color:#92D2FF"/>
				<stop  offset="1" style="stop-color:#28A0FF"/>
			</linearGradient>
			<path class="st24" d="M440,525.9c-0.4-5-0.9-10.1-1.3-15.1c-1.7-3.6-3.6-3.7-5.8-1.5c-0.4,5.5-0.1,11.1,1.2,16.5
				c0.2,0.9,0.4,1.8,0.9,2.5c0.5,0.8,1.2,1.4,2,1.9c5.6,4,12.3,5.6,19,6.8c0.2-1.2,0.7-2.7,0.9-4C451.3,530.5,445.7,527.9,440,525.9
				z"/>
		</g>
		<path class="st5" d="M462,538c0,0.8-0.6,1.4-1.4,1.5c-0.8,0-1.4-0.6-1.5-1.4c0-0.8,0.6-1.4,1.4-1.5C461.3,536.6,462,537.2,462,538
			z"/>
	</g>
	<g>
		<rect x="333.4" y="551.7" class="st25" width="32.4" height="0.3"/>
	</g>
	<g>
		<rect x="341.7" y="557" class="st25" width="23.5" height="0.3"/>
	</g>
	<g>
		<rect x="343.6" y="546.6" class="st25" width="23.5" height="0.3"/>
	</g>
</g>
<g>
	<g>
		<path class="st26" d="M1302.5,595.5h-46.3V398.8c18.1-18.1,28.2-28.2,46.3-46.3l0,0V595.5z"/>
		<rect x="1265" y="401.7" class="st1" width="8.9" height="12"/>
		<rect x="1284.9" y="401.7" class="st1" width="8.9" height="12"/>
		<polygon class="st1" points="1273.9,434.4 1265,435.2 1265,423.2 1273.9,422.4 		"/>
		<rect x="1284.9" y="422.4" class="st1" width="8.9" height="12"/>
		<polygon class="st1" points="1273.9,455.9 1265,456.7 1265,444.7 1273.9,443.8 		"/>
		<rect x="1284.9" y="443.8" class="st1" width="8.9" height="12"/>
		<rect x="1265" y="465.3" class="st1" width="8.9" height="12"/>
		<polygon class="st1" points="1293.7,478.2 1284.9,478.2 1284.9,465.3 1293.7,466.1 		"/>
	</g>
	<g>
		<g>
			<g>
				<rect x="1302.7" y="335.3" class="st27" width="55.7" height="260.2"/>
				<rect x="1319.5" y="323.5" class="st27" width="22" height="11.8"/>
			</g>
			<rect x="1329.7" y="297.7" class="st27" width="1.7" height="25.9"/>
		</g>
		<rect x="1311.6" y="356.4" class="st1" width="8.9" height="12"/>
		<rect x="1338" y="357.8" class="st1" width="8.9" height="12"/>
		<rect x="1311.6" y="376.9" class="st1" width="8.9" height="12"/>
		<rect x="1337.1" y="377.5" class="st1" width="8.9" height="12"/>
		<rect x="1311.6" y="397.5" class="st1" width="8.9" height="12"/>
		<rect x="1337.1" y="398" class="st1" width="8.9" height="12"/>
		<rect x="1311.6" y="418.1" class="st1" width="8.9" height="12"/>
		<rect x="1337.1" y="418.6" class="st1" width="8.9" height="12"/>
		<rect x="1311.6" y="438.6" class="st1" width="8.9" height="12"/>
		<rect x="1337.1" y="439.2" class="st1" width="8.9" height="12"/>
		<rect x="1311.6" y="459.2" class="st1" width="8.9" height="12"/>
		<rect x="1337.1" y="459.7" class="st1" width="8.9" height="12"/>
	</g>
	<g>
		<rect x="1358.4" y="413.7" class="st26" width="39.8" height="181.7"/>
		<rect x="1365.3" y="439.4" class="st1" width="8.9" height="12"/>
		<rect x="1381.9" y="439.4" class="st1" width="8.9" height="12"/>
		<rect x="1365.3" y="458.8" class="st1" width="8.9" height="12"/>
		<rect x="1381.9" y="458.8" class="st1" width="8.9" height="12"/>
		<rect x="1365.3" y="478.2" class="st1" width="8.9" height="12"/>
		<rect x="1381.9" y="478.2" class="st1" width="8.9" height="12"/>
		<rect x="1365.3" y="497.6" class="st1" width="8.9" height="12"/>
		<rect x="1381.9" y="497.6" class="st1" width="8.9" height="12"/>
	</g>
	<g>
		<path class="st27" d="M1441.6,595.5h-43.4V400.4l0,0c24,0,43.4,19.4,43.4,43.4V595.5z"/>
		<rect x="1405.5" y="452.7" class="st1" width="8.9" height="12"/>
		<rect x="1425.4" y="452.7" class="st1" width="8.9" height="12"/>
		<rect x="1405.5" y="474.2" class="st1" width="8.9" height="12"/>
		<rect x="1425.4" y="474.2" class="st1" width="8.9" height="12"/>
		<rect x="1405.5" y="495.7" class="st1" width="8.9" height="12"/>
		<rect x="1425.4" y="495.7" class="st1" width="8.9" height="12"/>
		<rect x="1405.5" y="517.2" class="st1" width="8.9" height="12"/>
		<rect x="1425.4" y="517.2" class="st1" width="8.9" height="12"/>
	</g>
	<g>
		<rect x="1203.9" y="435.2" class="st27" width="52.3" height="160.3"/>
		<rect x="1214.2" y="456.4" class="st1" width="8.9" height="12"/>
		<rect x="1234" y="456.4" class="st1" width="8.9" height="12"/>
		<rect x="1214.2" y="478.9" class="st1" width="8.9" height="12"/>
		<rect x="1234" y="478.9" class="st1" width="8.9" height="12"/>
		<rect x="1214.2" y="501.5" class="st1" width="8.9" height="12"/>
		<rect x="1234" y="501.5" class="st1" width="8.9" height="12"/>
		<rect x="1214.2" y="524.1" class="st1" width="8.9" height="12"/>
		<rect x="1234" y="524.1" class="st1" width="8.9" height="12"/>
	</g>
</g>
<g>
	
		<linearGradient id="SVGID_11_" gradientUnits="userSpaceOnUse" x1="1305.7001" y1="164" x2="1353.7001" y2="164" gradientTransform="matrix(1 0 0 -1 0 602)">
		<stop  offset="0" style="stop-color:#FFC572"/>
		<stop  offset="1" style="stop-color:#FF4EB3"/>
	</linearGradient>
	<path class="st28" d="M1352.9,431.2L1352.9,431.2c0.5-1.9,0.8-4,0.8-6.1c0-13.2-10.7-24-24-24s-24,10.7-24,24
		c0,2.1,0.3,4.2,0.8,6.1l0,0l0,0c0.6,2.4,1.6,4.6,2.8,6.6c4.3,9.5,10.1,20.4,20.4,37.1c9.3-15.9,16.7-29.2,20.7-37.6
		C1351.5,435.4,1352.3,433.3,1352.9,431.2L1352.9,431.2z"/>
	
		<ellipse transform="matrix(0.9239 -0.3827 0.3827 0.9239 -61.4485 541.2392)" class="st1" cx="1329.7" cy="425.1" rx="11.4" ry="11.4"/>
</g>
<g>
	<g>
		
			<linearGradient id="SVGID_12_" gradientUnits="userSpaceOnUse" x1="1256.9485" y1="101.7541" x2="1428.4713" y2="59.9191" gradientTransform="matrix(1 0 0 -1 0 602)">
			<stop  offset="0" style="stop-color:#68D2FF"/>
			<stop  offset="1" style="stop-color:#2287D9"/>
		</linearGradient>
		<polygon class="st29" points="1328.3,534.8 1386.2,534.8 1357.3,510.6 1328.3,486.4 1299.4,510.6 1270.5,534.8 		"/>
		
			<linearGradient id="SVGID_13_" gradientUnits="userSpaceOnUse" x1="1246.0133" y1="56.92" x2="1417.5366" y2="15.0849" gradientTransform="matrix(1 0 0 -1 0 602)">
			<stop  offset="0" style="stop-color:#68D2FF"/>
			<stop  offset="1" style="stop-color:#2287D9"/>
		</linearGradient>
		<rect x="1282.3" y="534.8" class="st30" width="92" height="60.7"/>
	</g>
	<g>
		<rect x="1322.9" y="514.2" class="st1" width="5.7" height="6.5"/>
		<rect x="1330.5" y="514.2" class="st1" width="5.7" height="6.5"/>
		<rect x="1322.9" y="522.2" class="st1" width="5.7" height="6.5"/>
		<rect x="1330.5" y="522.2" class="st1" width="5.7" height="6.5"/>
	</g>
	<rect x="1318.7" y="554.3" class="st1" width="23.7" height="41.1"/>
</g>
<g>
	<g>
		<rect x="772.9" y="446.8" class="st31" width="223.5" height="111.5"/>
		<rect x="775.7" y="446.8" class="st1" width="1.6" height="111.5"/>
		<rect x="780.2" y="446.8" class="st1" width="1.6" height="111.5"/>
		<rect x="784.7" y="446.8" class="st1" width="1.6" height="111.5"/>
		<rect x="789.2" y="446.8" class="st1" width="1.6" height="111.5"/>
		<rect x="793.8" y="446.8" class="st1" width="1.6" height="111.5"/>
		<rect x="798.3" y="446.8" class="st1" width="1.6" height="111.5"/>
		<rect x="802.8" y="446.8" class="st1" width="1.6" height="111.5"/>
		<rect x="807.3" y="446.8" class="st1" width="1.6" height="111.5"/>
		<rect x="811.8" y="446.8" class="st1" width="1.6" height="111.5"/>
		<rect x="816.3" y="446.8" class="st1" width="1.6" height="111.5"/>
		<rect x="820.8" y="446.8" class="st1" width="1.6" height="111.5"/>
		<rect x="825.3" y="446.8" class="st1" width="1.6" height="111.5"/>
		<rect x="829.8" y="446.8" class="st1" width="1.6" height="111.5"/>
		<rect x="834.3" y="446.8" class="st1" width="1.6" height="111.5"/>
		<rect x="838.8" y="446.8" class="st1" width="1.6" height="111.5"/>
		<rect x="843.3" y="446.8" class="st1" width="1.6" height="111.5"/>
		<rect x="847.9" y="446.8" class="st1" width="1.6" height="111.5"/>
		<rect x="852.4" y="446.8" class="st1" width="1.6" height="111.5"/>
		<rect x="856.9" y="446.8" class="st1" width="1.6" height="111.5"/>
		<rect x="861.4" y="446.8" class="st1" width="1.6" height="111.5"/>
		<rect x="865.9" y="446.8" class="st1" width="1.6" height="111.5"/>
		<rect x="870.4" y="446.8" class="st1" width="1.6" height="111.5"/>
		<rect x="874.9" y="446.8" class="st1" width="1.6" height="111.5"/>
		<rect x="879.4" y="446.8" class="st1" width="1.6" height="111.5"/>
		<rect x="883.9" y="446.8" class="st1" width="1.6" height="111.5"/>
		<rect x="888.4" y="446.8" class="st1" width="1.6" height="111.5"/>
		<rect x="892.9" y="446.8" class="st1" width="1.6" height="111.5"/>
		<rect x="897.5" y="446.8" class="st1" width="1.6" height="111.5"/>
		<rect x="902" y="446.8" class="st1" width="1.6" height="111.5"/>
		<rect x="906.5" y="446.8" class="st1" width="1.6" height="111.5"/>
		<rect x="911" y="446.8" class="st1" width="1.6" height="111.5"/>
		<rect x="915.5" y="446.8" class="st1" width="1.6" height="111.5"/>
		<rect x="920" y="446.8" class="st1" width="1.6" height="111.5"/>
		<rect x="924.5" y="446.8" class="st1" width="1.6" height="111.5"/>
		<rect x="929" y="446.8" class="st1" width="1.6" height="111.5"/>
		<rect x="933.5" y="446.8" class="st1" width="1.6" height="111.5"/>
		<rect x="938" y="446.8" class="st1" width="1.6" height="111.5"/>
		<rect x="942.5" y="446.8" class="st1" width="1.6" height="111.5"/>
		<rect x="947" y="446.8" class="st1" width="1.6" height="111.5"/>
		<rect x="951.6" y="446.8" class="st1" width="1.6" height="111.5"/>
		<rect x="956.1" y="446.8" class="st1" width="1.6" height="111.5"/>
		<rect x="960.6" y="446.8" class="st1" width="1.6" height="111.5"/>
		<rect x="965.1" y="446.8" class="st1" width="1.6" height="111.5"/>
		<rect x="969.6" y="446.8" class="st1" width="1.6" height="111.5"/>
		<rect x="974.1" y="446.8" class="st1" width="1.6" height="111.5"/>
		<rect x="978.6" y="446.8" class="st1" width="1.6" height="111.5"/>
		<rect x="983.1" y="446.8" class="st1" width="1.6" height="111.5"/>
		<rect x="987.6" y="446.8" class="st1" width="1.6" height="111.5"/>
		<rect x="992.1" y="446.8" class="st1" width="1.6" height="111.5"/>
		<rect x="771.8" y="446.8" class="st32" width="223.5" height="111.5"/>
	</g>
	<g>
		<g>
			<path class="st5" d="M996.4,591.3L996.4,591.3v-12.6h3.9v8.7C1000.3,589.5,998.6,591.3,996.4,591.3z"/>
			<g>
				
					<linearGradient id="SVGID_14_" gradientUnits="userSpaceOnUse" x1="773" y1="34.55" x2="996.4" y2="34.55" gradientTransform="matrix(1 0 0 -1 0 602)">
					<stop  offset="0" style="stop-color:#68D2FF"/>
					<stop  offset="1" style="stop-color:#2287D9"/>
				</linearGradient>
				<path class="st33" d="M996.4,558.3v18.3H884.6c-0.7-4.1-2.6-7.7-5.4-10.5c-3.5-3.5-8.3-5.7-13.7-5.7c-9.6,0-17.6,7-19.1,16.2
					H773v-18.3H996.4z"/>
				
					<linearGradient id="SVGID_15_" gradientUnits="userSpaceOnUse" x1="884.6" y1="23.15" x2="996.4" y2="23.15" gradientTransform="matrix(1 0 0 -1 0 602)">
					<stop  offset="0" style="stop-color:#68D2FF"/>
					<stop  offset="1" style="stop-color:#2287D9"/>
				</linearGradient>
				<path class="st34" d="M996.4,576.6v4.5H884.9v-1.3c0-1.1-0.1-2.2-0.3-3.2H996.4z"/>
				
					<linearGradient id="SVGID_16_" gradientUnits="userSpaceOnUse" x1="996.4" y1="67" x2="1065.4276" y2="67" gradientTransform="matrix(1 0 0 -1 0 602)">
					<stop  offset="0" style="stop-color:#68D2FF"/>
					<stop  offset="1" style="stop-color:#2287D9"/>
				</linearGradient>
				<path class="st35" d="M1043.1,495.8l-46.7-4.9V555v24.1h3.8v-0.2c0-10.3,8.4-18.7,18.7-18.7l0,0c10.3,0,18.7,8.4,18.7,18.7v0.2
					h27.9v-48.5L1043.1,495.8z"/>
				
					<linearGradient id="SVGID_17_" gradientUnits="userSpaceOnUse" x1="1061.6113" y1="48.15" x2="1065.4462" y2="48.15" gradientTransform="matrix(1 0 0 -1 0 602)">
					<stop  offset="0" style="stop-color:#FFC572"/>
					<stop  offset="1" style="stop-color:#FF4EB3"/>
				</linearGradient>
				<rect x="1061.6" y="549.4" class="st36" width="3.8" height="8.9"/>
				
					<linearGradient id="SVGID_18_" gradientUnits="userSpaceOnUse" x1="1034.0398" y1="52.5148" x2="1033.2554" y2="90.1662" gradientTransform="matrix(1 0 0 -1 0 602)">
					<stop  offset="0" style="stop-color:#D2DFEF"/>
					<stop  offset="0.3567" style="stop-color:#D9E3F0"/>
					<stop  offset="0.8722" style="stop-color:#ECEFF1"/>
					<stop  offset="1" style="stop-color:#F2F2F2"/>
				</linearGradient>
				<path class="st37" d="M1007.4,515.9v-14c0-1.9,1.7-3.4,3.6-3.2l25.8,2.9c1.7,0.2,3.3,1.1,4.3,2.6l18.5,27h-21.4l-27.7-11
					C1008.6,519.6,1007.4,517.9,1007.4,515.9z"/>
				
					<linearGradient id="SVGID_19_" gradientUnits="userSpaceOnUse" x1="1006.4" y1="69.4" x2="1018.9506" y2="69.4" gradientTransform="matrix(1 0 0 -1 0 602)">
					<stop  offset="0" style="stop-color:#FFC572"/>
					<stop  offset="1" style="stop-color:#FF4EB3"/>
				</linearGradient>
				<rect x="1006.4" y="531.9" class="st38" width="12.6" height="1.4"/>
				<polygon class="st5" points="1037.8,556.7 996.3,556.7 996.3,555.8 1037,555.8 1037,531.3 1037.8,531.3 				"/>
				
					<rect x="1037.1" y="498.7" transform="matrix(0.5098 -0.8603 0.8603 0.5098 80.9949 1140.2953)" class="st5" width="7.9" height="0.8"/>
			</g>
			
				<linearGradient id="SVGID_20_" gradientUnits="userSpaceOnUse" x1="773" y1="23.15" x2="846.5" y2="23.15" gradientTransform="matrix(1 0 0 -1 0 602)">
				<stop  offset="0" style="stop-color:#68D2FF"/>
				<stop  offset="1" style="stop-color:#2287D9"/>
			</linearGradient>
			<path class="st39" d="M773,576.6h73.5c-0.2,1-0.3,2.1-0.3,3.2v1.3H773V576.6z"/>
		</g>
		<g>
			<ellipse class="st5" cx="865.3" cy="579.1" rx="15.6" ry="15.6"/>
			
				<linearGradient id="SVGID_21_" gradientUnits="userSpaceOnUse" x1="857.1429" y1="22.9" x2="873.4411" y2="22.9" gradientTransform="matrix(1 0 0 -1 0 602)">
				<stop  offset="0" style="stop-color:#60A1E3"/>
				<stop  offset="1" style="stop-color:#5D5FD0"/>
			</linearGradient>
			<circle class="st40" cx="865.3" cy="579.1" r="8.1"/>
			<path class="st5" d="M868.3,579.1c0,1.6-1.3,3-3,3s-3-1.3-3-3s1.3-3,3-3S868.3,577.4,868.3,579.1z"/>
		</g>
		<g>
			<ellipse class="st5" cx="1019.1" cy="579.1" rx="15.6" ry="15.6"/>
			
				<linearGradient id="SVGID_22_" gradientUnits="userSpaceOnUse" x1="1010.959" y1="22.9" x2="1027.2573" y2="22.9" gradientTransform="matrix(1 0 0 -1 0 602)">
				<stop  offset="0" style="stop-color:#60A1E3"/>
				<stop  offset="1" style="stop-color:#5D5FD0"/>
			</linearGradient>
			<circle class="st41" cx="1019.1" cy="579.1" r="8.1"/>
			<circle class="st5" cx="1019.1" cy="578.6" r="3"/>
		</g>
	</g>
</g>
<g>
	<g class="st42">
		<g class="st42">
			<g>
				<defs>
					<path id="SVGID_23_" d="M168.7,599.5l-11.6,0.3c0,0,0,0-0.1,0L168.7,599.5L168.7,599.5z"/>
				</defs>
				<clipPath id="SVGID_24_">
					<use xlink:href="#SVGID_23_"  style="overflow:visible;"/>
				</clipPath>
				<g class="st43">
					<path class="st44" d="M168.7,599.5l-11.6,0.3c0,0,0,0-0.1,0L168.7,599.5L168.7,599.5"/>
				</g>
			</g>
		</g>
		
			<linearGradient id="SVGID_25_" gradientUnits="userSpaceOnUse" x1="157.9665" y1="13.3267" x2="160.3198" y2="208.6436" gradientTransform="matrix(1 0 0 -1 0 602)">
			<stop  offset="0" style="stop-color:#68D2FF"/>
			<stop  offset="1" style="stop-color:#2287D9"/>
		</linearGradient>
		<path class="st45" d="M168.7,587.1L168.7,587.1L168.7,587.1l-3.6-200.9l-0.8-47.5c0-0.1,0-0.2,0-0.3c0-0.1,0-0.2,0-0.3V338l0,0
			c0,0,0,0,0-0.1s0-0.1,0-0.2s0-0.2,0-0.2v-0.1l0,0v-0.1c0-0.1,0-0.2,0-0.2c0-0.1,0-0.2,0-0.2l0,0l0,0c0-0.1,0-0.1,0-0.2
			s0-0.2,0-0.3v-0.1c0,0,0,0,0-0.1v-0.1c0-0.1,0-0.2,0-0.3c0-0.1,0-0.1,0-0.2l0,0l0,0c0-0.1,0-0.2-0.1-0.2c0-0.1,0-0.2-0.1-0.3l0,0
			l0,0c0-0.1,0-0.1-0.1-0.2c0-0.1-0.1-0.2-0.1-0.3l0,0l0,0c0-0.1,0-0.1-0.1-0.2c0-0.1-0.1-0.2-0.1-0.2l0,0l0,0
			c0-0.1-0.1-0.2-0.1-0.3v-0.1v-0.1v-0.1c0-0.1-0.1-0.1-0.1-0.1s0-0.1-0.1-0.1l0,0c0,0,0-0.1-0.1-0.1c0-0.1-0.1-0.1-0.1-0.2l0,0
			c0,0,0,0-0.1-0.1s-0.1-0.1-0.2-0.2l-0.1-0.1c-0.1,0-0.1-0.1-0.2-0.1c0,0-0.1,0-0.1-0.1c-0.1,0-0.1-0.1-0.2-0.1h-0.1
			c-0.1,0-0.2,0-0.3-0.1l-11.6,0.3c0.1,0,0.2,0,0.3,0.1h0.1c0.1,0,0.1,0.1,0.2,0.1c0,0,0.1,0,0.1,0.1c0.1,0,0.1,0.1,0.2,0.1l0.1,0.1
			c0.1,0.1,0.1,0.1,0.2,0.2l0.1,0.1c0,0.1,0.1,0.1,0.1,0.2l0.1,0.1c0,0,0,0.1,0.1,0.1c0,0.1,0.1,0.2,0.1,0.2v0.1
			c0.1,0.1,0.1,0.2,0.2,0.4l0,0c0.1,0.1,0.1,0.3,0.2,0.4l0,0c0.1,0.2,0.1,0.3,0.1,0.5l0,0c0,0.2,0.1,0.3,0.1,0.5l0,0
			c0,0.2,0.1,0.4,0.1,0.5c0,0,0,0,0,0.1c0,0.2,0.1,0.4,0.1,0.6l0,0c0,0.2,0,0.4,0.1,0.6l0,0c0,0.2,0,0.4,0,0.6l0,0
			c0,0.2,0,0.4,0,0.7l0.8,47.5l3.6,200.9l0,0c0,0.3,0,0.7,0,1c0,0.1,0,0.1,0,0.2v0.1c0,0.2,0,0.3,0,0.5l0,0c0,0.2,0,0.4-0.1,0.5l0,0
			c0,0.2,0,0.3-0.1,0.5c0,0,0,0,0,0.1c0,0.2-0.1,0.3-0.1,0.5v0.1c0,0.1-0.1,0.3-0.1,0.4c0,0,0,0,0,0.1s-0.1,0.3-0.1,0.4l0,0
			c0,0.1-0.1,0.3-0.1,0.4l0,0c0,0.1-0.1,0.2-0.1,0.3c0,0,0,0,0,0.1s-0.1,0.2-0.1,0.3c0,0,0,0,0,0.1s-0.1,0.2-0.1,0.2l0,0
			c-0.1,0.1-0.1,0.2-0.2,0.2c0,0,0,0-0.1,0.1l-0.1,0.1c0,0,0,0-0.1,0.1l-0.1,0.1c0,0-0.1,0-0.1,0.1c-0.1,0-0.1,0.1-0.2,0.1
			c-0.1,0-0.2,0-0.3,0l11.6-0.3h0.1h0.1c0,0,0.1,0,0.1-0.1l0,0c0,0,0.1,0,0.1-0.1c0,0,0,0,0.1,0l0,0c0,0,0,0,0.1-0.1c0,0,0,0,0.1,0
			c0,0,0-0.1,0.1-0.1c0,0,0,0,0.1-0.1l0,0c0-0.1,0.1-0.1,0.1-0.2l0,0l0,0l0.1-0.1c0,0,0-0.1,0.1-0.1c0,0,0,0,0-0.1l0,0
			c0-0.1,0.1-0.1,0.1-0.2c0,0,0,0,0-0.1c0,0,0,0,0-0.1v-0.1c0-0.1,0.1-0.1,0.1-0.2l0,0l0,0c0-0.1,0-0.1,0.1-0.2c0-0.1,0-0.1,0.1-0.2
			l0,0l0,0c0-0.1,0-0.2,0.1-0.2c0-0.1,0-0.1,0-0.2c0,0,0,0,0-0.1l0,0c0-0.1,0-0.2,0.1-0.3v-0.1v-0.1v-0.1c0-0.1,0-0.2,0.1-0.3l0,0
			c0,0,0,0,0-0.1s0-0.1,0-0.2c0-0.1,0-0.2,0-0.3l0,0l0,0c0-0.1,0-0.2,0-0.3s0-0.1,0-0.2l0,0l0,0c0-0.1,0-0.2,0-0.3s0-0.1,0-0.2v-0.1
			v-0.1v-0.1C168.7,587.8,168.7,587.5,168.7,587.1z"/>
		<g>
			
				<linearGradient id="SVGID_26_" gradientUnits="userSpaceOnUse" x1="106.9" y1="270.3" x2="161.711" y2="270.3" gradientTransform="matrix(1 0 0 -1 0 602)">
				<stop  offset="0" style="stop-color:#68D2FF"/>
				<stop  offset="1" style="stop-color:#2287D9"/>
			</linearGradient>
			<polygon class="st46" points="161.8,332.1 150.1,332.4 106.9,331.2 118.6,331 			"/>
		</g>
		<g class="st42">
			<g>
				<defs>
					
						<rect id="SVGID_27_" x="106.9" y="331.1" transform="matrix(0.9997 -2.585238e-02 2.585238e-02 0.9997 -8.5208 3.0242)" width="11.6" height="0"/>
				</defs>
				<clipPath id="SVGID_28_">
					<use xlink:href="#SVGID_27_"  style="overflow:visible;"/>
				</clipPath>
				<g class="st47">
					<path class="st44" d="M118.6,331l-11.6,0.3l0,0L118.6,331C118.5,331,118.6,331,118.6,331"/>
				</g>
			</g>
		</g>
		<g>
			
				<linearGradient id="SVGID_29_" gradientUnits="userSpaceOnUse" x1="109.4" y1="3" x2="168.6323" y2="3" gradientTransform="matrix(1 0 0 -1 0 602)">
				<stop  offset="0" style="stop-color:#68D2FF"/>
				<stop  offset="1" style="stop-color:#2287D9"/>
			</linearGradient>
			<polygon class="st48" points="168.7,599.5 157,599.8 109.4,598.5 121.1,598.2 			"/>
		</g>
		<g>
			<path class="st49" d="M163.8,326.4c1.5,0,2.7,3.2,2.8,7.2l4.6,259c0.1,3.6-0.9,6.6-2.2,7c-0.1,0-0.2,0-0.3,0l-47.6-1.3
				c-1.5,0-2.7-3.2-2.8-7.2l-4.6-259c-0.1-3.6,0.9-6.6,2.2-7c0.1,0,0.2,0,0.3,0L163.8,326.4z M164.3,338.8c-0.1-3.7-1.2-6.6-2.6-6.7
				l-43.2-1.2c-0.1,0-0.2,0-0.3,0c-1.2,0.4-2.1,3.1-2,6.5l0.8,47.5l3.6,200.8c0.1,3.7,1.2,6.6,2.6,6.7l43.2,1.2c0.1,0,0.2,0,0.3,0
				c1.2-0.4,2.1-3.1,2-6.5l-3.6-200.9L164.3,338.8"/>
		</g>
		
			<linearGradient id="SVGID_30_" gradientUnits="userSpaceOnUse" x1="110.2668" y1="264.3948" x2="113.4044" y2="3.1877" gradientTransform="matrix(1 0 0 -1 0 602)">
			<stop  offset="0" style="stop-color:#68D2FF"/>
			<stop  offset="1" style="stop-color:#2287D9"/>
		</linearGradient>
		<path class="st50" d="M108.9,598.3c0.1,0,0.1,0.1,0.2,0.1h0.1c0.1,0,0.2,0.1,0.3,0.1l11.6-0.3c-0.1,0-0.2,0-0.3-0.1h-0.1
			c-0.1,0-0.1-0.1-0.2-0.1c0,0-0.1,0-0.1-0.1c-0.1,0-0.1-0.1-0.2-0.1l-0.1-0.1c-0.1-0.1-0.1-0.1-0.2-0.2l-0.1-0.1
			c0-0.1-0.1-0.1-0.1-0.2c0-0.1-0.1-0.1-0.1-0.2c0,0,0-0.1-0.1-0.1c0-0.1-0.1-0.2-0.1-0.3c0,0,0-0.1-0.1-0.1
			c-0.1-0.1-0.1-0.3-0.2-0.4l0,0c-0.1-0.1-0.1-0.3-0.2-0.5l0,0c-0.1-0.2-0.1-0.3-0.2-0.5l0,0c0-0.2-0.1-0.4-0.1-0.6l0,0
			c0-0.2-0.1-0.4-0.1-0.6c0,0,0,0,0-0.1c0-0.2-0.1-0.4-0.1-0.6l0,0c0-0.2-0.1-0.4-0.1-0.6l0,0c0-0.2,0-0.4,0-0.7l0,0
			c0-0.2,0-0.5,0-0.7l-4.6-259l0,0c0-0.4,0-0.7,0-1.1c0-0.1,0-0.1,0-0.2v-0.1c0-0.2,0-0.4,0-0.5l0,0c0-0.2,0-0.4,0.1-0.6l0,0
			c0-0.2,0-0.3,0.1-0.5v-0.1c0-0.2,0.1-0.3,0.1-0.5v-0.1c0-0.2,0.1-0.3,0.1-0.5c0,0,0,0,0-0.1c0-0.2,0.1-0.3,0.1-0.4l0,0
			c0-0.1,0.1-0.3,0.1-0.4l0,0c0-0.1,0.1-0.2,0.2-0.4c0,0,0,0,0-0.1c0.1-0.1,0.1-0.2,0.2-0.3c0,0,0,0,0-0.1c0.1-0.1,0.1-0.2,0.2-0.3
			l0,0c0.1-0.1,0.1-0.2,0.2-0.2c0,0,0,0,0.1-0.1l0.1-0.1c0,0,0.1,0,0.1-0.1l0.1-0.1c0,0,0.1,0,0.1-0.1c0.1,0,0.1-0.1,0.2-0.1
			s0.2,0,0.3,0l-11.6,0.3h-0.1h-0.1c-0.1,0-0.1,0-0.2,0.1l0,0c0,0-0.1,0-0.1,0.1c0,0,0,0-0.1,0l0,0c0,0-0.1,0-0.1,0.1
			c0,0,0,0-0.1,0.1l-0.1,0.1c0,0,0,0-0.1,0.1l0,0c0,0.1-0.1,0.1-0.1,0.2l0,0l0,0l-0.1,0.1c0,0,0,0.1-0.1,0.1c0,0,0,0,0,0.1l0,0
			c0,0.1-0.1,0.1-0.1,0.2c0,0,0,0,0,0.1c0,0,0,0,0,0.1v0.1c0,0.1-0.1,0.2-0.1,0.2l0,0l0,0c0,0.1,0,0.1-0.1,0.2c0,0.1,0,0.1-0.1,0.2
			l0,0l0,0c0,0.1-0.1,0.2-0.1,0.3c0,0.1,0,0.1,0,0.2c0,0,0,0,0,0.1l0,0c0,0.1,0,0.2-0.1,0.3v0.1v0.1v0.1c0,0.1,0,0.2-0.1,0.3
			c0,0,0,0,0,0.1v0.1c0,0.1,0,0.1,0,0.2s0,0.2,0,0.3l0,0l0,0c0,0.1,0,0.2,0,0.3c0,0.1,0,0.2,0,0.2s0,0,0,0.1l0,0c0,0.1,0,0.2,0,0.3
			c0,0.1,0,0.1,0,0.2v0.1v0.1v0.1c0,0.4,0,0.7,0,1.1l0,0l0,0l4.6,259c0,0.1,0,0.2,0,0.3s0,0.2,0,0.3v0.1l0,0v0.1c0,0.1,0,0.2,0,0.2
			c0,0.1,0,0.2,0,0.2v0.1l0,0v0.1c0,0.1,0,0.2,0,0.3s0,0.2,0,0.3l0,0l0,0c0,0.1,0,0.1,0,0.2c0,0.1,0,0.2,0,0.3v0.1c0,0,0,0,0,0.1
			v0.1c0,0.1,0,0.2,0.1,0.3c0,0.1,0,0.1,0,0.2l0,0l0,0c0,0.1,0,0.2,0.1,0.3c0,0.1,0,0.2,0.1,0.3l0,0l0,0c0,0.1,0,0.2,0.1,0.2
			c0,0.1,0.1,0.2,0.1,0.3l0,0l0,0c0,0.1,0,0.1,0.1,0.2c0,0.1,0.1,0.2,0.1,0.2l0,0l0,0c0,0.1,0.1,0.2,0.1,0.3v0.1c0,0,0,0.1,0.1,0.1
			c0,0,0,0.1,0.1,0.1c0,0.1,0.1,0.1,0.1,0.2c0,0,0,0.1,0.1,0.1c0,0,0,0,0,0.1c0,0,0,0.1,0.1,0.1c0,0.1,0.1,0.1,0.1,0.2
			c0,0,0,0,0,0.1c0,0,0,0,0.1,0.1s0.1,0.1,0.2,0.2l0.1,0.1c0.1,0.1,0.1,0.1,0.2,0.1C108.8,598.2,108.8,598.3,108.9,598.3z"/>
	</g>
</g>
<g>
	<g>
		<path class="st1" d="M138.6,333.8L138.6,333.8l5.1,0.1c0.2,0,0.3,0.4,0.3,0.9s-0.1,0.9-0.2,0.9l0,0l-5.1-0.1
			c-0.2,0-0.3-0.4-0.3-0.9C138.4,334.2,138.5,333.8,138.6,333.8z"/>
	</g>
	<g>
		
			<linearGradient id="SVGID_31_" gradientUnits="userSpaceOnUse" x1="133.2302" y1="266.7" x2="149.2378" y2="266.7" gradientTransform="matrix(1 0 0 -1 0 602)">
			<stop  offset="0" style="stop-color:#68D2FF"/>
			<stop  offset="1" style="stop-color:#2287D9"/>
		</linearGradient>
		<path class="st51" d="M133.2,331.2l16,0.5c0.1,4-0.8,7.3-1.9,7.7c-0.1,0-0.1,0-0.2,0l-11.3-0.2
			C134.5,339.2,133.3,335.5,133.2,331.2z M143.8,335.7c0.1,0,0.2-0.4,0.2-0.9s-0.1-0.9-0.3-0.9l-5.1-0.1l0,0c-0.1,0-0.2,0.4-0.2,0.9
			s0.1,0.9,0.3,0.9L143.8,335.7L143.8,335.7"/>
	</g>
</g>
<path class="st52" d="M233.2,310.9c-2.2,0-4.3,0.6-6.2,1.7c-1.6-4.8-6.2-8.2-11.5-8.2c-0.9,0-1.7,0.1-2.5,0.3
	c-2.1-8.4-9.7-14.7-18.8-14.7c-9,0-16.5,6.1-18.7,14.4c-0.4,0-0.8-0.1-1.2-0.1c-3,0-5.7,0.8-8.1,2.2c-2.2-1.4-4.8-2.2-7.6-2.2
	c-8.1,0-14.6,6.5-14.6,14.6h14.2h15h4.3h10.2h2.8h2.7h10.5h7.4h10.6h0.3h5.5h17.3C243,314.2,238.5,310.9,233.2,310.9z"/>
<path class="st1" d="M434.4,358.6c2.2,0,4.3,0.6,6.2,1.7c1.6-4.8,6.2-8.2,11.5-8.2c0.9,0,1.7,0.1,2.5,0.3
	c2.1-8.4,9.7-14.7,18.8-14.7c9,0,16.5,6.1,18.7,14.4c0.4,0,0.8-0.1,1.2-0.1c3,0,5.7,0.8,8.1,2.2c2.2-1.4,4.8-2.2,7.6-2.2
	c8.1,0,14.6,6.5,14.6,14.6h-14.2h-15h-4.3H480h-2.8h-2.7H464h-7.4H446h-0.3h-5.5h-17.3C424.7,361.9,429.2,358.6,434.4,358.6z"/>
<linearGradient id="SVGID_32_" gradientUnits="userSpaceOnUse" x1="648.6688" y1="1.2307" x2="604.8802" y2="30.9739" gradientTransform="matrix(1 0 0 -1 0 602)">
	<stop  offset="0" style="stop-color:#AEC9E8"/>
	<stop  offset="0.2148" style="stop-color:#B5CDE9"/>
	<stop  offset="0.5259" style="stop-color:#C8D9EC"/>
	<stop  offset="0.8942" style="stop-color:#E8ECF0"/>
	<stop  offset="1" style="stop-color:#F2F2F2"/>
</linearGradient>
<path class="st53" d="M606.6,595.1c-1.2-1.3-1.3-3.4-0.2-4.7s3.1-1.9,4.6-1.1c-0.3-1.3-0.1-2.9,1-3.7c1-0.9,2.9-0.8,3.5,0.4
	c-0.3-1.5,0.2-3.2,1.5-4.1c1.3-0.9,3.2-0.7,4.1,0.6c0-1.8,0.1-3.8,1.3-5.2s3.8-1.6,4.5,0c0.7-1.6,2.4-2.8,4.2-2.7
	c1.8,0,3.5,1.2,4.1,2.9c1.6-1.7,4.2-2.5,6.5-1.9s4.2,2.5,4.8,4.8c0.1,0.5,0.3,1,0.8,1.1c0.2,0,0.4-0.1,0.7-0.1
	c1.4-0.4,2.9,0.4,3.7,1.6c0.8,1.2,1.1,2.6,1.4,4.1c1.6-1.4,4.6-0.2,4.8,2c1-0.7,2.4-1.5,3.5-0.9c0.5,0.3,0.8,0.7,1.3,1
	s1.2,0.3,1.4-0.2c0.7,1.1,1.1,2.3,1.3,3.6c1.3-1,3.1-1.1,4.5-0.3s2.3,2.4,2.1,4L606.6,595.1z"/>
<path class="st52" d="M1443.1,368.4c2.6,0,5,0.7,7.1,1.9c1.9-5.5,7.1-9.4,13.2-9.4c1,0,2,0.1,2.9,0.3c2.4-9.7,11.1-16.8,21.5-16.8
	c10.3,0,19,7,21.5,16.6c0.4,0,0.9-0.1,1.3-0.1c3.4,0,6.6,0.9,9.3,2.5c2.6-1.6,5.6-2.5,8.8-2.5c9.2,0,16.7,7.5,16.7,16.7h-16.3h-17.2
	h-4.9h-11.7h-3.2h-3h-12h-8.5h-12.2h-0.4h-6.3h-19.8C1431.8,372.3,1437,368.4,1443.1,368.4z"/>
<path class="st1" d="M869.9,344.2h-17.3h-5.5h-0.3h-10.6h-7.4h-10.5h-2.7h-2.8h-10.2h-4.3h-15h-14.2c0-8.1,6.5-14.6,14.6-14.6
	c1.7,0,3.4,0.3,4.9,0.9c2.9-2.6,6.6-4.1,10.8-4.1c1.9,0,3.8,0.4,5.5,1c1.9-2.2,4.7-3.6,7.8-3.6c2.2,0,4.2,0.7,5.9,1.9
	c3.1-4.5,8.2-7.4,14-7.4c8.1,0,14.9,5.7,16.6,13.4c2.2-2.4,5.5-4,9-4c6.8,0,12.3,5.5,12.3,12.3C870.6,341.4,870.4,342.9,869.9,344.2
	z"/>
<g>
	<path class="st49" d="M641.6,550.4c1.2-2.1,1.7-4.7,0.7-6.8s-3.8-3.5-6-2.4c0.6-6.2,0.1-12.5-1.3-18.5c-0.8-3.3-2-6.8-4.7-8.9
		c-4.1-3.2-10.6-1.8-14,2.2c-3.3,4-3.8,9.8-2.4,14.8c-3.7-1-8.1-0.8-10.7,2c-2.9,3.2-2.2,8.2-1.3,12.4c0.8,3.6,1.8,7.5,4.8,9.6
		c-3.7,0.4-8.1,1.4-9.2,4.9c-0.6,2,0.1,4.2,1.2,6c3.9,5.8,11.6,7.5,18.6,7.7h3.4c1.9,0.2,3.8-0.6,5.6-1.3c1.8-0.8,3.7-1.3,5.5-2
		c2.9-1.1,6-2.6,7.3-5.6c1.4-3.1,0.5-7.4-2.6-8.9C638.5,554,640.3,552.4,641.6,550.4z"/>
	<path class="st54" d="M622.5,595c0-12.8,0-25.5,0-38.3c0-3.6,0-7.2,0-10.9c0-2.1-3.2-2.1-3.2,0c0,12.8,0,25.5,0,38.3
		c0,3.6,0,7.2,0,10.9C619.3,597,622.5,597,622.5,595L622.5,595z"/>
	<path class="st54" d="M622.8,561.5c3.5-1.6,6.2-4.8,7.2-8.5c0.2-0.8-0.3-1.8-1.1-2c-0.9-0.2-1.7,0.3-2,1.1
		c-0.1,0.4-0.2,0.8-0.4,1.2c-0.1,0.4,0.1-0.3,0,0c0,0.1-0.1,0.2-0.1,0.3c-0.1,0.2-0.2,0.3-0.3,0.5c-0.2,0.4-0.4,0.7-0.6,1
		c-0.1,0.1-0.1,0.2-0.2,0.3c-0.1,0.1-0.2,0.4,0,0c-0.1,0.2-0.3,0.3-0.4,0.5c-0.3,0.3-0.6,0.6-0.9,0.9c-0.2,0.1-0.3,0.3-0.5,0.4
		c-0.1,0.1-0.2,0.2-0.3,0.2c0.2-0.1,0.2-0.1,0,0c-0.7,0.5-1.4,0.9-2.2,1.3c-0.8,0.3-1,1.5-0.6,2.2
		C621.1,561.8,622,561.9,622.8,561.5L622.8,561.5z"/>
	<path class="st54" d="M620.4,565.8c-0.9-0.2-1.9-0.5-2.8-0.8c-0.2-0.1-0.4-0.1-0.6-0.2c-0.1,0-0.2-0.1-0.3-0.1c0.2,0.1,0,0-0.1,0
		c-0.4-0.2-0.8-0.4-1.2-0.7c-0.1-0.1-0.2-0.1-0.3-0.2c-0.1-0.1-0.1-0.1,0,0c-0.2-0.1-0.3-0.3-0.5-0.4c-0.2-0.1-0.3-0.3-0.4-0.5
		c0,0-0.3-0.3-0.1-0.1c0.1,0.2-0.1-0.1-0.1-0.1c-0.1-0.2-0.2-0.4-0.3-0.5c0-0.1-0.1-0.1-0.1-0.2c-0.2-0.4,0.1,0.3,0-0.1
		c-0.1-0.2-0.1-0.4-0.2-0.5c0-0.1-0.1-0.2-0.1-0.3c0,0.1,0,0.1,0,0.2c0-0.1,0-0.2,0-0.3c-0.1-0.8-0.7-1.6-1.6-1.6
		c-0.8,0-1.7,0.7-1.6,1.6c0.1,2.3,1.5,4.3,3.3,5.6s4.1,1.9,6.2,2.4c0.8,0.2,1.8-0.3,2-1.1C621.7,566.9,621.3,566,620.4,565.8
		L620.4,565.8z"/>
</g>
<g>
	<path class="st49" d="M688.6,542.4c-0.2-2.5-2.8-4.8-5.4-4.3c-1.4,0.3-3.2,1.3-4.1,0.2c2.8-2.6,5.7-5.4,7.3-8.8
		c1.6-3.4,1.6-7.8-1-10.5s-8.2-2.9-10.3,0.3c1.6-6.2,1.6-12.8-0.1-19c-0.8-3.1-2.1-6.2-4.7-8.4c-2.5-2.1-6.5-3-9.5-1.3
		c-1.7,1-2.8,2.6-3.6,4.3c-2.7,5.7-2.6,12.1-2.2,18.3c-2-2.5-6.7-1.8-8.6,0.8c-2,2.6-1.8,6.1-0.8,9.1s2.8,5.7,3.9,8.7
		c-1.6-1.6-4.8-0.8-6.2,1c-1.3,1.9-1.3,4.3-0.9,6.5c1,5.4,3.8,10.5,8,14.4c-2-1.8-5.5-1-7.2,1s-1.9,4.8-1.6,7.3
		c1.1,9.8,8.2,19.2,25,18.3c6.5-0.7,12.9-4.2,16-9.7c3-5.5,1.9-13-3.4-16.7c2-1.7,4.2-3.1,6.1-4.9
		C687.4,547.3,688.9,544.9,688.6,542.4z"/>
	<path class="st54" d="M664.9,596.1c0-19.8,0-39.5,0-59.3c0-5.6,0-11.1,0-16.7c0-2.1-3.2-2.1-3.2,0c0,19.8,0,39.5,0,59.3
		c0,5.6,0,11.1,0,16.7C661.7,598.1,664.9,598.1,664.9,596.1L664.9,596.1z"/>
	<path class="st54" d="M664.6,549.6c5.9-2.1,10.6-7.1,12.1-13.1c0.2-0.8-0.3-1.7-1.1-2c-0.8-0.2-1.8,0.3-2,1.1
		c-0.6,2.5-1.9,4.8-3.6,6.7c-0.4,0.5-0.9,0.9-1.4,1.4c-0.6,0.5-0.9,0.7-1.5,1.1c-1.1,0.7-2.3,1.3-3.4,1.7c-0.8,0.3-1.4,1.1-1.1,2
		C662.8,549.3,663.7,549.9,664.6,549.6L664.6,549.6z"/>
	<path class="st54" d="M662.1,562.2c-2.2-0.3-3.8-2.1-4.9-4c-1.1-2-1.6-4.1-1.4-6.4c0.1-0.9-0.8-1.6-1.6-1.6c-0.9,0-1.5,0.7-1.6,1.6
		c-0.2,2.8,0.5,5.8,1.9,8.2s3.8,4.9,6.7,5.3c0.9,0.1,1.7-0.2,2-1.1C663.4,563.4,663,562.3,662.1,562.2L662.1,562.2z"/>
	<path class="st54" d="M664.4,530.1c-0.7-0.6-1.4-1.2-2-1.9c-0.3-0.3-0.6-0.7-1-1.1c-0.1-0.2-0.3-0.3-0.4-0.5
		c-0.1-0.1-0.2-0.3-0.1-0.1c-0.1-0.1-0.2-0.2-0.2-0.3c-0.5-0.7-1-1.5-1.5-2.3c-0.2-0.4-0.4-0.8-0.6-1.2c-0.1-0.2-0.2-0.5-0.3-0.7
		c0-0.1-0.1-0.2,0,0c-0.1-0.1-0.1-0.3-0.2-0.4c-0.3-0.8-1.1-1.4-2-1.1c-0.8,0.2-1.5,1.1-1.1,2c1.5,3.9,3.9,7.3,7.2,9.9
		c0.7,0.5,1.6,0.7,2.3,0C664.9,531.8,665.1,530.6,664.4,530.1L664.4,530.1z"/>
</g>
<linearGradient id="SVGID_33_" gradientUnits="userSpaceOnUse" x1="1091.0269" y1="26.9517" x2="1222.5302" y2="26.9517" gradientTransform="matrix(1 0 0 -1 0 602)">
	<stop  offset="0" style="stop-color:#AEC9E8"/>
	<stop  offset="0.2148" style="stop-color:#B5CDE9"/>
	<stop  offset="0.5259" style="stop-color:#C8D9EC"/>
	<stop  offset="0.8942" style="stop-color:#E8ECF0"/>
	<stop  offset="1" style="stop-color:#F2F2F2"/>
</linearGradient>
<path class="st55" d="M1092.9,594.2c-2.3-2.5-2.5-6.7-0.5-9.4s6.1-3.7,9.2-2.2c-0.6-2.6-0.1-5.7,1.9-7.4c2.1-1.8,5.7-1.5,7,0.9
	c-0.6-3,0.5-6.4,3-8.1c2.5-1.7,6.4-1.4,8.2,1.1c0.1-3.6,0.2-7.5,2.5-10.3s7.5-3.2,9,0.1c1.4-3.2,4.9-5.5,8.4-5.4s6.9,2.5,8.1,5.8
	c3.2-3.4,8.3-5,12.8-3.8s8.3,4.9,9.4,9.5c0.2,0.9,0.6,2.1,1.5,2.2c0.4,0.1,0.9-0.1,1.3-0.2c2.7-0.8,5.7,0.8,7.4,3.2
	c1.6,2.3,2.2,5.3,2.7,8.1c3.2-2.8,9.2-0.3,9.5,3.9c2.1-1.4,4.7-2.9,6.9-1.7c1,0.5,1.6,1.5,2.5,2.1s2.4,0.6,2.8-0.4
	c1.4,2.2,2.3,4.6,2.6,7.1c2.5-1.9,6.2-2.2,9-0.7s4.5,4.8,4.2,8L1092.9,594.2z"/>
<linearGradient id="SVGID_34_" gradientUnits="userSpaceOnUse" x1="1425.4269" y1="25.7517" x2="1556.9302" y2="25.7517" gradientTransform="matrix(1 0 0 -1 0 602)">
	<stop  offset="0" style="stop-color:#AEC9E8"/>
	<stop  offset="0.2148" style="stop-color:#B5CDE9"/>
	<stop  offset="0.5259" style="stop-color:#C8D9EC"/>
	<stop  offset="0.8942" style="stop-color:#E8ECF0"/>
	<stop  offset="1" style="stop-color:#F2F2F2"/>
</linearGradient>
<path class="st56" d="M1427.3,595.4c-2.3-2.5-2.5-6.7-0.5-9.4s6.1-3.7,9.2-2.2c-0.6-2.6-0.1-5.7,1.9-7.4c2.1-1.8,5.7-1.5,7,0.9
	c-0.6-3,0.5-6.4,3-8.1c2.5-1.7,6.4-1.4,8.2,1.1c0.1-3.6,0.2-7.5,2.5-10.3s7.5-3.2,9,0.1c1.4-3.2,4.9-5.5,8.4-5.4s6.9,2.5,8.1,5.8
	c3.2-3.4,8.3-5,12.8-3.8s8.3,4.9,9.4,9.5c0.2,0.9,0.6,2.1,1.5,2.2c0.4,0.1,0.9-0.1,1.3-0.2c2.7-0.8,5.7,0.8,7.4,3.2
	c1.6,2.3,2.2,5.3,2.7,8.1c3.2-2.8,9.2-0.3,9.5,3.9c2.1-1.4,4.7-2.9,6.9-1.7c1,0.5,1.6,1.5,2.5,2.1s2.4,0.6,2.8-0.4
	c1.4,2.2,2.3,4.6,2.6,7.1c2.5-1.9,6.2-2.2,9-0.7s4.5,4.8,4.2,8L1427.3,595.4z"/>
<g>
	<path class="st49" d="M1199.2,568.5c-0.5-4.3-4.1-8.5-8.4-8.1c3.5-3.1,5.6-7.8,5.7-12.5c0-2.8-0.8-5.8-3-7.6
		c-1.9-1.5-4.9-1.6-6.6,0c2.9-3.9,3.9-9,2.7-13.7c-1.3-5-5.1-9.4-10-11.2c-2.7-1-5.9-1.3-8.6,0c-2.8,1.3-4.6,4.2-5.7,7.1
		c-2,5.5-1.7,11.6-1.4,17.4c-3.3-0.6-6.8,0-9.7,1.8c-1,0.6-2.1,1.4-2.4,2.6c-0.2,0.8-0.2,1.6-0.2,2.4c0,3.3,0.4,6.7,1.1,9.9
		c0.3,1.5,0.8,2.9,1.5,4.3c0.3,0.7,1.6,3.6,2.5,3.7c-2.8-0.4-5.4,1.6-6.6,4.1s-1.2,5.4-1,8.2c0.3,4.6,1,9.5,4.4,12.6
		c3.6,3.4,8.8,3.6,13.4,4.2c5.2,0.7,10.5,0.5,15.5-1.2c6.1-2.1,10.9-6.1,13.7-11.9C1198,576.9,1199.7,572.7,1199.2,568.5z"/>
	<path class="st54" d="M1175.9,596.2c0-12.1,0-24.2,0-36.3c0-2.6-4.1-2.6-4.1,0c0,12.1,0,24.2,0,36.3
		C1171.8,598.8,1175.9,598.8,1175.9,596.2L1175.9,596.2z"/>
	<path class="st54" d="M1175.7,583.6c4.5-0.7,8.7-3,11.9-6.3c0.7-0.8,0.8-2.1,0-2.9c-0.8-0.7-2.1-0.8-2.9,0
		c-0.3,0.4-0.7,0.7-1.1,1.1c-0.2,0.2-0.4,0.4-0.6,0.5c-0.1,0.1-0.2,0.2-0.3,0.2c-0.1,0.1-0.2,0.1,0,0c-0.8,0.6-1.7,1.2-2.6,1.7
		c-0.4,0.2-0.9,0.4-1.4,0.7c0.2-0.1,0.2-0.1,0,0c-0.1,0-0.2,0.1-0.3,0.1c-0.2,0.1-0.5,0.2-0.8,0.3c-1,0.3-2,0.6-3,0.7
		c-1.1,0.2-1.7,1.5-1.4,2.5C1173.6,583.3,1174.6,583.8,1175.7,583.6L1175.7,583.6z"/>
	<path class="st54" d="M1172.8,572.8c0,0-0.5,0.1-0.2,0s-0.1,0-0.2,0c-0.3,0-0.5,0-0.8,0c-0.4,0,0.1,0,0.1,0s-0.3-0.1-0.4-0.1
		c-0.3-0.1-0.5-0.1-0.8-0.2c-0.2-0.1-0.4,0,0,0c-0.1,0-0.2-0.1-0.3-0.1c-0.2-0.1-0.5-0.2-0.7-0.4c-0.2-0.1-0.5-0.3-0.7-0.4
		c0.2,0.2,0.1,0.1,0,0s-0.2-0.2-0.3-0.3c-0.4-0.4-0.7-0.8-1.1-1.2c-0.2-0.2,0.3,0.4,0-0.1c-0.1-0.1-0.2-0.2-0.2-0.3
		c-0.1-0.2-0.3-0.4-0.4-0.6c-0.6-1-1.1-2-1.7-3c-0.5-0.9-1.9-1.3-2.8-0.7c-1,0.6-1.3,1.8-0.7,2.8c1.2,2.3,2.5,4.6,4.5,6.3
		c2.2,1.8,5,2.9,7.8,2.2c1-0.2,1.7-1.5,1.4-2.5C1175,573.1,1174,572.6,1172.8,572.8L1172.8,572.8z"/>
</g>
<g>
	<path class="st49" d="M1484.4,566.4c-0.5-4.3-4.1-8.5-8.4-8.1c3.5-3.1,5.6-7.8,5.7-12.5c0-2.8-0.8-5.8-3-7.6
		c-1.9-1.5-4.9-1.6-6.6,0c2.9-3.9,3.9-9,2.7-13.7c-1.3-5-5.1-9.4-10-11.2c-2.7-1-5.9-1.3-8.6,0c-2.8,1.3-4.6,4.2-5.7,7.1
		c-2,5.5-1.7,11.6-1.4,17.4c-3.3-0.6-6.8,0-9.7,1.8c-1,0.6-2.1,1.4-2.4,2.6c-0.2,0.8-0.2,1.6-0.2,2.4c0,3.3,0.4,6.7,1.1,9.9
		c0.3,1.5,0.8,2.9,1.5,4.3c0.3,0.7,1.6,3.6,2.5,3.7c-2.8-0.4-5.4,1.6-6.6,4.1s-1.2,5.4-1,8.2c0.3,4.6,1,9.5,4.4,12.6
		c3.6,3.4,8.8,3.6,13.4,4.2c5.2,0.7,10.5,0.5,15.5-1.2c6.1-2.1,10.9-6.1,13.7-11.9C1483.3,574.9,1485,570.7,1484.4,566.4z"/>
	<path class="st54" d="M1461.2,594.2c0-12.1,0-24.2,0-36.3c0-2.6-4.1-2.6-4.1,0c0,12.1,0,24.2,0,36.3
		C1457.1,596.8,1461.2,596.8,1461.2,594.2L1461.2,594.2z"/>
	<path class="st54" d="M1461,581.5c4.5-0.7,8.7-3,11.9-6.3c0.7-0.8,0.8-2.1,0-2.9c-0.8-0.7-2.1-0.8-2.9,0c-0.3,0.4-0.7,0.7-1.1,1.1
		c-0.2,0.2-0.4,0.4-0.6,0.5c-0.1,0.1-0.2,0.2-0.3,0.2c-0.1,0.1-0.2,0.1,0,0c-0.8,0.6-1.7,1.2-2.6,1.7c-0.4,0.2-0.9,0.4-1.4,0.7
		c0.2-0.1,0.2-0.1,0,0c-0.1,0-0.2,0.1-0.3,0.1c-0.2,0.1-0.5,0.2-0.8,0.3c-1,0.3-2,0.6-3,0.7c-1.1,0.2-1.7,1.5-1.4,2.5
		C1458.8,581.3,1459.8,581.7,1461,581.5L1461,581.5z"/>
	<path class="st54" d="M1458.1,570.8c0,0-0.5,0.1-0.2,0s-0.1,0-0.2,0c-0.3,0-0.5,0-0.8,0c-0.4,0,0.1,0,0.1,0s-0.3-0.1-0.4-0.1
		c-0.3-0.1-0.5-0.1-0.8-0.2c-0.2-0.1-0.4,0,0,0c-0.1,0-0.2-0.1-0.3-0.1c-0.2-0.1-0.5-0.2-0.7-0.4c-0.2-0.1-0.5-0.3-0.7-0.4
		c0.2,0.2,0.1,0.1,0,0s-0.2-0.2-0.3-0.3c-0.4-0.4-0.7-0.8-1.1-1.2c-0.2-0.2,0.3,0.4,0-0.1c-0.1-0.1-0.2-0.2-0.2-0.3
		c-0.1-0.2-0.3-0.4-0.4-0.6c-0.6-1-1.1-2-1.7-3c-0.5-0.9-1.9-1.3-2.8-0.7c-1,0.6-1.3,1.8-0.7,2.8c1.2,2.3,2.5,4.6,4.5,6.3
		c2.2,1.8,5,2.9,7.8,2.2c1-0.2,1.7-1.5,1.4-2.5C1460.2,571.1,1459.2,570.5,1458.1,570.8L1458.1,570.8z"/>
</g>
<g>
	
		<linearGradient id="SVGID_35_" gradientUnits="userSpaceOnUse" x1="1413.4198" y1="389.6544" x2="1416.5101" y2="389.6544" gradientTransform="matrix(0.9907 0.136 0.136 -0.9907 -69.7134 440.8959)">
		<stop  offset="0" style="stop-color:#68D2FF"/>
		<stop  offset="1" style="stop-color:#2287D9"/>
	</linearGradient>
	<polygon class="st57" points="1386.1,251.7 1384.7,251.8 1384.1,242.9 1385.5,242.8 	"/>
	
		<linearGradient id="SVGID_36_" gradientUnits="userSpaceOnUse" x1="1319.8621" y1="369.2223" x2="1322.6539" y2="369.2223" gradientTransform="matrix(0.9907 0.136 0.136 -0.9907 -69.7134 440.8959)">
		<stop  offset="0" style="stop-color:#68D2FF"/>
		<stop  offset="1" style="stop-color:#2287D9"/>
	</linearGradient>
	<polygon class="st58" points="1289,257 1287.9,256.3 1290,252.6 1291.1,253.2 	"/>
	
		<linearGradient id="SVGID_37_" gradientUnits="userSpaceOnUse" x1="1322.4221" y1="369.8352" x2="1326.0712" y2="369.8352" gradientTransform="matrix(0.9907 0.136 0.136 -0.9907 -69.7134 440.8959)">
		<stop  offset="0" style="stop-color:#68D2FF"/>
		<stop  offset="1" style="stop-color:#2287D9"/>
	</linearGradient>
	<polygon class="st59" points="1293.1,256.8 1294.2,256.1 1292,252.4 1290.9,253 	"/>
	
		<linearGradient id="SVGID_38_" gradientUnits="userSpaceOnUse" x1="1302.3635" y1="373.9332" x2="1342.3091" y2="373.9332" gradientTransform="matrix(0.9907 0.136 0.136 -0.9907 -69.7134 440.8959)">
		<stop  offset="0" style="stop-color:#68D2FF"/>
		<stop  offset="1" style="stop-color:#2287D9"/>
	</linearGradient>
	<path class="st60" d="M1306.7,252.7l-30,1.4c-2.9,0.1-5.3-2.1-5.5-5l0,0l40.5-1.9l0,0C1311.8,250.1,1309.6,252.6,1306.7,252.7z"/>
	
		<linearGradient id="SVGID_39_" gradientUnits="userSpaceOnUse" x1="1200.0096" y1="390.1787" x2="1250.0532" y2="390.1787" gradientTransform="matrix(0.9907 0.136 0.136 -0.9907 -69.7134 440.8959)">
		<stop  offset="0" style="stop-color:#68D2FF"/>
		<stop  offset="1" style="stop-color:#2287D9"/>
	</linearGradient>
	<polygon class="st61" points="1221.2,228.7 1197.4,244.2 1175.3,195.1 1188.6,196.6 	"/>
	
		<linearGradient id="SVGID_40_" gradientUnits="userSpaceOnUse" x1="1338.3759" y1="363.6742" x2="1310.7804" y2="441.8618" gradientTransform="matrix(0.9907 0.136 0.136 -0.9907 -69.7134 440.8959)">
		<stop  offset="0" style="stop-color:#68D2FF"/>
		<stop  offset="1" style="stop-color:#2287D9"/>
	</linearGradient>
	<path class="st62" d="M1400.1,243.2c-4.2,0.2-8.5,0.5-12.7,0.7c-10.5,0.6-21,1.2-31.6,1.8c-13.6,0.8-27.1,1.5-40.7,2.3
		c-13.4,0.8-26.8,1.5-40.1,2.3c-6.8,0.4-13.4,1.4-20.2,1.8c-4.1,0.2-8.4,0.3-12.5,0.5s-7.8-0.4-11.8-1.2c-9.4-1.9-18.7-4.5-28-6.9
		c-6.7-1.7-13.4-3.3-20.2-5l-0.3-5.5l41.7-5.5c7.6-0.4,15.3-0.9,22.9-1.3c17.5-1,34.9-2,52.4-3c19.1-1.1,38.2-2.2,57.3-3.3
		c12.7-0.7,25.5-1.4,38.2-2.2c9-0.5,19.9,5.5,23.6,13.8c1.1,2.4-5.8,6.1-7.6,7C1407.3,241.5,1403.7,242.5,1400.1,243.2z"/>
	
		<linearGradient id="SVGID_41_" gradientUnits="userSpaceOnUse" x1="1210.1896" y1="375.0624" x2="1243.7419" y2="375.0624" gradientTransform="matrix(0.9907 0.136 0.136 -0.9907 -69.7134 440.8959)">
		<stop  offset="0" style="stop-color:#68D2FF"/>
		<stop  offset="1" style="stop-color:#2287D9"/>
	</linearGradient>
	<polygon class="st63" points="1213.8,236.2 1193.3,239 1180.4,232.8 1185.3,231.3 	"/>
	<g>
		<g>
			
				<linearGradient id="SVGID_42_" gradientUnits="userSpaceOnUse" x1="1346.8483" y1="376.8264" x2="1362.0886" y2="376.8264" gradientTransform="matrix(0.9907 0.136 0.136 -0.9907 -69.7134 440.8959)">
				<stop  offset="0" style="stop-color:#68D2FF"/>
				<stop  offset="1" style="stop-color:#2287D9"/>
			</linearGradient>
			<path class="st64" d="M1328.5,246.8c-1.7-0.2-3.6-0.3-5.6-0.2c-2.4,0.1-4.7,0.6-6.6,1.2c-0.3,1.6-0.6,4.5,0.3,8.7
				c2,0.5,4.3,0.8,6.8,0.7c2-0.1,3.8-0.3,5.5-0.7c0.5-0.1,1.1-0.2,1.6-0.4l-0.4-9.2C1329.6,247,1329.1,246.9,1328.5,246.8z"/>
			
				<linearGradient id="SVGID_43_" gradientUnits="userSpaceOnUse" x1="1340.3698" y1="375.4546" x2="1348.6566" y2="375.4546" gradientTransform="matrix(0.9907 0.136 0.136 -0.9907 -69.7134 440.8959)">
				<stop  offset="0" style="stop-color:#68D2FF"/>
				<stop  offset="1" style="stop-color:#2287D9"/>
			</linearGradient>
			<path class="st65" d="M1316.6,247.9c-4.5,1.5-7.5,3.8-7.5,4.7c0,0.9,3.2,3,7.8,4C1316,252.4,1316.2,249.5,1316.6,247.9z"/>
		</g>
		
			<linearGradient id="SVGID_44_" gradientUnits="userSpaceOnUse" x1="1358.9574" y1="377.6452" x2="1362.1993" y2="377.6452" gradientTransform="matrix(0.9907 0.136 0.136 -0.9907 -69.7134 440.8959)">
			<stop  offset="0" style="stop-color:#68D2FF"/>
			<stop  offset="1" style="stop-color:#2287D9"/>
		</linearGradient>
		<polygon class="st66" points="1329.1,256.6 1328.6,246.8 1330.2,247.1 1330.6,256.3 		"/>
	</g>
	
		<linearGradient id="SVGID_45_" gradientUnits="userSpaceOnUse" x1="1348.9824" y1="379.782" x2="1306.1571" y2="383.8058" gradientTransform="matrix(0.9907 0.136 0.136 -0.9907 -69.7134 440.8959)">
		<stop  offset="0" style="stop-color:#68D2FF"/>
		<stop  offset="1" style="stop-color:#2287D9"/>
	</linearGradient>
	<polygon class="st67" points="1327.6,242.5 1317.9,241.2 1259.5,240 1270.7,244.7 1296.8,247.3 1329,244.1 	"/>
	<g>
		
			<linearGradient id="SVGID_46_" gradientUnits="userSpaceOnUse" x1="1324.5764" y1="372.627" x2="1326.2051" y2="367.4534" gradientTransform="matrix(0.9907 0.136 0.136 -0.9907 -69.7134 440.8959)">
			<stop  offset="0" style="stop-color:#68D2FF"/>
			<stop  offset="1" style="stop-color:#2287D9"/>
		</linearGradient>
		<path class="st68" d="M1296.9,257.9c-0.2,1.5-1.6,2.5-3.1,2.3s-2.5-1.6-2.3-3.1c0.2-1.5,1.6-2.5,3.1-2.3
			S1297.1,256.5,1296.9,257.9z"/>
		
			<linearGradient id="SVGID_47_" gradientUnits="userSpaceOnUse" x1="1324.5848" y1="372.6296" x2="1326.2136" y2="367.4561" gradientTransform="matrix(0.9907 0.136 0.136 -0.9907 -69.7134 440.8959)">
			<stop  offset="0" style="stop-color:#68D2FF"/>
			<stop  offset="1" style="stop-color:#2287D9"/>
		</linearGradient>
		<path class="st69" d="M1295.9,257.8c-0.1,0.9-1,1.6-1.9,1.5c-0.9-0.1-1.6-1-1.5-1.9c0.1-0.9,1-1.6,1.9-1.5
			C1295.4,256,1296.1,256.9,1295.9,257.8z"/>
	</g>
	<g>
		
			<linearGradient id="SVGID_48_" gradientUnits="userSpaceOnUse" x1="1416.1543" y1="389.6071" x2="1416.1543" y2="387.3077" gradientTransform="matrix(0.9907 0.136 0.136 -0.9907 -69.7134 440.8959)">
			<stop  offset="0" style="stop-color:#68D2FF"/>
			<stop  offset="1" style="stop-color:#2287D9"/>
		</linearGradient>
		<path class="st70" d="M1388.4,252.1c-0.2,1.5-1.6,2.5-3.1,2.3s-2.5-1.6-2.3-3.1c0.2-1.5,1.6-2.5,3.1-2.3
			C1387.5,249.3,1388.6,250.6,1388.4,252.1z"/>
		
			<linearGradient id="SVGID_49_" gradientUnits="userSpaceOnUse" x1="1416.1678" y1="389.6071" x2="1416.1678" y2="387.3077" gradientTransform="matrix(0.9907 0.136 0.136 -0.9907 -69.7134 440.8959)">
			<stop  offset="0" style="stop-color:#68D2FF"/>
			<stop  offset="1" style="stop-color:#2287D9"/>
		</linearGradient>
		<path class="st71" d="M1387.4,252c-0.1,0.9-1,1.6-1.9,1.5s-1.6-1-1.5-1.9s1-1.6,1.9-1.5C1386.9,250.2,1387.5,251,1387.4,252z"/>
	</g>
	<g>
		
			<linearGradient id="SVGID_50_" gradientUnits="userSpaceOnUse" x1="1318.4492" y1="370.6982" x2="1320.0779" y2="365.5247" gradientTransform="matrix(0.9907 0.136 0.136 -0.9907 -69.7134 440.8959)">
			<stop  offset="0" style="stop-color:#68D2FF"/>
			<stop  offset="1" style="stop-color:#2287D9"/>
		</linearGradient>
		<circle class="st72" cx="1287.8" cy="258.2" r="2.7"/>
		
			<linearGradient id="SVGID_51_" gradientUnits="userSpaceOnUse" x1="1318.4492" y1="370.6983" x2="1320.0779" y2="365.5247" gradientTransform="matrix(0.9907 0.136 0.136 -0.9907 -69.7134 440.8959)">
			<stop  offset="0" style="stop-color:#68D2FF"/>
			<stop  offset="1" style="stop-color:#2287D9"/>
		</linearGradient>
		<circle class="st73" cx="1287.8" cy="258.2" r="1.7"/>
	</g>
	<g>
		<path class="st1" d="M1398.8,225.2l-0.4,3.2c0,0,1.3,0.3,3.8,0.1l-0.5-3.3C1400.8,225.2,1399.9,225.2,1398.8,225.2z"/>
		<path class="st1" d="M1411.1,226.4l-3-2.1c0,0-0.4,0.2-1.3,0.3l1.2,3.1c0.9-0.2,1.9-0.4,2.9-0.6
			C1411.3,227.1,1411.4,226.6,1411.1,226.4z"/>
		<path class="st1" d="M1402.6,225.1l0.5,3.3c1.1-0.1,2.5-0.2,4.2-0.5l-1.2-3.1C1405.4,224.9,1404.2,225,1402.6,225.1z"/>
	</g>
	<g>
		<path class="st1" d="M1366.9,230.3L1366.9,230.3c-0.6,0-1.2-0.4-1.2-1.1l-0.1-1c0-0.6,0.4-1.2,1.1-1.2l0,0c0.6,0,1.2,0.4,1.2,1.1
			l0.1,1C1368,229.8,1367.6,230.3,1366.9,230.3z"/>
		<path class="st1" d="M1360.8,230.7L1360.8,230.7c-0.6,0-1.2-0.4-1.2-1.1l-0.1-1c0-0.6,0.4-1.2,1.1-1.2l0,0c0.6,0,1.2,0.4,1.2,1.1
			l0.1,1C1361.9,230.2,1361.5,230.7,1360.8,230.7z"/>
		<path class="st1" d="M1354.7,231.1L1354.7,231.1c-0.6,0-1.2-0.4-1.2-1.1l-0.1-1c0-0.6,0.4-1.2,1.1-1.2l0,0c0.6,0,1.2,0.4,1.2,1.1
			l0.1,1C1355.8,230.6,1355.3,231.1,1354.7,231.1z"/>
		<path class="st1" d="M1348.6,231.5L1348.6,231.5c-0.6,0-1.2-0.4-1.2-1.1l-0.1-1c0-0.6,0.4-1.2,1.1-1.2l0,0c0.6,0,1.2,0.4,1.2,1.1
			l0.1,1C1349.7,231,1349.2,231.5,1348.6,231.5z"/>
		<path class="st1" d="M1342.5,231.9L1342.5,231.9c-0.6,0-1.2-0.4-1.2-1.1l-0.1-1c0-0.6,0.4-1.2,1.1-1.2l0,0c0.6,0,1.2,0.4,1.2,1.1
			l0.1,1C1343.6,231.4,1343.1,231.9,1342.5,231.9z"/>
		<path class="st1" d="M1336.4,232.3L1336.4,232.3c-0.6,0-1.2-0.4-1.2-1.1l-0.1-1c0-0.6,0.4-1.2,1.1-1.2l0,0c0.6,0,1.2,0.4,1.2,1.1
			l0.1,1C1337.5,231.8,1337,232.3,1336.4,232.3z"/>
		<path class="st1" d="M1330.3,232.7L1330.3,232.7c-0.6,0-1.2-0.4-1.2-1.1l-0.1-1c0-0.6,0.4-1.2,1.1-1.2l0,0c0.6,0,1.2,0.4,1.2,1.1
			l0.1,1C1331.4,232.2,1330.9,232.7,1330.3,232.7z"/>
		<path class="st1" d="M1324.2,233.1L1324.2,233.1c-0.6,0-1.2-0.4-1.2-1.1l-0.1-1c0-0.6,0.4-1.2,1.1-1.2l0,0c0.6,0,1.2,0.4,1.2,1.1
			l0.1,1C1325.3,232.6,1324.8,233.1,1324.2,233.1z"/>
		<path class="st1" d="M1318.1,233.5L1318.1,233.5c-0.6,0-1.2-0.4-1.2-1.1l-0.1-1c0-0.6,0.4-1.2,1.1-1.2l0,0c0.6,0,1.2,0.4,1.2,1.1
			l0.1,1C1319.2,233,1318.7,233.5,1318.1,233.5z"/>
		<path class="st1" d="M1312,233.9L1312,233.9c-0.6,0-1.2-0.4-1.2-1.1l-0.1-1c0-0.6,0.4-1.2,1.1-1.2l0,0c0.6,0,1.2,0.4,1.2,1.1
			l0.1,1C1313.1,233.4,1312.6,233.9,1312,233.9z"/>
		<path class="st1" d="M1305.9,234.3L1305.9,234.3c-0.6,0-1.2-0.4-1.2-1.1l-0.1-1c0-0.6,0.4-1.2,1.1-1.2l0,0c0.6,0,1.2,0.4,1.2,1.1
			l0.1,1C1307,233.8,1306.5,234.3,1305.9,234.3z"/>
		<path class="st1" d="M1299.8,234.7L1299.8,234.7c-0.6,0-1.2-0.4-1.2-1.1l-0.1-1c0-0.6,0.4-1.2,1.1-1.2l0,0c0.6,0,1.2,0.4,1.2,1.1
			l0.1,1C1300.9,234.2,1300.4,234.7,1299.8,234.7z"/>
		<path class="st1" d="M1293.7,235.1L1293.7,235.1c-0.6,0-1.2-0.4-1.2-1.1l-0.1-1c0-0.6,0.4-1.2,1.1-1.2l0,0c0.6,0,1.2,0.4,1.2,1.1
			l0.1,1C1294.8,234.6,1294.3,235.1,1293.7,235.1z"/>
		<path class="st1" d="M1287.6,235.5L1287.6,235.5c-0.6,0-1.2-0.4-1.2-1.1l-0.1-1c0-0.6,0.4-1.2,1.1-1.2l0,0c0.6,0,1.2,0.4,1.2,1.1
			l0.1,1C1288.7,235,1288.2,235.5,1287.6,235.5z"/>
		<path class="st1" d="M1281.5,235.9L1281.5,235.9c-0.6,0-1.2-0.4-1.2-1.1l-0.1-1c0-0.6,0.4-1.2,1.1-1.2l0,0c0.6,0,1.2,0.4,1.2,1.1
			l0.1,1C1282.6,235.4,1282.1,235.9,1281.5,235.9z"/>
		<path class="st1" d="M1275.3,236.3L1275.3,236.3c-0.6,0-1.2-0.4-1.2-1.1l-0.1-1c0-0.6,0.4-1.2,1.1-1.2l0,0c0.6,0,1.2,0.4,1.2,1.1
			l0.1,1C1276.5,235.8,1276,236.3,1275.3,236.3z"/>
		<path class="st1" d="M1269.2,236.7L1269.2,236.7c-0.6,0-1.2-0.4-1.2-1.1l-0.1-1c0-0.6,0.4-1.2,1.1-1.2l0,0c0.6,0,1.2,0.4,1.2,1.1
			l0.1,1C1270.4,236.2,1269.9,236.7,1269.2,236.7z"/>
		<path class="st1" d="M1263.1,237.1L1263.1,237.1c-0.6,0-1.2-0.4-1.2-1.1l-0.1-1c0-0.6,0.4-1.2,1.1-1.2l0,0c0.6,0,1.2,0.4,1.2,1.1
			l0.1,1C1264.3,236.6,1263.8,237.1,1263.1,237.1z"/>
		<path class="st1" d="M1257,237.5L1257,237.5c-0.6,0-1.2-0.4-1.2-1.1l-0.1-1c0-0.6,0.4-1.2,1.1-1.2l0,0c0.6,0,1.2,0.4,1.2,1.1
			l0.1,1C1258.1,237,1257.7,237.5,1257,237.5z"/>
	</g>
</g>
<g>
	
		<rect x="404.3" y="287.6" transform="matrix(0.9901 -0.1405 0.1405 0.9901 -37.581 59.7957)" class="st5" width="0.8" height="16.9"/>
	
		<rect x="385.1" y="295.7" transform="matrix(0.1407 -0.9901 0.9901 0.1407 44.9853 644.045)" class="st5" width="16.9" height="0.8"/>
	<rect x="398.4" y="287.7" class="st5" width="0.8" height="16.7"/>
	
		<linearGradient id="SVGID_52_" gradientUnits="userSpaceOnUse" x1="387.6565" y1="293.05" x2="409.4891" y2="293.05" gradientTransform="matrix(1 0 0 -1 0 602)">
		<stop  offset="0" style="stop-color:#FFC572"/>
		<stop  offset="1" style="stop-color:#FF4EB3"/>
	</linearGradient>
	<rect x="387.7" y="302.2" class="st74" width="21.8" height="13.5"/>
	<g>
		<rect x="397.5" y="302.2" class="st75" width="2.4" height="13.5"/>
	</g>
	<g>
		<rect x="387.7" y="307.7" class="st75" width="21.8" height="2.4"/>
	</g>
	<g>
		<g>
			
				<linearGradient id="XMLID_2_" gradientUnits="userSpaceOnUse" x1="372.7786" y1="344.8" x2="424.5786" y2="344.8" gradientTransform="matrix(1 0 0 -1 0 602)">
				<stop  offset="0" style="stop-color:#68D2FF"/>
				<stop  offset="1" style="stop-color:#2287D9"/>
			</linearGradient>
			<path id="XMLID_51_" class="st76" d="M424.5,253.5c0-14.1-11.6-25.5-25.9-25.5s-25.9,11.4-25.9,25.5c0,1.9,0.2,3.7,0.6,5.4
				c0.9,1.6,1.1,3.9,2,5.6c0.9,1.9,2,3.6,3.4,5.2c4.6,5.5,9.1,10.6,13,16.7h14.1c0.9,0,4.2-5.8,4.8-6.7
				C416.5,271.2,424.5,264.7,424.5,253.5z"/>
		</g>
		<g>
			<defs>
				<path id="SVGID_53_" d="M424.5,253.5c0-14.1-11.6-25.5-25.9-25.5s-25.9,11.4-25.9,25.5c0,1.9,0.2,3.7,0.6,5.4
					c0.9,1.6,1.1,3.9,2,5.6c0.9,1.9,2,3.6,3.4,5.2c4.6,5.5,9.1,10.6,13,16.7h14.1c0.9,0,4.2-5.8,4.8-6.7
					C416.5,271.2,424.5,264.7,424.5,253.5z"/>
			</defs>
			<clipPath id="SVGID_54_">
				<use xlink:href="#SVGID_53_"  style="overflow:visible;"/>
			</clipPath>
			<path class="st77" d="M393.2,224.5c-7.9,4.8-11.7,14-13,22.8c-0.7,4.9-0.4,9.8,1,14.5c1.3,4.6,3.4,9,5.6,13.2
				c2.6,4.8,5.4,9.6,7.8,14.5c0.6,1.2,2.3,0.2,1.8-1c-3.9-8.4-9.5-16.1-12.5-25c-1.5-4.4-2.3-9-1.9-13.6c0.3-4.3,1.4-8.7,3.1-12.6
				c2-4.5,4.9-8.5,9.2-11C395.4,225.6,394.4,223.9,393.2,224.5L393.2,224.5z"/>
		</g>
		<g>
			<defs>
				<path id="SVGID_55_" d="M424.5,253.5c0-14.1-11.6-25.5-25.9-25.5s-25.9,11.4-25.9,25.5c0,1.9,0.2,3.7,0.6,5.4
					c0.9,1.6,1.1,3.9,2,5.6c0.9,1.9,2,3.6,3.4,5.2c4.6,5.5,9.1,10.6,13,16.7h14.1c0.9,0,4.2-5.8,4.8-6.7
					C416.5,271.2,424.5,264.7,424.5,253.5z"/>
			</defs>
			<clipPath id="SVGID_56_">
				<use xlink:href="#SVGID_55_"  style="overflow:visible;"/>
			</clipPath>
			<path class="st78" d="M397.7,220.5c-4.3,7.7-7,16.5-7.9,25.4c-0.4,4.3-0.4,8.7,0.5,13c0.9,4.5,2.6,8.8,3.9,13.1
				c1.5,4.7,2.7,9.7,1.9,14.6c-0.1,0.5,0.1,1.1,0.7,1.3c0.5,0.1,1.2-0.2,1.3-0.7c1.3-9-2.8-17.4-5.1-25.9c-1.2-4.3-1.6-8.5-1.4-12.9
				s1.1-8.8,2.3-13.1c1.3-4.8,3.2-9.4,5.6-13.7C400.1,220.4,398.3,219.4,397.7,220.5L397.7,220.5z"/>
		</g>
		<g>
			<defs>
				<path id="SVGID_57_" d="M424.5,253.5c0-14.1-11.6-25.5-25.9-25.5s-25.9,11.4-25.9,25.5c0,1.9,0.2,3.7,0.6,5.4
					c0.9,1.6,1.1,3.9,2,5.6c0.9,1.9,2,3.6,3.4,5.2c4.6,5.5,9.1,10.6,13,16.7h14.1c0.9,0,4.2-5.8,4.8-6.7
					C416.5,271.2,424.5,264.7,424.5,253.5z"/>
			</defs>
			<clipPath id="SVGID_58_">
				<use xlink:href="#SVGID_57_"  style="overflow:visible;"/>
			</clipPath>
			<path class="st79" d="M396.1,228.5c2.3,3.7,4.7,7.4,6.3,11.4c1.5,3.7,2.2,7.7,2.4,11.7c0.1,3.8-0.1,7.6-0.4,11.4
				c-0.4,4.2-0.9,8.4-1.7,12.5c-0.8,4-1.7,8.1-3.7,11.7c-0.6,1.1,1.1,2.2,1.8,1c1.8-3.2,2.8-6.9,3.5-10.4c0.9-4.3,1.6-8.7,2-13.1
				c0.8-8,1.4-16.5-1.4-24.1c-1.7-4.7-4.4-8.9-7-13.1C397.2,226.4,395.4,227.4,396.1,228.5L396.1,228.5z"/>
		</g>
		<g>
			<defs>
				<path id="SVGID_59_" d="M424.5,253.5c0-14.1-11.6-25.5-25.9-25.5s-25.9,11.4-25.9,25.5c0,1.9,0.2,3.7,0.6,5.4
					c0.9,1.6,1.1,3.9,2,5.6c0.9,1.9,2,3.6,3.4,5.2c4.6,5.5,9.1,10.6,13,16.7h14.1c0.9,0,4.2-5.8,4.8-6.7
					C416.5,271.2,424.5,264.7,424.5,253.5z"/>
			</defs>
			<clipPath id="SVGID_60_">
				<use xlink:href="#SVGID_59_"  style="overflow:visible;"/>
			</clipPath>
			<path class="st80" d="M398.1,225.1c7.1,4,13.8,10.2,16.7,18c1.6,4.2,1.9,8.9,1.4,13.4c-0.7,5.2-2.5,10.4-4.9,15
				c-2.8,5.4-6.4,10.2-9.7,15.3c-0.7,1.1,1.1,2.1,1.8,1c3-4.7,6.3-9.3,9-14.2c2.7-4.8,4.6-10.1,5.5-15.5c0.8-4.9,0.7-10.1-0.9-14.8
				c-1.1-3.5-3.1-6.6-5.4-9.5c-3.4-4.3-7.8-7.9-12.6-10.6C397.9,222.7,396.9,224.4,398.1,225.1L398.1,225.1z"/>
		</g>
	</g>
	
		<linearGradient id="SVGID_61_" gradientUnits="userSpaceOnUse" x1="391.6656" y1="314.3" x2="405.8503" y2="314.3" gradientTransform="matrix(1 0 0 -1 0 602)">
		<stop  offset="0" style="stop-color:#68D2FF"/>
		<stop  offset="1" style="stop-color:#2287D9"/>
	</linearGradient>
	<rect x="391.7" y="286.4" class="st81" width="14.2" height="2.6"/>
</g>
<g>
	
		<linearGradient id="SVGID_62_" gradientUnits="userSpaceOnUse" x1="1040.8387" y1="245.85" x2="1065.5973" y2="245.85" gradientTransform="matrix(1 0 0 -1 0 602)">
		<stop  offset="0" style="stop-color:#68D2FF"/>
		<stop  offset="1" style="stop-color:#2287D9"/>
	</linearGradient>
	<polygon class="st82" points="1040.8,357.2 1053.6,350.1 1065.6,353 1064.2,357.2 1053.2,354.6 1040.8,362.2 	"/>
	
		<linearGradient id="SVGID_63_" gradientUnits="userSpaceOnUse" x1="1005.6619" y1="251.9" x2="1026.6454" y2="251.9" gradientTransform="matrix(1 0 0 -1 0 602)">
		<stop  offset="0" style="stop-color:#68D2FF"/>
		<stop  offset="1" style="stop-color:#2287D9"/>
	</linearGradient>
	<polygon class="st83" points="1026.6,355.1 1018.2,343.2 1006.2,340.5 1005.7,345 1016.7,347.4 1024.4,359.7 	"/>
	<g>
		
			<linearGradient id="SVGID_64_" gradientUnits="userSpaceOnUse" x1="1010.6946" y1="261.6" x2="1015.1022" y2="261.6" gradientTransform="matrix(1 0 0 -1 0 602)">
			<stop  offset="0" style="stop-color:#68D2FF"/>
			<stop  offset="1" style="stop-color:#2287D9"/>
		</linearGradient>
		<polygon class="st84" points="1014.3,342.3 1010.7,341.9 1011.6,338.5 1015.1,339.4 		"/>
		<path class="st1" d="M1027.7,341.5c-0.1,0.6-6.9-0.4-15.1-2.3c-8.2-1.9-14.7-3.9-14.6-4.6c0.1-0.6,6.9,0.4,15.1,2.3
			C1021.3,338.8,1027.8,340.9,1027.7,341.5z"/>
	</g>
	<g>
		
			<linearGradient id="SVGID_65_" gradientUnits="userSpaceOnUse" x1="1059.0046" y1="251.7" x2="1063.4718" y2="251.7" gradientTransform="matrix(1 0 0 -1 0 602)">
			<stop  offset="0" style="stop-color:#68D2FF"/>
			<stop  offset="1" style="stop-color:#2287D9"/>
		</linearGradient>
		<polygon class="st85" points="1062.5,352.5 1059,351.7 1060,348.1 1063.5,349 		"/>
		<path class="st1" d="M1076.1,351.1c-0.1,0.6-6.9-0.4-15.1-2.3s-14.7-3.9-14.6-4.6c0.1-0.6,6.9,0.4,15.1,2.3
			S1076.2,350.5,1076.1,351.1z"/>
	</g>
	<path class="st86" d="M1037.8,357.1l-10.3-2l0.1-0.6c0.6-2.8,3.3-4.7,6.1-4.1l0,0c2.8,0.6,4.7,3.3,4.1,6.1L1037.8,357.1z"/>
	
		<rect x="1043.5" y="360" transform="matrix(0.9121 -0.4101 0.4101 0.9121 -57.8974 460.2095)" class="st5" width="1" height="10.2"/>
	
		<rect x="1028.7" y="363.8" transform="matrix(0.198 -0.9802 0.9802 0.198 470.6726 1303.8162)" class="st5" width="6.7" height="1"/>
	
		<rect x="1015.3" y="362.2" transform="matrix(0.5245 -0.8514 0.8514 0.5245 175.844 1040.2598)" class="st5" width="7.9" height="1"/>
	
		<linearGradient id="SVGID_66_" gradientUnits="userSpaceOnUse" x1="1003.8" y1="218.55" x2="1052" y2="218.55" gradientTransform="matrix(1 0 0 -1 0 602)">
		<stop  offset="0" style="stop-color:#FFC572"/>
		<stop  offset="1" style="stop-color:#FF4EB3"/>
	</linearGradient>
	<polygon class="st87" points="1045.1,405.2 1003.8,397.1 1010.7,361.7 1052,369.7 	"/>
	<g>
		
			<rect x="1026.5" y="362.4" transform="matrix(0.1898 -0.9818 0.9818 0.1898 456.3681 1319.9338)" class="st75" width="3" height="42"/>
	</g>
	<g>
		
			<rect x="1010" y="382" transform="matrix(0.2136 -0.9769 0.9769 0.2136 433.7911 1305.8529)" class="st75" width="36.1" height="3"/>
	</g>
	
		<linearGradient id="SVGID_67_" gradientUnits="userSpaceOnUse" x1="1020.6" y1="243.45" x2="1044.8381" y2="243.45" gradientTransform="matrix(1 0 0 -1 0 602)">
		<stop  offset="0" style="stop-color:#68D2FF"/>
		<stop  offset="1" style="stop-color:#2287D9"/>
	</linearGradient>
	<polygon class="st88" points="1043.8,363.6 1020.6,359.1 1021.7,353.5 1044.9,358 	"/>
</g>
<g>
	<g>
		<defs>
			<polygon id="SVGID_68_" points="239.4,598.6 120.5,598 118.5,467.4 239.4,468 			"/>
		</defs>
		<clipPath id="SVGID_69_">
			<use xlink:href="#SVGID_68_"  style="overflow:visible;"/>
		</clipPath>
		<g class="st89">
			<g>
				<path class="st19" d="M174.9,494.1l-3.1-4.7c1.9-1.3,3.5-2.9,4.7-4.9l3,5.9C177.8,491.1,176.3,492.2,174.9,494.1z"/>
				<path class="st19" d="M185.6,485.5c0,0,0.4,2.8,0.6,3.9l-1.7-0.2L185.6,485.5z"/>
				<path class="st20" d="M185.3,488.7c-0.2,0.8-1.2,3.1-1.2,3.1c-0.7,0.6-1.3,0.7-2.2,0.6c-2.2-0.2-4.2-1.4-5.6-3.1
					c-1.4-1.7-2.2-3.8-2.3-6c-0.2-2.8,0.9-5.9,3.4-7s7.2-0.2,8.7,2.3C187.6,481.4,186,486,185.3,488.7z"/>
				<path class="st5" d="M169.4,554.1l-2.2,4.3l-0.8,2.2l13.8,4.8l0,0c0.4-1.3-0.2-2.7-1.4-3.4l-2.8-1.6l-1.8-3.4v-1L169.4,554.1z"
					/>
				<g>
					
						<linearGradient id="SVGID_70_" gradientUnits="userSpaceOnUse" x1="209.1269" y1="7.2503" x2="226.1818" y2="-0.1508" gradientTransform="matrix(0.9764 0.2158 0.2158 -0.9764 -48.9037 465.6184)">
						<stop  offset="0" style="stop-color:#92D2FF"/>
						<stop  offset="1" style="stop-color:#28A0FF"/>
					</linearGradient>
					<path class="st90" d="M160.5,525.9c1-0.1,3.8,0.4,4.6,0.4c0.7-1.2,12.2-27.2,9.8-32.2l-1.8-4.5c0,0-5-5.3-14.8,11
						c-5.8,9.5-10.7,16.1-12.4,21C149,523.2,155.9,526.2,160.5,525.9z"/>
					
						<linearGradient id="SVGID_71_" gradientUnits="userSpaceOnUse" x1="164.3015" y1="75.7594" x2="169.9887" y2="32.4284" gradientTransform="matrix(1 0 0 -1 0 602)">
						<stop  offset="0" style="stop-color:#60A1E3"/>
						<stop  offset="1" style="stop-color:#5D5FD0"/>
					</linearGradient>
					<path class="st91" d="M184.5,535.5c0.8-4.8-18.6-10.8-18.6-10.8s-2.6,1.2-2.6,1.1c-0.8,0-1.7,0-2.7,0
						c-4.6,0.1-11.5-2.9-14.7-4.4c-1.1,3.2-1.2,7.1,1.8,9.2c7.3,5,27.6,5.6,27.6,5.6l-6.1,18.5l4.6,2.1
						C173.7,556.9,183.7,540.3,184.5,535.5z"/>
				</g>
			</g>
			<path class="st5" d="M174.2,487.4c0,0-0.6-1.6-1.1-2.9s-1-4.4-0.9-5.2c0.1-0.8,8.3-0.5,8.3-0.5l6.1,2.4h-6.2l-1.5,3.7
				c0,0-0.8-1.8-2-1.1c-1.2,0.7-0.7,2-0.3,2.5S174.2,487.4,174.2,487.4z"/>
			
				<linearGradient id="SVGID_72_" gradientUnits="userSpaceOnUse" x1="172.1182" y1="125.4941" x2="188.9289" y2="125.4941" gradientTransform="matrix(1 0 0 -1 0 602)">
				<stop  offset="0" style="stop-color:#FFC572"/>
				<stop  offset="1" style="stop-color:#FF4EB3"/>
			</linearGradient>
			<path class="st92" d="M186,481.2c0,0.2-5.6-0.6-5.6-0.6l-8.2-0.2c0,0-1-8.4,6.1-8.8c12.1-0.6,10.5,8.8,10.7,9.5
				S186,481.2,186,481.2z"/>
			
				<linearGradient id="SVGID_73_" gradientUnits="userSpaceOnUse" x1="186.8955" y1="122.9444" x2="173.2991" y2="126.082" gradientTransform="matrix(1 0 0 -1 0 602)">
				<stop  offset="0" style="stop-color:#FFC572"/>
				<stop  offset="1" style="stop-color:#FF4EB3"/>
			</linearGradient>
			<path class="st93" d="M174.8,477.4c0,0,5.5-3.8,12.4,2.8C187.3,480.2,180.8,475.6,174.8,477.4z"/>
			
				<linearGradient id="SVGID_74_" gradientUnits="userSpaceOnUse" x1="187.3354" y1="124.8507" x2="173.739" y2="127.9883" gradientTransform="matrix(1 0 0 -1 0 602)">
				<stop  offset="0" style="stop-color:#FFC572"/>
				<stop  offset="1" style="stop-color:#FF4EB3"/>
			</linearGradient>
			<path class="st94" d="M187.1,479c0,0-2.1-6.8-9.6-4.9C177.5,474.1,184,473.7,187.1,479z"/>
			<path class="st95" d="M147.9,515.5l-0.1-0.8c6.6-1.2,14.9-3.1,19.5-7.2c2.4-2.2,5-6.2,4.8-9.4c-0.1-1.5-0.7-2.7-1.9-3.6
				c-1.2-1-3.4-1-5.4-1c-1.1,0-2.1,0-2.9-0.2l0.2-0.8c0.8,0.2,1.7,0.2,2.8,0.2c2.1,0,4.4,0.1,5.8,1.2c1.4,1.1,2.1,2.5,2.2,4.2
				c0.2,3.8-3,8.1-5.1,10C163,512.4,154.6,514.3,147.9,515.5z"/>
			<g>
				
					<linearGradient id="SVGID_75_" gradientUnits="userSpaceOnUse" x1="126.2" y1="103.45" x2="163.467" y2="103.45" gradientTransform="matrix(1 0 0 -1 0 602)">
					<stop  offset="0" style="stop-color:#FFC572"/>
					<stop  offset="1" style="stop-color:#FF4EB3"/>
				</linearGradient>
				<polygon class="st96" points="147.9,517.8 126.2,504.2 141.7,479.3 163.4,492.8 				"/>
				
					<linearGradient id="SVGID_76_" gradientUnits="userSpaceOnUse" x1="140.0248" y1="113.55" x2="162.1608" y2="113.55" gradientTransform="matrix(1 0 0 -1 0 602)">
					<stop  offset="0" style="stop-color:#FFC572"/>
					<stop  offset="1" style="stop-color:#FF4EB3"/>
				</linearGradient>
				<polygon class="st97" points="161.7,495.6 140,482 140.5,481.3 162.2,494.9 				"/>
			</g>
			<g>
				<path class="st98" d="M167.6,574.1c-0.1,0-0.2,0-0.4-0.1c-0.5-0.2-0.8-0.8-0.6-1.3l3.7-9.6c0.2-0.5,0.8-0.8,1.3-0.6
					s0.8,0.8,0.6,1.3l-3.7,9.6C168.4,573.9,168,574.1,167.6,574.1z"/>
				<path class="st98" d="M177.3,566.5c-0.1,0-0.2,0-0.3-0.1l-9-3.1c-0.5-0.2-0.8-0.8-0.6-1.3s0.8-0.8,1.3-0.6l9,3.1
					c0.5,0.2,0.8,0.8,0.6,1.3C178.1,566.3,177.8,566.5,177.3,566.5z"/>
			</g>
			<path class="st99" d="M166.6,584.5c-0.5,0-1-0.4-1-1l-0.4-7.5c0-0.6,0.4-1.1,1-1.1s1.1,0.4,1.1,1l0.4,7.5
				C167.7,584,167.2,584.4,166.6,584.5L166.6,584.5z"/>
			<path class="st49" d="M166.9,576.4l-31.9,1.2c-2.2,0.1-4.1-1.7-4.1-3.9v-2.2c0-2.2,1.8-4,4.1-3.9l31.9,1.1
				c2.1,0.1,3.8,1.8,3.8,3.9l0,0C170.7,574.6,169,576.3,166.9,576.4z"/>
			<g>
				<g id="XMLID_48_">
					<g>
						<path d="M215.7,550.1c12.4,0,22.5,10.1,22.5,22.5s-10.1,22.5-22.5,22.5s-22.5-10.1-22.5-22.5
							C193.2,560.2,203.3,550.1,215.7,550.1z M237.8,572.6c0-12.2-9.9-22.1-22.1-22.1s-22.1,9.9-22.1,22.1
							c0,12.2,9.9,22.1,22.1,22.1S237.8,584.8,237.8,572.6z"/>
						<path d="M215.7,552.2c11.2,0,20.4,9.2,20.4,20.4s-9.2,20.4-20.4,20.4s-20.4-9.2-20.4-20.4
							C195.3,561.3,204.4,552.2,215.7,552.2z M235.9,572.6c0-11.2-9.1-20.2-20.2-20.2s-20.2,9.1-20.2,20.2s9.1,20.2,20.2,20.2
							S235.9,583.7,235.9,572.6z"/>
						<path d="M215.7,552.3c11.2,0,20.2,9.1,20.2,20.2s-9.1,20.2-20.2,20.2s-20.2-9.1-20.2-20.2S204.5,552.3,215.7,552.3z
							 M235.7,572.6c0-11.1-9-20.1-20.1-20.1s-20.1,9-20.1,20.1s9,20.1,20.1,20.1S235.7,583.6,235.7,572.6z"/>
					</g>
				</g>
				<g>
					<g>
						<g>
							<rect x="215.4" y="552.3" class="st8" width="0.5" height="40.5"/>
							<rect x="195.4" y="572.3" class="st8" width="40.5" height="0.5"/>
						</g>
						<g>
							
								<rect x="195.4" y="572.3" transform="matrix(0.7077 -0.7065 0.7065 0.7077 -341.499 319.7054)" class="st8" width="40.5" height="0.5"/>
							
								<rect x="215.4" y="552.3" transform="matrix(0.7071 -0.7071 0.7071 0.7071 -341.6999 320.1785)" class="st8" width="0.5" height="40.5"/>
						</g>
					</g>
					<g>
						<g>
							
								<rect x="195.4" y="572.3" transform="matrix(0.396 -0.9183 0.9183 0.396 -395.5037 543.8896)" class="st8" width="40.5" height="0.5"/>
							
								<rect x="215.4" y="552.3" transform="matrix(0.3967 -0.918 0.918 0.3967 -395.4871 543.4293)" class="st8" width="0.5" height="40.5"/>
						</g>
						<g>
							
								<rect x="195.4" y="572.3" transform="matrix(0.9294 -0.369 0.369 0.9294 -196.0571 119.9774)" class="st8" width="40.5" height="0.5"/>
							
								<rect x="215.4" y="552.3" transform="matrix(0.9296 -0.3686 0.3686 0.9296 -195.8654 119.7975)" class="st8" width="0.5" height="40.5"/>
						</g>
					</g>
				</g>
				<path class="st100" d="M218.2,572.6c0,1.4-1.1,2.5-2.5,2.5s-2.5-1.1-2.5-2.5s1.1-2.5,2.5-2.5C217.1,570,218.2,571.2,218.2,572.6
					z"/>
			</g>
			<g>
				<g id="XMLID_47_">
					<g>
						<path d="M138.4,550.1c12.4,0,22.5,10.1,22.5,22.5s-10.1,22.5-22.5,22.5s-22.5-10.1-22.5-22.5C116,560.2,126,550.1,138.4,550.1
							z M160.5,572.6c0-12.2-9.9-22.1-22.1-22.1c-12.2,0-22.1,9.9-22.1,22.1c0,12.2,9.9,22.1,22.1,22.1
							C150.6,594.7,160.5,584.8,160.5,572.6z"/>
						<path d="M138.4,552.2c11.2,0,20.4,9.2,20.4,20.4s-9.2,20.4-20.4,20.4s-20.4-9.2-20.4-20.4C118,561.3,127.2,552.2,138.4,552.2z
							 M158.6,572.6c0-11.2-9.1-20.2-20.2-20.2s-20.2,9.1-20.2,20.2s9.1,20.2,20.2,20.2S158.6,583.7,158.6,572.6z"/>
						<path d="M138.4,552.3c11.2,0,20.2,9.1,20.2,20.2s-9.1,20.2-20.2,20.2s-20.2-9.1-20.2-20.2S127.2,552.3,138.4,552.3z
							 M158.5,572.6c0-11.1-9-20.1-20.1-20.1s-20.1,9-20.1,20.1s9,20.1,20.1,20.1C149.5,592.6,158.5,583.6,158.5,572.6z"/>
					</g>
				</g>
				<g>
					<g>
						<g>
							<rect x="138.1" y="552.3" class="st8" width="0.5" height="40.5"/>
							<rect x="118.2" y="572.3" class="st8" width="40.5" height="0.5"/>
						</g>
						<g>
							
								<rect x="118.2" y="572.3" transform="matrix(0.7077 -0.7065 0.7065 0.7077 -364.0394 265.1384)" class="st8" width="40.5" height="0.5"/>
							
								<rect x="138.1" y="552.3" transform="matrix(0.7071 -0.7071 0.7071 0.7071 -364.3579 265.5374)" class="st8" width="0.5" height="40.5"/>
						</g>
					</g>
					<g>
						<g>
							
								<rect x="118.2" y="572.2" transform="matrix(0.3959 -0.9183 0.9183 0.3959 -442.1028 472.9547)" class="st8" width="40.5" height="0.5"/>
							
								<rect x="138.1" y="552.4" transform="matrix(0.3967 -0.918 0.918 0.3967 -442.1504 472.5187)" class="st8" width="0.5" height="40.5"/>
						</g>
						<g>
							
								<rect x="118.2" y="572.3" transform="matrix(0.9294 -0.369 0.369 0.9294 -201.4973 91.4874)" class="st8" width="40.5" height="0.5"/>
							
								<rect x="138.1" y="552.3" transform="matrix(0.9296 -0.3686 0.3686 0.9296 -201.313 91.3065)" class="st8" width="0.5" height="40.5"/>
						</g>
					</g>
				</g>
				<path class="st100" d="M140.9,572.6c0,1.4-1.1,2.5-2.5,2.5s-2.5-1.1-2.5-2.5s1.1-2.5,2.5-2.5C139.8,570,140.9,571.2,140.9,572.6
					z"/>
			</g>
			<path class="st98" d="M215.7,573.6c-0.1,0-0.2,0-0.2,0c-10-2.3-16.2-14.3-16.4-14.8v-0.1l-4.5-11.4c0-0.1-0.1-0.2-0.1-0.3
				l-0.7-9.9c0-0.6,0.4-1.1,1-1.1s1.1,0.4,1.1,1l0.6,9.7l4.4,11.2c0.4,0.7,6.2,11.7,15,13.7c0.6,0.1,0.9,0.7,0.8,1.2
				C216.6,573.3,216.1,573.6,215.7,573.6z"/>
			<path class="st98" d="M196.9,537.3H192c-0.6,0-1-0.5-1-1s0.5-1,1-1h4.9c0.6,0,1,0.5,1,1S197.4,537.3,196.9,537.3z"/>
			<path class="st98" d="M194.4,536.5c-0.6,0-1-0.5-1-1v-2.6c0-0.6,0.4-1,1-1c2.9-0.1,5.8-0.8,6-1.6c0.3-1.3-0.1-3.4-0.5-4.7
				c-2.4,0.6-8.7,2.1-14,2.4c-0.6,0-1-0.4-1.1-1c0-0.6,0.4-1,1-1.1c6.3-0.3,14.4-2.6,14.5-2.6c0.5-0.2,1.1,0.2,1.3,0.7
				c0.1,0.2,1.3,4.1,0.8,6.7c-0.5,2.5-4.7,3.1-7,3.2v1.7C195.4,536.1,195,536.5,194.4,536.5z"/>
			<path class="st98" d="M191.1,577.8h-3c-0.6,0-1-0.5-1-1c0-0.6,0.5-1,1-1h1.7c-1.3-5.6,0-10.4,1.2-13.5
				c5.6-14,18.6-16.1,19.1-16.2c0.6-0.1,1.1,0.3,1.2,0.9c0.1,0.6-0.3,1.1-0.9,1.2c-0.1,0-12.4,2-17.5,14.9c-1.2,3.4-2.5,8-0.8,13.5
				c0.1,0.3,0,0.6-0.2,0.9C191.7,577.6,191.4,577.8,191.1,577.8z"/>
			<path class="st98" d="M170.8,559.3h-8.9c-0.6,0-1-0.5-1-1s0.5-1,1-1h8.6l23.3-19.4c0.4-0.4,1.1-0.3,1.4,0.1
				c0.4,0.4,0.3,1.1-0.1,1.4L171.5,559C171.3,559.2,171,559.3,170.8,559.3z"/>
			<path class="st98" d="M173,570.3h-7.9c-0.6,0-1-0.5-1-1s0.5-1,1-1h7.4l22-23.6c0.4-0.4,1-0.4,1.5,0c0.4,0.4,0.4,1,0,1.5
				L173.8,570C173.6,570.2,173.3,570.3,173,570.3z"/>
			<path class="st98" d="M166.1,573.6c-0.4,0-0.9-0.3-1-0.7l-11.3-38.3c-0.2-0.5,0.2-1.1,0.7-1.3s1.1,0.2,1.3,0.7l11.3,38.3
				c0.2,0.5-0.2,1.1-0.7,1.3C166.3,573.6,166.2,573.6,166.1,573.6z"/>
			<path class="st4" d="M168.6,572.6c0,1.4-1.1,2.5-2.5,2.5s-2.5-1.1-2.5-2.5s1.1-2.5,2.5-2.5C167.5,570,168.6,571.2,168.6,572.6z"
				/>
			<path class="st98" d="M159,549.5h-39.4c-0.6,0-1-0.5-1-1s0.5-1,1-1H159c0.6,0,1,0.5,1,1S159.6,549.5,159,549.5z"/>
			<path class="st98" d="M138.4,573.6h-0.1c-0.4,0-0.7-0.3-0.8-0.6l-9.9-24.1c-0.2-0.5,0-1.1,0.6-1.3c0.5-0.2,1.1,0,1.3,0.6
				l9.2,22.5l17-22.7c0.3-0.5,1-0.5,1.4-0.2c0.5,0.3,0.5,1,0.2,1.4l-18.1,24.1C139,573.4,138.7,573.6,138.4,573.6z"/>
			<path class="st98" d="M113.6,579.4h-3.2c-0.6,0-1-0.5-1-1c0-0.6,0.5-1,1-1h2c-2.1-22.5,15.7-29.2,15.9-29.3
				c0.5-0.2,1.1,0.1,1.3,0.6s-0.1,1.1-0.6,1.3c-0.7,0.3-17,6.5-14.4,28.3c0,0.3-0.1,0.6-0.3,0.8
				C114.2,579.3,113.9,579.4,113.6,579.4z"/>
			<path class="st98" d="M171.8,585.7h-0.1l-9.3-1.2c-0.6-0.1-1-0.6-0.9-1.2c0.1-0.6,0.6-1,1.2-0.9l9.3,1.2c0.6,0.1,1,0.6,0.9,1.2
				C172.7,585.3,172.3,585.7,171.8,585.7z"/>
			<path class="st5" d="M145.7,529.9l1.3,3c0.4,0.9,1.3,1.5,2.3,1.5h13.2c0.1,0,0.2-0.1,0.1-0.2l-0.4-1.1c-0.5-1.4-1.8-2.3-3.2-2.4
				l-13.1-1C145.8,529.7,145.7,529.8,145.7,529.9z"/>
			<path class="st5" d="M163,575.4l-1.5,4.5l-0.4,2.2l14.2,2.5l0,0c0.2-1.3-0.6-2.6-1.9-3.1l-3-1.1l-2.3-3l-0.2-1L163,575.4z"/>
			
				<linearGradient id="SVGID_77_" gradientUnits="userSpaceOnUse" x1="157.7855" y1="75.1508" x2="163.2763" y2="33.3159" gradientTransform="matrix(1 0 0 -1 0 602)">
				<stop  offset="0" style="stop-color:#60A1E3"/>
				<stop  offset="1" style="stop-color:#5D5FD0"/>
			</linearGradient>
			<path class="st101" d="M161.9,528.4c0,0,6.9,11.9,9.7,20.7l-3.5,28.6l-5.5-1l2.2-26.3c0,0-16.9-18.7-17.6-21.2L161.9,528.4z"/>
			
				<linearGradient id="SVGID_78_" gradientUnits="userSpaceOnUse" x1="178.6169" y1="95.4445" x2="170.5114" y2="84.2013" gradientTransform="matrix(1 0 0 -1 0 602)">
				<stop  offset="0" style="stop-color:#92D2FF"/>
				<stop  offset="1" style="stop-color:#28A0FF"/>
			</linearGradient>
			<path class="st102" d="M168.8,514c-0.3-5.1,1.6-9.5,2.2-14.2c-0.9-2.7-2.7-3.5-5.6-1.8c-1.2,4.1-3.7,10.2-2.7,15.7
				c0.2,0.9,0.4,1.8,0.8,2.6c0.5,0.8,1.2,1.4,1.9,2c5.4,4.2,12.1,6,18.8,7.4c0.3-1.2,0.7-2.7,1-4C180,519,174.5,516.2,168.8,514z"/>
			<path class="st20" d="M194.1,526c-0.7-1-1.5-2-2.3-2.8c-0.3-0.2-0.5-0.5-0.9-0.6s-0.8,0-1.1,0c-1.4,0.2-3.4-0.2-4.8-0.6l-1.3,3.1
				c1.1,1.1,2.7,1.7,4.2,1.6c0.1,0.2,0.3,0.4,0.6,0.3l-0.1,0.6c0.3,1.1,1.6,1.7,2.8,1.4c1.1-0.2,2-1,2.9-1.8
				c0.1-0.1,0.3-0.3,0.3-0.5S194.2,526.2,194.1,526z"/>
			
				<linearGradient id="SVGID_79_" gradientUnits="userSpaceOnUse" x1="193.1271" y1="119.1765" x2="167.8518" y2="123.36" gradientTransform="matrix(1 0 0 -1 0 602)">
				<stop  offset="0" style="stop-color:#FFC572"/>
				<stop  offset="1" style="stop-color:#FF4EB3"/>
			</linearGradient>
			<path class="st103" d="M172.2,480l8.4,0.2l8.4,0.9c0,0,0.3,0.4-1.2,0.3c-1.4,0-7.2-0.7-7.2-0.7l-8.4-0.3V480z"/>
			
				<linearGradient id="SVGID_80_" gradientUnits="userSpaceOnUse" x1="176.75" y1="113.8598" x2="176.75" y2="121.8137" gradientTransform="matrix(1 0 0 -1 0 602)">
				<stop  offset="0" style="stop-color:#FFC572"/>
				<stop  offset="1" style="stop-color:#FF4EB3"/>
			</linearGradient>
			<path class="st104" d="M178.7,488.1l-1.1-0.5c-1.7-0.8-2.8-2.4-2.9-4.3l-0.2-3.1l0.8-0.1l0.2,3.1c0.1,1.5,1,2.9,2.4,3.6l1.1,0.5
				L178.7,488.1z"/>
			
				<linearGradient id="SVGID_81_" gradientUnits="userSpaceOnUse" x1="179.55" y1="110.5" x2="179.55" y2="121.5243" gradientTransform="matrix(1 0 0 -1 0 602)">
				<stop  offset="0" style="stop-color:#FFC572"/>
				<stop  offset="1" style="stop-color:#FF4EB3"/>
			</linearGradient>
			<polygon class="st105" points="179.2,491.5 178.4,491.5 178.4,485.3 180,480.5 180.7,480.7 179.2,485.5 			"/>
		</g>
	</g>
</g>
<g>
	
		<linearGradient id="SVGID_82_" gradientUnits="userSpaceOnUse" x1="471.3377" y1="134.8" x2="508.3377" y2="134.8" gradientTransform="matrix(1 0 0 -1 0 602)">
		<stop  offset="0" style="stop-color:#FFC572"/>
		<stop  offset="1" style="stop-color:#FF4EB3"/>
	</linearGradient>
	<path class="st106" d="M491.1,453.8c-9.5,0-17.3,6-17.3,13.4c0,3.1,1.3,5.9,3.5,8.1l-6,5.3l8.7-3.1c3,1.9,6.8,3.1,11,3.1
		c9.5,0,17.3-6,17.3-13.4C508.3,459.8,500.6,453.8,491.1,453.8z"/>
	<path class="st107" d="M483.9,467c0,1.1-0.9,2.1-2.1,2.1c-1.1,0-2.1-0.9-2.1-2.1c0-1.1,0.9-2.1,2.1-2.1S483.9,465.8,483.9,467z"/>
	<path class="st107" d="M493.1,467c0,1.1-0.9,2.1-2.1,2.1c-1.1,0-2.1-0.9-2.1-2.1c0-1.1,0.9-2.1,2.1-2.1S493.1,465.8,493.1,467z"/>
	<path class="st107" d="M502.3,467c0,1.1-0.9,2.1-2.1,2.1c-1.1,0-2.1-0.9-2.1-2.1c0-1.1,0.9-2.1,2.1-2.1S502.3,465.8,502.3,467z"/>
</g>
<g>
	
		<linearGradient id="SVGID_83_" gradientUnits="userSpaceOnUse" x1="121.9277" y1="235.4" x2="144.5277" y2="235.4" gradientTransform="matrix(1 0 0 -1 0 602)">
		<stop  offset="0" style="stop-color:#FFC572"/>
		<stop  offset="1" style="stop-color:#FF4EB3"/>
	</linearGradient>
	<path class="st108" d="M133.2,355.3c6.2,0,11.3,5.1,11.3,11.3c0,6.2-5.1,11.3-11.3,11.3s-11.3-5.1-11.3-11.3
		C121.9,360.4,127,355.3,133.2,355.3L133.2,355.3z"/>
	<path class="st1" d="M130.4,372.4c-0.1,0-0.1,0-0.2,0c-0.5-0.1-0.9-0.4-1.2-0.8l-3-5.6c-0.4-0.8-0.1-1.7,0.6-2.1
		c0.8-0.4,1.7-0.1,2.1,0.6l2,3.7l7-7.1c0.6-0.6,1.6-0.6,2.2,0c0.6,0.6,0.6,1.6,0,2.2l-8.5,8.6C131.3,372.2,130.9,372.4,130.4,372.4z
		"/>
</g>
</svg>