<svg id="Layer_1" data-name="Layer 1" xmlns="http://www.w3.org/2000/svg" viewBox="0 0 466.1 246.55"><defs><style>.cls-1{isolation:isolate;}.cls-2{fill:#0f112e;}.cls-3{fill:#a81d34;}</style></defs><g class="cls-1"><path class="cls-2" d="M14.9,189.2a34.38,34.38,0,0,1,2.4-12.6,36.1,36.1,0,0,1,6.9-11.2,32.53,32.53,0,0,1,11.1-8.1,35.4,35.4,0,0,1,14.9-3,33,33,0,0,1,17.2,4.3,26.2,26.2,0,0,1,10.8,11.1l-12.5,8.7a14.53,14.53,0,0,0-4.2-5.8,15.43,15.43,0,0,0-5.7-2.9,21.57,21.57,0,0,0-6-.8,17.28,17.28,0,0,0-8.1,1.8,16.9,16.9,0,0,0-5.7,4.9,22.83,22.83,0,0,0-3.4,6.8,27.78,27.78,0,0,0-1.1,7.5,24,24,0,0,0,1.3,8,21.2,21.2,0,0,0,3.7,6.8,16.85,16.85,0,0,0,5.9,4.7,16.3,16.3,0,0,0,7.6,1.7,18,18,0,0,0,6-1,19.88,19.88,0,0,0,5.7-3.1,13.65,13.65,0,0,0,4-5.6L79,209.2a21.43,21.43,0,0,1-6.8,8.8,37.41,37.41,0,0,1-22.5,7.5,30.94,30.94,0,0,1-14-3.1,36.28,36.28,0,0,1-11-8.3,39,39,0,0,1-7.1-11.7A32.17,32.17,0,0,1,14.9,189.2Z" transform="translate(-14.9 -17.6)"/><path class="cls-2" d="M87.1,225.1V154.8h16.2v70.3Z" transform="translate(-14.9 -17.6)"/><path class="cls-2" d="M170.4,169H149v56.1H132.8V169H111.3V154.7h59.1Z" transform="translate(-14.9 -17.6)"/><path class="cls-2" d="M189.2,154.7l15.2,31.1,15.4-31.1h17.7l-25.1,46.4v24H196.3V200.9l-24.7-46.2Z" transform="translate(-14.9 -17.6)"/><path class="cls-2" d="M321.6,207.1a16,16,0,0,1-3.2,10.1,18.43,18.43,0,0,1-8.7,6,35.12,35.12,0,0,1-12,2H263.4V154.9h39.1a14.59,14.59,0,0,1,8.6,2.6,16.62,16.62,0,0,1,5.5,6.8,19.94,19.94,0,0,1,1.9,8.6,19.13,19.13,0,0,1-2.6,9.5,16,16,0,0,1-7.5,6.8,18.88,18.88,0,0,1,9.6,6.3C320.4,198.4,321.6,202.3,321.6,207.1Zm-41.9-38.5v14.6h15.9a7.31,7.31,0,0,0,3.3-.8,5.77,5.77,0,0,0,2.5-2.4,7.56,7.56,0,0,0,1-4.1,9.49,9.49,0,0,0-.8-4,5.74,5.74,0,0,0-2.2-2.4,5.66,5.66,0,0,0-3.2-.8H279.7v-.1ZM305,203.8a8.43,8.43,0,0,0-.9-4,8.06,8.06,0,0,0-2.3-2.8,5.68,5.68,0,0,0-3.4-1H279.7v15.4h18a6.63,6.63,0,0,0,3.7-1,7.46,7.46,0,0,0,2.6-2.7A7.56,7.56,0,0,0,305,203.8Z" transform="translate(-14.9 -17.6)"/><path class="cls-2" d="M432.8,154.7,448.1,179l15.3-24.3H481l-23.3,35.7,22.5,34.7H462.6L448,201.8l-14.5,23.3H415.8l22.5-34.7L415,154.7Z" transform="translate(-14.9 -17.6)"/></g><path class="cls-3" d="M375.6,176.6,331.4,163v50.7L378,228.3Zm-10.8-24.7L331.4,163h0l45.4,12.5L408.3,162ZM408.3,162l-30.4,14.7.2,51.7h0l30.2-16.1V162Z" transform="translate(-14.9 -17.6)"/><path class="cls-3" d="M209.2,63.6l.9-11.2s1.3-7.9,11-7.7S348.6,41,348.6,41s-7.9,19.4-25.7,19.4S209.2,63.6,209.2,63.6Z" transform="translate(-14.9 -17.6)"/><path class="cls-3" d="M212.2,41l.6-8.4s.3-11,12.3-10.7c12.2.3,151.5-4.3,151.5-4.3s-7.9,19.8-24.9,19.8S212.2,41,212.2,41Z" transform="translate(-14.9 -17.6)"/><path class="cls-3" d="M206.1,85.5,207.4,75s.8-8.2,10.6-8.2,100.9-2.4,100.9-2.4a26.63,26.63,0,0,1-22.3,19.2Z" transform="translate(-14.9 -17.6)"/><path class="cls-3" d="M135.1,101.1s-3.8-9.3,2.3-14.5,14.9-2.6,17.3.9c0,0-2.1-8.3-10.8-7.8a14.13,14.13,0,0,0-11.8,7.9C131.1,89.4,128.6,96.8,135.1,101.1Z" transform="translate(-14.9 -17.6)"/><path class="cls-3" d="M208.6,39.5a1.81,1.81,0,0,0-1.9-2l-24.6,1.4a26,26,0,0,0-11.2,3.3c-2.8,1.6-5.3,3.9-5.9,7.1a60.91,60.91,0,0,0-1.5,11.1s-25.6.1-37.7,5.8c0,0-2.6.8-9.2,21.9-.1.4.1.8.5.8h7.4a6,6,0,0,0,5.5-3.4v-.1s4.9-8.8,14.1-8.7,13.2,8.4,13.7,11.5l41.7-1.3a2.32,2.32,0,0,0,2.4-2.1ZM186.8,51l-3.4,23.8a8.49,8.49,0,0,1-.6,2.9,3.06,3.06,0,0,1-2.6,1.9l-16.4,1V77.9l15-.9a2.67,2.67,0,0,0,2.5-2.3l1.9-13.9a1,1,0,0,0-1-1.1h-15l.9-9.6c.1-5.3,4.4-4.3,4.4-4.3l9.7.1C188.2,45.1,186.8,51,186.8,51Z" transform="translate(-14.9 -17.6)"/><rect class="cls-3" x="77.1" y="96.3" width="310" height="5"/><g class="cls-1"><path class="cls-2" d="M101,255.5a9.82,9.82,0,0,1,.5-2.9A7.64,7.64,0,0,1,103,250a8.76,8.76,0,0,1,2.4-1.9,6.57,6.57,0,0,1,3.2-.7,6.41,6.41,0,0,1,3.7,1,6.84,6.84,0,0,1,2.3,2.5l-1.6,1a4,4,0,0,0-1.2-1.6,3.46,3.46,0,0,0-1.6-.8,5,5,0,0,0-1.7-.2,6,6,0,0,0-2.4.5,4.74,4.74,0,0,0-1.7,1.4,7.81,7.81,0,0,0-1.1,2,8.51,8.51,0,0,0-.4,2.2,6.39,6.39,0,0,0,1.6,4.4,4.89,4.89,0,0,0,1.8,1.4,5.45,5.45,0,0,0,2.2.5,5.3,5.3,0,0,0,3.3-1.2,4.81,4.81,0,0,0,1.2-1.6l1.7.9a4.26,4.26,0,0,1-1.5,2,7.55,7.55,0,0,1-2.3,1.3,7.66,7.66,0,0,1-2.5.4,6,6,0,0,1-3-.7,8.76,8.76,0,0,1-2.4-1.9,9.19,9.19,0,0,1-1.6-2.7A7.32,7.32,0,0,1,101,255.5Z" transform="translate(-14.9 -17.6)"/><path class="cls-2" d="M127.1,247.7h1.7l6.6,16h-2.2l-1.8-4.7h-6.9l-1.8,4.7h-2.2Zm3.7,9.7L128,250l-2.8,7.4Z" transform="translate(-14.9 -17.6)"/><path class="cls-2" d="M142.5,263.7v-16h6.9a3.81,3.81,0,0,1,1.9.4,4.43,4.43,0,0,1,1.5,1.2,5.37,5.37,0,0,1,1,1.6,5.85,5.85,0,0,1,.4,1.9,5,5,0,0,1-1.6,3.8,4,4,0,0,1-1.8,1l3.9,6.1h-2.3l-3.7-5.8h-4.2v5.8Zm2.1-7.6h4.9a2.69,2.69,0,0,0,1.5-.5,2.94,2.94,0,0,0,1-1.2,4.71,4.71,0,0,0,.4-1.6,3.29,3.29,0,0,0-.4-1.7,3.18,3.18,0,0,0-1.1-1.2,2.39,2.39,0,0,0-1.4-.5h-4.7v6.7Z" transform="translate(-14.9 -17.6)"/><path class="cls-2" d="M168.9,263.8a5.66,5.66,0,0,1-2.9-.7,8.79,8.79,0,0,1-4-4.5,8,8,0,0,1-.6-3,8.15,8.15,0,0,1,.6-3.1,8.69,8.69,0,0,1,1.6-2.6,8.4,8.4,0,0,1,2.4-1.8,7.31,7.31,0,0,1,3-.6,6.32,6.32,0,0,1,3.8,1,6.14,6.14,0,0,1,2.3,2.5l-1.6,1.1a5.54,5.54,0,0,0-1.9-2.1,5,5,0,0,0-2.7-.7,5.09,5.09,0,0,0-2.2.5,4.57,4.57,0,0,0-1.7,1.4,7.81,7.81,0,0,0-1.1,2,9.26,9.26,0,0,0-.4,2.3,6.05,6.05,0,0,0,.4,2.4,6.66,6.66,0,0,0,1.2,2,6.23,6.23,0,0,0,1.8,1.4,5.45,5.45,0,0,0,2.2.5,4.84,4.84,0,0,0,2.6-.7A9,9,0,0,0,174,259v2.1A6.55,6.55,0,0,1,168.9,263.8Zm4.8-6.6h-3.5v-1.5h5.2v8h-1.7Z" transform="translate(-14.9 -17.6)"/><path class="cls-2" d="M190.1,263.8a6.43,6.43,0,0,1-3.1-.7,10.77,10.77,0,0,1-2.4-1.8,6.81,6.81,0,0,1-1.5-2.6,7.89,7.89,0,0,1-.5-3,8.15,8.15,0,0,1,.6-3.1,8.69,8.69,0,0,1,1.6-2.6,6.9,6.9,0,0,1,2.4-1.8,7.35,7.35,0,0,1,3-.7,6.43,6.43,0,0,1,3.1.7,8.76,8.76,0,0,1,2.4,1.9,7.64,7.64,0,0,1,1.5,2.6,7.89,7.89,0,0,1,.5,3,8.15,8.15,0,0,1-.6,3.1,8.69,8.69,0,0,1-1.6,2.6,6.9,6.9,0,0,1-2.4,1.8A7.31,7.31,0,0,1,190.1,263.8Zm-5.5-8.1a6.72,6.72,0,0,0,.4,2.4,6.44,6.44,0,0,0,1.1,2,5.52,5.52,0,0,0,1.7,1.4,5.21,5.21,0,0,0,2.3.5,5.56,5.56,0,0,0,2.3-.5,3.91,3.91,0,0,0,1.7-1.4,7.81,7.81,0,0,0,1.1-2,9.26,9.26,0,0,0,.4-2.3,5.87,5.87,0,0,0-.4-2.3,7.81,7.81,0,0,0-1.1-2,5.52,5.52,0,0,0-1.7-1.4,5.45,5.45,0,0,0-2.2-.5,5.56,5.56,0,0,0-2.3.5,4.74,4.74,0,0,0-1.7,1.4,7.81,7.81,0,0,0-1.1,2A4,4,0,0,0,184.6,255.7Z" transform="translate(-14.9 -17.6)"/><path class="cls-2" d="M230.1,263.7V251.5l-5.3,9.4h-1.2l-5.3-9.4v12.2h-2v-16h2.1l5.8,10.4,5.8-10.4h2.1v16Z" transform="translate(-14.9 -17.6)"/><path class="cls-2" d="M247.6,263.8a6.43,6.43,0,0,1-3.1-.7,10.77,10.77,0,0,1-2.4-1.8,6.81,6.81,0,0,1-1.5-2.6,7.89,7.89,0,0,1-.5-3,8.15,8.15,0,0,1,.6-3.1,8.69,8.69,0,0,1,1.6-2.6,6.9,6.9,0,0,1,2.4-1.8,7.35,7.35,0,0,1,3-.7,6.43,6.43,0,0,1,3.1.7,8.76,8.76,0,0,1,2.4,1.9,7.64,7.64,0,0,1,1.5,2.6,7.89,7.89,0,0,1,.5,3,8.15,8.15,0,0,1-.6,3.1,8.69,8.69,0,0,1-1.6,2.6,6.9,6.9,0,0,1-2.4,1.8A8,8,0,0,1,247.6,263.8Zm-5.5-8.1a6.72,6.72,0,0,0,.4,2.4,6.44,6.44,0,0,0,1.1,2,5.52,5.52,0,0,0,1.7,1.4,5.21,5.21,0,0,0,2.3.5,5.56,5.56,0,0,0,2.3-.5,3.91,3.91,0,0,0,1.7-1.4,7.81,7.81,0,0,0,1.1-2,9.26,9.26,0,0,0,.4-2.3,5.87,5.87,0,0,0-.4-2.3,7.81,7.81,0,0,0-1.1-2,5.52,5.52,0,0,0-1.7-1.4,5.45,5.45,0,0,0-2.2-.5,5.56,5.56,0,0,0-2.3.5,4.74,4.74,0,0,0-1.7,1.4,7.81,7.81,0,0,0-1.1,2A4,4,0,0,0,242.1,255.7Z" transform="translate(-14.9 -17.6)"/><path class="cls-2" d="M262.8,247.7l5.3,13.5,5.3-13.5h2.1l-6.5,16h-1.9l-6.5-16Z" transform="translate(-14.9 -17.6)"/><path class="cls-2" d="M293.7,261.9v1.8H282.8v-16h10.7v1.8h-8.7v5.2h7.5v1.7h-7.5v5.5Z" transform="translate(-14.9 -17.6)"/><path class="cls-2" d="M301.5,263.7v-16h6.9a3.81,3.81,0,0,1,1.9.4,4.43,4.43,0,0,1,1.5,1.2,5.37,5.37,0,0,1,1,1.6,5.85,5.85,0,0,1,.4,1.9,5,5,0,0,1-1.6,3.8,4,4,0,0,1-1.8,1l3.9,6.1h-2.3l-3.7-5.8h-4.2v5.8Zm2-7.6h4.9a2.69,2.69,0,0,0,1.5-.5,2.94,2.94,0,0,0,1-1.2,4.53,4.53,0,0,0,.3-1.6,3.29,3.29,0,0,0-.4-1.7,3.18,3.18,0,0,0-1.1-1.2,2.39,2.39,0,0,0-1.4-.5h-4.7l-.1,6.7Z" transform="translate(-14.9 -17.6)"/><path class="cls-2" d="M330.8,251a4.35,4.35,0,0,0-.7-.6,3.13,3.13,0,0,0-1-.5,5.64,5.64,0,0,0-1.2-.4,6.15,6.15,0,0,0-1.4-.1,4.15,4.15,0,0,0-2.7.7,2.32,2.32,0,0,0-.9,1.9,2.17,2.17,0,0,0,.5,1.4,2.73,2.73,0,0,0,1.4.8c.6.2,1.4.4,2.4.7a11,11,0,0,1,2.9.9,4.5,4.5,0,0,1,1.9,1.4,3.93,3.93,0,0,1,.7,2.3,4.21,4.21,0,0,1-.4,2,4.07,4.07,0,0,1-1.2,1.4,4.74,4.74,0,0,1-1.9.8,8.52,8.52,0,0,1-2.3.3,9.86,9.86,0,0,1-2.4-.3,8.26,8.26,0,0,1-2.2-.8,12.23,12.23,0,0,1-1.9-1.2l1-1.7a7.27,7.27,0,0,0,.9.8c.4.2.8.5,1.3.7a7.49,7.49,0,0,0,1.6.5,11,11,0,0,0,1.8.2,5.4,5.4,0,0,0,2.7-.6,2,2,0,0,0,.9-1.8,2,2,0,0,0-.5-1.4,3.54,3.54,0,0,0-1.6-.9c-.7-.2-1.5-.5-2.5-.7a21.16,21.16,0,0,1-2.7-.9,3.71,3.71,0,0,1-1.7-1.3,3.28,3.28,0,0,1-.6-2.1,4.41,4.41,0,0,1,.7-2.6,4.91,4.91,0,0,1,2.1-1.6,7.29,7.29,0,0,1,3-.5,12.31,12.31,0,0,1,2,.2l1.8.6a13,13,0,0,1,1.5,1Z" transform="translate(-14.9 -17.6)"/><polygon class="cls-2" points="338.4 244.1 338.4 230.1 336.4 230.1 336.4 244.1 336.4 246.1 338.4 246.1 345.1 246.1 345.1 244.1 338.4 244.1"/><polygon class="cls-2" points="355.4 244.1 355.4 230.1 353.4 230.1 353.4 244.1 353.4 246.1 355.4 246.1 362.11 246.1 362.11 244.1 355.4 244.1"/><path class="cls-2" d="M385.3,256.15a9.82,9.82,0,0,1,.5-2.9,7.64,7.64,0,0,1,1.5-2.6,8.76,8.76,0,0,1,2.4-1.9,6.57,6.57,0,0,1,3.2-.7,6.41,6.41,0,0,1,3.7,1,6.84,6.84,0,0,1,2.3,2.5l-1.6,1a4,4,0,0,0-1.2-1.6,3.46,3.46,0,0,0-1.6-.8,5,5,0,0,0-1.7-.2,6,6,0,0,0-2.4.5,4.74,4.74,0,0,0-1.7,1.4,7.81,7.81,0,0,0-1.1,2,8.51,8.51,0,0,0-.4,2.2,6.39,6.39,0,0,0,1.6,4.4,4.89,4.89,0,0,0,1.8,1.4,5.45,5.45,0,0,0,2.2.5,5.3,5.3,0,0,0,3.3-1.2,4.81,4.81,0,0,0,1.2-1.6l1.7.9a4.26,4.26,0,0,1-1.5,2,7.55,7.55,0,0,1-2.3,1.3,7.66,7.66,0,0,1-2.5.4,6,6,0,0,1-3-.7,8.76,8.76,0,0,1-2.4-1.9,9.19,9.19,0,0,1-1.6-2.7A7.32,7.32,0,0,1,385.3,256.15Z" transform="translate(-14.9 -17.6)"/></g></svg>