<?xml version="1.0" encoding="utf-8"?>
<!-- Generator: Adobe Illustrator 23.0.3, SVG Export Plug-In . SVG Version: 6.00 Build 0)  -->
<svg version="1.1" id="Layer_1" xmlns="http://www.w3.org/2000/svg" xmlns:xlink="http://www.w3.org/1999/xlink" x="0px" y="0px"
	 viewBox="0 0 500 277.7" style="enable-background:new 0 0 500 277.7;" xml:space="preserve">
<style type="text/css">
	.st0{enable-background:new    ;}
	.st1{fill:#0F112E;}
	.st2{fill:#A81D34;}
</style>
<g>
	<g>
		<g>
			<g class="st0">
				<path class="st1" d="M14.9,189.2c0-4.3,0.8-8.5,2.4-12.6s3.9-7.9,6.9-11.2c3-3.4,6.7-6.1,11.1-8.1s9.3-3,14.9-3
					c6.6,0,12.3,1.4,17.2,4.3c4.9,2.8,8.5,6.5,10.8,11.1l-12.5,8.7c-1.1-2.5-2.5-4.5-4.2-5.8c-1.8-1.4-3.7-2.4-5.7-2.9
					c-2.1-0.6-4.1-0.8-6-0.8c-3.1,0-5.8,0.6-8.1,1.8s-4.2,2.9-5.7,4.9s-2.6,4.3-3.4,6.8c-0.7,2.5-1.1,5-1.1,7.5c0,2.8,0.4,5.4,1.3,8
					s2.1,4.9,3.7,6.8c1.6,2,3.6,3.6,5.9,4.7c2.3,1.2,4.9,1.7,7.6,1.7c2,0,4-0.3,6-1s3.9-1.7,5.7-3.1c1.7-1.4,3.1-3.3,4-5.6l13.3,7.8
					c-1.4,3.4-3.7,6.4-6.8,8.8c-3.2,2.4-6.8,4.3-10.7,5.6c-4,1.3-7.9,1.9-11.8,1.9c-5.1,0-9.8-1-14-3.1c-4.3-2.1-7.9-4.9-11-8.3
					c-3.1-3.5-5.4-7.4-7.1-11.7C15.7,198.1,14.9,193.7,14.9,189.2z"/>
				<path class="st1" d="M87.1,225.1v-70.3h16.2v70.3H87.1z"/>
				<path class="st1" d="M170.4,169H149v56.1h-16.2V169h-21.5v-14.3h59.1V169z"/>
				<path class="st1" d="M189.2,154.7l15.2,31.1l15.4-31.1h17.7l-25.1,46.4v24h-16.1v-24.2l-24.7-46.2L189.2,154.7L189.2,154.7z"/>
				<path class="st1" d="M321.6,207.1c0,4-1.1,7.4-3.2,10.1s-5,4.7-8.7,6c-3.6,1.3-7.6,2-12,2h-34.3v-70.3h39.1
					c3.3,0,6.2,0.9,8.6,2.6c2.4,1.8,4.3,4,5.5,6.8c1.3,2.8,1.9,5.6,1.9,8.6c0,3.3-0.9,6.5-2.6,9.5s-4.2,5.3-7.5,6.8
					c4,1.2,7.2,3.3,9.6,6.3C320.4,198.4,321.6,202.3,321.6,207.1z M279.7,168.6v14.6h15.9c1.2,0,2.3-0.3,3.3-0.8s1.9-1.3,2.5-2.4
					c0.7-1.1,1-2.5,1-4.1s-0.3-2.9-0.8-4c-0.6-1.1-1.3-1.9-2.2-2.4c-0.9-0.6-2-0.8-3.2-0.8h-16.5L279.7,168.6L279.7,168.6z
					 M305,203.8c0-1.5-0.3-2.9-0.9-4c-0.6-1.2-1.4-2.1-2.3-2.8c-1-0.7-2.1-1-3.4-1h-18.7v15.4h18c1.4,0,2.6-0.3,3.7-1s2-1.6,2.6-2.7
					C304.7,206.5,305,205.2,305,203.8z"/>
				<path class="st1" d="M432.8,154.7l15.3,24.3l15.3-24.3H481l-23.3,35.7l22.5,34.7h-17.6L448,201.8l-14.5,23.3h-17.7l22.5-34.7
					L415,154.7H432.8L432.8,154.7z"/>
			</g>
			<path class="st2" d="M375.6,176.6L331.4,163v50.7l46.6,14.6L375.6,176.6z M364.8,151.9L331.4,163l0,0l45.4,12.5l31.5-13.5
				L364.8,151.9z M408.3,162l-30.4,14.7l0.2,51.7l0,0l30.2-16.1L408.3,162L408.3,162z"/>
		</g>
		<g>
			<g>
				<path class="st2" d="M209.2,63.6l0.9-11.2c0,0,1.3-7.9,11-7.7C230.7,45,348.6,41,348.6,41s-7.9,19.4-25.7,19.4
					C305.1,60.4,209.2,63.6,209.2,63.6z"/>
				<path class="st2" d="M212.2,41l0.6-8.4c0,0,0.3-11,12.3-10.7c12.2,0.3,151.5-4.3,151.5-4.3s-7.9,19.8-24.9,19.8
					C334.6,37.4,212.2,41,212.2,41z"/>
				<path class="st2" d="M206.1,85.5l1.3-10.5c0,0,0.8-8.2,10.6-8.2s100.9-2.4,100.9-2.4s-3.7,16.4-22.3,19.2L206.1,85.5z"/>
				<path class="st2" d="M135.1,101.1c0,0-3.8-9.3,2.3-14.5c6-5.2,14.9-2.6,17.3,0.9c0,0-2.1-8.3-10.8-7.8c-5,0.4-9.7,3.3-11.8,7.9
					C131.1,89.4,128.6,96.8,135.1,101.1z"/>
				<path class="st2" d="M208.6,39.5c0.1-1.1-0.8-2.1-1.9-2l-24.6,1.4c-3.9,0.3-7.8,1.3-11.2,3.3c-2.8,1.6-5.3,3.9-5.9,7.1
					c-1.5,7.2-1.5,11.1-1.5,11.1s-25.6,0.1-37.7,5.8c0,0-2.6,0.8-9.2,21.9c-0.1,0.4,0.1,0.8,0.5,0.8h7.4c2.4,0,4.5-1.3,5.5-3.4v-0.1
					c0,0,4.9-8.8,14.1-8.7c9.1,0.1,13.2,8.4,13.7,11.5l41.7-1.3c1.3,0,2.3-0.9,2.4-2.1L208.6,39.5z M186.8,51l-3.4,23.8
					c-0.1,1.3-0.3,2.3-0.6,2.9c-0.4,1.1-1.5,1.8-2.6,1.9l-16.4,1v-2.7l15-0.9c1.3-0.1,2.3-1,2.5-2.3l1.9-13.9c0.1-0.6-0.4-1.1-1-1.1
					h-15l0.9-9.6c0.1-5.3,4.4-4.3,4.4-4.3l9.7,0.1C188.2,45.1,186.8,51,186.8,51z"/>
			</g>
			<rect x="92" y="113.9" class="st2" width="310" height="5"/>
		</g>
	</g>
	<g class="st0">
		<path class="st1" d="M134.3,255.5c0-1,0.2-1.9,0.5-2.9c0.3-0.9,0.8-1.8,1.5-2.6c0.7-0.8,1.5-1.4,2.4-1.9s2-0.7,3.2-0.7
			c1.4,0,2.7,0.3,3.7,1s1.8,1.5,2.3,2.5l-1.6,1c-0.3-0.7-0.7-1.2-1.2-1.6s-1-0.7-1.6-0.8c-0.6-0.2-1.1-0.2-1.7-0.2
			c-0.9,0-1.7,0.2-2.4,0.5c-0.7,0.4-1.3,0.8-1.7,1.4c-0.5,0.6-0.8,1.3-1.1,2c-0.2,0.7-0.4,1.5-0.4,2.2c0,0.8,0.1,1.6,0.4,2.4
			s0.7,1.4,1.2,2s1.1,1.1,1.8,1.4s1.4,0.5,2.2,0.5c0.6,0,1.1-0.1,1.7-0.3c0.6-0.2,1.1-0.5,1.6-0.9s0.9-1,1.2-1.6l1.7,0.9
			c-0.3,0.8-0.8,1.5-1.5,2c-0.7,0.6-1.5,1-2.3,1.3c-0.9,0.3-1.7,0.4-2.5,0.4c-1.1,0-2.1-0.2-3-0.7c-0.9-0.5-1.7-1.1-2.4-1.9
			c-0.7-0.8-1.2-1.7-1.6-2.7C134.4,257.5,134.3,256.5,134.3,255.5z"/>
		<path class="st1" d="M160.4,247.7h1.7l6.6,16h-2.2l-1.8-4.7h-6.9l-1.8,4.7h-2.2L160.4,247.7z M164.1,257.4l-2.8-7.4l-2.8,7.4
			H164.1z"/>
		<path class="st1" d="M175.8,263.7v-16h6.9c0.7,0,1.4,0.1,1.9,0.4c0.6,0.3,1.1,0.7,1.5,1.2s0.8,1,1,1.6s0.4,1.2,0.4,1.9
			s-0.1,1.4-0.4,2.1c-0.3,0.7-0.7,1.2-1.2,1.7s-1.1,0.8-1.8,1l3.9,6.1h-2.3l-3.7-5.8h-4.2v5.8H175.8L175.8,263.7z M177.9,256.1h4.9
			c0.6,0,1-0.2,1.5-0.5s0.7-0.7,1-1.2c0.2-0.5,0.4-1.1,0.4-1.6c0-0.6-0.1-1.2-0.4-1.7c-0.3-0.5-0.6-0.9-1.1-1.2
			c-0.4-0.3-0.9-0.5-1.4-0.5h-4.7v6.7H177.9z"/>
		<path class="st1" d="M202.2,263.8c-1.1,0-2-0.2-2.9-0.7s-1.7-1.1-2.4-1.9s-1.2-1.6-1.6-2.6c-0.4-1-0.6-2-0.6-3
			c0-1.1,0.2-2.1,0.6-3.1c0.4-1,0.9-1.8,1.6-2.6c0.7-0.8,1.5-1.3,2.4-1.8c0.9-0.4,1.9-0.6,3-0.6c1.6,0,2.8,0.3,3.8,1
			c1,0.6,1.8,1.5,2.3,2.5l-1.6,1.1c-0.5-0.9-1.1-1.6-1.9-2.1c-0.8-0.5-1.7-0.7-2.7-0.7c-0.8,0-1.6,0.2-2.2,0.5
			c-0.7,0.3-1.2,0.8-1.7,1.4s-0.8,1.3-1.1,2c-0.2,0.8-0.4,1.5-0.4,2.3c0,0.9,0.1,1.7,0.4,2.4c0.3,0.8,0.7,1.4,1.2,2s1.1,1,1.8,1.4
			c0.7,0.3,1.4,0.5,2.2,0.5c0.9,0,1.8-0.2,2.6-0.7s1.6-1.2,2.3-2.1v2.1C205.8,262.9,204.1,263.8,202.2,263.8z M207,257.2h-3.5v-1.5
			h5.2v8H207V257.2z"/>
		<path class="st1" d="M223.4,263.8c-1.1,0-2.2-0.2-3.1-0.7c-0.9-0.5-1.7-1.1-2.4-1.8c-0.7-0.8-1.2-1.6-1.5-2.6c-0.4-1-0.5-2-0.5-3
			c0-1.1,0.2-2.1,0.6-3.1c0.4-1,0.9-1.8,1.6-2.6c0.7-0.8,1.5-1.4,2.4-1.8s1.9-0.7,3-0.7s2.2,0.2,3.1,0.7s1.7,1.1,2.4,1.9
			s1.2,1.7,1.5,2.6c0.4,1,0.5,2,0.5,3c0,1.1-0.2,2.1-0.6,3.1c-0.4,1-0.9,1.8-1.6,2.6c-0.7,0.8-1.5,1.4-2.4,1.8
			C225.5,263.6,224.5,263.8,223.4,263.8z M217.9,255.7c0,0.8,0.1,1.6,0.4,2.4c0.3,0.8,0.6,1.4,1.1,2s1.1,1.1,1.7,1.4
			s1.4,0.5,2.3,0.5c0.9,0,1.6-0.2,2.3-0.5s1.3-0.8,1.7-1.4c0.5-0.6,0.8-1.3,1.1-2c0.2-0.8,0.4-1.5,0.4-2.3s-0.1-1.6-0.4-2.3
			s-0.6-1.4-1.1-2s-1.1-1.1-1.7-1.4c-0.7-0.3-1.4-0.5-2.2-0.5c-0.9,0-1.6,0.2-2.3,0.5c-0.7,0.4-1.3,0.8-1.7,1.4
			c-0.5,0.6-0.8,1.3-1.1,2C218,254.1,217.9,254.9,217.9,255.7z"/>
		<path class="st1" d="M263.4,263.7v-12.2l-5.3,9.4h-1.2l-5.3-9.4v12.2h-2v-16h2.1l5.8,10.4l5.8-10.4h2.1v16L263.4,263.7
			L263.4,263.7z"/>
		<path class="st1" d="M280.9,263.8c-1.1,0-2.2-0.2-3.1-0.7c-0.9-0.5-1.7-1.1-2.4-1.8c-0.7-0.8-1.2-1.6-1.5-2.6c-0.4-1-0.5-2-0.5-3
			c0-1.1,0.2-2.1,0.6-3.1c0.4-1,0.9-1.8,1.6-2.6c0.7-0.8,1.5-1.4,2.4-1.8s1.9-0.7,3-0.7s2.2,0.2,3.1,0.7s1.7,1.1,2.4,1.9
			s1.2,1.7,1.5,2.6c0.4,1,0.5,2,0.5,3c0,1.1-0.2,2.1-0.6,3.1s-0.9,1.8-1.6,2.6c-0.7,0.8-1.5,1.4-2.4,1.8
			C282.9,263.6,281.9,263.8,280.9,263.8z M275.4,255.7c0,0.8,0.1,1.6,0.4,2.4c0.3,0.8,0.6,1.4,1.1,2s1.1,1.1,1.7,1.4
			c0.6,0.3,1.4,0.5,2.3,0.5s1.6-0.2,2.3-0.5c0.7-0.3,1.3-0.8,1.7-1.4c0.5-0.6,0.8-1.3,1.1-2c0.2-0.8,0.4-1.5,0.4-2.3
			s-0.1-1.6-0.4-2.3s-0.6-1.4-1.1-2s-1.1-1.1-1.7-1.4c-0.7-0.3-1.4-0.5-2.2-0.5c-0.9,0-1.6,0.2-2.3,0.5c-0.7,0.4-1.3,0.8-1.7,1.4
			c-0.5,0.6-0.8,1.3-1.1,2C275.5,254.1,275.4,254.9,275.4,255.7z"/>
		<path class="st1" d="M296.1,247.7l5.3,13.5l5.3-13.5h2.1l-6.5,16h-1.9l-6.5-16L296.1,247.7L296.1,247.7z"/>
		<path class="st1" d="M327,261.9v1.8h-10.9v-16h10.7v1.8h-8.7v5.2h7.5v1.7h-7.5v5.5H327z"/>
		<path class="st1" d="M334.8,263.7v-16h6.9c0.7,0,1.4,0.1,1.9,0.4c0.6,0.3,1.1,0.7,1.5,1.2c0.4,0.5,0.8,1,1,1.6s0.4,1.2,0.4,1.9
			s-0.1,1.4-0.4,2.1s-0.7,1.2-1.2,1.7s-1.1,0.8-1.8,1l3.9,6.1h-2.3l-3.7-5.8h-4.2v5.8H334.8L334.8,263.7z M336.8,256.1h4.9
			c0.6,0,1-0.2,1.5-0.5s0.7-0.7,1-1.2c0.2-0.5,0.3-1.1,0.3-1.6c0-0.6-0.1-1.2-0.4-1.7s-0.6-0.9-1.1-1.2c-0.4-0.3-0.9-0.5-1.4-0.5
			h-4.7L336.8,256.1L336.8,256.1z"/>
		<path class="st1" d="M364.1,251c-0.2-0.2-0.4-0.4-0.7-0.6c-0.3-0.2-0.6-0.4-1-0.5c-0.4-0.2-0.8-0.3-1.2-0.4
			c-0.4-0.1-0.9-0.1-1.4-0.1c-1.2,0-2.1,0.2-2.7,0.7c-0.6,0.5-0.9,1.1-0.9,1.9c0,0.6,0.2,1,0.5,1.4s0.8,0.6,1.4,0.8
			c0.6,0.2,1.4,0.4,2.4,0.7c1.1,0.2,2.1,0.5,2.9,0.9c0.8,0.3,1.4,0.8,1.9,1.4c0.4,0.6,0.7,1.3,0.7,2.3c0,0.8-0.1,1.4-0.4,2
			s-0.7,1-1.2,1.4s-1.1,0.6-1.9,0.8c-0.7,0.2-1.5,0.3-2.3,0.3s-1.6-0.1-2.4-0.3s-1.5-0.4-2.2-0.8s-1.3-0.7-1.9-1.2l1-1.7
			c0.2,0.3,0.6,0.5,0.9,0.8c0.4,0.2,0.8,0.5,1.3,0.7s1,0.4,1.6,0.5c0.6,0.1,1.2,0.2,1.8,0.2c1.1,0,2-0.2,2.7-0.6
			c0.6-0.4,0.9-1,0.9-1.8c0-0.6-0.2-1.1-0.5-1.4c-0.4-0.4-0.9-0.7-1.6-0.9c-0.7-0.2-1.5-0.5-2.5-0.7c-1.1-0.3-2-0.6-2.7-0.9
			s-1.3-0.7-1.7-1.3c-0.4-0.5-0.6-1.2-0.6-2.1c0-1,0.2-1.9,0.7-2.6s1.2-1.2,2.1-1.6c0.9-0.4,1.9-0.5,3-0.5c0.7,0,1.4,0.1,2,0.2
			c0.6,0.2,1.2,0.4,1.8,0.6c0.5,0.3,1,0.6,1.5,1L364.1,251z"/>
	</g>
</g>
</svg>
