<?xml version="1.0" encoding="utf-8"?>
<!-- Generator: Adobe Illustrator 25.2.0, SVG Export Plug-In . SVG Version: 6.00 Build 0)  -->
<svg version="1.1" id="Layer_1" xmlns="http://www.w3.org/2000/svg" xmlns:xlink="http://www.w3.org/1999/xlink" x="0px" y="0px"
	 viewBox="0 0 500 219.5" style="enable-background:new 0 0 500 219.5;" xml:space="preserve">
<style type="text/css">
	.st0{enable-background:new    ;}
	.st1{fill:#0F112E;}
	.st2{fill:#A81D34;}
</style>
<g>
	<g>
		<g>
			<g class="st0">
				<path class="st1" d="M14.9,180.3c0-4.3,0.8-8.5,2.4-12.6s3.9-7.9,6.9-11.2c3-3.4,6.7-6.1,11.1-8.1s9.3-3,14.9-3
					c6.6,0,12.3,1.4,17.2,4.3c4.9,2.8,8.5,6.5,10.8,11.1l-12.5,8.7c-1.1-2.5-2.5-4.5-4.2-5.8c-1.8-1.4-3.7-2.4-5.7-2.9
					c-2.1-0.6-4.1-0.8-6-0.8c-3.1,0-5.8,0.6-8.1,1.8s-4.2,2.9-5.7,4.9s-2.6,4.3-3.4,6.8c-0.7,2.5-1.1,5-1.1,7.5c0,2.8,0.4,5.4,1.3,8
					s2.1,4.9,3.7,6.8c1.6,2,3.6,3.6,5.9,4.7c2.3,1.2,4.9,1.7,7.6,1.7c2,0,4-0.3,6-1s3.9-1.7,5.7-3.1c1.7-1.4,3.1-3.3,4-5.6l13.3,7.8
					c-1.4,3.4-3.7,6.4-6.8,8.8c-3.2,2.4-6.8,4.3-10.7,5.6c-4,1.3-7.9,1.9-11.8,1.9c-5.1,0-9.8-1-14-3.1c-4.3-2.1-7.9-4.9-11-8.3
					c-3.1-3.5-5.4-7.4-7.1-11.7C15.7,189.2,14.9,184.8,14.9,180.3z"/>
				<path class="st1" d="M87,216v-70h16v70H87z"/>
				<path class="st1" d="M170,160h-21v56h-16v-56h-22v-14h59V160z"/>
				<path class="st1" d="M188.9,146l15.1,30.9l15.3-30.9h17.6L212,192.1V216h-16v-24.1L171.5,146H188.9z"/>
				<path class="st1" d="M321,198c0,4-1.1,7.4-3.2,10.1c-2.1,2.7-5,4.7-8.7,6c-3.6,1.3-7.6,2-11.9,2H263v-70h38.9
					c3.3,0,6.2,0.9,8.6,2.6c2.4,1.8,4.3,4,5.5,6.8c1.3,2.8,1.9,5.6,1.9,8.6c0,3.3-0.9,6.5-2.6,9.5s-4.2,5.3-7.5,6.8
					c4,1.2,7.2,3.3,9.6,6.3C319.8,189.3,321,193.2,321,198z M280,159.9V174h15.4c1.2,0,2.2-0.3,3.2-0.8s1.8-1.3,2.4-2.3
					c0.7-1.1,1-2.4,1-4s-0.3-2.8-0.8-3.9c-0.6-1.1-1.3-1.8-2.1-2.3c-0.9-0.6-1.9-0.8-3.1-0.8H280L280,159.9z M304.6,194.6
					c0-1.5-0.3-2.8-0.9-3.9c-0.6-1.2-1.4-2-2.2-2.7c-1-0.7-2-1-3.3-1H280v15h17.5c1.4,0,2.5-0.3,3.6-1s1.9-1.6,2.5-2.6
					C304.4,197.2,304.6,196,304.6,194.6z"/>
				<path class="st1" d="M432.9,146l15.2,24.2l15.2-24.2h17.5l-23.2,35.5L480,216h-17.5L448,192.8L433.6,216H416l22.4-34.5
					L415.2,146H432.9L432.9,146z"/>
			</g>
			<path class="st2" d="M376,169.3l-45-15.1v50.7l46.6,14.6L376,169.3z M364.8,143l-33.4,11.1l0,0l44.9,13.9l31.7-14.9L364.8,143z
				 M408,153.1l-31.5,16.2l1.3,50.2l0,0l30.2-16.1V153.1L408,153.1z"/>
		</g>
		<g>
			<g>
				<path class="st2" d="M209.2,54.7l0.9-11.2c0,0,1.3-7.9,11-7.7c9.6,0.3,127.5-3.7,127.5-3.7s-7.9,19.4-25.7,19.4
					C305.1,51.5,209.2,54.7,209.2,54.7z"/>
				<path class="st2" d="M212.2,32.1l0.6-8.4c0,0,0.3-11,12.3-10.7c12.2,0.3,151.5-4.3,151.5-4.3s-7.9,19.8-24.9,19.8
					C334.6,28.5,212.2,32.1,212.2,32.1z"/>
				<path class="st2" d="M206.1,76.6l1.3-10.5c0,0,0.8-8.2,10.6-8.2s100.9-2.4,100.9-2.4s-3.7,16.4-22.3,19.2L206.1,76.6z"/>
				<path class="st2" d="M135.1,92.2c0,0-3.8-9.3,2.3-14.5c6-5.2,14.9-2.6,17.3,0.9c0,0-2.1-8.3-10.8-7.8c-5,0.4-9.7,3.3-11.8,7.9
					C131.1,80.5,128.6,87.9,135.1,92.2z"/>
				<path class="st2" d="M208.6,30.6c0.1-1.1-0.8-2.1-1.9-2L182.1,30c-3.9,0.3-7.8,1.3-11.2,3.3c-2.8,1.6-5.3,3.9-5.9,7.1
					c-1.5,7.2-1.5,11.1-1.5,11.1s-25.6,0.1-37.7,5.8c0,0-2.6,0.8-9.2,21.9c-0.1,0.4,0.1,0.8,0.5,0.8h7.4c2.4,0,4.5-1.3,5.5-3.4v-0.1
					c0,0,4.9-8.8,14.1-8.7c9.1,0.1,13.2,8.4,13.7,11.5l41.7-1.3c1.3,0,2.3-0.9,2.4-2.1L208.6,30.6z M187.2,42.2l-3.4,24
					c-0.1,1.3-0.3,2.3-0.6,2.9c-0.4,1.1-1.5,1.8-2.6,1.9l-16.5,1v-2.7l15.1-0.9c1.3-0.1,2.3-1,2.5-2.3l1.9-14c0.1-0.6-0.4-1.1-1-1.1
					h-15.1l0.9-9.7c0.1-5.3,4.4-4.3,4.4-4.3l9.8,0.1C188.6,36.3,187.2,42.2,187.2,42.2z"/>
			</g>
			<rect x="92" y="105" class="st2" width="310" height="5"/>
		</g>
	</g>
</g>
</svg>