<?xml version="1.0" encoding="utf-8"?>
<!-- Generator: Adobe Illustrator 25.2.0, SVG Export Plug-In . SVG Version: 6.00 Build 0)  -->
<svg version="1.1" xmlns="http://www.w3.org/2000/svg" xmlns:xlink="http://www.w3.org/1999/xlink" x="0px" y="0px"
	 viewBox="0 0 2475 1650" style="enable-background:new 0 0 2475 1650;" xml:space="preserve">
<style type="text/css">
	.st0{enable-background:new    ;}
	.st1{fill:#0F112E;}
	.st2{fill:#A81D34;}
	.st3{fill:url(#SVGID_1_);}
	.st4{opacity:0.43;fill:#3D456B;}
	.st5{opacity:0.2;fill:#9BC1F9;}
	.st6{fill:#3C8F7C;}
	.st7{fill:#50BFA5;}
	.st8{fill:#256653;}
	.st9{fill:#327F6B;}
	.st10{fill:#C3263F;}
	.st11{fill:#FCF5EB;}
	.st12{fill:#32385A;}
	.st13{fill:#F7A491;}
	.st14{fill:#F7CC7F;}
	.st15{fill:#F47458;}
	.st16{fill:#E25A44;}
	.st17{fill:#355389;}
	.st18{fill:#466EB6;}
	.st19{fill:#184655;}
	.st20{fill:#FFFFFF;}
	.st21{fill:#F79C8D;}
	.st22{fill:#F48C7F;}
	.st23{fill:#3CB4C5;}
	.st24{fill:#F8A492;}
	.st25{fill:#FE875E;}
	.st26{fill:#13375B;}
	.st27{fill:#15193D;}
	.st28{fill:#96D9C9;}
	.st29{fill:url(#SVGID_2_);}
	.st30{fill:#0E2E35;}
	.st31{fill:#12353D;}
	.st32{fill:#EAB765;}
</style>
<g id="Background">
</g>
<g id="Illustration">
	<g>
		<g>
			<g>
				<g class="st0">
					<path class="st1" d="M2701.4,653.3c0-4.3,0.8-8.5,2.4-12.6c1.6-4.1,3.9-7.9,6.9-11.2c3-3.4,6.7-6.1,11.1-8.1s9.3-3,14.9-3
						c6.6,0,12.3,1.4,17.2,4.3c4.9,2.8,8.5,6.5,10.8,11.1l-12.5,8.7c-1.1-2.5-2.5-4.5-4.2-5.8c-1.8-1.4-3.7-2.4-5.7-2.9
						c-2.1-0.6-4.1-0.8-6-0.8c-3.1,0-5.8,0.6-8.1,1.8c-2.3,1.2-4.2,2.9-5.7,4.9s-2.6,4.3-3.4,6.8c-0.7,2.5-1.1,5-1.1,7.5
						c0,2.8,0.4,5.4,1.3,8c0.9,2.6,2.1,4.9,3.7,6.8c1.6,2,3.6,3.6,5.9,4.7c2.3,1.2,4.9,1.7,7.6,1.7c2,0,4-0.3,6-1s3.9-1.7,5.7-3.1
						c1.7-1.4,3.1-3.3,4-5.6l13.3,7.8c-1.4,3.4-3.7,6.4-6.8,8.8c-3.2,2.4-6.8,4.3-10.7,5.6c-4,1.3-7.9,1.9-11.8,1.9
						c-5.1,0-9.8-1-14-3.1c-4.3-2.1-7.9-4.9-11-8.3c-3.1-3.5-5.4-7.4-7.1-11.7C2702.2,662.2,2701.4,657.8,2701.4,653.3z"/>
					<path class="st1" d="M2773.6,689.2v-70.3h16.2v70.3H2773.6z"/>
					<path class="st1" d="M2856.9,633.1h-21.4v56.1h-16.2v-56.1h-21.5v-14.3h59.1V633.1z"/>
					<path class="st1" d="M2875.7,618.8l15.2,31.1l15.4-31.1h17.7l-25.1,46.4v24h-16.1V665l-24.7-46.2H2875.7z"/>
					<path class="st1" d="M3008.1,671.2c0,4-1.1,7.4-3.2,10.1c-2.1,2.7-5,4.7-8.7,6c-3.6,1.3-7.6,2-12,2h-34.3V619h39.1
						c3.3,0,6.2,0.9,8.6,2.6c2.4,1.8,4.3,4,5.5,6.8c1.3,2.8,1.9,5.6,1.9,8.6c0,3.3-0.9,6.5-2.6,9.5c-1.7,3-4.2,5.3-7.5,6.8
						c4,1.2,7.2,3.3,9.6,6.3C3006.9,662.5,3008.1,666.4,3008.1,671.2z M2966.2,632.7v14.6h15.9c1.2,0,2.3-0.3,3.3-0.8
						s1.9-1.3,2.5-2.4c0.7-1.1,1-2.5,1-4.1c0-1.6-0.3-2.9-0.8-4c-0.6-1.1-1.3-1.9-2.2-2.4c-0.9-0.6-2-0.8-3.2-0.8h-16.5V632.7z
						 M2991.5,667.9c0-1.5-0.3-2.9-0.9-4c-0.6-1.2-1.4-2.1-2.3-2.8c-1-0.7-2.1-1-3.4-1h-18.7v15.4h18c1.4,0,2.6-0.3,3.7-1
						c1.1-0.7,2-1.6,2.6-2.7C2991.2,670.6,2991.5,669.3,2991.5,667.9z"/>
					<path class="st1" d="M3119.3,618.8l15.3,24.3l15.3-24.3h17.6l-23.3,35.7l22.5,34.7h-17.6l-14.6-23.3l-14.5,23.3h-17.7
						l22.5-34.7l-23.3-35.7L3119.3,618.8L3119.3,618.8z"/>
				</g>
				<path class="st2" d="M3062.9,642.3l-45-15.1v50.7l46.6,14.6L3062.9,642.3z M3051.3,616l-33.4,11.1l0,0l45.9,13l31.1-13.7
					L3051.3,616z M3094.8,626.1l-31.5,16.6l1.3,49.8l0,0l30.2-16.1V626.1L3094.8,626.1z"/>
			</g>
			<g>
				<g>
					<path class="st2" d="M2895.7,527.7l0.9-11.2c0,0,1.3-7.9,11-7.7c9.6,0.3,127.5-3.7,127.5-3.7s-7.9,19.4-25.7,19.4
						C2991.6,524.5,2895.7,527.7,2895.7,527.7z"/>
					<path class="st2" d="M2898.7,505.1l0.6-8.4c0,0,0.3-11,12.3-10.7c12.2,0.3,151.5-4.3,151.5-4.3s-7.9,19.8-24.9,19.8
						C3021.1,501.5,2898.7,505.1,2898.7,505.1z"/>
					<path class="st2" d="M2892.6,549.6l1.3-10.5c0,0,0.8-8.2,10.6-8.2c9.8,0,100.9-2.4,100.9-2.4s-3.7,16.4-22.3,19.2L2892.6,549.6
						z"/>
					<path class="st2" d="M2821.6,565.2c0,0-3.8-9.3,2.3-14.5c6-5.2,14.9-2.6,17.3,0.9c0,0-2.1-8.3-10.8-7.8
						c-5,0.4-9.7,3.3-11.8,7.9C2817.6,553.5,2815.1,560.9,2821.6,565.2z"/>
					<path class="st2" d="M2895.1,503.6c0.1-1.1-0.8-2.1-1.9-2l-24.6,1.4c-3.9,0.3-7.8,1.3-11.2,3.3c-2.8,1.6-5.3,3.9-5.9,7.1
						c-1.5,7.2-1.5,11.1-1.5,11.1s-25.6,0.1-37.7,5.8c0,0-2.6,0.8-9.2,21.9c-0.1,0.4,0.1,0.8,0.5,0.8h7.4c2.4,0,4.5-1.3,5.5-3.4
						v-0.1c0,0,4.9-8.8,14.1-8.7c9.1,0.1,13.2,8.4,13.7,11.5l41.7-1.3c1.3,0,2.3-0.9,2.4-2.1L2895.1,503.6z M2873.3,515.1l-3.4,23.8
						c-0.1,1.3-0.3,2.3-0.6,2.9c-0.4,1.1-1.5,1.8-2.6,1.9l-16.4,1V542l15-0.9c1.3-0.1,2.3-1,2.5-2.3l1.9-13.9c0.1-0.6-0.4-1.1-1-1.1
						h-15l0.9-9.6c0.1-5.3,4.4-4.3,4.4-4.3l9.7,0.1C2874.7,509.2,2873.3,515.1,2873.3,515.1z"/>
				</g>
				<rect x="2778.5" y="578" class="st2" width="310" height="5"/>
			</g>
		</g>
		<g class="st0">
			<path class="st1" d="M2783.1,719.6c0-1,0.2-1.9,0.5-2.9c0.3-0.9,0.8-1.8,1.5-2.6s1.5-1.4,2.4-1.9c0.9-0.5,2-0.7,3.2-0.7
				c1.4,0,2.7,0.3,3.7,1s1.8,1.5,2.3,2.5l-1.6,1c-0.3-0.7-0.7-1.2-1.2-1.6c-0.5-0.4-1-0.7-1.6-0.8c-0.6-0.2-1.1-0.2-1.7-0.2
				c-0.9,0-1.7,0.2-2.4,0.5c-0.7,0.4-1.3,0.8-1.7,1.4c-0.5,0.6-0.8,1.3-1.1,2c-0.2,0.7-0.4,1.5-0.4,2.2c0,0.8,0.1,1.6,0.4,2.4
				s0.7,1.4,1.2,2c0.5,0.6,1.1,1.1,1.8,1.4s1.4,0.5,2.2,0.5c0.6,0,1.1-0.1,1.7-0.3c0.6-0.2,1.1-0.5,1.6-0.9c0.5-0.4,0.9-1,1.2-1.6
				l1.7,0.9c-0.3,0.8-0.8,1.5-1.5,2c-0.7,0.6-1.5,1-2.3,1.3c-0.9,0.3-1.7,0.4-2.5,0.4c-1.1,0-2.1-0.2-3-0.7
				c-0.9-0.5-1.7-1.1-2.4-1.9s-1.2-1.7-1.6-2.7C2783.2,721.6,2783.1,720.6,2783.1,719.6z"/>
			<path class="st1" d="M2809.2,711.8h1.7l6.6,16h-2.2l-1.8-4.7h-6.9l-1.8,4.7h-2.2L2809.2,711.8z M2812.9,721.5l-2.8-7.4l-2.8,7.4
				H2812.9z"/>
			<path class="st1" d="M2824.6,727.8v-16h6.9c0.7,0,1.4,0.1,1.9,0.4c0.6,0.3,1.1,0.7,1.5,1.2c0.4,0.5,0.8,1,1,1.6
				c0.2,0.6,0.4,1.2,0.4,1.9s-0.1,1.4-0.4,2.1c-0.3,0.7-0.7,1.2-1.2,1.7s-1.1,0.8-1.8,1l3.9,6.1h-2.3l-3.7-5.8h-4.2v5.8
				L2824.6,727.8L2824.6,727.8z M2826.7,720.2h4.9c0.6,0,1-0.2,1.5-0.5s0.7-0.7,1-1.2c0.2-0.5,0.4-1.1,0.4-1.6
				c0-0.6-0.1-1.2-0.4-1.7s-0.6-0.9-1.1-1.2c-0.4-0.3-0.9-0.5-1.4-0.5h-4.7v6.7H2826.7z"/>
			<path class="st1" d="M2851,727.9c-1.1,0-2-0.2-2.9-0.7s-1.7-1.1-2.4-1.9c-0.7-0.8-1.2-1.6-1.6-2.6s-0.6-2-0.6-3
				c0-1.1,0.2-2.1,0.6-3.1c0.4-1,0.9-1.8,1.6-2.6c0.7-0.8,1.5-1.3,2.4-1.8c0.9-0.4,1.9-0.6,3-0.6c1.6,0,2.8,0.3,3.8,1
				c1,0.6,1.8,1.5,2.3,2.5l-1.6,1.1c-0.5-0.9-1.1-1.6-1.9-2.1c-0.8-0.5-1.7-0.7-2.7-0.7c-0.8,0-1.6,0.2-2.2,0.5
				c-0.7,0.3-1.2,0.8-1.7,1.4c-0.5,0.6-0.8,1.3-1.1,2c-0.2,0.8-0.4,1.5-0.4,2.3c0,0.9,0.1,1.7,0.4,2.4c0.3,0.8,0.7,1.4,1.2,2
				c0.5,0.6,1.1,1,1.8,1.4c0.7,0.3,1.4,0.5,2.2,0.5c0.9,0,1.8-0.2,2.6-0.7s1.6-1.2,2.3-2.1v2.1C2854.6,727,2852.9,727.9,2851,727.9z
				 M2855.8,721.3h-3.5v-1.5h5.2v8h-1.7V721.3z"/>
			<path class="st1" d="M2872.2,727.9c-1.1,0-2.2-0.2-3.1-0.7c-0.9-0.5-1.7-1.1-2.4-1.8c-0.7-0.8-1.2-1.6-1.5-2.6
				c-0.4-1-0.5-2-0.5-3c0-1.1,0.2-2.1,0.6-3.1s0.9-1.8,1.6-2.6c0.7-0.8,1.5-1.4,2.4-1.8c0.9-0.4,1.9-0.7,3-0.7s2.2,0.2,3.1,0.7
				c0.9,0.5,1.7,1.1,2.4,1.9s1.2,1.7,1.5,2.6c0.4,1,0.5,2,0.5,3c0,1.1-0.2,2.1-0.6,3.1c-0.4,1-0.9,1.8-1.6,2.6s-1.5,1.4-2.4,1.8
				C2874.3,727.7,2873.3,727.9,2872.2,727.9z M2866.7,719.8c0,0.8,0.1,1.6,0.4,2.4s0.6,1.4,1.1,2c0.5,0.6,1.1,1.1,1.7,1.4
				c0.6,0.3,1.4,0.5,2.3,0.5c0.9,0,1.6-0.2,2.3-0.5s1.3-0.8,1.7-1.4c0.5-0.6,0.8-1.3,1.1-2c0.2-0.8,0.4-1.5,0.4-2.3
				s-0.1-1.6-0.4-2.3c-0.3-0.7-0.6-1.4-1.1-2c-0.5-0.6-1.1-1.1-1.7-1.4c-0.7-0.3-1.4-0.5-2.2-0.5c-0.9,0-1.6,0.2-2.3,0.5
				c-0.7,0.4-1.3,0.8-1.7,1.4c-0.5,0.6-0.8,1.3-1.1,2C2866.8,718.2,2866.7,719,2866.7,719.8z"/>
			<path class="st1" d="M2912.2,727.8v-12.2l-5.3,9.4h-1.2l-5.3-9.4v12.2h-2v-16h2.1l5.8,10.4l5.8-10.4h2.1v16H2912.2z"/>
			<path class="st1" d="M2929.7,727.9c-1.1,0-2.2-0.2-3.1-0.7c-0.9-0.5-1.7-1.1-2.4-1.8c-0.7-0.8-1.2-1.6-1.5-2.6
				c-0.4-1-0.5-2-0.5-3c0-1.1,0.2-2.1,0.6-3.1s0.9-1.8,1.6-2.6c0.7-0.8,1.5-1.4,2.4-1.8c0.9-0.4,1.9-0.7,3-0.7s2.2,0.2,3.1,0.7
				c0.9,0.5,1.7,1.1,2.4,1.9s1.2,1.7,1.5,2.6c0.4,1,0.5,2,0.5,3c0,1.1-0.2,2.1-0.6,3.1c-0.4,1-0.9,1.8-1.6,2.6s-1.5,1.4-2.4,1.8
				C2931.7,727.7,2930.7,727.9,2929.7,727.9z M2924.2,719.8c0,0.8,0.1,1.6,0.4,2.4s0.6,1.4,1.1,2c0.5,0.6,1.1,1.1,1.7,1.4
				c0.6,0.3,1.4,0.5,2.3,0.5c0.9,0,1.6-0.2,2.3-0.5s1.3-0.8,1.7-1.4c0.5-0.6,0.8-1.3,1.1-2c0.2-0.8,0.4-1.5,0.4-2.3
				s-0.1-1.6-0.4-2.3c-0.3-0.7-0.6-1.4-1.1-2c-0.5-0.6-1.1-1.1-1.7-1.4c-0.7-0.3-1.4-0.5-2.2-0.5c-0.9,0-1.6,0.2-2.3,0.5
				c-0.7,0.4-1.3,0.8-1.7,1.4c-0.5,0.6-0.8,1.3-1.1,2C2924.3,718.2,2924.2,719,2924.2,719.8z"/>
			<path class="st1" d="M2944.9,711.8l5.3,13.5l5.3-13.5h2.1l-6.5,16h-1.9l-6.5-16H2944.9z"/>
			<path class="st1" d="M2975.8,726v1.8h-10.9v-16h10.7v1.8h-8.7v5.2h7.5v1.7h-7.5v5.5H2975.8z"/>
			<path class="st1" d="M2983.6,727.8v-16h6.9c0.7,0,1.4,0.1,1.9,0.4c0.6,0.3,1.1,0.7,1.5,1.2c0.4,0.5,0.8,1,1,1.6
				c0.2,0.6,0.4,1.2,0.4,1.9s-0.1,1.4-0.4,2.1c-0.3,0.7-0.7,1.2-1.2,1.7s-1.1,0.8-1.8,1l3.9,6.1h-2.3l-3.7-5.8h-4.2v5.8
				L2983.6,727.8L2983.6,727.8z M2985.6,720.2h4.9c0.6,0,1-0.2,1.5-0.5s0.7-0.7,1-1.2c0.2-0.5,0.3-1.1,0.3-1.6
				c0-0.6-0.1-1.2-0.4-1.7c-0.3-0.5-0.6-0.9-1.1-1.2c-0.4-0.3-0.9-0.5-1.4-0.5h-4.7L2985.6,720.2L2985.6,720.2z"/>
			<path class="st1" d="M3012.9,715.1c-0.2-0.2-0.4-0.4-0.7-0.6c-0.3-0.2-0.6-0.4-1-0.5c-0.4-0.2-0.8-0.3-1.2-0.4
				c-0.4-0.1-0.9-0.1-1.4-0.1c-1.2,0-2.1,0.2-2.7,0.7c-0.6,0.5-0.9,1.1-0.9,1.9c0,0.6,0.2,1,0.5,1.4c0.3,0.4,0.8,0.6,1.4,0.8
				c0.6,0.2,1.4,0.4,2.4,0.7c1.1,0.2,2.1,0.5,2.9,0.9c0.8,0.3,1.4,0.8,1.9,1.4c0.4,0.6,0.7,1.3,0.7,2.3c0,0.8-0.1,1.4-0.4,2
				c-0.3,0.6-0.7,1-1.2,1.4c-0.5,0.4-1.1,0.6-1.9,0.8c-0.7,0.2-1.5,0.3-2.3,0.3s-1.6-0.1-2.4-0.3c-0.8-0.2-1.5-0.4-2.2-0.8
				c-0.7-0.4-1.3-0.7-1.9-1.2l1-1.7c0.2,0.3,0.6,0.5,0.9,0.8c0.4,0.2,0.8,0.5,1.3,0.7s1,0.4,1.6,0.5c0.6,0.1,1.2,0.2,1.8,0.2
				c1.1,0,2-0.2,2.7-0.6c0.6-0.4,0.9-1,0.9-1.8c0-0.6-0.2-1.1-0.5-1.4c-0.4-0.4-0.9-0.7-1.6-0.9c-0.7-0.2-1.5-0.5-2.5-0.7
				c-1.1-0.3-2-0.6-2.7-0.9c-0.7-0.3-1.3-0.7-1.7-1.3c-0.4-0.5-0.6-1.2-0.6-2.1c0-1,0.2-1.9,0.7-2.6s1.2-1.2,2.1-1.6
				c0.9-0.4,1.9-0.5,3-0.5c0.7,0,1.4,0.1,2,0.2c0.6,0.2,1.2,0.4,1.8,0.6c0.5,0.3,1,0.6,1.5,1L3012.9,715.1z"/>
			<path class="st1" d="M3033,727.8v-16h2V726h8.9v1.8H3033z"/>
			<path class="st1" d="M3051.2,727.8v-16h2V726h8.9v1.8H3051.2z"/>
			<path class="st1" d="M3067.9,719.6c0-1,0.2-1.9,0.5-2.9c0.3-0.9,0.8-1.8,1.5-2.6c0.7-0.8,1.5-1.4,2.4-1.9s2-0.7,3.2-0.7
				c1.4,0,2.7,0.3,3.7,1s1.8,1.5,2.3,2.5l-1.6,1c-0.3-0.7-0.7-1.2-1.2-1.6c-0.5-0.4-1-0.7-1.6-0.8c-0.6-0.2-1.1-0.2-1.7-0.2
				c-0.9,0-1.7,0.2-2.4,0.5c-0.7,0.4-1.3,0.8-1.7,1.4c-0.5,0.6-0.8,1.3-1,2s-0.4,1.5-0.4,2.2c0,0.8,0.1,1.6,0.4,2.4s0.7,1.4,1.2,2
				c0.5,0.6,1.1,1.1,1.8,1.4s1.4,0.5,2.2,0.5c0.6,0,1.1-0.1,1.7-0.3c0.6-0.2,1.1-0.5,1.6-0.9c0.5-0.4,0.9-1,1.2-1.6l1.7,0.9
				c-0.3,0.8-0.8,1.5-1.5,2c-0.7,0.6-1.5,1-2.3,1.3s-1.7,0.4-2.5,0.4c-1.1,0-2.1-0.2-3-0.7c-0.9-0.5-1.7-1.1-2.4-1.9
				c-0.7-0.8-1.2-1.7-1.6-2.7C3068,721.3,3067.9,720.6,3067.9,719.6z"/>
		</g>
	</g>
	<linearGradient id="SVGID_1_" gradientUnits="userSpaceOnUse" x1="1324" y1="2489" x2="1918" y2="2489">
		<stop  offset="0" style="stop-color:#0F112E"/>
		<stop  offset="1" style="stop-color:#3D456B"/>
	</linearGradient>
	<rect x="1324" y="2138" class="st3" width="594" height="702"/>
	<g>
		<path class="st4" d="M1076,561.8c-13-8.7-26.4-16.9-39.2-25.8c-2.3-1.6-4.4-5.8-4.2-8.6c1.6-18.1,4.2-36,5.6-54.1
			c0.4-5.3,1.6-8,6.6-10c17.7-7.1,35.2-14.6,52.8-22c2.9-1.2,5.7-2.5,10.6-4.7c-8.6-27-17.1-53.7-25.8-81.1
			c-22.7,4.7-43.4,8.6-63.8,13.3c-7.2,1.7-11.2,0.9-15.9-5.8c-9.6-13.6-21.1-25.9-31.4-39.1c-1.6-2-2.3-6.1-1.4-8.5
			c6.8-18.1,13.7-36.2,21.6-53.9c3.8-8.5,1.9-13-5.7-16.9c-2.9-1.5-5.3-4-7.9-6.1c-13.1-6.9-26.2-13.9-39.3-20.8
			c-1.6-0.3-3.4-0.4-4.9-1c-16-6.4-12.9-6.3-21.8,7.1c-10.9,16.3-21.5,32.7-30.9,46.9c-24.4-2.1-47.2-4.1-70.7-6.1
			c-9.1-21.6-18.5-44.1-28-66.8c-28.7,4.1-55,13.3-80.8,25.7c4.6,22.3,9.1,44,13.7,65.8c0.8,3.9,0.6,6.3-3.2,9.1
			c-14.9,11.3-29.5,23-43.6,35.3c-4.1,3.5-6.7,3.6-11.1,1.8c-18.2-7.5-36.5-14.6-54.7-22c-4.5-1.8-7.4-1.7-10.7,2.7
			c-14.8,19.9-24.9,42.1-33.1,65.2c-1.6,4.6,0.6,6.6,4.1,8.8c16.1,10.3,31.9,21,48,31.1c4.6,2.9,6.1,5.5,5.2,11.5
			c-3.1,20.7-4.9,41.6-7.4,64c-19.6,8.2-41.8,17.6-64.1,26.9c4,29.2,12,56.3,25.2,82c24.3-5.2,47.9-10.2,69.4-14.7
			c13.5,15.3,25.6,29.9,38.7,43.6c4.9,5.2,5.8,9.1,3,15.6c-7.5,17.2-14.4,34.7-21.3,52.2c-1.4,3.5-4.1,7.5,1.3,10.3
			c21.9,11.4,43.9,22.8,65.8,34.2c4.7,2.4,7.6,0.8,10.4-3.6c10.4-16.4,21.4-32.3,31.5-48.8c3.9-6.4,8.1-6.6,14.7-5.8
			c16.3,2.1,32.7,3.8,49.1,4.1c7.1,0.1,9.7,1.9,12.1,8.2c7.8,20.1,16.4,40,24.5,59.5c17.5-0.1,65.1-15.4,82.2-26.2
			c-4.6-21.5-9.1-43.2-14.2-64.8c-1.3-5.4,0.3-7.7,4.4-11c13.3-10.6,25.8-22.1,39-32.9c2.2-1.8,6.7-2.8,9.3-1.8
			c16.2,6.2,32.2,13,48.2,19.8c8.9,3.8,12.5,5.4,15.9,3l36.9-69.7C1090.4,571.4,1086.5,568.8,1076,561.8z M937,538.4
			c-33,62.3-110.2,86.1-172.5,53.1h0c-62.3-33-86.1-110.2-53.1-172.5l0,0c33-62.3,110.2-86.1,172.5-53.1h0
			C946.2,398.8,970,476.1,937,538.4L937,538.4z"/>
		<path class="st5" d="M1598.7,472.8c-4.8-3.2-9.7-6.2-14.4-9.5c-0.9-0.6-1.6-2.1-1.5-3.2c0.6-6.6,1.5-13.2,2.1-19.9
			c0.2-1.9,0.6-2.9,2.4-3.7c6.5-2.6,12.9-5.4,19.4-8.1c1-0.4,2.1-0.9,3.9-1.7c-3.2-9.9-6.3-19.7-9.5-29.8
			c-8.3,1.7-15.9,3.1-23.4,4.9c-2.7,0.6-4.1,0.3-5.8-2.1c-3.5-5-7.8-9.5-11.5-14.3c-0.6-0.7-0.8-2.2-0.5-3.1
			c2.5-6.6,5-13.3,7.9-19.8c1.4-3.1,0.7-4.8-2.1-6.2c-1.1-0.5-1.9-1.5-2.9-2.2c-4.8-2.5-9.6-5.1-14.4-7.6c-0.6-0.1-1.2-0.1-1.8-0.4
			c-5.9-2.4-4.7-2.3-8,2.6c-4,6-7.9,12-11.3,17.2c-9-0.8-17.3-1.5-26-2.3c-3.3-7.9-6.8-16.2-10.3-24.5c-10.5,1.5-20.2,4.9-29.7,9.4
			c1.7,8.2,3.3,16.2,5,24.1c0.3,1.4,0.2,2.3-1.2,3.4c-5.5,4.1-10.8,8.4-16,13c-1.5,1.3-2.5,1.3-4.1,0.6c-6.7-2.8-13.4-5.3-20.1-8.1
			c-1.7-0.7-2.7-0.6-3.9,1c-5.4,7.3-9.1,15.4-12.2,23.9c-0.6,1.7,0.2,2.4,1.5,3.2c5.9,3.8,11.7,7.7,17.6,11.4c1.7,1.1,2.2,2,1.9,4.2
			c-1.1,7.6-1.8,15.3-2.7,23.5c-7.2,3-15.4,6.4-23.5,9.9c1.5,10.7,4.4,20.7,9.2,30.1c8.9-1.9,17.6-3.7,25.5-5.4
			c4.9,5.6,9.4,11,14.2,16c1.8,1.9,2.1,3.3,1.1,5.7c-2.8,6.3-5.3,12.8-7.8,19.2c-0.5,1.3-1.5,2.7,0.5,3.8
			c8.1,4.2,16.1,8.4,24.2,12.6c1.7,0.9,2.8,0.3,3.8-1.3c3.8-6,7.9-11.8,11.6-17.9c1.4-2.3,3-2.4,5.4-2.1c6,0.8,12,1.4,18,1.5
			c2.6,0,3.5,0.7,4.4,3c2.9,7.4,6,14.7,9,21.8c6.4,0,23.9-5.6,30.2-9.6c-1.7-7.9-3.3-15.9-5.2-23.8c-0.5-2,0.1-2.8,1.6-4
			c4.9-3.9,9.5-8.1,14.3-12.1c0.8-0.7,2.5-1,3.4-0.7c6,2.3,11.8,4.8,17.7,7.3c3.3,1.4,4.6,2,5.9,1.1l13.5-25.6
			C1604,476.3,1602.6,475.3,1598.7,472.8z M1547.7,464.2c-12.1,22.9-40.4,31.6-63.3,19.5l0,0c-22.9-12.1-31.6-40.4-19.5-63.3l0,0
			c12.1-22.9,40.4-31.6,63.3-19.5l0,0C1551.1,412.9,1559.8,441.3,1547.7,464.2L1547.7,464.2z"/>
		<g>
			<g>
				<path class="st6" d="M770.2,1359.3c0,0-244.8-120.7-286.9-183.6c-42.1-62.9,19.8-66.5,19.8-66.5s-109.2-106.2-93.9-151
					c15.4-44.7,72-3.7,72-3.7S411,798.1,444.1,782.4c61.7-29.3,148.2,139,148.2,139s-18.6-73.1,23.9-70.7
					c64.1,3.6,61.4,168.9,61.4,168.9s7.2-63.4,45.8-42.8C792.8,1013.7,770.2,1359.3,770.2,1359.3z"/>
			</g>
			<path class="st7" d="M737.4,951.2c-30.2-16.7-60.2,32.2-60.2,32.2s3-129.1-61-132.7c-42.5-2.4-23.9,70.7-23.9,70.7
				s-86.5-168.2-148.2-139l326.4,574.2C772.8,1316.5,797.2,984.3,737.4,951.2z"/>
		</g>
		<g>
			<g>
				<path class="st6" d="M763.9,1360.8c0,0-200.2,24.9-252,2.7c-51.8-22.2-14.7-49.5-14.7-49.5s-111.3-21.9-119.9-56
					c-8.6-34.1,42.8-31.4,42.8-31.4s-106.7-69.1-92.5-92.4c26.6-43.3,148.9,26.4,148.9,26.4s-41.3-38-13.8-53.8
					c41.4-23.8,106.9,80.4,106.9,80.4s-4.1-25.7,28.4-28.5C656.2,1153.6,763.9,1360.8,763.9,1360.8z"/>
			</g>
			<path class="st7" d="M599.3,1140c-32.4,2.8-29.7,47.2-29.7,47.2s-66.7-123.5-108.1-99.7c-27.5,15.8,5,67.6,5,67.6
				s-112.3-64.2-138.9-20.9l436.9,225.5C749.7,1333.7,653.7,1135.2,599.3,1140z"/>
		</g>
		<path class="st7" d="M1915.1,1068.4l10.8-26c8.3-19.1,29.7-28.2,47.7-20.4l0,0c45.3,19.8,65.1,74.9,44,123l-15.4,35.2
			c-6.7,15.4-4.4,32.4,4.7,44.4c8.2,10.9,9.6,26,3.9,39.1l-8.1,18.6c-8.8,20.1-25.8,35-46.1,41.1c-11.8,3.6-22.3,12.5-27.8,25.1
			l-11.5,26.3c-12.7,29.1-45.1,42.9-72.5,31l-15.6-6.8c-27.4-11.9-39.3-45.2-26.6-74.2l0,0c20.5-34.7,18.9-60.7,11.6-78.3
			c-10.7-25.9-10.6-55.6,1-82.1l1.6-3.7c12.2-28,35.8-48.8,63.8-57.8C1893,1099,1906,1089.4,1915.1,1068.4z"/>
		<g>
			<path class="st8" d="M2065.1,773.7c0,0-29.3,37.9-46.6,52.7c-17.3,14.9-33.7,29.1-55.7,76.4c-22,47.3-21.4,52.7-27.2,64.9
				c-5.8,12.2-36.6,59.9-38.9,69.4c-2.3,9.5-52.5,55.1-68,78.3c-15.5,23.2-41,55.5-44.3,74.2l4.5-0.1c0,0,13.5-42.3,53.3-78.9
				c39.8-36.7,37.5-45.9,76.4-60.4c38.9-14.5,75-71.3,75-71.3s49.9-59.2,56.4-94.4C2056.4,849.1,2072.8,819.7,2065.1,773.7z"/>
			<path class="st8" d="M2034.6,697.9c0,0-7.6,27.6-20.4,42c-12.8,14.5-22.9,22.7-28.7,40.2c-5.8,17.5-22.2,62.4-52.5,79.1
				c-30.3,16.7-49.2,83.5-73,99.4c-23.8,16-29.7,30.1-34.3,65.9c-4.6,35.8-3.9,87.2-46.3,144.1l-2.6-17.2c0,0,31.9-47.5,34.2-79.1
				c2.3-31.6-3.6-81.6,7.6-102.3c11.2-20.7-10.4-30.3,11-60.6c21.4-30.3,18.5-43.2,43.9-67.8c0,0,2.2-0.9,12.8-24.2
				c10.6-23.3,60.4-59,82.2-70.1C1990.1,736.2,2022,717.8,2034.6,697.9z"/>
			<path class="st6" d="M1928.6,818.6c0,0-30.4,32.2-36.3,56.1c-5.9,23.9-7.8,44-26.5,74.3c-18.6,30.3-1.6,56.1-12.1,72.8
				c-10.5,16.7-16,38-19.6,54.3c-3.6,16.3-41.2,64.3-51.4,90.7c-10.2,26.4-5.3,27.6-5.3,27.6s12.5-35,21.1-45.6
				c8.5-10.6,35.7-47.5,43.5-62.4c7.8-14.9,21.3-22.5,37.1-47.2c15.8-24.7,34.8-44.1,42.6-82.5
				C1929.5,918.2,1954.2,881.5,1928.6,818.6z"/>
			<path class="st6" d="M1797.7,1172.7c0,0,21.1-44.9,65-39.7s67,19.5,105.3-8c38.2-27.5,68.5-78.2,80.4-85.4
				c0,0-13.4-11.3-44.1,6.4c-30.7,17.7-52.6,31.5-70.4,41.8c-17.8,10.3-27.6-1.4-45.1,4.1c-14.7,4.6-36.5,22.6-46.6,32.4
				c-3.3,3.2-6.9,5.9-10.9,8.2c-3.6,2-7.9,4.6-10.7,6.5c-5.7,3.9-26.2,33-26.2,33L1797.7,1172.7z"/>
			<path class="st6" d="M1784.6,1160.9c0,0,28.5-54.3,25-84.9c-3.5-30.6-30.3-58.9-24.9-76.4c5.4-17.5,36.9-60.8,28.6-100.4
				c0,0-13.7,30.4-21.6,36.1c-7.9,5.7-57.1,24.4-58.3,63.9c-1.2,39.5,38.1,58,45.7,71.5c7.6,13.5,21.4,16.7,19.7,24.1
				c-1.6,7.4-5.2,34.9-15.9,60.4L1784.6,1160.9z"/>
			<path class="st9" d="M1810,1126l35.4-56.1c0,0,23.9-46.2,40.6-85.4c16.7-39.2,42.6-165.9,42.6-165.9s-30.4,32.2-36.3,56.1
				c-5.9,23.9-7.8,44-26.5,74.3c-18.6,30.3-1.6,56.1-12.1,72.8c-10.5,16.7-16,38-19.6,54.3c-3.6,16.3-41.2,64.3-51.4,90.7
				c-5.6,14.5-6.6,21.3-6.4,24.6C1778.4,1166.7,1810,1126,1810,1126z"/>
			<path class="st9" d="M1922.8,1113.9c-19.8-0.6-36.4-5.8-62.7,5.6c-26.3,11.5-43.6,26.2-43.6,26.2s-14.3,15.7-20.6,24.2
				c-0.9,1.3-1.5,2.1-1.5,2.1l3.3,0.6c0,0,21.1-44.9,65-39.7s67,19.5,105.3-8c38.2-27.5,68.5-78.2,80.4-85.4c0,0-38,17.5-63,35
				C1960.4,1092.2,1942.6,1114.5,1922.8,1113.9z"/>
			<path class="st9" d="M1791.8,935.2c-7.9,5.7-57.1,24.4-58.3,63.9c-1.2,39.5,38.1,58,45.7,71.5c7.6,13.5,21.4,16.7,19.7,24.1
				c-1.6,7.4-5.2,34.9-15.9,60.4l0.7,2.5c4.6-9.8,11.4-24.9,15.2-36.6c6.2-19.1,4.9-27.9,2.3-45.1c-2.6-17.2-34-58.3-39.8-77.5
				c-5.8-19.1,29.3-40.7,38.7-52.9c9.5-12.1,13.2-46.5,13.2-46.5S1799.6,929.6,1791.8,935.2z"/>
		</g>
		<g>
			<g>
				<path class="st8" d="M754.3,1580.6c-92.9-126.3-205.8-243.1-340.1-344.6c-1.3-1-3.1,1.3-1.8,2.4
					c127.4,97.9,240,213.5,334.8,344.1L754.3,1580.6z"/>
			</g>
			<path class="st8" d="M489.1,1349.1c3.1-2.2,11.1-10.6,21.9-13.2c10.2-3.4,23-1.1,22.6-0.9c0.3,0.6-8.5-9.3-22.1-12.2
				c-13.1-3.8-31.1-0.6-37,4.6c-13.4,9-14.4,24.4-7.8,27.2C473.2,1357.7,482,1353.5,489.1,1349.1z"/>
			<path class="st8" d="M434.4,1300.9c3.1-2.2,11.1-10.6,21.9-13.2c10.2-3.4,23-1.1,22.6-0.9c0.3,0.6-8.5-9.3-22.1-12.2
				c-13.1-3.8-31.1-0.6-37,4.6c-13.4,9-14.4,24.4-7.8,27.2C418.5,1309.5,427.3,1305.4,434.4,1300.9z"/>
			<path class="st8" d="M581.1,1327.7c-2.9,1.8-13.3,5.5-18,13.7c-5.5,7.4-5.4,19.5-5.1,19.3c0.6,0.5-8.3-11.1-8.9-24.1
				c-1.7-12.9,5.1-27.2,11.7-30.3c12.1-8,28.6-2.8,30.4,4.1C593.2,1317.4,587.2,1323.3,581.1,1327.7z"/>
			<g>
				<g>
					<path class="st8" d="M595.3,1155.5c83.1,129.8,143.8,274,178.5,427.3l5.7-1.5c-34.5-150-94.8-294-177.8-423.7
						c-19.3-30.1-40.1-65.9-76.2-77.7c-0.7-0.2-1,0.8-0.3,1.1C558.1,1093.4,577.2,1127.3,595.3,1155.5z"/>
				</g>
				<path class="st8" d="M587.7,1075c-2.1,3.1-10.3,11.4-12.7,22.1c-3.2,10.2-0.7,23-0.4,22.6c0.6,0.3-9.5-8.3-12.6-21.9
					c-4.1-13-1.2-31.1,3.9-37.1c8.8-13.5,24.1-14.9,27.1-8.3C596,1059,592,1067.8,587.7,1075z"/>
				<path class="st8" d="M567.8,1190.9c3.1-2.2,11.1-10.6,21.9-13.2c10.2-3.4,23-1.1,22.6-0.9c0.3,0.6-8.5-9.3-22.1-12.2
					c-13.1-3.8-31.1-0.6-37,4.6c-13.4,9-14.4,24.4-7.8,27.2C552,1199.5,560.7,1195.3,567.8,1190.9z"/>
				<path class="st8" d="M597.8,1241.7c3.1-2.2,11.1-10.6,21.9-13.2c10.2-3.4,23-1.1,22.6-0.9c0.3,0.6-8.5-9.3-22.1-12.2
					c-13.1-3.8-31.1-0.6-37,4.6c-13.4,9-14.4,24.4-7.8,27.2C582,1250.3,590.7,1246.1,597.8,1241.7z"/>
				<path class="st8" d="M629.7,1132.5c-2.6,2.8-12,9.6-16.1,19.9c-4.8,9.6-4.3,22.6-4,22.2c0.6,0.3-8.1-9.7-9-23.6
					c-2-13.5,3.7-30.9,9.6-36c10.8-12,26.1-10.9,28-4C640.4,1117.9,635.1,1126.1,629.7,1132.5z"/>
				<path class="st8" d="M673.8,1190.1c-3.7,2-16.7,5.5-23.2,15.3c-7.4,8.6-8.3,23.4-7.8,23.1c0.7,0.6-9.2-14.3-8.8-30.2
					c-0.9-15.9,8.5-32.9,16.9-36c15.4-8.7,35.2-0.9,36.8,7.6C689.5,1178.5,681.6,1185.2,673.8,1190.1z"/>
				<path class="st8" d="M720.3,1277.3c-4,1.3-17.4,2.7-25.4,11.1c-8.7,7.3-12.1,21.7-11.6,21.5c0.6,0.7-6.7-15.6-3.6-31.2
					c1.8-15.8,13.9-31,22.7-32.7c16.7-6,34.8,5,35,13.7C737.6,1268.5,728.7,1273.9,720.3,1277.3z"/>
				<path class="st8" d="M511.3,1095.4c1.7-1.4,6.1-6.7,12.4-8.7c5.9-2.5,13.6-1.7,13.3-1.5c0.2,0.4-5.4-5.1-13.6-6.2
					c-7.9-1.7-18.4,1-21.7,4.3c-7.5,5.9-7.5,15.1-3.4,16.5C502.3,1101.2,507.3,1098.4,511.3,1095.4z"/>
				<path class="st8" d="M527.9,1058.3c-0.1,2.3-1.6,9,0.6,15.1c1.6,6.2,7,11.8,6.9,11.5c0.4-0.1-7.4-1.2-13.3-7
					c-6.2-5.2-10.5-15.2-9.8-19.8c0.1-9.6,7.4-15.1,10.9-12.8C527,1047.7,527.8,1053.4,527.9,1058.3z"/>
			</g>
			<path class="st8" d="M395,1251.8c1.7-1.4,6.1-6.7,12.4-8.8c5.9-2.5,13.6-1.7,13.3-1.5c0.2,0.4-5.4-5.1-13.6-6.2
				c-7.9-1.7-18.4,1-21.7,4.3c-7.5,5.9-7.5,15.1-3.4,16.5C386,1257.6,391,1254.8,395,1251.8z"/>
			<path class="st8" d="M415.1,1214.4c-0.3,2.2-2.3,8.8-0.6,15.1c1.1,6.3,6,12.3,6,12c0.4,0-7.3-1.8-12.6-8
				c-5.7-5.7-9.2-16-8.1-20.5c0.9-9.5,8.6-14.4,11.9-11.8C415.1,1203.7,415.4,1209.5,415.1,1214.4z"/>
		</g>
		<g>
			<path class="st8" d="M433,1463.9c84.9,9.3,163.9,46.8,240,83.3c51.3,24.6,48.7,31.7,59.2,35.3c1.7,0.6,3.4-1.2,2.6-2.9
				c-4-8-14.6-13.4-21.9-17.9c-8.5-5.3-17.5-10-26.5-14.4c-19.4-9.4-39.2-17.9-59-26.4c-40.2-17.5-81-33.9-123.4-45
				c-23.3-6.1-46.9-10.5-70.9-12.6C432.6,1463.1,432.6,1463.8,433,1463.9L433,1463.9z"/>
		</g>
		<path class="st8" d="M502.2,1436.4c-0.6,3.5-4.2,13.6-1.9,23.6c1.3,9.8,8.5,19.6,8.6,19.1c0.6,0-11.2-3.2-19.2-13.3
			c-8.6-9.3-13.3-25.6-11.4-32.6c2-14.8,14.3-22,19.4-17.7C502.9,1419.7,503,1428.7,502.2,1436.4z"/>
		<path class="st8" d="M577,1463.2c-0.6,3.5-4.2,13.6-1.9,23.6c1.3,9.8,8.5,19.6,8.6,19.1c0.6,0-11.2-3.2-19.2-13.3
			c-8.6-9.3-13.3-25.6-11.4-32.6c2-14.8,14.3-22,19.4-17.7C577.7,1446.5,577.8,1455.5,577,1463.2z"/>
		<path class="st8" d="M653,1497.1c-0.6,3.5-4.2,13.6-1.9,23.6c1.3,9.8,8.5,19.6,8.6,19.1c0.6,0-11.2-3.2-19.2-13.3
			c-8.6-9.3-13.3-25.6-11.4-32.6c2-14.8,14.3-22,19.4-17.7C653.6,1480.4,653.8,1489.4,653,1497.1z"/>
		<path class="st8" d="M479.9,1506.3c1.5-2.9,4.5-12.3,11.7-18.5c6.5-6.5,17.2-9.7,17-9.3c0.4,0.4-10-3.9-21.6-0.9
			c-11.5,2.1-24.1,11.4-26.6,17.7c-6.8,12-1.7,24.2,4.4,23.9C471.1,1519,476.2,1512.4,479.9,1506.3z"/>
		<path class="st8" d="M557.7,1533.8c1.5-2.9,4.5-12.3,11.7-18.5c6.5-6.5,17.2-9.7,17-9.3c0.4,0.4-10-3.9-21.6-0.9
			c-11.5,2.1-24.1,11.4-26.6,17.7c-6.8,12-1.7,24.2,4.4,23.8C548.8,1546.5,554,1539.9,557.7,1533.8z"/>
		<path class="st8" d="M420.7,1478c1.3-1.6,4.5-7.2,9.8-10c4.9-3.2,12.1-3.8,11.9-3.6c0.2,0.3-5.8-3.8-13.4-3.4
			c-7.5-0.2-16.6,4-19,7.6c-5.8,6.7-4.3,15-0.4,15.6C413.4,1484.7,417.5,1481.3,420.7,1478z"/>
		<path class="st8" d="M429.7,1441.4c0.3,2.1,0.1,8.4,3.1,13.7c2.5,5.3,8.3,9.6,8.3,9.3c0.3-0.1-6.9,0.2-13.2-4.1
			c-6.5-3.7-12.1-12.1-12.3-16.4c-1.5-8.7,4.2-15,7.8-13.5C427,1431.8,428.7,1436.9,429.7,1441.4z"/>
		
			<ellipse transform="matrix(0.7071 -0.7071 0.7071 0.7071 -332.4082 1160.6063)" class="st2" cx="1234.8" cy="981.6" rx="601" ry="601"/>
		
			<ellipse transform="matrix(0.7071 -0.7071 0.7071 0.7071 -332.4082 1160.6063)" class="st10" cx="1234.8" cy="981.6" rx="548.1" ry="548.1"/>
		
			<ellipse transform="matrix(0.7071 -0.7071 0.7071 0.7071 -332.4082 1160.6063)" class="st11" cx="1234.8" cy="981.6" rx="460.9" ry="460.9"/>
		
			<ellipse transform="matrix(0.7071 -0.7071 0.7071 0.7071 -332.4084 1160.6062)" class="st10" cx="1234.8" cy="981.6" rx="346.4" ry="346.4"/>
		
			<ellipse transform="matrix(0.7071 -0.7071 0.7071 0.7071 -332.4084 1160.6062)" class="st11" cx="1234.8" cy="981.6" rx="246" ry="246"/>
		<path class="st2" d="M1297.5,981.6c0,34.6-28.1,62.7-62.7,62.7c-34.6,0-62.7-28.1-62.7-62.7c0-34.6,28.1-62.7,62.7-62.7
			C1269.4,918.8,1297.5,946.9,1297.5,981.6z"/>
		<g>
			<polygon class="st12" points="1619.9,670.2 1617.7,629.4 1755.7,521.5 1748.5,580.5 1613.2,686.3 			"/>
			<polygon class="st1" points="1630.1,683.9 1669.1,695.9 1807.1,588 1748.1,580.8 1612.9,686.5 			"/>
			<path class="st12" d="M1230.1,986.8L1230.1,986.8c3.1,4,8.9,4.7,12.9,1.6l388.7-304l-11.4-14.5l-388.7,304
				C1227.6,977,1226.9,982.7,1230.1,986.8z"/>
		</g>
		<path class="st13" d="M1810,1099.6c0,3.9,1.5,7.1,3.3,7.1c1.8,0,3.3-3.2,3.3-7.1c0-3.9-1.5-7.1-3.3-7.1
			C1811.5,1092.6,1810,1095.7,1810,1099.6z"/>
		<path class="st13" d="M1779.4,1557c0.8-6.1,1.1-15.4,1-26.2h21.3c-2.2,15.2-3.9,27.1-3.9,27.1l0.5,4.8l0,14.2h-46.5
			c0,0,9.9-4.4,23.7-13.2C1776.5,1563.2,1778.8,1561.1,1779.4,1557z"/>
		<path class="st13" d="M1870.1,1553.5l-6.2-17.7h16.2c0.8,11.4,1.2,19.1,1.2,19.1l4.1,11.7l4.2,13.8c0,0-13.8,3.5-21-0.4l0.8-13.8
			L1870.1,1553.5z"/>
		<path class="st14" d="M1786.1,1168.3c5.6-7.7,28.8-29.9,31.4-29.9c7.5,0.1,32.1,0.1,36.9,2.6l-0.2,42.3
			c-0.8,3.6-17.8,58.9-16.8,71l-0.1,0.1c-14.3,13.8-36.7,12.7-49.8-2.4l0,0c0,0,0.1-16.8-2-32.1
			C1782.4,1196,1772.2,1187.4,1786.1,1168.3z"/>
		<path class="st13" d="M1825,1114.6c0,0-0.6,15.6,0.8,21.5s3.3,6.4-8.8,8.2c-4.7,0.7-9.3,1.8-9.3,1.8s1.2-8.7,1.4-12.4
			c0.3-6-1.4-24.7-1.4-24.7L1825,1114.6z"/>
		<path class="st15" d="M1815.9,1122.4c-2.5,1.3-4.8,2.1-6.9,2.5c-0.4-7.4-1.2-15.8-1.2-15.8l16.5,5.3
			C1822.3,1117.5,1819.6,1120.4,1815.9,1122.4z"/>
		<path class="st16" d="M1869.4,1566c6.4,2.8,13.2,1.1,15.9,0.2l0.9,2.5l3.5,11.7c0,0-13.9,3.5-21.2-0.5L1869.4,1566z"/>
		<path class="st16" d="M1798.8,1580.6h-48.4c-1.8-0.2-2.2-1.6-1.6-2.5c1.3-1.9,6.9-3.2,13.3-6.2c11.1,1.2,34.5-6.5,36.2-9.1
			C1799.3,1567.9,1799.8,1580.3,1798.8,1580.6z"/>
		<path class="st17" d="M1802.4,1255.2l28.4,201.7l25.8,93h28.1c0,0-6.5-74.9-20.5-101.5c0,0-6.1-71.1-12.2-114.6
			c-0.9-6.5,3.6-23.4,2.4-27.7c-9.1-33.5-17-51.7-17-51.7L1802.4,1255.2z"/>
		<path class="st18" d="M1820,1342.4l-6.6,77.5c0,0,6.7,44.3,2.1,73.7c-4.6,29.4-10.7,56.3-10.7,56.3H1779l-5.1-146.3
			c0,0-9.9-79.5-6.5-101.1c3.4-21.6,20.2-50.4,20.2-50.4l40.6,1.9c0,0,11,39.5,9.2,52.7C1835.9,1316.5,1820,1342.4,1820,1342.4z"/>
		<path class="st19" d="M1859.9,1209.5c30.7-9.2,22.5-36.3,22.3-35.2c0.1-0.8,3-4.2,4.4-7.2c6-12.1-1.9-26.7-10.9-31.8
			c6-15.4,0-30.2-11.2-36.4c-5.7-3.1-10.5-7.5-14.3-12.7c-8.5-11.4-24-22.8-42.6-19.1c-18.4,4.7,6.2,15.4,3.8,33.1
			c-1.2,9,2.3,7.7,7.9,14.9c-8,14-3.4,37.6,8.9,48.3C1822.1,1188.8,1828.6,1218.9,1859.9,1209.5z"/>
		<path class="st19" d="M1837.1,1085.8c3.6,15-16,25.8-31.5,26.2c-10.1,0.3-14.7-0.8-16.4-11.4c-2.6-17.3,4.5-27.8,14.4-32.1
			C1816.5,1062.8,1834.1,1073.5,1837.1,1085.8z"/>
		<path class="st13" d="M1814.3,1075.7c0,0,6.8,2.3,10.5,9.2c3.6,6.9,1.8,29-13.3,36.3s-22.1-9.3-21-21.5
			C1791.5,1087.5,1795.9,1071.6,1814.3,1075.7z"/>
		<path class="st20" d="M1804.8,1109.7l-10.8-0.2c0,0,0.2,4.2,4.9,4.4C1804.7,1114.2,1804.8,1109.7,1804.8,1109.7z"/>
		<path class="st19" d="M1830.1,1101.7c2.2-11.4,1.4-20.1-6.7-24.2c-8.1-4.2-15-8.3-22.3-0.8l-1.6,0.9c0,0,13.7,3.8,14.5,11.1
			c0.8,7.3,8,15.9,6.9,19.5c-1.1,3.6-2.4,10.7-2.4,10.7l3-2.5C1821.4,1116.3,1827.9,1113.1,1830.1,1101.7z"/>
		<path class="st13" d="M1816,1097.3c-1.1,3.2-0.3,6.3,1.9,7.1c2.2,0.8,4.9-1.2,6-4.3c1.1-3.2,0.3-6.3-1.9-7.1
			C1819.8,1092.2,1817.1,1094.1,1816,1097.3z"/>
		<path class="st1" d="M664.2,1369.2h139.5L770.4,1581h14.4L972.6,386.3h-14.4l-2.8,18H815.5l2.8-18H804L616,1581h14.4L664.2,1369.2
			z M903.5,734.1l-23,146.5H740.8l23-146.5H903.5z M765.7,721.9l23-146.5h139.8l-23,146.5H765.7z M878.5,892.9l-23,146.5H715.9
			l23-146.5H878.5z M853.6,1051.7l-23,146.5H691l23-146.5H853.6z M953.4,416.6l-23,146.5H790.6l23-146.5H953.4z M666.1,1357
			l23-146.5h139.6l-23,146.5H666.1z"/>
		<g>
			<path class="st21" d="M1258.5,189.2c-0.2,0.5-1.3,4.2-3.1,9.7l18.7,3.8c0.2-3.1,0.4-5.6,0.6-7.5c1.5-12.9,7.6-16.5,10.7-23.6
				c3.1-7.2,15.3-11.7,13.8-14.2c-1.5-2.4-12.8,7.4-15.5,6.4c-2.7-1.1,9.7-15.9,8.2-17.9c-2.7-3.6-14.5,15.6-15.9,14
				c-1.4-1.6,9.8-21.9,5.3-22.1c-4.5-0.3-9.4,22-11.8,21c-2.4-1,6.5-20.5,2-23.4c-2.4-1.6-11,34.7-14.8,36.8
				c-3.8,2.1-9.2-12.2-12.8-11C1240.3,162.3,1259.1,186.9,1258.5,189.2z"/>
			<path class="st21" d="M1084.8,112.2c-0.1,0.6-0.5,4.4-1.2,10.1l-18.6-4.3c1.1-2.9,2-5.3,2.5-7c3.9-12.4-0.2-18.1,0-26
				c0.1-7.8-9.1-17-6.7-18.6c2.4-1.6,8.6,12.1,11.5,12.2c2.9,0.2-2.3-18.5-0.1-19.7c4-2.2,6.8,20.2,8.7,19.3
				c1.9-0.9,0.1-24,4.3-22.4c4.2,1.6-0.4,23.9,2.1,24c2.5,0.1,2.5-21.3,7.8-22.1c2.8-0.4-4.3,36.1-1.7,39.6
				c2.6,3.5,13.4-7.3,16.2-4.7C1112.5,95.2,1085.1,109.9,1084.8,112.2z"/>
			<path class="st14" d="M1276.3,197.1c0,0-22.2-5.3-22.4-3.5c-4.7,39.1-6.8,53.2-7.6,53.7c-2.7,1.4-38.4-31.3-44.8-33.5
				c-3-1.1-6.4-0.9-9.5-0.8c-7.6,0.2-9.1,0.3-9.1,0.3c-0.2,0-0.3,0-0.3,0l0,7.1c8.5,7.7,28.1,124,29.7,123.9
				c1.8-0.1,40.5,9.6,39.8,6.4c-0.1-0.5-26.2-21.9-33.6-52.6c-2.5-10.3-3.7-21.5-5.1-31.2c8.6,4.3,42.1,20.8,47.4,18.6
				C1277.5,278.6,1276.3,197.1,1276.3,197.1z"/>
			<path class="st13" d="M1342.8,403.6c0,0,35.9,28.1,37.1,33.1c1.7,7.2,34.6-2.3,26.7-3.7c-1.8-0.3-7.7-1.8-8.1-2.1
				c-2.6-1.4-34.5-39.9-34.5-39.9L1342.8,403.6z"/>
			<path class="st14" d="M1422.1,433l-22.9-1.9c0,0-6.6,5.4-19.2,5.7c0,0-2,5.8-1.1,12.5c0.2,1.2,0.4,4.7,1.5,4.6
				c4.2-0.3,15.5-3.1,28.4-5.7c0,0,17.3-3.7,27.3-9.6C1446.1,432.6,1422.1,433,1422.1,433z"/>
			<path class="st17" d="M1181.8,333c0,0,26.3,4.4,55.4-2.4c33.7-7.9,70.9-15.2,81.8-8.8c8.8,5.1,63.6,88,63.6,88l-21.2,15.5
				l-60.4-67.6c0,0-77,28.4-94.3,25.3C1167.4,375.7,1166.8,344.3,1181.8,333z"/>
			<path class="st13" d="M1264.1,459.2c0,0-1.6,43.5-2.6,50.8c-1,7.3,18.4,29.4,16,21.7c-0.6-1.8-2-7.6-2-8.2
				c0-2.9,7.2-52.5,7.2-52.5L1264.1,459.2z"/>
			<path class="st14" d="M1289.9,547.6l-14.3-23.3c0,0-7.9-3.2-14.1-14.2c0,0-6,1-11.5,5c-0.9,0.7-7.4,5.4-6.9,6.5
				c1.6,4,10.4,12.5,20,21.9c0,0,13.6,10.9,23.6,16.9C1296.6,566.3,1289.9,547.6,1289.9,547.6z"/>
			<path class="st18" d="M1306.7,373.5c-9.2-12.3-83.4-23.9-83.4-23.9l-20.7-39.8l-45.8,28.2c0,0,4.6,36.4,8,46.2
				c4.6,13,35.3,13.6,54.1,13.4c17.3-0.2,48.9,3.3,48.9,3.3l-10.7,94.2c0,0,21,4.8,26.9,4C1284.7,499.2,1318.2,388.8,1306.7,373.5z"
				/>
			<path class="st19" d="M1182.9,213.3l-25.8,1.4c0,0-0.6,0.2-0.8,0.2c-2.1,0.4-0.2,75.7,1.7,103.8c1.9,28.1,5.7,39.9,5.7,39.9
				s35-6.2,45.8-10.4c4.5-1.7,15.3-15.2,15.3-15.2s-11-14.8-16.6-38.9c-4.3-18.6-9.6-51.5-12.6-58.4
				C1188.6,219.9,1182.9,213.3,1182.9,213.3z"/>
			<path class="st13" d="M1157.8,191.9l-0.7,22.8c0,0,16.7,28.8,25.3,24.8c7.2-3.4,0.8-25.3,0.8-25.3s-1.2-5-3-10.8
				c-1.2-4-2.2-8.4-2.1-11.6C1178.3,184.1,1157.8,191.9,1157.8,191.9z"/>
			<path class="st15" d="M1178.1,191.8c0.2-7.8-20.3,0.1-20.3,0.1l-0.1,2.2c0.7,1,1.4,1.9,2.3,2.6c5.5,4.5,13.4,6.5,19.9,5.7
				C1178.9,198.7,1178,194.8,1178.1,191.8z"/>
			<g>
				<path class="st14" d="M1177.8,139.9c0,0,8.5,12.8,9.2,23.7c0.6,10.8-1.7,18.2-1.7,18.2l-27.3-32.7L1177.8,139.9z"/>
				<path class="st22" d="M1189.8,161.4c0.4,3.8-1.1,7-3.3,7.3c-2.2,0.2-4.3-2.7-4.7-6.4c-0.4-3.8,1.1-7,3.3-7.3
					C1187.3,154.7,1189.4,157.6,1189.8,161.4z"/>
				<path class="st13" d="M1149.1,154.3c-0.6-0.1-0.6,31.3,8.6,38.7c9.1,7.4,25,8.1,29.6,0.6c5.1-8.2,0.3-41.4-13.3-48.4
					C1160.4,138.2,1149.1,154.3,1149.1,154.3z"/>
				<path class="st14" d="M1146.8,134.8c-7,6.1-10.3,10.6-15,21.4c-5.8,13.3,5.7,27.2,15.3,32.7c9.6,5.5,10.4,12.1,10.4,12.1
					l0.4-4.1c0.2-1.5,0.1-2.7-0.1-3.8c-0.3-1.2-0.9-2.3-1.4-3.3c-0.8-1.8-3.5-7.8-4.5-9.3c-2.7-4.2-3.2-5.1-1.9-9.1
					c1-3.1-0.2-9.8,1.4-14.8l13-2.8c0,0,8.1-2,12.2-6.7C1188.4,133.5,1165.2,118.4,1146.8,134.8z"/>
				<path class="st13" d="M1153.1,174.9c1.6,3.5,1.3,7-0.7,7.9c-2,0.9-4.9-1.1-6.5-4.6c-1.6-3.5-1.3-7,0.7-7.9
					C1148.6,169.4,1151.5,171.4,1153.1,174.9z"/>
			</g>
			<path class="st14" d="M1157.1,214.7c0,0-25.6-1.2-32.2-4.2c-4-1.8-36.9-28.3-36.9-28.3l0.4-71l-23.1-1.8c0,0-12,78.5-7.8,87.1
				c4.3,8.9,52.5,45.4,62.1,61.2c5.5,9.1,17.1,133.3,18.9,134.4c12.5,6.5,50.9,13,50,9C1163.3,292.5,1157.1,214.7,1157.1,214.7z"/>
			<path class="st20" d="M1168,183.1l14.9-4.7c0,0,1.5,5.8-5,8C1170,189.1,1168,183.1,1168,183.1z"/>
		</g>
		<path class="st14" d="M1804.1,459.3c1.9-0.3,2.9-2.9,1.9-4.5c-1.6-2.6-3.1-5.2-4.7-7.7c-3.4-5.7-3.7-5.8-3.5-6.5
			c0.7-1.6,3.6-0.8,4.6-0.5c2.3,0.8,4.5,2.2,7,2.5c4.8,0.6,8.4-3.1,6.2-7.8c-2-4.3-4.2-8.5-6.5-12.7c5.2,1.1,10.4,2.3,15.6,3.3
			c1.8,0.4,3.1-1.3,2.4-3c-1.7-3.8-6.5-15.1-8.2-18.8c-0.4-1-2.9-5.2-2-6c0.8-0.7,4.3,0.3,5.1,0.4c4.5,0.7,6.1,0.8,20.9,2.6
			c1.8,0.2,3.2-2.2,2.2-3.6c-10.3-14.4-8.5-15.7-12.2-17.7c-0.8-0.5-1.6,0.1-1.7,1c-0.3,2.2-0.3,2.7,3.6,9.6c1,1.8,2.1,3.5,3.1,5.2
			c-17.9-2.5-22.3-3.6-24.7,0.4c-1.7,2.8-0.9,3.5,8.5,24.8c-5.4-1.4-10.8-2.5-16.3-3.6c-2.1-0.4-3.6,1.5-2.7,3.4
			c7.1,15.4,8,15.5,8.2,17c0,0,0.9,0.3-0.5,0.1c-2.4-0.2-6.7-3.7-11.3-3.1c-4,0.5-7.8,3.7-6.9,8.1c0.5,2.5,1.5,3.4,6.2,11.9
			c-4.7,0.9-9.2,2.4-13.9,4.6c-2,0.9-3.2,1.8-4.5,3.7c-1,1.5,0.3,4,2.1,3.9C1787.5,465.8,1789.8,461.7,1804.1,459.3z"/>
		<path class="st15" d="M1897.9,501.8c-0.7-4.5-1-8.8-0.9-13.5c0-0.9-0.1-2.6,0.8-3.1c2.2-1.3,5.4,2.4,13.7,4.2
			c3.6,0.8,11,2.7,12.6-2.1c0.8-2.5,0.3-5.6,0.3-8.2c0-2,0.1-3.9,0.1-5.9c13.5,3.8,12.8,4.6,15.8,3.3c0.8-0.3,1.2-1.6,0.7-2.3
			c-1.8-2.8-1.4-2-18.4-7c-1.6-0.5-3.5,0.6-3.5,2.4c0,2.7,0.7,14.7,0.6,16.2c-0.1-0.1-0.8,0-0.9,0c-5.6-0.2-10.4-2.2-15.5-4.4
			c-4.2-1.7-9.9-1.8-11.2,3.6c-0.7,2.9-0.4,8.9,0,13.6c-8.2-2.6-16.5-5.3-24.7-7.9c-1.6-0.5-3.9,0.7-3.8,2.6
			c0.4,5.4,0.5,10.7,0.7,16.1c-4.8-1.6-9.4-3.9-13.6-6.9c-3.1-2.2-7,2.1,1.1,7.1c4.4,3,9.3,5.1,14.6,6.5c1.7,0.5,3.8-0.6,3.8-2.6
			c0-5.3-0.2-10.7-0.5-16c8.2,2.5,16.5,5,24.7,7.5C1896.5,505.5,1898.2,503.8,1897.9,501.8z"/>
		<path class="st23" d="M1926.4,609.7c0,1.6,1.1,2.7,2.6,3c7.6,1.4,15.1,2.1,22.7,0.8c4-0.7,2.5-6.6-1.3-6.1
			c-6.1,0.7-12.3,1-18.4,0.2c0.1-4.5,0.7-9,1.8-13.4c0.4-1.7-0.7-3.9-2.6-3.9c-4.9,0.1-23.4,1.2-23.5,1.4c0,0,0-0.2,0-0.5
			c-0.4-2,1.1-8.6,0.9-11.7c-0.2-3.4-4.7-4.7-7.5-4.9c-5.6-0.5-11.8,3.5-17.2,1.3c-5.2-2.1,0.7-10.3-3.6-16.7
			c-3.3-5-8.9-3.5-17.7-1.8c-2.2,0.4-4.3,0.9-5.4,3c-0.3,0.5-0.3,1.3,0.2,1.8c2.7,2.5,5.9,1.4,13.9,0c1-0.2,2.8-0.8,3.7,0
			c3,2.5-1.4,9.5,2.2,15.4c2.8,4.6,8.4,5.4,13.2,4.8c3.7-0.5,8.4-2.6,12.2-1.3c-0.2,3.3-0.5,6.5-0.5,9.8c0,3.5,1.9,6,5.4,6.3
			c3.9,0.3,8.1-0.2,12-0.4c2.7-0.1,5.3-0.2,8-0.4C1926.7,600.7,1926.3,605.2,1926.4,609.7z"/>
		<path class="st23" d="M1708.7,403.3c-21.1-17.3-31.9-1.7-25.8,5.5c2.6,3.1,7.2,3.3,9.6-0.2c1.1-1.6-0.5-4.2-2.5-3.6
			c-1.6,0.5-2-1.4-0.3-2.1c2.4-1,5.2,0.8,7.2,1.8c4.7,2.5,10.9,5.7,11.7,11.6c1.2,8.9-7.8,18.2-21.2,13.1
			c-19.3-7.5-18.3-39,2.1-44.2c11.1-2.8,23,1.9,29.9,11c1.3,1.8,3.7-0.3,3-2.1c-5.4-13.6-22.8-18.7-35.9-14.1
			c-13.5,4.7-20.2,18.9-18.2,32.6c2.1,14.4,14.4,26.4,29.4,24.8C1714.3,435.8,1723.5,415.4,1708.7,403.3z"/>
		<path class="st6" d="M1916.9,657.7c-3.4-2.4-10.6-3.9-12.9,0.8c-1.1,2.2-0.5,4.9,2.1,5.7c2.5,0.8,4.8-0.5,6.7,1.8
			c1.6,2,0.7,4.8-0.8,6.6c-4.6,5.4-14.3,3.7-19.8,0.7c-8.7-4.7-10.2-17.2-0.8-23.1c2.9-1.9,6.3-2.3,9.6-3c1.8-0.4,2.7-3.3,0.8-4.3
			c-7.4-3.8-16.6,1.1-21,7.4c-4.6,6.6-4.4,16.1-0.2,22.8c4.8,7.5,14.4,11.3,23.1,11.2C1921.7,684.1,1928,665.5,1916.9,657.7z"/>
		<g>
			<g>
				<path class="st24" d="M1560.4,1214.6c-0.6,1.9-0.9,2.5-1.6,3.8c-4.5,8.3-15.1,20-15.1,20l-8.1-18.3c0,0,1.3-5.8,3.6-14
					C1547.1,1208.2,1554.6,1209.4,1560.4,1214.6z"/>
				<path class="st18" d="M1513.7,1198.7c0,0,45.4,19.6,46.9,19.2c0.9-0.2,18.6-29.8,18.8-57.7c0.1-12.9-13.3-28.3-28.2-25.3
					c-7.5,1.5-7.4,3.6-18.5,19.7C1521.7,1170.8,1513.7,1198.7,1513.7,1198.7z"/>
				<path class="st13" d="M1475,1549.3c0,0,1.1,17.8,1.1,17.9c0.4,2.3,2,7.9,2,9.9c0,7.7-36.7-6.6-28.5-10c0.7-0.3,4.6-2.7,4.9-5.3
					c0.4-4.1,1.3-12.3,1.3-12.3L1475,1549.3z"/>
				<path class="st6" d="M1449.6,1567c0,0,8.6,2.4,13,3c4.4,0.6,10.2-4.4,13.4-3c3.4,1.5,3.3,14.8,3.3,14.8s-46.2,3.8-59.2-0.1
					C1414.9,1580.1,1432,1572.5,1449.6,1567z"/>
				<path class="st13" d="M1550.1,1549.3c0,0,1.1,17.8,1.1,17.9c0.4,2.3,2,7.9,2,9.9c0,7.7-36.7-6.6-28.5-10c0.7-0.3,5.8-4.4,6-7
					c0.4-4.1,0.2-10.5,0.2-10.5L1550.1,1549.3z"/>
				<path class="st6" d="M1524.7,1567c0,0,8.6,2.4,13,3c4.4,0.6,10.2-4.4,13.4-3c3.4,1.5,3.6,14.8,3.6,14.8s-46.4,4.4-59.5-0.1
					C1490.1,1579.9,1507.1,1572.5,1524.7,1567z"/>
				<g>
					<path class="st13" d="M1546.7,1105.9l4.2,26.3c0,0-15.9,12.7-25.1,10.1c-7.8-2.3-2.4-12.4-2.4-12.4s4.1-14.1,2.9-21.4
						C1524.9,1101.1,1546.7,1105.9,1546.7,1105.9z"/>
					<path class="st25" d="M1543.7,1113.8c-4,1.9-11.8,4.4-18,5.1c0.6-3.7,0.9-7.6,0.4-10.5c-0.6-3.4,3.7-4.2,8.6-4.1
						c6.3,0.5,12,1.5,12,1.5l0.8,5.1C1546.3,1112.2,1545,1113.2,1543.7,1113.8z"/>
					<path class="st13" d="M1566.7,1075.5c0.7,0-6.3,29.4-17,34.5c-10.7,5.1-26.7,2.4-29.7-5.5c-3.3-8.8,8.8-38.8,23.9-42.6
						C1558.9,1058.1,1566.7,1075.5,1566.7,1075.5z"/>
					<path class="st26" d="M1554.3,1048.5c8.6,4.9,12.5,12.3,13.8,15.3c4,1.9,8.9,6,11.2,17.1c2.9,13.7-7.3,24.2-18.1,27.4
						c-10.8,3.2-12.5,10.3-12.5,10.3l-1.2-7.7c0,0,2.4-6.7,6-10.1c3.6-3.4-1.7-8.2-2.2-12.2c-0.4-3.1,1.9-9,1.4-14.1
						c0,0-6-9.1-11.9-11.4C1530.7,1059.3,1543.3,1042.2,1554.3,1048.5z"/>
					<path class="st13" d="M1549.7,1093.7c-1.4,3.4-0.8,6.8,1.3,7.5c2.1,0.8,5-1.4,6.4-4.8c1.4-3.4,0.8-6.8-1.3-7.5
						C1554,1088.2,1551.1,1090.3,1549.7,1093.7z"/>
				</g>
				<path class="st24" d="M1509.8,1225.2l-62.4-10.2c0,0,7.1-17.9,9.6-17.9c2.5,0,47.2,19.5,47.2,19.5l3.6,7.1L1509.8,1225.2z"/>
				<path class="st27" d="M1541.8,1268c0,0,6.2,30.1,3.7,52.9c-2.5,22.8-2.7,103.8-2.7,103.8l9.7,129.6l-23,0.5
					c0,0-27.2-129.6-26.7-126.3c0.5,3.3-9.1-91.2-9.1-91.2l32.5-72.2L1541.8,1268z"/>
				<path class="st1" d="M1535.7,1266.6c0,0,4.1,27.1-1,39c-5.1,11.9-43.5,128.5-44,138c-0.5,9.5-13.3,114.6-13.3,114.6l-26.7-0.8
					l-5.8-116.8l12.1-146.8l11.7-37.1L1535.7,1266.6z"/>
				<path class="st13" d="M1550.8,1132.2c0,0-6.6,4.3-12.7,3.8c-6.1-0.5-14.8-6.2-14.8-6.2l1.2-4.1c0,0,15.9-2.3,16.3-2.1
					C1541.2,1124,1550.8,1132.2,1550.8,1132.2z"/>
				<path class="st24" d="M1480.7,1196.3c0,0-23.6,22.3-34.2,18.5c-10.7-3.8-15.1-16.8,10.9-35.8
					C1480.6,1162,1480.7,1196.3,1480.7,1196.3z"/>
				<path class="st7" d="M1464.7,1223.8c3.5-19.1,28.9-78.4,30.9-89.3c1-5.3,14.7-5.4,27.7-4.7c13.8,0.7,27.5,2.5,27.5,2.5
					s12.2,2,17.6,7c5.4,5,6.8,18.9-0.9,45.4c-6.1,20.9-13.6,32.3-17.4,47.5c-0.8,5.1-1.4,10.1-2.3,16c-1.4,22.7,0,52.7,0,52.7
					s-66.4,13.8-91.3-7.1C1456.5,1293.7,1461.1,1243.4,1464.7,1223.8z"/>
				<path class="st18" d="M1447.7,1182.8c0,0,26.1,21.5,27.6,21.5c1,0,37.2-26.6,45.6-48.5c4.6-12.1-5.1-25.6-16.1-25.6
					c-7.7,0-11.1,2-26.3,14.8C1463.2,1157.9,1447.7,1182.8,1447.7,1182.8z"/>
			</g>
			<path class="st20" d="M1521.9,1091.8l9.8,5.4c0,0-2.6,4.1-6.9,1.9C1519.4,1096.3,1521.9,1091.8,1521.9,1091.8z"/>
		</g>
		<g>
			<path class="st13" d="M902.2,1206.5c-0.8-2.2,9.9-4,10.5-6.2c0.6-2.2-13.5-2.4-14-4.3c-0.9-3.6,15.4-0.8,15.1-2.4
				c-0.3-1.7-17-5.4-15.2-8.3c1.8-2.9,16.9,5.7,17.4,3.7c0.5-2-14.8-6.7-14.5-11c0.1-2.3,25,11.4,27.8,10.2c2.9-1.2-3.1-12-0.8-13.6
				c2.3-1.6,8.9,21.9,10.5,22.7c1.6,0.8,35.1,19.9,47,23c1.4-4,18.5-28.7,19.8-32.5c6.7,4.8,13.6,5.4,20.5,9.8
				c-5,12.5-28,47.4-31.5,48.9c-10.6,4.8-51.7-29.3-59.9-35.1c-8.2-5.8-12.9-3.9-18.4-5.8C910.9,1203.6,903,1208.7,902.2,1206.5z"/>
			<path class="st19" d="M1130.1,1115.6c-6.1-16.4-22.2-26.3-38.9-23.2c-5.1-8.3-13.7-14.4-23-16.4c-18.4-3.9-43.2,3.3-42.5,22.8
				c-7.1,13.1-7.4,31.7,3.5,41.7c-3.8,17.6,12.7,34.5,34,33.9c7.4,12.3,21.6,20.2,35.7,18.5c3.4-0.4,8.5-1.2,9.4-1
				c-1.1-0.2,22.7,18,42.8-10C1171.6,1153.2,1157.2,1118.6,1130.1,1115.6z"/>
			<g>
				<path class="st13" d="M1072.4,1273.5c0.6,0.3-8.1,11.4-16.5,19.3c-6.8,8.6-13.2,18.7-15.4,29.7c-3.3,16.8-0.6,99.7-3.5,105.6
					c-25,24.5-43.1,85.8-48.2,104.6c-1,3.6-3,6.9-5.8,9.5l0,0l1.1,21.2l12.4,11.4c0,0-2.8-17.2,2.8-30c0,0,63-95.4,66.7-102.7
					c7.1-20.8,33.2-127.1,33.2-127.1l6-24.5C1105.3,1290.6,1072.5,1273.5,1072.4,1273.5z"/>
				<path class="st17" d="M969.4,1549.1c0,0,7.9,12.1,8.5,16.8c0.7,4.7,4.9,15.4,9.5,16.1c1.1,0.2,19.1,1.5,18.9-0.8
					c-0.1-1.7-6.6-4.2-9.7-6.3c-5.2-3.6-13.4-33.1-13.4-33.1S969.8,1545.3,969.4,1549.1z"/>
			</g>
			<path class="st21" d="M1075.1,1144c0,0,26.4-47.4,32.8-57.5c6.4-10.1,23.1-50.1,23.7-51.7c0.6-1.6-11.5-20.5-8.8-21.2
				c2.7-0.6,5.7,10,8.6,8.7c2.9-1.3,11.3-26.9,12.9-25.6c3.1,2.4-4.5,15.9-2.9,16.7c1.6,0.9,6.6-14.9,9.8-14.4
				c3.2,0.5-6.1,14.4-5.2,15.6c0.9,1.2,10.6-11.9,12.3-9.1c1,1.5-8.9,11.5-7,12.4c1.9,0.9,10.7-5.5,11.6-3.6
				c0.9,1.9-8.1,4.4-10.8,9.4c-2.7,5-7.3,7.1-9.2,16.4c-1.9,9.2-4.8,42.7-14.6,59.4c-9.8,16.7-31.3,53.6-31.3,53.6L1075.1,1144z"/>
			<path class="st13" d="M1126.3,1310.3c0,0,40.6,86.7,40.8,102c0.2,13.1-7.1,86.4-5,147.5c0.1,2.2,2.9,5.1,6.9,7
				c2.3,1,13.3,6,13.3,6l1.5,4l-38-2.7l-0.5-10.4c0,0-15.1-91.4-13.6-117.2c0.2-4.1,2.2-28.4,2.2-28.4l-45.7-88.3l28.8-37.8
				L1126.3,1310.3z"/>
			<g>
				<path class="st15" d="M1033.3,1414.5C1033.3,1414.5,1033.3,1414.5,1033.3,1414.5C1033.3,1414.4,1033.3,1414.5,1033.3,1414.5z"/>
				<path class="st6" d="M1091.3,1169.6c1.1-6.7,11.4-23.4,13-27.4c0,0-12-15.2-21.7-14.1c0,0-13.1,21.6-20.5,22.4
					c-7.4,0.7-33.5,1.9-38.1,4.6c-4.6,2.8-24,32.6-24,32.6s17.4,17.8,24.5,17.8c0,0,3.7-7.3,5.2-9c1.1,3.4,17.3,56.1,17.3,68
					l0.1,0.1c15.2,12.3,37.4,9.5,49.1-6.3l0,0c0,0-1.4-16.4-0.6-31.6C1096.9,1203.1,1101.7,1190.5,1091.3,1169.6z"/>
				<path class="st14" d="M1175.9,1373.4l-79.6-115c-4.9,2-9.6,3.7-14.8,4.7c-11.4,2.2-22.8,1.8-34.4,1.5c0,0.4,0,0.8-0.1,1.1
					c-1.3,9.5-13.9,24.2-16.5,52.9c-2.9,32.7-1.2,89.4-0.2,93.1C1083.3,1405.3,1160.9,1389.1,1175.9,1373.4z"/>
			</g>
			<path class="st13" d="M1048.8,1131.3c0,0,2.8,15.1,2.2,21c-0.6,5.9,2.1,25.1,14.2,25.2c12.1,0.1,2.3-24.4,1.2-30.2
				c-1.1-5.8-1.4-23.9-1.4-23.9L1048.8,1131.3z"/>
			<path class="st15" d="M1065.2,1132.5c-0.2-4.9-0.3-9.1-0.3-9.1l-16.2,7.9c0,0,0.6,3.1,1.1,7
				C1057,1139.8,1062.2,1137.1,1065.2,1132.5z"/>
			<path class="st13" d="M1042.9,1089.7c0,0-6.2,3.6-8.5,11.4c-2.3,7.8,0.3,28,16.5,32.9c16.1,4.9,23.1-11.1,19.8-23.6
				C1067.3,1097.9,1060,1082.1,1042.9,1089.7z"/>
			<path class="st13" d="M1072.6,1105.6c-0.3,3.4-2.1,5.9-4,5.7c-1.9-0.2-3.1-3.1-2.8-6.4c0.3-3.4,2.1-5.9,4-5.7
				C1071.7,1099.3,1072.9,1102.2,1072.6,1105.6z"/>
			<path class="st13" d="M1039,1118.5c1.9,2.9,1.9,6.4,0,7.7c-1.9,1.3-5,0-6.9-2.9c-1.9-2.9-1.9-6.4,0-7.7
				C1034,1114.3,1037.1,1115.6,1039,1118.5z"/>
			<path class="st17" d="M1145.7,1581.2h48.1c1.8-0.2,2.2-1.6,1.6-2.5c-1.3-1.8-6.9-3.2-13.2-6.1c-11.1,1.2-35.1-6.4-36.9-8.9
				C1144.3,1568.8,1144.7,1581,1145.7,1581.2z"/>
			<path class="st20" d="M1051.1,1121.8l10.3-3c0,0,0.9,4.1-3.6,5.5C1052.4,1126.1,1051.1,1121.8,1051.1,1121.8z"/>
		</g>
		<g>
			<path class="st6" d="M789.3,883.7c1.3,0.1,5,1.3,10.4,11.5c6.9,13,16.9,52.2,16.9,52.2l-30,11.2l-3.9-8.2l-6.3-63.1
				C776.5,887.3,789,883.7,789.3,883.7z"/>
			<path class="st28" d="M749.7,878c8.6,0,29.8,2.5,39.6,5.7c0,0,7.2,62.2-6.5,109.4c-3.1,10.6,2.5,43.8,2.5,43.8l-88.9-1.2
				c0,0,10.5-80.4,6.6-93.4c-4-13-4.1-58.3-4.1-58.3s0.6-0.1,20-3.4C728,879.1,740.5,878,749.7,878z"/>
			<path class="st13" d="M739.3,1152.4c0,0,2,22.7,5.6,29c3.6,6.3-0.2,17-0.4,18.4c-0.2,1.5-7.6,3.6-19.4,2.3
				c-11.8-1.3-11.6-4-10.7-8.4c1-4.4,7.2-10.1,7.6-14.2c0.4-4.2-3.6-19.3-3.6-19.3L739.3,1152.4z"/>
			<path class="st17" d="M775.3,1018.3c0,0,61.3-3.4,75,4.9c13.7,8.3-9.7,49-9.7,49s-42.7-2-126.3,2.9c-19.8,1.1-21.5-51.6-17.8-56
				C700.2,1014.7,775.3,1018.3,775.3,1018.3z"/>
			<path class="st26" d="M723.7,1203.9c-12.1-1.3-10.6-7.3-9.7-11.8c0.6-2.8,4.1-6.2,6.2-9.3c1.1,0.9,2.9,2.4,8.1,3.9
				c5.5,1.6,13-1.6,17.8-3.6c1.7,6.3,1.8,14.4,1.6,15.7C747.5,1200.3,735.8,1205.2,723.7,1203.9z"/>
			<path class="st18" d="M730.4,1062.1c2.5,18.5,14.6,110.9,14.6,110.9l-28.2,3.5c0,0-34.6-120.5-32.8-138.9
				c1.8-18.4,14.7-20,14.7-20S723.9,1013,730.4,1062.1z"/>
			<path class="st13" d="M698,891c8.3-3.1,12.4,71.7,13.5,102.6c14.7,1.4,40.4,0,46.7-0.5c3-0.2,9.9-2.8,12.9-3.2
				c3.1-0.4,5.8-0.6,7.3-0.3c0.6,0.1,15.9,6.4,17.2,7.7c1.6,1.7,6,6,5.3,7.9c-0.7,1.9-8.5-5.2-8.5-5.2l-3.8-2.1
				c4.7,4.6,13.6,10.6,12.4,12.8c-1.3,2.1-9.3-4-15.1-8.2c4.9,4.5,11.1,12.4,9.7,13.7c-1.3,1.1-8.2-8.1-15.7-10.8
				c-2.8-1-5.5,1.7-7.7,2.1c-1.6,0.2-4.1,0.8-5.6,0.3l-8.1-2.3c-2.8,0.2-2.8,1.9-5.6,2.5c-3.2,0.7-8.5,1.4-12.6,2.4
				c-23.6,5.8-31.5,8.5-38.8,8.5C679.7,1018.9,678.4,898.4,698,891z"/>
			<path class="st6" d="M682.3,961.3c-1.6-31.6-1.3-70.5,16.4-77.1c7-2.6,19.3,13.1,17.1,77.7C706.3,962.7,692.4,963.4,682.3,961.3z
				"/>
			<path class="st13" d="M821.7,1171.8c0,0-2.5,7.9,1.9,13.1c4.4,5.2,22.7,10.3,25.1,13.1c2.4,2.8,2.2,5.2,2.2,5.2l-51.3-1.4
				l0.6-15.5l2.4-11.1L821.7,1171.8z"/>
			<path class="st26" d="M826.8,1187.5c0,0-13.2,5.3-19.6,2.2c-6.4-3.2-6.2-4-8-2.9c-1.8,1.2-2.5,15.7-2.5,15.7l57.7,1.7
				c4-0.1,6-3,2.8-5.6c-2.2-1.7-4.8-2.9-6.3-3.7C846.4,1192.3,826.8,1187.5,826.8,1187.5z"/>
			<path class="st18" d="M819.7,1032.8c4-8.3,13-19.2,28.9-12.7c15.1,6.2,19.2,21.6,14.4,37.3c-4.8,15.7-36.2,108-37.3,120.7
				l-25.1,0.2c0,0,4.6-73.1,5.7-90.8C807.3,1070.5,812.9,1047.2,819.7,1032.8z"/>
			<linearGradient id="SVGID_2_" gradientUnits="userSpaceOnUse" x1="697.0703" y1="983.4172" x2="865.9349" y2="983.4172">
				<stop  offset="0" style="stop-color:#0F112E"/>
				<stop  offset="1" style="stop-color:#3D456B"/>
			</linearGradient>
			<path class="st29" d="M860.5,947.8h-83.9c-2.2,0-4.2,1.3-5.1,3.4l-25.8,63.2h-46.3c-1.3,0-2.3,1.1-2.3,2.3l0,0
				c0,1.3,1,2.3,2.3,2.3h131.6c3.6,0,6.9-2.1,8.4-5.4l26-58.1C867.1,951.9,864.4,947.8,860.5,947.8z"/>
			<path class="st20" d="M815.3,984.6c-0.6,2.8-3,4.7-5.5,4.2c-2.5-0.5-4-3.2-3.5-6c0.6-2.8,3-4.7,5.5-4.2
				C814.3,979,815.9,981.7,815.3,984.6z"/>
			<g>
				<path class="st30" d="M769.6,802.1c-2.5-0.9-5-1.8-7.4-3c-2.7-1.3-6.2-2.8-8.5-3.2c-4.7-0.7-12.7-0.2-17.2,4.6
					c-5.5,6-15.4,1.1-13.4,32.5c2.2,35.6,22,31.7,22.5,31.1c0.5-0.6,17.6-22.8,17.6-22.8s6,13.1,6,12.6
					C769.3,853.5,800,812.3,769.6,802.1z"/>
				<path class="st13" d="M754.6,866.8l1.7,12.7c0,0,3.8,18.3-1.1,21.9c-4.9,3.5-20.9-22.4-20.9-22.4l1.7-32.2L754.6,866.8z"/>
				<path class="st15" d="M735.4,857.2c4.1,11,13.8,17.7,20.6,20.4l-1.4-10.8l-18.6-20L735.4,857.2z"/>
				<path class="st13" d="M753.6,811.7c10.4-1.7,19.8,6.7,19.5,17.1c-0.1,4.5-0.5,10.2-1.4,16.3c-2.3,14.7-12.3,27.6-18.9,26.5
					c-6.6-1.2-23.3-13.8-20.4-34.7C734.2,824,742.6,813.4,753.6,811.7z"/>
				<path class="st13" d="M737,839.4c-0.6,3.2-3.1,5.5-5.8,5c-2.6-0.5-4.3-3.4-3.8-6.7c0.6-3.2,3.1-5.5,5.8-5
					C735.9,833.1,737.6,836.1,737,839.4z"/>
				<path class="st30" d="M733.3,832.7c0,0,8,2,11-3.2c3-5.1,13.6-16.3,27.1-11.7c13.5,4.6-11.9-11.2-13-11.2c-1.1,0-14-0.1-14-0.1
					s-10,8.2-10.4,9.1c-0.4,0.9-3.2,10.8-3.2,10.8L733.3,832.7z"/>
			</g>
			<path class="st20" d="M747.9,854.2l14.6,2.8c0,0-1.4,5.5-7.8,4.4C746.8,860.1,747.9,854.2,747.9,854.2z"/>
		</g>
		<path class="st31" d="M2010.3,1580.2H491.2c-3,0-5.4,2.4-5.4,5.4l0,0c0,3,2.4,5.4,5.4,5.4h1519.2c3,0,5.4-2.4,5.4-5.4l0,0
			C2015.7,1582.6,2013.3,1580.2,2010.3,1580.2z"/>
		<path class="st13" d="M1699.4,1188.9c-0.8-2.2,9.9-4,10.5-6.2c0.6-2.2-13.5-2.4-14-4.3c-0.9-3.6,15.4-0.8,15.1-2.4
			c-0.3-1.7-17-5.4-15.2-8.3c1.8-2.9,16.9,5.7,17.4,3.7c0.5-2-14.8-6.7-14.5-11c0.1-2.3,25,11.4,27.8,10.2c2.9-1.2-3.1-12-0.8-13.6
			c2.3-1.6,8.9,21.9,10.5,22.7c1.6,0.8,35.1,19.9,47,23c1.4-4,4.6-9.4,5.9-13.2c6.7,4.8,11.7,7.2,18.6,11.5
			c-5,12.5-12.1,26.3-15.6,27.9c-10.6,4.8-51.7-29.3-59.9-35.1c-8.2-5.8-12.9-3.9-18.4-5.8
			C1708.1,1186.1,1700.2,1191.1,1699.4,1188.9z"/>
		<path class="st32" d="M1823.3,1165c3.2,13.1-13.7,42.2-13.7,42.2s-24.1-11.4-28.3-16.3c0,0,16.4-28.3,17.4-30
			c4.9-7.8,11.5-7.8,15.8-7.3C1817.9,1154.1,1823.3,1165,1823.3,1165z"/>
	</g>
</g>
</svg>