<?xml version="1.0" encoding="utf-8"?>
<!-- Generator: Adobe Illustrator 25.2.0, SVG Export Plug-In . SVG Version: 6.00 Build 0)  -->
<svg version="1.1" id="Layer_1" xmlns="http://www.w3.org/2000/svg" xmlns:xlink="http://www.w3.org/1999/xlink" x="0px" y="0px"
	 viewBox="0 0 48 48" style="enable-background:new 0 0 48 48;" xml:space="preserve">
<style type="text/css">
	.st0{fill:url(#XMLID_2_);}
	.st1{fill:url(#XMLID_3_);}
	.st2{fill:url(#XMLID_4_);}
	.st3{fill:url(#XMLID_5_);}
	.st4{fill:#A81E35;}
	.st5{fill:#11132E;}
</style>
<g id="XMLID_1364_">
	<g id="XMLID_141_">
		<linearGradient id="XMLID_2_" gradientUnits="userSpaceOnUse" x1="13.4794" y1="9.3316" x2="32.5699" y2="42.3973">
			<stop  offset="0" style="stop-color:#A81E35"/>
			<stop  offset="1" style="stop-color:#11132E"/>
		</linearGradient>
		<path id="XMLID_162_" class="st0" d="M38.7,38L34,29.9c0.8-0.7,1.3-1.6,1.5-2.7c0.1-0.7,0.5-1.4,1-1.8c1.5-1.2,2-3.2,1.3-4.9
			c-0.3-0.7-0.3-1.4,0-2.1c0.7-1.7,0.2-3.8-1.3-4.9c-0.6-0.4-0.9-1.1-1-1.8c-0.3-1.9-1.7-3.3-3.6-3.6C31.1,8,30.5,7.6,30,7
			c-1.2-1.5-3.2-2-4.9-1.3C24.4,6,23.7,6,23,5.7C21.3,5,19.3,5.5,18.1,7c-0.4,0.6-1.1,0.9-1.8,1c-1.9,0.3-3.3,1.7-3.6,3.6
			c-0.1,0.7-0.5,1.4-1,1.8c-1.5,1.2-2,3.2-1.3,4.9c0.3,0.7,0.3,1.4,0,2.1c-0.7,1.7-0.2,3.8,1.3,4.9c0.6,0.4,0.9,1.1,1,1.8
			c0.1,1.1,0.7,2,1.5,2.7L9.5,38c-0.1,0.3-0.1,0.6,0.1,0.8c0.2,0.2,0.5,0.3,0.8,0.3l4.1-1.1l1.1,4.1c0.1,0.3,0.3,0.5,0.6,0.5
			c0,0,0.1,0,0.1,0c0.3,0,0.5-0.1,0.6-0.4l5.1-8.8c0.4,0,0.8-0.1,1.1-0.3c0.7-0.3,1.4-0.3,2.1,0c0.4,0.2,0.8,0.3,1.2,0.3l5.1,8.8
			c0.1,0.2,0.4,0.4,0.6,0.4c0,0,0.1,0,0.1,0c0.3,0,0.5-0.2,0.6-0.5l1.1-4.1l4.1,1.1c0.3,0.1,0.6,0,0.8-0.3
			C38.8,38.6,38.8,38.3,38.7,38L38.7,38z M16.4,40l-0.8-3.1c0-0.2-0.2-0.3-0.3-0.4s-0.4-0.1-0.6-0.1l-3.1,0.8l3.8-6.6
			c0.3,0.1,0.6,0.2,0.8,0.2c0.7,0.1,1.4,0.5,1.8,1c0.6,0.7,1.3,1.2,2.2,1.5L16.4,40z M22.5,31.8C21.3,32.3,20,32,19.2,31
			c-0.7-0.9-1.7-1.4-2.8-1.6c-1.2-0.2-2.2-1.1-2.4-2.4c-0.1-1.1-0.7-2.1-1.6-2.8c-1-0.8-1.3-2.1-0.9-3.2c0.4-1,0.4-2.2,0-3.2
			c-0.5-1.1-0.1-2.5,0.9-3.2c0.9-0.7,1.4-1.7,1.6-2.8c0.2-1.2,1.1-2.2,2.4-2.4c1.1-0.1,2.1-0.7,2.8-1.6c0.5-0.7,1.3-1.1,2.2-1.1
			c0.3,0,0.7,0.1,1,0.2c1,0.4,2.2,0.4,3.2,0c1.1-0.5,2.5-0.1,3.2,0.9c0.7,0.9,1.7,1.4,2.8,1.6c1.2,0.2,2.2,1.1,2.4,2.4
			c0.1,1.1,0.7,2.1,1.6,2.8c1,0.8,1.3,2.1,0.9,3.2c-0.4,1-0.4,2.2,0,3.2c0.5,1.1,0.1,2.5-0.9,3.2c-0.9,0.7-1.4,1.7-1.6,2.8
			c-0.2,1.2-1.1,2.2-2.4,2.4c-1.1,0.1-2.1,0.7-2.8,1.6c-0.8,1-2.1,1.3-3.2,0.9C24.6,31.4,23.5,31.4,22.5,31.8L22.5,31.8z M33.5,36.4
			c-0.4-0.1-0.8,0.1-0.9,0.5L31.7,40l-3.9-6.7c0.8-0.2,1.6-0.7,2.1-1.5c0.4-0.6,1.1-0.9,1.8-1c0.3,0,0.6-0.1,0.9-0.2l3.8,6.6
			L33.5,36.4z"/>
		<linearGradient id="XMLID_3_" gradientUnits="userSpaceOnUse" x1="22.4041" y1="15.7802" x2="26.4423" y2="22.7745">
			<stop  offset="0" style="stop-color:#A81E35"/>
			<stop  offset="1" style="stop-color:#11132E"/>
		</linearGradient>
		<path id="XMLID_1190_" class="st1" d="M20.8,16.8L18.5,19c-0.1,0.1-0.2,0.3-0.2,0.5s0.1,0.4,0.2,0.5l4.2,4.2
			c0.1,0.1,0.3,0.2,0.5,0.2s0.4-0.1,0.5-0.2l5.9-5.9c0.3-0.3,0.3-0.7,0-1l-2.3-2.3c-0.1-0.1-0.3-0.2-0.5-0.2c-0.2,0-0.4,0.1-0.5,0.2
			l-3.1,3.1l-1.5-1.5c-0.1-0.1-0.3-0.2-0.5-0.2C21.1,16.5,20.9,16.6,20.8,16.8L20.8,16.8z M22.7,19.8c0.1,0.1,0.3,0.2,0.5,0.2
			s0.4-0.1,0.5-0.2l3.1-3.1l1.2,1.2l-4.9,4.9L20,19.5l1.2-1.2L22.7,19.8z"/>
		<linearGradient id="XMLID_4_" gradientUnits="userSpaceOnUse" x1="19.3647" y1="11.5026" x2="28.8154" y2="27.8717">
			<stop  offset="0" style="stop-color:#A81E35"/>
			<stop  offset="1" style="stop-color:#11132E"/>
		</linearGradient>
		<path id="XMLID_1191_" class="st2" d="M33.5,19.7c0-1.9-0.6-3.8-1.7-5.4c-1.1-1.5-2.6-2.7-4.3-3.4c-0.4-0.1-0.8,0-0.9,0.4
			c-0.1,0.4,0,0.8,0.4,0.9c3.1,1.2,5.1,4.1,5.1,7.4c0,4.4-3.6,8-8,8s-8-3.6-8-8c0-3.3,2-6.2,5.1-7.4c0.4-0.1,0.6-0.6,0.4-0.9
			s-0.6-0.6-0.9-0.4c-1.7,0.7-3.2,1.9-4.3,3.4c-1.1,1.6-1.7,3.4-1.7,5.4c0,5.2,4.2,9.5,9.5,9.5C29.3,29.1,33.5,24.9,33.5,19.7
			L33.5,19.7z"/>
		<linearGradient id="XMLID_5_" gradientUnits="userSpaceOnUse" x1="23.7262" y1="10.337" x2="24.4529" y2="11.5956">
			<stop  offset="0" style="stop-color:#A81E35"/>
			<stop  offset="1" style="stop-color:#11132E"/>
		</linearGradient>
		<path id="XMLID_1218_" class="st3" d="M24.1,11.7c0.2,0,0.4-0.1,0.5-0.2c0.1-0.1,0.2-0.3,0.2-0.5c0-0.2-0.1-0.4-0.2-0.5
			c-0.1-0.1-0.3-0.2-0.5-0.2s-0.4,0.1-0.5,0.2s-0.2,0.3-0.2,0.5c0,0.2,0.1,0.4,0.2,0.5C23.7,11.6,23.9,11.7,24.1,11.7z"/>
	</g>
</g>
<rect x="-18.5" y="17.1" class="st4" width="5.7" height="5.7"/>
<rect x="-18.5" y="25.1" class="st5" width="5.7" height="5.7"/>
</svg>