<?xml version="1.0" encoding="utf-8"?>
<!-- Generator: Adobe Illustrator 25.2.0, SVG Export Plug-In . SVG Version: 6.00 Build 0)  -->
<svg version="1.1" id="Layer_1" xmlns="http://www.w3.org/2000/svg" xmlns:xlink="http://www.w3.org/1999/xlink" x="0px" y="0px"
	 viewBox="0 0 2760.6 2000" style="enable-background:new 0 0 2760.6 2000;" xml:space="preserve">
<style type="text/css">
	.st0{fill:#49B5CE;}
	.st1{fill:#48647C;}
	.st2{fill:#86A6B7;}
	.st3{fill:#93BACC;}
	.st4{fill:#1480AF;}
	.st5{fill:#BCCAD8;}
	.st6{fill:#C5D3E1;}
	.st7{fill:#1688CD;}
	.st8{fill:#D13F4A;}
	.st9{fill:#404158;}
	.st10{fill:#B94B5D;}
	.st11{fill:#10122E;}
	.st12{fill:#A81E34;}
	.st13{fill:#243644;}
	.st14{fill:none;}
	.st15{fill:#BDC3C7;}
	.st16{fill:#2C3E50;}
	.st17{fill:#7C8A98;}
	.st18{fill:#34495E;}
	.st19{fill:#3C4A58;}
	.st20{fill:#5C6A78;}
	.st21{fill:#28BAAF;}
	.st22{fill:#F1C40F;}
	.st23{fill:#84A4C4;}
	.st24{fill:#5E6C7A;}
	.st25{fill:#4D5A68;}
</style>
<g>
</g>
<g>
	<path id="_x31_8_7_" class="st0" d="M1878.1,297c-2.2,0-4.3,0.2-6.3,0.5c-5.5-13-19.1-22.2-35.2-22.2c-12.2,0-23,5.4-29.9,13.7
		c-3.8-1.6-7.9-2.4-12.3-2.4c-15.1,0-27.6,10.2-29.8,23.6c-0.1,0-0.3,0-0.4,0c-16.7,0-30.2,12.5-30.2,27.8
		c0,15.4,13.5,27.8,30.2,27.8c15.1,0,97.9,0.9,113.9,0.9c20.8,0,37.7-15.6,37.7-34.8C1915.9,312.6,1899,297,1878.1,297z"/>
	<g>
		<path class="st1" d="M1689.8,795.3v20.5h-0.4v10.1h105.7v-4.3h0.8v-26.3h223.9v468.1h-15.7v24.1h54.7v-24.1h-10.9v-125.1h159.4
			v125.1h-13v24.1h54.7v-24.1h-13.7V795.3H2369V781l-61.5-68h-72.1v-64.6h-0.2l-187.7-137.2c-1.5-7.2-7-12.6-13.6-12.6
			c-7.3,0-13.2,6.5-13.9,14.8L1723.2,713h-81.9l-62.9,68v14.3H1689.8z M2254.5,781l48.4-53.2l-0.5-0.5h0.9l-0.5,0.5l48.4,53.2
			H2254.5z M2235.4,727.3h54l-48.8,53.7h-5.2V727.3z M2207.3,752.2l-22.6-24.9h22.6V752.2z M2207.3,781h-84.5l48.4-53.2l-0.5-0.5
			h0.9l-0.5,0.5l36.1,39.7V781H2207.3z M2108.9,781h-7.1l-48.8-53.7h104.7L2108.9,781z M2207.3,963.7h-0.1l-131.7-110.8h131.8V963.7
			z M2207.3,1101.4l-144.1-121.3h144.1V1101.4z M2047.9,987.7l139.8,117.6h-139.8L2047.9,987.7L2047.9,987.7z M2047.9,852.9h3.4
			L2183,963.7h-135.1V852.9z M2047.9,795.3h159.4v41.2h-159.4V795.3z M2047.9,737l40,44h-40L2047.9,737L2047.9,737z M2047.9,706.2
			h159.4v6.8h-159.4V706.2z M2047.9,685.7h159.4v8.3h-159.4V685.7z M2047.9,544.3l159.4,122.6v6.5h-159.4V544.3z M1645,727.3
			l-0.4,0.5L1693,781h-96.7l48.4-53.2l-0.5-0.5H1645z M1762.8,727.3L1714,781h-7.1l-48.8-53.7H1762.8z M1944.8,573.9L1771.6,713
			H1738L1944.8,573.9z M2019.8,713h-235.1l235.1-188.9V713z M1991.2,781l28.6-31.5V781H1991.2z M1970.1,781l-48.8-53.7h98.5v6.9
			l-42.6,46.8H1970.1z M1859.5,781l48.4-53.2l-0.5-0.5h0.9l-0.5,0.5l48.4,53.2H1859.5z M1838.5,781l-48.8-53.7h104.7l-48.8,53.7
			H1838.5z M1727.9,781l48.4-53.2l-0.5-0.5h0.9l-0.5,0.5l48.4,53.2H1727.9z M1702,815.8v-20.5h81.7v20.5H1702z"/>
		<g>
			<rect x="2238" y="647.8" class="st1" width="95.2" height="52"/>
			<path class="st1" d="M2248.5,862.1h112.2v-61.6h-112.2V862.1z M2344.5,808.7h8v45.2h-8V808.7z M2326.7,808.7h9.6v45.2h-9.6V808.7
				z M2308.9,808.7h9.6v45.2h-9.6V808.7z M2291.1,808.7h9.6v45.2h-9.6V808.7z M2273.3,808.7h9.6v45.2h-9.6V808.7z M2256.7,808.7h8.4
				v45.2h-8.4V808.7z"/>
		</g>
		<g id="_x31__1_">
			<g>
				<g>
					<g>
						<polygon class="st1" points="1745.3,851.2 1817.1,878.8 1815.1,884.2 1745.3,857.4 						"/>
					</g>
				</g>
			</g>
			<g>
				<path class="st1" d="M1756.1,858.3c0.1-0.5-0.1-2.6,0.5-2.9c0.5-0.2,1,1.3,1.1,1.7c0.5,1.6,0.4,3.3,0,5c-0.4,1.3-1,2.7-2.1,4.2
					c-1,1.3-2.6,2.6-4.4,3.5c-1,0.5-2.1,0.8-3.3,1v-5.4C1751.6,864.6,1755.4,861.9,1756.1,858.3z"/>
				<path class="st1" d="M1757.8,822.9c0-0.5-0.2-0.9-0.3-1.4h6.8c0,0.5,0.1,0.9,0.1,1.4c0,7.6-5.1,14-12,16c-0.1,1.4-0.2,2.8-0.3,4
					c-0.1,2.4-1.7,4.5-4.3,5.6v-15.7C1753.4,832.8,1757.8,828.4,1757.8,822.9z"/>
				<path class="st1" d="M1731.3,822.9c0-1.2,0.1-2.4,0.4-3.5h7c-0.4,1.1-0.7,2.3-0.7,3.5c0,5.5,4.4,9.9,9.9,9.9v15.7
					c-0.7,0.3-1.5,0.6-2.3,0.8c-3.4,0.7-7.5,3.6-7.7,7.2c-0.1,4.4,3.1,8.3,7.5,8.8c0.8,0.1,1.6,0.1,2.5-0.1v5.4c-1,0.2-2,0.2-3,0.2
					c-7.1-0.4-13.6-6.4-13.5-13.7c0.1-4.9,2.8-9,7.4-10.8c1.8-0.7,3.8-0.5,5.5-1.6c2.3-1.5,2.7-3.5,1.7-5.3
					C1737.7,838.4,1731.3,831.4,1731.3,822.9z"/>
			</g>
			<g>
				<polygon class="st1" points="1745.3,851.2 1673.5,878.8 1675.5,884.2 1745.3,857.4 				"/>
			</g>
			<g>
				<path class="st2" d="M1654.6,890.3v89.4c0,7.2,5.9,13.1,13.1,13.1h77.9h79.2c6.5,0,11.8-5.3,11.8-11.8v-92
					c0-6.5-5.3-11.8-11.8-11.8h-79.2h-77.9C1660.4,877.2,1654.6,883,1654.6,890.3z M1816.1,887.2h9.2v95.6h-9.2V887.2z
					 M1797.3,887.2h9.2v95.6h-9.2V887.2z M1778.5,887.2h9.2v95.6h-9.2V887.2z M1759.7,887.2h9.2v95.6h-9.2V887.2z M1741,887.2h4.6
					h4.6v95.6h-4.6h-4.6V887.2z M1722.2,887.2h9.2v95.6h-9.2V887.2z M1703.4,887.2h9.2v95.6h-9.2V887.2z M1684.6,887.2h9.2v95.6
					h-9.2V887.2z M1665.8,887.2h9.2v95.6h-9.2V887.2z"/>
				<g>
					<rect x="1816.1" y="887.2" class="st3" width="9.2" height="95.6"/>
					<rect x="1797.3" y="887.2" class="st3" width="9.2" height="95.6"/>
					<rect x="1778.5" y="887.2" class="st3" width="9.2" height="95.6"/>
					<rect x="1759.7" y="887.2" class="st3" width="9.2" height="95.6"/>
					<polygon class="st3" points="1750.2,887.2 1750.2,982.8 1745.6,982.8 1741,982.8 1741,887.2 1745.6,887.2 					"/>
					<rect x="1722.2" y="887.2" class="st3" width="9.2" height="95.6"/>
					<rect x="1703.4" y="887.2" class="st3" width="9.2" height="95.6"/>
					<rect x="1684.6" y="887.2" class="st3" width="9.2" height="95.6"/>
					<rect x="1665.8" y="887.2" class="st3" width="9.2" height="95.6"/>
				</g>
			</g>
		</g>
	</g>
	<g id="_x31_2_1_">
		<g>
			<g>
				<path class="st4" d="M1344.4,503.8v211.3h10v-35.9l22.8,29.2v6.7h10V503.8h107.6v63h-1.5v13.8h4.8c0.1,0.9,0.1,1.6,0.1,1.6
					c-2.8,2.8-5.7,6.3-4.7,11.5c0.7,4.1,3.5,6.7,6.4,7.1c2.8,0.4,7.1-0.7,7.5-5.6c0.1-1-0.2-1.8-0.8-2.3c0.1,0.1-0.1,1-0.1,1.1
					c-0.5,2.1-3,3-4.3,3c-2.4,0.1-4.8-1.3-4.8-7.3c0-3.2,3.5-4.3,3.5-4.3l0.1-4.8h6.9v-13.8h-1v-63h3.4c0-0.5,0.1-1,0.1-1.5
					c0-7.7-5.6-13.9-12.5-12.9h-2.4l-122.1-62.1c-0.6-5.1-4-9-8.3-9h-0.3c-4.6,0-8.4,4.7-8.4,10.5v4.6l-53.2,58l0.3,0.4
					c-2.8,2.4-4.5,6.2-4.5,10.5c0,0.5,0,1,0.1,1.5H1344.4z M1496.9,503.8h8v63h-8V503.8z M1377.2,697.6l-20.2-25.9h20.2V697.6z
					 M1377.2,664h-22.8v-35.3l22.8,29.2V664z M1377.2,646.9l-22.8-29.2v-4h22.8V646.9z M1354.5,606.1v-27.6l21.5,27.6H1354.5z
					 M1377.2,596.8l-22.8-29.2V563h22.8V596.8z M1377.2,555.2h-22.8V520l22.8,29.2V555.2z M1377.2,538.2l-16.9-21.7h16.9V538.2z
					 M1373.6,430.1l116.6,59.4h-107.9V481h-8.7V430.1z M1377.2,503.8v5h-22.8v-5H1377.2z M1356.5,436.7V481h-8.7v8.4h-36.2
					c-1.2-0.2-2.4-0.1-3.6,0.1L1356.5,436.7z"/>
			</g>
			<g>
				<rect x="1299" y="508.1" class="st5" width="36.7" height="22"/>
			</g>
		</g>
		<path class="st5" d="M1193.5,709.4v108.4h278.1V709.4c0-19.7-16-35.7-35.6-35.7h-206.8C1209.4,673.8,1193.5,689.7,1193.5,709.4z"
			/>
		<path class="st6" d="M1440.9,674.8c-0.1-2.6-0.3-5.1-0.8-7.6c-1.5-8.4-5.3-16.1-10.5-22.2c-8.1-9.9-19.8-16.2-31.8-16.2h-121.4
			c-16.3,0-30.1,6.2-39.1,16.2c-5.7,6.1-9.6,13.8-11.2,22.2c-0.5,2.5-0.7,5-0.8,7.6H1440.9z"/>
		<g>
			<path class="st7" d="M1382.5,691.2c-7.7,0-14,3.5-14,7.9v13c0,4.3,6.3,7.9,14,7.9s14-3.5,14-7.9v-13
				C1396.5,694.7,1390.2,691.2,1382.5,691.2z"/>
			<path class="st7" d="M1430.7,691.2c-7.7,0-14,3.5-14,7.9v13c0,4.3,6.3,7.9,14,7.9s14-3.5,14-7.9v-13
				C1444.7,694.7,1438.4,691.2,1430.7,691.2z"/>
			<path class="st7" d="M1237.9,691.2c-7.7,0-14,3.5-14,7.9v13c0,4.3,6.3,7.9,14,7.9s14-3.5,14-7.9v-13
				C1251.9,694.7,1245.6,691.2,1237.9,691.2z"/>
			<path class="st7" d="M1286.1,691.2c-7.7,0-14,3.5-14,7.9v13c0,4.3,6.3,7.9,14,7.9s14-3.5,14-7.9v-13
				C1300.1,694.7,1293.8,691.2,1286.1,691.2z"/>
			<path class="st7" d="M1334.3,691.2c-7.7,0-14,3.5-14,7.9v13c0,4.3,6.3,7.9,14,7.9s14-3.5,14-7.9v-13
				C1348.3,694.7,1342,691.2,1334.3,691.2z"/>
		</g>
		<g>
			<g>
				<rect x="1267.3" y="610.8" class="st5" width="44.6" height="22.1"/>
			</g>
			<g>
				<rect x="1267.3" y="588.8" class="st8" width="44.6" height="22.1"/>
			</g>
			<g>
				<rect x="1267.3" y="566.7" class="st5" width="44.6" height="22.1"/>
			</g>
			<g>
				<rect x="1267.3" y="544.7" class="st8" width="44.6" height="22.1"/>
			</g>
		</g>
		<path class="st9" d="M1333.8,713.9l-248.7,101.5c-10.9,4.4-12.2,19.3-2.3,25.5c28.8,18,75.6,55.3,109.2,122.3h141.8V713.9z"/>
		<path class="st10" d="M1192.1,963.2c10.2,20.4,19.3,43.5,26.2,69.6h115.6v-69.6L1192.1,963.2L1192.1,963.2z"/>
		<path class="st11" d="M1582.6,815.4l-248.7-101.5v249.4h141.8c33.6-67,80.4-104.3,109.2-122.3
			C1594.8,834.7,1593.4,819.8,1582.6,815.4z"/>
		<path class="st12" d="M1333.8,963.2v69.6h115.6c6.9-26.2,16-49.2,26.2-69.6L1333.8,963.2L1333.8,963.2z"/>
		<g>
			<path class="st13" d="M1317.4,796.3c0,10.6-6.6,19.1-14.7,19.1s-14.7-8.6-14.7-19.1c0-10.6,6.6-19.1,14.7-19.1
				S1317.4,785.7,1317.4,796.3z"/>
			<path class="st13" d="M1383.9,796.3c0,10.6-6.6,19.1-14.7,19.1s-14.7-8.6-14.7-19.1c0-10.6,6.6-19.1,14.7-19.1
				C1377.4,777.2,1383.9,785.7,1383.9,796.3z"/>
		</g>
		<g>
			<g>
				<path class="st14" d="M1262.8,804.9C1262.8,804.9,1262.7,804.9,1262.8,804.9c-4.1,0.2-7.3,3.6-7.2,7.6c0.1,4.1,3.5,7.3,7.5,7.2
					h0.1c4.1-0.1,7.3-3.5,7.2-7.6C1270.3,808,1266.9,804.8,1262.8,804.9z"/>
			</g>
			<g>
				<polygon class="st14" points="1263.4,832.2 1263.4,832.2 1263.3,827.6 				"/>
			</g>
			<path class="st15" d="M1321.5,898.9c0.6,0,0.9-0.7,0.5-1.2l-20.2-24c-0.4-0.5-1.2-0.3-1.2,0.4c-0.6,4.8-1.6,10.3-3.5,16.4
				c-1.2,3.7-3.2,9.4-4.7,13c-0.3,0.6,0.3,1.2,0.9,1c0.8-0.3,1.9-0.5,3.1-0.9l0,0c1.7-0.4,3.6-0.9,5.8-1.4c-0.2,1.1-0.5,2.2-1,3.3
				c-1.3,2.6-3.9,5.1-8.7,7.2c-3.6,1.5-18.4,3.6-19.9-5.5c-2.4-15-2.3-33.8-1.3-48.1c0.8-10.3,9.8-18.9,20.1-19.2h1.3l-0.2-8.5
				l-13,0.4c-4.1,0.1-7.6-3.2-7.7-7.3l-0.1-2.1c2.9-2.5,4.7-6.2,4.6-10.3c-0.2-7.3-6.3-13.1-13.6-12.9h-0.1
				c-7.3,0.2-13,6.3-12.8,13.6c0.1,4.1,2.1,7.7,5.1,10l0.1,2.1c0.1,4.1-3.2,7.6-7.3,7.7l-13,0.3l0.2,8.5h1.3
				c10.3-0.3,19.7,7.9,21.1,18.1c1.8,14.2,2.9,33,1.3,48.1c-1,9.1-15.9,7.9-19.6,6.5c-4.9-1.8-7.6-4.2-9.1-6.6
				c-0.7-1.1-1-2.2-1.2-3.3c0.3,0,0.6,0.1,0.9,0.1c0.3,0.1,0.7,0.1,1,0.2c0.2,0,0.5,0.1,0.7,0.1c2.6,0.5,4.8,0.9,6.3,1.3
				c0.6,0.1,1.1-0.5,0.8-1c-1.7-3.5-4-9.1-5.4-12.8c-2.2-5.9-3.5-11.4-4.3-16.1c-0.1-0.6-0.9-0.8-1.3-0.3l-18.8,25.1
				c-0.4,0.5,0,1.2,0.6,1.2c2,0,5.1,0.2,8.6,0.6c0.3,0,0.5,0.1,0.8,0.1c0,0.9-0.1,1.8,0,2.7c0.1,5.7,1.6,11.1,5.6,15.7
				c6.8,8,16.7,9.2,25.5,13.9c5.9,3.1,11.9,8.1,17,12.4c4.9-4.6,10.6-9.8,16.3-13.3c8.5-5.1,18.4-6.9,24.7-15.2
				c3.7-4.8,4.9-10.4,4.7-16.1c0-0.9-0.1-1.7-0.2-2.6c0.1,0,0.3,0,0.4-0.1C1316.2,899.4,1319.4,899,1321.5,898.9z M1263.2,819.8
				C1263.2,819.8,1263.1,819.8,1263.2,819.8c-4.2,0.1-7.5-3.2-7.6-7.2c-0.1-4.1,3.1-7.5,7.1-7.6h0.1c4.1-0.1,7.5,3.1,7.6,7.2
				C1270.5,816.2,1267.3,819.7,1263.2,819.8z"/>
		</g>
		<g>
			<path class="st7" d="M1327.8,645v22.2H1226c1.6-8.4,5.5-16.1,11.2-22.2H1327.8z"/>
			<path class="st7" d="M1440.1,667.2h-99.6V645h89.1C1434.9,651.1,1438.6,658.8,1440.1,667.2z"/>
		</g>
		<g>
			<path class="st16" d="M1262.9,818.3c-1.1,0-2.3-0.3-3.3-1c-2.8-1.8-3.6-5.4-1.9-8.2c1.1-1.7,11.2-16.6,44.5-18.9
				c3.3-0.3,6.2,2.3,6.5,5.6c0.2,3.3-2.3,6.2-5.6,6.5c-27,1.9-35,13.2-35.1,13.3C1266.9,817.4,1264.9,818.3,1262.9,818.3z"/>
		</g>
	</g>
	<path id="_x31_8_1_" class="st0" d="M1246.4,471.6c-3,0-5.9,0.2-8.7,0.5c-7.5-13-26.3-22.2-48.3-22.2c-16.8,0-31.6,5.4-41.1,13.7
		c-5.2-1.6-10.9-2.4-16.9-2.4c-20.7,0-37.9,10.2-40.9,23.6c-0.2,0-0.4,0-0.5,0c-22.9,0-41.5,12.5-41.5,27.8
		c0,15.4,18.6,27.8,41.5,27.8c20.7,0,134.4,0.9,156.5,0.9c28.6,0,51.8-15.6,51.8-34.8C1298.2,487.2,1275,471.6,1246.4,471.6z"/>
	<path id="_x31_8_5_" class="st0" d="M658.5,498.6c-2.2,0-4.3,0.2-6.3,0.5c-5.5-13-19.1-22.2-35.2-22.2c-12.2,0-23,5.4-29.9,13.7
		c-3.8-1.6-7.9-2.4-12.3-2.4c-15.1,0-27.6,10.2-29.8,23.6c-0.1,0-0.3,0-0.4,0c-16.7,0-30.2,12.5-30.2,27.8
		c0,15.4,13.5,27.8,30.2,27.8c15.1,0,97.9,0.9,113.9,0.9c20.8,0,37.7-15.6,37.7-34.8C696.2,514.2,679.3,498.6,658.5,498.6z"/>
	<g id="_x31_0">
		<g>
			<path class="st17" d="M1192.6,1149.6c-1.1,0-2.2-0.3-3.1-0.8l-54.1-31.3c-2.1-1.2-2.5-3.5-0.8-5s4.8-1.8,6.9-0.6l54.1,31.3
				c2.1,1.2,2.5,3.5,0.8,5C1195.5,1149.1,1194.1,1149.6,1192.6,1149.6z"/>
		</g>
		<g>
			<g>
				<g>
					<path class="st18" d="M674.6,1071.2L674.6,1071.2c0,9.7-7.8,17.5-17.5,17.5H459.8v-35h197.3
						C666.8,1053.7,674.6,1061.5,674.6,1071.2z"/>
				</g>
				<g>
					<rect x="541.6" y="958.1" class="st18" width="101.2" height="35"/>
				</g>
				<g>
					<rect x="575.5" y="884.5" class="st18" width="35" height="275.5"/>
				</g>
				<g>
					<path class="st18" d="M470.6,1170.8H662c0.9,0,1.6-0.7,1.6-1.6v-42.1c0-0.9-0.7-1.6-1.6-1.6H470.6c-0.9,0-1.6,0.7-1.6,1.6v42.1
						C469.1,1170.1,469.8,1170.8,470.6,1170.8z"/>
				</g>
				<g>
					<path class="st17" d="M779.4,1385.9v8.3c0,7.5-6.1,13.6-13.6,13.6h-6.5v31c0,8.1-6.5,14.6-14.6,14.6h-38.2
						c-8.1,0-14.6-6.5-14.6-14.6v-31H566.6H441.2v31c0,8.1-6.5,14.6-14.6,14.6h-38.2c-8.1,0-14.6-6.5-14.6-14.6v-31h-6.5
						c-7.5,0-13.6-6.1-13.6-13.6v-8.3H779.4z"/>
					<path class="st5" d="M765.8,1362.5l-80-158.5l-12.1,6.1l63.3,125.5l-170.5-138.9L396,1335.6l63.3-125.5l-12.1-6.1l-80,158.5
						c-7.5,0-13.6,6.1-13.6,13.6v9.8h425.6v-9.8C779.4,1368.6,773.3,1362.5,765.8,1362.5z M557.9,1221.3v141.2H384.6L557.9,1221.3z
						 M575.3,1362.5v-141.2l173.3,141.2H575.3z"/>
				</g>
				<g>
					<path class="st5" d="M457.5,1046.5c0-20.1,16.3-36.5,36.5-36.5h94.1c20.1,0,36.5,16.3,36.5,36.5v23.6h-167L457.5,1046.5
						L457.5,1046.5z"/>
					<path class="st17" d="M624.5,1070.1v19c0,20.1-16.3,36.5-36.5,36.5h-94c-20.1,0-36.5-16.3-36.5-36.5v-19H624.5z"/>
				</g>
				<g>
					<g>
						<polygon class="st18" points="648.8,1078 747.2,971.6 985.1,644.9 968.9,634.2 708,930.8 639,1059.9 						"/>
					</g>
					<g>
						<polygon class="st18" points="875.7,600.8 577,884.4 591.8,902 895.9,608 						"/>
					</g>
					<g>
						<polygon class="st18" points="602.5,891.2 817.8,845.7 812,700.5 971.3,640.6 966.5,627.9 798,691.2 803.8,834.8 599.7,877.9 
													"/>
					</g>
					<g>
						<rect x="1128.8" y="766.5" class="st19" width="9.1" height="311.5"/>
					</g>
					<g>
						<path class="st18" d="M1133.3,766.5l8.3-12.8L991.5,603l-91.9-25.7l-40.8,12.8c-1.9,0.6-2.3,3.2-0.5,4.3L1133.3,766.5z"/>
					</g>
					<g>
						<path class="st18" d="M1119.7,759.4c0,7.5,6.1,13.6,13.6,13.6s13.6-6.1,13.6-13.6s-6.1-13.6-13.6-13.6
							S1119.7,751.8,1119.7,759.4z"/>
					</g>
				</g>
				<g>
					<rect x="442" y="884.5" class="st18" width="243.1" height="35"/>
				</g>
				<g>
					<path class="st5" d="M442.6,1170.8h247.3c11.2,0,20.4,8.1,22.3,18.8H420.4C422.2,1179,431.4,1170.8,442.6,1170.8z"/>
					<path class="st17" d="M712.2,1189.6c0.2,1.3,0.4,2.5,0.4,3.8c0,12.5-10.1,22.6-22.6,22.6H442.6c-12.5,0-22.6-10.1-22.6-22.6
						c0-1.3,0.2-2.6,0.4-3.8H712.2z"/>
				</g>
			</g>
			<path class="st18" d="M1116.8,973.4h33c11.4,0,20.7,9.3,20.7,20.7v53.4c0,11.4-9.3,20.7-20.7,20.7h-33
				c-11.4,0-20.7-9.3-20.7-20.7v-53.4C1096.1,982.7,1105.4,973.4,1116.8,973.4z"/>
			<g>
				<path class="st18" d="M1155.1,1118c2.8-9.4-1-22.5-10.7-25.7l-0.8,5.9c5.7,2.9,2.5,30.9-15.9,28.4c-7.1-1-14.8-7.1-14.8-18.2
					c-0.2-21.8,19.4-16.6,24.3-30.8c0.5-1.5,1.7-13,1.1-13H1127v1.6c0,5.1-2.8,9.9-7.4,12c-9.2,4.1-18.2,13.1-18,30.4
					C1101.9,1141.4,1145.7,1149.8,1155.1,1118z"/>
			</g>
			<path class="st18" d="M446.9,863.3H489c8.9,0,16.1,7.2,16.1,16.1v40.2c0,8.9-7.2,16.1-16.1,16.1h-42.1c-8.9,0-16.1-7.2-16.1-16.1
				v-40.2C430.8,870.5,438,863.3,446.9,863.3z"/>
		</g>
		<g>
			<path class="st5" d="M2233.7,1479.5v-98.2c0-32-30.2-58-67.4-58h-606.9v156.2H2233.7z"/>
		</g>
		<g>
			<path class="st11" d="M862.3,1483.3l-93.7-90.2H298.4L471,1700.5l1710.8-3.4c202-72.3,275.6-213.8,275.6-213.8L862.3,1483.3
				L862.3,1483.3z"/>
		</g>
		<g>
			<path class="st12" d="M2181.8,1697.1L471,1700.5c0,0,14.3,22.1,31.9,47.6h1650.7C2159.2,1729.5,2177.4,1705.6,2181.8,1697.1z"/>
		</g>
		<g>
			<path class="st11" d="M498.2,1865.3h1671c-9.1-34.2-15.8-67-19.5-93.2c1.1-7.4,2.4-15.5,3.9-23.9H502.9
				C516.8,1796.8,509.5,1834.9,498.2,1865.3z"/>
		</g>
		<g>
			<g>
				<path class="st7" d="M1743,1368.2h-13.7c-10.1,0-18.3,8.2-18.3,18.3v36.8c0,10.1,8.2,18.3,18.3,18.3h13.7
					c10.1,0,18.3-8.2,18.3-18.3v-36.8C1761.4,1376.4,1753.2,1368.2,1743,1368.2z"/>
			</g>
			<g>
				<path class="st7" d="M1841.7,1368.2H1828c-10.1,0-18.3,8.2-18.3,18.3v36.8c0,10.1,8.2,18.3,18.3,18.3h13.7
					c10.1,0,18.3-8.2,18.3-18.3v-36.8C1860,1376.4,1851.8,1368.2,1841.7,1368.2z"/>
			</g>
			<g>
				<path class="st7" d="M1940.3,1368.2h-13.7c-10.1,0-18.3,8.2-18.3,18.3v36.8c0,10.1,8.2,18.3,18.3,18.3h13.7
					c10.1,0,18.3-8.2,18.3-18.3v-36.8C1958.6,1376.4,1950.4,1368.2,1940.3,1368.2z"/>
			</g>
			<g>
				<path class="st7" d="M2039,1368.2h-13.7c-10.1,0-18.3,8.2-18.3,18.3v36.8c0,10.1,8.2,18.3,18.3,18.3h13.7
					c10.1,0,18.3-8.2,18.3-18.3v-36.8C2057.3,1376.4,2049.1,1368.2,2039,1368.2z"/>
			</g>
			<g>
				<path class="st7" d="M2137.6,1368.2h-13.7c-10.1,0-18.3,8.2-18.3,18.3v36.8c0,10.1,8.2,18.3,18.3,18.3h13.7
					c10.1,0,18.3-8.2,18.3-18.3v-36.8C2155.9,1376.4,2147.7,1368.2,2137.6,1368.2z"/>
			</g>
		</g>
		<g>
			<path class="st18" d="M1647,1368.2h-29.5c-10.5,0-19,8.5-19,18.9v92.9h67.4v-92.9C1665.9,1376.7,1657.5,1368.2,1647,1368.2z"/>
		</g>
		<g>
			<polygon class="st5" points="2032.1,1257.2 2032.1,1258.2 1559.4,1258.2 1559.4,1169.5 1944.3,1169.5 			"/>
		</g>
		<g>
			<rect x="1559.4" y="1258.2" class="st18" width="472.6" height="65.1"/>
		</g>
		<g>
			<rect x="1578.4" y="1186" class="st7" width="144.4" height="56.8"/>
		</g>
		<g>
			<rect x="1752.2" y="1186" class="st7" width="144.4" height="56.8"/>
		</g>
		<g>
			<polygon class="st7" points="2017.7,1242.8 1922.6,1242.8 1922.6,1186 1960.9,1186 			"/>
		</g>
		<g>
			<polygon class="st5" points="1753.3,1171.9 1691.8,1110.3 1559.4,1110.3 1559.4,1171.9 			"/>
		</g>
		<g>
			<rect x="1559.4" y="1082.2" class="st5" width="56.8" height="28.1"/>
		</g>
		<g>
			<rect x="1559.4" y="1054.1" class="st8" width="56.8" height="28.1"/>
		</g>
		<g>
			<rect x="1559.4" y="1026" class="st5" width="56.8" height="28.1"/>
		</g>
		<g>
			<g>
				<path class="st5" d="M471,1467.7c0,14.4-11.6,26-26,26s-26-11.6-26-26s11.6-26,26-26S471,1453.3,471,1467.7z"/>
			</g>
			<g>
				<path class="st5" d="M564.6,1467.7c0,14.4-11.6,26-26,26s-26-11.6-26-26s11.6-26,26-26S564.6,1453.3,564.6,1467.7z"/>
			</g>
			<g>
				<path class="st5" d="M658.2,1467.7c0,14.4-11.6,26-26,26s-26-11.6-26-26s11.6-26,26-26C646.6,1441.7,658.2,1453.3,658.2,1467.7z
					"/>
			</g>
		</g>
		<g>
			<g>
				<rect x="940.4" y="1404.1" class="st20" width="206.1" height="78.4"/>
			</g>
			<g>
				<rect x="1146.7" y="1404.1" class="st21" width="206.1" height="78.4"/>
			</g>
			<g>
				<rect x="1352.9" y="1404.1" class="st20" width="206.1" height="78.4"/>
			</g>
		</g>
		<g>
			<g>
				<rect x="1353" y="1323.3" class="st22" width="206.1" height="78.4"/>
			</g>
			<g>
				<rect x="1146.6" y="1323.3" class="st18" width="206.1" height="78.4"/>
			</g>
			<g>
				<rect x="940.4" y="1323.3" class="st22" width="206.1" height="78.4"/>
			</g>
		</g>
		<g>
			<rect x="1025.8" y="1141.1" class="st12" width="206.1" height="78.4"/>
		</g>
		<g>
			<g>
				<rect x="940.4" y="1242.8" class="st18" width="206.1" height="78.4"/>
			</g>
			<g>
				<rect x="1352.9" y="1164.4" class="st21" width="206.1" height="78.4"/>
			</g>
			<g>
				<rect x="1146.7" y="1242.8" class="st21" width="206.1" height="78.4"/>
			</g>
			<g>
				<rect x="1352.9" y="1242.8" class="st12" width="206.1" height="78.4"/>
			</g>
		</g>
		<g>
			<path class="st17" d="M1078.3,1142.4c-1.4,0-2.7-0.4-3.6-1.1c-1.6-1.3-1.3-3.2,0.7-4.2l60.6-31.2c2-1,4.9-0.8,6.5,0.5
				s1.3,3.2-0.7,4.2l-60.6,31.2C1080.3,1142.2,1079.3,1142.4,1078.3,1142.4z"/>
		</g>
	</g>
	<g id="_x34_">
		<g>
			<path class="st23" d="M684.8,1556.2v407.6c-17.8-15.7-38.4-33.7-59-45.4c-30.7-17.4-65.6-22.6-89-51.5
				c-13.4-16.6-18.3-36-18.2-56.2c0-3.1,0.2-6.3,0.4-9.4c-1-0.1-1.9-0.3-2.9-0.4c-12.3-1.8-23.3-3-30.3-3c-2.2,0-3.3-2.5-2-4.3
				l69-86.9c1.4-1.8,4.2-1,4.5,1.2c2.4,16.8,6.6,36.4,13.8,57.5c4.5,13.1,12.2,33,18,45.7c0.9,2-0.9,4.2-3.1,3.6
				c-5.2-1.5-13-3.3-22-5.2c-0.8-0.1-1.7-0.3-2.6-0.5c-1.1-0.2-2.3-0.5-3.5-0.7c-1.1-0.2-2.2-0.4-3.3-0.6c0.6,3.9,1.9,7.9,4.1,11.8
				c4.9,8.8,14.3,17.4,31.5,24.4c12.7,5.1,65.5,11,69.8-21.3c7.1-53.3,5-119.7,0-170.2c-3.7-36.3-36.5-66-72.8-66h-4.7v-30.1h45.9
				c14.7,0,26.5-11.9,26.6-26.6v-10.4h29.2v37L684.8,1556.2L684.8,1556.2z"/>
			<path class="st24" d="M883.6,1797.8c-7.2,0-18.8,1.3-31.6,3.2c-0.5,0-1,0.1-1.5,0.2c0.2,3.1,0.3,6.1,0.4,9.1
				c0.2,20.3-4.7,39.8-18.1,56.6c-23.3,29-58.3,34.1-89,51.5c-20.6,11.6-41.2,29.7-59,45.4l-0.5-407.6v-16v-21h30.2v10.4
				c0.1,14.7,12,26.6,26.7,26.6h45.9v30.1h-4.7c-36.3,0-69.2,29.6-72.8,66c-5.1,50.5-7.2,116.9,0,170.2
				c4.3,32.2,57.1,26.4,69.8,21.3c17.5-7.1,26.9-15.8,31.6-24.7c2.1-3.8,3.3-7.7,3.9-11.5c-7.5,1.5-14.6,3-20.5,4.4v0.1
				c-4.3,1-8.1,1.9-11,2.7c-2.1,0.6-4-1.6-3.1-3.6c5.8-12.7,13.5-32.6,17.9-45.7c7.3-21.1,11.4-40.8,13.8-57.5
				c0.3-2.2,3.1-2.9,4.4-1.2l69,86.9C887,1795.3,885.8,1797.8,883.6,1797.8z"/>
		</g>
		<path class="st25" d="M655.1,1521.2v8.4c8,6.5,18.1,10.5,29.2,10.6h0.2v-19H655.1z"/>
		<path class="st19" d="M684.5,1521.2v19h0.3c11.3,0,21.6-4,29.7-10.6v-8.4H684.5z"/>
		<g>
			<path class="st23" d="M658.5,1486.1c0-14.4,11.6-26.1,26-26.3v-20.6c-25.7,0.2-46.6,21.1-46.6,46.9s20.8,46.7,46.6,46.9v-20.6
				C670.1,1512.1,658.5,1500.5,658.5,1486.1z"/>
			<path class="st24" d="M684.8,1439.2c-0.1,0-0.2,0-0.3,0v20.6c0.1,0,0.2,0,0.3,0c14.5,0,26.3,11.8,26.3,26.3s-11.8,26.3-26.3,26.3
				c-0.1,0-0.2,0-0.3,0v20.6c0.1,0,0.2,0,0.3,0c25.9,0,46.9-21,46.9-46.9S710.7,1439.2,684.8,1439.2z"/>
		</g>
		<path class="st25" d="M518.7,1810.6c0-3.1,0.2-6.3,0.4-9.4c-1-0.1-1.9-0.3-2.9-0.4v-0.2c0,0,23.9,3.9,41.7,7.6
			c-1.1-0.2-2.2-0.4-3.3-0.6c0.6,3.9,1.9,7.9,4.1,11.8L518.7,1810.6z"/>
		<path class="st19" d="M850.5,1801.2c0.2,3.1,0.3,6.1,0.4,9.1L811,1819c2.1-3.8,3.3-7.7,3.9-11.5c-7.5,1.5-14.6,3-20.5,4.4
			c12.9-4,57.4-11.3,57.4-11.3l0.1,0.4C851.5,1801.1,851,1801.1,850.5,1801.2z"/>
	</g>
</g>
<rect x="4199.6" y="910.7" class="st11" width="1918.6" height="1918.6"/>
<rect x="3348.4" y="1126.6" class="st12" width="656" height="656"/>
</svg>