<?xml version="1.0" encoding="utf-8"?>
<!-- Generator: Adobe Illustrator 25.2.0, SVG Export Plug-In . SVG Version: 6.00 Build 0)  -->
<svg version="1.1" id="Layer_1" xmlns="http://www.w3.org/2000/svg" xmlns:xlink="http://www.w3.org/1999/xlink" x="0px" y="0px"
	 viewBox="0 0 48 48" style="enable-background:new 0 0 48 48;" xml:space="preserve">
<style type="text/css">
	.st0{fill:url(#SVGID_1_);}
	.st1{fill:url(#SVGID_2_);}
	.st2{fill:url(#SVGID_3_);}
	.st3{fill:url(#SVGID_4_);}
	.st4{fill:url(#SVGID_5_);}
	.st5{fill:url(#SVGID_6_);}
	.st6{fill:#A81E35;}
	.st7{fill:#11132E;}
</style>
<g>
	<g>
		<g>
			<linearGradient id="SVGID_1_" gradientUnits="userSpaceOnUse" x1="17.0024" y1="7.7273" x2="33.9071" y2="37.0071">
				<stop  offset="0" style="stop-color:#A81E35"/>
				<stop  offset="1" style="stop-color:#11132E"/>
			</linearGradient>
			<path class="st0" d="M38.8,12.2c-4.9-1.4-9.9-3.5-14.4-6.1c-0.2-0.1-0.5-0.1-0.8,0c-4.6,2.7-9.3,4.7-14.4,6.1
				c-0.3,0.1-0.6,0.4-0.6,0.7v7.7c0,8,3.7,13.2,6.7,16.2c3.3,3.2,7.2,5,8.6,5c1.4,0,5.3-1.8,8.6-5c3.1-3,6.7-8.3,6.7-16.2V13
				C39.3,12.6,39.1,12.3,38.8,12.2z M37.8,20.7c0,7.4-3.4,12.3-6.3,15.2c-3.3,3.2-6.7,4.6-7.5,4.6c-0.8,0-4.3-1.4-7.5-4.6
				c-2.9-2.8-6.3-7.7-6.3-15.2v-7.1c4.9-1.4,9.4-3.3,13.8-5.9c4.3,2.5,9.1,4.5,13.8,5.9V20.7z"/>
			<linearGradient id="SVGID_2_" gradientUnits="userSpaceOnUse" x1="13.3012" y1="13.8316" x2="15.3208" y2="17.3296">
				<stop  offset="0" style="stop-color:#A81E35"/>
				<stop  offset="1" style="stop-color:#11132E"/>
			</linearGradient>
			<path class="st1" d="M17.3,13.5c-0.2-0.4-0.6-0.6-1-0.4c-1.4,0.5-2.7,1-4.1,1.5c-0.3,0.1-0.5,0.4-0.5,0.7v2.9
				c0,0.4,0.3,0.8,0.8,0.8c0.4,0,0.8-0.3,0.8-0.8v-2.4c1.2-0.4,2.5-0.8,3.7-1.3C17.3,14.3,17.5,13.8,17.3,13.5z"/>
			<linearGradient id="SVGID_3_" gradientUnits="userSpaceOnUse" x1="18.3637" y1="12.1876" x2="19.1206" y2="13.4985">
				<stop  offset="0" style="stop-color:#A81E35"/>
				<stop  offset="1" style="stop-color:#11132E"/>
			</linearGradient>
			<path class="st2" d="M18.7,13.6c0.1,0,0.2,0,0.3-0.1l0,0c0.4-0.2,0.6-0.6,0.4-1c-0.2-0.4-0.6-0.6-1-0.4l0,0
				c-0.4,0.2-0.6,0.6-0.4,1C18.2,13.4,18.4,13.6,18.7,13.6z"/>
			<linearGradient id="SVGID_4_" gradientUnits="userSpaceOnUse" x1="29.4751" y1="31.9646" x2="31.1934" y2="34.9409">
				<stop  offset="0" style="stop-color:#A81E35"/>
				<stop  offset="1" style="stop-color:#11132E"/>
			</linearGradient>
			<path class="st3" d="M33,30.4c-0.3-0.2-0.8-0.1-1,0.2c-0.6,1-1.4,1.9-2.2,2.7c-0.7,0.7-1.4,1.3-2.2,1.9c-0.3,0.3-0.4,0.7-0.1,1.1
				c0.1,0.2,0.4,0.3,0.6,0.3c0.2,0,0.3-0.1,0.5-0.2c0.8-0.6,1.6-1.3,2.3-2.1c0.9-0.9,1.7-1.9,2.4-2.9C33.5,31.1,33.4,30.6,33,30.4z"
				/>
			<linearGradient id="SVGID_5_" gradientUnits="userSpaceOnUse" x1="25.8443" y1="36.4628" x2="26.6002" y2="37.7721">
				<stop  offset="0" style="stop-color:#A81E35"/>
				<stop  offset="1" style="stop-color:#11132E"/>
			</linearGradient>
			<path class="st4" d="M25.9,36.5L25.9,36.5c-0.4,0.2-0.5,0.7-0.3,1.1c0.1,0.2,0.4,0.4,0.7,0.4c0.1,0,0.3,0,0.4-0.1l0.1,0
				c0.4-0.2,0.5-0.7,0.3-1C26.7,36.4,26.2,36.2,25.9,36.5z"/>
			<linearGradient id="SVGID_6_" gradientUnits="userSpaceOnUse" x1="22.0994" y1="18.4763" x2="27.606" y2="28.014">
				<stop  offset="0" style="stop-color:#A81E35"/>
				<stop  offset="1" style="stop-color:#11132E"/>
			</linearGradient>
			<path class="st5" d="M18.8,22.5c-0.5-0.5-1.1-0.7-1.7-0.7c-0.7,0-1.3,0.3-1.7,0.7c-1,1-1,2.5,0,3.5l4.5,4.5
				c0.5,0.5,1.1,0.7,1.7,0.7s1.3-0.3,1.7-0.7l9.3-9.3c1-1,1-2.5,0-3.5c-0.5-0.5-1.1-0.7-1.7-0.7c-0.7,0-1.3,0.3-1.7,0.7l-7.6,7.6
				L18.8,22.5z M30.2,18.7c0.2-0.2,0.4-0.3,0.7-0.3c0.3,0,0.5,0.1,0.7,0.3c0.4,0.4,0.4,1,0,1.3l-9.3,9.3c-0.2,0.2-0.4,0.3-0.7,0.3
				s-0.5-0.1-0.7-0.3l-4.5-4.5c-0.4-0.4-0.4-1,0-1.3c0.2-0.2,0.4-0.3,0.7-0.3s0.5,0.1,0.7,0.3l3.3,3.3c0.1,0.1,0.3,0.2,0.5,0.2
				s0.4-0.1,0.5-0.2L30.2,18.7z"/>
		</g>
	</g>
</g>
<rect x="-13.6" y="13.6" class="st6" width="5.7" height="5.7"/>
<rect x="-13.6" y="21.6" class="st7" width="5.7" height="5.7"/>
</svg>