<?xml version="1.0" encoding="utf-8"?>
<!-- Generator: Adobe Illustrator 25.2.0, SVG Export Plug-In . SVG Version: 6.00 Build 0)  -->
<svg version="1.1" id="Layer_1" xmlns="http://www.w3.org/2000/svg" xmlns:xlink="http://www.w3.org/1999/xlink" x="0px" y="0px"
	 viewBox="0 0 1600 600" style="enable-background:new 0 0 1600 600;" xml:space="preserve">
<style type="text/css">
	.st0{opacity:0.2;fill:#B0AFFD;}
	.st1{fill:#E1E1FE;}
	.st2{fill:#B0AFFD;}
	.st3{opacity:0.7;}
	.st4{fill:#9797EF;}
	.st5{fill:#8888E9;}
	.st6{fill:#777AB0;}
	.st7{fill:#0F112E;}
	.st8{fill:#FFFFFF;}
	.st9{fill:#EAEAEA;}
	.st10{fill:#A81D34;}
	.st11{opacity:0.5;fill:#B0AFFD;}
	.st12{opacity:0.3;fill:#B0AFFD;}
	.st13{opacity:0.5;}
	.st14{opacity:0.5;fill:#FFFFFF;}
	.st15{opacity:0.8;}
	.st16{fill:#CB7785;}
	.st17{fill:#DCA5AE;}
	.st18{fill:#FFC064;}
	.st19{fill:#AF835B;}
	.st20{fill:#EA8237;}
	.st21{fill:#E9A056;}
	.st22{fill:#D38C4C;}
	.st23{fill:#3D38A0;}
	.st24{fill:#B9C9EF;}
	.st25{opacity:0.5;fill:#8EB9BF;}
	.st26{fill:#A4A7CA;}
	.st27{fill:#0A0A0A;}
	.st28{fill:#FEFEFE;}
	.st29{fill:none;stroke:#FEFEFE;stroke-width:0.2537;stroke-miterlimit:10;}
	.st30{fill:#827CDC;}
	.st31{fill:#777AB0;stroke:#FEFEFE;stroke-width:0.1268;stroke-miterlimit:10;}
	.st32{fill:#173A2C;}
	.st33{fill:#81172B;}
	.st34{fill:none;stroke:#0A0A0A;stroke-width:0.2537;stroke-linecap:round;stroke-miterlimit:10;}
	.st35{fill:none;stroke:#FEFEFE;stroke-width:0.1268;stroke-miterlimit:10;}
	.st36{opacity:0.3;fill:#020202;}
	.st37{opacity:0.3;}
	.st38{fill:#020202;}
	.st39{opacity:0.5;fill:#020202;}
	.st40{fill:#5858C4;}
	.st41{fill:#D8826A;}
	.st42{fill:#5146AF;}
	.st43{fill:#ED9C80;}
	.st44{opacity:0.5;fill:#0F112E;}
	.st45{fill:#2C1E56;}
	.st46{fill:none;stroke:#FFC996;stroke-width:0.3896;stroke-miterlimit:10;}
	.st47{fill:#FFBFAE;}
	.st48{fill:#FF8A29;}
	.st49{fill:#F47211;}
	.st50{fill:none;stroke:#827CDC;stroke-miterlimit:10;}
	.st51{fill:none;stroke:#827CDC;stroke-width:0.4704;stroke-miterlimit:10;}
	.st52{fill:none;stroke:#D3BBF9;stroke-width:1.0936;stroke-linecap:round;stroke-linejoin:round;stroke-miterlimit:10;}
	.st53{opacity:0.9;}
	.st54{fill:none;stroke:#3D38A0;stroke-width:1.3579;stroke-linecap:round;stroke-linejoin:round;stroke-miterlimit:10;}
	.st55{fill:#927DDB;}
	.st56{opacity:0.3;fill:#827CDC;}
	.st57{enable-background:new    ;}
</style>
<g>
	<path class="st0" d="M1409.3,0c0,0-108.8-5.1-132.7,152.2c-13.4,59.4-59.1,143.3-152.3,160.8c-93.1,17.5-152.5,52.4-185.3,181.8
		c-10.2,26.2-45.3,108.4-131.7,103.1c342.9,0,790.3,0,790.3,0V0H1409.3z"/>
	<path class="st0" d="M0,598L0,0l188.3,0c0,0,108.8-5.1,132.7,152.2c13.4,59.4,76.7,103.6,152.3,160.8
		c82.4,62.3,539.8,182.5,593.8,284.9"/>
	<g>
		<path class="st1" d="M1561.4,465.7c0,3.8-90.2,6.8-201.5,6.8c-111.3,0-201.5-3.1-201.5-6.8s90.2-6.8,201.5-6.8
			C1471.1,458.8,1561.4,461.9,1561.4,465.7z"/>
		<path class="st1" d="M1400.2,496.4c0,2.7-78.7,4.9-175.8,4.9c-97.1,0-175.8-2.2-175.8-4.9c0-2.7,78.7-4.9,175.8-4.9
			C1321.5,491.5,1400.2,493.7,1400.2,496.4z"/>
		<path class="st2" d="M1458.6,414.7c0.1,0.2,0.1,0.5,0,0.6c0.1-0.4,0.2-0.8,0.2-1.3c1-3.4,2.1-6.6,3.5-9.8c0.3-0.6,0.6-1.3,0.9-1.9
			c1.5-0.6,5.2-0.9,6.2-1.2c2-0.7,4.6-1.4,6.2-2.7c0.7-0.6,2.4-2.5,1.5-3.5c-1-1.1-4.5,1.1-5.4,1.7c-1.9,1.3-3.6,2.8-5.6,3.8
			c-0.9,0.5-1.9,0.9-2.8,1.5c1.3-2.8,2.8-5.6,4.4-8.3c1.5-0.6,5.3-0.9,6.3-1.2c2-0.7,4.6-1.4,6.2-2.7c0.7-0.6,2.4-2.5,1.5-3.5
			c-1-1.1-4.5,1.1-5.4,1.7c-1.9,1.3-3.6,2.8-5.6,3.8c-0.9,0.5-1.9,0.8-2.7,1.4c1.8-2.8,3.7-5.5,5.8-8c1.5-1.7,3-3.4,4.7-5
			c1.8,0.1,4.2,0.5,5,0.5c2.1-0.1,4.8-0.1,6.8-1c0.8-0.4,2.9-1.8,2.3-2.9c-0.7-1.3-4.7-0.1-5.6,0.2c-2.2,0.7-4.2,1.7-6.4,2.2
			c-0.4,0.1-0.8,0.1-1.2,0.2c2.2-2.1,4.6-4,7.1-5.7c0.7,0.2,1.5,0.2,2.3,0.3c1.9,0.3,3.8,1,5.7,1.5c0.9,0.2,4.3,1,4.8-0.2
			c0.4-1-1.5-2.1-2.2-2.3c-1.7-0.6-4-0.5-5.8-0.4c-0.7,0-2.5,0.4-4,0.7c1.2-0.8,2.4-1.6,3.6-2.3c2-1.1,4-2.2,6.1-3.1
			c0.9,0.3,1.9,0.3,2.8,0.5c1.9,0.3,3.8,1,5.7,1.5c0.9,0.2,4.3,1,4.8-0.2c0.4-1-1.5-2.1-2.2-2.3c-1.7-0.6-4-0.5-5.8-0.4
			c-0.8,0-3.1,0.6-4.7,0.8c2.8-1.2,5.7-2.2,8.6-3c0.8,0.2,1.6,0.2,2.5,0.3c1.9,0.2,3.8,0.9,5.7,1.4c0.9,0.2,4.4,0.9,4.8-0.3
			c0.4-1-1.5-2.1-2.3-2.3c-1.7-0.6-4-0.4-5.8-0.3c-0.2,0-0.6,0.1-1.1,0.2c-1.6,0.1-3.1,0.4-4.7,0.7c-0.1,0-0.1,0-0.1-0.1
			c0,0,0.1,0,0.1,0.1c-2.1,0.4-4.2,0.9-6.3,1.6c0.6-0.5,1.1-1.1,1.6-1.7c1.4-1.4,3-2.4,4.5-3.6c0.7-0.6,3.4-2.9,2.7-3.9
			c-0.6-1-2.6-0.1-3.2,0.3c-1.5,1-2.8,2.9-3.8,4.4c-0.5,0.7-1.7,3.6-2.5,4.7c-1.9,0.6-3.8,1.4-5.6,2.3c0.7-0.6,1.1-1.5,1.7-2.2
			c1.1-1.6,2.6-2.8,3.9-4.3c0.6-0.7,2.9-3.3,2.1-4.3c-0.7-0.9-2.5,0.3-3.1,0.8c-1.3,1.2-2.3,3.3-3.1,4.9c-0.4,0.8-1.2,4.2-1.9,5.3
			c-0.7,0.4-1.5,0.7-2.2,1.1c-3,1.6-5.9,3.5-8.6,5.6c0.1-0.5,0.2-1.1,0.3-1.7c0.4-1.9,1.3-3.7,2-5.5c0.3-0.8,1.4-4.2,0.3-4.8
			c-1-0.5-2.2,1.3-2.5,2c-0.8,1.7-0.8,4-0.9,5.8c0,0.7,0.3,3.1,0.3,4.7c-2.6,2.1-5,4.3-7.2,6.8c0.2-0.6,0.4-1.3,0.6-1.8
			c0.5-1.4,1.1-2.9,1.8-4.3c1.1-2.2,2.3-4.2,3.9-6c0.8-0.9-0.1-2.4-1.2-2c0,0-0.1,0-0.1,0c-1.9,0.6-2.9,2.6-3.7,4.5
			c-0.6,1.4-3.8,9-2.7,11.3c-2.4,2.9-4.6,6-6.5,9.3c0.4-1.8,1.3-3.5,1.9-5.3c0.3-0.8,1.4-4.2,0.3-4.8c-1-0.5-2.2,1.3-2.5,2
			c-0.8,1.7-0.8,4-0.9,5.8c0,0.7,0.2,2.6,0.3,4.2c-1.4,2.7-2.7,5.4-3.8,8.3c0-0.4-0.1-0.8-0.1-1.1c-0.1-2,0.4-3.9,0.5-5.8
			c0.1-0.9,0.3-4.5-0.9-4.7c-1.1-0.3-1.8,1.8-1.9,2.5c-0.3,1.8,0.2,4.1,0.5,5.8c0.1,0.7,1.1,2.9,1.5,4.5c-0.8,2.2-1.5,4.4-2.1,6.6
			c-0.1-1.7,0.1-3.5,0.1-5.2c0-0.9-0.1-4.5-1.3-4.7c-1.1-0.2-1.7,1.9-1.7,2.7c-0.2,1.8,0.5,4,1,5.8c0.2,0.6,0.9,2.1,1.5,3.4
			c-1,4.2-5.2,8.2-5.5,12.5C1453.1,421.8,1457.6,418.4,1458.6,414.7z"/>
		<path class="st2" d="M1238.9,334.5c0,0.3,0.1,0.4,0.2,0.5c-0.3-0.3-0.5-0.7-0.6-1.1c-2.1-2.8-4.4-5.4-6.8-7.9
			c-0.5-0.5-1-1-1.5-1.5c-1.6,0-5.2,1-6.2,1.1c-2.1,0.1-4.8,0.3-6.8-0.3c-0.8-0.3-3.1-1.5-2.6-2.7c0.5-1.4,4.6-0.6,5.6-0.3
			c2.2,0.5,4.4,1.3,6.6,1.6c1,0.1,2.1,0.1,3.1,0.4c-2.2-2.2-4.6-4.2-7.1-6.1c-1.6,0-5.3,1-6.3,1.1c-2.1,0.1-4.8,0.3-6.8-0.3
			c-0.8-0.3-3.1-1.5-2.6-2.7c0.5-1.4,4.6-0.6,5.6-0.3c2.2,0.5,4.4,1.3,6.6,1.6c1,0.1,2.1,0.1,3.1,0.4c-2.6-2-5.4-3.8-8.3-5.4
			c-2-1.1-4-2.1-6.1-3c-1.6,0.7-3.8,2-4.6,2.2c-2,0.7-4.5,1.6-6.7,1.5c-0.9,0-3.4-0.6-3.2-1.9c0.1-1.5,4.3-1.8,5.3-1.8
			c2.3-0.1,4.6,0.1,6.8-0.2c0.4-0.1,0.8-0.1,1.2-0.2c-2.8-1.1-5.7-2.1-8.7-2.8c-0.6,0.4-1.4,0.7-2,1.1c-1.7,0.9-3.2,2.3-4.8,3.4
			c-0.7,0.5-3.7,2.5-4.5,1.6c-0.8-0.8,0.7-2.5,1.2-3c1.4-1.2,3.6-1.9,5.3-2.5c0.6-0.2,2.5-0.5,4-0.8c-1.4-0.3-2.8-0.6-4.2-0.9
			c-2.3-0.4-4.5-0.6-6.8-0.7c-0.7,0.6-1.6,1-2.5,1.4c-1.7,0.9-3.2,2.3-4.8,3.4c-0.7,0.5-3.7,2.5-4.5,1.6c-0.8-0.8,0.7-2.5,1.2-3
			c1.4-1.2,3.6-1.9,5.3-2.5c0.7-0.3,3.1-0.6,4.6-1c-3-0.1-6.1,0-9.1,0.3c-0.7,0.5-1.5,0.8-2.2,1.2c-1.7,0.9-3.2,2.2-4.8,3.3
			c-0.7,0.5-3.7,2.4-4.6,1.5c-0.7-0.8,0.7-2.5,1.3-3c1.4-1.2,3.6-1.8,5.3-2.4c0.2-0.1,0.6-0.2,1.1-0.2c1.5-0.4,3.1-0.8,4.6-1
			c0,0,0.1-0.1,0.1-0.1c0,0-0.1,0.1-0.1,0.1c2.1-0.4,4.3-0.6,6.4-0.7c-0.7-0.3-1.4-0.7-2.1-1c-1.8-0.8-3.7-1.1-5.5-1.8
			c-0.8-0.3-4.2-1.4-4-2.7c0.2-1.1,2.4-1,3.1-0.8c1.8,0.4,3.6,1.7,5.1,2.7c0.7,0.5,2.9,2.7,4.1,3.5c2-0.1,4-0.1,6.1,0.1
			c-0.8-0.4-1.6-1-2.4-1.5c-1.6-1.1-3.5-1.7-5.2-2.6c-0.8-0.4-3.9-2.1-3.5-3.3c0.4-1.1,2.5-0.6,3.2-0.3c1.7,0.7,3.3,2.3,4.7,3.5
			c0.7,0.6,2.6,3.5,3.7,4.2c0.8,0.1,1.6,0.1,2.5,0.2c3.4,0.4,6.7,1.1,10,2.1c-0.3-0.5-0.6-1-0.9-1.4c-1.1-1.6-2.6-2.9-3.8-4.4
			c-0.6-0.7-2.8-3.4-2-4.4c0.7-0.8,2.5,0.4,3.1,0.9c1.3,1.3,2.2,3.4,3,5.1c0.3,0.7,0.8,3,1.4,4.5c3.2,1,6.2,2.3,9.2,3.8
			c-0.4-0.5-0.8-1.1-1.2-1.5c-1-1.2-2.1-2.3-3.2-3.3c-1.8-1.6-3.7-3.1-5.8-4.2c-1.1-0.6-0.8-2.2,0.4-2.4c0,0,0.1,0,0.1,0
			c2-0.1,3.6,1.4,5,2.9c1,1.1,6.7,7.1,6.5,9.5c3.3,1.8,6.5,4,9.4,6.4c-1.1-1.6-2.5-2.8-3.7-4.3c-0.6-0.7-2.8-3.5-2-4.4
			c0.7-0.8,2.5,0.4,3.1,0.9c1.3,1.3,2.2,3.4,2.9,5.1c0.3,0.6,0.7,2.5,1.2,4c2.3,2,4.5,4.1,6.5,6.3c-0.1-0.4-0.2-0.7-0.3-1.1
			c-0.6-1.8-1.7-3.5-2.6-5.3c-0.4-0.8-1.9-4.1-0.8-4.8c0.9-0.6,2.3,1,2.7,1.7c0.9,1.6,1.3,3.9,1.6,5.6c0.1,0.7,0.1,3.1,0.2,4.7
			c1.5,1.7,3,3.6,4.3,5.4c-0.5-1.7-1.3-3.2-2-4.8c-0.3-0.8-1.5-4.2-0.4-4.8c1-0.6,2.3,1.2,2.6,1.9c0.8,1.6,1,3.9,1.2,5.8
			c0.1,0.6-0.1,2.3-0.1,3.7c2.4,3.6,7.8,5.8,9.6,9.7C1246.5,339.1,1241.2,337.5,1238.9,334.5z"/>
		<path class="st2" d="M1272.5,360.5c0.1,0.2,0.2,0.4,0.3,0.5c-0.4-0.2-0.6-0.6-0.9-0.9c-2.8-2.1-5.7-4-8.7-5.7
			c-0.6-0.3-1.2-0.7-1.9-1c-1.6,0.5-4.7,2.5-5.7,2.8c-2,0.7-4.5,1.7-6.6,1.6c-0.9,0-3.4-0.5-3.3-1.8c0.1-1.5,4.3-1.8,5.3-1.9
			c2.3-0.2,4.6,0,6.8-0.4c1-0.2,2.1-0.5,3.1-0.5c-2.8-1.5-5.6-2.8-8.5-3.9c-1.5,0.5-4.8,2.5-5.7,2.8c-2,0.7-4.5,1.7-6.6,1.6
			c-0.9,0-3.4-0.5-3.3-1.8c0.1-1.5,4.3-1.8,5.3-1.9c2.3-0.2,4.6,0,6.8-0.4c1-0.2,2-0.5,3-0.5c-3.1-1.2-6.3-2.1-9.5-2.8
			c-2.2-0.5-4.5-0.8-6.7-1.1c-1.4,1.2-3.1,3-3.7,3.4c-1.7,1.2-3.9,2.8-6,3.3c-0.9,0.2-3.4,0.4-3.6-0.9c-0.3-1.5,3.6-2.9,4.6-3.2
			c2.1-0.8,4.4-1.2,6.5-2.2c0.4-0.2,0.7-0.4,1.1-0.6c-3-0.3-6.1-0.4-9.2-0.2c-0.5,0.6-1.1,1.1-1.6,1.6c-1.4,1.4-2.4,3.1-3.6,4.6
			c-0.6,0.7-2.8,3.4-3.9,2.8c-1-0.6-0.1-2.6,0.3-3.2c1-1.5,2.9-2.8,4.4-3.9c0.5-0.4,2.3-1.2,3.6-1.9c-1.4,0.1-2.9,0.2-4.3,0.4
			c-2.3,0.3-4.5,0.7-6.7,1.3c-0.5,0.8-1.3,1.4-2,2.1c-1.4,1.4-2.4,3.1-3.6,4.6c-0.6,0.7-2.8,3.4-3.9,2.8c-1-0.6-0.1-2.6,0.3-3.2
			c1-1.5,2.9-2.8,4.4-3.9c0.6-0.4,2.9-1.4,4.2-2.2c-3,0.7-5.9,1.7-8.7,2.9c-0.5,0.6-1.2,1.2-1.8,1.7c-1.4,1.3-2.4,3-3.7,4.5
			c-0.6,0.7-2.9,3.4-4,2.7c-0.9-0.6,0-2.6,0.4-3.2c1-1.5,3-2.8,4.4-3.8c0.2-0.1,0.6-0.3,1-0.5c1.3-0.8,2.7-1.6,4.1-2.3
			c0,0,0.1-0.1,0.1-0.1c0,0,0,0.1-0.1,0.1c1.9-1,3.9-1.8,5.9-2.5c-0.8,0-1.5-0.2-2.3-0.3c-1.9-0.3-3.9,0-5.8-0.1
			c-0.9,0-4.4-0.2-4.6-1.5c-0.1-1.1,2-1.6,2.7-1.7c1.8-0.1,4,0.6,5.7,1.2c0.8,0.3,3.5,1.8,4.9,2.2c1.9-0.7,3.9-1.2,5.8-1.6
			c-0.9-0.1-1.8-0.5-2.7-0.8c-1.9-0.6-3.8-0.6-5.7-1c-0.9-0.2-4.3-0.9-4.3-2.2c0-1.1,2.2-1.3,3-1.2c1.8,0.2,3.8,1.3,5.5,2
			c0.8,0.4,3.5,2.6,4.7,3c0.8-0.2,1.6-0.3,2.4-0.5c3.4-0.6,6.8-0.8,10.2-0.8c-0.4-0.4-0.8-0.7-1.3-1.1c-1.5-1.3-3.3-2.1-4.9-3.2
			c-0.7-0.5-3.7-2.5-3.1-3.7c0.5-1,2.5-0.3,3.2,0c1.6,0.9,3.1,2.6,4.3,4c0.5,0.6,1.7,2.6,2.6,3.9c3.3,0.1,6.6,0.4,9.9,1
			c-0.5-0.4-1.1-0.8-1.6-1.1c-1.3-0.8-2.6-1.6-4-2.3c-2.1-1.1-4.4-1.9-6.8-2.4c-1.2-0.2-1.4-1.9-0.3-2.4c0,0,0.1,0,0.1-0.1
			c1.9-0.7,3.9,0.3,5.6,1.3c1.3,0.8,8.5,4.9,9,7.3c3.7,0.8,7.4,2,10.9,3.4c-1.5-1.2-3.2-2-4.8-3.1c-0.7-0.5-3.7-2.5-3.1-3.7
			c0.5-1,2.5-0.3,3.2,0c1.6,0.9,3.1,2.6,4.3,4c0.4,0.5,1.4,2.2,2.3,3.5c2.8,1.2,5.5,2.7,8,4.2c-0.2-0.3-0.4-0.6-0.6-0.9
			c-1.1-1.6-2.7-2.8-4-4.3c-0.6-0.7-2.9-3.4-2.1-4.3c0.7-0.9,2.5,0.3,3.1,0.8c1.4,1.2,2.3,3.3,3.1,5c0.3,0.7,0.9,3,1.5,4.4
			c2,1.2,3.9,2.6,5.7,4c-1-1.4-2.2-2.7-3.3-4.1c-0.5-0.7-2.7-3.6-1.8-4.5c0.8-0.8,2.5,0.5,3,1.1c1.3,1.3,2,3.5,2.7,5.2
			c0.2,0.6,0.6,2.2,0.9,3.6c3.4,2.8,9.1,3.3,12,6.6C1281.1,362.8,1275.6,362.8,1272.5,360.5z"/>
		<g>
			<path class="st2" d="M1420.8,398.2c0.1,0.1-0.4-8.4,11.6-17c12.2-9.2,39.2-8.9,42.3-17.5c3.2-9.2-13.6-6.6-21.2-13
				c-7.6-6.6-10.2-9.7-0.1-12.1c10.1-2.2,16.1-3.3,15.8-11.7c-0.3-8.5,16.5-5,24.6-11.5c8.4-6.5,3.4-14.7-12.9-13.6
				c-16,1.4-16.7-1.2-12.1-3.8c4.5-2.6,18.3-7.3,12.2-11.5c-6.3-4.2-15,0-10.5-5.6c4.5-5.6,15.5-10,9.9-15.8
				c-5.6-5.9-19.7-4.8-27.1,11.2c-7.3,15.9-9.7,20.4-17.4,22.3c-7.5,2-14.9-5.9-24-2.2c-9.1,3.8-7,12.5-1.3,18.2
				c5.8,5.7,15.6,17,10.1,22.4c-5.3,5.4-12.2-2.1-20.3-3.2c-9-1.2-18.8,6.7-10,18.6c9.1,11.7,22.8,20.7,24.1,48.5
				C1416.5,399.9,1418.7,399,1420.8,398.2z"/>
			<g>
				<g class="st3">
					<path class="st4" d="M1417.2,400.1c0.2,0,0.5-0.1,0.5-0.4c18.3-96.8,55.1-133.3,55.4-133.7c0.2-0.2,0.2-0.5,0-0.7
						c-0.2-0.2-0.5-0.2-0.7,0c-0.4,0.4-37.4,37.1-55.7,134.2C1416.7,399.8,1416.9,400,1417.2,400.1
						C1417.2,400.1,1417.2,400.1,1417.2,400.1z"/>
				</g>
				<g class="st3">
					<path class="st4" d="M1451.3,297.5c0.1,0,0.2,0,0.3-0.1c11.9-8.2,26-8.5,26.2-8.5c0.3,0,0.5-0.2,0.5-0.5c0-0.3-0.2-0.5-0.5-0.5
						c-0.1,0-14.6,0.3-26.7,8.7c-0.2,0.2-0.3,0.4-0.1,0.7C1451.1,297.4,1451.2,297.4,1451.3,297.5z"/>
				</g>
				<g class="st3">
					<path class="st4" d="M1438.3,325.7c0.1,0,0.3,0,0.4-0.1c0.2-0.2,0.2-0.5,0-0.7c-0.1-0.1-11.5-13.1-26.7-24.4
						c-0.2-0.2-0.5-0.1-0.7,0.1c-0.2,0.2-0.1,0.5,0.1,0.7c15.1,11.2,26.4,24.1,26.5,24.2C1438,325.6,1438.1,325.7,1438.3,325.7z"/>
				</g>
				<g class="st3">
					<path class="st4" d="M1440.8,319.4c0.1,0,0.1,0,0.2,0c22.2-8.7,47-8.9,47.3-8.9c0.3,0,0.5-0.2,0.5-0.5c0-0.3-0.2-0.5-0.5-0.5
						c-0.3,0-25.2,0.2-47.6,9c-0.2,0.1-0.4,0.4-0.3,0.6C1440.5,319.3,1440.7,319.4,1440.8,319.4z"/>
				</g>
				<g class="st3">
					<path class="st4" d="M1424,369.5c0.1,0,0.2,0,0.2,0c15.2-7,40.8-8,41.1-8c0.3,0,0.5-0.2,0.5-0.5c0-0.3-0.2-0.5-0.5-0.5
						c-0.3,0-26,1-41.4,8c-0.2,0.1-0.3,0.4-0.2,0.6C1423.7,369.4,1423.9,369.5,1424,369.5z"/>
				</g>
				<g class="st3">
					<path class="st4" d="M1422.3,376.3c0.1,0,0.1,0,0.2,0c0.2-0.1,0.4-0.4,0.3-0.6c-7-19-25.3-33.9-25.5-34
						c-0.2-0.2-0.5-0.1-0.7,0.1c-0.2,0.2-0.1,0.5,0.1,0.7c0.2,0.1,18.3,14.9,25.2,33.6C1422,376.1,1422.2,376.3,1422.3,376.3z"/>
				</g>
			</g>
		</g>
		<g>
			<path class="st2" d="M1275.2,367.3c-0.1,0.1,0.4-8.4-11.6-17c-12.2-9.2-39.2-8.9-42.3-17.5c-3.2-9.2,13.6-6.6,21.2-13
				c7.6-6.6,10.2-9.7,0.1-12.1c-10.1-2.2-16.1-3.3-15.8-11.7c0.3-8.5-16.5-5-24.6-11.5c-8.4-6.5-3.4-14.7,12.9-13.6
				c16,1.4,16.7-1.2,12.1-3.8c-4.5-2.6-18.3-7.3-12.2-11.5c6.3-4.2,15,0,10.5-5.6c-4.5-5.6-15.5-10-9.9-15.8
				c5.6-5.9,19.7-4.8,27.1,11.2c7.3,15.9,9.7,20.4,17.4,22.3c7.5,2,14.9-5.9,24-2.2c9.1,3.8,7,12.5,1.3,18.2
				c-5.8,5.7-15.6,17-10.1,22.4c5.3,5.4,12.2-2.1,20.3-3.2c9-1.2,18.8,6.7,10,18.6c-9.1,11.7-22.8,20.7-24.1,48.5
				C1279.5,369,1277.3,368.1,1275.2,367.3z"/>
			<g>
				<g class="st3">
					<path class="st4" d="M1278.8,369.2c-0.2,0-0.5-0.1-0.5-0.4c-18.3-96.8-55.1-133.3-55.4-133.7c-0.2-0.2-0.2-0.5,0-0.7
						c0.2-0.2,0.5-0.2,0.7,0c0.4,0.4,37.4,37.1,55.7,134.2C1279.3,368.9,1279.1,369.2,1278.8,369.2
						C1278.8,369.2,1278.8,369.2,1278.8,369.2z"/>
				</g>
				<g class="st3">
					<path class="st4" d="M1244.7,266.6c-0.1,0-0.2,0-0.3-0.1c-11.9-8.2-26-8.5-26.2-8.5c-0.3,0-0.5-0.2-0.5-0.5
						c0-0.3,0.2-0.5,0.5-0.5c0.1,0,14.6,0.3,26.7,8.7c0.2,0.2,0.3,0.4,0.1,0.7C1244.9,266.5,1244.8,266.6,1244.7,266.6z"/>
				</g>
				<g class="st3">
					<path class="st4" d="M1257.8,294.8c-0.1,0-0.3,0-0.4-0.1c-0.2-0.2-0.2-0.5,0-0.7c0.1-0.1,11.5-13.1,26.7-24.4
						c0.2-0.2,0.5-0.1,0.7,0.1c0.2,0.2,0.1,0.5-0.1,0.7c-15.1,11.2-26.4,24.1-26.5,24.2C1258,294.8,1257.9,294.8,1257.8,294.8z"/>
				</g>
				<g class="st3">
					<path class="st4" d="M1255.2,288.6c-0.1,0-0.1,0-0.2,0c-22.2-8.7-47-8.9-47.3-8.9c-0.3,0-0.5-0.2-0.5-0.5
						c0-0.3,0.2-0.5,0.5-0.5c0.3,0,25.2,0.2,47.6,9c0.2,0.1,0.4,0.4,0.3,0.6C1255.5,288.4,1255.4,288.6,1255.2,288.6z"/>
				</g>
				<g class="st3">
					<path class="st4" d="M1272,338.7c-0.1,0-0.2,0-0.2,0c-15.2-7-40.8-8-41.1-8c-0.3,0-0.5-0.2-0.5-0.5c0-0.3,0.2-0.5,0.5-0.5
						c0.3,0,26,1,41.4,8c0.2,0.1,0.3,0.4,0.2,0.6C1272.3,338.6,1272.2,338.7,1272,338.7z"/>
				</g>
				<g class="st3">
					<path class="st4" d="M1273.7,345.4c-0.1,0-0.1,0-0.2,0c-0.2-0.1-0.4-0.4-0.3-0.6c7-19,25.3-33.9,25.5-34
						c0.2-0.2,0.5-0.1,0.7,0.1c0.2,0.2,0.1,0.5-0.1,0.7c-0.2,0.1-18.3,14.9-25.2,33.6C1274,345.3,1273.9,345.4,1273.7,345.4z"/>
				</g>
			</g>
		</g>
		<path class="st5" d="M1414.9,411.9c0,0-0.9-34.4,26.3-37.6c27.1-3.2,17.3,36,5.7,48.8c0,0,15.1-17.7,25.1-5.8
			c10,12-18.1,25.7-18.1,25.7s22.5-7.6,28.8-2.5c8.1,6.7-7.2,16.4-7.2,16.4s24.4-9.7,19.3,7.6l-115.9-0.3L1414.9,411.9z"/>
		<g>
			<path class="st6" d="M1425.3,166.8v275.3c0,12.6-10.2,22.9-22.9,22.9h-112.9c-12.6,0-22.9-10.2-22.9-22.9V166.8
				c0-12.6,10.2-22.9,22.9-22.9h112.9C1415.1,143.9,1425.3,154.2,1425.3,166.8z"/>
			<path class="st7" d="M1425.3,166.8v3.8h-158.7v-3.8c0-12.6,10.2-22.9,22.9-22.9h112.9C1415.1,143.9,1425.3,154.2,1425.3,166.8z"
				/>
			<path class="st7" d="M1425.3,438.3v3.8c0,12.6-10.2,22.9-22.9,22.9h-112.9c-12.6,0-22.9-10.2-22.9-22.9v-3.8H1425.3z"/>
			<path class="st7" d="M1427.6,269.8h-2.3v-60.6h2.3c1.1,0,2,0.9,2,2v56.5C1429.6,268.9,1428.7,269.8,1427.6,269.8z"/>
			<path class="st7" d="M1266.7,237.7h-2.1c-1.1,0-1.9-0.9-1.9-1.9v-25.7c0-1.1,0.9-1.9,1.9-1.9h2.1V237.7z"/>
			<path class="st7" d="M1266.7,269.8h-1.8c-0.9,0-1.7-0.7-1.7-1.7v-14.8c0-0.9,0.7-1.7,1.7-1.7h1.8V269.8z"/>
			<path class="st8" d="M1323.2,157.3c0,2.5-2,4.5-4.5,4.5s-4.5-2-4.5-4.5c0-2.5,2-4.5,4.5-4.5S1323.2,154.8,1323.2,157.3z"/>
			<path class="st8" d="M1333,157.3c0,1.2-1,2.2-2.2,2.2c-1.2,0-2.2-1-2.2-2.2s1-2.2,2.2-2.2C1332.1,155.1,1333,156.1,1333,157.3z"
				/>
			<path class="st8" d="M1378.9,160h-39.2c-0.7,0-1.3-0.6-1.3-1.3v-2.8c0-0.7,0.6-1.3,1.3-1.3h39.2c0.7,0,1.3,0.6,1.3,1.3v2.8
				C1380.2,159.4,1379.6,160,1378.9,160z"/>
			<path class="st8" d="M1354.7,451.5c0,4.8-3.9,8.7-8.7,8.7s-8.7-3.9-8.7-8.7c0-4.8,3.9-8.7,8.7-8.7S1354.7,446.7,1354.7,451.5z"/>
			<rect x="1270.2" y="170.6" class="st9" width="150.4" height="267.7"/>
		</g>
		<path class="st10" d="M1348.9,237c-81.2,0-17.8,109,0,115C1366,347.8,1430.1,237,1348.9,237z M1348.8,297.7
			c-12,0-21.8-9.8-21.8-21.8c0-12,9.8-21.8,21.8-21.8c12,0,21.8,9.8,21.8,21.8C1370.7,287.9,1360.9,297.7,1348.8,297.7z"/>
		<path class="st11" d="M1383.8,362.2c0,1.7-15.6,3-34.9,3c-19.3,0-34.9-1.4-34.9-3c0-1.7,15.6-3,34.9-3
			C1368.1,359.2,1383.8,360.6,1383.8,362.2z"/>
		<g>
			<path class="st12" d="M1383.8,362.2c0,1.7-15.6,3-34.9,3c-19.3,0-34.9-1.4-34.9-3c0-1.7,15.6-3,34.9-3
				C1368.1,359.2,1383.8,360.6,1383.8,362.2z"/>
			<ellipse class="st11" cx="1348.8" cy="362.2" rx="18.2" ry="1.6"/>
		</g>
		<g class="st13">
			<polygon class="st14" points="1369.7,170.6 1270.2,323.2 1270.2,238.2 1314.3,170.6 			"/>
			<polygon class="st14" points="1411.6,170.6 1270.2,387.4 1270.2,348 1385.9,170.6 			"/>
			<polygon class="st14" points="1420.6,259.3 1420.6,298.7 1329.3,438.5 1303.6,438.5 			"/>
		</g>
		<g class="st15">
			<g>
				<path class="st16" d="M519.2,253.5c-0.1,0.2-0.3,0.3-0.5,0.5c-0.1,0.1-0.2,0.2-0.3,0.3c-0.6,0.7-1.5,1.5-2.5,2.4
					c-0.4,0.3-0.7,0.7-1.1,1.1c-0.4,0.4-0.8,0.8-1.1,1.2c-0.2,0.2-0.3,0.3-0.5,0.5c-0.5,0.5-0.9,1-1.3,1.5c-0.7,1-1.3,1.9-1.7,2.7
					c-0.1,0.3-0.3,0.5-0.4,0.8c-0.3,0.7-0.6,1.3-0.9,1.9c-0.1,0.2-0.2,0.4-0.3,0.6c0,0,0,0,0,0.1c-0.1,0.2-0.2,0.4-0.4,0.5
					c-0.3,0.4-0.7,0.8-1.1,1.1c-0.4,0.3-0.9,0.6-1.4,0.8c-0.3,0.2-0.8,0.3-1.2,0.4c-0.9,0.3-2,0.5-3.2,0.7c-0.2,0-0.4,0-0.7,0
					c-1.9,0-3.6-0.9-4.7-2.4c-0.3-0.5-0.6-1-0.8-1.5c-1.1-3.3-5.2-7.8-10.2-13.1c-6-6.3-7.9-13.7-7.7-25.1c0.1-4.1,1.9-7.6,4.2-10.4
					c2.4-2.9,5.5-5.2,8.9-6.7c1-0.5,2.1-0.8,3.1-1.1c2.3-0.7,4.8-1,7.2-1.1l0.1,0c1.5,0,2.9,0,4.2,0.2c4.3,0.5,8,1.9,10.9,4.2
					c1.3,1,2.4,2.1,3.4,3.3c1.8,2.2,3,5,4.4,8C530.3,239.1,521.4,250.7,519.2,253.5z"/>
				<path class="st10" d="M519.2,253.5c-0.1,0.2-0.3,0.3-0.5,0.5c-0.1,0.1-0.2,0.2-0.3,0.3c-0.6,0.7-1.5,1.5-2.5,2.4
					c-0.4,0.3-0.7,0.7-1.1,1.1c-0.4,0.4-0.8,0.8-1.1,1.2c-0.2,0.2-0.3,0.3-0.5,0.5c-0.5,0.5-0.9,1-1.3,1.5c-0.1,0.2-0.2,0.3-0.3,0.4
					c-0.6,0.7-1,1.5-1.4,2.2c-0.1,0.3-0.3,0.5-0.4,0.8c-0.3,0.7-0.6,1.3-0.9,1.9c-0.1,0.2-0.2,0.4-0.3,0.6c0,0,0,0,0,0.1
					c-0.1,0.2-0.2,0.4-0.4,0.5c-0.3,0.4-0.7,0.8-1.1,1.1c0.3-4.5,2.5-7.9,3.8-9.7c1.5-2.1,6.8-8,8.3-12c1.5-4,2.9-12.5,2.4-18.5
					c-0.2-3-1.2-7.7-2.2-11.6c1.8,2.2,3,5,4.4,8C530.3,239.1,521.4,250.7,519.2,253.5z"/>
				<path class="st10" d="M498.7,267.3l-0.2,0c-0.4,0.1-0.9,0.2-1.3,0.4c-0.5,0.2-1,0.4-1.5,0.6c-0.3-0.5-0.1-1.1-0.3-1.6
					c-1.1-3.3-5.2-7.8-10.2-13.1c-6-6.3-13.6-23.5-3.5-35.5c1-1.2,2.2-2.4,3.4-3.3c1.7-1.4,3.6-2.5,5.5-3.4
					c-1.2,2.4-4.3,8.9-4.5,13.8c-0.3,6.2,0.7,10,2.5,14.4c1.8,4.4,5.2,10.4,6,12c0.8,1.6,3,7.6,3.5,10.4
					C498.5,264.9,498.7,267.3,498.7,267.3z"/>
				<path class="st10" d="M519.5,232.1c-0.2,1.7-2,7.6-2.4,8.8c-0.5,1.2-3.7,9-4,9.9c-0.3,0.9-3.5,6.4-4.1,7.9
					c-0.6,1.5-1.6,3.3-1.9,4.3c-0.4,1-0.9,4.9-0.9,4.9l-1.3-0.3l-1.3-0.3l0.1-10c0,0-0.3-5.3-0.4-7.7c0-2.4,0.1-9.1,0.3-19.5
					c0.2-8.1-1.6-17.3-2.4-20.9c3.1,0,5.8,0.3,8.3,1c2.6,0.7,4.9,1.9,6.9,3.4C519.7,219.5,519.6,230.6,519.5,232.1z"/>
				<path class="st16" d="M519.5,232.1c-0.2,1.7-2,7.6-2.4,8.8c-0.5,1.2-3.7,9-4,9.9c-0.3,0.9-3.5,6.4-4.1,7.9
					c-0.6,1.5-1.6,3.3-1.9,4.3c-0.4,1-0.9,4.9-0.9,4.9l-1.3-0.3c0.3-3.3,1.4-10.1,2.3-11.7c1-1.8,3.5-7.6,6.5-19.1
					c3.1-11.7-1.3-23.6-4.3-26.7c2.6,0.7,4.9,1.9,6.9,3.4C519.7,219.5,519.6,230.6,519.5,232.1z"/>
				<g>
					<g>
						<path class="st17" d="M477.9,236.9c1.3-1,2.5-2.3,3.9-3.2c1.4-0.9,2.9-1.7,4.5-2.4c3.1-1.3,6.5-2.2,9.8-2.7
							c6.8-0.9,13.6,0.2,20.1,2.2c1.7,0.5,3.4,1.2,4.9,2.2c1.5,0.9,3.1,1.7,4.3,3.1c0.1,0.1,0.3-0.1,0.2-0.2c-1-1.1-2.3-1.8-3.6-2.6
							c-1.3-0.8-2.7-1.6-4.1-2.1c-3.3-1.2-6.9-2.1-10.4-2.6c-7-1.1-13.9-0.3-20.5,2.2c-1.7,0.6-3.3,1.5-4.9,2.4
							c-1.6,1-3,2.3-4.5,3.5C477.5,236.8,477.7,237,477.9,236.9L477.9,236.9z"/>
					</g>
					<g>
						<path class="st17" d="M478.2,239c2.1-2.2,4.8-3.6,7.6-4.9c3.1-1.5,6.2-2.7,9.6-3.3c6.6-1.1,13.5-0.1,19.7,2.1
							c1.7,0.6,3.5,1.3,5.1,2.1c0.9,0.4,1.7,1,2.6,1.4c0.8,0.4,1.6,0.8,2.4,1.3c0.1,0.1,0.4-0.1,0.2-0.2c-0.7-0.4-1.4-0.7-2.1-1.1
							c-0.8-0.4-1.6-0.9-2.3-1.3c-1.5-0.8-3-1.4-4.6-2c-3.2-1.2-6.5-2.1-9.9-2.6c-3.4-0.5-6.9-0.6-10.2-0.1
							c-3.2,0.5-6.4,1.5-9.3,2.9c-3.2,1.5-6.5,3-8.9,5.6C477.9,239,478.1,239.1,478.2,239L478.2,239z"/>
					</g>
					<g>
						<path class="st17" d="M493,262.6c2.9-1.5,5.9-2.1,9.1-2.2c3.1-0.1,6.5,0.1,9.1,1.7c0.1,0.1,0.4-0.1,0.2-0.2
							c-2.7-1.6-6.2-1.9-9.3-1.7c-3.3,0.1-6.4,0.7-9.3,2.2C492.7,262.4,492.8,262.7,493,262.6L493,262.6z"/>
					</g>
					<g>
						<path class="st17" d="M492.2,261.6c3-1.8,6.2-2.6,9.7-2.6c1.7,0,3.4,0.2,5.1,0.5c1,0.2,1.9,0.5,2.9,0.7
							c0.8,0.2,1.6,0.4,2.3,0.7c0.2,0.1,0.3-0.2,0.2-0.2c-0.8-0.4-1.7-0.6-2.6-0.8c-0.8-0.2-1.7-0.4-2.5-0.6
							c-1.8-0.4-3.7-0.6-5.6-0.5c-3.4,0.1-6.6,1-9.6,2.7C491.9,261.5,492,261.7,492.2,261.6L492.2,261.6z"/>
					</g>
					<g>
						<path class="st17" d="M495.6,268.5c0,2.9,0.8,5.7,0.8,8.6c0,0.2,0.3,0.1,0.3-0.1c0-2.9-0.8-5.7-0.8-8.6
							C495.9,268.2,495.6,268.3,495.6,268.5L495.6,268.5z"/>
					</g>
					<g>
						<path class="st17" d="M498.9,269.9c0,2.2,0.4,4.5,0.5,6.7c0,0.2,0.3,0.1,0.3,0c0-2.2-0.5-4.5-0.5-6.7
							C499.2,269.6,498.9,269.7,498.9,269.9L498.9,269.9z"/>
					</g>
					<g>
						<path class="st17" d="M502.8,270.2c0,2.1-0.2,4.2-0.2,6.3c0,0.2,0.3,0.1,0.3,0c0-2.1,0.2-4.2,0.2-6.3
							C503.1,270,502.8,270,502.8,270.2L502.8,270.2z"/>
					</g>
					<g>
						<path class="st17" d="M507.3,268.7c0,1.5-0.3,3-0.5,4.5c-0.2,1.4-0.6,2.7-0.7,4.1c0,0.2,0.3,0.1,0.3-0.1
							c0.1-1.5,0.5-3.1,0.8-4.6c0.2-1.3,0.4-2.6,0.5-4C507.6,268.4,507.3,268.5,507.3,268.7L507.3,268.7z"/>
					</g>
					<g>
						<path class="st17" d="M486.5,233.5c0.2,0.9,0.3,1.8,0.5,2.7c0.3,1,0.8,1.9,1.2,2.9c1,2.3,1.8,4.7,3,6.9
							c1.1,2.1,2.5,4.1,3.5,6.3c0.6,1.1,1,2.3,1.5,3.5c0.4,1.2,0.6,2.5,1.1,3.6c0.1,0.1,0.4,0.1,0.3-0.1c-0.4-1.1-0.6-2.3-1-3.4
							c-0.4-1.2-0.9-2.4-1.4-3.6c-1-2.2-2.4-4.2-3.5-6.3c-1.2-2.2-2-4.5-3-6.9c-0.4-1-1-2.1-1.3-3.2c-0.2-0.9-0.3-1.7-0.5-2.6
							C486.7,233.3,486.4,233.4,486.5,233.5L486.5,233.5z"/>
					</g>
					<g>
						<path class="st17" d="M503.3,229.9c-0.1,5-0.1,10.1-0.3,15.1c-0.1,4.6,0.5,9.2,0.4,13.9c0,0.2,0.3,0.2,0.3,0
							c0-4.6-0.6-9.2-0.4-13.9c0.2-5,0.2-10.1,0.3-15.1C503.7,229.8,503.3,229.8,503.3,229.9L503.3,229.9z"/>
					</g>
					<g>
						<path class="st17" d="M518.7,234.4c-0.1,0.6-0.3,1.1-0.5,1.7c-0.2,0.5-0.3,1.1-0.5,1.7c-0.3,1.1-0.6,2.1-1,3.2
							c-0.7,2.2-1.6,4.3-2.4,6.5c-0.8,2.2-2.1,4.2-3.1,6.3c-0.9,1.9-1.8,3.9-3.1,5.7c-0.1,0.2,0.2,0.3,0.3,0.1
							c1.3-1.8,2.2-3.8,3.1-5.8c1-2.1,2.2-4.1,3.1-6.3c0.8-2.2,1.7-4.4,2.4-6.6c0.4-1.2,0.7-2.3,1-3.5c0.3-1,0.8-1.9,0.9-3
							C519.1,234.2,518.8,234.2,518.7,234.4L518.7,234.4z"/>
					</g>
					<g>
						<path class="st17" d="M497.6,260.8c0,0.5,0.2,1,0.3,1.5c0.1,0.6,0.2,1.3,0.3,2c0.2,1.2,0.2,2.3,0.3,3.5c0,0.2,0.3,0.1,0.3,0
							c0-1-0.1-2.1-0.2-3.1c-0.1-0.6-0.2-1.2-0.3-1.9c-0.1-0.7-0.4-1.3-0.4-2C497.9,260.7,497.6,260.7,497.6,260.8L497.6,260.8z"/>
					</g>
					<g>
						<path class="st17" d="M503.4,260.4c0,1.5,0,3,0,4.5c0,0.5,0,1,0,1.5c0,0.2,0.1,1-0.1,1.2c-0.1,0.1,0.1,0.3,0.3,0.1
							c0.2-0.1,0.1-0.6,0.1-0.8c0-0.6,0-1.2,0-1.8c0-1.6,0-3.2,0-4.8C503.7,260.2,503.4,260.2,503.4,260.4L503.4,260.4z"/>
					</g>
					<g>
						<path class="st17" d="M508.1,260.7c-1.8,2-1.7,5-2.2,7.5c0,0.2,0.3,0.2,0.3,0c0.5-2.4,0.4-5.3,2.1-7.3
							C508.5,260.7,508.2,260.5,508.1,260.7L508.1,260.7z"/>
					</g>
				</g>
				<path class="st10" d="M507.5,268.8c0,0-1.1,2.3-6.2,2.1c-4.9-0.2-5.6-2.4-5.6-2.4s0.3-1.4,5.4-1.2
					C507.3,267.5,507.5,268.8,507.5,268.8z"/>
			</g>
			<g>
				<g>
					
						<rect x="492.3" y="276.7" transform="matrix(1.139189e-03 -1 1 1.139189e-03 214.7731 788.3963)" class="st18" width="19.5" height="19.9"/>
					
						<rect x="500.3" y="268.7" transform="matrix(1.153248e-03 -1 1 1.153248e-03 222.7763 780.4094)" class="st19" width="3.5" height="19.9"/>
					
						<rect x="491.9" y="276.5" transform="matrix(-1 -1.133847e-03 1.133847e-03 -1 1004.1031 557.1425)" class="st18" width="20.6" height="3.5"/>
					<polygon class="st20" points="500.4,276.5 500.4,282.4 500.8,281.8 501.2,282.4 501.6,281.8 501.9,282.4 502.3,281.8 
						502.7,282.4 503,281.8 503.4,282.4 503.4,276.5 					"/>
				</g>
			</g>
		</g>
		<g class="st13">
			<path class="st11" d="M1411.3,497.4c0,1.3,12.9,2.4,28.9,2.4c15.9,0,28.9-1.1,28.9-2.4c0-1.3-12.9-2.4-28.9-2.4
				C1424.2,494.9,1411.3,496,1411.3,497.4z"/>
		</g>
		<g class="st13">
			<path class="st11" d="M1144,527.5c0,1.3,12.9,2.4,28.9,2.4c15.9,0,28.9-1.1,28.9-2.4c0-1.3-12.9-2.4-28.9-2.4
				C1156.9,525.1,1144,526.1,1144,527.5z"/>
		</g>
		<g>
			<g>
				<g>
					
						<rect x="1267.4" y="437.9" transform="matrix(1 -1.140333e-03 1.140333e-03 1 -0.5145 1.4618)" class="st19" width="28.6" height="28"/>
					
						<rect x="1267.4" y="437.9" transform="matrix(1 -1.143527e-03 1.143527e-03 1 -0.5028 1.4659)" class="st19" width="28.6" height="5.1"/>
					
						<rect x="1266.6" y="437.3" transform="matrix(1 -1.139990e-03 1.139990e-03 1 -0.5006 1.4611)" class="st19" width="29.6" height="5.1"/>
					<polygon class="st19" points="1284,437.3 1284,445.8 1283.4,445 1282.9,445.8 1282.4,445 1281.8,445.8 1281.3,445 
						1280.8,445.8 1280.2,445 1279.7,445.8 1279.7,437.3 					"/>
				</g>
				<g>
					
						<rect x="1269.1" y="437.9" transform="matrix(1 -1.134737e-03 1.134737e-03 1 -0.512 1.4566)" class="st21" width="28.6" height="28"/>
					
						<rect x="1269.1" y="437.9" transform="matrix(1 -1.112621e-03 1.112621e-03 1 -0.4892 1.4282)" class="st19" width="28.6" height="5.1"/>
					
						<rect x="1268.4" y="437.3" transform="matrix(1 -1.134688e-03 1.134688e-03 1 -0.4983 1.4563)" class="st21" width="29.6" height="5.1"/>
					<polygon class="st20" points="1285.7,437.3 1285.7,445.8 1285.2,445 1284.6,445.8 1284.1,445 1283.6,445.8 1283,445 
						1282.5,445.8 1282,445 1281.4,445.8 1281.4,437.3 					"/>
				</g>
			</g>
			<g>
				<g>
					
						<rect x="1252" y="409" transform="matrix(1 -1.134737e-03 1.134737e-03 1 -0.4792 1.4371)" class="st19" width="28.6" height="28"/>
					
						<rect x="1251.9" y="409" transform="matrix(1 -1.143527e-03 1.143527e-03 1 -0.4698 1.4483)" class="st19" width="28.6" height="5.1"/>
					
						<rect x="1251.2" y="408.5" transform="matrix(1 -1.134688e-03 1.134688e-03 1 -0.4655 1.4368)" class="st19" width="29.6" height="5.1"/>
					<polygon class="st19" points="1268.5,408.5 1268.5,416.9 1268,416.1 1267.5,416.9 1266.9,416.1 1266.4,416.9 1265.9,416.1 
						1265.3,416.9 1264.8,416.1 1264.3,416.9 1264.3,408.5 					"/>
				</g>
				<g>
					
						<rect x="1253.7" y="409" transform="matrix(1 -1.135240e-03 1.135240e-03 1 -0.4794 1.4398)" class="st22" width="28.6" height="28"/>
					
						<rect x="1253.7" y="409" transform="matrix(1 -1.143527e-03 1.143527e-03 1 -0.4698 1.4502)" class="st19" width="28.6" height="5.1"/>
					
						<rect x="1253" y="408.5" transform="matrix(1 -1.139984e-03 1.139984e-03 1 -0.4677 1.4455)" class="st22" width="29.6" height="5.1"/>
					<polygon class="st20" points="1270.3,408.5 1270.3,416.9 1269.8,416.1 1269.2,416.9 1268.7,416.1 1268.1,416.9 1267.6,416.1 
						1267.1,416.9 1266.5,416.1 1266,416.9 1266,408.5 					"/>
				</g>
			</g>
			<polygon class="st23" points="1366.6,496.4 1253.8,468.6 1241.1,460.4 1384.7,496.1 			"/>
			<rect x="1154.6" y="354.3" class="st7" width="129.8" height="112.5"/>
			<g>
				<path class="st7" d="M1053.6,440.1c2.2,4.3,0.5,9.6-3.8,11.8c-4.3,2.2-9.6,0.5-11.8-3.8c-2.2-4.3-0.5-9.6,3.8-11.8
					C1046.1,434.1,1051.4,435.8,1053.6,440.1z"/>
			</g>
			<path class="st6" d="M1147,370.3l0,1.3l0,1.8l-0.4,41v0.2l-48.6,0.2l-29.9,0.1l0.1-0.1l0.1-0.2l0.1-0.2L1098,373
				c0.7-1.1,1.9-1.7,3.2-1.9l40.9-4.8C1144.6,366,1146.8,367.8,1147,370.3z"/>
			<g>
				<path class="st7" d="M1147,371.6l0,1.8c0-1-0.7-2.3-1.4-2.9c-0.8-0.7-1.8-1-2.8-0.9l-39.7,4.7c-1.4,0.2-2.7,0.9-3.5,2.1
					l-27.1,38.1l-0.7-0.1l27.3-38.3c0.9-1.3,2.3-2.1,3.9-2.3l39.7-4.7c1.2-0.1,2.4,0.2,3.3,1C1146.4,370.4,1146.8,371,1147,371.6z"
					/>
			</g>
			<path class="st24" d="M1141.3,376.6v37.6l-15.5,0l-5.8,0l-8.4,0l-9.2,0l-16.7,0l-2.8,0v-4.5c0-1.3,0.4-2.6,1.1-3.7l17.8-26.4
				c1-1.5,2.6-2.5,4.4-2.7l6-0.7l18.2-2.2l6.8-0.8c0.9-0.1,1.8,0.1,2.5,0.7C1140.7,374.3,1141.3,375.4,1141.3,376.6z"/>
			<path class="st6" d="M1147,414.3v60.6h-74c-7.2,0-28.3-0.5-28.3-0.5v-30.6c0-14.5,9.6-26.5,22.4-29.1h0c0.4-0.1,0.8-0.1,1.2-0.2
				c0,0,0,0,0.1,0c1.3-0.2,2.5-0.2,3.8-0.2H1147z"/>
			<path class="st23" d="M1136.9,422.6h-8.9c-1.3,0-2.3-1-2.3-2.3l0,0c0-1.3,1-2.3,2.3-2.3h8.9c1.3,0,2.3,1,2.3,2.3l0,0
				C1139.3,421.6,1138.2,422.6,1136.9,422.6z"/>
			<path class="st7" d="M1139.3,420.3c0,0.6-0.3,1.2-0.7,1.7c-0.4,0.4-1,0.7-1.7,0.7h-8.9c-1.3,0-2.3-1-2.3-2.3
				c0-0.3,0.1-0.6,0.1-0.8c0.3,0.9,1.2,1.5,2.2,1.5h8.9c0.6,0,1.2-0.3,1.7-0.7c0.2-0.2,0.4-0.5,0.5-0.9
				C1139.2,419.7,1139.3,420,1139.3,420.3z"/>
			<polygon class="st25" points="1130.4,373.8 1102.2,414.1 1085.6,414.1 1112.2,376 			"/>
			<path class="st25" d="M1141.3,376.6v7l-21.4,30.6l-8.4,0l28.3-40.5C1140.7,374.3,1141.3,375.4,1141.3,376.6z"/>
			<polygon class="st25" points="1141.3,392 1141.3,414.2 1125.7,414.2 			"/>
			<path class="st26" d="M1046.9,472.5h-4.4c-3.8,0-6.9-3.1-6.9-6.9l0,0c0-3.8,3.1-6.9,6.9-6.9h4.4c3.8,0,6.9,3.1,6.9,6.9l0,0
				C1053.7,469.4,1050.7,472.5,1046.9,472.5z"/>
			<path class="st27" d="M1221.3,465.6l3.8-5.3c4.1-5.7,10.7-9,17.6-9l0,0c6.9,0,13.4,3.3,17.5,8.8l4,5.5"/>
			<path class="st7" d="M1287,475h-242.3c-1.6,0-2.8-1.3-2.8-2.8v-3.7c0-1.6,1.3-2.8,2.8-2.8H1287c1.6,0,2.8,1.3,2.8,2.8v3.7
				C1289.8,473.7,1288.5,475,1287,475z"/>
			<path class="st7" d="M1082.3,465.6l3.8-5.3c4.1-5.7,10.7-9,17.6-9l0,0c6.9,0,13.4,3.3,17.5,8.8l4,5.5"/>
			<g>
				<circle class="st6" cx="1103.8" cy="476" r="20.1"/>
				
					<ellipse transform="matrix(0.7071 -0.7071 0.7071 0.7071 -13.3137 919.9232)" class="st28" cx="1103.8" cy="476" rx="15.2" ry="15.2"/>
				<circle class="st6" cx="1103.8" cy="476" r="11.1"/>
				<circle class="st29" cx="1103.8" cy="476" r="10.1"/>
				<path class="st26" d="M1110.1,476c0,3.5-2.8,6.3-6.3,6.3c-3.5,0-6.3-2.8-6.3-6.3c0-3.5,2.8-6.3,6.3-6.3
					C1107.3,469.7,1110.1,472.6,1110.1,476z"/>
				<circle class="st30" cx="1103.8" cy="476" r="2.1"/>
				<circle class="st31" cx="1103.8" cy="476" r="2.6"/>
			</g>
			<g>
				<circle class="st32" cx="1242.8" cy="476" r="20.1"/>
				
					<ellipse transform="matrix(0.7071 -0.7071 0.7071 0.7071 27.4019 1018.2192)" class="st28" cx="1242.8" cy="476" rx="15.2" ry="15.2"/>
				<circle class="st27" cx="1242.8" cy="476" r="11.1"/>
				<circle class="st29" cx="1242.8" cy="476" r="10.1"/>
				<path class="st33" d="M1249.1,476c0,3.5-2.8,6.3-6.3,6.3c-3.5,0-6.3-2.8-6.3-6.3c0-3.5,2.8-6.3,6.3-6.3
					C1246.3,469.7,1249.1,472.6,1249.1,476z"/>
				<path class="st34" d="M1238.3,477.2c-0.1-0.4-0.1-0.8-0.1-1.2c0-0.6,0.1-1.2,0.3-1.7"/>
				<path class="st34" d="M1241.9,480.6c-1.1-0.2-2.1-0.9-2.8-1.7"/>
				<path class="st34" d="M1245.9,479.5c-0.6,0.5-1.3,0.9-2.2,1.1"/>
				<path class="st34" d="M1247.5,476c0,0.9-0.2,1.7-0.6,2.3"/>
				<path class="st27" d="M1244.9,476c0,1.1-0.9,2.1-2.1,2.1c-1.1,0-2.1-0.9-2.1-2.1c0-1.1,0.9-2.1,2.1-2.1
					C1243.9,474,1244.9,474.9,1244.9,476z"/>
				<circle class="st35" cx="1242.8" cy="476" r="2.6"/>
			</g>
			<g>
				<g>
					
						<rect x="1317.2" y="397.5" transform="matrix(0.2397 -0.9708 0.9708 0.2397 610.6431 1617.6918)" class="st21" width="42" height="42.8"/>
					
						<rect x="1338.5" y="380.8" transform="matrix(0.2397 -0.9708 0.9708 0.2397 629.9755 1608.9984)" class="st19" width="7.6" height="42.8"/>
					
						<rect x="1320" y="397.6" transform="matrix(0.9708 0.2397 -0.2397 0.9708 135.3465 -310.0421)" class="st21" width="44.3" height="7.6"/>
					<polygon class="st20" points="1346.8,398.6 1343.7,410.9 1343.2,409.5 1342.2,410.5 1341.7,409.1 1340.6,410.1 1340.1,408.7 
						1339.1,409.7 1338.6,408.3 1337.5,409.3 1340.5,397 					"/>
				</g>
				<g>
					
						<rect x="1304.6" y="438.4" transform="matrix(0.2397 -0.9708 0.9708 0.2397 561.3778 1636.5574)" class="st21" width="42" height="42.8"/>
					
						<rect x="1325.9" y="421.7" transform="matrix(0.2397 -0.9708 0.9708 0.2397 580.7298 1627.876)" class="st19" width="7.6" height="42.8"/>
					
						<rect x="1307.4" y="438.4" transform="matrix(0.9708 0.2397 -0.2397 0.9708 144.7812 -305.8315)" class="st21" width="44.3" height="7.6"/>
					<polygon class="st18" points="1334.2,439.5 1331.1,451.8 1330.6,450.4 1329.6,451.4 1329.1,450 1328,451 1327.5,449.6 
						1326.5,450.6 1326,449.2 1324.9,450.2 1328,437.9 					"/>
				</g>
				<g>
					<g>
						
							<rect x="1338.8" y="446.9" transform="matrix(0.2397 -0.9708 0.9708 0.2397 579.1804 1676.1807)" class="st19" width="42" height="42.8"/>
						
							<rect x="1360.1" y="430.2" transform="matrix(0.2397 -0.9708 0.9708 0.2397 598.5093 1667.485)" class="st19" width="7.6" height="42.8"/>
						
							<rect x="1341.6" y="446.9" transform="matrix(0.9708 0.2397 -0.2397 0.9708 147.803 -313.784)" class="st19" width="44.3" height="7.6"/>
						<polygon class="st19" points="1368.4,447.9 1365.3,460.2 1364.8,458.8 1363.8,459.8 1363.3,458.4 1362.2,459.4 1361.7,458.1 
							1360.7,459.1 1360.2,457.7 1359.1,458.7 1362.2,446.4 						"/>
					</g>
					<g>
						
							<rect x="1341.3" y="447.5" transform="matrix(0.2397 -0.9708 0.9708 0.2397 580.4943 1679.1058)" class="st18" width="42" height="42.8"/>
						
							<rect x="1362.6" y="430.8" transform="matrix(0.2397 -0.9708 0.9708 0.2397 599.8212 1670.4087)" class="st19" width="7.6" height="42.8"/>
						
							<rect x="1344.2" y="447.5" transform="matrix(0.9708 0.2397 -0.2397 0.9708 148.0227 -314.3658)" class="st18" width="44.3" height="7.6"/>
						<polygon class="st20" points="1370.9,448.5 1367.9,460.8 1367.4,459.5 1366.3,460.4 1365.8,459.1 1364.8,460.1 1364.3,458.7 
							1363.2,459.7 1362.7,458.3 1361.6,459.3 1364.7,447 						"/>
					</g>
				</g>
			</g>
			<g>
				<path class="st6" d="M1181.7,451.6h-7.1c-1,0-1.8-0.8-1.8-1.8v-78.6c0-1,0.8-1.8,1.8-1.8h7.1c1,0,1.8,0.8,1.8,1.8v78.6
					C1183.5,450.8,1182.7,451.6,1181.7,451.6z"/>
				<path class="st6" d="M1202.4,451.6h-7.1c-1,0-1.8-0.8-1.8-1.8v-78.6c0-1,0.8-1.8,1.8-1.8h7.1c1,0,1.8,0.8,1.8,1.8v78.6
					C1204.2,450.8,1203.4,451.6,1202.4,451.6z"/>
				<path class="st6" d="M1223,451.6h-7.1c-1,0-1.8-0.8-1.8-1.8v-78.6c0-1,0.8-1.8,1.8-1.8h7.1c1,0,1.8,0.8,1.8,1.8v78.6
					C1224.8,450.8,1224,451.6,1223,451.6z"/>
				<path class="st6" d="M1243.7,451.6h-7.1c-1,0-1.8-0.8-1.8-1.8v-78.6c0-1,0.8-1.8,1.8-1.8h7.1c1,0,1.8,0.8,1.8,1.8v78.6
					C1245.5,450.8,1244.7,451.6,1243.7,451.6z"/>
				<path class="st6" d="M1264.3,451.6h-7.1c-1,0-1.8-0.8-1.8-1.8v-78.6c0-1,0.8-1.8,1.8-1.8h7.1c1,0,1.8,0.8,1.8,1.8v78.6
					C1266.1,450.8,1265.3,451.6,1264.3,451.6z"/>
			</g>
			<g>
				<g>
					<g>
						<polygon class="st19" points="1244.5,431.5 1244.5,450.6 1243.5,448.8 1242.5,450.6 1241.5,448.8 1240.6,450.6 1239.6,448.8 
							1238.6,450.6 1237.6,448.8 1236.7,450.6 1236.6,431.5 						"/>
					</g>
					<g>
						
							<rect x="1217.3" y="432.8" transform="matrix(1 -1.137019e-03 1.137019e-03 1 -0.5273 1.4142)" class="st21" width="52.3" height="63.3"/>
						
							<rect x="1217.3" y="432.8" transform="matrix(1 -1.136783e-03 1.136783e-03 1 -0.4977 1.4138)" class="st19" width="52.3" height="11.4"/>
						
							<rect x="1216" y="431.5" transform="matrix(1 -1.136402e-03 1.136402e-03 1 -0.4961 1.4128)" class="st21" width="54.1" height="11.4"/>
						<polygon class="st18" points="1247.6,431.5 1247.7,450.6 1246.7,448.8 1245.7,450.6 1244.7,448.8 1243.8,450.6 1242.8,448.8 
							1241.8,450.6 1240.8,448.8 1239.8,450.6 1239.8,431.5 						"/>
					</g>
				</g>
				<g>
					<g>
						
							<rect x="1188.1" y="458.1" transform="matrix(1.133934e-03 -1 1 1.133934e-03 728.2261 1683.2954)" class="st19" width="37.3" height="38.1"/>
						
							<rect x="1203.4" y="442.8" transform="matrix(1.137788e-03 -1 1 1.137788e-03 743.5228 1668.0443)" class="st19" width="6.7" height="38.1"/>
						
							<rect x="1187.4" y="457.7" transform="matrix(-1 -1.139337e-03 1.139337e-03 -1 2413.5754 923.5166)" class="st19" width="39.3" height="6.7"/>
						<polygon class="st19" points="1203.7,457.7 1203.7,468.9 1204.4,467.9 1205.1,469 1205.8,467.9 1206.5,469 1207.2,467.9 
							1207.9,469 1208.6,467.9 1209.4,469 1209.4,457.7 						"/>
					</g>
					<g>
						
							<rect x="1185.7" y="458.1" transform="matrix(1.138133e-03 -1 1 1.138133e-03 725.9144 1680.9788)" class="st18" width="37.3" height="38.1"/>
						
							<rect x="1201" y="442.8" transform="matrix(1.137788e-03 -1 1 1.137788e-03 741.2161 1665.7297)" class="st19" width="6.7" height="38.1"/>
						
							<rect x="1185.1" y="457.7" transform="matrix(-1 -1.135353e-03 1.135353e-03 -1 2408.9534 923.504)" class="st18" width="39.3" height="6.7"/>
						<polygon class="st20" points="1201.4,457.7 1201.4,468.9 1202.1,467.9 1202.8,468.9 1203.5,467.9 1204.2,469 1204.9,467.9 
							1205.6,469 1206.3,467.9 1207,469 1207.1,457.7 						"/>
					</g>
				</g>
			</g>
			<g>
				<path class="st7" d="M1147,414.3v0.4h-80c0.4-0.1,0.8-0.1,1.2-0.2c0,0,0,0,0.1,0l0.1-0.2H1147z"/>
			</g>
			<g class="st13">
				<path class="st36" d="M1089.7,407.1v9.5c0,1.2-1.5,1.6-2.2,0.6l-1.6-2.6c-1.3-2-1.2-4.6,0.2-6.6l1.3-1.7
					C1088.1,405.4,1089.7,405.9,1089.7,407.1z"/>
				<g class="st37">
					<path class="st38" d="M1081.4,419.1h-4c-1.3,0-2.4-1.1-2.4-2.4l0,0c0-1.3,1.1-2.4,2.4-2.4h4c1.3,0,2.4,1.1,2.4,2.4l0,0
						C1083.8,418,1082.7,419.1,1081.4,419.1z"/>
					<g>
						<g>
							
								<rect x="1081" y="411.9" transform="matrix(0.8388 -0.5444 0.5444 0.8388 -49.9836 657.311)" class="st38" width="8.2" height="2.3"/>
						</g>
						<path class="st39" d="M1083.7,417.4c-0.1,0.4-0.3,0.7-0.6,1c-0.4,0.4-1,0.7-1.7,0.7h-4c-1.3,0-2.4-1.1-2.4-2.4
							c0-0.7,0.3-1.3,0.7-1.7c0.1-0.1,0.3-0.2,0.4-0.3c-0.1,0.2-0.1,0.5-0.1,0.7c0,1.3,1.1,2.4,2.4,2.4h4
							C1082.9,417.8,1083.3,417.6,1083.7,417.4z"/>
					</g>
				</g>
			</g>
			<g>
				<g>
					
						<rect x="1081.7" y="411.9" transform="matrix(0.8388 -0.5444 0.5444 0.8388 -49.866 657.7081)" class="st40" width="8.2" height="2.3"/>
				</g>
				<path class="st40" d="M1090.4,407.1v9.5c0,1.2-1.5,1.6-2.2,0.6l-1.6-2.6c-1.3-2-1.2-4.6,0.2-6.6l1.3-1.7
					C1088.9,405.4,1090.4,405.9,1090.4,407.1z"/>
				<path class="st7" d="M1090.4,416.9c-0.2,1-1.6,1.3-2.1,0.4l-1.6-2.6c-1.3-2-1.2-4.6,0.2-6.6l1.3-1.7c0.2-0.3,0.5-0.5,0.8-0.5
					l-1,1.3c-1.4,1.9-1.5,4.5-0.2,6.6l1.6,2.6C1089.7,416.7,1090,416.9,1090.4,416.9z"/>
				<path class="st40" d="M1082.1,419.1h-4c-1.3,0-2.4-1.1-2.4-2.4l0,0c0-1.3,1.1-2.4,2.4-2.4h4c1.3,0,2.4,1.1,2.4,2.4l0,0
					C1084.6,418,1083.5,419.1,1082.1,419.1z"/>
				<path class="st7" d="M1084.4,417.4c-0.1,0.4-0.3,0.7-0.6,1c-0.4,0.4-1,0.7-1.7,0.7h-4c-1.3,0-2.4-1.1-2.4-2.4
					c0-0.7,0.3-1.3,0.7-1.7c0.1-0.1,0.3-0.2,0.4-0.3c-0.1,0.2-0.1,0.5-0.1,0.7c0,1.3,1.1,2.4,2.4,2.4h4
					C1083.6,417.8,1084.1,417.6,1084.4,417.4z"/>
			</g>
		</g>
		<g>
			<g>
				<path class="st41" d="M1439.5,391.2c-1.8,3.5-2.2,11-4,14.5c-0.9,1.7-8,11.5-13.3,16.2c-0.7-1.7-4.2,0.3-3.2-1.3
					c3.3-4.8,9.7-10.3,10.5-17.8c0.6-4.9,4.2-16.5,4.2-16.5"/>
			</g>
			<g>
				<g>
					<path class="st42" d="M1455.6,498.8c2.3-0.2,4.6-1.5,5.7-1.6c0.8-0.1,3.1-0.7,3.7-0.8c0.6-0.2-0.5-4-1.5-4.1
						c0,0-0.2,0.2-0.5,0.3c-0.5,0.3-1.4,0.6-2.7,0.5c-1.4,1.4-1.4,1.7-3.1,2.8c-0.8,0.5-1.6,1.1-2.1,1.6
						C1454.4,498.3,1454.3,498.9,1455.6,498.8z"/>
				</g>
				<path class="st43" d="M1462.9,490.6c0,0,0.4,1.6,0.7,1.9c-1.8,2-3.3,1-3.3,1l0-0.3l-0.4-2L1462.9,490.6z"/>
			</g>
			<g>
				<g>
					<path class="st42" d="M1422.5,497.8c2.3,0.5,4.9,0.1,5.9,0.3c0.8,0.2,3.2,0.4,3.8,0.4c0.7,0,0.8-3.9-0.1-4.4
						c0,0-0.2,0.1-0.6,0.2c-0.6,0.1-1.5,0.1-2.7-0.3c-1.8,0.8-1.8,1.2-3.8,1.7c-0.9,0.2-1.9,0.5-2.5,0.9
						C1421.5,497,1421.2,497.5,1422.5,497.8z"/>
				</g>
				<path class="st43" d="M1432,492.3c0,0-0.1,1.6,0,2c-2.3,1.4-3.4-0.1-3.4-0.1l0.1-0.3l0.2-2L1432,492.3z"/>
			</g>
			<g>
				<path class="st6" d="M1452.6,430.3c0,0,4.9-9.8-2-17.6c0,0-6.5,2.4-11.5,2.4c-4,0-6-0.5-6-0.5s-1.4,7.3-1.6,18.9L1452.6,430.3z"
					/>
				<path class="st6" d="M1437.4,464C1437.4,464,1437.4,464,1437.4,464c0,9.9-3.4,22.6-4.6,29.8c-0.1,0-0.3,0-0.4,0
					c-2.6-0.1-4.1-0.5-4.1-0.5l0-0.8c0.9-11.6,0.7-30.6,0.8-36.5c0-0.4,0-0.8,0.1-1.1c0.7-4.4,5.2-3.5,6.9,0.6
					c0.3,0.7,0.5,1.4,0.7,2.2c0.1,0.3,0.1,0.6,0.2,1v0c0.2,1,0.3,2.1,0.4,3.3v0.1c0,0.3,0,0.6,0.1,1v0.1
					C1437.4,463.3,1437.4,463.6,1437.4,464z"/>
				<path class="st6" d="M1444.4,434.4c0,0.1-0.1,0.2-0.1,0.4c-1.1,4.2-4,14.2-6,20.3l0,0c0,0,0,0,0,0c-0.5,1.4-0.9,2.6-1.2,3.4v0
					c-0.2,0.4-0.6,0.8-1.2,1c-0.3,0.1-0.6,0.2-0.9,0.3c-2.3,0.5-5.6-0.6-5.7-5.1c0-0.5,0-1.1,0.1-1.6c0.5-3.7,2.6-24,2.9-25.9
					c0.3-2,0.8-4.8,1.9-5.1C1439.4,420.6,1446.2,427.1,1444.4,434.4z"/>
				<path class="st42" d="M1437.2,456.8l1-1.7c0,0,0,0,0,0c-0.1,0.4-0.9,3.4-0.9,6.7v0.1c0,0.3,0,0.6,0.1,1v0.1c0,0.5,0,0.9,0,1
					c0,0,0,0,0,0c-0.2,0.8-1.4-3.4-1.6-4.4c0-0.1-0.1-0.2-0.1-0.2l1-1.8L1437.2,456.8z"/>
				<path class="st44" d="M1444.3,434.8c-1.1,4.2-4,14.2-6,20.3c0,0,0,0,0,0c0,0,0,0,0,0c-0.1,0.4-0.9,3.4-0.9,6.7v0.1
					c0,0.3,0,0.6,0.1,1v0.1c0,0.3,0,0.7,0,1c0,0,0,0,0,0c0,9.9-3.4,22.6-4.6,29.7c-0.1,0-0.3,0-0.4,0c0,0,1.4-11.8,3-19.9
					c1.2-6.3,0.1-11.8-0.5-14c-0.2-0.6-0.3-1-0.3-1l1.5-3.5c1.7-4.5,2.4-15.4,2.4-15.4c-3-7.8-2.8-17.5-2.8-17.5l2.9,0.6l4.9,6.7
					L1444.3,434.8z"/>
				<path class="st6" d="M1453.3,456.2c-3.3-3.5-8.3-2.3-6.3,3c2.1,5.6,8.7,21.3,12.1,32.4l0.2,0.7c0,0,1.7-0.2,4.4-1.1
					c-1.5-7.1-2.1-19.3-5.7-28C1456.9,460.3,1455,458,1453.3,456.2z"/>
				<g>
					<g>
						<path class="st6" d="M1435.6,422.6c-0.2-8.2,9.6-2.1,14.3,0.9c2,1.3,2.6,3.6,2.7,5.7c0.1,2.1,1.4,24.2,1.7,28.3
							c0.6,9.1-6.9,3.7-7.5,1.1C1445.3,452.1,1435.7,427,1435.6,422.6z"/>
					</g>
				</g>
				<path class="st6" d="M1454,451.8c0,0,0,4.3,3.3,9.9c0,0-5.8-3.1-6-3.5c-0.3-0.4-1-4.7-0.9-5.1
					C1450.6,452.6,1454,451.8,1454,451.8z"/>
			</g>
			<path class="st43" d="M1430.4,359.3c0,0-1.5,14.5,9.4,11.5c0.6,0.1,3.9-0.8,4.4-5.2c0.5-4.4-2-9.1-2.2-9.2
				c-0.2-0.1-7.1-0.3-7.4-0.3S1430.4,359.3,1430.4,359.3z"/>
			<path class="st45" d="M1439.6,363c0,0-1.7-0.8-1.3-3.1c0.4-2.3,0.1-2.4-1.5-1.5c-1.7,1-10.1,5.6-8.7-5.2c1,0.6,4.1,0.5,4.7-0.8
				c0.6-1.3,7.8-5,10.5,0.3c1.9,0.1,4.1,2.2,3.8,6.5c-0.2,4.3-1.8,9.8-3.4,10.1c-1.6,0.3-2.4-1-2.4-3c0.1-1,3.1-2.4,0.9-5.6
				C1441.4,359.7,1438.7,360.6,1439.6,363z"/>
			<path class="st43" d="M1441.7,369.5c0,0-0.3,3.1,0.7,4.4c-2.3,1.8-6.6,1.4-6.6,1.4s1.3-1.3,0-5.7
				C1434.5,365.2,1441.7,369.5,1441.7,369.5z"/>
			<path class="st8" d="M1429.2,393.2c0,0,3,2.4,5.3,2.6l-1.2-13.3l-1.2,3.2L1429.2,393.2z"/>
			<path class="st12" d="M1429.2,393.2c0,0,3,2.4,5.3,2.6l-0.8-13.4l-0.3,0.1c-0.6,1.7-1.6,5.4-1.4,9c0,0.3,0,1.8,0,2.4
				C1431.8,394.3,1430.2,393.5,1429.2,393.2z"/>
			<path class="st8" d="M1431.5,414.1c0,0,0.1,0.1,0.4,0.2c1.7,0.7,9.3,3,18.7-1.7c1.2-0.6,1.2-0.6,1.2-0.6s-1.5-3.5-1.8-13.5
				c-0.3-10.1,0-11.2-1.7-16.2c-1.5-4.4-6.3-9.7-6.3-9.7s-4.5,2.8-6.1,2.8c-2,5-4.2,11.4-3.4,16.1c0.5,3.1,0,12.2-0.5,17.9
				C1431.7,412.1,1431.5,414.1,1431.5,414.1z"/>
			<path class="st12" d="M1431.5,414.1c0,0,0.1,0.1,0.4,0.2c4-3.1,9.3-7.6,10.7-9.6c1.7-2.3,2.3-6.3,2.5-8.1c0.3,0,0.6,0,0.8,0
				c1.4-6.9-0.9-13.1-0.9-13.1l-7.4,2.7l-2.8,8.3c0,0,2.1,0.9,3.7,1.3c-0.3,2.5-0.8,6.6-1.2,7.5c-0.3,0.7-2.9,3.5-5.5,6.1
				C1431.7,412.1,1431.5,414.1,1431.5,414.1z"/>
			<path class="st46" d="M1425.8,399.3"/>
			<g>
				<g>
					
						<rect x="1404.4" y="398.2" transform="matrix(1.136991e-03 -1 1 1.136991e-03 1004.2861 1827.5771)" class="st18" width="25.2" height="25.7"/>
					
						<rect x="1414.7" y="387.9" transform="matrix(1.133591e-03 -1 1 1.133591e-03 1014.6339 1817.2708)" class="st19" width="4.6" height="25.7"/>
					
						<rect x="1403.9" y="397.9" transform="matrix(-1 -1.137435e-03 1.137435e-03 -1 2833.9392 802.0612)" class="st18" width="26.6" height="4.6"/>
					<polygon class="st20" points="1414.9,397.9 1414.9,405.6 1415.4,404.8 1415.9,405.6 1416.4,404.8 1416.8,405.6 1417.3,404.8 
						1417.8,405.6 1418.3,404.8 1418.8,405.6 1418.8,397.9 					"/>
				</g>
			</g>
			<g>
				<g>
					<path class="st43" d="M1423.9,421.3c0,0.8-1.5,2.8-2.6,3.1c-0.4,0.1-0.7,0.1-1.1,0c-0.5,0.2-2.1,0.4-1.5-0.6
						c-1,0.8-2.2,0.8-3.5,0.7c-0.4,0-0.4-0.5,0.5-0.8c1.3-0.3,2.3-1.2,3-2.4c-0.2-0.2-0.4,0.1-0.9,0.2c-0.6,0.1-0.9-0.2-0.9-0.4
						c0-0.2,0.7-0.4,0.9-0.5c0.6-0.4,1.2-0.8,1.8-1.1c0.7-0.4,1.1-0.6,1.9-0.7c0.1,0,1.4,0.1,1.1,0.5"/>
				</g>
				<path class="st43" d="M1445,391.9c-1.6,3.2-5.7,13.6-6.3,14.8c-2.5,4.7-15.2,15-15.2,15s-2.1-0.4-2.1-2.5
					c3.6-2.5,10.5-13.1,11.9-14.4c0.9-0.8,5.2-17.4,5.2-17.4"/>
			</g>
			<path class="st8" d="M1445,383.1c0,0,1.4,5.7,0,12.6c-5.7,0.3-10-1.2-10-1.2l1.8-9.3"/>
		</g>
		<g>
			<g>
				<path class="st41" d="M1173.8,427.4c2.2,2.6,4.1,8.9,6.4,11.5c1.1,1.3,9.2,8.1,14.6,11.1c0.2-1.6,3.7-0.6,2.4-1.7
					c-3.8-3.4-10.4-6.8-12.7-13c-1.5-4.1-7-13.1-7-13.1"/>
			</g>
			<g>
				<g>
					
						<rect x="1187.5" y="429" transform="matrix(1 -1.135339e-03 1.135339e-03 1 -0.4988 1.3613)" class="st21" width="22.5" height="22.1"/>
					
						<rect x="1187.5" y="429" transform="matrix(1 -1.137745e-03 1.137745e-03 1 -0.4895 1.3641)" class="st19" width="22.5" height="4"/>
					
						<rect x="1186.9" y="428.5" transform="matrix(1 -1.137518e-03 1.137518e-03 1 -0.4889 1.3637)" class="st21" width="23.3" height="4"/>
					<polygon class="st18" points="1200.6,428.5 1200.6,435.2 1200.1,434.5 1199.7,435.2 1199.3,434.5 1198.9,435.2 1198.5,434.5 
						1198,435.2 1197.6,434.5 1197.2,435.2 1197.2,428.5 					"/>
				</g>
			</g>
			<g>
				<path class="st47" d="M1164.3,515.8c0,0-0.8,4.4-0.6,5c0.3,0.6,1.2,2.2,2.1,2.7c1,0.6,3.2,1.3,3.3,1.6c0.2,0.3,0.2,0.7-0.1,0.9
					c-0.8,0.6-2.1,1-3.1,0.9c-2.9-0.4-3.3-1.7-5-1.9c-0.3,0-0.8,0.4-1.7,0c-0.8-0.4-1.2-1.1-1.2-1.8c0.1-1.2,0.8-2.2,1.2-3.2
					c0.5-0.9,0.7-5,0.7-5"/>
				<path class="st48" d="M1170.9,441.7l-11.6,0.3c0,0-4.5,6.4-2.6,12.5c0.9,3,2.1,4.5,2.6,5.9c0.5,1.3,3.9,20.1,3.8,21.5
					c-0.2,1.4-1.7,5.3-2.2,9.4c-0.6,4.9-0.1,20.8-0.6,25c1.5,0.8,2.7,0.8,4,0.7c1.5-12.2,5.6-28.7,6.1-34.8
					C1170.7,476.1,1171.5,456.5,1170.9,441.7z"/>
				<g>
					<path class="st49" d="M1169.8,461.9c0,0-8.1-17.2-9.7-13.4c-2.6,6.2,2.3,9.6,2.3,9.6c1.9,3.1,6.3,20.6,6.5,24.3
						c0.1,1.9,0,3.9,0.1,5.8c0,0.1,0.1,0.4,0.1,0.6c0.5-2.9,0.9-5.4,1-6.9c0.4-4.3,0.2-11.2-0.1-20
						C1169.9,461.9,1169.9,461.9,1169.8,461.9z"/>
				</g>
				<path class="st45" d="M1169.3,526.2c0.2-0.4,0.2-0.9,0-1.1c-0.3-0.2-1.3-0.8-1.8-1.1c-0.6-0.2-1.5-0.5-1.2-0.3
					c0.3,0.2-0.2,0.8-0.8,0.8c-1.8-0.1-3.2-1.3-4.3-1.5c-1.5-0.3-2.2-2.1-2.3-2.4c-0.3,0.2-0.9,1.6-1,2.1c-0.1,0.4-0.3,1.2-0.2,1.6
					c0.1,0.3,0.3,0.9,0.2,1.5c0,0,0.3,0.2,1.1,0.4c0.5,0.1,1.2,0,1.2,0l0.1-0.9c0,0,0.4,0,0.9,0.1s1.4,0.6,1.4,0.6
					c0.2,0.2,0.4,0.7,0.7,0.8c0.7,0.4,1.5,0.5,2.4,0.5C1167.9,527.4,1169,526.8,1169.3,526.2z"/>
			</g>
			<g>
				<path class="st47" d="M1174,517.6c1.3,0,2.4,0,3.7,0.1c-0.1,2.3,0.3,4,0.4,4.1c0.3,0.6,1.5,2,2.6,2.4c1.1,0.4,3.4,0.8,3.6,1
					c0.2,0.2,0.3,0.6,0,0.9c-0.7,0.8-2.1,1.3-3,1.3c-3.1,0-3.6-1.2-5.4-1.1c-0.3,0-0.8,0.5-1.7,0.3c-0.9-0.3-1.4-0.9-1.5-1.7
					c-0.1-1.2,0.9-2.4,1.3-3.3C1174,521.5,1173.9,517.9,1174,517.6z"/>
				<path class="st48" d="M1162.3,440.3l11.6,3c3.5,14.1,6,29.8,5.7,38.7c-0.2,5.1-1.6,26.3-1.7,35c0,0.2,0,0.5,0,0.8
					c-1.3,0-2.6-0.1-3.8-0.1c0-0.1,0-0.2,0-0.3c-0.4-5.3-2.7-19.3-2.7-23.9c0-5.4,1.5-10.4,1.5-10.4s-7.9-22.8-8.4-24.2
					c-0.5-1.4-3.6-1.9-4.3-5.6C1158.8,446.9,1162.3,440.3,1162.3,440.3z"/>
				<path class="st45" d="M1184.5,526.3c0.2-0.4,0.1-0.9-0.1-1c-0.3-0.1-1.4-0.6-2-0.8c-0.6-0.2-1.6-0.2-1.2-0.1
					c0.4,0.1-0.2,0.8-0.7,0.9c-1.9,0.2-3.5-0.8-4.6-0.8c-1.6-0.1-2.2-1.8-2.3-2c-0.3,0.2-1,1.8-1.1,2.2c-0.1,0.4-0.2,1.2,0,1.6
					c0.1,0.3,0.4,0.8,0.4,1.5c0,0,0.3,0.2,1.2,0.2c0.5,0,1.2-0.2,1.2-0.2l0-1c0,0,0.4-0.1,1-0.1c0.6,0,1.2,0.3,1.6,0.5
					c0.3,0.2,0.5,0.5,0.9,0.6c0.9,0.2,1.5,0.3,2.5,0.2C1183.1,527.8,1184.2,527,1184.5,526.3z"/>
			</g>
			<g>
				<path class="st8" d="M1172.9,410.9c0.8,0.3,0.5,2.2,1.3,2.4c0.6,0.2,1.7-0.1,2.2,0.2c2.8,1.6,2.1,4.7,2.5,8.6
					c1.2,3,1.6,5.7,0.6,7.4c-1.2,2.1-2.4,2.7-3.8,4.4c-1.1,1.3-1.4,3.9-1.6,6.8c0,0.5,0.4,1.3,0.3,1.8c-0.2,0.9-1.6,1.2-3.2,1.3
					c-3.6,0.1-9-1.1-10.6-1.1c-1.5,0.1-2.9-0.6-2.8-1.5c0.1-0.6,0.7-0.9,0.9-2.1c0.5-2.6,0.9-9.2,1.3-11.4c1-5.7,1.8-10,4-15.2"/>
			</g>
			<g class="st37">
				<path class="st2" d="M1181.1,424.5c-0.9-1.5-2.1-2.9-3.3-4.2l-3,1.4c1.5,2.7,1.8,6,2.4,9c0.7,0.1,1.8-0.2,1.8-0.2
					c0.3-0.5,0.2-0.2,0.6-0.9C1180.2,428.4,1181,426.5,1181.1,424.5z"/>
			</g>
			<path class="st47" d="M1183,403.1c0.3-1.3,0.5-2.8,0.5-3.9c-0.1-2.3-0.4-5.5-4.2-6.8c-3.8-1.3-7.9-0.5-9.1,2.3
				c-1.2,2.7-0.9,6.8-1,9c-0.2,2.2-1.7,4.8-1.7,4.8l8.1,3.4c0,0,1.3-2.9,1.8-3.2c0.5-0.3,0.7,1,2.5,0.8c0.8-0.1,1.6-1.5,2.2-3.2
				c0-0.1,0-0.1,0.1-0.2c0.4,0,0.9-0.1,1-0.1c0.6-0.2,0.5-0.4,0.4-0.8C1183.2,404.5,1183.1,403.7,1183,403.1z"/>
			<g>
				<path class="st47" d="M1194.7,449.3c0,0.7,1.3,2.4,2.3,2.7c0.3,0.1,0.7,0.1,0.9,0c0.4,0.2,1.8,0.3,1.3-0.5
					c0.9,0.7,1.9,0.7,3,0.6c0.4,0,0.4-0.5-0.5-0.7c-1.1-0.3-2-1-2.6-2.1c0.2-0.1,0.3,0.1,0.8,0.2c0.5,0.1,0.8-0.2,0.8-0.4
					c0-0.2-0.6-0.4-0.7-0.5c-0.5-0.3-1-0.7-1.6-1c-0.6-0.4-0.9-0.5-1.6-0.6c-0.1,0-1.2,0.1-0.9,0.5"/>
			</g>
			<path class="st47" d="M1176.2,423.6c1.4,2.8,5,11.9,5.5,13c2.2,4.2,13.3,13.1,13.3,13.1s1.9-0.3,1.8-2.2
				c-3.2-2.2-9.2-11.5-10.4-12.6c-0.8-0.7-4.5-15.2-4.5-15.2"/>
			<path class="st8" d="M1179.1,413.3c-3.1-1.1-6-1.1-8.4-3.5c-2.4,1.9,3,12.4,4.3,12.7c1.3,0.3,3.1,6.1,3.5,6.9
				c4.3-0.2,5.8-2.5,5.8-2.5C1182.5,421.7,1182.1,414.4,1179.1,413.3z"/>
			<g>
				<path class="st45" d="M1176.6,413.6c-0.2-0.8-0.8-1.4-1-2.2c-0.1-0.8,0-1.8,0.4-2.4c0.3-0.4,0.7-0.7,1-1
					c1.7-1.4,2.3-2.5,1.7-4.4c-0.2-0.7-0.4-1.3-0.3-2c0.1-0.6,0.2-1.3,0.8-1.3c0.5-0.1,0.8,0,0.9,0.4c0.1,0.3-0.1,2.2,0.5,1.1
					c0.6-1.1,1.1-1.1,1.1-3.6c0-0.3-0.1-1.5,0.1-1.6c1.1,0.8,1.5,2.2,1.6,3.2c0.8-0.4,1.1-1.6,1.1-2c0-1-0.1-1.7-0.5-2.4
					c-1.5-3.1-3.1-3.7-4.4-4.2c-1.3-0.5-2.6-1.1-4-1c-1.4,0.1-3.1,0.5-3.5,1.5c-1.9-0.5-3,1.2-3.5,1.8c-0.6,0.9-1.1,1.8-1.5,2.9
					c-0.5,1.5-0.6,3.1-0.9,4.7c-0.3,1.3-0.8,2.6-1.8,3.5c-0.9,0.9-2.2,0.9-3.2,1.7c-1.3,1-2,2.6-1.9,4.3c0.1,1.6,0.9,3.4,0,4.9
					c-0.3,0.5-0.8,0.9-1.1,1.4c-0.7,1.1-0.6,2.7,0.1,3.8c0.7,1.1,2.1,2.4,3.3,2.8c1.3,0.4,2.3,0.5,3.6,0.5c2.3-0.2,4.3,0,6.7-2.2
					c1.4-1.2,0.5-1.9,1.8-3.2c0.7-0.7,1.8-1.1,2.3-2C1176.8,415.5,1176.8,414.6,1176.6,413.6
					C1176.6,413.7,1176.6,413.7,1176.6,413.6z"/>
			</g>
		</g>
		<g>
			<g>
				<circle class="st50" cx="1154.6" cy="254.4" r="4.1"/>
				<circle class="st50" cx="1260.8" cy="106.7" r="4.1"/>
				<path class="st51" d="M1483.5,116.8c0,1.1-0.9,1.9-1.9,1.9c-1.1,0-1.9-0.9-1.9-1.9c0-1.1,0.9-1.9,1.9-1.9
					C1482.7,114.9,1483.5,115.7,1483.5,116.8z"/>
				<path class="st51" d="M1087.5,279c0,1.1-0.9,1.9-1.9,1.9c-1.1,0-1.9-0.9-1.9-1.9c0-1.1,0.9-1.9,1.9-1.9
					C1086.6,277.1,1087.5,277.9,1087.5,279z"/>
				<circle class="st50" cx="1488.8" cy="202" r="4.1"/>
				<circle class="st50" cx="1577.9" cy="341.2" r="4.1"/>
			</g>
			<g>
				<g>
					<line class="st52" x1="1385.6" y1="115.7" x2="1385.6" y2="121.8"/>
					<line class="st52" x1="1388.6" y1="118.7" x2="1382.6" y2="118.7"/>
				</g>
				<g>
					<line class="st52" x1="1558" y1="169.5" x2="1558" y2="175.5"/>
					<line class="st52" x1="1561" y1="172.5" x2="1555" y2="172.5"/>
				</g>
				<g>
					<line class="st52" x1="1577.9" y1="394.8" x2="1577.9" y2="400.8"/>
					<line class="st52" x1="1580.9" y1="397.8" x2="1574.9" y2="397.8"/>
				</g>
				<g>
					<line class="st52" x1="1109.4" y1="183.4" x2="1109.4" y2="189.5"/>
					<line class="st52" x1="1112.5" y1="186.5" x2="1106.4" y2="186.5"/>
				</g>
				<g>
					<line class="st52" x1="1139.3" y1="338.3" x2="1139.3" y2="344.4"/>
					<line class="st52" x1="1142.3" y1="341.4" x2="1136.2" y2="341.4"/>
				</g>
				<g>
					<line class="st52" x1="1246.8" y1="177.2" x2="1246.8" y2="183.2"/>
					<line class="st52" x1="1249.9" y1="180.2" x2="1243.8" y2="180.2"/>
				</g>
				<circle class="st50" cx="345" cy="361.6" r="4.1"/>
				<circle class="st50" cx="670" cy="394.2" r="12.2"/>
				<circle class="st50" cx="451.2" cy="213.9" r="4.1"/>
				<circle class="st50" cx="567.2" cy="186.5" r="4.1"/>
				<path class="st51" d="M278,386.2c0,1.1-0.9,1.9-1.9,1.9c-1.1,0-1.9-0.9-1.9-1.9c0-1.1,0.9-1.9,1.9-1.9
					C277.1,384.3,278,385.2,278,386.2z"/>
				<g>
					<line class="st52" x1="299.9" y1="290.7" x2="299.9" y2="296.7"/>
					<line class="st52" x1="302.9" y1="293.7" x2="296.9" y2="293.7"/>
				</g>
				<g>
					<line class="st52" x1="232.9" y1="282.8" x2="232.9" y2="304.6"/>
					<line class="st52" x1="243.8" y1="293.7" x2="222" y2="293.7"/>
				</g>
				<g>
					<line class="st52" x1="437.3" y1="284.4" x2="437.3" y2="290.5"/>
					<line class="st52" x1="440.3" y1="287.4" x2="434.3" y2="287.4"/>
				</g>
			</g>
		</g>
		<g>
			<g>
				<g>
					<polygon class="st19" points="1491.1,422.6 1491.1,435.1 1491.7,433.9 1492.3,435.1 1493,433.9 1493.6,435.1 1494.2,433.9 
						1494.9,435.1 1495.5,433.9 1496.2,435.1 1496.2,422.6 					"/>
				</g>
				<g>
					
						<rect x="1471" y="427.1" transform="matrix(1.135963e-03 -1 1 1.135963e-03 1045.8292 1935.3945)" class="st21" width="41.4" height="34.2"/>
					
						<rect x="1488" y="410.1" transform="matrix(1.128023e-03 -1 1 1.128023e-03 1062.8121 1918.4846)" class="st19" width="7.5" height="34.2"/>
					
						<rect x="1474.3" y="422.6" transform="matrix(-1 -1.138850e-03 1.138850e-03 -1 2983.5471 854.4708)" class="st21" width="35.4" height="7.5"/>
					<polygon class="st18" points="1489,422.6 1489,435.1 1489.6,433.9 1490.3,435.1 1490.9,433.9 1491.5,435.1 1492.2,433.9 
						1492.8,435.1 1493.4,433.9 1494.1,435.1 1494.1,422.6 					"/>
				</g>
			</g>
			<g>
				<g>
					
						<rect x="1503.3" y="440.5" transform="matrix(1 -1.135450e-03 1.135450e-03 1 -0.5131 1.7214)" class="st19" width="24.9" height="24.4"/>
					
						<rect x="1503.3" y="440.5" transform="matrix(1 -1.131234e-03 1.131234e-03 1 -0.4999 1.7149)" class="st19" width="24.9" height="4.4"/>
					
						<rect x="1502.7" y="440" transform="matrix(1 -1.138716e-03 1.138716e-03 1 -0.5026 1.7261)" class="st19" width="25.7" height="4.4"/>
					<polygon class="st19" points="1517.7,440 1517.8,447.4 1517.3,446.7 1516.8,447.4 1516.4,446.7 1515.9,447.4 1515.4,446.7 
						1515,447.4 1514.5,446.7 1514,447.4 1514,440 					"/>
				</g>
				<g>
					
						<rect x="1504.8" y="440.5" transform="matrix(1 -1.136275e-03 1.136275e-03 1 -0.5134 1.7243)" class="st18" width="24.9" height="24.4"/>
					
						<rect x="1504.8" y="440.5" transform="matrix(1 -1.135798e-03 1.135798e-03 1 -0.5019 1.7236)" class="st19" width="24.9" height="4.4"/>
					
						<rect x="1504.2" y="440" transform="matrix(1 -1.138716e-03 1.138716e-03 1 -0.5026 1.7278)" class="st18" width="25.7" height="4.4"/>
					<polygon class="st20" points="1519.3,440 1519.3,447.4 1518.8,446.7 1518.3,447.4 1517.9,446.7 1517.4,447.4 1516.9,446.7 
						1516.5,447.4 1516,446.7 1515.5,447.4 1515.5,440 					"/>
				</g>
			</g>
		</g>
		<g class="st53">
			<rect x="228.1" y="121" class="st6" width="3.8" height="12.2"/>
			<rect x="316.2" y="121" class="st6" width="3.8" height="12.2"/>
			<path class="st7" d="M282.6,132.3h-18.5c-1.9,0-3.4-1.5-3.4-3.4V125c0-1.9,1.5-3.4,3.4-3.4h18.5c1.9,0,3.4,1.5,3.4,3.4v3.9
				C286,130.7,284.5,132.3,282.6,132.3z"/>
			<rect x="232.9" y="132.3" class="st7" width="82.3" height="2.5"/>
			<path class="st7" d="M230,149.8L230,149.8c-3.3,0-6-2.7-6-6v-7.7c0-3.3,2.7-6,6-6l0,0c3.3,0,6,2.7,6,6v7.7
				C236,147.1,233.3,149.8,230,149.8z"/>
			<rect x="206.1" y="118.1" class="st30" width="47.8" height="0.9"/>
			<path class="st7" d="M318.1,149.8L318.1,149.8c-3.3,0-6-2.7-6-6v-7.7c0-3.3,2.7-6,6-6l0,0c3.3,0,6,2.7,6,6v7.7
				C324.2,147.1,321.5,149.8,318.1,149.8z"/>
			<rect x="294.2" y="118.1" class="st6" width="47.8" height="0.9"/>
			<rect x="269.3" y="156" class="st7" width="8.2" height="4.4"/>
			<g>
				<g>
					<g>
						
							<rect x="251.8" y="164.8" transform="matrix(1.135938e-03 -1 1 1.135938e-03 86.2323 459.2556)" class="st21" width="42.4" height="43.2"/>
						
							<rect x="269.2" y="147.5" transform="matrix(1.146772e-03 -1 1 1.146772e-03 103.6006 441.9417)" class="st19" width="7.7" height="43.2"/>
						
							<rect x="251.1" y="164.4" transform="matrix(-1 -1.136918e-03 1.136918e-03 -1 546.5794 336.792)" class="st21" width="44.7" height="7.7"/>
						<polygon class="st18" points="269.6,164.4 269.5,177.2 270.4,176 271.2,177.2 272,176 272.8,177.2 273.6,176 274.4,177.2 
							275.2,176 276,177.2 276,164.4 						"/>
					</g>
				</g>
				<polyline class="st54" points="255.1,207.9 248.4,207.9 248.4,160.4 298.3,160.4 298.3,207.7 290.4,207.7 				"/>
			</g>
			<path class="st55" d="M287.6,157h-27c-2.5,0-4.5-2-4.5-4.5v-21.1c0-2.5,2-4.5,4.5-4.5h27c2.5,0,4.5,2,4.5,4.5v21.1
				C292.1,155,290.1,157,287.6,157z"/>
			<path class="st56" d="M284,153.6h-19.8c-2.3,0-4.1-1.8-4.1-4.1v-15.2c0-2.3,1.8-4.1,4.1-4.1H284c2.3,0,4.1,1.8,4.1,4.1v15.2
				C288.1,151.8,286.3,153.6,284,153.6z"/>
			<g>
				<rect x="229.1" y="119.1" class="st7" width="1.8" height="2.3"/>
				<path class="st30" d="M232.1,118.7c0,1.1-4.1,1.1-4.1,0s0.9-2,2-2C231.1,116.7,232.1,117.6,232.1,118.7z"/>
			</g>
			<g>
				<rect x="317.2" y="119.1" class="st7" width="1.8" height="2.3"/>
				<path class="st30" d="M320.2,118.7c0,1.1-4.1,1.1-4.1,0s0.9-2,2-2S320.2,117.6,320.2,118.7z"/>
			</g>
		</g>
	</g>
</g>
<g>
	<g>
		<g>
			<g class="st57">
				<path class="st7" d="M1709.5,272.3c0-4.3,0.8-8.5,2.4-12.6c1.6-4.1,3.9-7.9,6.9-11.2c3-3.4,6.7-6.1,11.1-8.1s9.3-3,14.9-3
					c6.6,0,12.3,1.4,17.2,4.3c4.9,2.8,8.5,6.5,10.8,11.1l-12.5,8.7c-1.1-2.5-2.5-4.5-4.2-5.8c-1.8-1.4-3.7-2.4-5.7-2.9
					c-2.1-0.6-4.1-0.8-6-0.8c-3.1,0-5.8,0.6-8.1,1.8s-4.2,2.9-5.7,4.9s-2.6,4.3-3.4,6.8c-0.7,2.5-1.1,5-1.1,7.5c0,2.8,0.4,5.4,1.3,8
					s2.1,4.9,3.7,6.8c1.6,2,3.6,3.6,5.9,4.7c2.3,1.2,4.9,1.7,7.6,1.7c2,0,4-0.3,6-1c2-0.7,3.9-1.7,5.7-3.1c1.7-1.4,3.1-3.3,4-5.6
					l13.3,7.8c-1.4,3.4-3.7,6.4-6.8,8.8c-3.2,2.4-6.8,4.3-10.7,5.6c-4,1.3-7.9,1.9-11.8,1.9c-5.1,0-9.8-1-14-3.1
					c-4.3-2.1-7.9-4.9-11-8.3c-3.1-3.5-5.4-7.4-7.1-11.7C1710.3,281.2,1709.5,276.8,1709.5,272.3z"/>
				<path class="st7" d="M1781.6,308v-70h16v70H1781.6z"/>
				<path class="st7" d="M1864.6,252h-21v56h-16v-56h-22v-14h59V252z"/>
				<path class="st7" d="M1883.5,238l15.1,30.9l15.3-30.9h17.6l-24.9,46.1V308h-16v-24.1l-24.5-45.9H1883.5z"/>
				<path class="st7" d="M2015.6,290c0,4-1.1,7.4-3.2,10.1s-5,4.7-8.7,6c-3.6,1.3-7.6,2-11.9,2h-34.2v-70h38.9
					c3.3,0,6.2,0.9,8.6,2.6c2.4,1.8,4.3,4,5.5,6.8c1.3,2.8,1.9,5.6,1.9,8.6c0,3.3-0.9,6.5-2.6,9.5c-1.7,3-4.2,5.3-7.5,6.8
					c4,1.2,7.2,3.3,9.6,6.3C2014.4,281.3,2015.6,285.2,2015.6,290z M1974.6,251.9V266h15.4c1.2,0,2.2-0.3,3.2-0.8s1.8-1.3,2.4-2.3
					c0.7-1.1,1-2.4,1-4s-0.3-2.8-0.8-3.9c-0.6-1.1-1.3-1.8-2.1-2.3c-0.9-0.6-1.9-0.8-3.1-0.8H1974.6L1974.6,251.9z M1999.2,286.6
					c0-1.5-0.3-2.8-0.9-3.9c-0.6-1.2-1.4-2-2.2-2.7c-1-0.7-2-1-3.3-1h-18.2v15h17.5c1.4,0,2.5-0.3,3.6-1c1.1-0.7,1.9-1.6,2.5-2.6
					C1999,289.2,1999.2,288,1999.2,286.6z"/>
				<path class="st7" d="M2127.5,238l15.2,24.2l15.2-24.2h17.5l-23.2,35.5l22.4,34.5h-17.5l-14.5-23.2l-14.4,23.2h-17.6l22.4-34.5
					l-23.2-35.5H2127.5L2127.5,238z"/>
			</g>
			<path class="st10" d="M2070.6,261.3l-45-15.1v50.7l46.6,14.6L2070.6,261.3z M2059.4,235l-33.4,11.1l0,0l44.9,13.9l31.7-14.9
				L2059.4,235z M2102.6,245.1l-31.5,16.2l1.3,50.2l0,0l30.2-16.1V245.1L2102.6,245.1z"/>
		</g>
		<g>
			<g>
				<path class="st10" d="M1903.8,146.7l0.9-11.2c0,0,1.3-7.9,11-7.7c9.6,0.3,127.5-3.7,127.5-3.7s-7.9,19.4-25.7,19.4
					C1999.7,143.5,1903.8,146.7,1903.8,146.7z"/>
				<path class="st10" d="M1906.8,124.1l0.6-8.4c0,0,0.3-11,12.3-10.7c12.2,0.3,151.5-4.3,151.5-4.3s-7.9,19.8-24.9,19.8
					C2029.2,120.5,1906.8,124.1,1906.8,124.1z"/>
				<path class="st10" d="M1900.7,168.6l1.3-10.5c0,0,0.8-8.2,10.6-8.2c9.8,0,100.9-2.4,100.9-2.4s-3.7,16.4-22.3,19.2L1900.7,168.6
					z"/>
				<path class="st10" d="M1829.7,184.2c0,0-3.8-9.3,2.3-14.5c6-5.2,14.9-2.6,17.3,0.9c0,0-2.1-8.3-10.8-7.8
					c-5,0.4-9.7,3.3-11.8,7.9C1825.7,172.5,1823.2,179.9,1829.7,184.2z"/>
				<path class="st10" d="M1903.2,122.6c0.1-1.1-0.8-2.1-1.9-2l-24.6,1.4c-3.9,0.3-7.8,1.3-11.2,3.3c-2.8,1.6-5.3,3.9-5.9,7.1
					c-1.5,7.2-1.5,11.1-1.5,11.1s-25.6,0.1-37.7,5.8c0,0-2.6,0.8-9.2,21.9c-0.1,0.4,0.1,0.8,0.5,0.8h7.4c2.4,0,4.5-1.3,5.5-3.4v-0.1
					c0,0,4.9-8.8,14.1-8.7c9.1,0.1,13.2,8.4,13.7,11.5l41.7-1.3c1.3,0,2.3-0.9,2.4-2.1L1903.2,122.6z M1881.8,134.2l-3.4,24
					c-0.1,1.3-0.3,2.3-0.6,2.9c-0.4,1.1-1.5,1.8-2.6,1.9l-16.5,1v-2.7l15.1-0.9c1.3-0.1,2.3-1,2.5-2.3l1.9-14c0.1-0.6-0.4-1.1-1-1.1
					h-15.1l0.9-9.7c0.1-5.3,4.4-4.3,4.4-4.3l9.8,0.1C1883.2,128.3,1881.8,134.2,1881.8,134.2z"/>
			</g>
			<rect x="1786.6" y="197" class="st10" width="310" height="5"/>
		</g>
	</g>
</g>
</svg>