<?xml version="1.0" encoding="utf-8"?>
<!-- Generator: Adobe Illustrator 25.2.0, SVG Export Plug-In . SVG Version: 6.00 Build 0)  -->
<svg version="1.1" id="Layer_1" xmlns="http://www.w3.org/2000/svg" xmlns:xlink="http://www.w3.org/1999/xlink" x="0px" y="0px"
	 viewBox="0 0 600 600" style="enable-background:new 0 0 600 600;" xml:space="preserve">
<style type="text/css">
	.st0{fill:#E1E1FE;}
	.st1{fill:#B0AFFD;}
	.st2{opacity:0.7;}
	.st3{fill:#9797EF;}
	.st4{fill:#8888E9;}
	.st5{fill:#777AB0;}
	.st6{fill:#0F112E;}
	.st7{fill:#FFFFFF;}
	.st8{fill:#EAEAEA;}
	.st9{fill:#A81D34;}
	.st10{opacity:0.5;fill:#B0AFFD;enable-background:new    ;}
	.st11{opacity:0.3;fill:#B0AFFD;enable-background:new    ;}
	.st12{opacity:0.5;}
	.st13{opacity:0.5;fill:#FFFFFF;enable-background:new    ;}
	.st14{fill:#AF835B;}
	.st15{fill:#E9A056;}
	.st16{fill:#EA8237;}
	.st17{fill:#D38C4C;}
	.st18{fill:#3D38A0;}
	.st19{fill:#B9C9EF;}
	.st20{opacity:0.5;fill:#8EB9BF;enable-background:new    ;}
	.st21{fill:#A4A7CA;}
	.st22{fill:#0A0A0A;}
	.st23{fill:#FEFEFE;}
	.st24{fill:none;stroke:#FEFEFE;stroke-width:0.2537;stroke-miterlimit:10;}
	.st25{fill:#827CDC;}
	.st26{fill:#777AB0;stroke:#FEFEFE;stroke-width:0.1268;stroke-miterlimit:10;}
	.st27{fill:#173A2C;}
	.st28{fill:#81172B;}
	.st29{fill:none;stroke:#0A0A0A;stroke-width:0.2537;stroke-linecap:round;stroke-miterlimit:10;}
	.st30{fill:none;stroke:#FEFEFE;stroke-width:0.1268;stroke-miterlimit:10;}
	.st31{fill:#FFC064;}
	.st32{opacity:0.3;fill:#020202;enable-background:new    ;}
	.st33{opacity:0.3;}
	.st34{fill:#020202;}
	.st35{opacity:0.5;fill:#020202;enable-background:new    ;}
	.st36{fill:#5858C4;}
	.st37{fill:#D8826A;}
	.st38{fill:#5146AF;}
	.st39{fill:#ED9C80;}
	.st40{opacity:0.5;fill:#0F112E;enable-background:new    ;}
	.st41{fill:#2C1E56;}
	.st42{fill:none;stroke:#FFC996;stroke-width:0.3896;stroke-miterlimit:10;}
	.st43{fill:#FFBFAE;}
	.st44{fill:#FF8A29;}
	.st45{fill:#F47211;}
	.st46{fill:none;stroke:#827CDC;stroke-miterlimit:10;}
	.st47{fill:none;stroke:#827CDC;stroke-width:0.4704;stroke-miterlimit:10;}
	.st48{fill:none;stroke:#D3BBF9;stroke-width:1.0936;stroke-linecap:round;stroke-linejoin:round;stroke-miterlimit:10;}
	.st49{opacity:0.2;clip-path:url(#SVGID_2_);fill:#B0AFFD;enable-background:new    ;}
</style>
<g>
	<path class="st0" d="M563.8,466.6c0,3.8-90.2,6.8-201.5,6.8s-201.5-3.1-201.5-6.8s90.2-6.8,201.5-6.8
		C473.5,459.7,563.8,462.8,563.8,466.6z"/>
	<path class="st0" d="M402.6,497.3c0,2.7-78.7,4.9-175.8,4.9c-97.1,0-175.8-2.2-175.8-4.9c0-2.7,78.7-4.9,175.8-4.9
		S402.6,494.6,402.6,497.3z"/>
	<path class="st1" d="M461,415.6c0.1,0.2,0.1,0.5,0,0.6c0.1-0.4,0.2-0.8,0.2-1.3c1-3.4,2.1-6.6,3.5-9.8c0.3-0.6,0.6-1.3,0.9-1.9
		c1.5-0.6,5.2-0.9,6.2-1.2c2-0.7,4.6-1.4,6.2-2.7c0.7-0.6,2.4-2.5,1.5-3.5c-1-1.1-4.5,1.1-5.4,1.7c-1.9,1.3-3.6,2.8-5.6,3.8
		c-0.9,0.5-1.9,0.9-2.8,1.5c1.3-2.8,2.8-5.6,4.4-8.3c1.5-0.6,5.3-0.9,6.3-1.2c2-0.7,4.6-1.4,6.2-2.7c0.7-0.6,2.4-2.5,1.5-3.5
		c-1-1.1-4.5,1.1-5.4,1.7c-1.9,1.3-3.6,2.8-5.6,3.8c-0.9,0.5-1.9,0.8-2.7,1.4c1.8-2.8,3.7-5.5,5.8-8c1.5-1.7,3-3.4,4.7-5
		c1.8,0.1,4.2,0.5,5,0.5c2.1-0.1,4.8-0.1,6.8-1c0.8-0.4,2.9-1.8,2.3-2.9c-0.7-1.3-4.7-0.1-5.6,0.2c-2.2,0.7-4.2,1.7-6.4,2.2
		c-0.4,0.1-0.8,0.1-1.2,0.2c2.2-2.1,4.6-4,7.1-5.7c0.7,0.2,1.5,0.2,2.3,0.3c1.9,0.3,3.8,1,5.7,1.5c0.9,0.2,4.3,1,4.8-0.2
		c0.4-1-1.5-2.1-2.2-2.3c-1.7-0.6-4-0.5-5.8-0.4c-0.7,0-2.5,0.4-4,0.7c1.2-0.8,2.4-1.6,3.6-2.3c2-1.1,4-2.2,6.1-3.1
		c0.9,0.3,1.9,0.3,2.8,0.5c1.9,0.3,3.8,1,5.7,1.5c0.9,0.2,4.3,1,4.8-0.2c0.4-1-1.5-2.1-2.2-2.3c-1.7-0.6-4-0.5-5.8-0.4
		c-0.8,0-3.1,0.6-4.7,0.8c2.8-1.2,5.7-2.2,8.6-3c0.8,0.2,1.6,0.2,2.5,0.3c1.9,0.2,3.8,0.9,5.7,1.4c0.9,0.2,4.4,0.9,4.8-0.3
		c0.4-1-1.5-2.1-2.3-2.3c-1.7-0.6-4-0.4-5.8-0.3c-0.2,0-0.6,0.1-1.1,0.2c-1.6,0.1-3.1,0.4-4.7,0.7c-0.1,0-0.1,0-0.1-0.1
		c0,0,0.1,0,0.1,0.1c-2.1,0.4-4.2,0.9-6.3,1.6c0.6-0.5,1.1-1.1,1.6-1.7c1.4-1.4,3-2.4,4.5-3.6c0.7-0.6,3.4-2.9,2.7-3.9
		c-0.6-1-2.6-0.1-3.2,0.3c-1.5,1-2.8,2.9-3.8,4.4c-0.5,0.7-1.7,3.6-2.5,4.7c-1.9,0.6-3.8,1.4-5.6,2.3c0.7-0.6,1.1-1.5,1.7-2.2
		c1.1-1.6,2.6-2.8,3.9-4.3c0.6-0.7,2.9-3.3,2.1-4.3c-0.7-0.9-2.5,0.3-3.1,0.8c-1.3,1.2-2.3,3.3-3.1,4.9c-0.4,0.8-1.2,4.2-1.9,5.3
		c-0.7,0.4-1.5,0.7-2.2,1.1c-3,1.6-5.9,3.5-8.6,5.6c0.1-0.5,0.2-1.1,0.3-1.7c0.4-1.9,1.3-3.7,2-5.5c0.3-0.8,1.4-4.2,0.3-4.8
		c-1-0.5-2.2,1.3-2.5,2c-0.8,1.7-0.8,4-0.9,5.8c0,0.7,0.3,3.1,0.3,4.7c-2.6,2.1-5,4.3-7.2,6.8c0.2-0.6,0.4-1.3,0.6-1.8
		c0.5-1.4,1.1-2.9,1.8-4.3c1.1-2.2,2.3-4.2,3.9-6c0.8-0.9-0.1-2.4-1.2-2h-0.1c-1.9,0.6-2.9,2.6-3.7,4.5c-0.6,1.4-3.8,9-2.7,11.3
		c-2.4,2.9-4.6,6-6.5,9.3c0.4-1.8,1.3-3.5,1.9-5.3c0.3-0.8,1.4-4.2,0.3-4.8c-1-0.5-2.2,1.3-2.5,2c-0.8,1.7-0.8,4-0.9,5.8
		c0,0.7,0.2,2.6,0.3,4.2c-1.4,2.7-2.7,5.4-3.8,8.3c0-0.4-0.1-0.8-0.1-1.1c-0.1-2,0.4-3.9,0.5-5.8c0.1-0.9,0.3-4.5-0.9-4.7
		c-1.1-0.3-1.8,1.8-1.9,2.5c-0.3,1.8,0.2,4.1,0.5,5.8c0.1,0.7,1.1,2.9,1.5,4.5c-0.8,2.2-1.5,4.4-2.1,6.6c-0.1-1.7,0.1-3.5,0.1-5.2
		c0-0.9-0.1-4.5-1.3-4.7c-1.1-0.2-1.7,1.9-1.7,2.7c-0.2,1.8,0.5,4,1,5.8c0.2,0.6,0.9,2.1,1.5,3.4c-1,4.2-5.2,8.2-5.5,12.5
		C455.5,422.7,460,419.3,461,415.6z"/>
	<path class="st1" d="M241.3,335.4c0,0.3,0.1,0.4,0.2,0.5c-0.3-0.3-0.5-0.7-0.6-1.1c-2.1-2.8-4.4-5.4-6.8-7.9c-0.5-0.5-1-1-1.5-1.5
		c-1.6,0-5.2,1-6.2,1.1c-2.1,0.1-4.8,0.3-6.8-0.3c-0.8-0.3-3.1-1.5-2.6-2.7c0.5-1.4,4.6-0.6,5.6-0.3c2.2,0.5,4.4,1.3,6.6,1.6
		c1,0.1,2.1,0.1,3.1,0.4c-2.2-2.2-4.6-4.2-7.1-6.1c-1.6,0-5.3,1-6.3,1.1c-2.1,0.1-4.8,0.3-6.8-0.3c-0.8-0.3-3.1-1.5-2.6-2.7
		c0.5-1.4,4.6-0.6,5.6-0.3c2.2,0.5,4.4,1.3,6.6,1.6c1,0.1,2.1,0.1,3.1,0.4c-2.6-2-5.4-3.8-8.3-5.4c-2-1.1-4-2.1-6.1-3
		c-1.6,0.7-3.8,2-4.6,2.2c-2,0.7-4.5,1.6-6.7,1.5c-0.9,0-3.4-0.6-3.2-1.9c0.1-1.5,4.3-1.8,5.3-1.8c2.3-0.1,4.6,0.1,6.8-0.2
		c0.4-0.1,0.8-0.1,1.2-0.2c-2.8-1.1-5.7-2.1-8.7-2.8c-0.6,0.4-1.4,0.7-2,1.1c-1.7,0.9-3.2,2.3-4.8,3.4c-0.7,0.5-3.7,2.5-4.5,1.6
		c-0.8-0.8,0.7-2.5,1.2-3c1.4-1.2,3.6-1.9,5.3-2.5c0.6-0.2,2.5-0.5,4-0.8c-1.4-0.3-2.8-0.6-4.2-0.9c-2.3-0.4-4.5-0.6-6.8-0.7
		c-0.7,0.6-1.6,1-2.5,1.4c-1.7,0.9-3.2,2.3-4.8,3.4c-0.7,0.5-3.7,2.5-4.5,1.6c-0.8-0.8,0.7-2.5,1.2-3c1.4-1.2,3.6-1.9,5.3-2.5
		c0.7-0.3,3.1-0.6,4.6-1c-3-0.1-6.1,0-9.1,0.3c-0.7,0.5-1.5,0.8-2.2,1.2c-1.7,0.9-3.2,2.2-4.8,3.3c-0.7,0.5-3.7,2.4-4.6,1.5
		c-0.7-0.8,0.7-2.5,1.3-3c1.4-1.2,3.6-1.8,5.3-2.4c0.2-0.1,0.6-0.2,1.1-0.2c1.5-0.4,3.1-0.8,4.6-1l0.1-0.1l-0.1,0.1
		c2.1-0.4,4.3-0.6,6.4-0.7c-0.7-0.3-1.4-0.7-2.1-1c-1.8-0.8-3.7-1.1-5.5-1.8c-0.8-0.3-4.2-1.4-4-2.7c0.2-1.1,2.4-1,3.1-0.8
		c1.8,0.4,3.6,1.7,5.1,2.7c0.7,0.5,2.9,2.7,4.1,3.5c2-0.1,4-0.1,6.1,0.1c-0.8-0.4-1.6-1-2.4-1.5c-1.6-1.1-3.5-1.7-5.2-2.6
		c-0.8-0.4-3.9-2.1-3.5-3.3c0.4-1.1,2.5-0.6,3.2-0.3c1.7,0.7,3.3,2.3,4.7,3.5c0.7,0.6,2.6,3.5,3.7,4.2c0.8,0.1,1.6,0.1,2.5,0.2
		c3.4,0.4,6.7,1.1,10,2.1c-0.3-0.5-0.6-1-0.9-1.4c-1.1-1.6-2.6-2.9-3.8-4.4c-0.6-0.7-2.8-3.4-2-4.4c0.7-0.8,2.5,0.4,3.1,0.9
		c1.3,1.3,2.2,3.4,3,5.1c0.3,0.7,0.8,3,1.4,4.5c3.2,1,6.2,2.3,9.2,3.8c-0.4-0.5-0.8-1.1-1.2-1.5c-1-1.2-2.1-2.3-3.2-3.3
		c-1.8-1.6-3.7-3.1-5.8-4.2c-1.1-0.6-0.8-2.2,0.4-2.4h0.1c2-0.1,3.6,1.4,5,2.9c1,1.1,6.7,7.1,6.5,9.5c3.3,1.8,6.5,4,9.4,6.4
		c-1.1-1.6-2.5-2.8-3.7-4.3c-0.6-0.7-2.8-3.5-2-4.4c0.7-0.8,2.5,0.4,3.1,0.9c1.3,1.3,2.2,3.4,2.9,5.1c0.3,0.6,0.7,2.5,1.2,4
		c2.3,2,4.5,4.1,6.5,6.3c-0.1-0.4-0.2-0.7-0.3-1.1c-0.6-1.8-1.7-3.5-2.6-5.3c-0.4-0.8-1.9-4.1-0.8-4.8c0.9-0.6,2.3,1,2.7,1.7
		c0.9,1.6,1.3,3.9,1.6,5.6c0.1,0.7,0.1,3.1,0.2,4.7c1.5,1.7,3,3.6,4.3,5.4c-0.5-1.7-1.3-3.2-2-4.8c-0.3-0.8-1.5-4.2-0.4-4.8
		c1-0.6,2.3,1.2,2.6,1.9c0.8,1.6,1,3.9,1.2,5.8c0.1,0.6-0.1,2.3-0.1,3.7c2.4,3.6,7.8,5.8,9.6,9.7C248.9,340,243.6,338.4,241.3,335.4
		z"/>
	<path class="st1" d="M274.9,361.4c0.1,0.2,0.2,0.4,0.3,0.5c-0.4-0.2-0.6-0.6-0.9-0.9c-2.8-2.1-5.7-4-8.7-5.7
		c-0.6-0.3-1.2-0.7-1.9-1c-1.6,0.5-4.7,2.5-5.7,2.8c-2,0.7-4.5,1.7-6.6,1.6c-0.9,0-3.4-0.5-3.3-1.8c0.1-1.5,4.3-1.8,5.3-1.9
		c2.3-0.2,4.6,0,6.8-0.4c1-0.2,2.1-0.5,3.1-0.5c-2.8-1.5-5.6-2.8-8.5-3.9c-1.5,0.5-4.8,2.5-5.7,2.8c-2,0.7-4.5,1.7-6.6,1.6
		c-0.9,0-3.4-0.5-3.3-1.8c0.1-1.5,4.3-1.8,5.3-1.9c2.3-0.2,4.6,0,6.8-0.4c1-0.2,2-0.5,3-0.5c-3.1-1.2-6.3-2.1-9.5-2.8
		c-2.2-0.5-4.5-0.8-6.7-1.1c-1.4,1.2-3.1,3-3.7,3.4c-1.7,1.2-3.9,2.8-6,3.3c-0.9,0.2-3.4,0.4-3.6-0.9c-0.3-1.5,3.6-2.9,4.6-3.2
		c2.1-0.8,4.4-1.2,6.5-2.2c0.4-0.2,0.7-0.4,1.1-0.6c-3-0.3-6.1-0.4-9.2-0.2c-0.5,0.6-1.1,1.1-1.6,1.6c-1.4,1.4-2.4,3.1-3.6,4.6
		c-0.6,0.7-2.8,3.4-3.9,2.8c-1-0.6-0.1-2.6,0.3-3.2c1-1.5,2.9-2.8,4.4-3.9c0.5-0.4,2.3-1.2,3.6-1.9c-1.4,0.1-2.9,0.2-4.3,0.4
		c-2.3,0.3-4.5,0.7-6.7,1.3c-0.5,0.8-1.3,1.4-2,2.1c-1.4,1.4-2.4,3.1-3.6,4.6c-0.6,0.7-2.8,3.4-3.9,2.8c-1-0.6-0.1-2.6,0.3-3.2
		c1-1.5,2.9-2.8,4.4-3.9c0.6-0.4,2.9-1.4,4.2-2.2c-3,0.7-5.9,1.7-8.7,2.9c-0.5,0.6-1.2,1.2-1.8,1.7c-1.4,1.3-2.4,3-3.7,4.5
		c-0.6,0.7-2.9,3.4-4,2.7c-0.9-0.6,0-2.6,0.4-3.2c1-1.5,3-2.8,4.4-3.8c0.2-0.1,0.6-0.3,1-0.5c1.3-0.8,2.7-1.6,4.1-2.3l0.1-0.1
		c0,0,0,0.1-0.1,0.1c1.9-1,3.9-1.8,5.9-2.5c-0.8,0-1.5-0.2-2.3-0.3c-1.9-0.3-3.9,0-5.8-0.1c-0.9,0-4.4-0.2-4.6-1.5
		c-0.1-1.1,2-1.6,2.7-1.7c1.8-0.1,4,0.6,5.7,1.2c0.8,0.3,3.5,1.8,4.9,2.2c1.9-0.7,3.9-1.2,5.8-1.6c-0.9-0.1-1.8-0.5-2.7-0.8
		c-1.9-0.6-3.8-0.6-5.7-1c-0.9-0.2-4.3-0.9-4.3-2.2c0-1.1,2.2-1.3,3-1.2c1.8,0.2,3.8,1.3,5.5,2c0.8,0.4,3.5,2.6,4.7,3
		c0.8-0.2,1.6-0.3,2.4-0.5c3.4-0.6,6.8-0.8,10.2-0.8c-0.4-0.4-0.8-0.7-1.3-1.1c-1.5-1.3-3.3-2.1-4.9-3.2c-0.7-0.5-3.7-2.5-3.1-3.7
		c0.5-1,2.5-0.3,3.2,0c1.6,0.9,3.1,2.6,4.3,4c0.5,0.6,1.7,2.6,2.6,3.9c3.3,0.1,6.6,0.4,9.9,1c-0.5-0.4-1.1-0.8-1.6-1.1
		c-1.3-0.8-2.6-1.6-4-2.3c-2.1-1.1-4.4-1.9-6.8-2.4c-1.2-0.2-1.4-1.9-0.3-2.4c0,0,0.1,0,0.1-0.1c1.9-0.7,3.9,0.3,5.6,1.3
		c1.3,0.8,8.5,4.9,9,7.3c3.7,0.8,7.4,2,10.9,3.4c-1.5-1.2-3.2-2-4.8-3.1c-0.7-0.5-3.7-2.5-3.1-3.7c0.5-1,2.5-0.3,3.2,0
		c1.6,0.9,3.1,2.6,4.3,4c0.4,0.5,1.4,2.2,2.3,3.5c2.8,1.2,5.5,2.7,8,4.2c-0.2-0.3-0.4-0.6-0.6-0.9c-1.1-1.6-2.7-2.8-4-4.3
		c-0.6-0.7-2.9-3.4-2.1-4.3c0.7-0.9,2.5,0.3,3.1,0.8c1.4,1.2,2.3,3.3,3.1,5c0.3,0.7,0.9,3,1.5,4.4c2,1.2,3.9,2.6,5.7,4
		c-1-1.4-2.2-2.7-3.3-4.1c-0.5-0.7-2.7-3.6-1.8-4.5c0.8-0.8,2.5,0.5,3,1.1c1.3,1.3,2,3.5,2.7,5.2c0.2,0.6,0.6,2.2,0.9,3.6
		c3.4,2.8,9.1,3.3,12,6.6C283.5,363.7,278,363.7,274.9,361.4z"/>
	<g>
		<path class="st1" d="M423.2,399.1c0.1,0.1-0.4-8.4,11.6-17c12.2-9.2,39.2-8.9,42.3-17.5c3.2-9.2-13.6-6.6-21.2-13
			c-7.6-6.6-10.2-9.7-0.1-12.1c10.1-2.2,16.1-3.3,15.8-11.7c-0.3-8.5,16.5-5,24.6-11.5c8.4-6.5,3.4-14.7-12.9-13.6
			c-16,1.4-16.7-1.2-12.1-3.8c4.5-2.6,18.3-7.3,12.2-11.5c-6.3-4.2-15,0-10.5-5.6s15.5-10,9.9-15.8c-5.6-5.9-19.7-4.8-27.1,11.2
			c-7.3,15.9-9.7,20.4-17.4,22.3c-7.5,2-14.9-5.9-24-2.2c-9.1,3.8-7,12.5-1.3,18.2c5.8,5.7,15.6,17,10.1,22.4
			c-5.3,5.4-12.2-2.1-20.3-3.2c-9-1.2-18.8,6.7-10,18.6c9.1,11.7,22.8,20.7,24.1,48.5C418.9,400.8,421.1,399.9,423.2,399.1z"/>
		<g>
			<g class="st2">
				<path class="st3" d="M419.6,401c0.2,0,0.5-0.1,0.5-0.4c18.3-96.8,55.1-133.3,55.4-133.7c0.2-0.2,0.2-0.5,0-0.7s-0.5-0.2-0.7,0
					c-0.4,0.4-37.4,37.1-55.7,134.2C419.1,400.7,419.3,400.9,419.6,401L419.6,401z"/>
			</g>
			<g class="st2">
				<path class="st3" d="M453.7,298.4c0.1,0,0.2,0,0.3-0.1c11.9-8.2,26-8.5,26.2-8.5c0.3,0,0.5-0.2,0.5-0.5s-0.2-0.5-0.5-0.5
					c-0.1,0-14.6,0.3-26.7,8.7c-0.2,0.2-0.3,0.4-0.1,0.7C453.5,298.3,453.6,298.3,453.7,298.4z"/>
			</g>
			<g class="st2">
				<path class="st3" d="M440.7,326.6c0.1,0,0.3,0,0.4-0.1c0.2-0.2,0.2-0.5,0-0.7c-0.1-0.1-11.5-13.1-26.7-24.4
					c-0.2-0.2-0.5-0.1-0.7,0.1s-0.1,0.5,0.1,0.7c15.1,11.2,26.4,24.1,26.5,24.2C440.4,326.5,440.5,326.6,440.7,326.6z"/>
			</g>
			<g class="st2">
				<path class="st3" d="M443.2,320.3c0.1,0,0.1,0,0.2,0c22.2-8.7,47-8.9,47.3-8.9s0.5-0.2,0.5-0.5s-0.2-0.5-0.5-0.5
					s-25.2,0.2-47.6,9c-0.2,0.1-0.4,0.4-0.3,0.6C442.9,320.2,443.1,320.3,443.2,320.3z"/>
			</g>
			<g class="st2">
				<path class="st3" d="M426.4,370.4c0.1,0,0.2,0,0.2,0c15.2-7,40.8-8,41.1-8c0.3,0,0.5-0.2,0.5-0.5s-0.2-0.5-0.5-0.5s-26,1-41.4,8
					c-0.2,0.1-0.3,0.4-0.2,0.6C426.1,370.3,426.3,370.4,426.4,370.4z"/>
			</g>
			<g class="st2">
				<path class="st3" d="M424.7,377.2c0.1,0,0.1,0,0.2,0c0.2-0.1,0.4-0.4,0.3-0.6c-7-19-25.3-33.9-25.5-34c-0.2-0.2-0.5-0.1-0.7,0.1
					s-0.1,0.5,0.1,0.7c0.2,0.1,18.3,14.9,25.2,33.6C424.4,377,424.6,377.2,424.7,377.2z"/>
			</g>
		</g>
	</g>
	<g>
		<path class="st1" d="M277.6,368.2c-0.1,0.1,0.4-8.4-11.6-17c-12.2-9.2-39.2-8.9-42.3-17.5c-3.2-9.2,13.6-6.6,21.2-13
			c7.6-6.6,10.2-9.7,0.1-12.1c-10.1-2.2-16.1-3.3-15.8-11.7c0.3-8.5-16.5-5-24.6-11.5c-8.4-6.5-3.4-14.7,12.9-13.6
			c16,1.4,16.7-1.2,12.1-3.8c-4.5-2.6-18.3-7.3-12.2-11.5c6.3-4.2,15,0,10.5-5.6s-15.5-10-9.9-15.8c5.6-5.9,19.7-4.8,27.1,11.2
			c7.3,15.9,9.7,20.4,17.4,22.3c7.5,2,14.9-5.9,24-2.2c9.1,3.8,7,12.5,1.3,18.2c-5.8,5.7-15.6,17-10.1,22.4
			c5.3,5.4,12.2-2.1,20.3-3.2c9-1.2,18.8,6.7,10,18.6c-9.1,11.7-22.8,20.7-24.1,48.5C281.9,369.9,279.7,369,277.6,368.2z"/>
		<g>
			<g class="st2">
				<path class="st3" d="M281.2,370.1c-0.2,0-0.5-0.1-0.5-0.4c-18.3-96.8-55.1-133.3-55.4-133.7c-0.2-0.2-0.2-0.5,0-0.7
					s0.5-0.2,0.7,0c0.4,0.4,37.4,37.1,55.7,134.2C281.7,369.8,281.5,370.1,281.2,370.1L281.2,370.1z"/>
			</g>
			<g class="st2">
				<path class="st3" d="M247.1,267.5c-0.1,0-0.2,0-0.3-0.1c-11.9-8.2-26-8.5-26.2-8.5c-0.3,0-0.5-0.2-0.5-0.5s0.2-0.5,0.5-0.5
					c0.1,0,14.6,0.3,26.7,8.7c0.2,0.2,0.3,0.4,0.1,0.7C247.3,267.4,247.2,267.5,247.1,267.5z"/>
			</g>
			<g class="st2">
				<path class="st3" d="M260.2,295.7c-0.1,0-0.3,0-0.4-0.1c-0.2-0.2-0.2-0.5,0-0.7c0.1-0.1,11.5-13.1,26.7-24.4
					c0.2-0.2,0.5-0.1,0.7,0.1s0.1,0.5-0.1,0.7c-15.1,11.2-26.4,24.1-26.5,24.2C260.4,295.7,260.3,295.7,260.2,295.7z"/>
			</g>
			<g class="st2">
				<path class="st3" d="M257.6,289.5c-0.1,0-0.1,0-0.2,0c-22.2-8.7-47-8.9-47.3-8.9s-0.5-0.2-0.5-0.5s0.2-0.5,0.5-0.5
					s25.2,0.2,47.6,9c0.2,0.1,0.4,0.4,0.3,0.6C257.9,289.3,257.8,289.5,257.6,289.5z"/>
			</g>
			<g class="st2">
				<path class="st3" d="M274.4,339.6c-0.1,0-0.2,0-0.2,0c-15.2-7-40.8-8-41.1-8c-0.3,0-0.5-0.2-0.5-0.5s0.2-0.5,0.5-0.5
					s26,1,41.4,8c0.2,0.1,0.3,0.4,0.2,0.6C274.7,339.5,274.6,339.6,274.4,339.6z"/>
			</g>
			<g class="st2">
				<path class="st3" d="M276.1,346.3c-0.1,0-0.1,0-0.2,0c-0.2-0.1-0.4-0.4-0.3-0.6c7-19,25.3-33.9,25.5-34c0.2-0.2,0.5-0.1,0.7,0.1
					s0.1,0.5-0.1,0.7c-0.2,0.1-18.3,14.9-25.2,33.6C276.4,346.2,276.3,346.3,276.1,346.3z"/>
			</g>
		</g>
	</g>
	<path class="st4" d="M417.3,412.8c0,0-0.9-34.4,26.3-37.6c27.1-3.2,17.3,36,5.7,48.8c0,0,15.1-17.7,25.1-5.8
		c10,12-18.1,25.7-18.1,25.7s22.5-7.6,28.8-2.5c8.1,6.7-7.2,16.4-7.2,16.4s24.4-9.7,19.3,7.6l-115.9-0.3L417.3,412.8z"/>
	<g>
		<path class="st5" d="M427.7,167.7V443c0,12.6-10.2,22.9-22.9,22.9H291.9c-12.6,0-22.9-10.2-22.9-22.9V167.7
			c0-12.6,10.2-22.9,22.9-22.9h112.9C417.5,144.8,427.7,155.1,427.7,167.7z"/>
		<path class="st6" d="M427.7,167.7v3.8H269v-3.8c0-12.6,10.2-22.9,22.9-22.9h112.9C417.5,144.8,427.7,155.1,427.7,167.7z"/>
		<path class="st6" d="M427.7,439.2v3.8c0,12.6-10.2,22.9-22.9,22.9H291.9c-12.6,0-22.9-10.2-22.9-22.9v-3.8H427.7z"/>
		<path class="st6" d="M430,270.7h-2.3v-60.6h2.3c1.1,0,2,0.9,2,2v56.5C432,269.8,431.1,270.7,430,270.7z"/>
		<path class="st6" d="M269.1,238.6H267c-1.1,0-1.9-0.9-1.9-1.9V211c0-1.1,0.9-1.9,1.9-1.9h2.1V238.6z"/>
		<path class="st6" d="M269.1,270.7h-1.8c-0.9,0-1.7-0.7-1.7-1.7v-14.8c0-0.9,0.7-1.7,1.7-1.7h1.8V270.7z"/>
		<path class="st7" d="M325.6,158.2c0,2.5-2,4.5-4.5,4.5s-4.5-2-4.5-4.5s2-4.5,4.5-4.5S325.6,155.7,325.6,158.2z"/>
		<path class="st7" d="M335.4,158.2c0,1.2-1,2.2-2.2,2.2s-2.2-1-2.2-2.2s1-2.2,2.2-2.2C334.5,156,335.4,157,335.4,158.2z"/>
		<path class="st7" d="M381.3,160.9h-39.2c-0.7,0-1.3-0.6-1.3-1.3v-2.8c0-0.7,0.6-1.3,1.3-1.3h39.2c0.7,0,1.3,0.6,1.3,1.3v2.8
			C382.6,160.3,382,160.9,381.3,160.9z"/>
		<path class="st7" d="M357.1,452.4c0,4.8-3.9,8.7-8.7,8.7s-8.7-3.9-8.7-8.7c0-4.8,3.9-8.7,8.7-8.7S357.1,447.6,357.1,452.4z"/>
		<rect x="272.6" y="171.5" class="st8" width="150.4" height="267.7"/>
	</g>
	<path class="st9" d="M351.3,237.9c-81.2,0-17.8,109,0,115C368.4,348.7,432.5,237.9,351.3,237.9z M351.2,298.6
		c-12,0-21.8-9.8-21.8-21.8s9.8-21.8,21.8-21.8s21.8,9.8,21.8,21.8C373.1,288.8,363.3,298.6,351.2,298.6z"/>
	<path class="st10" d="M386.2,363.1c0,1.7-15.6,3-34.9,3s-34.9-1.4-34.9-3c0-1.7,15.6-3,34.9-3C370.5,360.1,386.2,361.5,386.2,363.1
		z"/>
	<g>
		<path class="st11" d="M386.2,363.1c0,1.7-15.6,3-34.9,3s-34.9-1.4-34.9-3c0-1.7,15.6-3,34.9-3
			C370.5,360.1,386.2,361.5,386.2,363.1z"/>
		<ellipse class="st10" cx="351.2" cy="363.1" rx="18.2" ry="1.6"/>
	</g>
	<g class="st12">
		<polygon class="st13" points="372.1,171.5 272.6,324.1 272.6,239.1 316.7,171.5 		"/>
		<polygon class="st13" points="414,171.5 272.6,388.3 272.6,348.9 388.3,171.5 		"/>
		<polygon class="st13" points="423,260.2 423,299.6 331.7,439.4 306,439.4 		"/>
	</g>
	<g class="st12">
		<path class="st10" d="M413.7,498.3c0,1.3,12.9,2.4,28.9,2.4c15.9,0,28.9-1.1,28.9-2.4s-12.9-2.4-28.9-2.4
			C426.6,495.8,413.7,496.9,413.7,498.3z"/>
	</g>
	<g class="st12">
		<path class="st10" d="M146.4,528.4c0,1.3,12.9,2.4,28.9,2.4c15.9,0,28.9-1.1,28.9-2.4c0-1.3-12.9-2.4-28.9-2.4
			S146.4,527,146.4,528.4z"/>
	</g>
	<g>
		<g>
			<g>
				
					<rect x="269.8" y="438.8" transform="matrix(1 -1.140332e-03 1.140332e-03 1 -0.5162 0.3243)" class="st14" width="28.6" height="28"/>
				
					<rect x="269.8" y="438.8" transform="matrix(1 -1.143526e-03 1.143526e-03 1 -0.5046 0.3252)" class="st14" width="28.6" height="5.1"/>
				
					<rect x="269" y="438.2" transform="matrix(1 -1.139989e-03 1.139989e-03 1 -0.5023 0.3238)" class="st14" width="29.6" height="5.1"/>
				<polygon class="st14" points="286.4,438.2 286.4,446.7 285.8,445.9 285.3,446.7 284.8,445.9 284.2,446.7 283.7,445.9 
					283.2,446.7 282.6,445.9 282.1,446.7 282.1,438.2 				"/>
			</g>
			<g>
				
					<rect x="271.5" y="438.8" transform="matrix(1 -1.134736e-03 1.134736e-03 1 -0.5137 0.3246)" class="st15" width="28.6" height="28"/>
				
					<rect x="271.5" y="438.8" transform="matrix(1 -1.112620e-03 1.112620e-03 1 -0.4909 0.3183)" class="st14" width="28.6" height="5.1"/>
				
					<rect x="270.8" y="438.2" transform="matrix(1 -1.134687e-03 1.134687e-03 1 -0.5 0.3244)" class="st15" width="29.6" height="5.1"/>
				<polygon class="st16" points="288.1,438.2 288.1,446.7 287.6,445.9 287,446.7 286.5,445.9 286,446.7 285.4,445.9 284.9,446.7 
					284.4,445.9 283.8,446.7 283.8,438.2 				"/>
			</g>
		</g>
		<g>
			<g>
				
					<rect x="254.4" y="409.9" transform="matrix(1 -1.134736e-03 1.134736e-03 1 -0.4809 0.3052)" class="st14" width="28.6" height="28"/>
				
					<rect x="254.3" y="409.9" transform="matrix(1 -1.143526e-03 1.143526e-03 1 -0.4715 0.3074)" class="st14" width="28.6" height="5.1"/>
				
					<rect x="253.6" y="409.4" transform="matrix(1 -1.134687e-03 1.134687e-03 1 -0.4673 0.3048)" class="st14" width="29.6" height="5.1"/>
				<polygon class="st14" points="270.9,409.4 270.9,417.8 270.4,417 269.9,417.8 269.3,417 268.8,417.8 268.3,417 267.7,417.8 
					267.2,417 266.7,417.8 266.7,409.4 				"/>
			</g>
			<g>
				
					<rect x="256.1" y="409.9" transform="matrix(1 -1.135239e-03 1.135239e-03 1 -0.4811 0.3072)" class="st17" width="28.6" height="28"/>
				
					<rect x="256.1" y="409.9" transform="matrix(1 -1.143526e-03 1.143526e-03 1 -0.4715 0.3095)" class="st14" width="28.6" height="5.1"/>
				
					<rect x="255.4" y="409.4" transform="matrix(1 -1.139983e-03 1.139983e-03 1 -0.4695 0.3083)" class="st17" width="29.6" height="5.1"/>
				<polygon class="st16" points="272.7,409.4 272.7,417.8 272.2,417 271.6,417.8 271.1,417 270.5,417.8 270,417 269.5,417.8 
					268.9,417 268.4,417.8 268.4,409.4 				"/>
			</g>
		</g>
		<polygon class="st18" points="369,497.3 256.2,469.5 243.5,461.3 387.1,497 		"/>
		<rect x="157" y="355.2" class="st6" width="129.8" height="112.5"/>
		<g>
			<path class="st6" d="M56,441c2.2,4.3,0.5,9.6-3.8,11.8c-4.3,2.2-9.6,0.5-11.8-3.8c-2.2-4.3-0.5-9.6,3.8-11.8
				C48.5,435,53.8,436.7,56,441z"/>
		</g>
		<path class="st5" d="M149.4,371.2v1.3v1.8l-0.4,41v0.2l-48.6,0.2l-29.9,0.1l0.1-0.1l0.1-0.2l0.1-0.2l29.6-41.4
			c0.7-1.1,1.9-1.7,3.2-1.9l40.9-4.8C147,366.9,149.2,368.7,149.4,371.2z"/>
		<g>
			<path class="st6" d="M149.4,372.5v1.8c0-1-0.7-2.3-1.4-2.9c-0.8-0.7-1.8-1-2.8-0.9l-39.7,4.7c-1.4,0.2-2.7,0.9-3.5,2.1
				l-27.1,38.1l-0.7-0.1l27.3-38.3c0.9-1.3,2.3-2.1,3.9-2.3l39.7-4.7c1.2-0.1,2.4,0.2,3.3,1C148.8,371.3,149.2,371.9,149.4,372.5z"
				/>
		</g>
		<path class="st19" d="M143.7,377.5v37.6h-15.5h-5.8H114h-9.2H88.1h-2.8v-4.5c0-1.3,0.4-2.6,1.1-3.7l17.8-26.4
			c1-1.5,2.6-2.5,4.4-2.7l6-0.7l18.2-2.2l6.8-0.8c0.9-0.1,1.8,0.1,2.5,0.7C143.1,375.2,143.7,376.3,143.7,377.5z"/>
		<path class="st5" d="M149.4,415.2v60.6h-74c-7.2,0-28.3-0.5-28.3-0.5v-30.6c0-14.5,9.6-26.5,22.4-29.1l0,0
			c0.4-0.1,0.8-0.1,1.2-0.2c0,0,0,0,0.1,0c1.3-0.2,2.5-0.2,3.8-0.2L149.4,415.2L149.4,415.2z"/>
		<path class="st18" d="M139.3,423.5h-8.9c-1.3,0-2.3-1-2.3-2.3l0,0c0-1.3,1-2.3,2.3-2.3h8.9c1.3,0,2.3,1,2.3,2.3l0,0
			C141.7,422.5,140.6,423.5,139.3,423.5z"/>
		<path class="st6" d="M141.7,421.2c0,0.6-0.3,1.2-0.7,1.7c-0.4,0.4-1,0.7-1.7,0.7h-8.9c-1.3,0-2.3-1-2.3-2.3c0-0.3,0.1-0.6,0.1-0.8
			c0.3,0.9,1.2,1.5,2.2,1.5h8.9c0.6,0,1.2-0.3,1.7-0.7c0.2-0.2,0.4-0.5,0.5-0.9C141.6,420.6,141.7,420.9,141.7,421.2z"/>
		<polygon class="st20" points="132.8,374.7 104.6,415 88,415 114.6,376.9 		"/>
		<path class="st20" d="M143.7,377.5v7l-21.4,30.6h-8.4l28.3-40.5C143.1,375.2,143.7,376.3,143.7,377.5z"/>
		<polygon class="st20" points="143.7,392.9 143.7,415.1 128.1,415.1 		"/>
		<path class="st21" d="M49.3,473.4h-4.4c-3.8,0-6.9-3.1-6.9-6.9l0,0c0-3.8,3.1-6.9,6.9-6.9h4.4c3.8,0,6.9,3.1,6.9,6.9l0,0
			C56.1,470.3,53.1,473.4,49.3,473.4z"/>
		<path class="st22" d="M223.7,466.5l3.8-5.3c4.1-5.7,10.7-9,17.6-9l0,0c6.9,0,13.4,3.3,17.5,8.8l4,5.5"/>
		<path class="st6" d="M289.4,475.9H47.1c-1.6,0-2.8-1.3-2.8-2.8v-3.7c0-1.6,1.3-2.8,2.8-2.8h242.3c1.6,0,2.8,1.3,2.8,2.8v3.7
			C292.2,474.6,290.9,475.9,289.4,475.9z"/>
		<path class="st6" d="M84.7,466.5l3.8-5.3c4.1-5.7,10.7-9,17.6-9l0,0c6.9,0,13.4,3.3,17.5,8.8l4,5.5"/>
		<g>
			<circle class="st5" cx="106.2" cy="476.9" r="20.1"/>
			
				<ellipse transform="matrix(0.7071 -0.7071 0.7071 0.7071 -306.1552 214.7617)" class="st23" cx="106.2" cy="476.9" rx="15.2" ry="15.2"/>
			<circle class="st5" cx="106.2" cy="476.9" r="11.1"/>
			<circle class="st24" cx="106.2" cy="476.9" r="10.1"/>
			<path class="st21" d="M112.5,476.9c0,3.5-2.8,6.3-6.3,6.3s-6.3-2.8-6.3-6.3s2.8-6.3,6.3-6.3C109.7,470.6,112.5,473.5,112.5,476.9
				z"/>
			<circle class="st25" cx="106.2" cy="476.9" r="2.1"/>
			<circle class="st26" cx="106.2" cy="476.9" r="2.6"/>
		</g>
		<g>
			<circle class="st27" cx="245.2" cy="476.9" r="20.1"/>
			
				<ellipse transform="matrix(0.7071 -0.7071 0.7071 0.7071 -265.4487 313.054)" class="st23" cx="245.2" cy="477" rx="15.2" ry="15.2"/>
			<circle class="st22" cx="245.2" cy="476.9" r="11.1"/>
			<circle class="st24" cx="245.2" cy="476.9" r="10.1"/>
			<path class="st28" d="M251.5,476.9c0,3.5-2.8,6.3-6.3,6.3s-6.3-2.8-6.3-6.3s2.8-6.3,6.3-6.3C248.7,470.6,251.5,473.5,251.5,476.9
				z"/>
			<path class="st29" d="M240.7,478.1c-0.1-0.4-0.1-0.8-0.1-1.2c0-0.6,0.1-1.2,0.3-1.7"/>
			<path class="st29" d="M244.3,481.5c-1.1-0.2-2.1-0.9-2.8-1.7"/>
			<path class="st29" d="M248.3,480.4c-0.6,0.5-1.3,0.9-2.2,1.1"/>
			<path class="st29" d="M249.9,476.9c0,0.9-0.2,1.7-0.6,2.3"/>
			<path class="st22" d="M247.3,476.9c0,1.1-0.9,2.1-2.1,2.1c-1.1,0-2.1-0.9-2.1-2.1c0-1.1,0.9-2.1,2.1-2.1
				C246.3,474.9,247.3,475.8,247.3,476.9z"/>
			<circle class="st30" cx="245.2" cy="476.9" r="2.6"/>
		</g>
		<g>
			<g>
				
					<rect x="319.5" y="398.5" transform="matrix(0.2397 -0.9708 0.9708 0.2397 -148.8103 649.8073)" class="st15" width="42" height="42.8"/>
				
					<rect x="340.8" y="381.8" transform="matrix(0.2397 -0.9708 0.9708 0.2397 -129.5005 641.1114)" class="st14" width="7.6" height="42.8"/>
				
					<rect x="340.7" y="380.1" transform="matrix(0.2397 -0.9708 0.9708 0.2397 -128.6464 640.3009)" class="st15" width="7.6" height="44.3"/>
				<polygon class="st16" points="349.2,399.5 346.1,411.8 345.6,410.4 344.6,411.4 344.1,410 343,411 342.5,409.6 341.5,410.6 
					341,409.2 339.9,410.2 342.9,397.9 				"/>
			</g>
			<g>
				
					<rect x="306.9" y="439.4" transform="matrix(0.2397 -0.9708 0.9708 0.2397 -198.0835 668.6911)" class="st15" width="42" height="42.8"/>
				
					<rect x="328.2" y="422.8" transform="matrix(0.2397 -0.9708 0.9708 0.2397 -178.7704 660.0234)" class="st14" width="7.6" height="42.8"/>
				
					<rect x="328.1" y="420.9" transform="matrix(0.2397 -0.9708 0.9708 0.2397 -177.8181 659.1095)" class="st15" width="7.6" height="44.3"/>
				<polygon class="st31" points="336.6,440.4 333.5,452.7 333,451.3 332,452.3 331.5,450.9 330.4,451.9 329.9,450.5 328.9,451.5 
					328.4,450.1 327.3,451.1 330.4,438.8 				"/>
			</g>
			<g>
				<g>
					
						<rect x="341.2" y="447.9" transform="matrix(0.2397 -0.9708 0.9708 0.2397 -180.2546 708.3762)" class="st14" width="42" height="42.8"/>
					
						<rect x="362.4" y="431.2" transform="matrix(0.2397 -0.9708 0.9708 0.2397 -160.9454 699.6752)" class="st14" width="7.6" height="42.8"/>
					
						<rect x="362.3" y="429.4" transform="matrix(0.2397 -0.9708 0.9708 0.2397 -160.0765 698.7587)" class="st14" width="7.6" height="44.3"/>
					<polygon class="st14" points="370.8,448.8 367.7,461.1 367.2,459.7 366.2,460.7 365.7,459.3 364.6,460.3 364.1,459 363.1,460 
						362.6,458.6 361.5,459.6 364.6,447.3 					"/>
				</g>
				<g>
					
						<rect x="343.6" y="448.5" transform="matrix(0.2397 -0.9708 0.9708 0.2397 -178.9805 711.2872)" class="st31" width="42" height="42.8"/>
					
						<rect x="364.9" y="431.8" transform="matrix(0.2397 -0.9708 0.9708 0.2397 -159.6713 702.5831)" class="st14" width="7.6" height="42.8"/>
					
						<rect x="364.9" y="430.1" transform="matrix(0.2397 -0.9708 0.9708 0.2397 -158.7055 701.7571)" class="st31" width="7.6" height="44.3"/>
					<polygon class="st16" points="373.3,449.4 370.3,461.7 369.8,460.4 368.7,461.3 368.2,460 367.2,461 366.7,459.6 365.6,460.6 
						365.1,459.2 364,460.2 367.1,447.9 					"/>
				</g>
			</g>
		</g>
		<g>
			<path class="st5" d="M184.1,452.5H177c-1,0-1.8-0.8-1.8-1.8v-78.6c0-1,0.8-1.8,1.8-1.8h7.1c1,0,1.8,0.8,1.8,1.8v78.6
				C185.9,451.7,185.1,452.5,184.1,452.5z"/>
			<path class="st5" d="M204.8,452.5h-7.1c-1,0-1.8-0.8-1.8-1.8v-78.6c0-1,0.8-1.8,1.8-1.8h7.1c1,0,1.8,0.8,1.8,1.8v78.6
				C206.6,451.7,205.8,452.5,204.8,452.5z"/>
			<path class="st5" d="M225.4,452.5h-7.1c-1,0-1.8-0.8-1.8-1.8v-78.6c0-1,0.8-1.8,1.8-1.8h7.1c1,0,1.8,0.8,1.8,1.8v78.6
				C227.2,451.7,226.4,452.5,225.4,452.5z"/>
			<path class="st5" d="M246.1,452.5H239c-1,0-1.8-0.8-1.8-1.8v-78.6c0-1,0.8-1.8,1.8-1.8h7.1c1,0,1.8,0.8,1.8,1.8v78.6
				C247.9,451.7,247.1,452.5,246.1,452.5z"/>
			<path class="st5" d="M266.7,452.5h-7.1c-1,0-1.8-0.8-1.8-1.8v-78.6c0-1,0.8-1.8,1.8-1.8h7.1c1,0,1.8,0.8,1.8,1.8v78.6
				C268.5,451.7,267.7,452.5,266.7,452.5z"/>
		</g>
		<g>
			<g>
				<g>
					<polygon class="st14" points="246.9,432.4 246.9,451.5 245.9,449.7 244.9,451.5 243.9,449.7 243,451.5 242,449.7 241,451.5 
						240,449.7 239.1,451.5 239,432.4 					"/>
				</g>
				<g>
					
						<rect x="219.7" y="433.7" transform="matrix(1 -1.137018e-03 1.137018e-03 1 -0.529 0.2798)" class="st15" width="52.3" height="63.3"/>
					
						<rect x="219.7" y="433.7" transform="matrix(1 -1.136782e-03 1.136782e-03 1 -0.4994 0.2798)" class="st14" width="52.3" height="11.4"/>
					
						<rect x="218.4" y="432.4" transform="matrix(1 -1.136401e-03 1.136401e-03 1 -0.4977 0.2792)" class="st15" width="54.1" height="11.4"/>
					<polygon class="st31" points="250,432.4 250.1,451.5 249.1,449.7 248.1,451.5 247.1,449.7 246.2,451.5 245.2,449.7 
						244.2,451.5 243.2,449.7 242.2,451.5 242.2,432.4 					"/>
				</g>
			</g>
			<g>
				<g>
					
						<rect x="190.5" y="459" transform="matrix(1.133933e-03 -1 1 1.133933e-03 -269.116 686.6257)" class="st14" width="37.3" height="38.1"/>
					
						<rect x="205.8" y="443.7" transform="matrix(1.137787e-03 -1 1 1.137787e-03 -253.8487 671.3759)" class="st14" width="6.7" height="38.1"/>
					
						<rect x="206.1" y="442.4" transform="matrix(1.139336e-03 -1 1 1.139336e-03 -252.8161 670.9524)" class="st14" width="6.7" height="39.3"/>
					<polygon class="st14" points="206.1,458.6 206.1,469.8 206.8,468.8 207.5,469.9 208.2,468.8 208.9,469.9 209.6,468.8 
						210.3,469.9 211,468.8 211.8,469.9 211.8,458.6 					"/>
				</g>
				<g>
					
						<rect x="188.2" y="459.1" transform="matrix(1.138132e-03 -1 1 1.138132e-03 -271.5089 684.3996)" class="st31" width="37.3" height="38.1"/>
					
						<rect x="203.5" y="443.8" transform="matrix(1.137787e-03 -1 1 1.137787e-03 -256.241 669.1519)" class="st14" width="6.7" height="38.1"/>
					
						<rect x="203.8" y="442.4" transform="matrix(1.135352e-03 -1 1 1.135352e-03 -255.1313 668.6252)" class="st31" width="6.7" height="39.3"/>
					<polygon class="st16" points="203.8,458.6 203.8,469.8 204.5,468.8 205.2,469.8 205.9,468.8 206.6,469.9 207.3,468.8 
						208,469.9 208.7,468.8 209.4,469.9 209.5,458.6 					"/>
				</g>
			</g>
		</g>
		<g>
			<path class="st6" d="M149.4,415.2v0.4h-80c0.4-0.1,0.8-0.1,1.2-0.2c0,0,0,0,0.1,0l0.1-0.2L149.4,415.2L149.4,415.2z"/>
		</g>
		<g class="st12">
			<path class="st32" d="M92.1,408v9.5c0,1.2-1.5,1.6-2.2,0.6l-1.6-2.6c-1.3-2-1.2-4.6,0.2-6.6l1.3-1.7
				C90.5,406.3,92.1,406.8,92.1,408z"/>
			<g class="st33">
				<path class="st34" d="M83.8,420h-4c-1.3,0-2.4-1.1-2.4-2.4l0,0c0-1.3,1.1-2.4,2.4-2.4h4c1.3,0,2.4,1.1,2.4,2.4l0,0
					C86.2,418.9,85.1,420,83.8,420z"/>
				<g>
					<g>
						
							<rect x="83.4" y="412.8" transform="matrix(0.8388 -0.5444 0.5444 0.8388 -211.2814 114.3427)" class="st34" width="8.2" height="2.3"/>
					</g>
					<path class="st35" d="M86.1,418.3c-0.1,0.4-0.3,0.7-0.6,1c-0.4,0.4-1,0.7-1.7,0.7h-4c-1.3,0-2.4-1.1-2.4-2.4
						c0-0.7,0.3-1.3,0.7-1.7c0.1-0.1,0.3-0.2,0.4-0.3c-0.1,0.2-0.1,0.5-0.1,0.7c0,1.3,1.1,2.4,2.4,2.4h4
						C85.3,418.7,85.7,418.5,86.1,418.3z"/>
				</g>
			</g>
		</g>
		<g>
			<g>
				
					<rect x="84.1" y="412.9" transform="matrix(0.8388 -0.5444 0.5444 0.8388 -211.1766 114.7289)" class="st36" width="8.2" height="2.3"/>
			</g>
			<path class="st36" d="M92.8,408v9.5c0,1.2-1.5,1.6-2.2,0.6l-1.6-2.6c-1.3-2-1.2-4.6,0.2-6.6l1.3-1.7
				C91.3,406.3,92.8,406.8,92.8,408z"/>
			<path class="st6" d="M92.8,417.8c-0.2,1-1.6,1.3-2.1,0.4l-1.6-2.6c-1.3-2-1.2-4.6,0.2-6.6l1.3-1.7c0.2-0.3,0.5-0.5,0.8-0.5
				l-1,1.3c-1.4,1.9-1.5,4.5-0.2,6.6l1.6,2.6C92.1,417.6,92.4,417.8,92.8,417.8z"/>
			<path class="st36" d="M84.5,420h-4c-1.3,0-2.4-1.1-2.4-2.4l0,0c0-1.3,1.1-2.4,2.4-2.4h4c1.3,0,2.4,1.1,2.4,2.4l0,0
				C87,418.9,85.9,420,84.5,420z"/>
			<path class="st6" d="M86.8,418.3c-0.1,0.4-0.3,0.7-0.6,1c-0.4,0.4-1,0.7-1.7,0.7h-4c-1.3,0-2.4-1.1-2.4-2.4
				c0-0.7,0.3-1.3,0.7-1.7c0.1-0.1,0.3-0.2,0.4-0.3c-0.1,0.2-0.1,0.5-0.1,0.7c0,1.3,1.1,2.4,2.4,2.4h4
				C86,418.7,86.5,418.5,86.8,418.3z"/>
		</g>
	</g>
	<g>
		<g>
			<path class="st37" d="M441.9,392.1c-1.8,3.5-2.2,11-4,14.5c-0.9,1.7-8,11.5-13.3,16.2c-0.7-1.7-4.2,0.3-3.2-1.3
				c3.3-4.8,9.7-10.3,10.5-17.8c0.6-4.9,4.2-16.5,4.2-16.5"/>
		</g>
		<g>
			<g>
				<path class="st38" d="M458,499.7c2.3-0.2,4.6-1.5,5.7-1.6c0.8-0.1,3.1-0.7,3.7-0.8c0.6-0.2-0.5-4-1.5-4.1c0,0-0.2,0.2-0.5,0.3
					c-0.5,0.3-1.4,0.6-2.7,0.5c-1.4,1.4-1.4,1.7-3.1,2.8c-0.8,0.5-1.6,1.1-2.1,1.6C456.8,499.2,456.7,499.8,458,499.7z"/>
			</g>
			<path class="st39" d="M465.3,491.5c0,0,0.4,1.6,0.7,1.9c-1.8,2-3.3,1-3.3,1v-0.3l-0.4-2L465.3,491.5z"/>
		</g>
		<g>
			<g>
				<path class="st38" d="M424.9,498.7c2.3,0.5,4.9,0.1,5.9,0.3c0.8,0.2,3.2,0.4,3.8,0.4c0.7,0,0.8-3.9-0.1-4.4c0,0-0.2,0.1-0.6,0.2
					c-0.6,0.1-1.5,0.1-2.7-0.3c-1.8,0.8-1.8,1.2-3.8,1.7c-0.9,0.2-1.9,0.5-2.5,0.9C423.9,497.9,423.6,498.4,424.9,498.7z"/>
			</g>
			<path class="st39" d="M434.4,493.2c0,0-0.1,1.6,0,2c-2.3,1.4-3.4-0.1-3.4-0.1l0.1-0.3l0.2-2L434.4,493.2z"/>
		</g>
		<g>
			<path class="st5" d="M455,431.2c0,0,4.9-9.8-2-17.6c0,0-6.5,2.4-11.5,2.4c-4,0-6-0.5-6-0.5s-1.4,7.3-1.6,18.9L455,431.2z"/>
			<path class="st5" d="M439.8,464.9L439.8,464.9c0,9.9-3.4,22.6-4.6,29.8c-0.1,0-0.3,0-0.4,0c-2.6-0.1-4.1-0.5-4.1-0.5v-0.8
				c0.9-11.6,0.7-30.6,0.8-36.5c0-0.4,0-0.8,0.1-1.1c0.7-4.4,5.2-3.5,6.9,0.6c0.3,0.7,0.5,1.4,0.7,2.2c0.1,0.3,0.1,0.6,0.2,1l0,0
				c0.2,1,0.3,2.1,0.4,3.3v0.1c0,0.3,0,0.6,0.1,1v0.1C439.8,464.2,439.8,464.5,439.8,464.9z"/>
			<path class="st5" d="M446.8,435.3c0,0.1-0.1,0.2-0.1,0.4c-1.1,4.2-4,14.2-6,20.3l0,0l0,0c-0.5,1.4-0.9,2.6-1.2,3.4l0,0
				c-0.2,0.4-0.6,0.8-1.2,1c-0.3,0.1-0.6,0.2-0.9,0.3c-2.3,0.5-5.6-0.6-5.7-5.1c0-0.5,0-1.1,0.1-1.6c0.5-3.7,2.6-24,2.9-25.9
				c0.3-2,0.8-4.8,1.9-5.1C441.8,421.5,448.6,428,446.8,435.3z"/>
			<path class="st38" d="M439.6,457.7l1-1.7l0,0c-0.1,0.4-0.9,3.4-0.9,6.7v0.1c0,0.3,0,0.6,0.1,1v0.1c0,0.5,0,0.9,0,1l0,0
				c-0.2,0.8-1.4-3.4-1.6-4.4c0-0.1-0.1-0.2-0.1-0.2l1-1.8L439.6,457.7z"/>
			<path class="st40" d="M446.7,435.7c-1.1,4.2-4,14.2-6,20.3l0,0l0,0c-0.1,0.4-0.9,3.4-0.9,6.7v0.1c0,0.3,0,0.6,0.1,1v0.1
				c0,0.3,0,0.7,0,1l0,0c0,9.9-3.4,22.6-4.6,29.7c-0.1,0-0.3,0-0.4,0c0,0,1.4-11.8,3-19.9c1.2-6.3,0.1-11.8-0.5-14
				c-0.2-0.6-0.3-1-0.3-1l1.5-3.5c1.7-4.5,2.4-15.4,2.4-15.4c-3-7.8-2.8-17.5-2.8-17.5l2.9,0.6l4.9,6.7L446.7,435.7z"/>
			<path class="st5" d="M455.7,457.1c-3.3-3.5-8.3-2.3-6.3,3c2.1,5.6,8.7,21.3,12.1,32.4l0.2,0.7c0,0,1.7-0.2,4.4-1.1
				c-1.5-7.1-2.1-19.3-5.7-28C459.3,461.2,457.4,458.9,455.7,457.1z"/>
			<g>
				<g>
					<path class="st5" d="M438,423.5c-0.2-8.2,9.6-2.1,14.3,0.9c2,1.3,2.6,3.6,2.7,5.7s1.4,24.2,1.7,28.3c0.6,9.1-6.9,3.7-7.5,1.1
						C447.7,453,438.1,427.9,438,423.5z"/>
				</g>
			</g>
			<path class="st5" d="M456.4,452.7c0,0,0,4.3,3.3,9.9c0,0-5.8-3.1-6-3.5c-0.3-0.4-1-4.7-0.9-5.1
				C453,453.5,456.4,452.7,456.4,452.7z"/>
		</g>
		<path class="st39" d="M432.8,360.2c0,0-1.5,14.5,9.4,11.5c0.6,0.1,3.9-0.8,4.4-5.2c0.5-4.4-2-9.1-2.2-9.2s-7.1-0.3-7.4-0.3
			S432.8,360.2,432.8,360.2z"/>
		<path class="st41" d="M442,363.9c0,0-1.7-0.8-1.3-3.1c0.4-2.3,0.1-2.4-1.5-1.5c-1.7,1-10.1,5.6-8.7-5.2c1,0.6,4.1,0.5,4.7-0.8
			s7.8-5,10.5,0.3c1.9,0.1,4.1,2.2,3.8,6.5c-0.2,4.3-1.8,9.8-3.4,10.1c-1.6,0.3-2.4-1-2.4-3c0.1-1,3.1-2.4,0.9-5.6
			C443.8,360.6,441.1,361.5,442,363.9z"/>
		<path class="st39" d="M444.1,370.4c0,0-0.3,3.1,0.7,4.4c-2.3,1.8-6.6,1.4-6.6,1.4s1.3-1.3,0-5.7
			C436.9,366.1,444.1,370.4,444.1,370.4z"/>
		<path class="st7" d="M431.6,394.1c0,0,3,2.4,5.3,2.6l-1.2-13.3l-1.2,3.2L431.6,394.1z"/>
		<path class="st11" d="M431.6,394.1c0,0,3,2.4,5.3,2.6l-0.8-13.4l-0.3,0.1c-0.6,1.7-1.6,5.4-1.4,9c0,0.3,0,1.8,0,2.4
			C434.2,395.2,432.6,394.4,431.6,394.1z"/>
		<path class="st7" d="M433.9,415c0,0,0.1,0.1,0.4,0.2c1.7,0.7,9.3,3,18.7-1.7c1.2-0.6,1.2-0.6,1.2-0.6s-1.5-3.5-1.8-13.5
			c-0.3-10.1,0-11.2-1.7-16.2c-1.5-4.4-6.3-9.7-6.3-9.7s-4.5,2.8-6.1,2.8c-2,5-4.2,11.4-3.4,16.1c0.5,3.1,0,12.2-0.5,17.9
			C434.1,413,433.9,415,433.9,415z"/>
		<path class="st11" d="M433.9,415c0,0,0.1,0.1,0.4,0.2c4-3.1,9.3-7.6,10.7-9.6c1.7-2.3,2.3-6.3,2.5-8.1c0.3,0,0.6,0,0.8,0
			c1.4-6.9-0.9-13.1-0.9-13.1l-7.4,2.7l-2.8,8.3c0,0,2.1,0.9,3.7,1.3c-0.3,2.5-0.8,6.6-1.2,7.5c-0.3,0.7-2.9,3.5-5.5,6.1
			C434.1,413,433.9,415,433.9,415z"/>
		<path class="st42" d="M428.2,400.2"/>
		<g>
			<g>
				
					<rect x="406.7" y="399.1" transform="matrix(1.136990e-03 -1 1 1.136990e-03 6.8891 830.8599)" class="st31" width="25.2" height="25.7"/>
				
					<rect x="417.1" y="388.8" transform="matrix(1.133590e-03 -1 1 1.133590e-03 17.2528 820.5966)" class="st14" width="4.6" height="25.7"/>
				
					<rect x="417.3" y="387.9" transform="matrix(1.137434e-03 -1 1 1.137434e-03 17.931 820.324)" class="st31" width="4.6" height="26.6"/>
				<polygon class="st16" points="417.3,398.8 417.3,406.5 417.8,405.7 418.3,406.5 418.8,405.7 419.2,406.5 419.7,405.7 
					420.2,406.5 420.7,405.7 421.2,406.5 421.2,398.8 				"/>
			</g>
		</g>
		<g>
			<g>
				<path class="st39" d="M426.3,422.2c0,0.8-1.5,2.8-2.6,3.1c-0.4,0.1-0.7,0.1-1.1,0c-0.5,0.2-2.1,0.4-1.5-0.6
					c-1,0.8-2.2,0.8-3.5,0.7c-0.4,0-0.4-0.5,0.5-0.8c1.3-0.3,2.3-1.2,3-2.4c-0.2-0.2-0.4,0.1-0.9,0.2c-0.6,0.1-0.9-0.2-0.9-0.4
					c0-0.2,0.7-0.4,0.9-0.5c0.6-0.4,1.2-0.8,1.8-1.1c0.7-0.4,1.1-0.6,1.9-0.7c0.1,0,1.4,0.1,1.1,0.5"/>
			</g>
			<path class="st39" d="M447.4,392.8c-1.6,3.2-5.7,13.6-6.3,14.8c-2.5,4.7-15.2,15-15.2,15s-2.1-0.4-2.1-2.5
				c3.6-2.5,10.5-13.1,11.9-14.4c0.9-0.8,5.2-17.4,5.2-17.4"/>
		</g>
		<path class="st7" d="M447.4,384c0,0,1.4,5.7,0,12.6c-5.7,0.3-10-1.2-10-1.2l1.8-9.3"/>
	</g>
	<g>
		<g>
			<path class="st37" d="M176.2,428.3c2.2,2.6,4.1,8.9,6.4,11.5c1.1,1.3,9.2,8.1,14.6,11.1c0.2-1.6,3.7-0.6,2.4-1.7
				c-3.8-3.4-10.4-6.8-12.7-13c-1.5-4.1-7-13.1-7-13.1"/>
		</g>
		<g>
			<g>
				
					<rect x="189.9" y="429.9" transform="matrix(1 -1.135338e-03 1.135338e-03 1 -0.5005 0.2287)" class="st15" width="22.5" height="22.1"/>
				
					<rect x="189.9" y="429.9" transform="matrix(1 -1.137744e-03 1.137744e-03 1 -0.4913 0.2291)" class="st14" width="22.5" height="4"/>
				
					<rect x="189.3" y="429.4" transform="matrix(1 -1.137517e-03 1.137517e-03 1 -0.4906 0.2289)" class="st15" width="23.3" height="4"/>
				<polygon class="st31" points="203,429.4 203,436.1 202.5,435.4 202.1,436.1 201.7,435.4 201.3,436.1 200.9,435.4 200.4,436.1 
					200,435.4 199.6,436.1 199.6,429.4 				"/>
			</g>
		</g>
		<g>
			<path class="st43" d="M166.7,516.7c0,0-0.8,4.4-0.6,5c0.3,0.6,1.2,2.2,2.1,2.7c1,0.6,3.2,1.3,3.3,1.6c0.2,0.3,0.2,0.7-0.1,0.9
				c-0.8,0.6-2.1,1-3.1,0.9c-2.9-0.4-3.3-1.7-5-1.9c-0.3,0-0.8,0.4-1.7,0c-0.8-0.4-1.2-1.1-1.2-1.8c0.1-1.2,0.8-2.2,1.2-3.2
				c0.5-0.9,0.7-5,0.7-5"/>
			<path class="st44" d="M173.3,442.6l-11.6,0.3c0,0-4.5,6.4-2.6,12.5c0.9,3,2.1,4.5,2.6,5.9c0.5,1.3,3.9,20.1,3.8,21.5
				c-0.2,1.4-1.7,5.3-2.2,9.4c-0.6,4.9-0.1,20.8-0.6,25c1.5,0.8,2.7,0.8,4,0.7c1.5-12.2,5.6-28.7,6.1-34.8
				C173.1,477,173.9,457.4,173.3,442.6z"/>
			<g>
				<path class="st45" d="M172.2,462.8c0,0-8.1-17.2-9.7-13.4c-2.6,6.2,2.3,9.6,2.3,9.6c1.9,3.1,6.3,20.6,6.5,24.3
					c0.1,1.9,0,3.9,0.1,5.8c0,0.1,0.1,0.4,0.1,0.6c0.5-2.9,0.9-5.4,1-6.9c0.4-4.3,0.2-11.2-0.1-20
					C172.3,462.8,172.3,462.8,172.2,462.8z"/>
			</g>
			<path class="st41" d="M171.7,527.1c0.2-0.4,0.2-0.9,0-1.1c-0.3-0.2-1.3-0.8-1.8-1.1c-0.6-0.2-1.5-0.5-1.2-0.3s-0.2,0.8-0.8,0.8
				c-1.8-0.1-3.2-1.3-4.3-1.5c-1.5-0.3-2.2-2.1-2.3-2.4c-0.3,0.2-0.9,1.6-1,2.1c-0.1,0.4-0.3,1.2-0.2,1.6c0.1,0.3,0.3,0.9,0.2,1.5
				c0,0,0.3,0.2,1.1,0.4c0.5,0.1,1.2,0,1.2,0l0.1-0.9c0,0,0.4,0,0.9,0.1s1.4,0.6,1.4,0.6c0.2,0.2,0.4,0.7,0.7,0.8
				c0.7,0.4,1.5,0.5,2.4,0.5C170.3,528.3,171.4,527.7,171.7,527.1z"/>
		</g>
		<g>
			<path class="st43" d="M176.4,518.5c1.3,0,2.4,0,3.7,0.1c-0.1,2.3,0.3,4,0.4,4.1c0.3,0.6,1.5,2,2.6,2.4s3.4,0.8,3.6,1
				s0.3,0.6,0,0.9c-0.7,0.8-2.1,1.3-3,1.3c-3.1,0-3.6-1.2-5.4-1.1c-0.3,0-0.8,0.5-1.7,0.3c-0.9-0.3-1.4-0.9-1.5-1.7
				c-0.1-1.2,0.9-2.4,1.3-3.3C176.4,522.4,176.3,518.8,176.4,518.5z"/>
			<path class="st44" d="M164.7,441.2l11.6,3c3.5,14.1,6,29.8,5.7,38.7c-0.2,5.1-1.6,26.3-1.7,35c0,0.2,0,0.5,0,0.8
				c-1.3,0-2.6-0.1-3.8-0.1c0-0.1,0-0.2,0-0.3c-0.4-5.3-2.7-19.3-2.7-23.9c0-5.4,1.5-10.4,1.5-10.4s-7.9-22.8-8.4-24.2
				c-0.5-1.4-3.6-1.9-4.3-5.6C161.2,447.8,164.7,441.2,164.7,441.2z"/>
			<path class="st41" d="M186.9,527.2c0.2-0.4,0.1-0.9-0.1-1c-0.3-0.1-1.4-0.6-2-0.8s-1.6-0.2-1.2-0.1c0.4,0.1-0.2,0.8-0.7,0.9
				c-1.9,0.2-3.5-0.8-4.6-0.8c-1.6-0.1-2.2-1.8-2.3-2c-0.3,0.2-1,1.8-1.1,2.2s-0.2,1.2,0,1.6c0.1,0.3,0.4,0.8,0.4,1.5
				c0,0,0.3,0.2,1.2,0.2c0.5,0,1.2-0.2,1.2-0.2v-1c0,0,0.4-0.1,1-0.1s1.2,0.3,1.6,0.5c0.3,0.2,0.5,0.5,0.9,0.6
				c0.9,0.2,1.5,0.3,2.5,0.2C185.5,528.7,186.6,527.9,186.9,527.2z"/>
		</g>
		<g>
			<path class="st7" d="M175.3,411.8c0.8,0.3,0.5,2.2,1.3,2.4c0.6,0.2,1.7-0.1,2.2,0.2c2.8,1.6,2.1,4.7,2.5,8.6
				c1.2,3,1.6,5.7,0.6,7.4c-1.2,2.1-2.4,2.7-3.8,4.4c-1.1,1.3-1.4,3.9-1.6,6.8c0,0.5,0.4,1.3,0.3,1.8c-0.2,0.9-1.6,1.2-3.2,1.3
				c-3.6,0.1-9-1.1-10.6-1.1c-1.5,0.1-2.9-0.6-2.8-1.5c0.1-0.6,0.7-0.9,0.9-2.1c0.5-2.6,0.9-9.2,1.3-11.4c1-5.7,1.8-10,4-15.2"/>
		</g>
		<g class="st33">
			<path class="st1" d="M183.5,425.4c-0.9-1.5-2.1-2.9-3.3-4.2l-3,1.4c1.5,2.7,1.8,6,2.4,9c0.7,0.1,1.8-0.2,1.8-0.2
				c0.3-0.5,0.2-0.2,0.6-0.9C182.6,429.3,183.4,427.4,183.5,425.4z"/>
		</g>
		<path class="st43" d="M185.4,404c0.3-1.3,0.5-2.8,0.5-3.9c-0.1-2.3-0.4-5.5-4.2-6.8c-3.8-1.3-7.9-0.5-9.1,2.3
			c-1.2,2.7-0.9,6.8-1,9c-0.2,2.2-1.7,4.8-1.7,4.8l8.1,3.4c0,0,1.3-2.9,1.8-3.2c0.5-0.3,0.7,1,2.5,0.8c0.8-0.1,1.6-1.5,2.2-3.2
			c0-0.1,0-0.1,0.1-0.2c0.4,0,0.9-0.1,1-0.1c0.6-0.2,0.5-0.4,0.4-0.8C185.6,405.4,185.5,404.6,185.4,404z"/>
		<g>
			<path class="st43" d="M197.1,450.2c0,0.7,1.3,2.4,2.3,2.7c0.3,0.1,0.7,0.1,0.9,0c0.4,0.2,1.8,0.3,1.3-0.5c0.9,0.7,1.9,0.7,3,0.6
				c0.4,0,0.4-0.5-0.5-0.7c-1.1-0.3-2-1-2.6-2.1c0.2-0.1,0.3,0.1,0.8,0.2s0.8-0.2,0.8-0.4c0-0.2-0.6-0.4-0.7-0.5
				c-0.5-0.3-1-0.7-1.6-1c-0.6-0.4-0.9-0.5-1.6-0.6c-0.1,0-1.2,0.1-0.9,0.5"/>
		</g>
		<path class="st43" d="M178.6,424.5c1.4,2.8,5,11.9,5.5,13c2.2,4.2,13.3,13.1,13.3,13.1s1.9-0.3,1.8-2.2
			c-3.2-2.2-9.2-11.5-10.4-12.6c-0.8-0.7-4.5-15.2-4.5-15.2"/>
		<path class="st7" d="M181.5,414.2c-3.1-1.1-6-1.1-8.4-3.5c-2.4,1.9,3,12.4,4.3,12.7c1.3,0.3,3.1,6.1,3.5,6.9
			c4.3-0.2,5.8-2.5,5.8-2.5C184.9,422.6,184.5,415.3,181.5,414.2z"/>
		<g>
			<path class="st41" d="M179,414.5c-0.2-0.8-0.8-1.4-1-2.2c-0.1-0.8,0-1.8,0.4-2.4c0.3-0.4,0.7-0.7,1-1c1.7-1.4,2.3-2.5,1.7-4.4
				c-0.2-0.7-0.4-1.3-0.3-2c0.1-0.6,0.2-1.3,0.8-1.3c0.5-0.1,0.8,0,0.9,0.4c0.1,0.3-0.1,2.2,0.5,1.1s1.1-1.1,1.1-3.6
				c0-0.3-0.1-1.5,0.1-1.6c1.1,0.8,1.5,2.2,1.6,3.2c0.8-0.4,1.1-1.6,1.1-2c0-1-0.1-1.7-0.5-2.4c-1.5-3.1-3.1-3.7-4.4-4.2
				s-2.6-1.1-4-1s-3.1,0.5-3.5,1.5c-1.9-0.5-3,1.2-3.5,1.8c-0.6,0.9-1.1,1.8-1.5,2.9c-0.5,1.5-0.6,3.1-0.9,4.7
				c-0.3,1.3-0.8,2.6-1.8,3.5c-0.9,0.9-2.2,0.9-3.2,1.7c-1.3,1-2,2.6-1.9,4.3c0.1,1.6,0.9,3.4,0,4.9c-0.3,0.5-0.8,0.9-1.1,1.4
				c-0.7,1.1-0.6,2.7,0.1,3.8c0.7,1.1,2.1,2.4,3.3,2.8c1.3,0.4,2.3,0.5,3.6,0.5c2.3-0.2,4.3,0,6.7-2.2c1.4-1.2,0.5-1.9,1.8-3.2
				c0.7-0.7,1.8-1.1,2.3-2C179.2,416.4,179.2,415.5,179,414.5C179,414.6,179,414.6,179,414.5z"/>
		</g>
	</g>
	<g>
		<g>
			<circle class="st46" cx="157" cy="255.3" r="4.1"/>
			<circle class="st46" cx="263.2" cy="107.6" r="4.1"/>
			<path class="st47" d="M485.9,117.7c0,1.1-0.9,1.9-1.9,1.9c-1.1,0-1.9-0.9-1.9-1.9c0-1.1,0.9-1.9,1.9-1.9
				C485.1,115.8,485.9,116.6,485.9,117.7z"/>
			<path class="st47" d="M89.9,279.9c0,1.1-0.9,1.9-1.9,1.9c-1.1,0-1.9-0.9-1.9-1.9c0-1.1,0.9-1.9,1.9-1.9S89.9,278.8,89.9,279.9z"
				/>
			<circle class="st46" cx="491.2" cy="202.9" r="4.1"/>
			<circle class="st46" cx="580.3" cy="342.1" r="4.1"/>
		</g>
		<g>
			<g>
				<line class="st48" x1="388" y1="116.6" x2="388" y2="122.7"/>
				<line class="st48" x1="391" y1="119.6" x2="385" y2="119.6"/>
			</g>
			<g>
				<line class="st48" x1="560.4" y1="170.4" x2="560.4" y2="176.4"/>
				<line class="st48" x1="563.4" y1="173.4" x2="557.4" y2="173.4"/>
			</g>
			<g>
				<line class="st48" x1="580.3" y1="395.7" x2="580.3" y2="401.7"/>
				<line class="st48" x1="583.3" y1="398.7" x2="577.3" y2="398.7"/>
			</g>
			<g>
				<line class="st48" x1="111.8" y1="184.3" x2="111.8" y2="190.4"/>
				<line class="st48" x1="114.9" y1="187.4" x2="108.8" y2="187.4"/>
			</g>
			<g>
				<line class="st48" x1="141.7" y1="339.2" x2="141.7" y2="345.3"/>
				<line class="st48" x1="144.7" y1="342.3" x2="138.6" y2="342.3"/>
			</g>
			<g>
				<line class="st48" x1="249.2" y1="178.1" x2="249.2" y2="184.1"/>
				<line class="st48" x1="252.3" y1="181.1" x2="246.2" y2="181.1"/>
			</g>
		</g>
	</g>
	<g>
		<g>
			<g>
				<polygon class="st14" points="493.5,423.5 493.5,436 494.1,434.8 494.7,436 495.4,434.8 496,436 496.6,434.8 497.3,436 
					497.9,434.8 498.6,436 498.6,423.5 				"/>
			</g>
			<g>
				
					<rect x="473.4" y="428" transform="matrix(1.135962e-03 -1 1 1.135962e-03 48.4265 938.7538)" class="st15" width="41.4" height="34.2"/>
				
					<rect x="490.3" y="411.1" transform="matrix(1.128022e-03 -1 1 1.128022e-03 65.3842 921.765)" class="st14" width="7.5" height="34.2"/>
				
					<rect x="490.7" y="409.7" transform="matrix(1.138849e-03 -1 1 1.138849e-03 66.511 921.3041)" class="st15" width="7.5" height="35.4"/>
				<polygon class="st31" points="491.4,423.5 491.4,436 492,434.8 492.7,436 493.3,434.8 493.9,436 494.6,434.8 495.2,436 
					495.8,434.8 496.5,436 496.5,423.5 				"/>
			</g>
		</g>
		<g>
			<g>
				
					<rect x="505.7" y="441.4" transform="matrix(1 -1.135449e-03 1.135449e-03 1 -0.5147 0.5886)" class="st14" width="24.9" height="24.4"/>
				
					<rect x="505.7" y="441.4" transform="matrix(1 -1.131233e-03 1.131233e-03 1 -0.5015 0.5864)" class="st14" width="24.9" height="4.4"/>
				
					<rect x="505.1" y="440.9" transform="matrix(1 -1.138715e-03 1.138715e-03 1 -0.5043 0.5901)" class="st14" width="25.7" height="4.4"/>
				<polygon class="st14" points="520.1,440.9 520.2,448.3 519.7,447.6 519.2,448.3 518.8,447.6 518.3,448.3 517.8,447.6 
					517.4,448.3 516.9,447.6 516.4,448.3 516.4,440.9 				"/>
			</g>
			<g>
				
					<rect x="507.2" y="441.4" transform="matrix(1 -1.136274e-03 1.136274e-03 1 -0.5151 0.5908)" class="st31" width="24.9" height="24.4"/>
				
					<rect x="507.2" y="441.4" transform="matrix(1 -1.135797e-03 1.135797e-03 1 -0.5035 0.5905)" class="st14" width="24.9" height="4.4"/>
				
					<rect x="506.6" y="440.9" transform="matrix(1 -1.138715e-03 1.138715e-03 1 -0.5043 0.5918)" class="st31" width="25.7" height="4.4"/>
				<polygon class="st16" points="521.7,440.9 521.7,448.3 521.2,447.6 520.7,448.3 520.3,447.6 519.8,448.3 519.3,447.6 
					518.9,448.3 518.4,447.6 517.9,448.3 517.9,440.9 				"/>
			</g>
		</g>
	</g>
</g>
<g>
	<defs>
		<rect id="SVGID_1_" x="0.5" width="599.5" height="599.5"/>
	</defs>
	<clipPath id="SVGID_2_">
		<use xlink:href="#SVGID_1_"  style="overflow:visible;"/>
	</clipPath>
	<path class="st49" d="M411.7,0.9c0,0-108.8-5.1-132.7,152.2c-13.4,59.4-59.1,143.3-152.3,160.8C33.6,331.4-25.8,366.3-58.6,495.7
		c-10.2,26.2-45.3,108.4-131.7,103.1c342.9,0,790.3,0,790.3,0V0.9H411.7z"/>
</g>
</svg>
