<?xml version="1.0" encoding="utf-8"?>
<!-- Generator: Adobe Illustrator 25.2.0, SVG Export Plug-In . SVG Version: 6.00 Build 0)  -->
<svg version="1.1" id="Layer_1" xmlns="http://www.w3.org/2000/svg" xmlns:xlink="http://www.w3.org/1999/xlink" x="0px" y="0px"
	 viewBox="0 0 2760.6 2000" style="enable-background:new 0 0 2760.6 2000;" xml:space="preserve">
<style type="text/css">
	.st0{opacity:0.9;}
	.st1{fill:#777AB0;}
	.st2{fill:#0F112E;}
	.st3{fill:#827CDC;}
	.st4{fill:#E9A056;}
	.st5{fill:#AF835B;}
	.st6{fill:#FFC064;}
	.st7{fill:none;stroke:#3D38A0;stroke-width:1.3579;stroke-linecap:round;stroke-linejoin:round;stroke-miterlimit:10;}
	.st8{fill:#927DDB;}
	.st9{opacity:0.3;fill:#4A4C61;enable-background:new    ;}
	.st10{fill:#068153;}
	.st11{fill:url(#SVGID_1_);}
	.st12{fill:url(#SVGID_2_);}
	.st13{fill:url(#SVGID_3_);}
</style>
<g class="st0">
	<rect x="406.7" y="224.2" class="st1" width="28.1" height="90.2"/>
	<rect x="1058.2" y="224.2" class="st1" width="28.1" height="90.2"/>
	<path class="st2" d="M809.7,307.8H672.9c-14.1,0-25.1-11.1-25.1-25.1v-28.8c0-14.1,11.1-25.1,25.1-25.1h136.8
		c14.1,0,25.1,11.1,25.1,25.1v28.8C834.9,295.9,823.8,307.8,809.7,307.8z"/>
	<rect x="442.2" y="307.8" class="st2" width="608.7" height="18.5"/>
	<path class="st2" d="M420.7,437.2L420.7,437.2c-24.4,0-44.4-20-44.4-44.4v-56.9c0-24.4,20-44.4,44.4-44.4l0,0
		c24.4,0,44.4,20,44.4,44.4v56.9C465.1,417.2,445.1,437.2,420.7,437.2z"/>
	<rect x="244" y="202.7" class="st3" width="353.5" height="6.7"/>
	<path class="st2" d="M1072.3,437.2L1072.3,437.2c-24.4,0-44.4-20-44.4-44.4v-56.9c0-24.4,20-44.4,44.4-44.4l0,0
		c24.4,0,44.4,20,44.4,44.4v56.9C1117.4,417.2,1097.4,437.2,1072.3,437.2z"/>
	<rect x="895.5" y="202.7" class="st1" width="353.5" height="6.7"/>
	<rect x="711.4" y="483" class="st2" width="60.6" height="32.5"/>
	<g>
		<g>
			<g>
				
					<rect x="581.5" y="548.6" transform="matrix(1.135937e-03 -1 1 1.135937e-03 29.1094 1445.851)" class="st4" width="313.6" height="319.5"/>
				
					<rect x="710.4" y="420.1" transform="matrix(1.146771e-03 -1 1 1.146771e-03 158.177 1317.9692)" class="st5" width="56.9" height="319.5"/>
				
					<rect x="712.6" y="408.2" transform="matrix(1.136917e-03 -1 1 1.136917e-03 166.7715 1313.9326)" class="st4" width="56.9" height="330.6"/>
				<polygon class="st6" points="713.6,545.2 712.8,639.8 719.5,630.9 725.4,639.8 731.3,630.9 737.2,639.8 743.2,630.9 
					749.1,639.8 755,630.9 760.9,639.8 760.9,545.2 				"/>
			</g>
		</g>
		<polyline class="st7" points="606.3,866.9 556.8,866.9 556.8,515.6 925.8,515.6 925.8,865.4 867.4,865.4 		"/>
	</g>
	<path class="st8" d="M846.7,490.4H647c-18.5,0-33.3-14.8-33.3-33.3v-156c0-18.5,14.8-33.3,33.3-33.3h199.7
		c18.5,0,33.3,14.8,33.3,33.3v156C880,475.6,865.2,490.4,846.7,490.4z"/>
	<path class="st9" d="M820.1,465.3H673.6c-17,0-30.3-13.3-30.3-30.3V322.5c0-17,13.3-30.3,30.3-30.3h146.4c17,0,30.3,13.3,30.3,30.3
		V435C850.4,452,837.1,465.3,820.1,465.3z"/>
	<g>
		<rect x="414.1" y="210.1" class="st2" width="13.3" height="17"/>
		<path class="st3" d="M436.2,207.2c0,8.1-30.3,8.1-30.3,0c0-8.1,6.7-14.8,14.8-14.8C428.9,192.4,436.2,199,436.2,207.2z"/>
	</g>
	<g>
		<rect x="1065.6" y="210.1" class="st2" width="13.3" height="17"/>
		<path class="st3" d="M1087.8,207.2c0,8.1-30.3,8.1-30.3,0c0-8.1,6.7-14.8,14.8-14.8S1087.8,199,1087.8,207.2z"/>
	</g>
</g>
<g>
	<g>
		<path class="st10" d="M987.3,1137.5H744.2c-33.6,0-60.8-27.2-60.8-60.8l0,0c0-33.6,27.2-60.8,60.8-60.8h243.1
			c33.6,0,60.8,27.2,60.8,60.8l0,0C1048.1,1110.3,1020.9,1137.5,987.3,1137.5z"/>
		<path class="st10" d="M1143.1,651.2h-179c-2.5,0-4.5-2-4.5-4.5V534.1c0-2.5,2-4.5,4.5-4.5h179c2.5,0,4.5,2,4.5,4.5v112.6
			C1147.6,649.2,1145.6,651.2,1143.1,651.2z"/>
		<linearGradient id="SVGID_1_" gradientUnits="userSpaceOnUse" x1="1342.5055" y1="1629.5153" x2="1641.9525" y2="1629.5153">
			<stop  offset="0" style="stop-color:#0F112E"/>
			<stop  offset="1" style="stop-color:#3F4158"/>
		</linearGradient>
		<path class="st11" d="M1492.2,1479.8c-82.7,0-149.7,67-149.7,149.7c0,82.7,67,149.7,149.7,149.7c82.7,0,149.7-67,149.7-149.7
			C1642,1546.8,1574.9,1479.8,1492.2,1479.8z M1492.2,1675.6c-25.5,0-46.1-20.6-46.1-46.1c0-25.5,20.6-46.1,46.1-46.1
			c25.5,0,46.1,20.6,46.1,46.1C1538.3,1655,1517.7,1675.6,1492.2,1675.6z"/>
		<linearGradient id="SVGID_2_" gradientUnits="userSpaceOnUse" x1="1952.9176" y1="1629.5153" x2="2252.3633" y2="1629.5153">
			<stop  offset="0" style="stop-color:#0F112E"/>
			<stop  offset="1" style="stop-color:#3F4158"/>
		</linearGradient>
		<path class="st12" d="M2102.6,1479.8c-82.7,0-149.7,67-149.7,149.7c0,82.7,67,149.7,149.7,149.7c82.7,0,149.7-67,149.7-149.7
			C2252.4,1546.8,2185.3,1479.8,2102.6,1479.8z M2102.6,1675.6c-25.5,0-46.1-20.6-46.1-46.1c0-25.5,20.6-46.1,46.1-46.1
			s46.1,20.6,46.1,46.1C2148.7,1655,2128.1,1675.6,2102.6,1675.6z"/>
		<linearGradient id="SVGID_3_" gradientUnits="userSpaceOnUse" x1="882.3926" y1="952.8786" x2="2438.0566" y2="952.8786">
			<stop  offset="0" style="stop-color:#A81D34"/>
			<stop  offset="1" style="stop-color:#FF928E"/>
		</linearGradient>
		<path class="st13" d="M2435.5,1481.3l-180.7-857.9c-11.4-54.6-59.7-93.8-115.5-93.8h-58.4c-3.1-2-6.3-3.6-9.8-4.8
			C2051.9,387.8,1933.9,282,1791.7,282c-141.1,0-258.3,104.1-278.9,239.4c-4.4,2.2-8.5,5-12.2,8.2h-236.9
			c-33.5,0-60.8,27.2-60.8,60.8c0,33.5,27.3,60.8,60.8,60.8h79.7c33.6,0,60.8,27.2,60.8,60.7c0,16.8-6.8,32-17.9,43
			c-10.9,11.1-26.1,17.9-43,17.9h-300.7c-33.6,0-60.8,27.2-60.8,60.8c0,33.5,27.2,60.8,60.8,60.8H1341c33.5,0,60.8,27.2,60.8,60.7
			c0,16.8-6.8,32-17.9,43.1c-11.1,10.9-26.3,17.7-43,17.7h-165.8c-33.5,0-60.7,27.3-60.7,60.8c0,33.5,27.2,60.8,60.7,60.8h45.1
			c33.2,0.5,59.9,27.5,59.9,60.8c0,16.8-6.8,31.9-17.9,43c-10.9,10.9-26.1,17.7-43,17.7H943.1c-33.5,0-60.7,27.3-60.7,60.8
			c0,33.6,27.2,60.8,60.7,60.8h287.7c33.6,0,60.8,27.2,60.8,60.8c0,16.7-6.8,31.9-17.7,43c-11.1,10.9-26.3,17.7-43.1,17.7h-219.2
			c-33.5,0-60.8,27.3-60.8,60.8c0,33.6,27.3,60.8,60.8,60.8h284.9c3-105.5,89.5-190,195.7-190c106.2,0,192.7,84.5,195.7,190H1907
			c3-105.5,89.5-190,195.7-190c106.2,0,192.7,84.5,195.7,190h21.5C2394.8,1623.8,2450.9,1554.8,2435.5,1481.3z M1570.7,525.2
			c18.5-105.3,110.4-185.7,221-185.7c112.1,0,205,82.6,221.6,190h-437C1574.6,528.1,1572.6,526.6,1570.7,525.2z M1537.8,1241.3
			c-11.1,10.9-26.3,17.7-43.1,17.7h-87.4c-33.6,0-60.8-27.2-60.8-60.7c0-16.8,6.8-32,17.9-43.1c10.9-10.9,26.1-17.7,43-17.7h87.4
			c33.6,0,60.8,27.2,60.8,60.8C1555.6,1215.1,1548.8,1230.2,1537.8,1241.3z M2076.4,799.8c-20.6,135.3-137.9,239.4-278.9,239.4
			c-142.2,0-260.2-105.8-279.4-242.8c-21.8-8.3-37.3-29.1-37.3-53.8c0-31.8,25.8-57.6,57.6-57.6c31.8,0,57.6,25.8,57.6,57.6
			c0,17.7-8.2,33.4-20.8,44c14.5,109.9,108.6,195,222.4,195c110.6,0,202.5-80.4,221-185.7c-15.2-10.4-25.2-27.8-25.2-47.6
			c0-31.8,25.8-57.6,57.6-57.6c31.8,0,57.6,25.8,57.6,57.6C2108.4,771,2095.3,790.4,2076.4,799.8z"/>
	</g>
</g>
</svg>