<svg id="Layer_1" data-name="Layer 1" xmlns="http://www.w3.org/2000/svg" viewBox="0 0 1920 1080"><defs><style>.cls-1{fill:#fafafa;}.cls-2{fill:#e6e6e6;}.cls-3{fill:#ccc;}.cls-4{fill:#3f3d56;}.cls-5{fill:#a81d34;}.cls-6{fill:#f2f2f2;}.cls-7{fill:#fff;}.cls-8{fill:#ffb8b8;}.cls-9{fill:#e46278;}.cls-10{fill:#2f2e41;}</style></defs><rect class="cls-1" width="1920" height="1080"/><path class="cls-2" d="M1345.75,616H1332v-2h13.59c.32,0,6.74.19,12.65-7,8.82-10.69,16.06-37.18.48-102.59-20.94-88-3.47-165.66,5-195a9.73,9.73,0,0,0-6.66-12.05,9.91,9.91,0,0,0-2.71-.38H1151.42a9.78,9.78,0,0,0-7.9,4c-3.6,5-8.54,14.46-11.63,31.66l-2-.36c3.16-17.57,8.26-27.36,12-32.47a11.79,11.79,0,0,1,9.52-4.85h202.94a11.74,11.74,0,0,1,11.75,11.72,11.94,11.94,0,0,1-.46,3.26c-8.44,29.18-25.82,106.48-5,194,15.79,66.33,8.2,93.39-1,104.41C1353.68,615.64,1347,616,1345.75,616Z" transform="translate(0 0)"/><path class="cls-3" d="M1308.75,652H1295v-2h13.59c.32,0,6.74.19,12.65-7,8.82-10.69,16.06-37.18.48-102.59-20.94-88-3.47-165.66,5-195a9.73,9.73,0,0,0-6.66-12.05,9.91,9.91,0,0,0-2.71-.38H1114.92a9.78,9.78,0,0,0-7.9,4c-3.6,5-8.54,14.46-11.63,31.66l-2-.36c3.16-17.57,8.26-27.36,12-32.47a11.79,11.79,0,0,1,9.52-4.85h202.44a11.74,11.74,0,0,1,11.75,11.72,11.94,11.94,0,0,1-.46,3.26c-8.44,29.18-25.82,106.48-5,194,15.79,66.33,8.2,93.39-1,104.41C1316.68,651.64,1310,652,1308.75,652Z" transform="translate(0 0)"/><path class="cls-4" d="M1272.22,689H1072.86A11.74,11.74,0,0,1,1062,672.92c7.23-18,17-61.36.93-148.6-18.92-103-2-140.26,6.18-151.48a11.78,11.78,0,0,1,9.51-4.84h202.26a11.72,11.72,0,0,1,11.74,11.72,11.57,11.57,0,0,1-.46,3.26c-8.43,29.18-25.81,106.48-5,194,15.8,66.33,8.2,93.39-1,104.41C1280.15,688.64,1273.5,689,1272.22,689ZM1078.57,370a9.8,9.8,0,0,0-7.89,4c-8,11-24.61,47.69-5.83,149.94,15.31,83.35,7.88,127.42-1,149.71a9.55,9.55,0,0,0,1,9.05,9.73,9.73,0,0,0,8.08,4.29h199.19c.31,0,6.73.19,12.65-7,8.81-10.69,16-37.18.48-102.59-21-88-3.48-165.66,5-195a9.73,9.73,0,0,0-6.66-12.05,9.91,9.91,0,0,0-2.71-.38Z" transform="translate(0 0)"/><path class="cls-5" d="M1246.54,458H1087.79a8.16,8.16,0,0,1-8.17-6.81,8,8,0,0,1,7.92-9.19h158.75a8.15,8.15,0,0,1,8.16,6.81A8,8,0,0,1,1246.54,458Z" transform="translate(0 0)"/><path class="cls-3" d="M1246.54,492H1087.79a8.16,8.16,0,0,1-8.17-6.81,8,8,0,0,1,7.92-9.19h158.75a8.15,8.15,0,0,1,8.16,6.81A8,8,0,0,1,1246.54,492Z" transform="translate(0 0)"/><path class="cls-3" d="M1246.54,526H1087.79a8.16,8.16,0,0,1-8.17-6.81,8,8,0,0,1,7.92-9.19h158.75a8.15,8.15,0,0,1,8.16,6.81A8,8,0,0,1,1246.54,526Z" transform="translate(0 0)"/><path class="cls-3" d="M1258.54,560H1099.79a8.16,8.16,0,0,1-8.17-6.81,8,8,0,0,1,7.92-9.19h158.75a8.15,8.15,0,0,1,8.16,6.81A8,8,0,0,1,1258.54,560Z" transform="translate(0 0)"/><path class="cls-3" d="M1258.54,594H1099.79a8.16,8.16,0,0,1-8.17-6.81,8,8,0,0,1,7.92-9.19h158.75a8.15,8.15,0,0,1,8.16,6.81A8,8,0,0,1,1258.54,594Z" transform="translate(0 0)"/><path class="cls-5" d="M1162.54,424h-74.75a8.16,8.16,0,0,1-8.17-6.81,8,8,0,0,1,7.92-9.19h74.75a8.15,8.15,0,0,1,8.16,6.81A8,8,0,0,1,1162.54,424Z" transform="translate(0 0)"/><path class="cls-4" d="M1152.85,648.51c1.62-6.83,9.2-9.07,15.4-8.82a65,65,0,0,1,11.61,1.84c4,.89,7.93,1.94,11.86,3.06,7.2,2.06,14.32,4.54,21.64,6.14,6.09,1.34,12.71,2.12,18.78.28,5.84-1.77,10.8-6.13,12.39-12.15,1.49-5.67-.56-11.87-6.06-14.46-5-2.36-11.34-1.16-13.83,4.18-2.8,6,0,12.6,4.44,17a49.17,49.17,0,0,0,8.24,6.26,30.85,30.85,0,0,0,9.86,4.42c5.78,1.23,12.68-.59,15.66-6.11a10.45,10.45,0,0,0,1.17-4c.18-1.92-2.82-1.91-3,0-.51,5.5-7,8.08-11.77,7.48a24,24,0,0,1-9.13-3.55,53.57,53.57,0,0,1-7.55-5.33c-4.09-3.54-7.92-9.36-5.18-14.88,2.24-4.49,8.07-4.45,11.61-1.55,4.29,3.51,3.53,9.88.7,14-3.14,4.62-8.82,6.55-14.18,6.76-5.82.23-11.59-1.11-17.15-2.69-6.92-2-13.76-4.16-20.71-6-3.94-1.05-7.91-2-11.93-2.74a39.77,39.77,0,0,0-11.57-.8c-6.26.73-12.65,4.37-14.19,10.9-.44,1.87,2.45,2.68,2.89.79Z" transform="translate(0 0)"/><path class="cls-6" d="M1459.35,818.09A458.22,458.22,0,0,0,1464,879h0l184.41-1q.81-1,1.59-2.07a85.54,85.54,0,0,0,4.81-7.13c7.12-11.81,10.38-25.65,7.12-35.19l-.06-.15a16.89,16.89,0,0,0-3.27-5.68c-7.45-8.39-22.51-7-36.17-.22,12.26-13.42,22-30.34,22.76-45.45.72-14.74-7-25.27-15.34-34.22L1629,747c-.14-.15-.28-.29-.41-.44-6.52-6.81-14.13-13.54-25.13-12.72-12.07.89-25.45,11-34.83,22.78s-15.62,25.15-21.94,38.2-13.18,26.42-23.33,37.57c13.75-17.4,24.84-37.19,28.94-56.44s.49-37.74-11.77-46.81a28.73,28.73,0,0,0-12.56-5.06c-.52-.09-1.06-.16-1.61-.23-11.34-1.29-24.89,2.64-36.42,12-12.69,10.33-21.49,25.64-25.87,40.17S1459.21,804.56,1459.35,818.09Z" transform="translate(0 0)"/><path class="cls-7" d="M1580,878l3.53,0,3.37-2.08c.7-.44,1.41-.86,2.12-1.3q17.54-10.71,35.3-20.55T1660,835.26a1.49,1.49,0,0,0,.85-1.69.67.67,0,0,0-.06-.12c-.17-.32-.54-.45-1.08-.18l-4.41,2.22q-18,9.09-35.8,19.1t-35.41,20.88l-.74.45Z" transform="translate(0 0)"/><path class="cls-7" d="M1534.54,879h2.18l1.46-2.07q17.34-24.3,34.66-48.61l56.72-79.57a1.57,1.57,0,0,0,.25-.48c.16-.59-.27-.94-.82-.88a1.67,1.67,0,0,0-1.16.74L1596,792.73l-56.44,79.17-3.59,5C1535.51,877.62,1535,878.31,1534.54,879Z" transform="translate(0 0)"/><path class="cls-7" d="M1486,866.07c.11,3.68.35,7.29.67,10.87.06.69.12,1.37.19,2.06h2.28c-.07-.69-.14-1.37-.2-2.06-.48-5.17-.82-10.41-.87-15.78a220.66,220.66,0,0,1,4.33-44.4,277.31,277.31,0,0,1,13.43-46.12,317.5,317.5,0,0,1,22-45.63,1.2,1.2,0,0,0,.2-.81c-.09-.65-1-.84-1.61-.22a1.7,1.7,0,0,0-.33.42c-1,1.81-2.09,3.63-3.1,5.46a315.74,315.74,0,0,0-21,45.79,274.31,274.31,0,0,0-12.52,46.18A217.35,217.35,0,0,0,1486,866.07Z" transform="translate(0 0)"/><path class="cls-4" d="M1263.08,649.22a2.49,2.49,0,0,1,1.36-4.4,41.3,41.3,0,0,1,16.2,1.65L1334,662.94a5.5,5.5,0,0,1-3.24,10.51L1277.39,657A41.3,41.3,0,0,1,1263.08,649.22Z" transform="translate(0 0)"/><path class="cls-8" d="M1481.63,717.62a10.74,10.74,0,0,1-4.87-15.73l-9.14-47.79,23.29-1.82,1.41,46.75a10.8,10.8,0,0,1-10.69,18.59Z" transform="translate(0 0)"/><path class="cls-9" d="M1466.18,693l-23.72-110.48a17.5,17.5,0,0,1,34.22-7.37v0l23.72,110.48A4.51,4.51,0,0,1,1497,691l-25.42,5.45a4.49,4.49,0,0,1-5.34-3.45Z" transform="translate(0 0)"/><polygon class="cls-8" points="1427 867 1414.81 867 1409.02 820 1427 820 1427 867"/><path class="cls-10" d="M1406.18,863H1430v15h-38.82A15,15,0,0,1,1406.18,863Z" transform="translate(0 0)"/><polygon class="cls-8" points="1468 866 1455.81 866 1450.02 819 1468 819 1468 866"/><path class="cls-10" d="M1447.18,862H1471v15h-38.82A15,15,0,0,1,1447.18,862Z" transform="translate(0 0)"/><path class="cls-10" d="M1412.56,857.76a4.49,4.49,0,0,1-1.62-3.06l-14.25-156.78a4.5,4.5,0,0,1,4.08-4.89l.23,0,71.48-2.68a4.5,4.5,0,0,1,4.67,4.33V695l-5.72,156.17a4.5,4.5,0,0,1-4.09,4.32l-14.41,1.31a4.51,4.51,0,0,1-4.89-4.07.37.37,0,0,0,0-.11l-6.61-99.22A1.44,1.44,0,0,0,1440,752h-.07a1.45,1.45,0,0,0-1.45,1.41h0l-5.92,99.89a4.48,4.48,0,0,1-4,4.21l-12.59,1.26a4.47,4.47,0,0,1-3.31-1Z" transform="translate(0 0)"/><circle class="cls-8" cx="1440.05" cy="513.65" r="24.56"/><path class="cls-9" d="M1392.76,699.16a4.46,4.46,0,0,1-1.06-3.68c4.54-27.56,2-68.08-1-97.21A44.2,44.2,0,0,1,1409,558l12.83-11a4.6,4.6,0,0,1,3-1.08l31.87.91a4.44,4.44,0,0,1,3,1.32l4.93,10.9,0,0a44,44,0,0,1,17.91,37.69L1478,693.69a4.53,4.53,0,0,1-4.34,4.28l-77.35,2.72h-.15A4.49,4.49,0,0,1,1392.76,699.16Z" transform="translate(0 0)"/><path class="cls-8" d="M1300,658.7a10.74,10.74,0,0,1,10.48-11,12,12,0,0,1,1.89.12l39.86-27.9,11.19,20.51-42.08,20.42A10.8,10.8,0,0,1,1300,658.7Z" transform="translate(0 0)"/><path class="cls-9" d="M1333.53,663.55a4.48,4.48,0,0,1-3-1.78l-15.38-21a4.5,4.5,0,0,1,1-6.29l91.1-66.87A17.5,17.5,0,0,1,1428,595.87h0l-91.1,66.86a4.42,4.42,0,0,1-2.65.88A4,4,0,0,1,1333.53,663.55Z" transform="translate(0 0)"/><path class="cls-10" d="M1441.31,535.52c3.26-4,2.9-10.08.29-14.52s-7-7.5-11.62-9.89-9.42-4.27-13.72-7.11-4.1-14.89-5.25-19.91l2.73.91c-1-1.35-1.39-5.31-2.43-6.65,3.08.3,5.45,3.23,8.53,3.53l-1.78-4.77c10.58-.65,17.15,6.69,27.73,6,5.24-.32,10.93-.52,15.23,2.48,3.75,2.6,5.64,7.12,6.88,11.5,2.67,9.43,3.09,20-1.52,28.62s-15.24,14.47-24.52,11.35Z" transform="translate(0 0)"/><path class="cls-4" d="M1306.46,879h381a1,1,0,0,0,0-2h-381a1,1,0,0,0,0,2Z" transform="translate(0 0)"/></svg>