<?xml version="1.0" encoding="utf-8"?>
<!-- Generator: Adobe Illustrator 25.2.0, SVG Export Plug-In . SVG Version: 6.00 Build 0)  -->
<svg version="1.1" id="Layer_1" xmlns="http://www.w3.org/2000/svg" xmlns:xlink="http://www.w3.org/1999/xlink" x="0px" y="0px"
	 viewBox="0 0 2760.6 2000" style="enable-background:new 0 0 2760.6 2000;" xml:space="preserve">
<style type="text/css">
	.st0{fill:#DDE8FD;}
	.st1{fill:#93B3F4;}
	.st2{fill:#BED2FA;}
	.st3{fill:#FFFFFF;}
	.st4{opacity:0.8;}
	.st5{fill:#7D96D4;}
	.st6{fill:#7791D2;}
	.st7{fill:#A74541;}
	.st8{opacity:0.3;fill:#A74541;}
	.st9{fill:#A83F3F;}
	.st10{fill:#E75755;}
	.st11{fill:#AE4C4C;}
	.st12{fill:#6D89CF;}
	.st13{opacity:0.3;fill:#9E332E;}
	.st14{fill:#9F3530;}
	.st15{fill:url(#SVGID_1_);}
	.st16{fill:#FC9290;}
	.st17{fill:#FA7269;}
	.st18{fill:#EA8888;}
	.st19{fill:url(#SVGID_2_);}
	.st20{fill:#63646F;}
	.st21{opacity:0.4;fill:#BED2FA;}
	.st22{fill:url(#SVGID_3_);}
	.st23{fill:#A6A7C1;}
	.st24{fill:#6165A0;}
	.st25{fill:url(#SVGID_4_);}
	.st26{fill:url(#SVGID_5_);}
	.st27{fill:url(#SVGID_6_);}
	.st28{fill:#6A6D98;}
	.st29{fill:#3C3D4B;}
	.st30{fill:#2D2E38;}
	.st31{fill:url(#SVGID_7_);}
	.st32{fill:url(#SVGID_8_);}
	.st33{fill:url(#SVGID_9_);}
	.st34{fill:url(#SVGID_10_);}
	.st35{fill:url(#SVGID_11_);}
	.st36{fill:url(#SVGID_12_);}
	.st37{fill:url(#SVGID_13_);}
	.st38{fill:url(#SVGID_14_);}
	.st39{fill:url(#SVGID_15_);}
	.st40{fill:url(#SVGID_16_);}
	.st41{fill:url(#SVGID_17_);}
	.st42{fill:#3662C1;}
	.st43{fill:#9BB8F5;}
</style>
<g>
	<path class="st0" d="M2286.5,570.9c-23.5,0-42.5,19-42.5,42.5c0,23.5,19,42.5,42.5,42.5c23.5,0,42.5-19,42.5-42.5
		C2329,589.9,2310,570.9,2286.5,570.9z"/>
	<g>
		<g>
			<rect x="1736.4" y="709.6" class="st1" width="201.2" height="978.3"/>
			<rect x="1781.6" y="709.6" class="st2" width="201.2" height="978.3"/>
			
				<rect x="1781.7" y="709.3" transform="matrix(-1 -1.224647e-16 1.224647e-16 -1 3764.4478 1475.2054)" class="st1" width="201.1" height="56.5"/>
			
				<rect x="1781.7" y="831.9" transform="matrix(-1 -1.224647e-16 1.224647e-16 -1 3764.4478 1720.4174)" class="st1" width="201.1" height="56.5"/>
			
				<rect x="1781.7" y="954.5" transform="matrix(-1 -1.224647e-16 1.224647e-16 -1 3764.4478 1965.6301)" class="st1" width="201.1" height="56.5"/>
			
				<rect x="1781.7" y="1077.2" transform="matrix(-1 -1.224647e-16 1.224647e-16 -1 3764.4478 2210.8401)" class="st1" width="201.1" height="56.5"/>
			
				<rect x="1781.7" y="1199.8" transform="matrix(-1 -1.224647e-16 1.224647e-16 -1 3764.4478 2456.0513)" class="st1" width="201.1" height="56.5"/>
			
				<rect x="1781.7" y="1322.4" transform="matrix(-1 -1.224647e-16 1.224647e-16 -1 3764.4478 2701.2627)" class="st1" width="201.1" height="56.5"/>
			
				<rect x="1781.7" y="1445" transform="matrix(-1 -1.224647e-16 1.224647e-16 -1 3764.4478 2946.4766)" class="st1" width="201.1" height="56.5"/>
			
				<rect x="1781.7" y="1567.6" transform="matrix(-1 -1.224647e-16 1.224647e-16 -1 3764.4478 3191.688)" class="st1" width="201.1" height="56.5"/>
		</g>
		<g>
			<rect x="2058" y="848" class="st1" width="201.2" height="839.8"/>
			<rect x="2103.2" y="848" class="st2" width="201.2" height="839.8"/>
			
				<rect x="2103.3" y="847.8" transform="matrix(-1 -1.224647e-16 1.224647e-16 -1 4407.6304 1744.1365)" class="st1" width="201.1" height="48.5"/>
			
				<rect x="2103.3" y="953.1" transform="matrix(-1 -1.224647e-16 1.224647e-16 -1 4407.6304 1954.6476)" class="st1" width="201.1" height="48.5"/>
			
				<rect x="2103.3" y="1058.3" transform="matrix(-1 -1.224647e-16 1.224647e-16 -1 4407.6304 2165.1628)" class="st1" width="201.1" height="48.5"/>
			
				<rect x="2103.3" y="1163.6" transform="matrix(-1 -1.224647e-16 1.224647e-16 -1 4407.6304 2375.6753)" class="st1" width="201.1" height="48.5"/>
			
				<rect x="2103.3" y="1268.8" transform="matrix(-1 -1.224647e-16 1.224647e-16 -1 4407.6304 2586.1895)" class="st1" width="201.1" height="48.5"/>
			
				<rect x="2103.3" y="1374.1" transform="matrix(-1 -1.224647e-16 1.224647e-16 -1 4407.6304 2796.7031)" class="st1" width="201.1" height="48.5"/>
			
				<rect x="2103.3" y="1479.3" transform="matrix(-1 -1.224647e-16 1.224647e-16 -1 4407.6304 3007.217)" class="st1" width="201.1" height="48.5"/>
			
				<rect x="2103.3" y="1584.6" transform="matrix(-1 -1.224647e-16 1.224647e-16 -1 4407.6304 3217.7307)" class="st1" width="201.1" height="48.5"/>
		</g>
		
			<rect x="1627.6" y="1657.9" transform="matrix(-1 -1.224647e-16 1.224647e-16 -1 3339.3462 3438.5757)" class="st3" width="84.2" height="122.8"/>
		<path class="st3" d="M1653.3,1490.3v341.1H760.9l-6.1-0.1l-227.7-2.1c-0.2-0.3-0.4-0.7-0.7-1.2c-0.4-0.7-0.8-1.4-1.3-2.3
			c-0.2-0.3-0.4-0.6-0.6-1c-0.7-1.2-1.4-2.6-2.3-4.1c-1-1.9-2.2-4.1-3.5-6.5v0c-4.8-9-11.1-21.4-18.4-36.9
			c-2.4-5.1-4.8-10.5-7.4-16.2c-1-2.3-2-4.6-3-7v0c-1-2.3-2-4.6-3-7c0-0.1-0.1-0.2-0.1-0.2c-0.7-1.6-1.4-3.3-2.1-5
			c-0.7-1.7-1.5-3.5-2.2-5.3c-3.7-9.2-7.5-18.9-11.3-29.1c-0.1-0.3-0.2-0.5-0.3-0.8c0,0,0,0,0,0c-2.5-6.7-5-13.6-7.4-20.8
			c-1.4-3.9-2.7-7.9-4-12c-0.1-0.2-0.2-0.5-0.2-0.8c-0.6-1.8-1.2-3.6-1.8-5.4c-0.5-1.5-1-3.1-1.5-4.6c-1-3.2-2-6.4-3-9.6
			c-1.3-4.2-2.5-8.4-3.7-12.7c-1.7-5.8-3.3-11.7-4.9-17.7c-0.5-1.8-1-3.6-1.4-5.4c-1.4-5.4-2.8-10.9-4.1-16.5
			c-0.4-1.8-0.9-3.6-1.3-5.4c-0.3-1.1-0.5-2.2-0.8-3.3c-2-8.8-3.9-17.8-5.7-26.9c-2-10-3.8-20.3-5.4-30.7c-1.5-9.6-2.9-19.4-4-29.3
			c-1.1-9.3-2.1-18.8-2.8-28.4c-1.8-22.4-2.6-45.4-2.3-68.8c0.6-40.8,4.9-82.8,14.1-125.4c0.3-1.6,0.7-3.1,1-4.6
			c2.3-10.1,4.8-20.3,7.7-30.4c2.2-7.8,4.5-15.5,7-23.3c1.8-5.6,3.7-11.3,5.8-16.9c4.6-12.8,9.6-25.5,15.2-38.2h4.8V1159
			c30.4-65.7,75.3-130.8,139.2-192.3c1.2-1.2,2.4-2.3,3.6-3.4h3.7v130.5h115.5V881.2h127.4v138h29V854.4h127.4v308.9h161.1v180.1
			h60.2v45.4h138.3v-78.1h79.4v-212.3h98.1v392H1653.3z"/>
		
			<rect x="890.7" y="875.3" transform="matrix(-1 -1.224647e-16 1.224647e-16 -1 1908.9216 1781.9874)" class="st0" width="127.5" height="31.5"/>
		
			<rect x="890.7" y="934.4" transform="matrix(-1 -1.224647e-16 1.224647e-16 -1 1908.9216 1900.2382)" class="st0" width="127.5" height="31.5"/>
		
			<rect x="890.7" y="987.6" transform="matrix(-1 -1.224647e-16 1.224647e-16 -1 1908.9216 2006.6244)" class="st0" width="127.5" height="31.5"/>
		
			<rect x="734.3" y="987.6" transform="matrix(-1 -1.224647e-16 1.224647e-16 -1 1596.0901 2006.6244)" class="st0" width="127.5" height="31.5"/>
		
			<rect x="734.3" y="934.4" transform="matrix(-1 -1.224647e-16 1.224647e-16 -1 1596.0901 1900.2382)" class="st0" width="127.5" height="31.5"/>
		
			<rect x="734.3" y="881.3" transform="matrix(-1 -1.224647e-16 1.224647e-16 -1 1596.0901 1794.0131)" class="st0" width="127.5" height="31.5"/>
		
			<rect x="734.3" y="1039.2" transform="matrix(-1 -1.224647e-16 1.224647e-16 -1 1752.4694 2109.7766)" class="st0" width="283.9" height="31.5"/>
		
			<rect x="734.3" y="1090.7" transform="matrix(-1 -1.224647e-16 1.224647e-16 -1 1752.4694 2212.929)" class="st0" width="283.9" height="31.5"/>
		
			<rect x="1456.2" y="1098.4" transform="matrix(-1 -1.224647e-16 1.224647e-16 -1 3011.3801 2245.2859)" class="st0" width="98.9" height="48.6"/>
		
			<rect x="1456.2" y="1170.6" transform="matrix(-1 -1.224647e-16 1.224647e-16 -1 3011.3801 2389.7815)" class="st0" width="98.9" height="48.6"/>
		
			<rect x="1456.2" y="1242.8" transform="matrix(-1 -1.224647e-16 1.224647e-16 -1 3011.3801 2534.2773)" class="st0" width="98.9" height="48.6"/>
		
			<rect x="1456.2" y="1318.6" transform="matrix(-1 -1.224647e-16 1.224647e-16 -1 3011.3801 2685.7429)" class="st0" width="98.9" height="48.6"/>
		
			<rect x="1456.2" y="1392" transform="matrix(-1 -1.224647e-16 1.224647e-16 -1 3011.3801 2832.5144)" class="st0" width="98.9" height="48.6"/>
		
			<rect x="1456.2" y="1465.4" transform="matrix(-1 -1.224647e-16 1.224647e-16 -1 3011.3801 2979.2859)" class="st0" width="98.9" height="48.6"/>
		
			<rect x="1456.2" y="1542.1" transform="matrix(-1 -1.224647e-16 1.224647e-16 -1 3011.3801 3132.8403)" class="st0" width="98.9" height="48.6"/>
		
			<rect x="734.3" y="1141.1" transform="matrix(-1 -1.224647e-16 1.224647e-16 -1 1752.4694 2302.2466)" class="st0" width="283.9" height="20"/>
		<rect x="1421.1" y="1098.4" class="st0" width="36.5" height="212.3"/>
		<rect x="1304.4" y="1310.7" class="st0" width="73.4" height="78.1"/>
		<path class="st0" d="M734.3,881.3v31.5l0,126.4l0,31.5v23.1H709v-210c1.1-0.8,2.3-1.7,3.4-2.5H734.3z"/>
		<rect x="875.2" y="854.4" class="st0" width="15.5" height="164.6"/>
		<g class="st4">
			<g>
				<g>
					<g>
						
							<rect x="1131.3" y="1194.3" transform="matrix(-1 -1.224647e-16 1.224647e-16 -1 2284.2454 2419.0146)" class="st0" width="21.6" height="30.4"/>
						
							<rect x="1090.9" y="1194.3" transform="matrix(-1 -1.224647e-16 1.224647e-16 -1 2203.4722 2419.0146)" class="st0" width="21.6" height="30.4"/>
						
							<rect x="1051.5" y="1194.3" transform="matrix(-1 -1.224647e-16 1.224647e-16 -1 2124.5039 2419.0146)" class="st0" width="21.6" height="30.4"/>
						
							<rect x="1014" y="1194.3" transform="matrix(-1 -1.224647e-16 1.224647e-16 -1 2049.6321 2419.0146)" class="st0" width="21.6" height="30.4"/>
						
							<rect x="975.9" y="1194.3" transform="matrix(-1 -1.224647e-16 1.224647e-16 -1 1973.3229 2419.0146)" class="st0" width="21.6" height="30.4"/>
					</g>
					<g>
						
							<rect x="937.3" y="1194.3" transform="matrix(-1 -1.224647e-16 1.224647e-16 -1 1896.1412 2419.0146)" class="st0" width="21.6" height="30.4"/>
						
							<rect x="896.9" y="1194.3" transform="matrix(-1 -1.224647e-16 1.224647e-16 -1 1815.3654 2419.0146)" class="st0" width="21.6" height="30.4"/>
						
							<rect x="857.4" y="1194.3" transform="matrix(-1 -1.224647e-16 1.224647e-16 -1 1736.3986 2419.0146)" class="st0" width="21.6" height="30.4"/>
						
							<rect x="820" y="1194.3" transform="matrix(-1 -1.224647e-16 1.224647e-16 -1 1661.5278 2419.0146)" class="st0" width="21.6" height="30.4"/>
						
							<rect x="781.8" y="1194.3" transform="matrix(-1 -1.224647e-16 1.224647e-16 -1 1585.217 2419.0146)" class="st0" width="21.6" height="30.4"/>
					</g>
				</g>
				<g>
					<g>
						
							<rect x="742" y="1194.3" transform="matrix(-1 -1.224647e-16 1.224647e-16 -1 1505.697 2419.0146)" class="st0" width="21.6" height="30.4"/>
						
							<rect x="701.7" y="1194.3" transform="matrix(-1 -1.224647e-16 1.224647e-16 -1 1424.9218 2419.0146)" class="st0" width="21.6" height="30.4"/>
						
							<rect x="662.2" y="1194.3" transform="matrix(-1 -1.224647e-16 1.224647e-16 -1 1345.9564 2419.0146)" class="st0" width="21.6" height="30.4"/>
						
							<rect x="624.7" y="1194.3" transform="matrix(-1 -1.224647e-16 1.224647e-16 -1 1271.0858 2419.0146)" class="st0" width="21.6" height="30.4"/>
						
							<rect x="586.6" y="1194.3" transform="matrix(-1 -1.224647e-16 1.224647e-16 -1 1194.775 2419.0146)" class="st0" width="21.6" height="30.4"/>
					</g>
					<g>
						
							<rect x="548" y="1194.3" transform="matrix(-1 -1.224647e-16 1.224647e-16 -1 1117.5913 2419.0146)" class="st0" width="21.6" height="30.4"/>
						
							<rect x="507.6" y="1194.3" transform="matrix(-1 -1.224647e-16 1.224647e-16 -1 1036.8175 2419.0146)" class="st0" width="21.6" height="30.4"/>
						
							<rect x="468.1" y="1194.3" transform="matrix(-1 -1.224647e-16 1.224647e-16 -1 957.85 2419.0146)" class="st0" width="21.6" height="30.4"/>
						<path class="st0" d="M452.3,1207.8v16.9h-5.8C448.4,1219.1,450.3,1213.5,452.3,1207.8z"/>
					</g>
				</g>
			</g>
			<g>
				<g>
					<g>
						
							<rect x="1131.3" y="1248" transform="matrix(-1 -1.224647e-16 1.224647e-16 -1 2284.2454 2526.4512)" class="st0" width="21.6" height="30.4"/>
						
							<rect x="1090.9" y="1248" transform="matrix(-1 -1.224647e-16 1.224647e-16 -1 2203.4722 2526.4512)" class="st0" width="21.6" height="30.4"/>
						
							<rect x="1051.5" y="1248" transform="matrix(-1 -1.224647e-16 1.224647e-16 -1 2124.5039 2526.4512)" class="st0" width="21.6" height="30.4"/>
						
							<rect x="1014" y="1248" transform="matrix(-1 -1.224647e-16 1.224647e-16 -1 2049.6321 2526.4512)" class="st0" width="21.6" height="30.4"/>
						
							<rect x="975.9" y="1248" transform="matrix(-1 -1.224647e-16 1.224647e-16 -1 1973.3229 2526.4512)" class="st0" width="21.6" height="30.4"/>
					</g>
					<g>
						
							<rect x="937.3" y="1248" transform="matrix(-1 -1.224647e-16 1.224647e-16 -1 1896.1412 2526.4512)" class="st0" width="21.6" height="30.4"/>
						
							<rect x="896.9" y="1248" transform="matrix(-1 -1.224647e-16 1.224647e-16 -1 1815.3654 2526.4512)" class="st0" width="21.6" height="30.4"/>
						
							<rect x="857.4" y="1248" transform="matrix(-1 -1.224647e-16 1.224647e-16 -1 1736.3986 2526.4512)" class="st0" width="21.6" height="30.4"/>
						
							<rect x="820" y="1248" transform="matrix(-1 -1.224647e-16 1.224647e-16 -1 1661.5278 2526.4512)" class="st0" width="21.6" height="30.4"/>
						
							<rect x="781.8" y="1248" transform="matrix(-1 -1.224647e-16 1.224647e-16 -1 1585.217 2526.4512)" class="st0" width="21.6" height="30.4"/>
					</g>
				</g>
				<g>
					<g>
						
							<rect x="742" y="1248" transform="matrix(-1 -1.224647e-16 1.224647e-16 -1 1505.697 2526.4512)" class="st0" width="21.6" height="30.4"/>
						
							<rect x="701.7" y="1248" transform="matrix(-1 -1.224647e-16 1.224647e-16 -1 1424.9218 2526.4512)" class="st0" width="21.6" height="30.4"/>
						
							<rect x="662.2" y="1248" transform="matrix(-1 -1.224647e-16 1.224647e-16 -1 1345.9564 2526.4512)" class="st0" width="21.6" height="30.4"/>
						
							<rect x="624.7" y="1248" transform="matrix(-1 -1.224647e-16 1.224647e-16 -1 1271.0858 2526.4512)" class="st0" width="21.6" height="30.4"/>
						
							<rect x="586.6" y="1248" transform="matrix(-1 -1.224647e-16 1.224647e-16 -1 1194.775 2526.4512)" class="st0" width="21.6" height="30.4"/>
					</g>
					<g>
						
							<rect x="548" y="1248" transform="matrix(-1 -1.224647e-16 1.224647e-16 -1 1117.5913 2526.4512)" class="st0" width="21.6" height="30.4"/>
						
							<rect x="507.6" y="1248" transform="matrix(-1 -1.224647e-16 1.224647e-16 -1 1036.8175 2526.4512)" class="st0" width="21.6" height="30.4"/>
						
							<rect x="468.1" y="1248" transform="matrix(-1 -1.224647e-16 1.224647e-16 -1 957.85 2526.4512)" class="st0" width="21.6" height="30.4"/>
						<path class="st0" d="M452.3,1248v30.4h-20.4c2.3-10.1,4.8-20.3,7.7-30.4H452.3z"/>
					</g>
				</g>
			</g>
			<g>
				<g>
					<g>
						
							<rect x="1131.3" y="1300.9" transform="matrix(-1 -1.224647e-16 1.224647e-16 -1 2284.2454 2632.2439)" class="st0" width="21.6" height="30.4"/>
						
							<rect x="1090.9" y="1300.9" transform="matrix(-1 -1.224647e-16 1.224647e-16 -1 2203.4722 2632.2439)" class="st0" width="21.6" height="30.4"/>
						
							<rect x="1051.5" y="1300.9" transform="matrix(-1 -1.224647e-16 1.224647e-16 -1 2124.5039 2632.2439)" class="st0" width="21.6" height="30.4"/>
						
							<rect x="1014" y="1300.9" transform="matrix(-1 -1.224647e-16 1.224647e-16 -1 2049.6321 2632.2439)" class="st0" width="21.6" height="30.4"/>
						
							<rect x="975.9" y="1300.9" transform="matrix(-1 -1.224647e-16 1.224647e-16 -1 1973.3229 2632.2439)" class="st0" width="21.6" height="30.4"/>
					</g>
					<g>
						
							<rect x="937.3" y="1300.9" transform="matrix(-1 -1.224647e-16 1.224647e-16 -1 1896.1412 2632.2439)" class="st0" width="21.6" height="30.4"/>
						
							<rect x="896.9" y="1300.9" transform="matrix(-1 -1.224647e-16 1.224647e-16 -1 1815.3654 2632.2439)" class="st0" width="21.6" height="30.4"/>
						
							<rect x="857.4" y="1300.9" transform="matrix(-1 -1.224647e-16 1.224647e-16 -1 1736.3986 2632.2439)" class="st0" width="21.6" height="30.4"/>
						
							<rect x="820" y="1300.9" transform="matrix(-1 -1.224647e-16 1.224647e-16 -1 1661.5278 2632.2439)" class="st0" width="21.6" height="30.4"/>
						
							<rect x="781.8" y="1300.9" transform="matrix(-1 -1.224647e-16 1.224647e-16 -1 1585.217 2632.2439)" class="st0" width="21.6" height="30.4"/>
					</g>
				</g>
				<g>
					<g>
						
							<rect x="742" y="1300.9" transform="matrix(-1 -1.224647e-16 1.224647e-16 -1 1505.697 2632.2439)" class="st0" width="21.6" height="30.4"/>
						
							<rect x="701.7" y="1300.9" transform="matrix(-1 -1.224647e-16 1.224647e-16 -1 1424.9218 2632.2439)" class="st0" width="21.6" height="30.4"/>
						
							<rect x="662.2" y="1300.9" transform="matrix(-1 -1.224647e-16 1.224647e-16 -1 1345.9564 2632.2439)" class="st0" width="21.6" height="30.4"/>
						
							<rect x="624.7" y="1300.9" transform="matrix(-1 -1.224647e-16 1.224647e-16 -1 1271.0858 2632.2439)" class="st0" width="21.6" height="30.4"/>
						
							<rect x="586.6" y="1300.9" transform="matrix(-1 -1.224647e-16 1.224647e-16 -1 1194.775 2632.2439)" class="st0" width="21.6" height="30.4"/>
					</g>
					<g>
						
							<rect x="548" y="1300.9" transform="matrix(-1 -1.224647e-16 1.224647e-16 -1 1117.5913 2632.2439)" class="st0" width="21.6" height="30.4"/>
						
							<rect x="507.6" y="1300.9" transform="matrix(-1 -1.224647e-16 1.224647e-16 -1 1036.8175 2632.2439)" class="st0" width="21.6" height="30.4"/>
						
							<rect x="468.1" y="1300.9" transform="matrix(-1 -1.224647e-16 1.224647e-16 -1 957.85 2632.2439)" class="st0" width="21.6" height="30.4"/>
						
							<rect x="430.7" y="1300.9" transform="matrix(-1 -1.224647e-16 1.224647e-16 -1 882.9782 2632.2439)" class="st0" width="21.6" height="30.4"/>
					</g>
				</g>
			</g>
			<g>
				<g>
					<g>
						<g>
							
								<rect x="1131.3" y="1357.1" transform="matrix(-1 -1.224647e-16 1.224647e-16 -1 2284.2454 2744.6428)" class="st0" width="21.6" height="30.4"/>
							
								<rect x="1090.9" y="1357.1" transform="matrix(-1 -1.224647e-16 1.224647e-16 -1 2203.4722 2744.6428)" class="st0" width="21.6" height="30.4"/>
							
								<rect x="1051.5" y="1357.1" transform="matrix(-1 -1.224647e-16 1.224647e-16 -1 2124.5039 2744.6428)" class="st0" width="21.6" height="30.4"/>
							
								<rect x="1014" y="1357.1" transform="matrix(-1 -1.224647e-16 1.224647e-16 -1 2049.6321 2744.6428)" class="st0" width="21.6" height="30.4"/>
							
								<rect x="975.9" y="1357.1" transform="matrix(-1 -1.224647e-16 1.224647e-16 -1 1973.3229 2744.6428)" class="st0" width="21.6" height="30.4"/>
						</g>
						<g>
							
								<rect x="937.3" y="1357.1" transform="matrix(-1 -1.224647e-16 1.224647e-16 -1 1896.1412 2744.6428)" class="st0" width="21.6" height="30.4"/>
							
								<rect x="896.9" y="1357.1" transform="matrix(-1 -1.224647e-16 1.224647e-16 -1 1815.3654 2744.6428)" class="st0" width="21.6" height="30.4"/>
							
								<rect x="857.4" y="1357.1" transform="matrix(-1 -1.224647e-16 1.224647e-16 -1 1736.3986 2744.6428)" class="st0" width="21.6" height="30.4"/>
							
								<rect x="820" y="1357.1" transform="matrix(-1 -1.224647e-16 1.224647e-16 -1 1661.5278 2744.6428)" class="st0" width="21.6" height="30.4"/>
							
								<rect x="781.8" y="1357.1" transform="matrix(-1 -1.224647e-16 1.224647e-16 -1 1585.217 2744.6428)" class="st0" width="21.6" height="30.4"/>
						</g>
					</g>
					<g>
						<g>
							
								<rect x="742" y="1357.1" transform="matrix(-1 -1.224647e-16 1.224647e-16 -1 1505.697 2744.6428)" class="st0" width="21.6" height="30.4"/>
							
								<rect x="701.7" y="1357.1" transform="matrix(-1 -1.224647e-16 1.224647e-16 -1 1424.9218 2744.6428)" class="st0" width="21.6" height="30.4"/>
							
								<rect x="662.2" y="1357.1" transform="matrix(-1 -1.224647e-16 1.224647e-16 -1 1345.9564 2744.6428)" class="st0" width="21.6" height="30.4"/>
							
								<rect x="624.7" y="1357.1" transform="matrix(-1 -1.224647e-16 1.224647e-16 -1 1271.0858 2744.6428)" class="st0" width="21.6" height="30.4"/>
							
								<rect x="586.6" y="1357.1" transform="matrix(-1 -1.224647e-16 1.224647e-16 -1 1194.775 2744.6428)" class="st0" width="21.6" height="30.4"/>
						</g>
						<g>
							
								<rect x="548" y="1357.1" transform="matrix(-1 -1.224647e-16 1.224647e-16 -1 1117.5913 2744.6428)" class="st0" width="21.6" height="30.4"/>
							
								<rect x="507.6" y="1357.1" transform="matrix(-1 -1.224647e-16 1.224647e-16 -1 1036.8175 2744.6428)" class="st0" width="21.6" height="30.4"/>
							
								<rect x="468.1" y="1357.1" transform="matrix(-1 -1.224647e-16 1.224647e-16 -1 957.85 2744.6428)" class="st0" width="21.6" height="30.4"/>
							
								<rect x="430.7" y="1357.1" transform="matrix(-1 -1.224647e-16 1.224647e-16 -1 882.9782 2744.6428)" class="st0" width="21.6" height="30.4"/>
						</g>
					</g>
				</g>
				<g>
					<g>
						<g>
							
								<rect x="1131.3" y="1410.8" transform="matrix(-1 -1.224647e-16 1.224647e-16 -1 2284.2454 2852.0793)" class="st0" width="21.6" height="30.4"/>
							
								<rect x="1090.9" y="1410.8" transform="matrix(-1 -1.224647e-16 1.224647e-16 -1 2203.4722 2852.0793)" class="st0" width="21.6" height="30.4"/>
							
								<rect x="1051.5" y="1410.8" transform="matrix(-1 -1.224647e-16 1.224647e-16 -1 2124.5039 2852.0793)" class="st0" width="21.6" height="30.4"/>
							
								<rect x="1014" y="1410.8" transform="matrix(-1 -1.224647e-16 1.224647e-16 -1 2049.6321 2852.0793)" class="st0" width="21.6" height="30.4"/>
							
								<rect x="975.9" y="1410.8" transform="matrix(-1 -1.224647e-16 1.224647e-16 -1 1973.3229 2852.0793)" class="st0" width="21.6" height="30.4"/>
						</g>
						<g>
							
								<rect x="937.3" y="1410.8" transform="matrix(-1 -1.224647e-16 1.224647e-16 -1 1896.1412 2852.0793)" class="st0" width="21.6" height="30.4"/>
							
								<rect x="896.9" y="1410.8" transform="matrix(-1 -1.224647e-16 1.224647e-16 -1 1815.3654 2852.0793)" class="st0" width="21.6" height="30.4"/>
							
								<rect x="857.4" y="1410.8" transform="matrix(-1 -1.224647e-16 1.224647e-16 -1 1736.3986 2852.0793)" class="st0" width="21.6" height="30.4"/>
							
								<rect x="820" y="1410.8" transform="matrix(-1 -1.224647e-16 1.224647e-16 -1 1661.5278 2852.0793)" class="st0" width="21.6" height="30.4"/>
							
								<rect x="781.8" y="1410.8" transform="matrix(-1 -1.224647e-16 1.224647e-16 -1 1585.217 2852.0793)" class="st0" width="21.6" height="30.4"/>
						</g>
					</g>
					<g>
						<g>
							
								<rect x="742" y="1410.8" transform="matrix(-1 -1.224647e-16 1.224647e-16 -1 1505.697 2852.0793)" class="st0" width="21.6" height="30.4"/>
							
								<rect x="701.7" y="1410.8" transform="matrix(-1 -1.224647e-16 1.224647e-16 -1 1424.9218 2852.0793)" class="st0" width="21.6" height="30.4"/>
							
								<rect x="662.2" y="1410.8" transform="matrix(-1 -1.224647e-16 1.224647e-16 -1 1345.9564 2852.0793)" class="st0" width="21.6" height="30.4"/>
							
								<rect x="624.7" y="1410.8" transform="matrix(-1 -1.224647e-16 1.224647e-16 -1 1271.0858 2852.0793)" class="st0" width="21.6" height="30.4"/>
							
								<rect x="586.6" y="1410.8" transform="matrix(-1 -1.224647e-16 1.224647e-16 -1 1194.775 2852.0793)" class="st0" width="21.6" height="30.4"/>
						</g>
						<g>
							
								<rect x="548" y="1410.8" transform="matrix(-1 -1.224647e-16 1.224647e-16 -1 1117.5913 2852.0793)" class="st0" width="21.6" height="30.4"/>
							
								<rect x="507.6" y="1410.8" transform="matrix(-1 -1.224647e-16 1.224647e-16 -1 1036.8175 2852.0793)" class="st0" width="21.6" height="30.4"/>
							
								<rect x="468.1" y="1410.8" transform="matrix(-1 -1.224647e-16 1.224647e-16 -1 957.85 2852.0793)" class="st0" width="21.6" height="30.4"/>
							
								<rect x="430.7" y="1410.8" transform="matrix(-1 -1.224647e-16 1.224647e-16 -1 882.9782 2852.0793)" class="st0" width="21.6" height="30.4"/>
						</g>
					</g>
				</g>
				<g>
					<g>
						<g>
							
								<rect x="1131.3" y="1463.7" transform="matrix(-1 -1.224647e-16 1.224647e-16 -1 2284.2454 2957.8679)" class="st0" width="21.6" height="30.4"/>
							
								<rect x="1090.9" y="1463.7" transform="matrix(-1 -1.224647e-16 1.224647e-16 -1 2203.4722 2957.8679)" class="st0" width="21.6" height="30.4"/>
							
								<rect x="1051.5" y="1463.7" transform="matrix(-1 -1.224647e-16 1.224647e-16 -1 2124.5039 2957.8679)" class="st0" width="21.6" height="30.4"/>
							
								<rect x="1014" y="1463.7" transform="matrix(-1 -1.224647e-16 1.224647e-16 -1 2049.6321 2957.8679)" class="st0" width="21.6" height="30.4"/>
							
								<rect x="975.9" y="1463.7" transform="matrix(-1 -1.224647e-16 1.224647e-16 -1 1973.3229 2957.8679)" class="st0" width="21.6" height="30.4"/>
						</g>
						<g>
							
								<rect x="937.3" y="1463.7" transform="matrix(-1 -1.224647e-16 1.224647e-16 -1 1896.1412 2957.8679)" class="st0" width="21.6" height="30.4"/>
							
								<rect x="896.9" y="1463.7" transform="matrix(-1 -1.224647e-16 1.224647e-16 -1 1815.3654 2957.8679)" class="st0" width="21.6" height="30.4"/>
							
								<rect x="857.4" y="1463.7" transform="matrix(-1 -1.224647e-16 1.224647e-16 -1 1736.3986 2957.8679)" class="st0" width="21.6" height="30.4"/>
							
								<rect x="820" y="1463.7" transform="matrix(-1 -1.224647e-16 1.224647e-16 -1 1661.5278 2957.8679)" class="st0" width="21.6" height="30.4"/>
							
								<rect x="781.8" y="1463.7" transform="matrix(-1 -1.224647e-16 1.224647e-16 -1 1585.217 2957.8679)" class="st0" width="21.6" height="30.4"/>
						</g>
					</g>
					<g>
						<g>
							
								<rect x="742" y="1463.7" transform="matrix(-1 -1.224647e-16 1.224647e-16 -1 1505.697 2957.8679)" class="st0" width="21.6" height="30.4"/>
							
								<rect x="701.7" y="1463.7" transform="matrix(-1 -1.224647e-16 1.224647e-16 -1 1424.9218 2957.8679)" class="st0" width="21.6" height="30.4"/>
							
								<rect x="662.2" y="1463.7" transform="matrix(-1 -1.224647e-16 1.224647e-16 -1 1345.9564 2957.8679)" class="st0" width="21.6" height="30.4"/>
							
								<rect x="624.7" y="1463.7" transform="matrix(-1 -1.224647e-16 1.224647e-16 -1 1271.0858 2957.8679)" class="st0" width="21.6" height="30.4"/>
							
								<rect x="586.6" y="1463.7" transform="matrix(-1 -1.224647e-16 1.224647e-16 -1 1194.775 2957.8679)" class="st0" width="21.6" height="30.4"/>
						</g>
						<g>
							
								<rect x="548" y="1463.7" transform="matrix(-1 -1.224647e-16 1.224647e-16 -1 1117.5913 2957.8679)" class="st0" width="21.6" height="30.4"/>
							
								<rect x="507.6" y="1463.7" transform="matrix(-1 -1.224647e-16 1.224647e-16 -1 1036.8175 2957.8679)" class="st0" width="21.6" height="30.4"/>
							
								<rect x="468.1" y="1463.7" transform="matrix(-1 -1.224647e-16 1.224647e-16 -1 957.85 2957.8679)" class="st0" width="21.6" height="30.4"/>
							
								<rect x="430.7" y="1463.7" transform="matrix(-1 -1.224647e-16 1.224647e-16 -1 882.9782 2957.8679)" class="st0" width="21.6" height="30.4"/>
						</g>
					</g>
				</g>
			</g>
		</g>
		
			<rect x="803.8" y="1559.1" transform="matrix(-1 -1.224647e-16 1.224647e-16 -1 2108.1306 3388.2256)" class="st1" width="500.6" height="270.1"/>
		
			<rect x="1183.4" y="1694.1" transform="matrix(-1 -1.224647e-16 1.224647e-16 -1 2867.2844 3523.2527)" class="st1" width="500.6" height="135"/>
		<path class="st1" d="M763.6,1601.2v228H527.1c-0.2-0.3-0.4-0.7-0.7-1.2c-0.4-0.7-0.8-1.4-1.3-2.3c-0.2-0.3-0.4-0.6-0.6-1
			c-0.7-1.2-1.4-2.6-2.3-4.1c-1-1.9-2.2-4.1-3.5-6.5v0c-4.8-9-11.1-21.4-18.4-36.9c-2.4-5.1-4.8-10.5-7.4-16.2c-1-2.3-2-4.6-3-7v0
			c-1-2.3-2-4.6-3-7c0-0.1-0.1-0.2-0.1-0.2c-0.7-1.6-1.4-3.3-2.1-5c-0.7-1.7-1.5-3.5-2.2-5.3c-3.7-9.2-7.5-18.9-11.3-29.1
			c-0.1-0.3-0.2-0.5-0.3-0.8c0,0,0,0,0,0c-2.5-6.7-5-13.6-7.4-20.8c-1.4-3.9-2.7-7.9-4-12c-0.1-0.2-0.2-0.5-0.2-0.8
			c-0.6-1.8-1.2-3.6-1.8-5.4c-0.5-1.5-1-3.1-1.5-4.6c-1-3.2-2-6.4-3-9.6c-1.3-4.2-2.5-8.4-3.7-12.7c-1.7-5.8-3.3-11.7-4.9-17.7
			c-0.5-1.8-1-3.6-1.4-5.4c-1.4-5.4-2.8-10.9-4.1-16.5H763.6z"/>
		
			<rect x="1177.6" y="1590.7" transform="matrix(-1 -1.224647e-16 1.224647e-16 -1 2448.5635 3231.4373)" class="st3" width="93.3" height="50"/>
		
			<rect x="1057.9" y="1590.7" transform="matrix(-1 -1.224647e-16 1.224647e-16 -1 2209.1248 3231.4373)" class="st3" width="93.3" height="50"/>
		
			<rect x="940.5" y="1590.7" transform="matrix(-1 -1.224647e-16 1.224647e-16 -1 1974.2463 3231.4373)" class="st3" width="93.3" height="50"/>
		
			<rect x="825.3" y="1590.7" transform="matrix(-1 -1.224647e-16 1.224647e-16 -1 1743.8855 3231.4373)" class="st3" width="93.3" height="50"/>
		
			<rect x="760.9" y="1559.1" transform="matrix(-1 -1.224647e-16 1.224647e-16 -1 1569.9093 3390.5493)" class="st5" width="48" height="272.4"/>
		
			<rect x="1532.9" y="1077.2" transform="matrix(-1 -1.224647e-16 1.224647e-16 -1 3068.3337 2175.5632)" class="st3" width="2.6" height="21.1"/>
		
			<rect x="1439.4" y="1077.2" transform="matrix(-1 -1.224647e-16 1.224647e-16 -1 2881.3652 2175.5632)" class="st3" width="2.6" height="21.1"/>
		<path class="st3" d="M421.9,1505.6c1.2,9.9,2.5,19.7,4,29.3c1.6,10.4,3.4,20.7,5.4,30.7c1.8,9.1,3.7,18.1,5.7,26.9
			c0.3,1.1,0.5,2.2,0.8,3.3c0.4,1.8,0.8,3.6,1.3,5.4c1.3,5.6,2.7,11,4.1,16.5c0.5,1.8,0.9,3.6,1.4,5.4c1.6,6,3.2,11.9,4.9,17.7
			c1.2,4.3,2.5,8.5,3.7,12.7c1,3.2,2,6.4,3,9.6c0.5,1.5,1,3.1,1.5,4.6c0.6,1.8,1.2,3.6,1.8,5.4c0.1,0.3,0.2,0.5,0.2,0.8
			c1.3,4,2.7,8,4,12c2.5,7.1,4.9,14.1,7.4,20.8c0,0,0,0,0,0c0.1,0.3,0.2,0.5,0.3,0.8c3.8,10.3,7.6,20,11.3,29.1
			c0.7,1.8,1.5,3.5,2.2,5.3c0.7,1.7,1.4,3.4,2.1,5c0,0.1,0.1,0.2,0.1,0.2v-241.3H421.9z"/>
		<g>
			<path class="st3" d="M487,1595.8v151.1c0-0.1-0.1-0.2-0.1-0.2c-0.7-1.6-1.4-3.3-2.1-5c-0.7-1.7-1.5-3.5-2.2-5.3
				c-3.7-9.2-7.5-18.9-11.3-29.1c-0.1-0.3-0.2-0.5-0.3-0.8c0,0,0,0,0,0c-2.5-6.7-5-13.6-7.4-20.8c-1.4-3.9-2.7-7.9-4-12
				c-0.1-0.2-0.2-0.5-0.2-0.8c-0.6-1.8-1.2-3.6-1.8-5.4c-0.5-1.5-1-3.1-1.5-4.6c-1-3.2-2-6.4-3-9.6c-1.3-4.2-2.5-8.4-3.7-12.7
				c-1.7-5.8-3.3-11.7-4.9-17.7c-0.5-1.8-1-3.6-1.4-5.4c-1.4-5.4-2.8-10.9-4.1-16.5c-0.4-1.8-0.9-3.6-1.3-5.4H487z"/>
			<path class="st0" d="M487,1565.6v75.1h-37.6c-1.7-5.8-3.3-11.7-4.9-17.7c-0.5-1.8-1-3.6-1.4-5.4c-1.4-5.4-2.8-10.9-4.1-16.5
				c-0.4-1.8-0.9-3.6-1.3-5.4c-0.3-1.1-0.5-2.2-0.8-3.3c-2-8.8-3.9-17.8-5.7-26.9H487z"/>
			<g>
				<g>
					<g>
						<path class="st0" d="M463.6,1663v22.7c-1.4-3.9-2.7-7.9-4-12c-0.1-0.2-0.2-0.5-0.2-0.8c-0.6-1.8-1.2-3.6-1.8-5.4
							c-0.5-1.5-1-3.1-1.5-4.6H463.6z"/>
					</g>
				</g>
			</g>
			
				<rect x="445.9" y="1586.7" transform="matrix(-1 -1.224647e-16 1.224647e-16 -1 906.7206 3199.0762)" class="st5" width="14.8" height="25.7"/>
		</g>
		<g>
			
				<rect x="1589.2" y="1595.8" transform="matrix(-1 -1.224647e-16 1.224647e-16 -1 3522.0491 3422.7478)" class="st2" width="343.7" height="231.1"/>
			
				<rect x="1589.2" y="1565.6" transform="matrix(-1 -1.224647e-16 1.224647e-16 -1 3522.0491 3206.3257)" class="st0" width="343.7" height="75.1"/>
			<g>
				<g>
					<g>
						
							<rect x="1891.8" y="1663" transform="matrix(-1 -1.224647e-16 1.224647e-16 -1 3801.2976 3350.864)" class="st0" width="17.7" height="24.9"/>
						
							<rect x="1858.8" y="1663" transform="matrix(-1 -1.224647e-16 1.224647e-16 -1 3735.281 3350.864)" class="st0" width="17.7" height="24.9"/>
						
							<rect x="1826.5" y="1663" transform="matrix(-1 -1.224647e-16 1.224647e-16 -1 3670.7371 3350.864)" class="st0" width="17.7" height="24.9"/>
						
							<rect x="1795.9" y="1663" transform="matrix(-1 -1.224647e-16 1.224647e-16 -1 3609.5447 3350.864)" class="st0" width="17.7" height="24.9"/>
						
							<rect x="1764.8" y="1663" transform="matrix(-1 -1.224647e-16 1.224647e-16 -1 3547.1748 3350.864)" class="st0" width="17.7" height="24.9"/>
					</g>
					<g>
						
							<rect x="1733.2" y="1663" transform="matrix(-1 -1.224647e-16 1.224647e-16 -1 3484.0908 3350.864)" class="st0" width="17.7" height="24.9"/>
						
							<rect x="1700.2" y="1663" transform="matrix(-1 -1.224647e-16 1.224647e-16 -1 3418.0713 3350.864)" class="st0" width="17.7" height="24.9"/>
						
							<rect x="1667.9" y="1663" transform="matrix(-1 -1.224647e-16 1.224647e-16 -1 3353.5317 3350.864)" class="st0" width="17.7" height="24.9"/>
						
							<rect x="1637.3" y="1663" transform="matrix(-1 -1.224647e-16 1.224647e-16 -1 3292.335 3350.864)" class="st0" width="17.7" height="24.9"/>
						
							<rect x="1606.2" y="1663" transform="matrix(-1 -1.224647e-16 1.224647e-16 -1 3229.9663 3350.864)" class="st0" width="17.7" height="24.9"/>
					</g>
				</g>
				<g>
					<g>
						
							<rect x="1891.8" y="1706.9" transform="matrix(-1 -1.224647e-16 1.224647e-16 -1 3801.2976 3438.6775)" class="st0" width="17.7" height="24.9"/>
						
							<rect x="1858.8" y="1706.9" transform="matrix(-1 -1.224647e-16 1.224647e-16 -1 3735.281 3438.6775)" class="st0" width="17.7" height="24.9"/>
						
							<rect x="1826.5" y="1706.9" transform="matrix(-1 -1.224647e-16 1.224647e-16 -1 3670.7371 3438.6775)" class="st0" width="17.7" height="24.9"/>
						
							<rect x="1795.9" y="1706.9" transform="matrix(-1 -1.224647e-16 1.224647e-16 -1 3609.5447 3438.6775)" class="st0" width="17.7" height="24.9"/>
						
							<rect x="1764.8" y="1706.9" transform="matrix(-1 -1.224647e-16 1.224647e-16 -1 3547.1748 3438.6775)" class="st0" width="17.7" height="24.9"/>
					</g>
					<g>
						
							<rect x="1733.2" y="1706.9" transform="matrix(-1 -1.224647e-16 1.224647e-16 -1 3484.0908 3438.6775)" class="st0" width="17.7" height="24.9"/>
						
							<rect x="1700.2" y="1706.9" transform="matrix(-1 -1.224647e-16 1.224647e-16 -1 3418.0713 3438.6775)" class="st0" width="17.7" height="24.9"/>
						
							<rect x="1667.9" y="1706.9" transform="matrix(-1 -1.224647e-16 1.224647e-16 -1 3353.5317 3438.6775)" class="st0" width="17.7" height="24.9"/>
						
							<rect x="1637.3" y="1706.9" transform="matrix(-1 -1.224647e-16 1.224647e-16 -1 3292.335 3438.6775)" class="st0" width="17.7" height="24.9"/>
						
							<rect x="1606.2" y="1706.9" transform="matrix(-1 -1.224647e-16 1.224647e-16 -1 3229.9663 3438.6775)" class="st0" width="17.7" height="24.9"/>
					</g>
				</g>
				<g>
					<g>
						
							<rect x="1891.8" y="1750.1" transform="matrix(-1 -1.224647e-16 1.224647e-16 -1 3801.2976 3525.1411)" class="st0" width="17.7" height="24.9"/>
						
							<rect x="1858.8" y="1750.1" transform="matrix(-1 -1.224647e-16 1.224647e-16 -1 3735.281 3525.1411)" class="st0" width="17.7" height="24.9"/>
						
							<rect x="1826.5" y="1750.1" transform="matrix(-1 -1.224647e-16 1.224647e-16 -1 3670.7371 3525.1411)" class="st0" width="17.7" height="24.9"/>
						
							<rect x="1795.9" y="1750.1" transform="matrix(-1 -1.224647e-16 1.224647e-16 -1 3609.5447 3525.1411)" class="st0" width="17.7" height="24.9"/>
						
							<rect x="1764.8" y="1750.1" transform="matrix(-1 -1.224647e-16 1.224647e-16 -1 3547.1748 3525.1411)" class="st0" width="17.7" height="24.9"/>
					</g>
					<g>
						
							<rect x="1733.2" y="1750.1" transform="matrix(-1 -1.224647e-16 1.224647e-16 -1 3484.0908 3525.1411)" class="st0" width="17.7" height="24.9"/>
						
							<rect x="1700.2" y="1750.1" transform="matrix(-1 -1.224647e-16 1.224647e-16 -1 3418.0713 3525.1411)" class="st0" width="17.7" height="24.9"/>
						
							<rect x="1667.9" y="1750.1" transform="matrix(-1 -1.224647e-16 1.224647e-16 -1 3353.5317 3525.1411)" class="st0" width="17.7" height="24.9"/>
						
							<rect x="1637.3" y="1750.1" transform="matrix(-1 -1.224647e-16 1.224647e-16 -1 3292.335 3525.1411)" class="st0" width="17.7" height="24.9"/>
						
							<rect x="1606.2" y="1750.1" transform="matrix(-1 -1.224647e-16 1.224647e-16 -1 3229.9663 3525.1411)" class="st0" width="17.7" height="24.9"/>
					</g>
				</g>
			</g>
			
				<rect x="1891.8" y="1586.7" transform="matrix(-1 -1.224647e-16 1.224647e-16 -1 3798.4795 3199.0762)" class="st5" width="14.8" height="25.7"/>
			
				<rect x="1744.6" y="1586.7" transform="matrix(-1 -1.224647e-16 1.224647e-16 -1 3503.9541 3199.0762)" class="st5" width="14.8" height="25.7"/>
			
				<rect x="1627.4" y="1586.7" transform="matrix(-1 -1.224647e-16 1.224647e-16 -1 3269.6604 3199.0762)" class="st5" width="14.8" height="25.7"/>
		</g>
		<g>
			
				<rect x="1954.5" y="1595.8" transform="matrix(-1 -1.224647e-16 1.224647e-16 -1 4252.6299 3422.7478)" class="st3" width="343.7" height="231.1"/>
			
				<rect x="1954.5" y="1565.6" transform="matrix(-1 -1.224647e-16 1.224647e-16 -1 4252.6299 3206.3257)" class="st0" width="343.7" height="75.1"/>
			<g>
				<g>
					<g>
						
							<rect x="2257.1" y="1663" transform="matrix(-1 -1.224647e-16 1.224647e-16 -1 4531.8799 3350.864)" class="st0" width="17.7" height="24.9"/>
						
							<rect x="2224.1" y="1663" transform="matrix(-1 -1.224647e-16 1.224647e-16 -1 4465.8618 3350.864)" class="st0" width="17.7" height="24.9"/>
						
							<rect x="2191.8" y="1663" transform="matrix(-1 -1.224647e-16 1.224647e-16 -1 4401.3208 3350.864)" class="st0" width="17.7" height="24.9"/>
						
							<rect x="2161.2" y="1663" transform="matrix(-1 -1.224647e-16 1.224647e-16 -1 4340.127 3350.864)" class="st0" width="17.7" height="24.9"/>
						
							<rect x="2130.1" y="1663" transform="matrix(-1 -1.224647e-16 1.224647e-16 -1 4277.7539 3350.864)" class="st0" width="17.7" height="24.9"/>
					</g>
					<g>
						
							<rect x="2098.5" y="1663" transform="matrix(-1 -1.224647e-16 1.224647e-16 -1 4214.6729 3350.864)" class="st0" width="17.7" height="24.9"/>
						
							<rect x="2065.5" y="1663" transform="matrix(-1 -1.224647e-16 1.224647e-16 -1 4148.6523 3350.864)" class="st0" width="17.7" height="24.9"/>
						
							<rect x="2033.2" y="1663" transform="matrix(-1 -1.224647e-16 1.224647e-16 -1 4084.1111 3350.864)" class="st0" width="17.7" height="24.9"/>
						
							<rect x="2002.6" y="1663" transform="matrix(-1 -1.224647e-16 1.224647e-16 -1 4022.9158 3350.864)" class="st0" width="17.7" height="24.9"/>
						
							<rect x="1971.4" y="1663" transform="matrix(-1 -1.224647e-16 1.224647e-16 -1 3960.5483 3350.864)" class="st0" width="17.7" height="24.9"/>
					</g>
				</g>
				<g>
					<g>
						
							<rect x="2257.1" y="1706.9" transform="matrix(-1 -1.224647e-16 1.224647e-16 -1 4531.8799 3438.6775)" class="st0" width="17.7" height="24.9"/>
						
							<rect x="2224.1" y="1706.9" transform="matrix(-1 -1.224647e-16 1.224647e-16 -1 4465.8618 3438.6775)" class="st0" width="17.7" height="24.9"/>
						
							<rect x="2191.8" y="1706.9" transform="matrix(-1 -1.224647e-16 1.224647e-16 -1 4401.3208 3438.6775)" class="st0" width="17.7" height="24.9"/>
						
							<rect x="2161.2" y="1706.9" transform="matrix(-1 -1.224647e-16 1.224647e-16 -1 4340.127 3438.6775)" class="st0" width="17.7" height="24.9"/>
						
							<rect x="2130.1" y="1706.9" transform="matrix(-1 -1.224647e-16 1.224647e-16 -1 4277.7539 3438.6775)" class="st0" width="17.7" height="24.9"/>
					</g>
					<g>
						
							<rect x="2098.5" y="1706.9" transform="matrix(-1 -1.224647e-16 1.224647e-16 -1 4214.6729 3438.6775)" class="st0" width="17.7" height="24.9"/>
						
							<rect x="2065.5" y="1706.9" transform="matrix(-1 -1.224647e-16 1.224647e-16 -1 4148.6523 3438.6775)" class="st0" width="17.7" height="24.9"/>
						
							<rect x="2033.2" y="1706.9" transform="matrix(-1 -1.224647e-16 1.224647e-16 -1 4084.1111 3438.6775)" class="st0" width="17.7" height="24.9"/>
						
							<rect x="2002.6" y="1706.9" transform="matrix(-1 -1.224647e-16 1.224647e-16 -1 4022.9158 3438.6775)" class="st0" width="17.7" height="24.9"/>
						
							<rect x="1971.4" y="1706.9" transform="matrix(-1 -1.224647e-16 1.224647e-16 -1 3960.5483 3438.6775)" class="st0" width="17.7" height="24.9"/>
					</g>
				</g>
				<g>
					<g>
						
							<rect x="2257.1" y="1750.1" transform="matrix(-1 -1.224647e-16 1.224647e-16 -1 4531.8799 3525.1411)" class="st0" width="17.7" height="24.9"/>
						
							<rect x="2224.1" y="1750.1" transform="matrix(-1 -1.224647e-16 1.224647e-16 -1 4465.8618 3525.1411)" class="st0" width="17.7" height="24.9"/>
						
							<rect x="2191.8" y="1750.1" transform="matrix(-1 -1.224647e-16 1.224647e-16 -1 4401.3208 3525.1411)" class="st0" width="17.7" height="24.9"/>
						
							<rect x="2161.2" y="1750.1" transform="matrix(-1 -1.224647e-16 1.224647e-16 -1 4340.127 3525.1411)" class="st0" width="17.7" height="24.9"/>
						
							<rect x="2130.1" y="1750.1" transform="matrix(-1 -1.224647e-16 1.224647e-16 -1 4277.7539 3525.1411)" class="st0" width="17.7" height="24.9"/>
					</g>
					<g>
						
							<rect x="2098.5" y="1750.1" transform="matrix(-1 -1.224647e-16 1.224647e-16 -1 4214.6729 3525.1411)" class="st0" width="17.7" height="24.9"/>
						
							<rect x="2065.5" y="1750.1" transform="matrix(-1 -1.224647e-16 1.224647e-16 -1 4148.6523 3525.1411)" class="st0" width="17.7" height="24.9"/>
						
							<rect x="2033.2" y="1750.1" transform="matrix(-1 -1.224647e-16 1.224647e-16 -1 4084.1111 3525.1411)" class="st0" width="17.7" height="24.9"/>
						
							<rect x="2002.6" y="1750.1" transform="matrix(-1 -1.224647e-16 1.224647e-16 -1 4022.9158 3525.1411)" class="st0" width="17.7" height="24.9"/>
						
							<rect x="1971.4" y="1750.1" transform="matrix(-1 -1.224647e-16 1.224647e-16 -1 3960.5483 3525.1411)" class="st0" width="17.7" height="24.9"/>
					</g>
				</g>
			</g>
			
				<rect x="2257.1" y="1586.7" transform="matrix(-1 -1.224647e-16 1.224647e-16 -1 4529.0615 3199.0762)" class="st5" width="14.8" height="25.7"/>
			
				<rect x="2109.9" y="1586.7" transform="matrix(-1 -1.224647e-16 1.224647e-16 -1 4234.5337 3199.0762)" class="st5" width="14.8" height="25.7"/>
			
				<rect x="1992.7" y="1586.7" transform="matrix(-1 -1.224647e-16 1.224647e-16 -1 4000.2412 3199.0762)" class="st5" width="14.8" height="25.7"/>
		</g>
	</g>
	<path class="st6" d="M2637.3,1776.6c0-1.4,0-2.7,0-4.1c0-8.4,0-17-0.1-24.1c-0.1-11.4-4-21.9-8.4-30c-5.7-10.5-12.2-17.1-12.2-17.1
		l-13.5-10.9l-45.2-36.4l-0.3-0.6c1-1.1,2-2.3,2.6-3.6c1-2,1.5-4.2,1.5-6.5v-26.1c0-8-6.6-14.6-14.6-14.6h-4.7
		c-2.7,0-5.2,0.8-7.4,2.1l-31-67c-1.9-8.9-4.4-17.1-7.2-24.4c-8.5-22.3-32.5-37.5-59.8-37.5h-0.9h-159.8h-73v0h0v0.4h-308.1v331.7
		h38.3c3.4,17.1,13.8,29.7,26.2,29.7c0,0,15.2,0,17.3,0c12.4,0,22.8-12.6,26.2-29.7h79.9c3.4,17.1,13.8,29.7,26.2,29.7
		c0,0,15.2,0,17.3,0c12.4,0,22.8-12.6,26.2-29.7h50.5h10.1h26.4h92.4c-0.6-3.4-0.9-6.9-0.9-10.6c0-0.3,0.1-0.5,0.1-0.8l0.8,11.4h8.2
		c3.4,17.1,13.8,29.7,26.2,29.7c0,0,15.2,0,17.3,0c12.4,0,22.8-12.6,26.2-29.7h28.2H2539c3.4,17.1,13.8,29.7,26.2,29.7
		c0,0,15.2,0,17.3,0c12.5,0,22.9-12.7,26.3-30C2624.7,1806.3,2637.3,1793,2637.3,1776.6z"/>
	<g>
		<g>
			<path class="st7" d="M2178.5,1250.3v68.7c0,6.1-1.4,12-4,17.2c-6.3,12.6-19.4,21.3-34.4,21.3h-12.3c-21.1,0-38.5-17.3-38.5-38.5
				v-68.7c0-7.2,2.1-14,5.6-19.8c0-0.1,0-0.1,0-0.1c6.8-11.2,19-18.6,32.9-18.6h12.3C2161.2,1211.9,2178.5,1229.2,2178.5,1250.3z"/>
			<path class="st8" d="M2174.5,1336.2c-6.3,12.6-19.4,21.3-34.4,21.3h-12.3c-21.1,0-38.5-17.3-38.5-38.5v-68.7
				c0-7.2,2.1-14,5.6-19.8C2095.6,1234.8,2111.9,1329.1,2174.5,1336.2z"/>
		</g>
		<polygon class="st9" points="1568.6,1753 1758.7,1753 1758.7,1561 1560.3,1561 		"/>
		<path class="st10" d="M2168.2,1347.2l-934.4,23V877.6h613.6c58.5,0,112.1,32.7,138.7,84.8l40.2,78.4L2168.2,1347.2z"/>
		<g>
			<path class="st9" d="M1637.4,1721.8c0,52.1,26.9,109.6,26.9,109.6s39.9,0,45.5,0c40,0,72.4-49.1,72.4-109.6
				c0-60.5-77.9-109.6-117.9-109.6C1624.4,1612.2,1637.4,1661.2,1637.4,1721.8z"/>
			<ellipse class="st11" cx="1664.3" cy="1721.8" rx="72.4" ry="109.6"/>
			<path class="st9" d="M1610.7,1721.8c0,45.6,24.4,82.5,54.5,82.5c30.1,0,54.5-37,54.5-82.5s-24.4-82.5-54.5-82.5
				C1635.1,1639.2,1610.7,1676.2,1610.7,1721.8z"/>
		</g>
		<g>
			<path class="st9" d="M2160.6,1721.8c0,52.1,26.9,109.6,26.9,109.6s39.9,0,45.5,0c40,0,72.4-49.1,72.4-109.6
				c0-60.5-77.9-109.6-117.9-109.6C2147.5,1612.2,2160.6,1661.2,2160.6,1721.8z"/>
			<path class="st11" d="M2115.1,1721.8c0,60.5,32.4,109.6,72.4,109.6c40,0,72.4-49.1,72.4-109.6c0-60.5-32.4-109.6-72.4-109.6
				C2147.5,1612.2,2115.1,1661.2,2115.1,1721.8z"/>
			<path class="st9" d="M2133.9,1721.8c0,45.6,24.4,82.5,54.5,82.5c30.1,0,54.5-37,54.5-82.5s-24.4-82.5-54.5-82.5
				C2158.3,1639.2,2133.9,1676.2,2133.9,1721.8z"/>
		</g>
		<g>
			<path class="st9" d="M959.2,1721.8c0,52.1,26.9,109.6,26.9,109.6s39.9,0,45.5,0c40,0,72.4-49.1,72.4-109.6
				c0-60.5-77.9-109.6-117.9-109.6C946.1,1612.2,959.2,1661.2,959.2,1721.8z"/>
			<path class="st11" d="M913.7,1721.8c0,60.5,32.4,109.6,72.4,109.6c40,0,72.4-49.1,72.4-109.6c0-60.5-32.4-109.6-72.4-109.6
				C946.1,1612.2,913.7,1661.2,913.7,1721.8z"/>
			<path class="st9" d="M932.5,1721.8c0,45.6,24.4,82.5,54.5,82.5c30.1,0,54.5-37,54.5-82.5s-24.4-82.5-54.5-82.5
				C956.9,1639.2,932.5,1676.2,932.5,1721.8z"/>
		</g>
		<path class="st10" d="M2377.4,1670c0.1,45.8-37,82.9-82.7,82.9h-535.9c1.6-9,2.4-18.3,2.4-27.9c0-70.8-42.5-128.4-94.8-128.4
			c-52.4,0-94.9,57.5-94.9,128.4c0,9.6,0.7,18.9,2.3,27.9h-313.2c0,0-12.6-139.8-11.1-210c1.2-61,1.2-180.6-2.4-209.7
			c0-4.3,302-4.9,378.2-5.2c10.3-0.1,16.5-0.1,17.2-0.1l1,0.7l1.1,0.8c14.1,9.8,92.9,65.1,141.8,97.4c43.1,28.4,361.5,40,486.3,43.5
			c31,0.8,50.2,1.1,50.2,1.1s17.1,17.5,32.2,45.1c11.6,21.4,21.9,48.9,22.1,79c0.1,18.7,0.2,41.3,0.2,63.4
			C2377.4,1662.8,2377.4,1666.4,2377.4,1670z"/>
		<path class="st12" d="M2092.9,1328H1673c-9.7,0-18.5-5.7-22.5-14.5l-103.9-231.3c-3.4-7.5,2.2-16.1,10.4-16.1h443
			c9.7,0,18.6,5.8,22.5,14.8l74.5,170.1l18.6,42.5C2122.6,1309.8,2110.7,1328,2092.9,1328z"/>
		<path class="st7" d="M1897.3,1659.2c-0.1,7.2-0.4,14.1-0.8,20.2c-3,40.2-43.4,73.6-43.4,73.6h-94.3c1.6-9,2.4-18.3,2.4-27.9
			c0-24.1-5-46.6-13.4-65.9c-16.7-37.4-46.9-62.5-81.4-62.5c-34.7,0-64.8,25-81.5,62.5c-8.5,19.2-13.4,41.8-13.4,65.9
			c0,9.6,0.7,18.9,2.3,27.9h-339.8V877.6h272.7v173.8c0,0,81.8,192.2,118.6,276.8c9.1,21.1,15.5,35.5,17.2,38.6
			c8.2,15.6,198.3,111.8,229.7,140.1C1889.6,1522.6,1898.3,1604.3,1897.3,1659.2z"/>
		<path class="st12" d="M1509.6,1107.7l89.4,220.3h-153.5c0,0-31.5-5.3-35.5-69.6c-4.3-68.7-4.3-187.2-4.3-187.2l67.4-0.3
			C1498.8,1074.8,1502.9,1088.9,1509.6,1107.7z"/>
		<polygon class="st10" points="2322.8,1471.7 1825.1,1471.7 1643.4,1328.7 1642.4,1328 2144.4,1328 2287.3,1443 		"/>
		<path class="st0" d="M2355,1516.8c-2.9,4.8-6.6,7.9-10.7,8.6l-69.8,12.9c-5.9,1.1-10.4-9.1-8.9-19.6l6.8-47l0.2-1.1l1.3-9.6
			c1.2-8.3,4.9-14.6,9.3-16.3l4-1.6l35.5,28.6C2322.8,1471.7,2339.9,1489.2,2355,1516.8z"/>
		<path class="st7" d="M1889.6,1555.7l-45-4.5c-15.7-1.5-28.4-13.3-31.2-28.9l-10.3-56.9c-0.2-0.9-0.3-1.8-0.2-2.7
			c32.1,18.4,59.1,34.9,69.3,44.1C1879.5,1513.6,1885.4,1532.2,1889.6,1555.7z"/>
		<path class="st0" d="M1975,1564.1l-85.3-8.5h-0.1l-45-4.5c-15.7-1.5-28.4-13.3-31.2-28.9l-10.3-56.9c-0.2-0.9-0.3-1.8-0.2-2.7
			v-0.1c-0.5-12,10.4-21.7,22.8-19.2l132.9,27c8.5,1.8,15.2,8.1,17.5,16.3l15.6,57.7C1994.4,1555,1985.9,1565.3,1975,1564.1z"/>
		<path class="st10" d="M2026.4,1040.7h-518.5c0,0-2-33.2-15-71.1c-11.6-33.5-31.6-70.8-66.6-92.1h423.7
			c69.1,0,130.3,36.9,154.6,92.1c1.1,2.3,2.1,4.6,3,6.9C2014.8,995.7,2021.4,1017.1,2026.4,1040.7z"/>
		<path class="st12" d="M1889.7,1555.7l-45.1-4.5c-15.7-1.5-28.4-13.3-31.2-28.9l-10.3-56.9c-0.2-0.9-0.3-1.9-0.2-2.8
			c32.1,18.5,59.1,35,69.3,44.2C1879.5,1513.6,1885.4,1532.2,1889.7,1555.7z"/>
		<path class="st13" d="M2377.4,1670c0.1,45.8-38.8,82.9-86.8,82.9h-531.9c1.6-9,2.4-18.3,2.4-27.9c0-24.1-5-46.6-13.4-65.9h629.7
			C2377.4,1662.8,2377.4,1666.4,2377.4,1670z"/>
		<path class="st13" d="M1571.3,1725.1c0,9.6,0.7,18.9,2.3,27.9h-339.8v-93.8h350.9C1576.3,1678.4,1571.3,1701,1571.3,1725.1z"/>
		<path class="st13" d="M2027,1475.7h203.5c6.5,0,11.5,8.8,10.5,18.5l-7.2,70.7c-1.1,10.4-7,18.1-13.9,18.1h-167.7
			c-10.7,0-20.2-10.6-23.4-26.2l-12.1-60.1C2014.7,1486.2,2019.8,1475.7,2027,1475.7z"/>
		<path class="st0" d="M2096.9,1251.1c-240-12.3-402.4-140.8-451.4-184.9h354.4c9.7,0,18.6,5.8,22.5,14.8L2096.9,1251.1z"/>
		<rect x="421.9" y="877.6" class="st14" width="908" height="875.5"/>
		<path class="st9" d="M1553.6,1214.9c0,0,7.8,89-36.2,113.4h82.1L1553.6,1214.9z"/>
		<path class="st9" d="M1565.6,1274.5c0,0-18.5-13.2-20.1-24.1v62.3h24.3L1565.6,1274.5z"/>
		<g>
			<path class="st10" d="M1545.5,1250.3v68.7c0,6.1-1.4,12-4,17.2c-6.3,12.6-19.4,21.3-34.4,21.3h-12.3c-21.1,0-38.5-17.3-38.5-38.5
				v-68.7c0-7.2,2.1-14,5.6-19.8c0-0.1,0-0.1,0-0.1c6.8-11.2,19-18.6,32.9-18.6h12.3C1528.2,1211.9,1545.5,1229.2,1545.5,1250.3z"/>
			<path class="st13" d="M1541.4,1336.2c-6.3,12.6-19.4,21.3-34.4,21.3h-12.3c-21.1,0-38.5-17.3-38.5-38.5v-68.7
				c0-7.2,2.1-14,5.6-19.8C1462.5,1234.8,1478.9,1329.1,1541.4,1336.2z"/>
		</g>
		<path class="st9" d="M718.5,1753.1H495.1c-4.7-20.2-18.9-163.7,106.2-163.7C715.1,1589.3,723.5,1720.3,718.5,1753.1z"/>
		<g>
			<path class="st9" d="M565,1721.8c0,52.1,26.9,109.6,26.9,109.6s39.9,0,45.5,0c40,0,72.4-49.1,72.4-109.6
				c0-60.5-77.9-109.6-117.9-109.6C551.9,1612.2,565,1661.2,565,1721.8z"/>
			<path class="st11" d="M519.5,1721.8c0,60.5,32.4,109.6,72.4,109.6c40,0,72.4-49.1,72.4-109.6c0-60.5-32.4-109.6-72.4-109.6
				C551.9,1612.2,519.5,1661.2,519.5,1721.8z"/>
			<path class="st9" d="M538.3,1721.8c0,45.6,24.4,82.5,54.5,82.5c30.1,0,54.5-37,54.5-82.5s-24.4-82.5-54.5-82.5
				C562.7,1639.2,538.3,1676.2,538.3,1721.8z"/>
		</g>
		<path class="st13" d="M2026.4,1040.7h-518.5c0,0-2-33.2-15-71.1h511.6c1.1,2.3,2.1,4.6,3,6.9
			C2014.8,995.7,2021.4,1017.1,2026.4,1040.7z"/>
	</g>
	<linearGradient id="SVGID_1_" gradientUnits="userSpaceOnUse" x1="1415.1812" y1="571.8119" x2="1754.3784" y2="571.8119">
		<stop  offset="0" style="stop-color:#0F112E"/>
		<stop  offset="1" style="stop-color:#3F4158"/>
	</linearGradient>
	<path class="st15" d="M1584.8,336.1c-93.7,0-169.6,75.9-169.6,169.6c0,93.7,169.6,301.9,169.6,301.9s169.6-208.2,169.6-301.9
		C1754.4,412,1678.4,336.1,1584.8,336.1z M1584.8,583.2c-43.8,0-79.3-35.5-79.3-79.3s35.5-79.3,79.3-79.3
		c43.8,0,79.3,35.5,79.3,79.3S1628.6,583.2,1584.8,583.2z"/>
	<g>
		<path class="st12" d="M1247,1410.4c-0.9,0-1.9-0.4-2.5-1.2l-4.1-4.9c-1.1-1.4-0.9-3.4,0.4-4.6c1.4-1.1,3.4-0.9,4.6,0.4l4.1,4.9
			c1.1,1.4,1,3.4-0.4,4.6C1248.5,1410.2,1247.7,1410.4,1247,1410.4z M1237.4,1398.8c-0.9,0-1.9-0.4-2.5-1.2
			c-1.8-2.2-3.7-4.5-5.5-6.7c-1.1-1.4-0.9-3.4,0.5-4.6c1.4-1.1,3.4-0.9,4.6,0.5c1.9,2.3,3.7,4.5,5.5,6.7c1.1,1.4,0.9,3.4-0.5,4.6
			C1238.9,1398.5,1238.1,1398.8,1237.4,1398.8z M1226.4,1385.3c-0.9,0-1.9-0.4-2.5-1.2c-1.8-2.2-3.6-4.5-5.5-6.8
			c-1.1-1.4-0.9-3.5,0.5-4.6c1.4-1.1,3.5-0.9,4.6,0.5c1.8,2.3,3.6,4.5,5.4,6.8c1.1,1.4,0.9,3.4-0.5,4.6
			C1227.9,1385.1,1227.2,1385.3,1226.4,1385.3z M1215.6,1371.8c-1,0-1.9-0.4-2.6-1.2c-1.8-2.3-3.6-4.5-5.4-6.8
			c-1.1-1.4-0.9-3.5,0.6-4.6c1.4-1.1,3.5-0.9,4.6,0.6c1.8,2.3,3.6,4.6,5.4,6.8c1.1,1.4,0.9,3.5-0.5,4.6
			C1217,1371.5,1216.3,1371.8,1215.6,1371.8z M1204.9,1358.1c-1,0-1.9-0.4-2.6-1.3c-1.8-2.3-3.5-4.6-5.3-6.9
			c-1.1-1.4-0.8-3.5,0.6-4.6c1.4-1.1,3.5-0.8,4.6,0.6c1.8,2.3,3.5,4.6,5.3,6.9c1.1,1.4,0.8,3.5-0.6,4.6
			C1206.2,1357.9,1205.5,1358.1,1204.9,1358.1z M1194.3,1344.3c-1,0-2-0.4-2.6-1.3c-1.7-2.3-3.5-4.6-5.2-7c-1.1-1.4-0.8-3.5,0.7-4.6
			c1.4-1.1,3.5-0.8,4.6,0.7c1.7,2.3,3.5,4.7,5.2,6.9c1.1,1.4,0.8,3.5-0.6,4.6C1195.7,1344,1195,1344.3,1194.3,1344.3z M1184,1330.3
			c-1,0-2-0.5-2.6-1.3c-1.7-2.3-3.4-4.7-5.1-7.1c-1-1.5-0.7-3.5,0.8-4.5c1.5-1,3.5-0.7,4.5,0.8c1.7,2.4,3.4,4.7,5.1,7
			c1.1,1.5,0.7,3.5-0.7,4.5C1185.3,1330.1,1184.6,1330.3,1184,1330.3z M1173.9,1316.2c-1,0-2-0.5-2.7-1.4c-1.7-2.4-3.3-4.8-5-7.2
			c-1-1.5-0.6-3.5,0.8-4.5c1.5-1,3.5-0.6,4.5,0.8c1.6,2.4,3.3,4.8,4.9,7.1c1,1.5,0.7,3.5-0.8,4.5
			C1175.2,1316,1174.5,1316.2,1173.9,1316.2z M1164,1301.8c-1,0-2.1-0.5-2.7-1.4c-1.6-2.4-3.2-4.8-4.8-7.3c-1-1.5-0.6-3.5,0.9-4.5
			c1.5-1,3.5-0.6,4.5,0.9c1.6,2.4,3.2,4.8,4.8,7.2c1,1.5,0.6,3.5-0.9,4.5C1165.3,1301.7,1164.6,1301.8,1164,1301.8z M1154.5,1287.3
			c-1.1,0-2.1-0.5-2.7-1.5c-1.6-2.4-3.1-4.9-4.7-7.4c-1-1.5-0.5-3.5,1-4.5c1.5-1,3.5-0.5,4.5,1c1.5,2.4,3.1,4.9,4.6,7.3
			c1,1.5,0.5,3.5-1,4.5C1155.7,1287.2,1155.1,1287.3,1154.5,1287.3z M1145.2,1272.6c-1.1,0-2.2-0.6-2.8-1.6c-1.5-2.5-3-5-4.5-7.5
			c-0.9-1.5-0.4-3.5,1.1-4.5c1.5-0.9,3.5-0.4,4.5,1.1c1.5,2.5,3,4.9,4.5,7.4c0.9,1.5,0.5,3.5-1.1,4.5
			C1146.4,1272.5,1145.8,1272.6,1145.2,1272.6z M1136.3,1257.7c-1.1,0-2.2-0.6-2.8-1.6c-1.5-2.5-2.9-5-4.3-7.6
			c-0.9-1.6-0.3-3.6,1.2-4.4c1.6-0.9,3.6-0.3,4.4,1.2c1.4,2.5,2.8,5,4.3,7.5c0.9,1.6,0.4,3.5-1.2,4.5
			C1137.4,1257.6,1136.9,1257.7,1136.3,1257.7z M1127.8,1242.6c-1.2,0-2.3-0.6-2.9-1.7c-1.4-2.6-2.8-5.1-4.1-7.7
			c-0.8-1.6-0.2-3.6,1.4-4.4c1.6-0.8,3.6-0.2,4.4,1.4c1.4,2.6,2.7,5.1,4.1,7.6c0.9,1.6,0.3,3.6-1.3,4.4
			C1128.8,1242.5,1128.3,1242.6,1127.8,1242.6z M1119.6,1227.2c-1.2,0-2.3-0.6-2.9-1.8c-1.3-2.6-2.6-5.2-3.9-7.8
			c-0.8-1.6-0.1-3.6,1.5-4.4c1.6-0.8,3.6-0.1,4.4,1.5c1.3,2.6,2.6,5.2,3.9,7.7c0.8,1.6,0.2,3.6-1.4,4.4
			C1120.6,1227.1,1120.1,1227.2,1119.6,1227.2z M1112,1211.6c-1.2,0-2.4-0.7-2.9-1.9c-1.2-2.6-2.5-5.3-3.7-7.9
			c-0.7-1.6,0-3.6,1.6-4.3c1.6-0.7,3.6,0,4.3,1.6c1.2,2.6,2.4,5.2,3.6,7.8c0.8,1.6,0.1,3.6-1.6,4.3
			C1112.9,1211.5,1112.4,1211.6,1112,1211.6z M1104.8,1195.7c-1.3,0-2.5-0.7-3-2c-1.2-2.7-2.3-5.4-3.4-8.1c-0.7-1.7,0.1-3.6,1.8-4.3
			c1.7-0.7,3.6,0.1,4.3,1.8c1.1,2.7,2.2,5.3,3.4,8c0.7,1.6,0,3.6-1.7,4.3C1105.7,1195.6,1105.2,1195.7,1104.8,1195.7z
			 M1098.2,1179.7c-1.3,0-2.5-0.8-3-2.1c-1.1-2.7-2.1-5.4-3.1-8.2c-0.6-1.7,0.2-3.6,1.9-4.2c1.7-0.6,3.6,0.2,4.2,1.9
			c1,2.7,2,5.4,3.1,8.1c0.7,1.7-0.2,3.6-1.8,4.2C1099,1179.6,1098.6,1179.7,1098.2,1179.7z M1092.1,1163.4c-1.3,0-2.6-0.8-3.1-2.2
			c-1-2.8-1.9-5.5-2.8-8.3c-0.6-1.7,0.4-3.5,2.1-4.1c1.7-0.6,3.5,0.4,4.1,2.1c0.9,2.7,1.8,5.5,2.8,8.2c0.6,1.7-0.3,3.6-2,4.1
			C1092.9,1163.3,1092.5,1163.4,1092.1,1163.4z M1086.8,1146.8c-1.4,0-2.7-0.9-3.1-2.3c-0.8-2.8-1.7-5.6-2.5-8.4
			c-0.5-1.7,0.5-3.5,2.3-4c1.7-0.5,3.5,0.5,4,2.3c0.8,2.7,1.6,5.5,2.4,8.3c0.5,1.7-0.4,3.5-2.2,4.1
			C1087.4,1146.8,1087.1,1146.8,1086.8,1146.8z M1082.1,1130.1c-1.5,0-2.8-1-3.2-2.4c-0.7-2.8-1.4-5.7-2.1-8.5
			c-0.4-1.8,0.7-3.5,2.4-3.9c1.8-0.4,3.5,0.7,3.9,2.4c0.6,2.8,1.3,5.6,2,8.4c0.4,1.7-0.6,3.5-2.3,4
			C1082.6,1130.1,1082.3,1130.1,1082.1,1130.1z M1078.1,1113.2c-1.5,0-2.9-1.1-3.2-2.6c-0.6-2.9-1.2-5.8-1.7-8.6
			c-0.3-1.8,0.8-3.5,2.6-3.8c1.8-0.3,3.5,0.8,3.8,2.6c0.5,2.8,1.1,5.6,1.6,8.4c0.4,1.8-0.8,3.5-2.5,3.9
			C1078.6,1113.2,1078.4,1113.2,1078.1,1113.2z M1075,1096.1c-1.6,0-3-1.1-3.2-2.8c-0.5-2.9-0.9-5.8-1.2-8.7c-0.2-1.8,1-3.4,2.8-3.7
			c1.8-0.2,3.4,1,3.7,2.8c0.4,2.8,0.8,5.7,1.2,8.5c0.3,1.8-0.9,3.4-2.7,3.7C1075.4,1096.1,1075.2,1096.1,1075,1096.1z
			 M1072.8,1078.9c-1.6,0-3.1-1.2-3.2-2.9c-0.3-2.9-0.6-5.9-0.8-8.7c-0.1-1.8,1.2-3.4,3-3.5c1.8-0.2,3.4,1.2,3.5,3
			c0.2,2.8,0.5,5.7,0.8,8.6c0.2,1.8-1.1,3.4-2.9,3.6C1073,1078.9,1072.9,1078.9,1072.8,1078.9z M1071.4,1061.5
			c-1.7,0-3.2-1.4-3.2-3.1c-0.1-2.9-0.2-5.9-0.3-8.8c0-1.8,1.4-3.3,3.2-3.3c1.8-0.1,3.3,1.4,3.3,3.2c0.1,2.8,0.2,5.7,0.3,8.6
			c0.1,1.8-1.3,3.3-3.1,3.4C1071.6,1061.5,1071.5,1061.5,1071.4,1061.5z M1071.1,1044.1C1071.1,1044.1,1071.1,1044.1,1071.1,1044.1
			c-1.8,0-3.3-1.5-3.3-3.3c0-2.9,0.1-5.9,0.2-8.8c0.1-1.8,1.6-3.2,3.4-3.1c1.8,0.1,3.2,1.6,3.1,3.4c-0.1,2.8-0.2,5.7-0.2,8.6
			C1074.3,1042.7,1072.9,1044.1,1071.1,1044.1z M1071.7,1026.8c-0.1,0-0.1,0-0.2,0c-1.8-0.1-3.2-1.7-3-3.5c0.2-2.9,0.4-5.9,0.7-8.8
			c0.2-1.8,1.8-3.1,3.6-2.9c1.8,0.2,3.1,1.8,2.9,3.6c-0.3,2.8-0.5,5.7-0.7,8.6C1074.9,1025.5,1073.4,1026.8,1071.7,1026.8z
			 M1073.4,1009.5c-0.1,0-0.3,0-0.4,0c-1.8-0.2-3-1.9-2.8-3.6c0.4-2.9,0.8-5.8,1.2-8.7c0.3-1.8,1.9-3,3.7-2.7c1.8,0.3,3,1.9,2.7,3.7
			c-0.4,2.8-0.9,5.7-1.2,8.5C1076.4,1008.3,1075,1009.5,1073.4,1009.5z M1076.1,992.3c-0.2,0-0.4,0-0.6-0.1c-1.8-0.3-2.9-2-2.6-3.8
			c0.5-2.9,1.1-5.8,1.8-8.6c0.4-1.8,2.1-2.9,3.9-2.5c1.8,0.4,2.9,2.1,2.5,3.9c-0.6,2.8-1.2,5.6-1.7,8.4
			C1079,991.2,1077.7,992.3,1076.1,992.3z M1079.9,975.4c-0.3,0-0.5,0-0.8-0.1c-1.7-0.4-2.8-2.2-2.4-4c0.7-2.8,1.5-5.7,2.3-8.5
			c0.5-1.7,2.3-2.7,4-2.2c1.7,0.5,2.7,2.3,2.2,4c-0.8,2.7-1.5,5.5-2.2,8.3C1082.7,974.4,1081.3,975.4,1079.9,975.4z M1084.6,958.7
			c-0.3,0-0.7,0-1-0.2c-1.7-0.5-2.7-2.4-2.1-4.1c0.9-2.8,1.8-5.6,2.8-8.3c0.6-1.7,2.5-2.6,4.1-2c1.7,0.6,2.6,2.5,2,4.1
			c-0.9,2.7-1.9,5.4-2.7,8.1C1087.3,957.8,1086,958.7,1084.6,958.7z M1090.4,942.3c-0.4,0-0.8-0.1-1.2-0.2c-1.7-0.6-2.5-2.5-1.9-4.2
			c1-2.7,2.1-5.4,3.3-8.1c0.7-1.7,2.6-2.4,4.3-1.8c1.7,0.7,2.4,2.6,1.8,4.3c-1.1,2.6-2.2,5.3-3.2,8
			C1092.9,941.5,1091.7,942.3,1090.4,942.3z M1097,926.3c-0.4,0-0.9-0.1-1.3-0.3c-1.6-0.7-2.4-2.7-1.6-4.3c1.2-2.6,2.4-5.3,3.7-7.9
			c0.8-1.6,2.7-2.3,4.3-1.5c1.6,0.8,2.3,2.7,1.5,4.3c-1.2,2.6-2.5,5.2-3.6,7.8C1099.5,925.6,1098.3,926.3,1097,926.3z M1104.6,910.6
			c-0.5,0-1-0.1-1.5-0.4c-1.6-0.8-2.2-2.8-1.4-4.4c1.3-2.6,2.7-5.2,4.1-7.7c0.9-1.6,2.8-2.1,4.4-1.3c1.6,0.9,2.1,2.8,1.3,4.4
			c-1.4,2.5-2.7,5.1-4,7.6C1106.9,910,1105.8,910.6,1104.6,910.6z M1113,895.4c-0.6,0-1.1-0.1-1.6-0.4c-1.6-0.9-2.1-2.9-1.2-4.5
			c1.5-2.5,3-5,4.5-7.5c0.9-1.5,3-2,4.5-1.1c1.5,0.9,2,3,1.1,4.5c-1.5,2.4-3,4.9-4.4,7.4C1115.2,894.9,1114.1,895.4,1113,895.4z
			 M1122.1,880.7c-0.6,0-1.2-0.2-1.8-0.5c-1.5-1-1.9-3-0.9-4.5c1.6-2.4,3.2-4.9,4.9-7.3c1-1.5,3-1.9,4.5-0.8c1.5,1,1.9,3,0.8,4.5
			c-1.6,2.4-3.2,4.8-4.8,7.1C1124.2,880.1,1123.2,880.7,1122.1,880.7z M1131.9,866.4c-0.7,0-1.3-0.2-1.9-0.6
			c-1.5-1.1-1.8-3.1-0.7-4.5c1.7-2.3,3.4-4.7,5.2-7c1.1-1.4,3.1-1.7,4.6-0.6c1.4,1.1,1.7,3.1,0.6,4.6c-1.7,2.3-3.4,4.6-5.1,6.9
			C1133.9,865.9,1132.9,866.4,1131.9,866.4z M1142.4,852.5c-0.7,0-1.4-0.2-2-0.7c-1.4-1.1-1.7-3.2-0.5-4.6c1.8-2.3,3.6-4.5,5.5-6.8
			c1.1-1.4,3.2-1.6,4.6-0.4c1.4,1.1,1.6,3.2,0.4,4.6c-1.8,2.2-3.7,4.5-5.4,6.7C1144.3,852.1,1143.4,852.5,1142.4,852.5z
			 M1153.4,839.1c-0.8,0-1.5-0.3-2.1-0.8c-1.4-1.2-1.5-3.2-0.3-4.6c1.9-2.2,3.8-4.4,5.8-6.6c1.2-1.3,3.3-1.5,4.6-0.3
			c1.3,1.2,1.5,3.3,0.3,4.6c-1.9,2.2-3.8,4.3-5.7,6.5C1155.3,838.7,1154.4,839.1,1153.4,839.1z M1165,826.2c-0.8,0-1.6-0.3-2.2-0.9
			c-1.3-1.2-1.4-3.3-0.2-4.6c2-2.1,4-4.2,6-6.4c1.2-1.3,3.3-1.3,4.6-0.1c1.3,1.2,1.3,3.3,0.1,4.6c-2,2.1-4,4.2-5.9,6.3
			C1166.8,825.8,1165.9,826.2,1165,826.2z M1177,813.7c-0.8,0-1.7-0.3-2.3-0.9c-1.3-1.3-1.3-3.3,0-4.6c2-2,4.1-4.1,6.2-6.1
			c1.3-1.3,3.4-1.2,4.6,0.1c1.3,1.3,1.2,3.4-0.1,4.6c-2.1,2-4.1,4-6.1,6.1C1178.7,813.3,1177.9,813.7,1177,813.7z M1189.5,801.6
			c-0.9,0-1.7-0.3-2.4-1c-1.2-1.3-1.2-3.4,0.1-4.6c2.1-2,4.2-4,6.4-5.9c1.3-1.2,3.4-1.1,4.6,0.2c1.2,1.3,1.1,3.4-0.2,4.6
			c-2.1,2-4.3,3.9-6.3,5.9C1191.1,801.3,1190.3,801.6,1189.5,801.6z M1202.4,789.9c-0.9,0-1.8-0.4-2.4-1.1c-1.2-1.3-1.1-3.4,0.3-4.6
			c2.2-1.9,4.4-3.8,6.6-5.7c1.4-1.2,3.4-1,4.6,0.4c1.2,1.4,1,3.4-0.4,4.6c-2.2,1.9-4.4,3.8-6.5,5.7
			C1203.9,789.6,1203.1,789.9,1202.4,789.9z M1215.5,778.6c-0.9,0-1.9-0.4-2.5-1.2c-1.1-1.4-1-3.4,0.4-4.6c2.2-1.8,4.5-3.7,6.7-5.5
			c1.4-1.1,3.4-0.9,4.6,0.5c1.1,1.4,0.9,3.4-0.5,4.6c-2.3,1.8-4.5,3.6-6.7,5.5C1217,778.3,1216.3,778.6,1215.5,778.6z M1229,767.6
			c-0.9,0-1.9-0.4-2.5-1.2c-1.2-1.4-1-3.4,0.4-4.6c2.2-1.8,4.4-3.7,6.5-5.6c1.3-1.2,3.4-1.1,4.6,0.3c1.2,1.3,1.1,3.4-0.3,4.6
			c-2.2,1.9-4.4,3.9-6.6,5.7C1230.5,767.3,1229.7,767.6,1229,767.6z M1241.9,756c-0.9,0-1.7-0.3-2.4-1c-1.2-1.3-1.2-3.4,0.1-4.6
			c2.1-2,4.1-4,6.1-6c1.3-1.3,3.3-1.3,4.6,0c1.3,1.3,1.3,3.3,0,4.6c-2,2.1-4.1,4.2-6.3,6.2C1243.5,755.7,1242.7,756,1241.9,756z
			 M1254.1,743.6c-0.8,0-1.6-0.3-2.2-0.9c-1.3-1.2-1.4-3.3-0.2-4.6c1.9-2.1,3.8-4.3,5.7-6.4c1.2-1.4,3.2-1.5,4.6-0.4
			c1.4,1.2,1.5,3.2,0.4,4.6c-1.9,2.2-3.8,4.4-5.8,6.6C1255.8,743.3,1254.9,743.6,1254.1,743.6z M1265.3,730.4c-0.7,0-1.4-0.2-2-0.7
			c-1.4-1.1-1.6-3.2-0.5-4.6c1.8-2.2,3.5-4.5,5.2-6.8c1.1-1.4,3.1-1.8,4.6-0.7c1.4,1.1,1.8,3.1,0.7,4.6c-1.7,2.3-3.5,4.7-5.3,7
			C1267.2,730,1266.3,730.4,1265.3,730.4z M1275.6,716.4c-0.6,0-1.3-0.2-1.8-0.6c-1.5-1-1.9-3-0.9-4.5c1.6-2.3,3.2-4.8,4.7-7.2
			c1-1.5,3-2,4.5-1c1.5,1,2,3,1,4.5c-1.6,2.5-3.2,4.9-4.8,7.4C1277.7,715.9,1276.7,716.4,1275.6,716.4z M1284.9,701.7
			c-0.6,0-1.1-0.1-1.6-0.4c-1.6-0.9-2.1-2.9-1.2-4.5c1.4-2.5,2.8-5,4.2-7.5c0.8-1.6,2.8-2.2,4.4-1.3c1.6,0.8,2.2,2.8,1.3,4.4
			c-1.4,2.6-2.8,5.2-4.3,7.7C1287.1,701.1,1286,701.7,1284.9,701.7z M1293,686.4c-0.5,0-1-0.1-1.4-0.3c-1.6-0.8-2.3-2.7-1.5-4.4
			c1.2-2.6,2.5-5.2,3.6-7.8c0.7-1.6,2.6-2.4,4.3-1.7c1.6,0.7,2.4,2.6,1.7,4.3c-1.2,2.7-2.4,5.3-3.7,8
			C1295.4,685.7,1294.2,686.4,1293,686.4z M1300,670.6c-0.4,0-0.8-0.1-1.2-0.2c-1.7-0.7-2.5-2.6-1.8-4.2c1.1-2.6,2.1-5.3,3-8
			c0.6-1.7,2.5-2.6,4.2-2c1.7,0.6,2.6,2.5,2,4.2c-1,2.7-2,5.5-3.1,8.2C1302.5,669.8,1301.3,670.6,1300,670.6z M1305.9,654.2
			c-0.3,0-0.7,0-1-0.2c-1.7-0.5-2.7-2.4-2.1-4.1c0.9-2.7,1.7-5.5,2.5-8.2c0.5-1.7,2.3-2.7,4-2.3c1.7,0.5,2.7,2.3,2.3,4
			c-0.8,2.8-1.6,5.6-2.5,8.4C1308.5,653.3,1307.2,654.2,1305.9,654.2z M1310.5,637.5c-0.3,0-0.5,0-0.8-0.1c-1.7-0.4-2.8-2.2-2.4-3.9
			c0.7-2.8,1.3-5.6,1.9-8.4c0.4-1.8,2.1-2.9,3.9-2.5c1.8,0.4,2.9,2.1,2.5,3.9c-0.6,2.9-1.2,5.7-1.9,8.6
			C1313.3,636.5,1312,637.5,1310.5,637.5z M1314.1,620.5c-0.2,0-0.4,0-0.6,0c-1.8-0.3-3-2-2.7-3.8c0.5-2.8,0.9-5.7,1.3-8.5
			c0.2-1.8,1.9-3,3.7-2.8c1.8,0.3,3,1.9,2.8,3.7c-0.4,2.9-0.9,5.8-1.4,8.7C1317,619.4,1315.6,620.5,1314.1,620.5z M1316.5,603.3
			c-0.1,0-0.2,0-0.4,0c-1.8-0.2-3.1-1.8-2.9-3.6c0.3-2.8,0.6-5.7,0.8-8.6c0.1-1.8,1.7-3.1,3.5-3c1.8,0.1,3.1,1.7,3,3.5
			c-0.2,2.9-0.5,5.9-0.8,8.8C1319.6,602.1,1318.2,603.3,1316.5,603.3z M1317.8,586c-0.1,0-0.1,0-0.2,0c-1.8-0.1-3.2-1.6-3.1-3.4
			c0.1-2.8,0.2-5.7,0.3-8.6c0-1.8,1.5-3.2,3.3-3.2c1.8,0,3.2,1.5,3.2,3.3c-0.1,2.9-0.1,5.9-0.3,8.8
			C1321,584.6,1319.6,586,1317.8,586z M1318.1,568.6c-1.8,0-3.2-1.4-3.3-3.2c0-2.8-0.1-5.7-0.2-8.6c-0.1-1.8,1.3-3.3,3.1-3.4
			c1.8-0.1,3.3,1.3,3.4,3.1c0.1,2.9,0.2,5.9,0.2,8.8C1321.4,567.1,1320,568.6,1318.1,568.6C1318.2,568.6,1318.2,568.6,1318.1,568.6z
			 M1317.4,551.2c-1.7,0-3.1-1.3-3.2-3c-0.2-2.8-0.4-5.7-0.7-8.6c-0.2-1.8,1.1-3.4,2.9-3.5c1.8-0.2,3.4,1.1,3.5,2.9
			c0.3,2.9,0.5,5.9,0.7,8.7c0.1,1.8-1.2,3.3-3,3.5C1317.6,551.2,1317.5,551.2,1317.4,551.2z M1315.8,533.9c-1.6,0-3-1.2-3.2-2.9
			c-0.3-2.8-0.7-5.7-1.1-8.5c-0.3-1.8,1-3.4,2.7-3.7c1.8-0.3,3.4,1,3.7,2.7c0.4,2.9,0.8,5.8,1.2,8.7c0.2,1.8-1.1,3.4-2.8,3.6
			C1316.1,533.9,1315.9,533.9,1315.8,533.9z M1313.3,516.8c-1.6,0-2.9-1.1-3.2-2.7c-0.5-2.8-1-5.6-1.6-8.5c-0.3-1.8,0.8-3.5,2.6-3.8
			c1.8-0.3,3.5,0.8,3.8,2.6c0.6,2.9,1.1,5.8,1.6,8.6c0.3,1.8-0.9,3.5-2.7,3.8C1313.7,516.7,1313.5,516.8,1313.3,516.8z
			 M1309.9,499.7c-1.5,0-2.8-1-3.2-2.5c-0.6-2.8-1.3-5.6-2-8.4c-0.4-1.7,0.6-3.5,2.4-3.9c1.7-0.4,3.5,0.6,3.9,2.4
			c0.7,2.8,1.4,5.7,2,8.5c0.4,1.8-0.7,3.5-2.5,3.9C1310.4,499.7,1310.2,499.7,1309.9,499.7z M1305.8,482.9c-1.4,0-2.7-1-3.1-2.4
			c-0.7-2.7-1.5-5.5-2.3-8.3c-0.5-1.7,0.5-3.5,2.2-4c1.7-0.5,3.5,0.5,4,2.2c0.8,2.8,1.6,5.6,2.4,8.4c0.5,1.7-0.6,3.5-2.3,4
			C1306.3,482.8,1306.1,482.9,1305.8,482.9z M1300.8,466.2c-1.4,0-2.7-0.9-3.1-2.3c-0.9-2.7-1.8-5.5-2.7-8.2c-0.6-1.7,0.3-3.6,2-4.1
			c1.7-0.6,3.6,0.3,4.1,2c1,2.8,1.9,5.6,2.8,8.3c0.5,1.7-0.4,3.5-2.1,4.1C1301.5,466.1,1301.2,466.2,1300.8,466.2z M1295.2,449.7
			c-1.3,0-2.6-0.8-3.1-2.1c-1-2.7-2-5.4-3.1-8.1c-0.7-1.7,0.2-3.6,1.8-4.2c1.7-0.7,3.6,0.2,4.2,1.8c1.1,2.7,2.1,5.5,3.1,8.2
			c0.6,1.7-0.2,3.6-1.9,4.2C1295.9,449.6,1295.5,449.7,1295.2,449.7z M1288.8,433.5c-1.3,0-2.5-0.8-3-2c-1.1-2.6-2.2-5.3-3.4-7.9
			c-0.7-1.6,0-3.6,1.7-4.3c1.6-0.7,3.6,0,4.3,1.7c1.2,2.7,2.3,5.4,3.5,8.1c0.7,1.7-0.1,3.6-1.8,4.3
			C1289.7,433.4,1289.2,433.5,1288.8,433.5z M1281.8,417.6c-1.2,0-2.4-0.7-3-1.9c-1.2-2.6-2.5-5.2-3.7-7.8c-0.8-1.6-0.1-3.6,1.5-4.4
			c1.6-0.8,3.6-0.1,4.4,1.5c1.3,2.6,2.6,5.3,3.8,7.9c0.8,1.6,0.1,3.6-1.6,4.3C1282.7,417.5,1282.3,417.6,1281.8,417.6z M527,404.2
			c-0.6,0-1.1-0.1-1.7-0.5c-1.5-0.9-2.1-2.9-1.1-4.5c0.1-0.1,1.7-2.8,4.9-7.5c1-1.5,3-1.9,4.5-0.8c1.5,1,1.9,3,0.8,4.5
			c-3.1,4.5-4.7,7.1-4.7,7.1C529.2,403.7,528.1,404.2,527,404.2z M1274.1,401.9c-1.2,0-2.3-0.6-2.9-1.8c-1.3-2.6-2.7-5.1-4-7.6
			c-0.9-1.6-0.3-3.6,1.3-4.4c1.6-0.9,3.6-0.3,4.4,1.3c1.4,2.6,2.7,5.2,4.1,7.7c0.8,1.6,0.2,3.6-1.4,4.4
			C1275.2,401.8,1274.6,401.9,1274.1,401.9z M536.8,389.8c-0.7,0-1.3-0.2-1.9-0.6c-1.4-1.1-1.8-3.1-0.7-4.6c1.7-2.3,3.5-4.7,5.3-7
			c1.1-1.4,3.2-1.7,4.6-0.6c1.4,1.1,1.7,3.2,0.6,4.6c-1.8,2.3-3.5,4.6-5.2,6.9C538.8,389.4,537.8,389.8,536.8,389.8z M1265.9,386.6
			c-1.1,0-2.2-0.6-2.8-1.7c-1.4-2.5-2.9-5-4.3-7.5c-0.9-1.5-0.4-3.5,1.1-4.5c1.5-0.9,3.5-0.4,4.5,1.1c1.5,2.5,2.9,5,4.4,7.6
			c0.9,1.6,0.3,3.6-1.2,4.4C1267,386.5,1266.4,386.6,1265.9,386.6z M547.5,376.1c-0.7,0-1.5-0.2-2.1-0.7c-1.4-1.1-1.6-3.2-0.5-4.6
			c1.8-2.2,3.7-4.5,5.6-6.7c1.2-1.4,3.2-1.5,4.6-0.4c1.4,1.2,1.5,3.2,0.4,4.6c-1.9,2.2-3.8,4.4-5.5,6.6
			C549.4,375.7,548.5,376.1,547.5,376.1z M1257,371.7c-1.1,0-2.2-0.5-2.8-1.5c-1.5-2.4-3-4.9-4.6-7.3c-1-1.5-0.5-3.5,1-4.5
			c1.5-1,3.5-0.5,4.5,1c1.6,2.4,3.1,4.9,4.7,7.4c0.9,1.5,0.5,3.5-1.1,4.5C1258.2,371.5,1257.6,371.7,1257,371.7z M558.8,362.9
			c-0.8,0-1.5-0.3-2.2-0.8c-1.3-1.2-1.5-3.3-0.3-4.6c1.9-2.2,3.9-4.3,5.9-6.5c1.2-1.3,3.3-1.4,4.6-0.2c1.3,1.2,1.4,3.3,0.2,4.6
			c-2,2.1-3.9,4.2-5.8,6.4C560.6,362.5,559.7,362.9,558.8,362.9z M1247.6,357.1c-1,0-2.1-0.5-2.7-1.4c-1.6-2.4-3.2-4.7-4.9-7.1
			c-1-1.5-0.7-3.5,0.8-4.5c1.5-1,3.5-0.7,4.5,0.8c1.7,2.4,3.3,4.8,5,7.2c1,1.5,0.6,3.5-0.9,4.5
			C1248.9,356.9,1248.2,357.1,1247.6,357.1z M570.7,350.1c-0.8,0-1.6-0.3-2.3-0.9c-1.3-1.3-1.3-3.3-0.1-4.6c2-2,4-4.1,6.2-6.2
			c1.3-1.3,3.3-1.3,4.6,0c1.3,1.3,1.3,3.3,0,4.6c-2.1,2.1-4.1,4.1-6.1,6.1C572.4,349.8,571.5,350.1,570.7,350.1z M1237.6,342.9
			c-1,0-2-0.5-2.6-1.3c-1.7-2.3-3.4-4.6-5.2-6.9c-1.1-1.4-0.8-3.5,0.6-4.6c1.4-1.1,3.5-0.8,4.6,0.6c1.8,2.3,3.5,4.6,5.2,7
			c1.1,1.5,0.8,3.5-0.7,4.6C1239,342.7,1238.3,342.9,1237.6,342.9z M583,337.9c-0.9,0-1.7-0.3-2.4-1c-1.2-1.3-1.2-3.4,0.1-4.6
			c2.1-2,4.2-4,6.4-6c1.3-1.2,3.4-1.1,4.6,0.2c1.2,1.3,1.1,3.4-0.2,4.6c-2.2,2-4.3,3.9-6.3,5.9C584.6,337.6,583.8,337.9,583,337.9z
			 M1227.1,329.2c-1,0-1.9-0.4-2.5-1.2c-1.8-2.2-3.6-4.5-5.4-6.7c-1.1-1.4-1-3.4,0.4-4.6c1.4-1.2,3.4-1,4.6,0.4
			c1.8,2.2,3.7,4.5,5.5,6.8c1.1,1.4,0.9,3.5-0.5,4.6C1228.5,328.9,1227.8,329.2,1227.1,329.2z M595.8,326.2c-0.9,0-1.8-0.4-2.4-1.1
			c-1.2-1.3-1.1-3.4,0.3-4.6c2.1-1.9,4.4-3.8,6.6-5.7c1.4-1.2,3.4-1,4.6,0.4c1.2,1.4,1,3.4-0.4,4.6c-2.2,1.9-4.4,3.8-6.5,5.7
			C597.4,325.9,596.6,326.2,595.8,326.2z M1216.1,315.9c-0.9,0-1.8-0.4-2.5-1.1c-1.9-2.2-3.8-4.3-5.7-6.5c-1.2-1.3-1.1-3.4,0.2-4.6
			c1.3-1.2,3.4-1.1,4.6,0.2c1.9,2.2,3.9,4.4,5.8,6.6c1.2,1.4,1,3.4-0.3,4.6C1217.6,315.6,1216.8,315.9,1216.1,315.9z M609,314.9
			c-0.9,0-1.9-0.4-2.5-1.2c-1.1-1.4-0.9-3.4,0.5-4.6c2.2-1.8,4.5-3.7,6.8-5.5c1.4-1.1,3.5-0.9,4.6,0.5c1.1,1.4,0.9,3.5-0.5,4.6
			c-2.3,1.8-4.5,3.6-6.7,5.4C610.5,314.6,609.8,314.9,609,314.9z M622.7,304.1c-1,0-2-0.4-2.6-1.3c-1.1-1.4-0.8-3.5,0.6-4.6
			c2.3-1.7,4.6-3.5,7-5.2c1.4-1.1,3.5-0.8,4.6,0.7c1.1,1.5,0.7,3.5-0.7,4.6c-2.3,1.7-4.7,3.4-6.9,5.2
			C624.1,303.9,623.4,304.1,622.7,304.1z M1204.4,303c-0.9,0-1.7-0.3-2.4-1c-2-2.1-4-4.2-6-6.2c-1.3-1.3-1.2-3.3,0-4.6
			c1.3-1.3,3.3-1.2,4.6,0c2,2.1,4.1,4.2,6.1,6.3c1.2,1.3,1.2,3.4-0.1,4.6C1206,302.7,1205.2,303,1204.4,303z M636.7,293.8
			c-1,0-2-0.5-2.7-1.4c-1-1.5-0.7-3.5,0.8-4.5c2.4-1.7,4.8-3.3,7.2-5c1.5-1,3.5-0.6,4.5,0.9c1,1.5,0.6,3.5-0.9,4.5
			c-2.4,1.6-4.8,3.3-7.1,4.9C638,293.6,637.3,293.8,636.7,293.8z M1192.2,290.6c-0.8,0-1.6-0.3-2.3-0.9c-2-2-4.1-4-6.2-5.9
			c-1.3-1.2-1.4-3.3-0.2-4.6c1.2-1.3,3.3-1.4,4.6-0.2c2.1,2,4.3,4,6.3,6c1.3,1.3,1.3,3.3,0.1,4.6
			C1193.9,290.2,1193.1,290.6,1192.2,290.6z M651.1,284.1c-1.1,0-2.1-0.5-2.7-1.5c-1-1.5-0.6-3.5,0.9-4.5c2.4-1.6,4.9-3.2,7.4-4.7
			c1.5-1,3.5-0.5,4.5,1c1,1.5,0.5,3.5-1,4.5c-2.5,1.5-4.9,3.1-7.3,4.7C652.3,283.9,651.7,284.1,651.1,284.1z M1179.5,278.7
			c-0.8,0-1.5-0.3-2.2-0.8c-2.2-1.9-4.3-3.8-6.5-5.7c-1.4-1.2-1.5-3.2-0.4-4.6c1.2-1.4,3.2-1.5,4.6-0.4c2.2,1.9,4.4,3.8,6.6,5.8
			c1.3,1.2,1.5,3.3,0.3,4.6C1181.3,278.4,1180.4,278.7,1179.5,278.7z M665.8,274.8c-1.1,0-2.2-0.6-2.8-1.6c-0.9-1.5-0.4-3.5,1.1-4.5
			c2.5-1.5,5-3,7.5-4.4c1.6-0.9,3.5-0.4,4.5,1.2c0.9,1.6,0.4,3.5-1.2,4.5c-2.5,1.5-5,2.9-7.4,4.4
			C666.9,274.7,666.3,274.8,665.8,274.8z M1166.3,267.5c-0.7,0-1.4-0.2-2-0.7c-2.2-1.8-4.5-3.6-6.8-5.3c-1.4-1.1-1.7-3.1-0.6-4.6
			c1.1-1.4,3.1-1.7,4.6-0.6c2.3,1.8,4.6,3.6,6.9,5.4c1.4,1.1,1.6,3.2,0.5,4.6C1168.2,267.1,1167.3,267.5,1166.3,267.5z M680.8,266.1
			c-1.1,0-2.3-0.6-2.8-1.7c-0.9-1.6-0.3-3.6,1.3-4.4c2.5-1.4,5.1-2.8,7.7-4.2c1.6-0.8,3.6-0.2,4.4,1.3c0.8,1.6,0.2,3.6-1.3,4.4
			c-2.6,1.4-5.1,2.7-7.6,4.1C681.9,266,681.3,266.1,680.8,266.1z M696.1,258c-1.2,0-2.3-0.6-2.9-1.8c-0.8-1.6-0.2-3.6,1.4-4.4
			c2.6-1.3,5.2-2.6,7.8-3.9c1.6-0.8,3.6-0.1,4.4,1.5c0.8,1.6,0.1,3.6-1.5,4.4c-2.6,1.3-5.2,2.6-7.7,3.9
			C697.1,257.9,696.6,258,696.1,258z M1152.5,256.9c-0.7,0-1.3-0.2-1.9-0.6c-2.3-1.7-4.7-3.4-7-5c-1.5-1-1.8-3.1-0.8-4.5
			c1-1.5,3.1-1.8,4.5-0.8c2.4,1.6,4.8,3.4,7.1,5.1c1.5,1.1,1.8,3.1,0.7,4.6C1154.5,256.4,1153.6,256.9,1152.5,256.9z M711.7,250.3
			c-1.2,0-2.4-0.7-3-1.9c-0.8-1.6-0.1-3.6,1.6-4.3c2.6-1.2,5.3-2.4,7.9-3.6c1.6-0.7,3.6,0,4.3,1.6c0.7,1.6,0,3.6-1.6,4.3
			c-2.6,1.2-5.3,2.4-7.8,3.6C712.6,250.2,712.2,250.3,711.7,250.3z M1138.3,247c-0.6,0-1.2-0.2-1.8-0.5c-2.4-1.6-4.8-3.1-7.3-4.6
			c-1.5-0.9-2-3-1.1-4.5c0.9-1.5,3-2,4.5-1.1c2.5,1.5,5,3.1,7.4,4.7c1.5,1,1.9,3,0.9,4.5C1140.4,246.5,1139.3,247,1138.3,247z
			 M727.6,243.3c-1.3,0-2.5-0.7-3-2c-0.7-1.7,0.1-3.6,1.7-4.3c2.7-1.1,5.3-2.3,8.1-3.4c1.7-0.7,3.6,0.1,4.2,1.8
			c0.7,1.7-0.1,3.6-1.8,4.2c-2.7,1.1-5.3,2.2-8,3.3C728.4,243.2,728,243.3,727.6,243.3z M1123.5,237.9c-0.6,0-1.1-0.1-1.6-0.4
			c-2.5-1.4-5-2.8-7.5-4.2c-1.6-0.9-2.2-2.8-1.3-4.4c0.9-1.6,2.8-2.2,4.4-1.3c2.6,1.4,5.1,2.8,7.7,4.3c1.6,0.9,2.1,2.9,1.2,4.4
			C1125.7,237.3,1124.6,237.9,1123.5,237.9z M743.7,236.7c-1.3,0-2.5-0.8-3-2.1c-0.6-1.7,0.2-3.6,1.9-4.2c2.7-1,5.4-2.1,8.2-3.1
			c1.7-0.6,3.6,0.2,4.2,1.9c0.6,1.7-0.2,3.6-1.9,4.2c-2.7,1-5.4,2-8.1,3C744.4,236.7,744,236.7,743.7,236.7z M760,230.8
			c-1.3,0-2.6-0.8-3.1-2.2c-0.6-1.7,0.3-3.6,2-4.1c2.7-0.9,5.5-1.9,8.3-2.8c1.7-0.6,3.5,0.4,4.1,2.1c0.6,1.7-0.4,3.5-2.1,4.1
			c-2.7,0.9-5.5,1.8-8.2,2.8C760.7,230.7,760.3,230.8,760,230.8z M1108.2,229.6c-0.5,0-1-0.1-1.5-0.3c-2.6-1.3-5.2-2.5-7.7-3.7
			c-1.6-0.8-2.3-2.7-1.6-4.3c0.8-1.6,2.7-2.3,4.3-1.6c2.6,1.2,5.3,2.5,7.9,3.8c1.6,0.8,2.3,2.8,1.4,4.4
			C1110.6,228.9,1109.4,229.6,1108.2,229.6z M776.5,225.3c-1.4,0-2.7-0.9-3.1-2.3c-0.5-1.7,0.4-3.5,2.1-4.1c2.8-0.9,5.6-1.7,8.4-2.5
			c1.7-0.5,3.5,0.5,4,2.2c0.5,1.7-0.5,3.5-2.2,4c-2.8,0.8-5.5,1.6-8.3,2.5C777.1,225.3,776.8,225.3,776.5,225.3z M1092.5,222.3
			c-0.4,0-0.9-0.1-1.3-0.3c-2.6-1.1-5.3-2.2-7.9-3.2c-1.7-0.6-2.5-2.5-1.9-4.2c0.7-1.7,2.5-2.5,4.2-1.9c2.7,1,5.5,2.2,8.1,3.3
			c1.7,0.7,2.4,2.6,1.7,4.3C1094.9,221.6,1093.7,222.3,1092.5,222.3z M793.1,220.5c-1.4,0-2.7-0.9-3.1-2.4c-0.5-1.7,0.5-3.5,2.3-4
			c2.8-0.8,5.6-1.5,8.4-2.2c1.7-0.4,3.5,0.6,4,2.3c0.4,1.7-0.6,3.5-2.3,4c-2.8,0.7-5.6,1.5-8.3,2.2
			C793.7,220.4,793.4,220.5,793.1,220.5z M809.9,216.2c-1.5,0-2.8-1-3.2-2.5c-0.4-1.7,0.7-3.5,2.4-3.9c2.8-0.7,5.7-1.3,8.5-2
			c1.8-0.4,3.5,0.7,3.9,2.5c0.4,1.8-0.7,3.5-2.5,3.9c-2.8,0.6-5.6,1.3-8.4,1.9C810.4,216.1,810.2,216.2,809.9,216.2z M1076.3,216
			c-0.4,0-0.7-0.1-1.1-0.2c-2.7-0.9-5.4-1.8-8.1-2.7c-1.7-0.5-2.7-2.4-2.2-4.1c0.5-1.7,2.4-2.7,4.1-2.2c2.8,0.9,5.6,1.8,8.4,2.7
			c1.7,0.6,2.6,2.4,2,4.1C1078.9,215.2,1077.6,216,1076.3,216z M826.9,212.4c-1.5,0-2.9-1.1-3.2-2.6c-0.4-1.8,0.8-3.5,2.5-3.8
			c2.8-0.6,5.7-1.2,8.6-1.7c1.8-0.3,3.5,0.8,3.8,2.6c0.3,1.8-0.8,3.5-2.6,3.8c-2.8,0.5-5.7,1.1-8.5,1.7
			C827.3,212.3,827.1,212.4,826.9,212.4z M1059.7,210.9c-0.3,0-0.6,0-0.8-0.1c-2.8-0.7-5.6-1.4-8.3-2.1c-1.8-0.4-2.8-2.1-2.4-3.9
			c0.4-1.8,2.1-2.8,3.9-2.4c2.8,0.6,5.7,1.4,8.5,2.1c1.7,0.5,2.8,2.3,2.3,4C1062.4,210,1061.1,210.9,1059.7,210.9z M843.9,209.1
			c-1.6,0-2.9-1.1-3.2-2.7c-0.3-1.8,0.9-3.5,2.6-3.8c2.8-0.5,5.7-1,8.6-1.4c1.8-0.3,3.4,0.9,3.7,2.7c0.3,1.8-0.9,3.4-2.7,3.7
			c-2.9,0.5-5.7,0.9-8.5,1.4C844.3,209.1,844.1,209.1,843.9,209.1z M1042.8,207.1c-0.2,0-0.4,0-0.6-0.1c-2.8-0.5-5.6-1-8.4-1.4
			c-1.8-0.3-3-1.9-2.8-3.7c0.3-1.8,1.9-3,3.7-2.8c2.9,0.4,5.8,0.9,8.7,1.4c1.8,0.3,2.9,2,2.6,3.8
			C1045.7,206,1044.3,207.1,1042.8,207.1z M861.1,206.4c-1.6,0-3-1.2-3.2-2.8c-0.3-1.8,1-3.4,2.8-3.7c2.9-0.4,5.7-0.8,8.7-1.2
			c1.8-0.2,3.4,1,3.6,2.8c0.2,1.8-1,3.4-2.8,3.6c-2.9,0.4-5.7,0.8-8.6,1.2C861.4,206.4,861.2,206.4,861.1,206.4z M1025.6,204.5
			c-0.1,0-0.2,0-0.4,0c-2.9-0.3-5.7-0.6-8.6-0.9c-1.8-0.2-3.1-1.8-2.9-3.6c0.2-1.8,1.8-3.1,3.6-2.9c2.9,0.3,5.8,0.6,8.7,0.9
			c1.8,0.2,3.1,1.8,2.9,3.6C1028.7,203.3,1027.2,204.5,1025.6,204.5z M878.3,204.2c-1.6,0-3-1.2-3.2-2.9c-0.2-1.8,1.1-3.4,2.9-3.6
			c2.9-0.3,5.8-0.6,8.7-0.9c1.8-0.2,3.4,1.1,3.6,2.9c0.2,1.8-1.1,3.4-2.9,3.6c-2.9,0.3-5.7,0.6-8.6,0.9
			C878.5,204.2,878.4,204.2,878.3,204.2z M1008.3,202.9c-0.1,0-0.2,0-0.3,0c-2.9-0.2-5.8-0.5-8.6-0.7c-1.8-0.1-3.1-1.7-3-3.5
			c0.1-1.8,1.7-3.2,3.5-3c2.9,0.2,5.8,0.4,8.7,0.7c1.8,0.2,3.1,1.7,3,3.5C1011.4,201.6,1010,202.9,1008.3,202.9z M895.6,202.5
			c-1.7,0-3.1-1.3-3.2-3c-0.1-1.8,1.2-3.4,3-3.5c2.9-0.2,5.8-0.5,8.7-0.7c1.8-0.1,3.4,1.2,3.5,3c0.1,1.8-1.2,3.3-3,3.5
			c-2.9,0.2-5.8,0.4-8.6,0.7C895.8,202.5,895.7,202.5,895.6,202.5z M991,201.6c-0.1,0-0.1,0-0.2,0c-2.9-0.2-5.8-0.3-8.6-0.5
			c-1.8-0.1-3.2-1.6-3.1-3.4c0.1-1.8,1.6-3.2,3.4-3.1c2.9,0.1,5.8,0.3,8.7,0.5c1.8,0.1,3.2,1.7,3.1,3.4
			C994.1,200.3,992.7,201.6,991,201.6z M912.9,201.3c-1.7,0-3.2-1.3-3.2-3.1c-0.1-1.8,1.3-3.3,3.1-3.4c2.9-0.2,5.8-0.3,8.7-0.4
			c1.8-0.1,3.3,1.3,3.4,3.1c0.1,1.8-1.3,3.3-3.1,3.4c-2.9,0.1-5.8,0.3-8.6,0.4C913,201.3,913,201.3,912.9,201.3z M973.7,200.8
			c0,0-0.1,0-0.1,0c-2.9-0.1-5.8-0.2-8.6-0.3c-1.8,0-3.2-1.5-3.2-3.3c0-1.8,1.5-3.2,3.3-3.2c2.9,0.1,5.8,0.2,8.7,0.3
			c1.8,0.1,3.2,1.6,3.1,3.4C976.8,199.4,975.4,200.8,973.7,200.8z M930.3,200.6c-1.8,0-3.2-1.4-3.3-3.2c-0.1-1.8,1.4-3.3,3.2-3.3
			c2.9-0.1,5.8-0.1,8.7-0.2c0,0,0,0,0,0c1.8,0,3.2,1.4,3.3,3.2c0,1.8-1.4,3.3-3.2,3.3C936.1,200.4,933.2,200.5,930.3,200.6
			C930.3,200.6,930.3,200.6,930.3,200.6z M956.3,200.3C956.3,200.3,956.3,200.3,956.3,200.3c-2.6,0-5.1,0-7.6,0l-1.1,0c0,0,0,0,0,0
			c-1.8,0-3.3-1.5-3.3-3.3c0-1.8,1.5-3.3,3.3-3.3l1.1,0c2.5,0,5,0,7.6,0c1.8,0,3.2,1.5,3.2,3.3C959.5,198.9,958.1,200.3,956.3,200.3
			z"/>
	</g>
	<g>
		<g>
			<path class="st16" d="M852.9,1228.6c0,0-2,2.1-5.7,6.1c-13.6,14.7-50.5,54.8-91.1,100.8c-9.6,10.9-19.4,22.2-29.3,33.5
				c-14.7,17-29.2,34-42.6,50.5l-0.1,0.1c-4.1,4.9-8,9.6-11.9,14.3c-8,9.9-15.4,19.3-22.3,28.2c-20.6,26.9-35,48.6-37.7,59.6
				c-16.4,68.8,15.6,262.4,23.9,309.7H186.7c13.6-98.4,32.5-237.4,34.9-258.5c3.7-33.3-112.5-176.3-114.5-280.7
				c-1.9-104.2,67.1-178.9,77.9-281.5c5.3-48.3-0.7-111.2-8.4-164.9c-4-28.5-8.7-53.9-12.4-73.2c-1.9-9.4,1.3-18.2,7.2-24.2
				c1.6-1.6,3.3-3.1,5.1-4.1c7.1-4.7,16.4-5.9,25.3-2c25.7,11,54.3,40.2,61.8,113c0,0,21.6,13.6,56.5,35.7
				c14.2,8.9,30.5,19.2,48.5,30.6c13.9,8.7,28.7,18.2,44.3,28c1,0.6,2,1.3,3,1.9c6.3,4,12.4,8,19,12.1h0.1c2.3,1.4,4.6,3,7,4.4
				c4.1,2.7,8.4,5.4,12.9,8.2c0.9,0.6,1.7,1.1,2.7,1.6c28.3,18,57.9,36.9,87.8,55.9h0.1c4.9,2.9,9.7,6,14.6,9.1
				c3.7,2.4,7.6,4.7,11.4,7.1c4.7,3.1,9.6,6.1,14.4,9.1h0.1c33.9,21.4,67.1,42.6,98.1,62.2c4.9,3.1,9.7,6.1,14.4,9.1
				c3.9,2.4,7.6,4.9,11.3,7.2c5,3.1,9.6,6.1,14.3,9.3h0.1c59.2,37.3,105,66.5,121.7,77.2C850.4,1227.1,852.9,1228.5,852.9,1228.6z"
				/>
			<path class="st17" d="M199.4,820.7c0.7,12.1-7.7,22.8-19.7,24.6l-3.1,0.5c-4.1-28.3-8.7-53.9-12.4-73.2
				c-1.8-9.4-4.7-18.5-3.9-28.2c19.5-9.6,27.1,13.6,29.5,22.9C193.8,782.6,198.3,803.1,199.4,820.7z"/>
		</g>
		<path class="st18" d="M726.7,1369c-14.7,17-29.2,34-42.6,50.5l-0.1,0.1c-4.1,4.9-8,9.6-11.9,14.3c-8,9.9-15.4,19.3-22.3,28.2
			c-20.6,26.9-35,48.6-37.7,59.6c-16.4,68.8,15.6,262.4,23.9,309.7H343.7c54.2-80.8,61.2-223.1,61.6-288.4
			c0.1-16.4,5.4-36.2,14-57.1c16.3-40.3,44.3-85.5,70.1-122.8c23.7-34.6,45.6-62.3,54.5-73.4c0,0,0,0,0-0.1c2.9-3.3,4.3-5.1,4.3-5.1
			l161.6-6.9h0.1l2.1,11.4l1.7,9.7l7.4,40.3L726.7,1369z"/>
		<g>
			<g>
				<linearGradient id="SVGID_2_" gradientUnits="userSpaceOnUse" x1="226.6799" y1="956.3008" x2="865.6199" y2="956.3008">
					<stop  offset="0" style="stop-color:#0F112E"/>
					<stop  offset="1" style="stop-color:#3F4158"/>
				</linearGradient>
				<path class="st19" d="M840.8,1442.4l-483.6,50c-15.2,1.6-28.8-9.6-30.4-24.7l-99.9-967c-1.6-15.2,9.6-28.8,24.7-30.4l483.6-50
					c15.2-1.6,28.8,9.6,30.4,24.7l99.9,967C867,1427.1,855.9,1440.8,840.8,1442.4z"/>
				<path class="st20" d="M893,1437l-483.6,50c-15.2,1.6-28.8-9.6-30.4-24.7l-99.9-967c-1.6-15.2,9.6-28.8,24.7-30.4l483.6-50
					c15.2-1.6,28.8,9.6,30.4,24.7l99.9,967C919.3,1421.7,908.1,1435.4,893,1437z"/>
				<g>
					<path class="st21" d="M634.5,475.2c-0.3-3-3-5.2-6-4.9l-140,14.5c-3,0.3-5.2,3-4.9,6c0.3,3,3,5.2,6,4.9l140-14.5
						C632.6,480.9,634.8,478.2,634.5,475.2z"/>
					<path class="st21" d="M463.6,487.4c-3,0.3-5.2,3-4.9,6c0.3,3,3,5.2,6,4.9c3-0.3,5.2-3,4.9-6
						C469.3,489.3,466.6,487.1,463.6,487.4z"/>
				</g>
				<linearGradient id="SVGID_3_" gradientUnits="userSpaceOnUse" x1="616.692" y1="1404.8217" x2="687.3528" y2="1404.8217">
					<stop  offset="0" style="stop-color:#0F112E"/>
					<stop  offset="1" style="stop-color:#3F4158"/>
				</linearGradient>
				<path class="st22" d="M687.2,1401.2c-2-19.4-19.4-33.5-38.8-31.5c-19.4,2-33.5,19.4-31.5,38.8c2,19.4,19.4,33.5,38.8,31.5
					C675.1,1438,689.2,1420.6,687.2,1401.2z"/>
				
					<rect x="370.9" y="518.7" transform="matrix(0.9947 -0.1028 0.1028 0.9947 -92.8892 66.2264)" class="st23" width="450.3" height="831.2"/>
				
					<rect x="408.7" y="1251.5" transform="matrix(0.9947 -0.1028 0.1028 0.9947 -130.2583 72.0454)" class="st24" width="450.3" height="96.5"/>
				<g>
					<linearGradient id="SVGID_4_" gradientUnits="userSpaceOnUse" x1="543.7819" y1="1277.4364" x2="784.7048" y2="1277.4364">
						<stop  offset="0" style="stop-color:#0F112E"/>
						<stop  offset="1" style="stop-color:#3F4158"/>
					</linearGradient>
					<path class="st25" d="M549.2,1294.2l231.2-23.9c2.7-0.3,4.6-2.7,4.4-5.4c-0.3-2.7-2.7-4.6-5.4-4.4l-231.2,23.9
						c-2.7,0.3-4.6,2.7-4.4,5.4l0,0C544.1,1292.6,546.5,1294.5,549.2,1294.2z"/>
					<linearGradient id="SVGID_5_" gradientUnits="userSpaceOnUse" x1="545.9819" y1="1298.7228" x2="786.9036" y2="1298.7228">
						<stop  offset="0" style="stop-color:#0F112E"/>
						<stop  offset="1" style="stop-color:#3F4158"/>
					</linearGradient>
					<path class="st26" d="M786.9,1286.3c-0.3-2.7-2.7-4.6-5.4-4.4l-231.2,23.9c-2.7,0.3-4.6,2.7-4.4,5.4c0.3,2.7,2.7,4.6,5.4,4.4
						l231.2-23.9C785.2,1291.4,787.2,1288.9,786.9,1286.3z"/>
				</g>
				<linearGradient id="SVGID_6_" gradientUnits="userSpaceOnUse" x1="447.0636" y1="1289.3063" x2="512.9226" y2="1289.3063">
					<stop  offset="0" style="stop-color:#0F112E"/>
					<stop  offset="1" style="stop-color:#3F4158"/>
				</linearGradient>
				<path class="st27" d="M512.8,1273.2c-0.3-3.3-1.1-6.3-2.4-9.2c-5.3-13.3-18.9-21.9-33.7-20.3c-14.9,1.6-26.5,12.7-29,26.7
					c-0.6,3.1-0.7,6.3-0.4,9.6c1.9,18,38.9,54.9,38.9,54.9S514.7,1291.4,512.8,1273.2z M481.5,1291.7c-8.4,0.9-16-5.3-16.9-13.7
					c-0.3-3.4,0.4-6.7,2-9.4c2.4-4.1,6.7-7,11.7-7.6c5.1-0.6,9.9,1.4,13,5c2.1,2.3,3.6,5.3,4,8.7
					C496.2,1283.2,490.1,1290.8,481.5,1291.7z"/>
				<g>
					
						<rect x="403.1" y="647.2" transform="matrix(-0.9947 0.1028 -0.1028 -0.9947 1140.4401 1449.6108)" class="st28" width="259.6" height="214.1"/>
					
						<rect x="532.3" y="635.9" transform="matrix(0.9947 -0.1028 0.1028 0.9947 -72.9743 69.8846)" class="st29" width="218.5" height="214.1"/>
					<polygon class="st30" points="755.7,784.2 761.2,838.2 543.9,860.7 521.9,647.7 					"/>
					<linearGradient id="SVGID_7_" gradientUnits="userSpaceOnUse" x1="407.2726" y1="808.005" x2="450.2359" y2="808.005">
						<stop  offset="0" style="stop-color:#0F112E"/>
						<stop  offset="1" style="stop-color:#3F4158"/>
					</linearGradient>
					<polygon class="st31" points="409.3,820 450.2,815.8 445.4,804.6 448.2,796 407.3,800.2 					"/>
					<linearGradient id="SVGID_8_" gradientUnits="userSpaceOnUse" x1="398.4102" y1="722.2385" x2="441.3721" y2="722.2385">
						<stop  offset="0" style="stop-color:#0F112E"/>
						<stop  offset="1" style="stop-color:#3F4158"/>
					</linearGradient>
					<polygon class="st32" points="400.4,734.2 441.4,730 436.6,718.9 439.3,710.3 398.4,714.5 					"/>
					<linearGradient id="SVGID_9_" gradientUnits="userSpaceOnUse" x1="703.843" y1="690.673" x2="746.805" y2="690.673">
						<stop  offset="0" style="stop-color:#0F112E"/>
						<stop  offset="1" style="stop-color:#3F4158"/>
					</linearGradient>
					<polygon class="st33" points="746.8,698.4 705.9,702.7 708.3,690.8 703.8,682.9 744.8,678.7 					"/>
				</g>
			</g>
			<g>
				<g>
					<g>
						<path class="st20" d="M453.6,934.6c-1.3-0.9-2.7-1.6-4.3-2.3c-4-1.6-8.6-2.3-13.3-1.9c-11.2,1.1-20.2,9-23.3,19.2
							c-1.1,3.4-1.6,7.1-1.1,11c1.6,15,15.2,26,30.2,24.4c6.1-0.6,11.6-3.1,15.7-7.3c6.1-5.4,9.7-13.9,8.7-22.9
							C465.4,946.4,460.5,938.9,453.6,934.6z M454.8,976.3c-3.6,3.1-8.1,5.1-13.3,5.7c-13.3,1.3-25.3-8.3-26.6-21.6
							c-0.3-3,0-6,0.9-8.9c2.4-9.4,10.4-16.9,20.7-17.9c4-0.4,7.9,0.1,11.3,1.7c1.7,0.6,3.3,1.4,4.7,2.4c5.7,3.9,9.9,10.2,10.6,17.6
							C463.9,963.5,460.6,971.3,454.8,976.3z"/>
					</g>
					<linearGradient id="SVGID_10_" gradientUnits="userSpaceOnUse" x1="423.0608" y1="938.9239" x2="463.7541" y2="938.9239">
						<stop  offset="0" style="stop-color:#0F112E"/>
						<stop  offset="1" style="stop-color:#3F4158"/>
					</linearGradient>
					<polygon class="st34" points="423.1,945.4 440.5,972.4 463.8,905.4 438.4,952.7 					"/>
				</g>
				<g>
					<g>
						<path class="st20" d="M476.7,1055.8c-0.9-8.7-5.7-16-12.6-20.4c-1.3-0.9-2.9-1.6-4.3-2.3c-4.1-1.6-8.6-2.3-13.3-1.9
							c-15,1.6-26,15.2-24.5,30.2c1.6,15,15,26,30.2,24.4C467.2,1084.4,478.2,1070.8,476.7,1055.8z M451.8,1082.6
							c-13.3,1.4-25.2-8.3-26.6-21.6c-1.3-13.3,8.4-25.3,21.7-26.6c4-0.4,7.9,0.1,11.3,1.6c1.7,0.6,3.3,1.4,4.7,2.4
							c5.7,3.9,9.9,10.2,10.6,17.6C474.8,1069.3,465.1,1081.2,451.8,1082.6z"/>
					</g>
					<linearGradient id="SVGID_11_" gradientUnits="userSpaceOnUse" x1="433.4653" y1="1039.6069" x2="474.1614" y2="1039.6069">
						<stop  offset="0" style="stop-color:#0F112E"/>
						<stop  offset="1" style="stop-color:#3F4158"/>
					</linearGradient>
					<polygon class="st35" points="433.5,1046 450.9,1073.1 474.2,1006.1 448.8,1053.4 					"/>
				</g>
				<g>
					<g>
						<path class="st20" d="M487.1,1156.4c-1.6-15.2-15.2-26.2-30.2-24.6c-15,1.6-26,15.2-24.5,30.2c1.6,15.2,15,26,30.2,24.6
							C477.7,1185,488.7,1171.4,487.1,1156.4z M462.2,1183.3c-13.3,1.4-25.2-8.3-26.6-21.6c-1.3-13.3,8.3-25.3,21.6-26.6
							c13.3-1.4,25.3,8.3,26.6,21.6C485.2,1170,475.5,1181.9,462.2,1183.3z"/>
					</g>
				</g>
				<g>
					<linearGradient id="SVGID_12_" gradientUnits="userSpaceOnUse" x1="500.904" y1="927.8807" x2="769.1657" y2="927.8807">
						<stop  offset="0" style="stop-color:#0F112E"/>
						<stop  offset="1" style="stop-color:#3F4158"/>
					</linearGradient>
					<path class="st36" d="M764.9,919.8l-258.6,26.7c-2.6,0.3-5-1.6-5.3-4.3l-0.1-1.1c-0.3-2.6,1.7-5,4.3-5.3l258.6-26.7
						c2.6-0.3,5,1.7,5.3,4.3l0.1,1.1C769.4,917.2,767.5,919.5,764.9,919.8z"/>
					<linearGradient id="SVGID_13_" gradientUnits="userSpaceOnUse" x1="502.8504" y1="946.709" x2="771.112" y2="946.709">
						<stop  offset="0" style="stop-color:#0F112E"/>
						<stop  offset="1" style="stop-color:#3F4158"/>
					</linearGradient>
					<path class="st37" d="M766.8,938.6l-258.6,26.7c-2.6,0.3-5-1.7-5.3-4.3l-0.1-1.1c-0.3-2.6,1.7-5,4.3-5.3l258.6-26.7
						c2.6-0.3,5,1.7,5.3,4.3l0.1,1.1C771.4,936,769.4,938.4,766.8,938.6z"/>
				</g>
				<g>
					<linearGradient id="SVGID_14_" gradientUnits="userSpaceOnUse" x1="511.3278" y1="1028.7345" x2="779.5895" y2="1028.7345">
						<stop  offset="0" style="stop-color:#0F112E"/>
						<stop  offset="1" style="stop-color:#3F4158"/>
					</linearGradient>
					<path class="st38" d="M775.3,1020.7l-258.6,26.7c-2.6,0.3-5-1.7-5.3-4.3l-0.1-1.1c-0.3-2.6,1.6-5,4.3-5.3l258.6-26.7
						c2.6-0.3,5,1.7,5.3,4.3l0.1,1.1C779.8,1018,777.9,1020.4,775.3,1020.7z"/>
					<linearGradient id="SVGID_15_" gradientUnits="userSpaceOnUse" x1="513.2738" y1="1047.5626" x2="781.5349" y2="1047.5626">
						<stop  offset="0" style="stop-color:#0F112E"/>
						<stop  offset="1" style="stop-color:#3F4158"/>
					</linearGradient>
					<path class="st39" d="M777.2,1039.5l-258.6,26.7c-2.6,0.3-5-1.7-5.3-4.3l-0.1-1.1c-0.3-2.6,1.7-5,4.3-5.3l258.6-26.7
						c2.6-0.3,5,1.7,5.3,4.3l0.1,1.1C781.8,1036.9,779.9,1039.2,777.2,1039.5z"/>
				</g>
				<g>
					<linearGradient id="SVGID_16_" gradientUnits="userSpaceOnUse" x1="521.7513" y1="1129.5872" x2="790.012" y2="1129.5872">
						<stop  offset="0" style="stop-color:#0F112E"/>
						<stop  offset="1" style="stop-color:#3F4158"/>
					</linearGradient>
					<path class="st40" d="M785.7,1121.5l-258.6,26.7c-2.6,0.3-5-1.7-5.3-4.3l-0.1-1.1c-0.3-2.6,1.7-5,4.3-5.3l258.6-26.7
						c2.6-0.3,5,1.7,5.3,4.3l0.1,1.1C790.3,1118.9,788.3,1121.2,785.7,1121.5z"/>
					<linearGradient id="SVGID_17_" gradientUnits="userSpaceOnUse" x1="523.6965" y1="1148.4152" x2="791.9583" y2="1148.4152">
						<stop  offset="0" style="stop-color:#0F112E"/>
						<stop  offset="1" style="stop-color:#3F4158"/>
					</linearGradient>
					<path class="st41" d="M787.7,1140.3l-258.6,26.7c-2.6,0.3-5-1.6-5.3-4.3l-0.1-1.1c-0.3-2.6,1.7-5,4.3-5.3l258.6-26.7
						c2.6-0.3,5,1.7,5.3,4.3l0.1,1.1C792.2,1137.7,790.3,1140.1,787.7,1140.3z"/>
				</g>
			</g>
		</g>
		<g>
			<path class="st16" d="M831.6,574c0,0,70.2-62.4,116.2-27c46,35.4-103.6,149.4-103.6,149.4L831.6,574z"/>
			<path class="st16" d="M912.8,830l-81.6,45.1c-23.6,13.1-53.7,4.4-66.8-19.2l-13.3-24.1c-13.1-23.6-4.4-53.7,19.2-66.8l81.6-45.1
				c23.6-13.1,53.7-4.4,66.8,19.2l13.3,24.1C945.1,786.9,936.4,816.9,912.8,830z"/>
			<path class="st16" d="M926.9,966.6l-81.6,45.1c-23.6,13.1-53.7,4.4-66.8-19.2l-13.3-24.1c-13.1-23.6-4.4-53.7,19.2-66.8
				l81.6-45.1c23.6-13.1,53.7-4.4,66.8,19.2l13.3,24.1C959.2,923.5,950.5,953.6,926.9,966.6z"/>
			<path class="st16" d="M940.6,1099.6l-81.6,45.1c-23.6,13.1-53.7,4.4-66.8-19.2l-13.3-24.1c-13.1-23.6-4.4-53.7,19.2-66.8
				l81.6-45.1c23.6-13.1,53.7-4.4,66.8,19.2l13.3,24.1C972.9,1056.5,964.3,1086.5,940.6,1099.6z"/>
			<path class="st17" d="M755,799.6c12.7-9.5,29.9-21.5,45.7-29c10.9-5.2,24-1.5,30.2,8.9l17.9,29.9c6.2,10.4,3,23.8-7.3,30.2
				c-12.6,7.8-30.4,18-48.6,25.8c-12.7,5.5-27.6,0.4-34.4-11.7l-10.9-19.2C741.1,822.6,744.1,807.7,755,799.6z"/>
			<path class="st17" d="M769.5,940c12.7-9.5,29.9-21.5,45.7-29c10.9-5.2,24-1.5,30.2,8.9l17.9,29.9c6.2,10.4,3,23.8-7.3,30.2
				c-12.6,7.8-30.4,18-48.6,25.8c-12.7,5.5-27.6,0.4-34.4-11.7l-10.9-19.2C755.6,963,758.6,948.1,769.5,940z"/>
			<path class="st17" d="M785.7,1071.6c12.7-9.5,29.9-21.5,45.7-29c10.9-5.2,24-1.5,30.2,8.9l17.9,29.9c6.2,10.4,3,23.8-7.3,30.2
				c-12.6,7.8-30.4,18-48.6,25.8c-12.7,5.5-27.6,0.4-34.4-11.7l-10.9-19.2C771.8,1094.6,774.8,1079.8,785.7,1071.6z"/>
		</g>
	</g>
	<g>
		<polygon class="st42" points="1226.8,1507.6 1415.3,1537.3 1291.2,1450 1284.4,1477.3 1238.3,1485 		"/>
		<polygon class="st43" points="1415.3,1537.3 1259.3,1454 1105.3,1444 		"/>
		<polygon class="st43" points="1291.2,1450 1415.3,1537.3 1320.2,1402.3 		"/>
	</g>
	<g>
		<polygon class="st42" points="1014.7,364.1 868.3,288.6 999.3,291.1 990.1,313.6 1018.2,342.4 		"/>
		<polygon class="st43" points="868.3,288.6 1019.5,310.1 1131.8,381.7 		"/>
		<polygon class="st43" points="999.3,291.1 868.3,288.6 1003.4,243.1 		"/>
	</g>
</g>
</svg>