<?xml version="1.0" encoding="utf-8"?>
<!-- Generator: Adobe Illustrator 25.2.0, SVG Export Plug-In . SVG Version: 6.00 Build 0)  -->
<svg version="1.1" id="Layer_1" xmlns="http://www.w3.org/2000/svg" xmlns:xlink="http://www.w3.org/1999/xlink" x="0px" y="0px"
	 viewBox="0 0 2760.6 2000" style="enable-background:new 0 0 2760.6 2000;" xml:space="preserve">
<style type="text/css">
	.st0{fill:#ECECEC;}
	.st1{fill:#E1E1E1;}
	.st2{fill:#FAFAFA;}
	.st3{fill:#F5F5F5;}
	.st4{fill:#FF4F5B;}
	.st5{opacity:0.3;}
	.st6{fill:#1A2E35;}
	.st7{opacity:0.5;fill:#FFFFFF;}
	.st8{fill:#375A64;}
	.st9{opacity:0.6;}
	.st10{fill:#FFFFFF;}
	.st11{fill:#FF9A6C;}
	.st12{fill:#FFBF9D;}
	.st13{opacity:0.4;}
	.st14{opacity:0.2;}
</style>
<g>
	<g>
		<rect x="151.5" y="1237.5" class="st0" width="512.5" height="395.3"/>
		<g>
			<path class="st1" d="M535.6,1630c-0.6,0-1-88.1-1-196.8c0-108.7,0.5-196.8,1-196.8s1,88.1,1,196.8
				C536.6,1541.9,536.1,1630,535.6,1630z"/>
		</g>
		<rect x="581.2" y="1542.8" class="st2" width="39.3" height="44.4"/>
		<rect x="307.8" y="1238.5" class="st1" width="58.2" height="84.3"/>
		<rect x="307.8" y="1547.3" class="st1" width="58.2" height="84.3"/>
	</g>
</g>
<g>
	<g>
		<rect x="231.6" y="843.1" class="st0" width="512.5" height="395.3"/>
		<g>
			<path class="st1" d="M615.7,1235.6c-0.6,0-1-88.1-1-196.8c0-108.7,0.5-196.8,1-196.8s1,88.1,1,196.8
				C616.7,1147.5,616.3,1235.6,615.7,1235.6z"/>
		</g>
		<rect x="661.4" y="1148.5" class="st2" width="39.3" height="44.4"/>
		<rect x="388" y="844.2" class="st1" width="58.2" height="84.3"/>
		<rect x="388" y="1152.9" class="st1" width="58.2" height="84.3"/>
	</g>
</g>
<g>
	<g>
		<rect x="296.8" y="526.3" class="st3" width="412.1" height="317.8"/>
		<g>
			<path class="st1" d="M605.7,841.9c-0.5,0-0.8-70.8-0.8-158.2c0-87.4,0.4-158.2,0.8-158.2c0.5,0,0.8,70.8,0.8,158.2
				C606.5,771.1,606.1,841.9,605.7,841.9z"/>
		</g>
		<rect x="642.4" y="771.8" class="st2" width="31.6" height="35.7"/>
		<rect x="422.5" y="527.2" class="st1" width="46.8" height="67.8"/>
		<rect x="422.5" y="775.4" class="st1" width="46.8" height="67.8"/>
	</g>
</g>
<g>
	<g>
		<rect x="2161.4" y="747" class="st3" width="387.1" height="298.6"/>
		<g>
			<path class="st1" d="M2451.5,1043.4c-0.4,0-0.8-66.5-0.8-148.6c0-82.1,0.3-148.6,0.8-148.6c0.4,0,0.8,66.5,0.8,148.6
				C2452.2,976.9,2451.9,1043.4,2451.5,1043.4z"/>
		</g>
		<rect x="2485.9" y="977.6" class="st2" width="29.7" height="33.5"/>
		<rect x="2279.4" y="747.8" class="st1" width="44" height="63.7"/>
		<rect x="2279.4" y="981" class="st1" width="44" height="63.7"/>
	</g>
</g>
<g>
	<g>
		<rect x="2232" y="1388.8" class="st0" width="446.1" height="344.1"/>
		<g>
			<path class="st1" d="M2566.4,1730.4c-0.5,0-0.9-76.7-0.9-171.3c0-94.6,0.4-171.3,0.9-171.3c0.5,0,0.9,76.7,0.9,171.3
				C2567.3,1653.7,2566.9,1730.4,2566.4,1730.4z"/>
		</g>
		<rect x="2606.2" y="1654.6" class="st2" width="34.2" height="38.7"/>
		<rect x="2368.1" y="1389.7" class="st1" width="50.7" height="73.4"/>
		<rect x="2368.1" y="1658.4" class="st1" width="50.7" height="73.4"/>
	</g>
</g>
<g>
	<g>
		<rect x="2170.4" y="1045.6" class="st0" width="446.1" height="344.1"/>
		<g>
			<path class="st1" d="M2504.8,1387.2c-0.5,0-0.9-76.7-0.9-171.3c0-94.6,0.4-171.3,0.9-171.3c0.5,0,0.9,76.7,0.9,171.3
				C2505.7,1310.5,2505.3,1387.2,2504.8,1387.2z"/>
		</g>
		<rect x="2544.5" y="1311.3" class="st2" width="34.2" height="38.7"/>
		<rect x="2306.5" y="1046.4" class="st1" width="50.7" height="73.4"/>
		<rect x="2306.5" y="1315.2" class="st1" width="50.7" height="73.4"/>
	</g>
</g>
<g>
	<g>
		<rect x="1406.7" y="751.8" class="st3" width="387.1" height="298.6"/>
		<g>
			<path class="st1" d="M1696.8,1048.2c-0.4,0-0.8-66.5-0.8-148.6c0-82.1,0.3-148.6,0.8-148.6s0.8,66.5,0.8,148.6
				C1697.6,981.7,1697.2,1048.2,1696.8,1048.2z"/>
		</g>
		<rect x="1731.3" y="982.4" class="st2" width="29.7" height="33.5"/>
		<rect x="1524.8" y="752.6" class="st1" width="44" height="63.7"/>
		<rect x="1524.8" y="985.8" class="st1" width="44" height="63.7"/>
	</g>
</g>
<g>
	<g>
		<rect x="1441" y="454" class="st0" width="387.1" height="298.6"/>
		<g>
			<path class="st1" d="M1731.1,750.5c-0.4,0-0.8-66.5-0.8-148.6c0-82.1,0.3-148.6,0.8-148.6s0.8,66.5,0.8,148.6
				C1731.9,683.9,1731.5,750.5,1731.1,750.5z"/>
		</g>
		<rect x="1765.6" y="684.6" class="st2" width="29.7" height="33.5"/>
		<rect x="1559.1" y="454.8" class="st1" width="44" height="63.7"/>
		<rect x="1559.1" y="688" class="st1" width="44" height="63.7"/>
	</g>
</g>
<g>
	<g>
		<rect x="1536.6" y="246.8" class="st0" width="277" height="213.6"/>
		<g>
			<path class="st1" d="M1744.2,458.9c-0.3,0-0.5-47.6-0.5-106.3c0-58.7,0.2-106.4,0.5-106.4s0.5,47.6,0.5,106.4
				C1744.8,411.3,1744.5,458.9,1744.2,458.9z"/>
		</g>
		<rect x="1768.9" y="411.8" class="st2" width="21.2" height="24"/>
		<rect x="1621.1" y="247.4" class="st1" width="31.5" height="45.6"/>
		<rect x="1621.1" y="414.2" class="st1" width="31.5" height="45.6"/>
	</g>
</g>
<g>
	<g>
		<rect x="1477.4" y="1393.6" class="st0" width="446.1" height="344.1"/>
		<g>
			<path class="st1" d="M1811.7,1735.2c-0.5,0-0.9-76.7-0.9-171.3c0-94.6,0.4-171.3,0.9-171.3c0.5,0,0.9,76.7,0.9,171.3
				C1812.6,1658.5,1812.2,1735.2,1811.7,1735.2z"/>
		</g>
		<rect x="1851.5" y="1659.4" class="st2" width="34.2" height="38.7"/>
		<rect x="1613.5" y="1394.5" class="st1" width="50.7" height="73.4"/>
		<rect x="1613.5" y="1663.2" class="st1" width="50.7" height="73.4"/>
	</g>
</g>
<g>
	<g>
		<rect x="1415.7" y="1050.4" class="st0" width="446.1" height="344.1"/>
		<g>
			<path class="st1" d="M1750.1,1392c-0.5,0-0.9-76.7-0.9-171.3c0-94.6,0.4-171.3,0.9-171.3c0.5,0,0.9,76.7,0.9,171.3
				C1751,1315.3,1750.6,1392,1750.1,1392z"/>
		</g>
		<rect x="1789.8" y="1316.1" class="st2" width="34.2" height="38.7"/>
		<rect x="1551.8" y="1051.2" class="st1" width="50.7" height="73.4"/>
		<rect x="1551.8" y="1320" class="st1" width="50.7" height="73.4"/>
	</g>
</g>
<path class="st1" d="M891.6,1669.5v-36.7H140.4c-5.5,0-10,4.5-10,10v16.6c0,5.5,4.5,10,10,10h20.9v16.7c0,5.5-4.4,9.9-9.9,9.9h-11.2
	c-5.5,0-9.9,4.4-9.9,9.9v17c0,5.5,4.4,9.9,9.9,9.9h751.4v-36.7H716.5v-26.6H891.6z M341.4,1669.5h45v26.6h-45V1669.5z M311.4,1696.1
	h-45v-26.6h45V1696.1z M416.4,1669.5h45v26.6h-45V1669.5z M491.4,1669.5h45v26.6h-45V1669.5z M566.5,1669.5h45v26.6h-45V1669.5z
	 M191.3,1669.5h45v26.6h-45V1669.5z M686.5,1696.1h-45v-26.6h45V1696.1z"/>
<g>
	<g>
		<g>
			<rect x="459.7" y="904" class="st4" width="406.6" height="313.6"/>
			<rect x="459.7" y="904" class="st5" width="406.6" height="313.6"/>
			<g>
				<path class="st6" d="M764.4,1215.4c-0.4,0-0.7-69.9-0.7-156.1c0-86.2,0.3-156.1,0.7-156.1c0.4,0,0.7,69.9,0.7,156.1
					C765.1,1145.5,764.8,1215.4,764.4,1215.4z"/>
			</g>
			<rect x="800.7" y="1146.2" class="st3" width="31.2" height="35.2"/>
			<rect x="583.8" y="904.8" class="st6" width="46.2" height="66.9"/>
			<rect x="583.8" y="1149.7" class="st6" width="46.2" height="66.9"/>
		</g>
		<g>
			<path class="st6" d="M862.8,904c0,0-0.4,0-1,0.1c-0.7,0-1.8,0-3.1,0.1c-2.8,0-6.7,0.1-11.7,0.1c-10.3,0-25,0.1-43.2,0.2
				c-36.5,0-86.9,0.1-142.5,0.2c-55.6-0.1-106-0.1-142.5-0.2c-18.2-0.1-32.9-0.2-43.2-0.2c-5-0.1-9-0.1-11.7-0.1
				c-1.3,0-2.3,0-3.1-0.1c-0.7,0-1,0-1-0.1s0.4,0,1-0.1c0.7,0,1.8,0,3.1-0.1c2.8,0,6.7-0.1,11.7-0.1c10.3,0,25-0.1,43.2-0.2
				c36.5,0,86.9-0.1,142.5-0.2c55.6,0.1,106,0.1,142.5,0.2c18.2,0.1,32.9,0.2,43.2,0.2c5,0.1,9,0.1,11.7,0.1c1.3,0,2.3,0,3.1,0.1
				C862.4,903.9,862.8,904,862.8,904z"/>
		</g>
	</g>
	<g>
		<g>
			<rect x="798.2" y="903.6" class="st4" width="406.6" height="313.6"/>
			<g>
				<path class="st6" d="M1102.9,1215c-0.4,0-0.7-69.9-0.7-156.1c0-86.2,0.3-156.1,0.7-156.1c0.4,0,0.7,69.9,0.7,156.1
					C1103.5,1145.1,1103.3,1215,1102.9,1215z"/>
			</g>
			<rect x="1139.1" y="1145.8" class="st3" width="31.2" height="35.2"/>
			<rect x="922.2" y="904.4" class="st7" width="46.2" height="66.9"/>
			<rect x="922.2" y="1149.3" class="st7" width="46.2" height="66.9"/>
		</g>
		<g>
			<path class="st6" d="M1201.2,903.6c0,0-0.4,0-1,0.1c-0.7,0-1.8,0-3.1,0.1c-2.8,0-6.7,0.1-11.7,0.1c-10.3,0-25,0.1-43.2,0.2
				c-36.5,0-86.9,0.1-142.5,0.2c-55.6-0.1-106-0.1-142.5-0.2c-18.2-0.1-32.9-0.2-43.2-0.2c-5-0.1-9-0.1-11.7-0.1
				c-1.3,0-2.3,0-3.1-0.1c-0.7,0-1,0-1-0.1s0.4,0,1-0.1c0.7,0,1.8,0,3.1-0.1c2.8,0,6.7-0.1,11.7-0.1c10.3,0,25-0.1,43.2-0.2
				c36.5,0,86.9-0.1,142.5-0.2c55.6,0.1,106,0.1,142.5,0.2c18.2,0.1,32.9,0.2,43.2,0.2c5,0.1,9,0.1,11.7,0.1c1.3,0,2.3,0,3.1,0.1
				C1200.9,903.6,1201.2,903.6,1201.2,903.6z"/>
		</g>
	</g>
	<g>
		<g>
			<rect x="821" y="590" class="st4" width="406.6" height="313.6"/>
			<g>
				<path class="st6" d="M1125.7,901.4c-0.4,0-0.7-69.9-0.7-156.1c0-86.2,0.3-156.1,0.7-156.1c0.4,0,0.7,69.9,0.7,156.1
					C1126.4,831.5,1126.1,901.4,1125.7,901.4z"/>
			</g>
			<rect x="1161.9" y="832.2" class="st3" width="31.2" height="35.2"/>
			<rect x="945" y="590.8" class="st6" width="46.2" height="66.9"/>
			<rect x="945" y="835.7" class="st6" width="46.2" height="66.9"/>
		</g>
		<g>
			<path class="st6" d="M1224,590c0,0-0.4,0-1,0.1c-0.7,0-1.8,0-3.1,0.1c-2.8,0-6.7,0.1-11.7,0.1c-10.3,0-25,0.1-43.2,0.2
				c-36.5,0-86.9,0.1-142.5,0.2c-55.6-0.1-106-0.1-142.5-0.2c-18.2-0.1-32.9-0.2-43.2-0.2c-5-0.1-9-0.1-11.7-0.1
				c-1.3,0-2.3,0-3.1-0.1c-0.7,0-1,0-1-0.1s0.4,0,1-0.1c0.7,0,1.8,0,3.1-0.1c2.8,0,6.7-0.1,11.7-0.1c10.3,0,25-0.1,43.2-0.2
				c36.5,0,86.9-0.1,142.5-0.2c55.6,0.1,106,0.1,142.5,0.2c18.2,0.1,32.9,0.2,43.2,0.2c5,0.1,9,0.1,11.7,0.1c1.3,0,2.3,0,3.1,0.1
				C1223.7,590,1224,590,1224,590z"/>
		</g>
	</g>
	<path class="st8" d="M1184.1,1566.7V1530H432.9c-5.5,0-10,4.5-10,10v16.6c0,5.5,4.5,10,10,10h20.9v16.7c0,5.5-4.4,9.9-9.9,9.9
		h-11.2c-5.5,0-9.9,4.4-9.9,9.9v17c0,5.5,4.4,9.9,9.9,9.9h751.4v-36.7H1009v-26.6H1184.1z M633.9,1566.7h45v26.6h-45V1566.7z
		 M603.9,1593.3h-45v-26.6h45V1593.3z M708.9,1566.7h45v26.6h-45V1566.7z M783.9,1566.7h45v26.6h-45V1566.7z M859,1566.7h45v26.6
		h-45V1566.7z M483.8,1566.7h45v26.6h-45V1566.7z M979,1593.3h-45v-26.6h45V1593.3z"/>
	<g>
		<path class="st6" d="M1789.6,934.1c5.2-5.3,5-13.8-0.4-18.9l-126.7-119.8c-5.3-4.9-13.5-4.9-18.7,0.1l0,0
			c-5.5,5.2-5.7,13.8-0.5,19.3l50.5,53.2l-26.3,25.3l-13.7-10.8L1558.3,992l-51.1-49.1l-61.6,181.1l12.2,246h141.7l-9.9-292.2
			l94.9-135.5l0.7-32.2l27.2-27.9l58.9,52.6C1776.6,939.5,1784.7,939.2,1789.6,934.1L1789.6,934.1z"/>
		<g>
			<path class="st6" d="M1407.4,1415.4c-0.6,0-1-224.3-1-501c0-276.7,0.5-501,1-501s1,224.3,1,501
				C1408.4,1191,1407.9,1415.4,1407.4,1415.4z"/>
		</g>
		<path class="st8" d="M1724.6,1352.2l86.2-239.3l-32.4-13.1v-46.4l235.6-3.7c11.5-0.2,21-8.9,22.3-20.3l34.6-307.6
			c1.6-14.2,13.7-25,28-25l0,0c16,0,28.8,13.3,28.1,29.3l-13,316.9l123,0.7l4.2,57.8l-363.8,14.2l-94.9,232.9L1724.6,1352.2z"/>
		<path class="st6" d="M1778.8,1346.3l-306.2,2.4v20.4l126.8-1.6l202.1-1.5l489.9-69.2l-55.5-211.4h-331.6c-12,0-23.1,5.6-29.3,14.9
			L1778.8,1346.3z"/>
		<path class="st8" d="M1632,462.5l-222.6,710l1.6,197.5h70.8v-51.2v-145.1l182.4-709.3l494.2-2.8l94.5,738.8h55.8l-115-733.7
			c-3.7-19.8-21-34.2-41.2-34.2h-480.3C1653.7,432.6,1637.3,444.7,1632,462.5z"/>
		<path class="st4" d="M1369.4,1598v-189.7l41.5-38.4l390.1-5l70.4-57.1c13.1-10.6,29.2-16.9,46-17.8l75.1-4.2
			c0,0,33.7-23.2,66.2-46.3c41.3-29.3,90.7-45,141.3-45h216.3c16.4,0,29.6,13.3,29.6,29.6v374H1369.4z"/>
		<rect x="1365.6" y="1536.9" class="st6" width="1080.5" height="62.4"/>
		<g>
			<g>
				<g>
					<g>
						<g>
							<g>
								<g>
									<path class="st6" d="M1421.5,1597.3c-1.1,73.8,57.9,134.5,131.7,135.5c73.8,1.1,134.5-57.9,135.5-131.7
										c1.1-73.8-57.9-134.5-131.7-135.5C1483.3,1464.6,1422.6,1523.6,1421.5,1597.3z"/>
								</g>
							</g>
						</g>
					</g>
				</g>
			</g>
			<g>
				<g>
					<g>
						<g>
							<g>
								<g>
									<path class="st6" d="M1421.6,1597c0,0.1,0,0.2,0,0.3c-1.1,73.8,57.9,134.5,131.7,135.5c73.8,1.1,134.5-57.9,135.5-131.7
										c0-0.1,0-0.2,0-0.3L1421.6,1597z"/>
								</g>
							</g>
						</g>
					</g>
				</g>
			</g>
			<g>
				<g>
					<g>
						<g>
							<g>
								<g>
									<path class="st2" d="M1461.3,1597.9c-0.7,51.8,40.6,94.4,92.4,95.1c51.8,0.7,94.4-40.6,95.1-92.4
										c0.7-51.8-40.6-94.4-92.4-95.1C1504.7,1504.7,1462.1,1546.1,1461.3,1597.9z"/>
								</g>
							</g>
						</g>
					</g>
				</g>
			</g>
			<g>
				<g>
					<g>
						<g>
							<g>
								<g>
									<path class="st1" d="M1556.5,1505.5c-51.8-0.7-94.4,40.6-95.1,92.4l187.6,2.7C1649.7,1548.8,1608.3,1506.2,1556.5,1505.5z"
										/>
								</g>
							</g>
						</g>
					</g>
				</g>
			</g>
			<g>
				<g>
					<g>
						<g>
							<g>
								<g>
									<path class="st6" d="M1498,1598.5c-0.5,31.6,24.8,57.5,56.3,58c31.6,0.5,57.5-24.8,58-56.3c0.5-31.6-24.8-57.5-56.3-58
										C1524.4,1541.7,1498.5,1566.9,1498,1598.5z"/>
								</g>
							</g>
						</g>
					</g>
				</g>
			</g>
		</g>
		<g>
			<g>
				<g>
					<g>
						<g>
							<g>
								<g>
									<path class="st6" d="M2075.4,1597.3c-1.1,73.8,57.9,134.5,131.7,135.5c73.8,1.1,134.5-57.9,135.5-131.7
										c1.1-73.8-57.9-134.5-131.7-135.5C2137.1,1464.6,2076.4,1523.6,2075.4,1597.3z"/>
								</g>
							</g>
						</g>
					</g>
				</g>
			</g>
			<g>
				<g>
					<g>
						<g>
							<g>
								<g>
									<path class="st6" d="M2075.4,1597c0,0.1,0,0.2,0,0.3c-1.1,73.8,57.9,134.5,131.7,135.5c73.8,1.1,134.5-57.9,135.5-131.7
										c0-0.1,0-0.2,0-0.3L2075.4,1597z"/>
								</g>
							</g>
						</g>
					</g>
				</g>
			</g>
			<g>
				<g>
					<g>
						<g>
							<g>
								<g>
									<path class="st2" d="M2115.2,1597.9c-0.7,51.8,40.6,94.4,92.4,95.1c51.8,0.7,94.4-40.6,95.1-92.4
										c0.7-51.8-40.6-94.4-92.4-95.1C2158.5,1504.7,2115.9,1546.1,2115.2,1597.9z"/>
								</g>
							</g>
						</g>
					</g>
				</g>
			</g>
			<g>
				<g>
					<g>
						<g>
							<g>
								<g>
									<path class="st1" d="M2210.3,1505.5c-51.8-0.7-94.4,40.6-95.1,92.4l187.6,2.7C2303.5,1548.8,2262.1,1506.2,2210.3,1505.5z"
										/>
								</g>
							</g>
						</g>
					</g>
				</g>
			</g>
			<g>
				<g>
					<g>
						<g>
							<g>
								<g>
									<path class="st6" d="M2151.8,1598.5c-0.5,31.6,24.8,57.5,56.3,58c31.6,0.5,57.5-24.8,58-56.3c0.5-31.6-24.8-57.5-56.3-58
										C2178.2,1541.7,2152.3,1566.9,2151.8,1598.5z"/>
								</g>
							</g>
						</g>
					</g>
				</g>
			</g>
		</g>
		<g>
			<path class="st6" d="M2382.8,1504.2c0,0-0.3-0.3-0.6-0.9c-0.4-0.7-1-1.7-1.7-2.8c-0.8-1.3-1.7-2.8-2.7-4.6
				c-1-1.8-2.3-3.9-3.9-6.1c-5.9-9.2-15.8-21.8-30.1-35.1c-3.5-3.5-7.6-6.5-11.7-10c-4.2-3.3-8.8-6.4-13.5-9.8
				c-5-2.9-9.8-6.4-15.3-9.1c-2.7-1.4-5.4-2.9-8.3-4.3c-2.9-1.3-5.8-2.6-8.8-3.9c-12-4.9-24.8-9.4-38.7-11.8
				c-13.8-2.6-28.4-3.9-43.3-3.3c-14.9,0.8-29.3,3.5-42.8,7.4c-13.6,3.8-26,9.5-37.4,15.5c-2.8,1.6-5.6,3.2-8.3,4.7
				c-2.7,1.6-5.2,3.4-7.8,5.1c-5.2,3.2-9.8,7.1-14.4,10.5c-4.4,3.7-8.7,7.3-12.5,11c-3.7,3.8-7.6,7.2-10.7,11
				c-13,14.6-21.6,28.1-26.6,37.8c-1.4,2.4-2.4,4.6-3.3,6.5c-0.9,1.9-1.6,3.5-2.3,4.8c-0.6,1.2-1.1,2.2-1.4,3c-0.3,0.7-0.5,1-0.6,1
				c0,0,0.1-0.4,0.4-1.1c0.3-0.8,0.7-1.8,1.3-3c0.6-1.4,1.3-3,2.1-4.9c0.8-2,1.8-4.2,3.2-6.6c4.8-9.9,13.3-23.6,26.3-38.4
				c3.1-3.9,6.9-7.3,10.7-11.2c3.8-3.8,8.2-7.4,12.5-11.2c4.7-3.4,9.2-7.4,14.5-10.7c2.6-1.7,5.2-3.5,7.9-5.2
				c2.8-1.6,5.6-3.2,8.4-4.8c11.5-6.1,24-11.9,37.7-15.7c13.6-4,28.2-6.7,43.3-7.5c15.1-0.6,29.8,0.7,43.8,3.4
				c14,2.5,27,7.1,39.1,12.1c3,1.3,5.9,2.7,8.8,4c2.9,1.4,5.6,2.9,8.3,4.4c5.6,2.7,10.5,6.2,15.4,9.2c4.7,3.4,9.4,6.5,13.5,9.9
				c4.1,3.5,8.2,6.6,11.7,10.1c14.3,13.6,24,26.4,29.8,35.8c1.6,2.3,2.8,4.4,3.8,6.3c1,1.8,1.9,3.4,2.6,4.7c0.6,1.2,1.1,2.2,1.5,2.9
				C2382.7,1503.8,2382.9,1504.2,2382.8,1504.2z"/>
		</g>
		<g>
			<path class="st6" d="M1729.6,1528.8c0,0-0.2-0.3-0.5-1.1c-0.3-0.8-0.8-1.9-1.3-3.2c-0.6-1.4-1.3-3.2-2.1-5.2c-0.9-2-2-4.4-3.1-7
				c-4.9-10.4-12.6-25.3-25.3-41.5c-12.6-16-30.2-34-54.4-46.3c-12-6.2-25.8-10.4-40.2-13.4c-14.4-3-29.8-4.4-45.4-4.1
				c-15.6,0.3-30.9,2.2-45.2,5.8c-14.3,3.6-27.6,8.9-39.5,15.4c-23.9,12.9-42.8,29-56.1,44.6c-13.5,15.5-22,30-27.5,40
				c-2.7,5.1-4.8,9-6.1,11.8c-0.6,1.3-1.2,2.3-1.6,3.1c-0.4,0.7-0.6,1-0.6,1c0,0,0.1-0.4,0.4-1.1c0.4-0.8,0.8-1.9,1.4-3.2
				c1.2-2.8,3.1-6.8,5.7-12c5.3-10.2,13.7-24.8,27.1-40.6c13.3-15.8,32.2-32.2,56.3-45.3c12-6.6,25.5-12,39.9-15.7
				c14.5-3.7,29.9-5.6,45.7-5.9c15.8-0.3,31.2,1.2,45.8,4.2c14.6,3.1,28.4,7.4,40.6,13.7c24.5,12.6,42.1,30.9,54.7,47.1
				c12.6,16.5,20.2,31.5,24.9,42c1.1,2.6,2.1,5,3,7.1c0.7,2.1,1.4,3.8,1.9,5.3c0.5,1.3,0.8,2.4,1.1,3.3
				C1729.5,1528.4,1729.6,1528.8,1729.6,1528.8z"/>
		</g>
		<rect x="776.8" y="1530" class="st6" width="592.3" height="69.3"/>
		<path class="st8" d="M1353.1,1559.4c0,9.5-7.7,17.3-17.3,17.3c-9.5,0-17.3-7.7-17.3-17.3c0-9.5,7.7-17.3,17.3-17.3
			C1345.4,1542.1,1353.1,1549.9,1353.1,1559.4z"/>
		<rect x="1312" y="427.2" class="st8" width="49.4" height="982.2"/>
		<g>
			<path class="st6" d="M2064.5,1465.3c0,0.6-83.3,1-186.1,1c-102.8,0-186.1-0.5-186.1-1s83.3-1,186.1-1
				C1981.2,1464.3,2064.5,1464.8,2064.5,1465.3z"/>
		</g>
		<g>
			<path class="st6" d="M1988.7,1450.6c-0.6,0-1-36.3-1-81c0-44.7,0.5-81,1-81c0.6,0,1,36.2,1,81
				C1989.7,1414.3,1989.2,1450.6,1988.7,1450.6z"/>
		</g>
		<rect x="1306.6" y="404.6" class="st6" width="100.9" height="45"/>
		<rect x="1304.2" y="1401.3" class="st6" width="65" height="129.6"/>
	</g>
	<g>
		<g>
			<rect x="811.7" y="1217.3" class="st4" width="406.6" height="313.6"/>
			<rect x="811.7" y="1217.3" class="st5" width="406.6" height="313.6"/>
			<g>
				<path class="st6" d="M1116.4,1528.7c-0.4,0-0.7-69.9-0.7-156.1c0-86.2,0.3-156.1,0.7-156.1s0.7,69.9,0.7,156.1
					C1117.1,1458.8,1116.8,1528.7,1116.4,1528.7z"/>
			</g>
			<rect x="1152.7" y="1459.5" class="st3" width="31.2" height="35.2"/>
			<rect x="935.8" y="1218.1" class="st6" width="46.2" height="66.9"/>
			<rect x="935.8" y="1463.1" class="st6" width="46.2" height="66.9"/>
		</g>
		<g>
			<path class="st6" d="M1214.8,1217.3c0,0-0.4,0-1,0.1c-0.8,0-1.8,0-3.1,0.1c-2.8,0-6.7,0.1-11.7,0.1c-10.3,0-25,0.1-43.2,0.2
				c-36.5,0-86.9,0.1-142.5,0.2c-55.6-0.1-106-0.1-142.5-0.2c-18.2-0.1-32.9-0.2-43.2-0.2c-5-0.1-9-0.1-11.7-0.1
				c-1.3,0-2.3,0-3.1-0.1c-0.7,0-1,0-1-0.1c0,0,0.4,0,1-0.1c0.8,0,1.8,0,3.1-0.1c2.8,0,6.7-0.1,11.7-0.1c10.3,0,25-0.1,43.2-0.2
				c36.5,0,86.9-0.1,142.5-0.2c55.6,0.1,106,0.1,142.5,0.2c18.2,0.1,32.9,0.2,43.2,0.2c5,0.1,9,0.1,11.7,0.1c1.3,0,2.3,0,3.1,0.1
				C1214.4,1217.3,1214.8,1217.3,1214.8,1217.3z"/>
		</g>
	</g>
	<g>
		<g>
			<rect x="385.3" y="1217.3" class="st4" width="406.6" height="313.6"/>
			<g>
				<path class="st6" d="M690,1528.7c-0.4,0-0.7-69.9-0.7-156.1c0-86.2,0.3-156.1,0.7-156.1c0.4,0,0.7,69.9,0.7,156.1
					C690.7,1458.8,690.4,1528.7,690,1528.7z"/>
			</g>
			<rect x="726.2" y="1459.5" class="st3" width="31.2" height="35.2"/>
			<rect x="509.3" y="1218.1" class="st7" width="46.2" height="66.9"/>
			<rect x="509.3" y="1463.1" class="st7" width="46.2" height="66.9"/>
		</g>
		<g>
			<path class="st6" d="M788.3,1217.3c0,0-0.4,0-1,0.1c-0.7,0-1.8,0-3.1,0.1c-2.8,0-6.7,0.1-11.7,0.1c-10.3,0-25,0.1-43.2,0.2
				c-36.5,0-86.9,0.1-142.5,0.2c-55.6-0.1-106-0.1-142.5-0.2c-18.2-0.1-32.9-0.2-43.2-0.2c-5-0.1-9-0.1-11.7-0.1
				c-1.3,0-2.3,0-3.1-0.1c-0.7,0-1,0-1-0.1c0,0,0.4,0,1-0.1c0.7,0,1.8,0,3.1-0.1c2.8,0,6.7-0.1,11.7-0.1c10.3,0,25-0.1,43.2-0.2
				c36.5,0,86.9-0.1,142.5-0.2c55.6,0.1,106,0.1,142.5,0.2c18.2,0.1,32.9,0.2,43.2,0.2c5,0.1,9,0.1,11.7,0.1c1.3,0,2.3,0,3.1,0.1
				C788,1217.3,788.3,1217.3,788.3,1217.3z"/>
		</g>
	</g>
	<g>
		<path class="st4" d="M2463.2,1302.6c21,5,38.5,26.3,38.2,47.9c-0.3,21.6-17.1,41.8-38.2,46.1"/>
		<g class="st9">
			<path class="st10" d="M2463.2,1302.6c21,5,38.5,26.3,38.2,47.9c-0.3,21.6-17.1,41.8-38.2,46.1"/>
		</g>
		<g>
			<rect x="2446.1" y="1290.4" class="st4" width="17.9" height="118.7"/>
			<rect x="2446.1" y="1290.4" class="st5" width="17.9" height="118.7"/>
		</g>
	</g>
</g>
<path class="st11" d="M1691.6,771.3"/>
<g>
	<g>
		<path class="st12" d="M1611.8,814.9c-4.5-3.4-5.7-9.7-2.9-14.6c3-5.3,6.5-11.4,8.1-14c3.5-5.6,5.8-10.3,5.3-9.5
			c0,0,1.5-6.7,8.2-7.8c6.7-1.1,14.3,0.4,14.3,0.4l48.8,10.5l22.7,11.3l-22.1,19.5l-12.3-3.7c-3.7,3.2-18.2,4.9-23.1,4.3
			c-6.3-0.8-18.9-4.9-26-3.5l-6.9,0.9l3.3,2.8c0,0,10.6-0.8,17.3,3.5c4,2.6,2.3,8.8-2.4,9.1l-16,1c0,0-10.6-5.2-12.5-7.1
			C1615.1,817.5,1613.6,816.3,1611.8,814.9z"/>
		<g>
			<path class="st11" d="M1626,808.8c0,0.1-0.9,0.6-2.6,1.1c-1.8,0.4-4.6,1-7.9-0.1c-1.6-0.6-3.4-1.6-4.7-3.2c-1.2-1.8-2-4-1.5-6.5
				c0.3-1.2,1-2.4,2-3.3c1.1-0.9,2.3-1.2,3.4-1.7c2.3-0.8,4.7-1.4,7.1-1.9c4.9-1,9.6-1.5,13.9-1.8c2.2-0.1,4.2-0.2,6.1-0.2
				c0.5,0,1,0,1.5,0.1c0.3,0,0.8,0,1.2,0c0.8-0.1,1.6-0.3,2.4-0.5c6.2-1.6,10-3,10.1-2.7c0.1,0.2-3.5,2.1-9.7,4.1
				c-0.8,0.2-1.6,0.5-2.6,0.6c-0.5,0.1-1,0.1-1.5,0.1c-0.4,0-0.8,0-1.3,0c-1.9,0.1-3.9,0.2-6,0.4c-4.2,0.4-8.9,1-13.7,1.9
				c-2.4,0.5-4.7,1-6.9,1.7c-2.3,0.7-3.8,1.7-4.2,3.5c-0.4,1.7,0.1,3.7,1,5.1c1,1.4,2.4,2.3,3.8,2.9c2.8,1.1,5.5,0.9,7.2,0.7
				C1625,808.9,1626,808.7,1626,808.8z"/>
		</g>
		<g>
			<path class="st11" d="M1632.1,783.4c0.5-0.1,1.5,2.4,0.5,5.5c-0.9,3.1-3.2,4.7-3.5,4.3c-0.4-0.4,0.8-2.3,1.6-4.9
				C1631.5,785.8,1631.5,783.5,1632.1,783.4z"/>
		</g>
		<g>
			<path class="st11" d="M1639.7,786.5c0.5,0.1,0.7,2-0.6,3.7c-1.3,1.7-3.2,2.1-3.4,1.6c-0.2-0.5,0.8-1.5,1.8-2.8
				C1638.5,787.7,1639.2,786.4,1639.7,786.5z"/>
		</g>
	</g>
	<path class="st12" d="M1831.9,775.6c6.7-2.8-38.6,43.7-38.6,43.7l-83.7-31.2l-29.5,18.1l90,63.3c10.5,7.4,23.5,10.2,36.2,7.8
		c9.6-1.8,18.4-6.6,25.2-13.6l53.1-61.4L1831.9,775.6z"/>
	<g>
		<g>
			<path class="st4" d="M1881,589c-11.7-2.2-19-5.8-19.3-10.3c-0.6-9.3,28.8-18.8,65.8-21.3c37-2.5,67.5,3,68.1,12.3
				c0.3,4.5-6.4,9-17.5,12.8"/>
		</g>
		<g class="st13">
			<path d="M1887.4,588.3c-10.3-2-17.1-5.2-17.1-9.2c0-11.1,25.6-16.7,58.3-18.9c32.8-2.2,59.8,2.6,60.4,10.9c0.3,4-5.7,8-15.5,11.3
				"/>
		</g>
		<g>
			<path class="st4" d="M1870.6,573.7c0,0,6.9-40,7.6-42c0.7-2,10.7-20,37.2-26.7l22.2-1.5c0,0,32.2,8,38.4,15.3
				c6.3,7.3,11.2,44.3,11.2,44.3l-63.1-9.3l-41.6,13.2L1870.6,573.7z"/>
		</g>
		<g>
			<path class="st4" d="M1922.4,500c-0.8,0.1-9.5,0.6-9.5,0.6s-3.1,3.3-3.1,10.3c0,6.9,1.7,54.3,1.7,54.3l27.7-3.1l-4.8-58.3
				l9.6,1.5l-0.5-3.3l-2.7-2.8L1922.4,500z"/>
		</g>
		<g>
			<g>
				<g>
					<g>
						<g>
							<g>
								<g>
									<g>
										<g>
											<g>
												<g>
													<g>
														<g>
															<g>
																<path class="st12" d="M1980.3,718.1l-67.9,1.5c-0.9-7.2-0.2-51.8-0.2-51.8s-25.9-2.2-27.9-27.8
																	c-2-25.6-1.6-76.9-1.6-76.9l0.3-2.3c28.8-14.7,63-18.2,89.9-0.3l4,2.7L1980.3,718.1z"/>
															</g>
														</g>
													</g>
												</g>
											</g>
										</g>
										<g>
											<g>
												<g>
													<g>
														<g>
															<g>
																<path class="st11" d="M1912.2,667.8c0,0,16.2-0.1,32.6-12.1c0,0-7,19.3-32.7,18.8L1912.2,667.8z"/>
															</g>
														</g>
													</g>
												</g>
											</g>
										</g>
									</g>
								</g>
							</g>
							<g>
								<g>
									<g>
										<g>
											<g>
												<g>
													<g>
														<path class="st12" d="M1975.4,589.9c0.4-0.2,17.2-6.4,17.9,11.1c0.6,17.5-17.1,14.5-17.1,14
															C1976.1,614.6,1975.4,589.9,1975.4,589.9z"/>
													</g>
												</g>
											</g>
										</g>
									</g>
								</g>
								<g>
									<g>
										<g>
											<g>
												<g>
													<g>
														<g>
															<path class="st11" d="M1981.3,608.2c0.1-0.1,0.3,0.2,0.8,0.4c0.5,0.2,1.4,0.3,2.3,0c1.8-0.7,3.3-3.7,3.3-6.9
																c0-1.6-0.4-3.1-1-4.3c-0.6-1.3-1.4-2.1-2.4-2.3c-0.9-0.2-1.6,0.4-1.8,0.9c-0.2,0.5-0.1,0.8-0.2,0.9
																c0,0-0.4-0.3-0.3-1c0.1-0.4,0.3-0.8,0.7-1.1c0.4-0.4,1-0.6,1.7-0.5c1.4,0,2.6,1.2,3.3,2.6c0.7,1.4,1.2,3.1,1.2,4.8
																c0,3.5-1.7,6.9-4.2,7.7c-1.2,0.4-2.3,0-2.8-0.4C1981.3,608.7,1981.2,608.3,1981.3,608.2z"/>
														</g>
													</g>
												</g>
											</g>
										</g>
									</g>
								</g>
							</g>
							<g>
								<g>
									<g>
										<g>
											<g>
												<g>
													<g>
														<g>
															<g>
																<g>
																	<g>
																		<g>
																			<path class="st6" d="M1891.2,594.6c0.1,1.9,1.8,3.5,3.8,3.4c2,0,3.6-1.6,3.5-3.5c-0.1-1.9-1.8-3.5-3.8-3.5
																				C1892.7,591.1,1891.1,592.7,1891.2,594.6z"/>
																		</g>
																	</g>
																</g>
															</g>
														</g>
													</g>
													<g>
														<g>
															<g>
																<g>
																	<g>
																		<g>
																			<g>
																				<path class="st6" d="M1890,591c0.5,0.4,3.1-1.8,7-2c3.9-0.3,6.9,1.5,7.3,1c0.2-0.2-0.3-1.1-1.6-1.9
																					c-1.3-0.8-3.5-1.6-5.9-1.4c-2.4,0.2-4.4,1.2-5.6,2.2C1890.1,589.9,1889.7,590.8,1890,591z"/>
																			</g>
																		</g>
																	</g>
																</g>
															</g>
														</g>
													</g>
												</g>
												<g>
													<g>
														<g>
															<g>
																<g>
																	<g>
																		<g>
																			<path class="st6" d="M1929.9,593.2c0.1,1.9,1.8,3.5,3.8,3.4c2,0,3.6-1.6,3.5-3.5c-0.1-1.9-1.8-3.5-3.8-3.4
																				C1931.4,589.6,1929.8,591.2,1929.9,593.2z"/>
																		</g>
																	</g>
																</g>
															</g>
														</g>
													</g>
													<g>
														<g>
															<g>
																<g>
																	<g>
																		<g>
																			<g>
																				<path class="st6" d="M1928.7,589.1c0.5,0.4,3.1-1.8,7-2c3.9-0.3,6.9,1.5,7.3,1c0.2-0.2-0.3-1.1-1.6-1.9
																					c-1.3-0.8-3.5-1.6-5.9-1.4c-2.4,0.2-4.4,1.2-5.6,2.2C1928.8,588,1928.4,588.9,1928.7,589.1z"/>
																			</g>
																		</g>
																	</g>
																</g>
															</g>
														</g>
													</g>
												</g>
												<g>
													<g>
														<g>
															<g>
																<g>
																	<g>
																		<g>
																			<path class="st6" d="M1916.4,619.2c0-0.2-2.5-0.5-6.5-0.7c-1,0-2-0.2-2.2-0.8c-0.3-0.7,0.1-1.8,0.5-3
																				c0.8-2.5,1.6-5.1,2.5-7.8c3.4-11.2,5.8-20.3,5.3-20.4c-0.5-0.1-3.6,8.8-6.9,20c-0.8,2.8-1.6,5.4-2.3,7.9
																				c-0.3,1.2-0.9,2.5-0.3,4c0.3,0.7,1.1,1.2,1.8,1.4c0.7,0.2,1.2,0.1,1.7,0.1
																				C1913.9,619.6,1916.4,619.5,1916.4,619.2z"/>
																		</g>
																	</g>
																</g>
															</g>
														</g>
													</g>
												</g>
												<g>
													<g>
														<g>
															<g>
																<g>
																	<g>
																		<g>
																			<path class="st6" d="M1928.1,621.2c-0.6,0-0.4,4.3-3.8,7.6c-3.4,3.3-8,3.1-8,3.7c0,0.3,1.1,0.8,3,0.7
																				c1.9-0.1,4.6-0.9,6.7-2.9c2.1-2,2.9-4.6,2.9-6.3C1929,622.2,1928.4,621.1,1928.1,621.2z"/>
																		</g>
																	</g>
																</g>
															</g>
														</g>
													</g>
												</g>
											</g>
										</g>
									</g>
									<g>
										<g>
											<g>
												<g>
													<g>
														<g>
															<path class="st6" d="M1926.6,573.8c0.5,1,4.4,0.3,9,0.5c4.7,0.1,8.5,1.2,9,0.2c0.2-0.5-0.5-1.4-2-2.4
																c-1.6-0.9-4-1.8-6.8-1.9c-2.8-0.1-5.3,0.5-6.9,1.3C1927.2,572.4,1926.4,573.3,1926.6,573.8z"/>
														</g>
													</g>
												</g>
											</g>
										</g>
									</g>
									<g>
										<g>
											<g>
												<g>
													<g>
														<g>
															<path class="st6" d="M1890.7,579.5c0.8,0.8,3.4-0.3,6.7-0.5c3.2-0.4,6.1,0.2,6.6-0.8c0.2-0.5-0.2-1.3-1.5-2.1
																c-1.2-0.8-3.3-1.3-5.5-1.1c-2.2,0.2-4.1,1.2-5.2,2.2C1890.6,578.2,1890.3,579.1,1890.7,579.5z"/>
														</g>
													</g>
												</g>
											</g>
										</g>
									</g>
								</g>
							</g>
						</g>
					</g>
				</g>
			</g>
		</g>
		<g>
			<path class="st6" d="M1977.2,573.2c-0.2,7.1,0.5,14.3,0.3,21.5c-0.1,2.7-1.1,5.3-2,7.8c-1,2.5-3,4.7-5.6,5.2
				c-3.1,0.6-6.2-1.5-7.7-4.2c-1.6-2.7-1.9-5.9-2.2-9.1c-0.2-3.1-0.4-6.3-1.6-9.2c-1.4-3.2-3.9-5.8-5.9-8.7c-2-2.9-3.5-6.6-2.3-9.9
				C1959.6,565.9,1968.6,569.1,1977.2,573.2"/>
		</g>
		<g>
			<path class="st8" d="M1882.7,576.4l-0.4-14.4l41-15.3l53.3,11.8l1,15.4C1977.5,574,1933.6,554.8,1882.7,576.4z"/>
		</g>
		<g>
			<path class="st4" d="M1884.7,558.9l-1.7,1.9l-14.4,10.5c0,0,28.4-10.1,58.3-11.8c29.9-1.7,64.8,6.1,64.8,6.1l-20.6-10.6l0,0
				c-6.8-6.3-15.8-9.6-25-9.2l-37.6,1.8C1899.3,548,1890.8,552.1,1884.7,558.9z"/>
		</g>
		<g>
			<g>
				<path class="st6" d="M1910.8,546.4c0.4,0,0.7-9,0.5-20c-0.1-11.1-0.6-20-1-20c-0.4,0-0.7,9-0.5,20
					C1909.9,537.5,1910.4,546.4,1910.8,546.4z"/>
			</g>
		</g>
		<g>
			<g>
				<path class="st6" d="M1943.9,505.2c0-0.2-2.5-0.9-7.2-1.6c-1.4,0.1-2.8,1.3-2.8,3c0.1,1.4,0.2,2.8,0.3,4.2
					c0.2,3,0.5,6.2,0.7,9.5c0.6,6.8,1.2,12.9,1.7,17.3c0.5,4.4,0.9,7.2,1.2,7.1c0.2,0,0.2-2.8-0.1-7.2c-0.2-4.4-0.7-10.6-1.2-17.3
					c-0.3-3.3-0.6-6.5-0.9-9.5c-0.1-1.4-0.3-2.8-0.4-4.1c0-1,0.8-1.8,1.6-1.9C1941,505.1,1943.9,505.5,1943.9,505.2z"/>
			</g>
		</g>
		<g>
			<g>
				<path class="st6" d="M1867.6,571.1c0.1,0.1,1.7-0.8,4.8-2.2c1.6-0.7,3.5-1.5,5.7-2.7c2.1-1.2,4.6-2.9,6.3-5.6
					c1.8-2.7,2-6.4,4-9.1c1.9-2.9,6-3.2,10-3.6c8-0.9,16.9-1.6,26.3-1.9c9.3-0.4,18.2-0.5,26.3-0.4c4,0,7.9,0.5,10.5,2.7
					c1.3,1.1,2.4,2.5,3.4,3.8c0.5,0.6,1.1,1.3,1.6,1.9l0.8,0.9c0.3,0.4,0.8,0.6,1.2,0.7c5.8,2.3,10.5,3.7,13.7,5
					c3.2,1.1,5,1.8,5,1.7c0,0-0.4-0.3-1.2-0.7c-0.8-0.4-2-1-3.6-1.6c-3.1-1.4-7.9-3-13.4-5.4c-0.4-0.2-0.6-0.3-0.8-0.5l-0.8-0.9
					c-0.5-0.6-1-1.3-1.5-1.9c-1-1.3-2.1-2.7-3.5-4c-3-2.6-7.3-3.1-11.3-3.2c-8.1-0.2-17.1-0.1-26.4,0.3c-9.4,0.4-18.3,1.1-26.4,2.1
					c-2,0.3-4,0.4-6,1c-1.9,0.5-3.9,1.6-4.9,3.3c-2.3,3.2-2.3,6.8-3.9,9.3c-1.5,2.6-3.7,4.2-5.8,5.4c-2.1,1.2-4,2.1-5.5,2.9
					c-1.5,0.8-2.7,1.4-3.5,1.9C1868,570.8,1867.6,571.1,1867.6,571.1z"/>
			</g>
		</g>
		<g>
			<g>
				<path class="st6" d="M1873.3,573c0,0,0.4-0.2,1.1-0.6c0.6-0.5,1.7-1.1,3-1.8c2.7-1.4,6.8-3.1,12-4.6c10.5-2.9,25.6-5.3,42.3-4.9
					c8.4,0,16.4-0.1,23.6,0.3c7.2,0.5,13.7,1.4,19.1,2.3c2.7,0.5,5.1,1,7.2,1.6c2.1,0.5,3.8,1.2,4.9,2.1c2.3,2,1.7,4.1,1.8,4
					c0,0,0.2-0.4,0.2-1.2c-0.1-0.8-0.5-2.1-1.6-3.2c-1.2-1.1-3-1.9-5.1-2.5c-2.1-0.6-4.5-1.3-7.2-1.8c-5.4-1.1-11.9-2.1-19.2-2.7
					c-7.3-0.5-15.3-0.4-23.7-0.4c-16.8-0.4-32.1,2.2-42.6,5.4c-5.3,1.6-9.4,3.5-12,5.1c-1.3,0.8-2.3,1.5-2.9,2.1
					C1873.6,572.6,1873.3,572.9,1873.3,573z"/>
			</g>
		</g>
		<g>
			<g>
				<path class="st2" d="M1917,501.6c0,0.1,1.5,0.1,3.9,0c3.3-0.1,6.2-0.2,9.4-0.4c3.7-0.1,7.1-0.6,9.4-0.3c2.5,0.2,3.2,1.8,3.3,1.7
					c0,0-0.1-0.4-0.6-0.9c-0.5-0.5-1.4-1-2.7-1.2c-2.5-0.4-5.8,0.1-9.5,0.2c-3.2,0.2-6.2,0.4-9.4,0.6
					C1918.5,501.4,1917,501.5,1917,501.6z"/>
			</g>
		</g>
		<g>
			<g>
				<path class="st2" d="M1915.4,548c0,0,0.7,0.1,2,0c1.7,0,3.4,0,5.4-0.1c4.6-0.1,10.8-0.1,17.8,0c3.4,0.1,6.7,0.2,9.8,0.2
					c3,0.1,5.7,0.1,7.9,0.6c2.2,0.5,3.7,1.7,4.4,2.7c0.8,1,0.9,1.7,0.9,1.7c0,0,0-0.8-0.7-1.8c-0.7-1.1-2.3-2.4-4.5-3
					c-2.3-0.6-5-0.6-8-0.8c-3-0.1-6.3-0.2-9.8-0.3c-7-0.1-13.3,0-17.8,0.2c-2,0.1-3.7,0.2-5.4,0.3
					C1916.1,547.9,1915.4,547.9,1915.4,548z"/>
			</g>
		</g>
		<g>
			<g>
				<path class="st2" d="M1935.9,541c0,0,0-0.5-0.1-1.4c-0.2-1.3-0.3-2.5-0.5-3.8c-0.4-3.2-1-7.7-1.5-12.7c-0.5-5-0.8-9.5-1-12.7
					c-0.1-1.3-0.2-2.6-0.2-3.9c-0.1-0.9-0.1-1.4-0.2-1.4c0,0-0.1,0.5-0.1,1.4c0,0.9,0,2.2,0,3.9c0.1,3.3,0.3,7.8,0.8,12.7
					c0.5,5,1.1,9.4,1.7,12.7c0.3,1.6,0.5,2.9,0.7,3.8C1935.7,540.5,1935.9,541,1935.9,541z"/>
			</g>
		</g>
		<g>
			<g>
				<path class="st2" d="M1968.4,556.5c0,0,0.4,0.2,1.2,0.6c1.1,0.4,2.3,0.9,3.4,1.3c3.6,1.3,7.3,2.6,11.4,4
					c2.2,0.8,4.4,1.4,6.2,2.4c1.8,0.9,3.1,2.2,3.7,3.6c0.6,1.4,0.6,2.7,0.3,3.5c-0.2,0.8-0.6,1.2-0.5,1.2c0,0,0.4-0.3,0.7-1.1
					c0.3-0.8,0.4-2.2-0.1-3.7c-0.5-1.5-1.9-3-3.8-4c-1.8-1-4-1.7-6.2-2.4c-4.1-1.4-7.8-2.6-11.5-3.9c-1.2-0.4-2.3-0.7-3.5-1.1
					C1968.9,556.6,1968.4,556.5,1968.4,556.5z"/>
			</g>
		</g>
	</g>
	<g>
		<g>
			<g>
				<g>
					<g>
						<path class="st4" d="M1680,1254l3.5,63.3c0,0-63.2,24.9-63.7,36.6l123.1-2.4l-1.5-98.9L1680,1254z"/>
					</g>
					<g class="st13">
						<path d="M1680,1254l3.5,63.3c0,0-63.2,24.9-63.7,36.6l123.1-2.4l-1.5-98.9L1680,1254z"/>
					</g>
					<g>
						<g>
							<path class="st1" d="M1721.5,1311.2c2.4,0.6,4.1,3.2,3.6,5.7c-0.5,2.4-3.2,4.2-5.6,3.6c-2.4-0.6-4.5-3.7-3.8-6
								c0.8-2.3,4-4.2,6.2-3.1"/>
						</g>
					</g>
					<g>
						<path class="st1" d="M1742.9,1351.5l-0.5-10l-117.8,6.1c0,0-5.4,2.5-4.7,6.3L1742.9,1351.5z"/>
					</g>
					<g>
						<g>
							<path class="st6" d="M1681.5,1316.7c0,0.6,3,0.8,6,2.7c3,1.8,4.6,4.4,5.2,4.1c0.6-0.1-0.4-3.7-4.1-5.9
								C1685,1315.4,1681.4,1316.2,1681.5,1316.7z"/>
						</g>
					</g>
					<g>
						<g>
							<path class="st6" d="M1668.7,1322.3c-0.1,0.6,2.5,1.6,4.6,4.1c2.2,2.4,2.7,5.2,3.3,5.1c0.6,0.1,0.9-3.4-1.7-6.5
								C1672.2,1321.9,1668.7,1321.8,1668.7,1322.3z"/>
						</g>
					</g>
					<g>
						<g>
							<path class="st6" d="M1661.7,1337.9c0.5,0.1,1.3-2.9-0.3-6.2c-1.6-3.3-4.4-4.5-4.7-4c-0.3,0.5,1.5,2.2,2.8,4.9
								C1660.8,1335.3,1661.1,1337.9,1661.7,1337.9z"/>
						</g>
					</g>
					<g>
						<g>
							<path class="st6" d="M1682.3,1302.2c0.3,0.5,3-0.3,6.4-0.2c3.4,0.1,6.1,1.2,6.4,0.7c0.3-0.4-2.3-2.6-6.3-2.8
								C1684.8,1299.8,1682,1301.7,1682.3,1302.2z"/>
						</g>
					</g>
				</g>
				<g class="st5">
					<polygon points="1680.7,1266.5 1681.3,1277.8 1741.8,1276.1 1741.7,1265.9 					"/>
				</g>
				<g>
					<g>
						<path class="st6" d="M1681.8,1289.4c0,0.2,2.4,0.6,6.2-0.2c1.9-0.4,4.1-1,6.4-2.1c1.2-0.5,2.3-1.2,3.5-1.9
							c0.6-0.4,1.2-0.8,1.8-1.5c0.7-0.6,1-2.2,0.2-3.2c-0.6-0.9-1.8-1.3-2.7-1.3c-0.9,0-1.6,0.2-2.3,0.4c-1.4,0.4-2.6,0.8-3.8,1.4
							c-2.3,1.1-4.2,2.5-5.6,3.8c-2.8,2.7-3.7,5-3.5,5.1c0.3,0.2,1.6-1.7,4.5-4c1.4-1.1,3.3-2.3,5.4-3.2c1.1-0.5,2.3-0.9,3.5-1.2
							c1.3-0.4,2.4-0.4,2.8,0.2c0.1,0.2,0.1,0.3-0.1,0.7c-0.3,0.4-0.8,0.7-1.3,1.1c-1.1,0.7-2.2,1.4-3.2,1.9
							c-2.1,1.1-4.2,1.9-5.9,2.4C1684.1,1288.9,1681.8,1289.1,1681.8,1289.4z"/>
					</g>
				</g>
				<g>
					<g>
						<path class="st6" d="M1682.6,1290.3c0.2,0.1,1.4-2.1,1.5-6c0.1-1.9-0.2-4.3-1-6.7c-0.4-1.2-0.9-2.5-1.6-3.7
							c-0.7-1.2-1.7-2.8-4-3c-1.2,0-2.2,0.9-2.5,1.8c-0.4,0.8-0.5,1.6-0.6,2.3c-0.2,1.4-0.1,2.9,0.1,4.2c0.4,2.6,1.6,4.8,2.8,6.3
							c2.5,3.1,5,3.8,5,3.6c0.2-0.3-1.9-1.4-3.8-4.5c-0.9-1.5-1.8-3.5-2.1-5.8c-0.1-1.1-0.1-2.3,0-3.6c0.2-1.3,0.6-2.4,1.1-2.3
							c0.6,0,1.7,0.9,2.2,2c0.7,1.1,1.2,2.2,1.6,3.3c0.8,2.2,1.2,4.3,1.3,6.1C1682.9,1287.9,1682.3,1290.2,1682.6,1290.3z"/>
					</g>
				</g>
			</g>
			<g>
				<g>
					<g>
						<g>
							<path class="st6" d="M2012.2,984.8c0,0-13.4,69-35.8,69.9c-27.4,1.2-225.8,3.9-225.8,3.9l12.1,220.9l-86.6-2.1l-34.6-217.7
								c-3.7-19.5-0.7-39.9,9.2-57.2c0.2-0.4,0.5-0.8,0.7-1.2c14.7-24.9,42-39.6,70.8-39.9l164.8-2.5L2012.2,984.8z"/>
						</g>
					</g>
				</g>
			</g>
		</g>
		<g>
			<g>
				<g>
					<g>
						<path class="st4" d="M1713.6,1254l3.5,63.3c0,0-63.2,24.9-63.7,36.6l123.1-2.4l-1.5-98.9L1713.6,1254z"/>
					</g>
					<g>
						<g>
							<path class="st1" d="M1755.1,1311.2c2.4,0.6,4.1,3.2,3.6,5.7c-0.5,2.4-3.2,4.2-5.6,3.6c-2.4-0.6-4.5-3.7-3.8-6
								c0.8-2.3,4-4.2,6.2-3.1"/>
						</g>
					</g>
					<g>
						<path class="st1" d="M1776.5,1351.5l-0.5-10l-117.8,6.1c0,0-5.4,2.5-4.7,6.3L1776.5,1351.5z"/>
					</g>
					<g>
						<g>
							<path class="st6" d="M1715.1,1316.7c0,0.6,3,0.8,6,2.7c3,1.8,4.6,4.4,5.2,4.1c0.6-0.1-0.4-3.7-4.1-5.9
								C1718.6,1315.4,1715,1316.2,1715.1,1316.7z"/>
						</g>
					</g>
					<g>
						<g>
							<path class="st6" d="M1702.3,1322.3c-0.1,0.6,2.5,1.6,4.6,4.1c2.2,2.4,2.7,5.2,3.3,5.1c0.6,0.1,0.9-3.4-1.7-6.5
								C1705.9,1321.9,1702.3,1321.8,1702.3,1322.3z"/>
						</g>
					</g>
					<g>
						<g>
							<path class="st6" d="M1695.3,1337.9c0.5,0.1,1.3-2.9-0.3-6.2c-1.6-3.3-4.4-4.5-4.7-4c-0.3,0.5,1.5,2.2,2.8,4.9
								C1694.5,1335.3,1694.7,1337.9,1695.3,1337.9z"/>
						</g>
					</g>
					<g>
						<g>
							<path class="st6" d="M1715.9,1302.2c0.3,0.5,3-0.3,6.4-0.2c3.4,0.1,6.1,1.2,6.4,0.7c0.3-0.4-2.3-2.6-6.3-2.8
								C1718.4,1299.8,1715.6,1301.7,1715.9,1302.2z"/>
						</g>
					</g>
				</g>
				<g class="st5">
					<polygon points="1714.3,1266.5 1714.9,1277.8 1775.4,1276.1 1775.3,1265.9 					"/>
				</g>
				<g>
					<g>
						<path class="st6" d="M1715.5,1289.4c0,0.2,2.4,0.6,6.2-0.2c1.9-0.4,4.1-1,6.4-2.1c1.2-0.5,2.3-1.2,3.5-1.9
							c0.6-0.4,1.2-0.8,1.8-1.5c0.7-0.6,1-2.2,0.2-3.2c-0.6-0.9-1.8-1.3-2.7-1.3c-0.9,0-1.6,0.2-2.3,0.4c-1.4,0.4-2.6,0.8-3.8,1.4
							c-2.3,1.1-4.2,2.5-5.6,3.8c-2.8,2.7-3.7,5-3.5,5.1c0.3,0.2,1.6-1.7,4.5-4c1.4-1.1,3.3-2.3,5.4-3.2c1.1-0.5,2.3-0.9,3.5-1.2
							c1.3-0.4,2.4-0.4,2.8,0.2c0.1,0.2,0.1,0.3-0.1,0.7c-0.3,0.4-0.8,0.7-1.3,1.1c-1.1,0.7-2.2,1.4-3.2,1.9
							c-2.1,1.1-4.2,1.9-5.9,2.4C1717.8,1288.9,1715.4,1289.1,1715.5,1289.4z"/>
					</g>
				</g>
				<g>
					<g>
						<path class="st6" d="M1716.3,1290.3c0.2,0.1,1.4-2.1,1.5-6c0.1-1.9-0.2-4.3-1-6.7c-0.4-1.2-0.9-2.5-1.6-3.7
							c-0.7-1.2-1.7-2.8-4-3c-1.2,0-2.2,0.9-2.5,1.8c-0.4,0.8-0.5,1.6-0.6,2.3c-0.2,1.4-0.1,2.9,0.1,4.2c0.4,2.6,1.6,4.8,2.8,6.3
							c2.5,3.1,5,3.8,5,3.6c0.2-0.3-1.9-1.4-3.8-4.5c-0.9-1.5-1.8-3.5-2.1-5.8c-0.1-1.1-0.1-2.3,0-3.6c0.2-1.3,0.6-2.4,1.1-2.3
							c0.6,0,1.7,0.9,2.2,2c0.7,1.1,1.2,2.2,1.6,3.3c0.8,2.2,1.2,4.3,1.3,6.1C1716.5,1287.9,1715.9,1290.2,1716.3,1290.3z"/>
					</g>
				</g>
			</g>
			<g>
				<g>
					<g>
						<g>
							<path class="st6" d="M2034.1,984.8c0,0-13.4,69-35.8,69.9c-27.4,1.2-225.8,3.9-225.8,3.9l12.1,220.9l-86.6-2.1l-34.6-217.7
								c-3.7-19.5-0.7-39.9,9.2-57.2c0.2-0.4,0.5-0.8,0.7-1.2c14.7-24.9,42-39.6,70.8-39.9l164.8-2.5L2034.1,984.8z"/>
						</g>
					</g>
				</g>
			</g>
			<g>
				<g>
					<path class="st4" d="M1865.3,707.8l25.9,173.6l-17.7,78l160.5,47.3c14.5-20.7,15.1-86.7,14.6-133.3c-0.9-82.2,2.7-86.2-0.8-115
						c-3.5-28.5-9.6-47.4-24.8-56.4l-43.6-22.4c0,0-24.7,15.7-39.7,14.9c0,0-17.8,0.7-27.7-8.7C1912,685.6,1876,696.5,1865.3,707.8z
						"/>
				</g>
			</g>
			<polygon class="st4" points="1865.3,707.8 1811.8,781.6 1884.6,824.3 1879.1,797.5 			"/>
			<g>
				<path class="st8" d="M1737.8,962.6c0,0-0.3,0.1-0.9,0.1c-0.7,0.1-1.6,0.1-2.7,0.2c-1.2,0-2.7,0.3-4.4,0.5
					c-1.7,0.2-3.7,0.6-5.9,1.1c-8.7,2-21.3,7-33.4,17.7c-6,5.4-11.8,12.1-16.7,20.3c-4.8,8.1-8.4,17.8-9.4,28.4
					c-1.2,10.6-0.3,21.8,1.3,33.4c1.6,11.5,3.8,23.5,5.1,35.8c2.8,24.6,6.5,47.9,10,69.1c3.6,21.1,6.8,40.2,9.5,56.3
					c2.7,16,4.8,29,6.1,38c0.6,4.4,1.1,7.8,1.4,10.4c0.1,1.1,0.2,2,0.3,2.7c0.1,0.6,0.1,0.9,0,0.9c0,0-0.1-0.3-0.2-0.9
					c-0.1-0.7-0.3-1.6-0.5-2.7c-0.4-2.5-1-6-1.8-10.3c-1.6-9.1-3.9-22-6.7-37.9c-2.8-16.1-6.2-35.1-10-56.2
					c-3.6-21.2-7.4-44.5-10.1-69.2c-1.2-12.3-3.5-24.2-5-35.8c-1.6-11.6-2.4-23-1.1-33.8c1.1-10.8,4.8-20.8,9.8-29
					c5-8.2,11-15.1,17.2-20.5c12.4-10.8,25.3-15.6,34.2-17.4C1732.7,962,1737.8,962.6,1737.8,962.6z"/>
			</g>
			<g>
				<g>
					<path class="st12" d="M1799.3,909c0,0,61.9,20,110.1,37.4c16.6,6,35.1,3.3,49.3-7.2l0,0c8.9-6.6,15.6-15.9,18.9-26.5l33-103.9
						l-55.1-19.3l-36.8,93.4l-136.9-18"/>
					<g>
						<path class="st12" d="M1717.4,887.6l-0.5-4.9c0.3-3.6,1.8-7.1,4.3-9.8l0,0c1.3-1.5,2.9-2.7,4.6-3.6l16.2-8.4
							c2.5-1.3,5.3-1.7,8-1.3l33.2,5.6l38.1,5l-7.9,43.4l-17.6-5.9c0,0-12.8,7.1-20.6,5.4c0,0-7.3,4.9-10.3,1.3c0,0-6.6,5.6-9,5.2
							c-2.4-0.4-7.3-3.2-7.1-4.9l0.2-2.2c0,0-4.9,2.4-8-0.4c-3.2-2.8-3.7-5.1-3.7-5.1s-6-0.7-8.2-3.6c-2.2-2.8-3-7.5-3-7.5
							S1718.6,892.7,1717.4,887.6z"/>
						<g>
							<path class="st11" d="M1741.9,871.9c0.2,0,0.6,1.8-0.2,4.5c-0.8,2.8-2.9,6.1-5.9,9.1c-2.9,3-5.6,5.5-7.3,7.5
								c-1.7,2-2.6,3.4-2.8,3.3c-0.2-0.1,0.2-1.8,1.7-4.2c1.5-2.4,4.2-5.1,7-8c2.8-2.9,5-5.8,6-8.2
								C1741.4,873.5,1741.6,871.9,1741.9,871.9z"/>
						</g>
						<g>
							<path class="st11" d="M1748.2,889.2c0.5,0.2-1.1,4.8-4.3,9.8c-3.2,5-6.8,8.3-7.2,7.9c-0.4-0.4,2.3-4.2,5.5-9
								C1745.3,893.1,1747.7,889,1748.2,889.2z"/>
						</g>
						<g>
							<path class="st11" d="M1756.7,900.7c0.5,0.3-0.9,3.1-3.1,6.3c-2.2,3.2-4.3,5.5-4.8,5.2c-0.5-0.3,0.9-3.2,3.1-6.3
								C1754.1,902.7,1756.2,900.4,1756.7,900.7z"/>
						</g>
						<g>
							<path class="st11" d="M1755.1,896.1c-0.1,0.2-0.9,0.3-1.9-0.3c-1-0.6-2.2-1.9-2.5-3.8c-0.3-1.9,0.4-3.5,1.2-4.4
								c0.8-0.9,1.5-1.1,1.7-0.9c0.4,0.4-1.3,2.4-0.8,5C1753.2,894.3,1755.4,895.6,1755.1,896.1z"/>
						</g>
						<g>
							<path class="st11" d="M1764.4,907.8c-0.1,0.2-0.7,0.3-1.6-0.2c-0.8-0.5-1.8-1.5-2.2-3c-0.4-1.4,0-3.1,1-3.8
								c1-0.7,1.8-0.2,1.7,0.1c-0.2,0.5-1.3,1.1-0.8,3.3C1763.1,906.1,1764.6,907.3,1764.4,907.8z"/>
						</g>
						<g>
							<path class="st11" d="M1749.7,883.7c0,0.3-0.9,0.5-2-0.1c-1.1-0.5-2.6-1.9-2.8-4.1c-0.2-2.1,1-3.8,2-4.5
								c1.1-0.8,1.9-0.7,2-0.5c0.2,0.4-2.2,2-2,4.8C1747.2,882.2,1749.9,883.3,1749.7,883.7z"/>
						</g>
					</g>
				</g>
				<g>
					<path class="st4" d="M2010.9,716.1c-12.6-5.5-28.1,0-37.1,9.5c-9.1,9.5-13.3,22-17.2,34.1c-3.8,11.7-13.2,35.4-17,47.1
						l71.4,30.6c6.1-16.5,11.7-33.1,17-49.8c4.4-14.1,8.6-29.2,3.4-43.2"/>
					<g>
						<path class="st6" d="M2031.4,744.2c0.1,0,0.3,0.6,0.7,1.7c0.4,1.1,1,2.9,1.4,5.2c0.9,4.6,1.1,11.5-0.5,20
							c-1.5,8.5-4.9,18.3-8.6,29.4c-3.8,11.2-8,23.6-12.5,37l-0.3,1l-1-0.4c-15.5-6.6-32.5-13.9-50.2-21.4
							c-7.2-3.1-14.4-6.2-21.2-9.1l-0.8-0.4l0.3-0.8c5.8-17,12.2-32.6,17.1-46.9c2.4-7.2,4.7-14.1,7.8-20.2
							c3-6.1,6.8-11.4,11.1-15.5c8.8-8.2,19.4-10.6,26.2-10.3c3.5,0.1,6,0.9,7.7,1.4c1.7,0.7,2.5,1.1,2.5,1.1
							c-0.1,0.3-3.4-1.7-10.2-1.8c-6.6-0.1-16.7,2.5-25.1,10.5c-4.2,4-7.7,9.2-10.6,15.2c-2.9,6-5.2,12.8-7.5,20
							c-4.7,14.5-11.1,30.1-16.8,47l-0.6-1.2c6.8,2.9,13.9,6,21.2,9.1c17.7,7.6,34.7,14.9,50.2,21.6l-1.4,0.5
							c4.6-13.4,8.9-25.8,12.8-36.9c3.9-11.1,7.3-20.8,9-29.2c1.8-8.3,1.8-15.1,1.1-19.7C2032.2,746.7,2031.2,744.3,2031.4,744.2z"
							/>
					</g>
				</g>
				<g>
					<path class="st11" d="M1939.9,918.6c-0.3,0.1-0.8-4.1-3.2-11c-1.2-3.5-3.1-7.6-5.9-12c-2.8-4.2-6.8-9-12.4-11.9l0.2,0.1
						c-20.7-2.7-47.8-6.2-77.3-10.1c-16.5-2.2-32.3-4.4-46.6-6.3c-7.1-1-13.9-1.9-20.3-2.8c-6.3-1-12.2-2-17.7-2.8
						c-2.7-0.4-5.3-0.9-7.7-1.2c-2.3-0.4-4.5,0.1-6.3,1.1c-3.8,1.9-7.2,3.5-10,4.8c-2.6,1.2-4.7,2.2-6.4,3c-1.5,0.7-2.3,1-2.3,0.9
						c0-0.1,0.7-0.5,2.1-1.3c1.6-0.9,3.7-2,6.2-3.3c2.8-1.5,6.1-3.2,9.9-5.2c1.9-1.1,4.5-1.8,7.1-1.4c2.4,0.3,5,0.7,7.7,1.1
						c5.4,0.8,11.4,1.6,17.7,2.6c6.4,0.8,13.2,1.7,20.4,2.6c14.4,1.9,30.1,4,46.6,6.1c29.5,4,56.5,7.7,77.3,10.5l0.1,0l0.1,0
						c6.1,3.3,10,8.2,12.8,12.7c2.8,4.5,4.6,8.8,5.7,12.4c1.1,3.6,1.7,6.4,2,8.3C1939.9,917.6,1940,918.6,1939.9,918.6z"/>
				</g>
			</g>
		</g>
		<g>
			<path class="st6" d="M1891.3,878.8c-0.1,0-0.5-2-1.1-5.6c-0.6-4-1.5-9.1-2.4-15.4c-2.2-13.3-5.1-31-8.4-50.6
				c-3.3-19.6-6.2-37.3-8.4-50.6c-1-6.2-1.8-11.4-2.4-15.4c-0.5-3.6-0.8-5.7-0.6-5.7c0.1,0,0.6,2,1.4,5.6c0.8,4,1.8,9.1,3,15.3
				c2.5,12.9,5.7,30.8,9,50.6c3.3,19.8,6.1,37.7,7.8,50.7c0.9,6.5,1.5,11.8,1.8,15.5C1891.3,876.7,1891.5,878.8,1891.3,878.8z"/>
		</g>
	</g>
</g>
<g>
	<path class="st6" d="M2631,1732.9c0,0.6-564.8,1-1261.4,1c-696.8,0-1261.6-0.5-1261.6-1c0-0.6,564.7-1,1261.6-1
		C2066.1,1731.9,2631,1732.3,2631,1732.9z"/>
</g>
<g>
	<g>
		<path class="st4" d="M183.6,1602.8c-6.3,8.5-17.9,5.3-23.2-0.1c-5.3-5.4-7.4-13.1-9.3-20.4c-4.3-16.8-8.7-34.3-4.7-51.1
			c1.2-5,3.2-10,6.9-13.7s9.2-5.7,14.1-4.3c5.9,1.7,9.4,7.6,11.9,13.2c7.4,16.4,11,34.5,10.6,52.5
			C189.8,1587.2,188.6,1595.9,183.6,1602.8"/>
	</g>
	<g class="st14">
		<path d="M183.6,1602.8c-6.3,8.5-17.9,5.3-23.2-0.1c-5.3-5.4-7.4-13.1-9.3-20.4c-4.3-16.8-8.7-34.3-4.7-51.1c1.2-5,3.2-10,6.9-13.7
			s9.2-5.7,14.1-4.3c5.9,1.7,9.4,7.6,11.9,13.2c7.4,16.4,11,34.5,10.6,52.5C189.8,1587.2,188.6,1595.9,183.6,1602.8"/>
	</g>
	<g>
		<path class="st4" d="M159.8,1645.8c-9.7-5.4-21.3-6.3-32.4-4.8c-5.9,0.8-12.1,2.4-16.2,6.7c-4.1,4.3-5.1,12.1-0.6,16
			c2.7,2.3,6.5,2.8,10,2.8c8.6,0.1,18.1-1.1,24.9,4.2c3.8,3.1,6.3,8,10.9,9.6c4.5,1.5,9.8-1,12.3-5.1c2.5-4.1,2.8-9.2,1.7-13.9
			C170.6,1661.4,169.6,1651.2,159.8,1645.8z"/>
	</g>
	<g>
		<path class="st4" d="M199.9,1615.6c-6.3-8-7.3-19.3-4.1-29c3.2-9.7,10-17.8,17.8-24.4c9.1-7.7,19.8-13.6,31.1-17.2
			c4.5-1.4,9.2-2.5,13.8-2c4.7,0.6,9.3,3.1,11.4,7.3c3.1,6.2-0.2,13.6-3.7,19.6c-6.2,10.6-13.2,20.6-20.9,30.1
			c-6.2,7.6-13.3,15.1-22.6,18.4c-9.3,3.3-18.8,2.6-23.5-3.9"/>
	</g>
	<g>
		<g>
			<path class="st6" d="M180.6,1732.8c-0.1,0-0.3-1.4-0.4-3.9c-0.2-2.9-0.5-6.4-0.8-10.7c-0.4-4.5-0.9-9.9-2-15.8
				c-1.1-5.8-2.9-12.2-5.2-18.7c-2.4-6.4-5.4-12.3-9-17c-3.5-4.7-7.7-8.2-11.7-10.3c-3.9-2.1-7.5-3-10-3.4c-2.5-0.3-3.9-0.6-3.9-0.7
				c0-0.1,1.4-0.1,4,0c2.5,0.2,6.3,1,10.4,3c4.2,2,8.6,5.5,12.3,10.4c3.8,4.8,6.9,10.8,9.3,17.4c2.4,6.6,4.1,13,5.2,19
				c1,6,1.4,11.4,1.7,15.9c0.2,4.6,0.2,8.2,0.2,10.8C180.7,1731.4,180.7,1732.8,180.6,1732.8z"/>
		</g>
	</g>
	<g>
		<g>
			<path class="st6" d="M180,1724.6c-0.1,0-0.1-0.6-0.1-1.8c0-1.4,0.1-3.1,0.2-5.2c0.1-4.5,0.3-11,0.3-19.1c0-16.1-0.8-38.4-2.8-63
				c-2-24.5-5-46.7-7.9-62.5c-0.7-4-1.3-7.6-2-10.7c-0.6-3.1-1.1-5.9-1.7-8.1c-0.4-2.1-0.8-3.8-1.1-5.1c-0.2-1.2-0.3-1.8-0.3-1.8
				c0.1,0,0.3,0.6,0.6,1.7c0.4,1.3,0.8,3,1.4,5c0.6,2.2,1.2,4.9,1.9,8c0.7,3.1,1.5,6.7,2.2,10.7c3.1,15.9,6.3,38,8.4,62.6
				c2,24.6,2.6,47,2.3,63.1c-0.1,8.1-0.5,14.6-0.8,19.1c-0.2,2.1-0.3,3.8-0.5,5.2C180.2,1724,180.1,1724.6,180,1724.6z"/>
		</g>
	</g>
	<g>
		<g>
			<path class="st6" d="M181.1,1681.5c-0.1,0,0-1.9,0.2-5.4c0.3-3.5,0.9-8.5,2.1-14.7c1.2-6.1,2.9-13.4,5.4-21.3
				c2.4-7.9,5.6-16.5,9.6-25.1c7.9-17.4,18.4-31.6,27.4-40.3c2.1-2.3,4.5-4,6.3-5.6c1-0.8,1.8-1.6,2.7-2.2c0.9-0.6,1.7-1.1,2.4-1.6
				c2.9-1.9,4.6-2.9,4.7-2.8c0.2,0.4-6.6,4.1-15.3,13c-8.7,8.8-18.9,22.9-26.8,40.2c-4,8.6-7.2,17-9.7,24.9
				c-2.6,7.8-4.3,15-5.7,21.1c-1.3,6.1-2.1,11.1-2.6,14.5C181.5,1679.6,181.2,1681.5,181.1,1681.5z"/>
		</g>
	</g>
</g>
</svg>